#N canvas 165 446 2441 1444 12;
#N canvas 0 50 450 250 (subpatch) 0;
#X array sample 7.19919e+06 float 2;
#X coords 0 1 7.19919e+06 -1 800 140 1 0 0;
#X restore 68 17 graph;
#N canvas 1467 401 1237 1013 load 0;
#X obj 101 143 soundfiler;
#X obj 105 192 send samplect;
#X msg 103 112 read -resize sample.wav sample;
#X obj 192 34 loadbang;
#X floatatom 75 222 5 0 0 0 - - -;
#X obj 40 200 f;
#X obj 74 263 print samples;
#X obj 200 63 t b b;
#X obj 356 111 samplerate~;
#X obj 358 159 t b f;
#X obj 373 222 /;
#X msg 348 189 1;
#X obj 357 89 bng 15 250 50 0 empty empty empty 17 7 0 10 -262144 -1
-1;
#X obj 308 261 *;
#X obj 300 298 send duration;
#X obj 415 296 print duration;
#X connect 0 0 1 0;
#X connect 0 0 5 1;
#X connect 0 0 4 0;
#X connect 0 0 13 0;
#X connect 2 0 0 0;
#X connect 3 0 7 0;
#X connect 4 0 6 0;
#X connect 7 0 2 0;
#X connect 7 1 12 0;
#X connect 8 0 9 0;
#X connect 9 0 11 0;
#X connect 9 1 10 1;
#X connect 10 0 13 1;
#X connect 11 0 10 0;
#X connect 12 0 8 0;
#X connect 13 0 14 0;
#X connect 13 0 15 0;
#X restore 881 19 pd load;
#X obj 19 255 r samples;
#X obj 71 159 hsl 795 15 0 1 0 0 empty empty empty -2 -8 0 10 -262144
-1 -1 0 1;
#X floatatom 66 190 5 0 0 0 - - -;
#X obj 20 283 t b f;
#X obj 142 179 hsl 795 15 0 1 0 0 empty empty empty -2 -8 0 10 -262144
-1 -1 0 1;
#N canvas 2473 415 822 1023 hitshot 0;
#X obj 58 438 outlet~;
#X obj 58 400 tabplay~ sample;
#X obj 49 63 inlet;
#X obj 51 193 unpack f f;
#X text 63 162 offset ms \, duration ms;
#X msg 59 311 \$1 \$2;
#X obj 54 283 pack f f;
#X obj 93 354 print;
#X obj 229 128 samplerate~;
#X floatatom 235 153 5 0 0 0 - - -;
#X obj 231 84 loadbang;
#X obj 236 176 / 1000;
#X floatatom 235 201 5 0 0 0 - - -;
#X obj 52 248 *;
#X obj 109 254 *;
#X obj 230 109 bng 15 250 50 0 empty empty empty 17 7 0 10 -262144
-1 -1;
#X text 238 274 todo change speed;
#X text 245 298 todo add volume;
#X connect 1 0 0 0;
#X connect 2 0 3 0;
#X connect 3 0 13 0;
#X connect 3 1 14 0;
#X connect 5 0 7 0;
#X connect 5 0 1 0;
#X connect 6 0 5 0;
#X connect 8 0 9 0;
#X connect 9 0 11 0;
#X connect 10 0 15 0;
#X connect 11 0 12 0;
#X connect 11 0 13 1;
#X connect 11 0 14 1;
#X connect 13 0 6 0;
#X connect 14 0 6 1;
#X connect 15 0 8 0;
#X restore 810 417 pd hitshot;
#X obj 805 352 f;
#X obj 856 350 f;
#X obj 807 318 t b b;
#X obj 814 383 pack f f;
#X obj 806 287 bng 15 250 50 0 empty empty empty 17 7 0 10 -262144
-1 -1;
#X floatatom 838 285 5 0 0 0 - - -;
#X floatatom 886 287 5 0 0 0 - - -;
#X obj 400 202 slidetime;
#X floatatom 994 343 5 0 0 0 - - -;
#X obj 821 447 dline2~ 0.91;
#X obj 985 384 sig~ 110;
#X obj 117 322 newgranule_v~;
#X obj 282 275 r duration;
#X msg 281 298 duration \$1;
#X obj 314 324 newgranule_v~;
#X obj 479 277 r duration;
#X msg 478 300 duration \$1;
#X obj 248 427 print;
#X msg 268 249 dump;
#X obj 348 470 huge-rev1~;
#X obj 268 569 sout~;
#X obj 340 568 loadbang;
#X msg 343 597 0.75;
#X obj 266 539 *~ 1;
#X obj 881 42 huge-rev-tables-local;
#X obj 347 448 hsl 80 15 0 100 0 0 empty empty empty -2 -8 0 10 -262144
-1 -1 0 1;
#X obj 333 497 wetdry~;
#X obj 390 497 wetdry~;
#X obj 824 473 huge-rev1~;
#X obj 593 549 ngs~;
#X obj 592 596 *~;
#X obj 625 594 tgl 15 0 empty empty empty 17 7 0 10 -262144 -1 -1 0
1;
#X floatatom 606 484 5 0 0 0 - - -;
#X obj 672 446 r duration;
#X msg 671 469 duration \$1;
#X floatatom 732 520 5 0 0 0 - - -;
#X msg 735 565 spread \$1;
#X obj 604 649 huge-rev1~;
#X obj 635 625 hsl 80 15 0 100 0 0 empty empty empty -2 -8 0 10 -262144
-1 -1 0 1;
#X obj 589 676 wetdry~;
#X obj 646 676 wetdry~;
#X msg 664 398 speed \$1;
#X floatatom 663 372 5 0 0 0 - - -;
#N canvas 0 80 450 300 loops 0;
#X restore 1050 292 pd loops;
#X connect 2 0 5 0;
#X connect 3 0 4 0;
#X connect 3 0 19 0;
#X connect 6 0 22 0;
#X connect 6 0 37 0;
#X connect 7 0 17 0;
#X connect 8 0 11 0;
#X connect 9 0 11 1;
#X connect 10 0 8 0;
#X connect 10 1 9 0;
#X connect 11 0 7 0;
#X connect 12 0 10 0;
#X connect 13 0 8 1;
#X connect 14 0 9 1;
#X connect 15 0 13 0;
#X connect 16 0 18 0;
#X connect 17 0 36 0;
#X connect 18 0 17 1;
#X connect 19 0 31 0;
#X connect 19 1 25 0;
#X connect 20 0 21 0;
#X connect 21 0 19 1;
#X connect 22 0 27 0;
#X connect 22 0 31 0;
#X connect 22 0 34 0;
#X connect 22 0 35 0;
#X connect 23 0 24 0;
#X connect 24 0 22 1;
#X connect 26 0 19 1;
#X connect 27 0 34 1;
#X connect 27 1 35 1;
#X connect 29 0 30 0;
#X connect 30 0 28 2;
#X connect 31 0 28 0;
#X connect 31 0 28 1;
#X connect 33 0 34 2;
#X connect 33 0 35 2;
#X connect 34 0 28 0;
#X connect 35 0 28 1;
#X connect 37 0 38 0;
#X connect 38 0 47 0;
#X connect 38 0 48 0;
#X connect 38 0 45 0;
#X connect 39 0 38 1;
#X connect 40 0 37 1;
#X connect 41 0 42 0;
#X connect 42 0 37 2;
#X connect 43 0 44 0;
#X connect 44 0 37 2;
#X connect 45 0 47 1;
#X connect 45 1 48 1;
#X connect 46 0 47 2;
#X connect 46 0 48 2;
#X connect 47 0 28 0;
#X connect 48 0 28 1;
#X connect 49 0 37 2;
#X connect 50 0 49 0;
