#N canvas 165 446 2485 1458 12;
#N canvas 0 50 450 250 (subpatch) 0;
#X array sample 7.19919e+06 float 2;
#X coords 0 1 7.19919e+06 -1 800 140 1 0 0;
#X restore 68 17 graph;
#N canvas 1467 401 1237 1013 load 0;
#X obj 101 143 soundfiler;
#X obj 105 192 send samplect;
#X msg 103 112 read -resize sample.wav sample;
#X obj 192 34 loadbang;
#X floatatom 75 222 5 0 0 0 - - -;
#X obj 40 200 f;
#X obj 74 263 print samples;
#X obj 200 63 t b b;
#X obj 356 111 samplerate~;
#X obj 358 159 t b f;
#X obj 373 222 /;
#X msg 348 189 1;
#X obj 357 89 bng 15 250 50 0 empty empty empty 17 7 0 10 -262144 -1
-1;
#X obj 308 261 *;
#X obj 300 298 send duration;
#X obj 415 296 print duration;
#X connect 0 0 1 0;
#X connect 0 0 5 1;
#X connect 0 0 4 0;
#X connect 0 0 13 0;
#X connect 2 0 0 0;
#X connect 3 0 7 0;
#X connect 4 0 6 0;
#X connect 7 0 2 0;
#X connect 7 1 12 0;
#X connect 8 0 9 0;
#X connect 9 0 11 0;
#X connect 9 1 10 1;
#X connect 10 0 13 1;
#X connect 11 0 10 0;
#X connect 12 0 8 0;
#X connect 13 0 14 0;
#X connect 13 0 15 0;
#X restore 882 58 pd load;
#X obj 276 527 mout~;
#X obj 18 252 r samples;
#X floatatom 276 368 5 0 0 0 - - -;
#X text 259 348 duration ms;
#X floatatom 203 369 5 0 0 0 - - -;
#X text 197 348 pos ms;
#X obj 71 159 hsl 795 15 0 1 0 0 empty empty empty -2 -8 0 10 -262144
-1 -1 22200 1;
#X floatatom 66 190 5 0 0 0 - - -;
#X obj 105 239 *;
#X obj 22 282 t b f;
#X obj 127 206 r duration;
#X obj 105 263 * 1000;
#X obj 222 433 newgranule~ sample;
#X floatatom 535 369 5 0 0 0 - - -;
#X text 518 349 duration ms;
#X floatatom 438 333 12 0 0 0 - - -;
#X text 459 313 pos ms;
#X floatatom 594 254 5 0 0 0 - - -;
#X text 589 234 speed;
#X obj 474 407 newgranule~ sample;
#X floatatom 615 329 5 0 0 0 - - -;
#X obj 142 179 hsl 795 15 0 1 0 0 empty empty empty -2 -8 0 10 -262144
-1 -1 28070 1;
#X floatatom 382 246 5 0 0 0 - - -;
#X obj 406 280 *;
#X obj 428 247 r duration;
#X obj 406 304 * 1000;
#N canvas 2473 415 822 1023 hitshot 0;
#X obj 58 438 outlet~;
#X obj 58 400 tabplay~ sample;
#X obj 49 63 inlet;
#X obj 51 193 unpack f f;
#X text 63 162 offset ms \, duration ms;
#X msg 59 311 \$1 \$2;
#X obj 54 283 pack f f;
#X obj 93 354 print;
#X obj 229 128 samplerate~;
#X floatatom 235 153 5 0 0 0 - - -;
#X obj 231 84 loadbang;
#X obj 236 176 / 1000;
#X floatatom 235 201 5 0 0 0 - - -;
#X obj 52 248 *;
#X obj 109 254 *;
#X obj 230 109 bng 15 250 50 0 empty empty empty 17 7 0 10 -262144
-1 -1;
#X text 238 274 todo change speed;
#X text 245 298 todo add volume;
#X connect 1 0 0 0;
#X connect 2 0 3 0;
#X connect 3 0 13 0;
#X connect 3 1 14 0;
#X connect 5 0 7 0;
#X connect 5 0 1 0;
#X connect 6 0 5 0;
#X connect 8 0 9 0;
#X connect 9 0 11 0;
#X connect 10 0 15 0;
#X connect 11 0 12 0;
#X connect 11 0 13 1;
#X connect 11 0 14 1;
#X connect 13 0 6 0;
#X connect 14 0 6 1;
#X connect 15 0 8 0;
#X restore 725 501 pd hitshot;
#X obj 472 436 *~;
#X obj 502 433 tgl 15 0 empty empty empty 17 7 0 10 -262144 -1 -1 0
1;
#X obj 263 467 *~;
#X obj 293 464 tgl 15 0 empty empty empty 17 7 0 10 -262144 -1 -1 0
1;
#X obj 720 436 f;
#X obj 771 434 f;
#X obj 722 402 t b b;
#X obj 729 467 pack f f;
#X obj 721 371 bng 15 250 50 0 empty empty empty 17 7 0 10 -262144
-1 -1;
#X floatatom 753 369 5 0 0 0 - - -;
#X floatatom 801 371 5 0 0 0 - - -;
#X obj 478 599 huge-rev1~ /home/jason/media/sound/reverb_sources/impulse_ms_garage02_stereo.wav
;
#X obj 400 202 slidetime;
#X obj 599 517 wetdry ~;
#X floatatom 909 427 5 0 0 0 - - -;
#X obj 735 549 dline2~ 0.91;
#X obj 900 468 sig~ 110;
#X msg 594 277 speed \$1;
#X msg 614 353 wamp \$1;
#X floatatom 332 294 5 0 0 0 - - -;
#X text 327 274 speed;
#X floatatom 353 369 5 0 0 0 - - -;
#X msg 332 317 speed \$1;
#X msg 352 393 wamp \$1;
#X obj 875 264 newgranule_v~;
#X connect 3 0 11 0;
#X connect 4 0 14 1;
#X connect 8 0 9 0;
#X connect 9 0 10 0;
#X connect 10 0 13 0;
#X connect 12 0 10 1;
#X connect 13 0 6 0;
#X connect 13 0 14 0;
#X connect 14 0 31 0;
#X connect 15 0 21 1;
#X connect 19 0 46 0;
#X connect 21 0 29 0;
#X connect 22 0 47 0;
#X connect 23 0 24 0;
#X connect 24 0 25 0;
#X connect 25 0 27 0;
#X connect 26 0 25 1;
#X connect 27 0 17 0;
#X connect 27 0 21 0;
#X connect 28 0 44 0;
#X connect 29 0 2 0;
#X connect 30 0 29 1;
#X connect 31 0 2 0;
#X connect 32 0 31 1;
#X connect 33 0 36 0;
#X connect 34 0 36 1;
#X connect 35 0 33 0;
#X connect 35 1 34 0;
#X connect 36 0 28 0;
#X connect 37 0 35 0;
#X connect 38 0 33 1;
#X connect 39 0 34 1;
#X connect 40 0 2 0;
#X connect 41 0 38 0;
#X connect 43 0 45 0;
#X connect 44 0 40 0;
#X connect 45 0 44 1;
#X connect 46 0 21 2;
#X connect 47 0 21 2;
#X connect 48 0 51 0;
#X connect 50 0 52 0;
#X connect 51 0 14 2;
#X connect 52 0 14 2;
#X connect 53 0 2 0;
