#N canvas 28 457 2441 1444 12;
#N canvas 0 50 450 250 (subpatch) 0;
#X array sample 7.19919e+06 float 2;
#X coords 0 1 7.19919e+06 -1 800 140 1 0 0;
#X restore 68 17 graph;
#N canvas 1467 401 1237 1013 load 0;
#X obj 101 143 soundfiler;
#X obj 105 192 send samplect;
#X msg 103 112 read -resize sample.wav sample;
#X obj 192 34 loadbang;
#X floatatom 75 222 5 0 0 0 - - -;
#X obj 40 200 f;
#X obj 74 263 print samples;
#X obj 200 63 t b b;
#X obj 356 111 samplerate~;
#X obj 358 159 t b f;
#X obj 373 222 /;
#X msg 348 189 1;
#X obj 357 89 bng 15 250 50 0 empty empty empty 17 7 0 10 -262144 -1
-1;
#X obj 308 261 *;
#X obj 300 298 send duration;
#X obj 415 296 print duration;
#X connect 0 0 1 0;
#X connect 0 0 5 1;
#X connect 0 0 4 0;
#X connect 0 0 13 0;
#X connect 2 0 0 0;
#X connect 3 0 7 0;
#X connect 4 0 6 0;
#X connect 7 0 2 0;
#X connect 7 1 12 0;
#X connect 8 0 9 0;
#X connect 9 0 11 0;
#X connect 9 1 10 1;
#X connect 10 0 13 1;
#X connect 11 0 10 0;
#X connect 12 0 8 0;
#X connect 13 0 14 0;
#X connect 13 0 15 0;
#X restore 881 19 pd load;
#X obj 19 255 r samples;
#X obj 71 159 hsl 795 15 0 1 0 0 empty empty empty -2 -8 0 10 -262144
-1 -1 0 1;
#X floatatom 66 190 5 0 0 0 - - -;
#X obj 20 283 t b f;
#X obj 142 179 hsl 795 15 0 1 0 0 empty empty empty -2 -8 0 10 -262144
-1 -1 0 1;
#N canvas 442 292 822 1023 hitshot 0;
#X obj 58 438 outlet~;
#X obj 58 400 tabplay~ sample;
#X obj 49 63 inlet;
#X obj 51 193 unpack f f;
#X text 63 162 offset ms \, duration ms;
#X msg 59 311 \$1 \$2;
#X obj 54 283 pack f f;
#X obj 93 354 print;
#X obj 229 128 samplerate~;
#X floatatom 235 153 5 0 0 0 - - -;
#X obj 231 84 loadbang;
#X obj 236 176 / 1000;
#X floatatom 235 201 5 0 0 0 - - -;
#X obj 52 248 *;
#X obj 109 254 *;
#X obj 230 109 bng 15 250 50 0 empty empty empty 17 7 0 10 -262144
-1 -1;
#X text 238 274 todo change speed;
#X text 245 298 todo add volume;
#X connect 1 0 0 0;
#X connect 2 0 3 0;
#X connect 3 0 13 0;
#X connect 3 1 14 0;
#X connect 5 0 7 0;
#X connect 5 0 1 0;
#X connect 6 0 5 0;
#X connect 8 0 9 0;
#X connect 9 0 11 0;
#X connect 10 0 15 0;
#X connect 11 0 12 0;
#X connect 11 0 13 1;
#X connect 11 0 14 1;
#X connect 13 0 6 0;
#X connect 14 0 6 1;
#X connect 15 0 8 0;
#X restore 810 417 pd hitshot;
#X obj 805 352 f;
#X obj 856 350 f;
#X obj 807 318 t b b;
#X obj 814 383 pack f f;
#X obj 806 287 bng 15 250 50 0 empty empty empty 17 7 0 10 -262144
-1 -1;
#X floatatom 838 285 5 0 0 0 - - -;
#X floatatom 886 287 5 0 0 0 - - -;
#X obj 400 202 slidetime;
#X floatatom 996 343 5 0 0 0 - - -;
#X obj 821 447 dline2~ 0.91;
#X obj 987 384 sig~ 110;
#X obj 117 322 newgranule_v~;
#X obj 282 275 r duration;
#X msg 281 298 duration \$1;
#X obj 314 324 newgranule_v~;
#X obj 479 277 r duration;
#X msg 478 300 duration \$1;
#X obj 248 427 print;
#X msg 268 249 dump;
#X obj 348 470 huge-rev1~;
#X obj 268 569 sout~;
#X obj 340 568 loadbang;
#X msg 343 597 0.75;
#X obj 266 539 *~ 1;
#X obj 881 42 huge-rev-tables-local;
#X obj 347 448 hsl 80 15 0 100 0 0 empty empty empty -2 -8 0 10 -262144
-1 -1 0 1;
#X obj 333 497 wetdry~;
#X obj 390 497 wetdry~;
#N canvas 0 80 450 300 loops 0;
#X restore 973 310 pd loops;
#X text 954 436 todo list;
#X text 955 612 vis ngs~;
#X text 954 628 slow seq with adsr from pos + speed;
#X text 955 643 wavetable dist;
#X text 956 555 midi controller;
#X text 955 578 test recording;
#X text 955 534 loops;
#X obj 512 336 ngs_v~;
#X obj 622 290 r duration;
#X msg 621 313 duration \$1;
#X text 954 490 ngs~ internal pos move (freq+amp);
#X text 954 595 -------;
#X obj 818 504 huge-rev1~;
#X obj 817 482 hsl 80 15 0 100 0 0 empty empty empty -2 -8 0 10 -262144
-1 -1 0 1;
#X obj 803 531 wetdry~;
#X obj 860 531 wetdry~;
#N canvas 1676 158 1415 1589 seq 1;
#X obj 74 113 bng 15 250 50 0 empty empty empty 17 7 0 10 -262144 -1
-1;
#X obj 58 62 bng 15 250 50 0 empty empty empty 17 7 0 10 -262144 -1
-1;
#X floatatom 130 64 5 0 0 0 - - -;
#X obj 342 25 inlet;
#X obj 58 653 outlet~;
#X obj 342 53 route duration;
#X obj 214 146 inlet;
#X text 211 125 clock;
#X text 259 138 TODO: divisor for this instance;
#X obj 58 274 seqrow~;
#X floatatom 384 88 5 0 0 0 - - -;
#X msg 593 107 duration \$1;
#X obj 594 85 * 1000;
#X obj 58 334 seqrow~;
#X text 452 158 todo: state saving!;
#X msg 593 213 sync;
#N canvas 0 80 1314 601 steps 0;
#X obj 104 174 bng 15 75 50 0 empty empty empty 17 7 0 10 -262144 -1
-1;
#X obj 121 174 bng 15 75 50 0 empty empty empty 17 7 0 10 -262144 -1
-1;
#X obj 93 68 f;
#X obj 123 67 + 1;
#X obj 93 93 % 16;
#X obj 84 123 select 0 1 2 3 4 5 6 7 8 9 10 11 12 13 14 15;
#X obj 138 174 bng 15 75 50 0 empty empty empty 17 7 0 10 -262144 -1
-1;
#X obj 155 174 bng 15 75 50 0 empty empty empty 17 7 0 10 -262144 -1
-1;
#X obj 172 174 bng 15 75 50 0 empty empty empty 17 7 0 10 -262144 -1
-1;
#X obj 189 174 bng 15 75 50 0 empty empty empty 17 7 0 10 -262144 -1
-1;
#X obj 206 174 bng 15 75 50 0 empty empty empty 17 7 0 10 -262144 -1
-1;
#X obj 223 174 bng 15 75 50 0 empty empty empty 17 7 0 10 -262144 -1
-1;
#X obj 240 174 bng 15 75 50 0 empty empty empty 17 7 0 10 -262144 -1
-1;
#X obj 257 174 bng 15 75 50 0 empty empty empty 17 7 0 10 -262144 -1
-1;
#X obj 274 174 bng 15 75 50 0 empty empty empty 17 7 0 10 -262144 -1
-1;
#X obj 291 174 bng 15 75 50 0 empty empty empty 17 7 0 10 -262144 -1
-1;
#X obj 308 174 bng 15 75 50 0 empty empty empty 17 7 0 10 -262144 -1
-1;
#X obj 325 174 bng 15 75 50 0 empty empty empty 17 7 0 10 -262144 -1
-1;
#X obj 342 174 bng 15 75 50 0 empty empty empty 17 7 0 10 -262144 -1
-1;
#X obj 359 174 bng 15 75 50 0 empty empty empty 17 7 0 10 -262144 -1
-1;
#X obj 88 21 inlet;
#X msg 93 44 bang;
#X obj 366 15 inlet;
#X msg 365 55 bang;
#X msg 363 79 0;
#X connect 2 0 4 0;
#X connect 2 0 3 0;
#X connect 3 0 2 1;
#X connect 4 0 5 0;
#X connect 5 0 0 0;
#X connect 5 1 1 0;
#X connect 5 2 6 0;
#X connect 5 3 7 0;
#X connect 5 4 8 0;
#X connect 5 5 9 0;
#X connect 5 6 10 0;
#X connect 5 7 11 0;
#X connect 5 8 12 0;
#X connect 5 9 13 0;
#X connect 5 10 14 0;
#X connect 5 11 15 0;
#X connect 5 12 16 0;
#X connect 5 13 17 0;
#X connect 5 14 18 0;
#X connect 5 15 19 0;
#X connect 20 0 21 0;
#X connect 21 0 2 0;
#X connect 22 0 23 0;
#X connect 23 0 24 0;
#X connect 24 0 2 1;
#X coords 0 -1 1 1 280 30 1 100 170;
#X restore 59 233 pd steps;
#X obj 58 91 metro 185;
#X obj 58 26 loadbang;
#X msg 124 27 stop;
#X obj 58 392 seqrow~;
#X obj 58 452 seqrow~;
#X obj 58 512 seqrow~;
#X connect 1 0 17 0;
#X connect 2 0 17 1;
#X connect 3 0 5 0;
#X connect 5 0 10 0;
#X connect 5 0 12 0;
#X connect 9 0 4 0;
#X connect 11 0 9 1;
#X connect 11 0 13 1;
#X connect 11 0 20 1;
#X connect 11 0 21 1;
#X connect 11 0 22 1;
#X connect 12 0 11 0;
#X connect 13 0 4 0;
#X connect 15 0 16 1;
#X connect 15 0 9 1;
#X connect 15 0 13 1;
#X connect 15 0 20 1;
#X connect 15 0 21 1;
#X connect 15 0 22 1;
#X connect 17 0 0 0;
#X connect 17 0 16 0;
#X connect 17 0 9 0;
#X connect 17 0 13 0;
#X connect 17 0 20 0;
#X connect 17 0 21 0;
#X connect 17 0 22 0;
#X connect 18 0 1 0;
#X connect 19 0 17 0;
#X connect 20 0 4 0;
#X connect 21 0 4 0;
#X connect 22 0 4 0;
#X restore 968 262 pd seq;
#X text 956 452 -------;
#X obj 1024 236 r duration;
#X msg 1023 259 duration \$1;
#X connect 2 0 5 0;
#X connect 3 0 4 0;
#X connect 3 0 19 0;
#X connect 6 0 22 0;
#X connect 6 0 44 0;
#X connect 7 0 17 0;
#X connect 7 0 51 0;
#X connect 7 0 52 0;
#X connect 8 0 11 0;
#X connect 9 0 11 1;
#X connect 10 0 8 0;
#X connect 10 1 9 0;
#X connect 11 0 7 0;
#X connect 12 0 10 0;
#X connect 13 0 8 1;
#X connect 14 0 9 1;
#X connect 15 0 13 0;
#X connect 16 0 18 0;
#X connect 17 0 49 0;
#X connect 18 0 17 1;
#X connect 19 0 31 0;
#X connect 19 1 25 0;
#X connect 20 0 21 0;
#X connect 21 0 19 1;
#X connect 22 0 27 0;
#X connect 22 0 31 0;
#X connect 22 0 34 0;
#X connect 22 0 35 0;
#X connect 23 0 24 0;
#X connect 24 0 22 1;
#X connect 26 0 19 1;
#X connect 27 0 34 1;
#X connect 27 1 35 1;
#X connect 29 0 30 0;
#X connect 30 0 28 2;
#X connect 31 0 28 0;
#X connect 31 0 28 1;
#X connect 33 0 34 2;
#X connect 33 0 35 2;
#X connect 34 0 28 0;
#X connect 35 0 28 1;
#X connect 44 0 28 0;
#X connect 44 1 28 1;
#X connect 45 0 46 0;
#X connect 46 0 44 1;
#X connect 49 0 51 1;
#X connect 49 1 52 1;
#X connect 50 0 51 2;
#X connect 50 0 52 2;
#X connect 51 0 28 0;
#X connect 52 0 28 1;
#X connect 53 0 31 0;
#X connect 55 0 56 0;
#X connect 56 0 53 1;
