#N canvas 2001 236 1224 1302 12;
#X obj 163 604 outlet~;
#X obj 163 572 *~;
#X obj 169 282 phasor~;
#X obj 505 89 samplerate~;
#X floatatom 511 114 5 0 0 0 - - -;
#X obj 452 33 bng 15 250 50 0 empty empty empty 17 7 0 10 -262144 -1
-1;
#X obj 452 5 loadbang;
#X floatatom 165 95 5 0 0 0 - - -;
#X text 169 37 duration ms;
#X floatatom 40 109 5 0 0 0 - - -;
#X text 46 38 pos ms;
#X floatatom 177 231 5 0 0 0 - - -;
#X text 177 248 freq;
#X obj 512 137 / 1000;
#X floatatom 511 162 5 0 0 0 - - -;
#X floatatom 277 232 5 0 0 0 - - -;
#X obj 40 152 *;
#X obj 163 451 +~;
#X obj 169 201 /;
#X obj 185 323 *~;
#X msg 159 170 1;
#X obj 165 117 / 1000;
#X obj 166 143 t b f f;
#X floatatom 260 286 5 0 0 0 - - -;
#X obj 259 256 **;
#X obj 40 18 inlet;
#X obj 165 18 inlet;
#X obj 291 22 inlet;
#X obj 163 478 tabread4~ \$1;
#X obj 235 207 **;
#X text 5 248 TODO: vline freq change;
#X msg 290 203 1;
#X msg 49 73 1;
#X obj 452 52 t b b b b;
#X msg 200 63 250;
#X obj 290 364 osc~;
#X obj 291 411 +~ 0.5;
#X obj 290 388 *~ -0.5;
#X obj 288 340 / 1;
#X text 355 378 window;
#X obj 294 474 clip~ 0 1;
#X obj 294 444 *~ 1;
#X obj 503 380 inlet;
#X obj 481 415 moses 1;
#X msg 483 448 1;
#X obj 27 223 vline~;
#X msg 29 194 \$1 2;
#X text -3 -5 TODO: consider making a signal;
#X obj 292 78 route speed wamp;
#X connect 1 0 0 0;
#X connect 2 0 19 0;
#X connect 3 0 4 0;
#X connect 4 0 13 0;
#X connect 4 0 29 1;
#X connect 5 0 33 0;
#X connect 6 0 5 0;
#X connect 7 0 21 0;
#X connect 9 0 16 0;
#X connect 13 0 14 0;
#X connect 13 0 16 1;
#X connect 15 0 24 1;
#X connect 16 0 46 0;
#X connect 17 0 28 0;
#X connect 18 0 11 0;
#X connect 18 0 2 0;
#X connect 18 0 38 0;
#X connect 19 0 17 0;
#X connect 20 0 18 0;
#X connect 21 0 22 0;
#X connect 22 0 20 0;
#X connect 22 1 18 1;
#X connect 22 2 29 0;
#X connect 23 0 19 1;
#X connect 24 0 23 0;
#X connect 25 0 9 0;
#X connect 26 0 7 0;
#X connect 27 0 48 0;
#X connect 28 0 1 0;
#X connect 29 0 24 0;
#X connect 31 0 15 0;
#X connect 32 0 9 0;
#X connect 33 0 32 0;
#X connect 33 1 34 0;
#X connect 33 2 31 0;
#X connect 33 3 3 0;
#X connect 34 0 7 0;
#X connect 35 0 37 0;
#X connect 36 0 41 0;
#X connect 37 0 36 0;
#X connect 38 0 35 0;
#X connect 40 0 1 1;
#X connect 41 0 40 0;
#X connect 42 0 43 0;
#X connect 43 0 44 0;
#X connect 43 1 41 1;
#X connect 44 0 41 1;
#X connect 45 0 17 1;
#X connect 46 0 45 0;
#X connect 48 0 15 0;
#X connect 48 1 43 0;
