#N canvas 2145 111 1096 1212 12;
#X text 89 -1 new grain swarm;
#X obj 79 548 outlet~;
#X obj 39 37 inlet;
#X obj 148 27 inlet;
#X obj 273 26 inlet;
#X text 152 47 width ms;
#X text 274 45 ctrl msgs;
#X msg 387 97 all sample sample;
#X msg 30 400 vis 2 1;
#X msg 148 273 all \$1;
#X obj 397 39 bng 15 250 50 0 empty empty empty 17 7 0 10 -262144 -1
-1;
#X obj 389 15 loadbang;
#X msg 24 372 vis 1 1;
#X msg 9 351 vis 0 1;
#N canvas 1295 266 1001 1355 pos 0;
#X obj 102 20 inlet;
#X obj 218 25 inlet;
#X obj 67 503 until;
#X obj 67 528 f;
#X obj 97 529 + 1;
#X msg 100 477 0;
#X obj 77 415 bng 15 250 50 0 empty empty empty 17 7 0 10 -262144 -1
-1;
#X text 38 474 num;
#X obj 133 203 f;
#X floatatom 157 17 5 0 0 0 - - -;
#X floatatom 301 35 5 0 0 0 - - -;
#X obj 226 233 f;
#X obj 127 354 -;
#X text 192 246 num;
#X obj 166 270 / 2;
#X obj 173 298 *;
#X text 291 14 spread ms;
#X obj 204 208 t b b f;
#X obj 128 173 t b b f;
#X floatatom 184 333 5 0 0 0 - - -;
#X obj 252 137 f;
#X obj 127 136 f;
#X text 375 144 num -1;
#X obj 128 404 t b f;
#X obj 130 572 +;
#X obj 252 164 t b f f;
#X obj 248 88 t b b f b;
#X obj 116 95 t b b f b;
#X obj 69 443 t b b;
#X msg 171 647 next \$1;
#X obj 116 681 outlet;
#X obj 399 29 inlet;
#X obj 102 48 *;
#X obj 102 72 * 1000;
#X msg 66 476 30;
#X msg 328 145 set 29;
#X msg 163 245 30;
#X connect 0 0 32 0;
#X connect 1 0 26 0;
#X connect 2 0 3 0;
#X connect 3 0 4 0;
#X connect 3 0 24 0;
#X connect 4 0 3 1;
#X connect 5 0 3 1;
#X connect 6 0 28 0;
#X connect 8 0 12 0;
#X connect 9 0 32 0;
#X connect 10 0 26 0;
#X connect 11 0 15 1;
#X connect 12 0 23 0;
#X connect 14 0 15 0;
#X connect 15 0 12 1;
#X connect 15 0 19 0;
#X connect 17 0 36 0;
#X connect 17 1 11 0;
#X connect 17 2 11 1;
#X connect 18 0 8 0;
#X connect 18 2 8 1;
#X connect 20 0 25 0;
#X connect 21 0 18 0;
#X connect 23 0 28 0;
#X connect 23 1 24 1;
#X connect 24 0 29 0;
#X connect 25 1 17 0;
#X connect 25 2 4 1;
#X connect 26 0 21 0;
#X connect 26 1 20 0;
#X connect 26 2 20 1;
#X connect 26 3 35 0;
#X connect 27 0 21 0;
#X connect 27 1 20 0;
#X connect 27 2 21 1;
#X connect 27 3 35 0;
#X connect 28 0 34 0;
#X connect 28 1 5 0;
#X connect 29 0 30 0;
#X connect 31 0 32 1;
#X connect 32 0 33 0;
#X connect 33 0 27 0;
#X connect 34 0 2 0;
#X connect 35 0 30 0;
#X connect 36 0 14 0;
#X restore 39 147 pd pos;
#X msg 59 113 2;
#X msg 276 453 all \$1 \$2;
#X obj 63 175 print ss;
#X floatatom 59 84 5 0 0 0 - - -;
#X obj 218 73 route spread duration;
#X msg 47 428 vis 22 1;
#X text 53 58 pos 0-1;
#X obj 79 502 /~ 5;
#X obj 80 460 clone newgranule~ 30;
#X obj 272 402 unpack s f;
#X obj 276 428 pack s f;
#N canvas 2445 1129 930 742 distphase 0;
#X text 46 7 even phase distribution across all grains;
#X obj 110 141 until;
#X obj 110 166 f;
#X obj 140 167 + 1;
#X msg 143 115 0;
#X msg 97 237 next phase \$1;
#X text 260 157 num-1;
#X text 143 196 num;
#X obj 110 200 / 30;
#X msg 109 114 30;
#X obj 141 268 print dd;
#X msg 246 179 set 29;
#X obj 107 39 inlet;
#X obj 105 324 outlet;
#X obj 110 65 t b b b;
#X text 78 114 num;
#X connect 1 0 2 0;
#X connect 2 0 3 0;
#X connect 2 0 8 0;
#X connect 3 0 2 1;
#X connect 4 0 2 1;
#X connect 5 0 10 0;
#X connect 5 0 13 0;
#X connect 8 0 5 0;
#X connect 9 0 1 0;
#X connect 11 0 13 0;
#X connect 12 0 14 0;
#X connect 14 0 9 0;
#X connect 14 1 4 0;
#X connect 14 2 11 0;
#X restore 179 178 pd distphase;
#X obj 177 131 route distphase randphase;
#X obj 389 67 t b b;
#N canvas 2430 677 930 924 randphase 0;
#X obj 110 141 until;
#X obj 110 166 f;
#X obj 140 167 + 1;
#X msg 143 115 0;
#X msg 107 291 next phase \$1;
#X text 260 157 num-1;
#X msg 109 114 30;
#X msg 246 179 set 29;
#X obj 107 39 inlet;
#X obj 107 350 outlet;
#X obj 110 65 t b b b;
#X text 78 114 num;
#X text 46 7 random phase distribution across all grains;
#X obj 109 232 random 100000;
#X obj 108 262 / 100000;
#X obj 151 322 print rp;
#X msg 108 200 bang;
#X connect 0 0 1 0;
#X connect 1 0 2 0;
#X connect 1 0 16 0;
#X connect 2 0 1 1;
#X connect 3 0 1 1;
#X connect 4 0 9 0;
#X connect 4 0 15 0;
#X connect 6 0 0 0;
#X connect 7 0 9 0;
#X connect 8 0 10 0;
#X connect 10 0 6 0;
#X connect 10 1 3 0;
#X connect 10 2 7 0;
#X connect 13 0 14 0;
#X connect 14 0 4 0;
#X connect 16 0 13 0;
#X restore 232 214 pd randphase;
#X connect 2 0 14 0;
#X connect 2 0 18 0;
#X connect 3 0 9 0;
#X connect 4 0 19 0;
#X connect 7 0 23 2;
#X connect 8 0 23 0;
#X connect 9 0 23 1;
#X connect 10 0 28 0;
#X connect 11 0 28 0;
#X connect 12 0 23 0;
#X connect 13 0 23 0;
#X connect 14 0 23 0;
#X connect 15 0 14 1;
#X connect 16 0 23 2;
#X connect 19 0 14 1;
#X connect 19 1 14 2;
#X connect 19 2 27 0;
#X connect 20 0 23 0;
#X connect 22 0 1 0;
#X connect 23 0 22 0;
#X connect 24 0 25 0;
#X connect 24 1 25 1;
#X connect 25 0 16 0;
#X connect 26 0 23 2;
#X connect 27 0 26 0;
#X connect 27 1 29 0;
#X connect 27 2 24 0;
#X connect 28 0 7 0;
#X connect 28 1 26 0;
#X connect 29 0 23 2;
