#N canvas 1223 714 1707 401 12;
#X obj 13 10 hsl 795 15 0 1 0 0 empty empty empty -2 -8 0 10 -262144
-1 -1 31300 1;
#X floatatom 53 38 5 0 0 0 - - -;
#X obj 58 96 *;
#X obj 86 65 r duration;
#X obj 58 120 * 1000;
#X obj 54 149 outlet;
#X connect 0 0 1 0;
#X connect 0 0 2 0;
#X connect 2 0 4 0;
#X connect 3 0 2 1;
#X connect 4 0 5 0;
#X coords 0 -1 1 1 800 16 1 10 10;
