#N canvas 336 340 401 247 10;
#X text 49 30 synth terminology;
#X text 50 45 ~~~~~~~~~~~~~~~~~~~~~~~~~~~~~~~~;
#N canvas 125 587 448 336 LFO 0;
#X text 36 17 LFO;
#X text 36 30 Low Frequency Oscillator;
#X text 34 51 An oscillator at a "very low" frequency \, typically
;
#X text 35 65 below 20Hz (audible);
#X floatatom 32 126 5 0 0 0 - - -;
#N canvas 0 0 450 300 (subpatch) 0;
#X array LFO 5000 float 0;
#X coords 0 1 4999 -1 200 140 1;
#X restore 179 141 graph;
#X obj 78 220 metro 250;
#X obj 80 197 tgl 15 0 empty empty empty 17 7 0 10 -262144 -1 -1 1
1;
#X obj 93 175 loadbang;
#X obj 35 104 hsl 200 15 0 12 0 0 empty empty empty -2 -8 0 10 -262130
-1 -1 500 1;
#X obj 32 253 tabwrite~ LFO;
#X obj 32 146 osc~ 0.25;
#X text 73 126 <- freq;
#X connect 4 0 11 0;
#X connect 6 0 10 0;
#X connect 7 0 6 0;
#X connect 8 0 7 0;
#X connect 9 0 4 0;
#X connect 11 0 10 0;
#X restore 52 77 pd LFO;
#N canvas 290 332 488 395 VCO 0;
#X text -26 -71 VCO;
#X text -26 -57 Voltage Controlled Oscillator;
#N canvas 0 0 450 300 (subpatch) 0;
#X array VCO 5000 float 0;
#X coords 0 1 4999 -1 200 140 1;
#X restore 137 118 graph;
#X obj 36 197 metro 250;
#X obj 38 174 tgl 15 0 empty empty empty 17 7 0 10 -262144 -1 -1 1
1;
#X obj 51 152 loadbang;
#X obj -10 230 tabwrite~ VCO;
#X obj -10 130 osc~;
#X obj -10 27 sig~;
#X floatatom -10 0 5 0 0 0 - - -;
#X obj -7 -24 hsl 200 15 0.5 50 0 0 empty empty empty -2 -8 0 10 -261682
-1 -1 200 1;
#X text -3 70 <- pretend this is a voltage;
#X connect 3 0 6 0;
#X connect 4 0 3 0;
#X connect 5 0 4 0;
#X connect 7 0 6 0;
#X connect 8 0 7 0;
#X connect 9 0 8 0;
#X connect 10 0 9 0;
#X restore 52 106 pd VCO;
#N canvas 683 258 503 414 VCF 0;
#X text 17 -6 VCF;
#X text 17 9 Voltage Controlled Filter;
#N canvas 0 0 450 300 (subpatch) 0;
#X array VCF 2000 float 0;
#X coords 0 1 1999 -1 200 140 1;
#X restore 221 23 graph;
#X obj 58 224 metro 250;
#X obj 60 201 tgl 15 0 empty empty empty 17 7 0 10 -262144 -1 -1 1
1;
#X obj 73 179 loadbang;
#X obj 42 248 tabwrite~ VCF;
#X obj 4 51 noise~;
#X obj 5 85 *~ 25;
#X text 69 123 <- control voltage;
#X obj 39 320 dac~;
#X obj 42 297 *~;
#X obj 63 278 tgl 15 0 empty empty empty 17 7 0 10 -262130 -1 -1 0
1;
#X text 84 277 <- hear it;
#X text 90 109 (pretend);
#X obj 63 41 phasor~ 0.1;
#X obj 41 149 vcf~ 30;
#X obj 64 67 *~ 300;
#X connect 3 0 6 0;
#X connect 4 0 3 0;
#X connect 5 0 4 0;
#X connect 7 0 8 0;
#X connect 8 0 16 0;
#X connect 11 0 10 0;
#X connect 11 0 10 1;
#X connect 12 0 11 1;
#X connect 15 0 17 0;
#X connect 16 0 6 0;
#X connect 16 0 11 0;
#X connect 17 0 16 1;
#X restore 52 136 pd VCF;
#N canvas 192 484 482 372 VCA 0;
#X text 34 5 VCA;
#X text 34 21 Voltage Controlled Amplifier;
#X obj 48 299 dac~;
#X obj 50 273 *~;
#X obj 60 253 tgl 15 0 empty empty empty 17 7 0 10 -262130 -1 -1 1
1;
#X obj 67 190 metro 250;
#X obj 69 167 tgl 15 0 empty empty empty 17 7 0 10 -262144 -1 -1 1
1;
#X obj 82 145 loadbang;
#X obj 51 214 tabwrite~ VCA;
#N canvas 4 53 450 300 (subpatch) 0;
#X array VCA 1000 float 0;
#X coords 0 1 999 -1 200 140 1;
#X restore 253 50 graph;
#X obj 50 59 osc~ 440;
#X obj 51 116 *~;
#X text 80 118 <- amplifier;
#X text 103 87 <- control voltage;
#X obj 120 58 phasor~ 0.1;
#X text 81 251 <- hear it;
#X text 103 279 volume increases from silent to 0db;
#X text 104 293 every 10 seconds;
#X connect 3 0 2 0;
#X connect 3 0 2 1;
#X connect 4 0 3 1;
#X connect 5 0 8 0;
#X connect 6 0 5 0;
#X connect 7 0 6 0;
#X connect 10 0 11 0;
#X connect 11 0 8 0;
#X connect 11 0 3 0;
#X connect 14 0 11 1;
#X restore 52 166 pd VCA;
