#N canvas 7 12 318 208 10;
#X obj 59 18 inlet;
#X obj 103 18 inlet;
#X obj 82 169 outlet;
#X obj 65 95 f;
#X obj 103 56 t b f;
#X obj 82 129 *;
#X text 163 20 output product when either value changes;
#X connect 0 0 3 0;
#X connect 0 0 3 1;
#X connect 1 0 4 0;
#X connect 3 0 5 0;
#X connect 4 0 3 0;
#X connect 4 1 5 1;
#X connect 5 0 2 0;
