#N canvas 304 26 310 416 10;
#X obj 70 379 outlet~;
#X obj 74 17 inlet;
#X obj 70 357 vline~;
#X obj 54 95 \$1;
#X obj 85 95 \$2;
#X obj 115 94 \$3;
#X obj 144 95 \$4;
#X obj 199 94 \$5;
#X text 58 115 a;
#X text 86 115 dv;
#X text 117 115 dd;
#X text 156 112 s;
#X text 209 112 r;
#X obj 74 48 t b b b b b;
#X obj 54 139 +;
#X obj 99 184 +;
#X obj 55 159 t f f;
#X obj 151 230 +;
#X obj 107 140 t f f;
#X obj 143 177 t f f;
#X obj 69 298 pack f f f f f f;
#X msg 71 320 1 \$1 \, \$2 \$3 \$1 \, 0 \$6 \$5;
#X connect 1 0 13 0;
#X connect 2 0 0 0;
#X connect 3 0 14 0;
#X connect 4 0 20 1;
#X connect 5 0 18 0;
#X connect 6 0 19 0;
#X connect 7 0 20 5;
#X connect 13 0 3 0;
#X connect 13 1 4 0;
#X connect 13 2 5 0;
#X connect 13 3 6 0;
#X connect 13 4 7 0;
#X connect 14 0 16 0;
#X connect 15 0 17 0;
#X connect 16 0 20 0;
#X connect 16 1 15 0;
#X connect 17 0 20 4;
#X connect 18 0 20 2;
#X connect 18 1 15 1;
#X connect 19 0 20 3;
#X connect 19 1 17 1;
#X connect 20 0 21 0;
#X connect 21 0 2 0;
