#N canvas 0 0 323 525 10;
#X msg 35 124 1;
#X obj 34 97 t b f;
#X obj 35 9 inlet;
#X obj 35 71 f;
#X obj 83 411 print;
#X obj 34 151 pack f f;
#X floatatom 50 44 5 0 0 0 - - -;
#X obj 98 230 f;
#X obj 98 257 pack f f;
#X floatatom 116 207 5 0 0 0 - - -;
#X obj 151 230 f;
#X floatatom 169 207 5 0 0 0 - - -;
#X obj 105 151 delay;
#X obj 104 179 t b b;
#X obj 157 341 delay;
#X msg 105 282 bang;
#X obj 215 313 +;
#X obj 233 285 f;
#X floatatom 251 262 5 0 0 0 - - -;
#X obj 202 397 t b f;
#X obj 203 371 f;
#X obj 202 451 pack f f;
#X msg 203 424 0;
#X floatatom 226 345 5 0 0 0 - - -;
#X obj 180 256 t b f;
#X obj 135 51 \$1;
#X obj 166 51 \$2;
#X obj 196 50 \$3;
#X obj 225 51 \$4;
#X obj 255 51 \$5;
#X text 139 71 a;
#X text 167 71 dv;
#X text 198 71 dd;
#X text 237 68 s;
#X text 265 69 r;
#X obj 135 13 loadbang;
#X obj 34 493 outlet;
#X obj 34 457 line;
#X connect 0 0 5 0;
#X connect 1 0 0 0;
#X connect 1 0 12 0;
#X connect 1 1 5 1;
#X connect 1 1 12 1;
#X connect 2 0 3 0;
#X connect 3 0 1 0;
#X connect 5 0 37 0;
#X connect 6 0 3 1;
#X connect 7 0 8 0;
#X connect 8 0 15 0;
#X connect 8 0 37 0;
#X connect 9 0 7 1;
#X connect 10 0 8 1;
#X connect 10 0 24 0;
#X connect 11 0 10 1;
#X connect 12 0 13 0;
#X connect 13 0 7 0;
#X connect 13 1 10 0;
#X connect 14 0 20 0;
#X connect 15 0 14 0;
#X connect 16 0 14 1;
#X connect 17 0 16 1;
#X connect 18 0 17 1;
#X connect 19 0 22 0;
#X connect 19 1 21 1;
#X connect 20 0 19 0;
#X connect 21 0 37 0;
#X connect 22 0 21 0;
#X connect 23 0 20 1;
#X connect 24 0 17 0;
#X connect 24 1 16 0;
#X connect 25 0 3 1;
#X connect 26 0 7 1;
#X connect 27 0 10 1;
#X connect 28 0 17 1;
#X connect 29 0 20 1;
#X connect 35 0 25 0;
#X connect 35 0 26 0;
#X connect 35 0 27 0;
#X connect 35 0 28 0;
#X connect 35 0 29 0;
#X connect 37 0 36 0;
