#N struct awf-template-$0 float x float y float h;
#N canvas 615 23 450 300 10;
#X text 366 5 audio graph;
#X obj 88 174 inlet;
#X obj 149 173 inlet;
#N canvas 551 468 668 415 grapher 1;
#X obj 406 71 pointer;
#N canvas 606 151 297 255 tabreadseq 0;
#X obj 47 182 f;
#X obj 74 183 + 1;
#X msg 68 157 0;
#X obj 47 214 outlet;
#X obj 38 10 inlet;
#X obj 28 132 until;
#X obj 38 104 t f b;
#X msg 38 31 bang;
#X obj 38 79 f;
#X obj 157 8 loadbang;
#X obj 106 9 inlet;
#X msg 158 28 250;
#X obj 108 56 clip 1 2000;
#X floatatom 109 82 5 0 0 0 - - -;
#X connect 0 0 1 0;
#X connect 0 0 3 0;
#X connect 1 0 0 1;
#X connect 2 0 0 1;
#X connect 4 0 7 0;
#X connect 5 0 0 0;
#X connect 6 0 5 0;
#X connect 6 1 2 0;
#X connect 7 0 8 0;
#X connect 8 0 6 0;
#X connect 9 0 11 0;
#X connect 10 0 12 0;
#X connect 11 0 12 0;
#X connect 12 0 8 1;
#X connect 12 0 13 0;
#X restore 145 -132 pd tabreadseq;
#X text 273 -218 width;
#X obj 63 -77 / 250;
#X floatatom 256 -190 5 0 0 0 - - -;
#X obj 62 -126 t b f;
#X floatatom 68 -24 5 0 0 0 - - -;
#X obj 63 -57 int;
#X text 29 -25 every;
#X obj 195 -33 *;
#X obj 297 -31 *;
#X obj 146 -109 t f f f;
#X obj 313 47 -;
#X obj 168 -84 + 1;
#X obj 299 13 t f f;
#X obj 375 -220 inlet;
#X msg 376 -200 bang;
#X obj 231 -218 inlet;
#X obj 322 -218 inlet;
#X text 415 -200 redraw;
#X obj 299 -9 tabread \$1;
#X obj 195 -7 tabread \$1;
#X obj 140 -215 inlet;
#X text 80 -213 arr size;
#X obj 62 -103 f;
#X obj 186 107 append awf-template-$0 x y h;
#X obj 406 -153 \$0;
#X msg 406 51 traverse \$1 \, bang;
#X obj 376 -179 t b b;
#X obj 406 -98 t s s;
#X msg 436 -72 \; \$1 clear;
#X obj 406 -131 makefilename pd-%d-awf-data;
#X obj 62 -148 f;
#X obj 62 -183 t b f;
#X obj 116 -182 t b f;
#X connect 0 0 25 3;
#X connect 1 0 11 0;
#X connect 3 0 7 0;
#X connect 5 0 24 0;
#X connect 5 1 3 1;
#X connect 7 0 6 0;
#X connect 7 0 9 1;
#X connect 7 0 10 1;
#X connect 9 0 21 0;
#X connect 10 0 20 0;
#X connect 11 0 25 0;
#X connect 11 1 13 0;
#X connect 11 2 10 0;
#X connect 12 0 25 2;
#X connect 13 0 9 0;
#X connect 14 0 25 1;
#X connect 14 1 12 1;
#X connect 15 0 16 0;
#X connect 16 0 28 0;
#X connect 17 0 4 0;
#X connect 17 0 1 1;
#X connect 17 0 34 0;
#X connect 18 0 20 0;
#X connect 18 0 21 0;
#X connect 20 0 14 0;
#X connect 21 0 12 0;
#X connect 22 0 33 0;
#X connect 24 0 3 0;
#X connect 26 0 31 0;
#X connect 27 0 0 0;
#X connect 28 0 1 0;
#X connect 28 1 26 0;
#X connect 29 0 27 0;
#X connect 29 1 30 0;
#X connect 31 0 29 0;
#X connect 32 0 5 0;
#X connect 33 0 32 0;
#X connect 33 1 24 1;
#X connect 34 0 32 0;
#X connect 34 1 32 1;
#X restore 88 264 pd grapher;
#X text 88 156 array;
#X text 146 157 samp ct;
#X obj 28 174 inlet;
#X text 23 157 redraw;
#X obj 3 16 cnv 15 200 76 empty empty empty 20 12 0 14 -99865 -66577
0;
#X obj 248 184 symbol \$1;
#X obj 240 150 loadbang;
#X text 244 249 width;
#X obj 190 200 \$2;
#X msg 248 204 set \$1;
#X obj 206 248 f 200;
#N canvas 682 422 358 108 awf-template-$0 0;
#X obj 24 58 drawpolygon 987 1 0 0 1 h;
#X obj 21 25 struct awf-template-$0 float x float y float h;
#X restore 7 123 pd awf-template-$0;
#N canvas 4 533 348 155 1027-awf-data 0;
#X scalar awf-template-$0 0 0.0384521 -0.0257263 \;;
#X scalar awf-template-$0 1 0.0127258 0.0236206 \;;
#X scalar awf-template-$0 2 0.0363464 -0.0142212 \;;
#X scalar awf-template-$0 3 0.0221252 -0.0126648 \;;
#X scalar awf-template-$0 4 0.00946045 0.0057373 \;;
#X scalar awf-template-$0 5 0.0151978 0.000762939 \;;
#X scalar awf-template-$0 6 0.0159607 -0.130737 \;;
#X scalar awf-template-$0 7 -0.114777 -0.61264 \;;
#X scalar awf-template-$0 8 -0.727417 0.126282 \;;
#X scalar awf-template-$0 9 -0.601135 1.48874 \;;
#X scalar awf-template-$0 10 0.887604 -1.37469 \;;
#X scalar awf-template-$0 11 -0.487091 1.04028 \;;
#X scalar awf-template-$0 12 0.553192 0.293518 \;;
#X scalar awf-template-$0 13 0.84671 0.0209961 \;;
#X scalar awf-template-$0 14 0.867706 -0.726013 \;;
#X scalar awf-template-$0 15 0.141693 0.725006 \;;
#X scalar awf-template-$0 16 0.866699 -0.0286255 \;;
#X scalar awf-template-$0 17 0.838074 0.0309143 \;;
#X scalar awf-template-$0 18 0.868988 -1.14145 \;;
#X scalar awf-template-$0 19 -0.272461 0.41922 \;;
#X scalar awf-template-$0 20 0.146759 -0.118042 \;;
#X scalar awf-template-$0 21 0.028717 0.479706 \;;
#X scalar awf-template-$0 22 0.508423 -1.41803 \;;
#X scalar awf-template-$0 23 -0.909607 -0.00869751 \;;
#X scalar awf-template-$0 24 -0.918304 -0.0208435 \;;
#X scalar awf-template-$0 25 -0.939148 1.82037 \;;
#X scalar awf-template-$0 26 0.881226 -1.73798 \;;
#X scalar awf-template-$0 27 -0.85675 0.843689 \;;
#X scalar awf-template-$0 28 -0.0130615 0.0387268 \;;
#X scalar awf-template-$0 29 0.0256653 -0.0810852 \;;
#X scalar awf-template-$0 30 -0.0554199 0.0639954 \;;
#X scalar awf-template-$0 31 0.00857544 -0.0229492 \;;
#X scalar awf-template-$0 32 -0.0143738 0.00137329 \;;
#X scalar awf-template-$0 33 -0.0130005 0.0272217 \;;
#X scalar awf-template-$0 34 0.0142212 -0.0419312 \;;
#X scalar awf-template-$0 35 -0.02771 0.013855 \;;
#X scalar awf-template-$0 36 -0.013855 -0.00314331 \;;
#X scalar awf-template-$0 37 -0.0169983 0.0304565 \;;
#X scalar awf-template-$0 38 0.0134583 -0.0123901 \;;
#X scalar awf-template-$0 39 0.00106812 0.0215454 \;;
#X scalar awf-template-$0 40 0.0226135 -0.017395 \;;
#X scalar awf-template-$0 41 0.00521851 0.0317078 \;;
#X scalar awf-template-$0 42 0.0369263 -0.0291138 \;;
#X scalar awf-template-$0 43 0.0078125 0.00234985 \;;
#X scalar awf-template-$0 44 0.0101624 -0.0221558 \;;
#X scalar awf-template-$0 45 -0.0119934 0.0374451 \;;
#X scalar awf-template-$0 46 0.0254517 -0.0760498 \;;
#X scalar awf-template-$0 47 -0.0505981 0.0316162 \;;
#X scalar awf-template-$0 48 -0.0189819 -0.00534058 \;;
#X scalar awf-template-$0 49 -0.0243225 0.0331116 \;;
#X scalar awf-template-$0 50 0.00878906 -0.00692749 \;;
#X scalar awf-template-$0 51 0.00186157 -0.0367737 \;;
#X scalar awf-template-$0 52 -0.0349121 0.0567017 \;;
#X scalar awf-template-$0 53 0.0217896 -0.0181885 \;;
#X scalar awf-template-$0 54 0.00360107 0.0146484 \;;
#X scalar awf-template-$0 55 0.0182495 -0.0474548 \;;
#X scalar awf-template-$0 56 -0.0292053 0.0365906 \;;
#X scalar awf-template-$0 57 0.00738525 -0.00253296 \;;
#X scalar awf-template-$0 58 0.00485229 -0.00494385 \;;
#X scalar awf-template-$0 59 -9.15527e-05 -0.00189209 \;;
#X scalar awf-template-$0 60 -0.00198364 -0.0196838 \;;
#X scalar awf-template-$0 61 -0.0216675 0.0258484 \;;
#X scalar awf-template-$0 62 0.00418091 -0.0270386 \;;
#X scalar awf-template-$0 63 -0.0228577 0.0595398 \;;
#X scalar awf-template-$0 64 0.0366821 -0.0366821 \;;
#X scalar awf-template-$0 65 0 0 \;;
#X scalar awf-template-$0 66 0 0 \;;
#X scalar awf-template-$0 67 0 0 \;;
#X scalar awf-template-$0 68 0 0 \;;
#X scalar awf-template-$0 69 0 0 \;;
#X scalar awf-template-$0 70 0 0 \;;
#X scalar awf-template-$0 71 0 0 \;;
#X scalar awf-template-$0 72 0 0 \;;
#X scalar awf-template-$0 73 0 0 \;;
#X scalar awf-template-$0 74 0 0 \;;
#X scalar awf-template-$0 75 0 0 \;;
#X scalar awf-template-$0 76 0 0 \;;
#X scalar awf-template-$0 77 0 0 \;;
#X scalar awf-template-$0 78 0 0 \;;
#X scalar awf-template-$0 79 0 0 \;;
#X scalar awf-template-$0 80 0 0 \;;
#X scalar awf-template-$0 81 0 0 \;;
#X scalar awf-template-$0 82 0 0 \;;
#X scalar awf-template-$0 83 0 0 \;;
#X scalar awf-template-$0 84 0 0 \;;
#X scalar awf-template-$0 85 0 0 \;;
#X scalar awf-template-$0 86 0 0 \;;
#X scalar awf-template-$0 87 0 0 \;;
#X scalar awf-template-$0 88 0 0 \;;
#X scalar awf-template-$0 89 0 0 \;;
#X scalar awf-template-$0 90 0 0 \;;
#X scalar awf-template-$0 91 0 0 \;;
#X scalar awf-template-$0 92 0 0 \;;
#X scalar awf-template-$0 93 0 0 \;;
#X scalar awf-template-$0 94 0 0 \;;
#X scalar awf-template-$0 95 0 0 \;;
#X scalar awf-template-$0 96 0 0 \;;
#X scalar awf-template-$0 97 0 0 \;;
#X scalar awf-template-$0 98 0 0 \;;
#X scalar awf-template-$0 99 0 0 \;;
#X scalar awf-template-$0 100 0 0 \;;
#X scalar awf-template-$0 101 0 0 \;;
#X scalar awf-template-$0 102 0 0 \;;
#X scalar awf-template-$0 103 0 0 \;;
#X scalar awf-template-$0 104 0 0 \;;
#X scalar awf-template-$0 105 0 0 \;;
#X scalar awf-template-$0 106 0 0 \;;
#X scalar awf-template-$0 107 0 0 \;;
#X scalar awf-template-$0 108 0 0 \;;
#X scalar awf-template-$0 109 0 0 \;;
#X scalar awf-template-$0 110 0 0 \;;
#X scalar awf-template-$0 111 0 0 \;;
#X scalar awf-template-$0 112 0 0 \;;
#X scalar awf-template-$0 113 0 0 \;;
#X scalar awf-template-$0 114 0 0 \;;
#X scalar awf-template-$0 115 0 0 \;;
#X scalar awf-template-$0 116 0 0 \;;
#X scalar awf-template-$0 117 0 0 \;;
#X scalar awf-template-$0 118 0 0 \;;
#X scalar awf-template-$0 119 0 0 \;;
#X scalar awf-template-$0 120 0 0 \;;
#X scalar awf-template-$0 121 0 0 \;;
#X scalar awf-template-$0 122 0 0 \;;
#X scalar awf-template-$0 123 0 0 \;;
#X scalar awf-template-$0 124 0 0 \;;
#X scalar awf-template-$0 125 0 0 \;;
#X scalar awf-template-$0 126 0 0 \;;
#X scalar awf-template-$0 127 0 0 \;;
#X scalar awf-template-$0 128 0 0 \;;
#X scalar awf-template-$0 129 0 0 \;;
#X scalar awf-template-$0 130 0 0 \;;
#X scalar awf-template-$0 131 0 0 \;;
#X scalar awf-template-$0 132 0 0 \;;
#X scalar awf-template-$0 133 0 0 \;;
#X scalar awf-template-$0 134 0 0 \;;
#X scalar awf-template-$0 135 0 0 \;;
#X scalar awf-template-$0 136 0 0 \;;
#X scalar awf-template-$0 137 0 0 \;;
#X scalar awf-template-$0 138 0 0 \;;
#X scalar awf-template-$0 139 0 0 \;;
#X scalar awf-template-$0 140 0 0 \;;
#X scalar awf-template-$0 141 0 0 \;;
#X scalar awf-template-$0 142 0 0 \;;
#X scalar awf-template-$0 143 0 0 \;;
#X scalar awf-template-$0 144 0 0 \;;
#X scalar awf-template-$0 145 0 0 \;;
#X scalar awf-template-$0 146 0 0 \;;
#X scalar awf-template-$0 147 0 0 \;;
#X scalar awf-template-$0 148 0 0 \;;
#X scalar awf-template-$0 149 0 0 \;;
#X scalar awf-template-$0 150 0 0 \;;
#X scalar awf-template-$0 151 0 0 \;;
#X scalar awf-template-$0 152 0 0 \;;
#X scalar awf-template-$0 153 0 0 \;;
#X scalar awf-template-$0 154 0 0 \;;
#X scalar awf-template-$0 155 0 0 \;;
#X scalar awf-template-$0 156 0 0 \;;
#X scalar awf-template-$0 157 0 0 \;;
#X scalar awf-template-$0 158 0 0 \;;
#X scalar awf-template-$0 159 0 0 \;;
#X scalar awf-template-$0 160 0 0 \;;
#X scalar awf-template-$0 161 0 0 \;;
#X scalar awf-template-$0 162 0 0 \;;
#X scalar awf-template-$0 163 0 0 \;;
#X scalar awf-template-$0 164 0 0 \;;
#X scalar awf-template-$0 165 0 0 \;;
#X scalar awf-template-$0 166 0 0 \;;
#X scalar awf-template-$0 167 0 0 \;;
#X scalar awf-template-$0 168 0 0 \;;
#X scalar awf-template-$0 169 0 0 \;;
#X scalar awf-template-$0 170 0 0 \;;
#X scalar awf-template-$0 171 0 0 \;;
#X scalar awf-template-$0 172 0 0 \;;
#X scalar awf-template-$0 173 0 0 \;;
#X scalar awf-template-$0 174 0 0 \;;
#X scalar awf-template-$0 175 0 0 \;;
#X scalar awf-template-$0 176 0 0 \;;
#X scalar awf-template-$0 177 0 0 \;;
#X scalar awf-template-$0 178 0 0 \;;
#X scalar awf-template-$0 179 0 0 \;;
#X scalar awf-template-$0 180 0 0 \;;
#X scalar awf-template-$0 181 0 0 \;;
#X scalar awf-template-$0 182 0 0 \;;
#X scalar awf-template-$0 183 0 0 \;;
#X scalar awf-template-$0 184 0 0 \;;
#X scalar awf-template-$0 185 0 0 \;;
#X scalar awf-template-$0 186 0 0 \;;
#X scalar awf-template-$0 187 0 0 \;;
#X scalar awf-template-$0 188 0 0 \;;
#X scalar awf-template-$0 189 0 0 \;;
#X scalar awf-template-$0 190 0 0 \;;
#X scalar awf-template-$0 191 0 0 \;;
#X scalar awf-template-$0 192 0 0 \;;
#X scalar awf-template-$0 193 0 0 \;;
#X scalar awf-template-$0 194 0 0 \;;
#X scalar awf-template-$0 195 0 0 \;;
#X scalar awf-template-$0 196 0 0 \;;
#X scalar awf-template-$0 197 0 0 \;;
#X scalar awf-template-$0 198 0 0 \;;
#X scalar awf-template-$0 199 0 0 \;;
#X coords 0 1 200 -1 200 76 1;
#X restore 3 16 pd \$0-awf-data;
#X connect 1 0 3 2;
#X connect 2 0 3 0;
#X connect 6 0 3 3;
#X connect 9 0 13 0;
#X connect 10 0 9 0;
#X connect 10 0 12 0;
#X connect 10 0 14 0;
#X connect 12 0 3 0;
#X connect 13 0 3 2;
#X connect 14 0 3 1;
#X coords 0 -1 1 1 202 92 1 2 1;
