#N canvas 429 125 715 523 10;
#X obj 65 240 change;
#X obj 65 162 moses;
#X floatatom 92 138 5 0 0 0 - - -, f 5;
#X obj 92 191 moses;
#X floatatom 119 169 5 0 0 0 - - -, f 5;
#X msg 65 214 0;
#X msg 119 214 1;
#X obj 65 262 select 1;
#X obj 65 287 bng 15 250 50 0 empty empty empty 17 7 0 10 -262144 -1
-1;
#X text 90 286 Note attack detector;
#X obj 65 105 env~;
#X text 128 138 Hysteresis lower threshold;
#X text 158 168 Hysteresis upper threshold;
#X obj 237 58 loadbang;
#X obj 131 238 bng 15 250 50 0 empty empty empty 17 7 0 10 -262144
-1 -1;
#X obj 65 323 outlet;
#X obj 131 36 inlet;
#X obj 340 36 inlet;
#X obj 132 88 \$1;
#X obj 343 86 \$2;
#X floatatom 155 113 5 0 0 0 - - -, f 5;
#X floatatom 346 111 5 0 0 0 - - -, f 5;
#X obj 64 34 inlet~;
#X obj 37 238 bng 15 250 50 0 empty empty empty 17 7 0 10 -262144 -1
-1;
#X connect 0 0 7 0;
#X connect 1 0 5 0;
#X connect 1 1 3 0;
#X connect 2 0 1 1;
#X connect 3 1 6 0;
#X connect 4 0 3 1;
#X connect 5 0 0 0;
#X connect 5 0 23 0;
#X connect 6 0 0 0;
#X connect 6 0 14 0;
#X connect 7 0 8 0;
#X connect 8 0 15 0;
#X connect 10 0 1 0;
#X connect 13 0 18 0;
#X connect 13 0 19 0;
#X connect 16 0 18 0;
#X connect 17 0 19 0;
#X connect 18 0 20 0;
#X connect 18 0 2 0;
#X connect 19 0 4 0;
#X connect 19 0 21 0;
#X connect 22 0 10 0;
