#N canvas 640 584 296 218 10;
#X obj 6 4 inlet;
#X obj 32 153 + 1;
#X obj 6 176 outlet;
#X obj 71 90 t b b;
#X obj 71 48 symbol;
#X obj 71 68 select reset bang;
#X obj 6 25 route bang;
#X text 68 183 jason plumb :: noisybox.net;
#X text 68 169 send "reset" to reset;
#X text 68 155 outputs number of bangs received;
#X msg 100 110 0;
#X obj 6 153 f 1;
#X connect 0 0 6 0;
#X connect 1 0 11 1;
#X connect 3 0 11 0;
#X connect 3 1 10 0;
#X connect 4 0 5 0;
#X connect 5 0 3 0;
#X connect 6 0 11 0;
#X connect 6 1 4 0;
#X connect 10 0 11 1;
#X connect 11 0 1 0;
#X connect 11 0 2 0;
