#N canvas 817 378 358 487 10;
#X obj 16 205 sampler~;
#X msg 41 139 bang;
#X floatatom 41 236 5 0 0 0 - - -;
#X obj 90 235 bng 15 250 50 0 empty empty empty 0 -6 0 8 -262144 -1
-1;
#X obj 239 253 + 0.5;
#X obj 237 209 / 127;
#X obj 237 231 * 1.5;
#X floatatom 245 275 5 0 0 0 - - -;
#X obj 15 81 inlet~;
#X obj 103 447 outlet~;
#X obj 142 90 route 0 127;
#X obj 134 174 spigot;
#X msg 180 137 1;
#X msg 142 115 0;
#X msg 172 115 bang;
#X obj 43 380 *~;
#X obj 149 321 line~;
#X msg 148 236 1 5;
#X msg 126 266 0 5;
#X obj 40 119 ctlin \$1;
#X obj 142 66 ctlin \$2;
#X obj 237 171 ctlin \$3;
#X text 10 4 bcr2000 controller sampler/looper;
#X text 7 15 intended to be used on top button row and;
#X text 9 27 1st main button row;
#X obj 43 324 pitcher~;
#X obj 281 210 / 127;
#X floatatom 289 275 5 0 0 0 - - -;
#X obj 280 232 * 150;
#X obj 281 253 - 75;
#X obj 129 363 ctlin \$4;
#X obj 103 405 *~;
#X obj 128 385 / 127;
#X floatatom 139 422 5 0 0 0 - - -;
#X obj 20 407 clip~ -1 1;
#X connect 0 0 25 0;
#X connect 0 1 2 0;
#X connect 0 2 3 0;
#X connect 0 2 11 0;
#X connect 1 0 0 1;
#X connect 4 0 7 0;
#X connect 5 0 6 0;
#X connect 6 0 4 0;
#X connect 8 0 0 0;
#X connect 10 0 13 0;
#X connect 10 1 12 0;
#X connect 10 1 14 0;
#X connect 11 0 0 2;
#X connect 12 0 11 1;
#X connect 12 0 17 0;
#X connect 13 0 11 1;
#X connect 13 0 18 0;
#X connect 14 0 0 2;
#X connect 15 0 34 0;
#X connect 16 0 15 1;
#X connect 17 0 16 0;
#X connect 18 0 16 0;
#X connect 19 0 1 0;
#X connect 20 0 10 0;
#X connect 21 0 5 0;
#X connect 21 0 26 0;
#X connect 25 0 15 0;
#X connect 26 0 28 0;
#X connect 28 0 29 0;
#X connect 29 0 27 0;
#X connect 29 0 25 1;
#X connect 30 0 32 0;
#X connect 31 0 9 0;
#X connect 32 0 33 0;
#X connect 32 0 31 1;
#X connect 34 0 31 0;
