#N canvas 57 168 529 596 10;
#X obj 153 92 select 0;
#X floatatom 162 72 5 0 0 0 - - -, f 5;
#X obj 118 395 f;
#X obj 114 318 t f b;
#X obj 118 458 select 127;
#X obj 131 482 bng 15 250 50 0 empty empty empty 17 7 0 10 -262144
-1 -1;
#X obj 199 397 f;
#X obj 195 320 t f b;
#X obj 208 484 bng 15 250 50 0 empty empty empty 17 7 0 10 -262144
-1 -1;
#X obj 199 460 select 0;
#X obj 141 140 bng 15 250 50 0 empty empty empty 17 7 0 10 -262144
-1 -1;
#X floatatom 206 423 5 0 0 0 - - -, f 5;
#X floatatom 125 420 5 0 0 0 - - -, f 5;
#X obj 117 525 outlet;
#X obj 203 527 outlet;
#X obj 152 50 ctlin \$1;
#X obj 121 501 t b b;
#X obj 203 503 t b b;
#X floatatom 100 30 5 0 0 0 - - -, f 5;
#X obj 90 277 spigot;
#X obj 214 272 spigot;
#X msg 138 226 0;
#X msg 177 227 1;
#X obj 168 204 bng 15 250 50 0 empty empty empty 17 7 0 10 -262144
-1 -1;
#X obj 104 117 t b b f;
#X obj 208 142 bng 15 250 50 0 empty empty empty 17 7 0 10 -262144
-1 -1;
#X obj 222 117 t b b f;
#X text 235 179 debounce time;
#X obj 146 176 delay 100;
#X connect 0 0 24 0;
#X connect 0 1 26 0;
#X connect 2 0 4 0;
#X connect 2 0 12 0;
#X connect 3 0 6 1;
#X connect 3 0 2 1;
#X connect 3 1 2 0;
#X connect 4 0 5 0;
#X connect 4 0 16 0;
#X connect 6 0 9 0;
#X connect 6 0 11 0;
#X connect 7 0 2 1;
#X connect 7 0 6 1;
#X connect 7 1 6 0;
#X connect 9 0 8 0;
#X connect 9 0 17 0;
#X connect 10 0 28 0;
#X connect 15 0 0 0;
#X connect 15 0 1 0;
#X connect 16 0 13 0;
#X connect 17 0 14 0;
#X connect 18 0 0 0;
#X connect 19 0 3 0;
#X connect 20 0 7 0;
#X connect 21 0 19 1;
#X connect 21 0 20 1;
#X connect 22 0 19 1;
#X connect 22 0 20 1;
#X connect 24 0 10 0;
#X connect 24 1 21 0;
#X connect 24 2 19 0;
#X connect 25 0 28 0;
#X connect 26 0 25 0;
#X connect 26 1 21 0;
#X connect 26 2 20 0;
#X connect 28 0 23 0;
#X connect 28 0 22 0;
