#N canvas 581 76 596 450 10;
#X obj 126 325 random 20000;
#X obj 126 347 / 10000;
#X obj 128 369 - 1;
#X obj 134 294 t b f;
#X obj 136 266 random 515;
#X obj 242 308 metro 100;
#N canvas 0 0 566 522 cntgen 0;
#X msg 124 26 bang;
#X obj 123 4 inlet;
#X obj 126 51 random 515;
#X floatatom 136 73 5 0 0 0 - - -;
#X obj 179 134 - 515;
#X obj 179 156 * -1;
#X obj 134 187 random;
#X floatatom 164 242 5 0 0 0 - - -;
#X obj 138 215 +;
#X obj 134 255 -;
#X floatatom 150 285 5 0 0 0 - - -;
#X obj 50 318 until;
#X obj 50 339 f;
#X obj 84 338 + 1;
#X obj 137 467 outlet;
#X obj 96 367 +;
#X msg 89 300 0;
#X obj 91 103 t b f f f f;
#X obj 330 98 / 10000;
#X floatatom 341 122 5 0 0 0 - - -;
#X obj 404 206 / 10000;
#X obj 303 297 -;
#X floatatom 325 341 5 0 0 0 - - -;
#X obj 340 412 /;
#X obj 54 278 t f b b f;
#X obj 108 424 t b f;
#X obj 288 461 f;
#X obj 322 460 +;
#X obj 289 485 outlet;
#X floatatom 149 326 5 0 0 0 - - -;
#X floatatom 347 434 5 0 0 0 - - -;
#X obj 303 319 * -1;
#X obj 329 76 random 20000;
#X obj 406 184 random 20000;
#X obj 369 186 - 1;
#X floatatom 347 212 5 0 0 0 - - -;
#X obj 410 232 - 1;
#X floatatom 414 254 5 0 0 0 - - -;
#X text 378 288 bug in this?;
#X obj 336 160 t f f b;
#X connect 0 0 2 0;
#X connect 1 0 0 0;
#X connect 2 0 3 0;
#X connect 2 0 17 0;
#X connect 4 0 5 0;
#X connect 5 0 6 1;
#X connect 6 0 8 0;
#X connect 8 0 7 0;
#X connect 8 0 9 0;
#X connect 9 0 10 0;
#X connect 9 0 24 0;
#X connect 11 0 12 0;
#X connect 12 0 13 0;
#X connect 12 0 15 0;
#X connect 13 0 12 1;
#X connect 15 0 25 0;
#X connect 16 0 12 1;
#X connect 17 0 6 0;
#X connect 17 1 15 1;
#X connect 17 2 9 1;
#X connect 17 3 8 1;
#X connect 17 4 4 0;
#X connect 18 0 19 0;
#X connect 18 0 39 0;
#X connect 20 0 36 0;
#X connect 20 0 21 1;
#X connect 21 0 31 0;
#X connect 23 0 30 0;
#X connect 23 0 27 1;
#X connect 24 0 11 0;
#X connect 24 1 16 0;
#X connect 24 2 32 0;
#X connect 24 3 23 1;
#X connect 24 3 29 0;
#X connect 25 0 26 0;
#X connect 25 1 14 0;
#X connect 26 0 27 0;
#X connect 26 0 28 0;
#X connect 27 0 26 1;
#X connect 31 0 23 0;
#X connect 31 0 22 0;
#X connect 32 0 18 0;
#X connect 33 0 20 0;
#X connect 34 0 26 1;
#X connect 34 0 35 0;
#X connect 36 0 37 0;
#X connect 39 0 21 0;
#X connect 39 1 34 0;
#X connect 39 2 33 0;
#X restore 242 367 pd cntgen;
#X obj 13 261 dline~ 500 0.8;
#X obj 12 132 +~;
#X text 38 134 vib;
#X obj 458 166 loadbang;
#X obj 368 309 metro 100;
#N canvas 510 363 566 522 curvgen 0;
#X obj 51 19 inlet;
#X obj 58 485 outlet;
#X obj 256 492 outlet;
#X obj 343 14 loadbang;
#N canvas 135 528 336 187 setup 0;
#X obj 32 3 inlet;
#X obj 32 25 t f f f;
#X msg 125 61 \; \$1_ssref resize 515;
#X msg 80 101 \; \$1_ssref sinesum 512 0 1;
#X msg 32 138 \; \$1_ssref normalize;
#X connect 0 0 1 0;
#X connect 1 0 4 0;
#X connect 1 1 3 0;
#X connect 1 2 2 0;
#X restore 343 58 pd setup;
#X msg 81 52 bang;
#N canvas 142 204 295 431 randrange 0;
#X obj 80 69 random 512;
#X text 91 50 start;
#X obj 94 145 512;
#X obj 116 175 -;
#X floatatom 97 93 5 0 0 0 - - -;
#X obj 117 226 t b f;
#X obj 127 262 random;
#X obj 132 323 +;
#X obj 80 116 t f b f f;
#X obj 41 23 inlet;
#X obj 73 391 outlet;
#X obj 150 394 outlet;
#X text 156 145 <- hard coded :(;
#X connect 0 0 4 0;
#X connect 0 0 8 0;
#X connect 2 0 3 0;
#X connect 3 0 5 0;
#X connect 5 0 6 0;
#X connect 5 1 6 1;
#X connect 6 0 7 0;
#X connect 7 0 11 0;
#X connect 8 0 10 0;
#X connect 8 1 2 0;
#X connect 8 2 3 1;
#X connect 8 3 7 1;
#X connect 9 0 0 0;
#X restore 123 119 pd randrange;
#X floatatom 132 141 5 0 0 0 - - -;
#X floatatom 207 146 5 0 0 0 - - -;
#N canvas 142 204 295 431 randrange 0;
#X obj 80 69 random 512;
#X text 91 50 start;
#X obj 94 145 512;
#X obj 116 175 -;
#X floatatom 97 93 5 0 0 0 - - -;
#X obj 117 226 t b f;
#X obj 127 262 random;
#X obj 132 323 +;
#X obj 80 116 t f b f f;
#X obj 41 23 inlet;
#X obj 73 391 outlet;
#X obj 150 394 outlet;
#X text 156 145 <- hard coded :(;
#X connect 0 0 4 0;
#X connect 0 0 8 0;
#X connect 2 0 3 0;
#X connect 3 0 5 0;
#X connect 5 0 6 0;
#X connect 5 1 6 1;
#X connect 6 0 7 0;
#X connect 7 0 11 0;
#X connect 8 0 10 0;
#X connect 8 1 2 0;
#X connect 8 2 3 1;
#X connect 8 3 7 1;
#X connect 9 0 0 0;
#X restore 253 124 pd randrange;
#X floatatom 264 147 5 0 0 0 - - -;
#X floatatom 342 151 5 0 0 0 - - -;
#X obj 81 76 t b b b;
#X obj 92 254 until;
#X obj 96 190 -;
#X floatatom 111 234 5 0 0 0 - - -;
#X obj 96 211 * -1;
#X obj 191 164 t f f;
#X floatatom 212 371 5 0 0 0 - - -;
#X obj 192 347 range 0 100 0 100;
#X obj 93 285 f;
#X obj 111 160 t f f f;
#X obj 124 285 + 1;
#X obj 67 314 t f f;
#X text 135 103 to;
#X text 278 110 from;
#X floatatom 206 427 5 0 0 0 - - -;
#X obj 342 78 table \$0_ssref;
#X obj 186 400 tabread4 \$0_ssref;
#X obj 345 35 \$0;
#X connect 0 0 12 0;
#X connect 3 0 29 0;
#X connect 5 0 12 0;
#X connect 6 0 7 0;
#X connect 6 0 21 0;
#X connect 6 1 8 0;
#X connect 6 1 17 0;
#X connect 9 0 10 0;
#X connect 9 0 19 3;
#X connect 9 1 11 0;
#X connect 9 1 19 4;
#X connect 12 1 6 0;
#X connect 12 2 9 0;
#X connect 13 0 20 0;
#X connect 14 0 16 0;
#X connect 16 0 15 0;
#X connect 16 0 13 0;
#X connect 17 0 14 1;
#X connect 17 1 19 2;
#X connect 19 0 18 0;
#X connect 19 0 28 0;
#X connect 20 0 22 0;
#X connect 20 0 23 0;
#X connect 21 0 14 0;
#X connect 21 1 20 1;
#X connect 21 2 19 1;
#X connect 22 0 20 1;
#X connect 23 0 19 0;
#X connect 23 1 2 0;
#X connect 28 0 1 0;
#X connect 28 0 26 0;
#X connect 29 0 4 0;
#X restore 368 369 pd curvgen;
#X text 132 417 pin pricks;
#X text 259 417 linnea;
#X obj 14 395 outlet~;
#X text 366 417 sinner;
#X obj 12 9 inlet;
#X obj 29 111 osc~ 1;
#X obj 52 9 inlet;
#X obj 458 243 table \$0_rndt;
#X obj 352 397 tabwrite \$0_rndt;
#X obj 231 396 tabwrite \$0_rndt;
#X obj 110 396 tabwrite \$0_rndt;
#X obj 458 188 \$0;
#X msg 458 209 \; \$1_rndt resize 515;
#X obj 12 165 tabosc4~ \$0_rndt;
#X obj 136 7 inlet;
#N canvas 701 103 305 212 onofffloat 0;
#X obj 178 51 symbol;
#X obj 28 9 inlet;
#X obj 22 155 outlet;
#X obj 69 155 outlet;
#X obj 116 155 outlet;
#X obj 22 74 select start on stop off;
#X msg 117 114 stop;
#X msg 35 113 bang;
#X obj 57 29 route symbol float;
#X connect 0 0 5 0;
#X connect 1 0 8 0;
#X connect 5 0 7 0;
#X connect 5 1 7 0;
#X connect 5 2 6 0;
#X connect 5 3 6 0;
#X connect 6 0 3 0;
#X connect 7 0 2 0;
#X connect 8 1 4 0;
#X connect 8 2 0 0;
#X restore 136 167 pd onofffloat;
#X obj 242 8 inlet;
#X obj 349 7 inlet;
#X obj 453 9 inlet;
#X obj 498 9 inlet;
#X obj 454 115 s \$0_dltime;
#X obj 499 75 clip 0 1;
#X obj 27 226 r \$0_dltime;
#X obj 499 96 s \$0_dlfeed;
#X obj 26 205 r \$0_dlfeed;
#X obj 21 34 loadbang;
#X obj 20 58 \$1;
#X obj 64 58 \$2;
#X obj 145 52 \$3;
#X obj 257 27 loadbang;
#X obj 145 75 select 0;
#X msg 144 134 start;
#X obj 255 75 select 0;
#X msg 249 137 start;
#X obj 360 76 select 0;
#X msg 359 134 start;
#X obj 255 50 \$4;
#X obj 360 50 \$5;
#X obj 419 55 \$6;
#X obj 469 38 \$7;
#N canvas 701 103 305 212 onofffloat 0;
#X obj 178 51 symbol;
#X obj 28 9 inlet;
#X obj 22 155 outlet;
#X obj 69 155 outlet;
#X obj 116 155 outlet;
#X obj 22 74 select start on stop off;
#X msg 117 114 stop;
#X msg 35 113 bang;
#X obj 57 29 route symbol float;
#X connect 0 0 5 0;
#X connect 1 0 8 0;
#X connect 5 0 7 0;
#X connect 5 1 7 0;
#X connect 5 2 6 0;
#X connect 5 3 6 0;
#X connect 6 0 3 0;
#X connect 7 0 2 0;
#X connect 8 1 4 0;
#X connect 8 2 0 0;
#X restore 242 167 pd onofffloat;
#N canvas 701 103 305 212 onofffloat 0;
#X obj 178 51 symbol;
#X obj 28 9 inlet;
#X obj 22 155 outlet;
#X obj 69 155 outlet;
#X obj 116 155 outlet;
#X obj 22 74 select start on stop off;
#X msg 117 114 stop;
#X msg 35 113 bang;
#X obj 57 29 route symbol float;
#X connect 0 0 5 0;
#X connect 1 0 8 0;
#X connect 5 0 7 0;
#X connect 5 1 7 0;
#X connect 5 2 6 0;
#X connect 5 3 6 0;
#X connect 6 0 3 0;
#X connect 7 0 2 0;
#X connect 8 1 4 0;
#X connect 8 2 0 0;
#X restore 350 167 pd onofffloat;
#X obj 136 240 metro 100;
#X obj 153 102 t b f;
#X obj 276 104 t b f;
#X obj 368 106 t b f;
#X obj 53 82 select 0;
#X obj 429 81 select 0;
#X obj 507 51 select 0;
#X connect 0 0 1 0;
#X connect 1 0 2 0;
#X connect 2 0 23 0;
#X connect 3 0 0 0;
#X connect 3 1 23 1;
#X connect 4 0 3 0;
#X connect 5 0 6 0;
#X connect 6 0 22 1;
#X connect 6 1 22 0;
#X connect 7 0 15 0;
#X connect 8 0 26 0;
#X connect 10 0 24 0;
#X connect 11 0 12 0;
#X connect 12 0 21 0;
#X connect 12 1 21 1;
#X connect 17 0 8 0;
#X connect 18 0 8 1;
#X connect 19 0 18 0;
#X connect 24 0 25 0;
#X connect 26 0 7 0;
#X connect 27 0 28 0;
#X connect 28 0 55 0;
#X connect 28 1 55 0;
#X connect 28 2 55 1;
#X connect 29 0 53 0;
#X connect 30 0 54 0;
#X connect 31 0 33 0;
#X connect 32 0 34 0;
#X connect 34 0 36 0;
#X connect 35 0 7 1;
#X connect 37 0 7 2;
#X connect 38 0 39 0;
#X connect 38 0 40 0;
#X connect 39 0 8 0;
#X connect 40 0 59 0;
#X connect 41 0 43 0;
#X connect 42 0 41 0;
#X connect 42 0 49 0;
#X connect 42 0 50 0;
#X connect 42 0 51 0;
#X connect 42 0 52 0;
#X connect 43 1 56 0;
#X connect 44 0 28 0;
#X connect 45 1 57 0;
#X connect 46 0 53 0;
#X connect 47 1 58 0;
#X connect 48 0 54 0;
#X connect 49 0 45 0;
#X connect 50 0 47 0;
#X connect 51 0 60 0;
#X connect 52 0 61 0;
#X connect 53 0 5 0;
#X connect 53 1 5 0;
#X connect 53 2 5 1;
#X connect 54 0 11 0;
#X connect 54 1 11 0;
#X connect 54 2 11 1;
#X connect 55 0 4 0;
#X connect 56 0 44 0;
#X connect 56 1 28 0;
#X connect 57 0 46 0;
#X connect 57 1 53 0;
#X connect 58 0 48 0;
#X connect 58 1 54 0;
#X connect 59 1 18 0;
#X connect 60 1 33 0;
#X connect 61 1 34 0;
