#N canvas 765 92 471 406 10;
#X obj 21 26 cnv 15 260 155 empty empty caradisio~_::_noisybox.net
10 12 0 12 -1184 -262131 0;
#X obj 24 373 outlet~;
#X obj 25 349 caradisio~;
#X text 14 5 visual caradisio~ controller;
#X obj 78 83 hsl 128 15 1 1000 0 0 \$0x/pin/h/s \$0x/pin/h/r empty
-2 -6 0 8 -228992 -1 -1 0 1;
#X obj 25 200 r \$0x/freq/s;
#X obj 46 241 r \$0x/pin/s;
#X obj 57 262 r \$0x/lin/s;
#X obj 68 285 r \$0x/sin/s;
#X obj 79 307 r \$0x/delay/s;
#X obj 90 328 r \$0x/feedback/s;
#X obj 57 83 tgl 15 0 \$0x/pin/onoff/s \$0x/pin/onoff/r pin -25 8 0
10 -228992 -1 -262144 0 1;
#X obj 210 84 nbx 5 14 1 5000 0 0 \$0x/pin/n/s \$0x/pin/n/r empty 0
-6 0 10 -228992 -1 -1 1 256;
#X obj 78 100 hsl 128 15 0 1000 0 0 \$0x/lin/h/s \$0x/lin/h/r empty
-2 -6 0 8 -228992 -1 -1 0 1;
#X obj 57 100 tgl 15 0 \$0x/lin/onoff/s \$0x/lin/onoff/r lin -25 8
0 10 -228992 -1 -262144 0 1;
#X obj 210 101 nbx 5 14 1 5000 0 0 \$0x/lin/n/s \$0x/lin/n/r empty
0 -6 0 10 -228992 -1 -1 1 256;
#X obj 78 117 hsl 128 15 1 1000 0 0 \$0x/sin/h/s \$0x/sin/h/r empty
-2 -6 0 8 -228992 -1 -1 0 1;
#X obj 57 117 tgl 15 0 \$0x/sin/onoff/s \$0x/sin/onoff/r sin -25 8
0 10 -228992 -1 -262144 0 1;
#X obj 210 118 nbx 5 14 1 5000 0 0 \$0x/sin/n/s \$0x/sin/n/r empty
0 -6 0 10 -228992 -1 -1 1 256;
#N canvas 0 138 450 300 pincombine 0;
#X obj 56 38 r \$0x/pin/n/s;
#X obj 207 41 r \$0x/pin/h/s;
#X obj 25 259 s \$0x/pin/s;
#X obj 54 176 s \$0x/pin/h/r;
#X obj 207 179 s \$0x/pin/n/r;
#X obj 207 101 t b f b;
#X obj 207 72 spigot;
#X msg 251 138 0;
#X msg 284 138 1;
#X obj 166 10 loadbang;
#X msg 166 33 1;
#X text 223 158 wad to prevent stack overflow;
#X obj 73 99 t b f b;
#X obj 73 70 spigot;
#X msg 117 136 0;
#X msg 150 136 1;
#X obj 156 216 r \$0x/pin/onoff/s;
#X obj 155 240 select 0;
#X msg 206 261 on;
#X msg 155 262 off;
#X connect 0 0 13 0;
#X connect 0 0 2 0;
#X connect 1 0 6 0;
#X connect 1 0 2 0;
#X connect 5 0 8 0;
#X connect 5 1 4 0;
#X connect 5 2 7 0;
#X connect 6 0 5 0;
#X connect 7 0 6 1;
#X connect 8 0 6 1;
#X connect 9 0 10 0;
#X connect 10 0 6 1;
#X connect 10 0 13 1;
#X connect 12 0 15 0;
#X connect 12 1 3 0;
#X connect 12 2 14 0;
#X connect 13 0 12 0;
#X connect 14 0 13 1;
#X connect 15 0 13 1;
#X connect 16 0 17 0;
#X connect 17 0 19 0;
#X connect 17 1 18 0;
#X connect 18 0 2 0;
#X connect 19 0 2 0;
#X restore 327 72 pd pincombine;
#N canvas 0 138 450 300 lincombine 0;
#X obj 207 101 t b f b;
#X obj 207 72 spigot;
#X msg 251 138 0;
#X msg 284 138 1;
#X obj 166 10 loadbang;
#X msg 166 33 1;
#X text 223 158 wad to prevent stack overflow;
#X obj 73 99 t b f b;
#X obj 73 70 spigot;
#X msg 117 136 0;
#X msg 150 136 1;
#X obj 155 240 select 0;
#X msg 155 262 off;
#X msg 206 261 on;
#X obj 207 41 r \$0x/lin/h/s;
#X obj 56 38 r \$0x/lin/n/s;
#X obj 54 176 s \$0x/lin/h/r;
#X obj 207 179 s \$0x/lin/n/r;
#X obj 156 216 r \$0x/lin/onoff/s;
#X obj 25 259 s \$0x/lin/s;
#X connect 0 0 3 0;
#X connect 0 1 17 0;
#X connect 0 2 2 0;
#X connect 1 0 0 0;
#X connect 2 0 1 1;
#X connect 3 0 1 1;
#X connect 4 0 5 0;
#X connect 5 0 1 1;
#X connect 5 0 8 1;
#X connect 7 0 10 0;
#X connect 7 1 16 0;
#X connect 7 2 9 0;
#X connect 8 0 7 0;
#X connect 9 0 8 1;
#X connect 10 0 8 1;
#X connect 11 0 12 0;
#X connect 11 1 13 0;
#X connect 12 0 19 0;
#X connect 13 0 19 0;
#X connect 14 0 1 0;
#X connect 14 0 19 0;
#X connect 15 0 8 0;
#X connect 15 0 19 0;
#X connect 18 0 11 0;
#X restore 327 93 pd lincombine;
#N canvas 0 138 450 300 sincombine 0;
#X obj 207 101 t b f b;
#X obj 207 72 spigot;
#X msg 251 138 0;
#X msg 284 138 1;
#X obj 166 10 loadbang;
#X msg 166 33 1;
#X text 223 158 wad to prevent stack overflow;
#X obj 73 99 t b f b;
#X obj 73 70 spigot;
#X msg 117 136 0;
#X msg 150 136 1;
#X obj 155 240 select 0;
#X msg 155 262 off;
#X msg 206 261 on;
#X obj 57 38 r \$0x/sin/n/s;
#X obj 207 41 r \$0x/sin/h/s;
#X obj 207 179 s \$0x/sin/n/r;
#X obj 54 176 s \$0x/sin/h/r;
#X obj 156 216 r \$0x/sin/onoff/s;
#X obj 25 258 s \$0x/sin/s;
#X connect 0 0 3 0;
#X connect 0 1 16 0;
#X connect 0 2 2 0;
#X connect 1 0 0 0;
#X connect 2 0 1 1;
#X connect 3 0 1 1;
#X connect 4 0 5 0;
#X connect 5 0 1 1;
#X connect 5 0 8 1;
#X connect 7 0 10 0;
#X connect 7 1 17 0;
#X connect 7 2 9 0;
#X connect 8 0 7 0;
#X connect 9 0 8 1;
#X connect 10 0 8 1;
#X connect 11 0 12 0;
#X connect 11 1 13 0;
#X connect 12 0 19 0;
#X connect 13 0 19 0;
#X connect 14 0 8 0;
#X connect 14 0 19 0;
#X connect 15 0 1 0;
#X connect 15 0 19 0;
#X connect 18 0 11 0;
#X restore 327 113 pd sincombine;
#X obj 60 49 hsl 146 15 0 1000 0 0 \$0x/freq/h/s \$0x/freq/h/r freq
-35 8 0 10 -228992 -1 -262144 0 1;
#X obj 211 50 nbx 5 14 0 5000 0 0 \$0x/freq/n/s \$0x/freq/n/r empty
0 -6 0 10 -228992 -1 -1 0 256;
#X obj 60 66 hsl 146 15 0 1000 0 0 \$0x/mod/h/s \$0x/mod/h/r mod -29
8 0 10 -228992 -1 -262144 0 1;
#X obj 211 67 nbx 5 14 0 5000 0 0 \$0x/mod/n/s \$0x/mod/n/r empty 0
-6 0 10 -228992 -1 -1 0 256;
#N canvas 0 138 450 300 vibcombine 0;
#X obj 207 101 t b f b;
#X obj 207 72 spigot;
#X msg 251 138 0;
#X msg 284 138 1;
#X obj 166 10 loadbang;
#X msg 166 33 1;
#X text 223 158 wad to prevent stack overflow;
#X obj 73 99 t b f b;
#X obj 73 70 spigot;
#X msg 117 136 0;
#X msg 150 136 1;
#X obj 56 39 r \$0x/mod/n/s;
#X obj 53 176 s \$0x/mod/h/r;
#X obj 208 180 s \$0x/mod/n/r;
#X obj 203 40 r \$0x/mod/h/s;
#X obj 25 258 s \$0x/mod/s;
#X connect 0 0 3 0;
#X connect 0 1 13 0;
#X connect 0 2 2 0;
#X connect 1 0 0 0;
#X connect 2 0 1 1;
#X connect 3 0 1 1;
#X connect 4 0 5 0;
#X connect 5 0 1 1;
#X connect 5 0 8 1;
#X connect 7 0 10 0;
#X connect 7 1 12 0;
#X connect 7 2 9 0;
#X connect 8 0 7 0;
#X connect 9 0 8 1;
#X connect 10 0 8 1;
#X connect 11 0 8 0;
#X connect 11 0 15 0;
#X connect 14 0 1 0;
#X connect 14 0 15 0;
#X restore 327 50 pd vibcombine;
#X obj 60 134 hsl 146 15 1 1000 0 0 \$0x/delay/h/s \$0x/delay/h/r del
-28 8 0 10 -228992 -1 -262144 0 1;
#X obj 211 135 nbx 5 14 1 5000 0 0 \$0x/delay/n/s \$0x/delay/n/r empty
0 -6 0 10 -228992 -1 -1 1 256;
#X obj 60 151 hsl 146 15 0 1 0 0 \$0x/feedback/h/s \$0x/feedback/h/r
feed -35 8 0 10 -228992 -1 -262144 0 1;
#X obj 211 152 nbx 5 14 0 1 0 0 \$0x/feedback/n/s \$0x/feedback/n/r
empty 0 -6 0 10 -228992 -1 -1 0 256;
#N canvas 297 33 450 300 freqcombine 0;
#X obj 58 38 r \$0x/freq/n/s;
#X obj 208 42 r \$0x/freq/h/s;
#X obj 207 179 s \$0x/freq/n/r;
#X obj 54 176 s \$0x/freq/h/r;
#X obj 25 258 s \$0x/freq/s;
#X obj 57 66 change;
#X obj 208 66 change;
#X obj 205 110 t f f;
#X obj 54 105 t f f;
#X obj 98 221 change;
#X connect 0 0 5 0;
#X connect 1 0 6 0;
#X connect 5 0 8 0;
#X connect 6 0 7 0;
#X connect 7 0 9 0;
#X connect 7 1 2 0;
#X connect 8 0 9 0;
#X connect 8 1 3 0;
#X connect 9 0 4 0;
#X restore 327 29 pd freqcombine;
#N canvas 0 138 450 300 delaycombine 0;
#X obj 207 101 t b f b;
#X obj 207 72 spigot;
#X msg 251 138 0;
#X msg 284 138 1;
#X obj 166 10 loadbang;
#X msg 166 33 1;
#X text 223 158 wad to prevent stack overflow;
#X obj 73 99 t b f b;
#X obj 73 70 spigot;
#X msg 117 136 0;
#X msg 150 136 1;
#X obj 207 41 r \$0x/delay/h/s;
#X obj 53 40 r \$0x/delay/n/s;
#X obj 54 176 s \$0x/delay/h/r;
#X obj 207 180 s \$0x/delay/n/r;
#X obj 25 258 s \$0x/delay/s;
#X connect 0 0 3 0;
#X connect 0 1 14 0;
#X connect 0 2 2 0;
#X connect 1 0 0 0;
#X connect 2 0 1 1;
#X connect 3 0 1 1;
#X connect 4 0 5 0;
#X connect 5 0 1 1;
#X connect 5 0 8 1;
#X connect 7 0 10 0;
#X connect 7 1 13 0;
#X connect 7 2 9 0;
#X connect 8 0 7 0;
#X connect 9 0 8 1;
#X connect 10 0 8 1;
#X connect 11 0 1 0;
#X connect 11 0 15 0;
#X connect 12 0 8 0;
#X connect 12 0 15 0;
#X restore 327 134 pd delaycombine;
#N canvas 0 138 450 300 feedbackcombine 0;
#X obj 207 101 t b f b;
#X obj 207 72 spigot;
#X msg 251 138 0;
#X msg 284 138 1;
#X obj 166 10 loadbang;
#X msg 166 33 1;
#X text 223 158 wad to prevent stack overflow;
#X obj 73 99 t b f b;
#X obj 73 70 spigot;
#X msg 117 136 0;
#X msg 150 136 1;
#X obj 207 41 r \$0x/feedback/h/s;
#X obj 32 31 r \$0x/feedback/n/s;
#X obj 54 176 s \$0x/feedback/h/r;
#X obj 207 180 s \$0x/feedback/n/r;
#X obj 25 258 s \$0x/feedback/s;
#X connect 0 0 3 0;
#X connect 0 1 14 0;
#X connect 0 2 2 0;
#X connect 1 0 0 0;
#X connect 2 0 1 1;
#X connect 3 0 1 1;
#X connect 4 0 5 0;
#X connect 5 0 1 1;
#X connect 5 0 8 1;
#X connect 7 0 10 0;
#X connect 7 1 13 0;
#X connect 7 2 9 0;
#X connect 8 0 7 0;
#X connect 9 0 8 1;
#X connect 10 0 8 1;
#X connect 11 0 1 0;
#X connect 11 0 15 0;
#X connect 12 0 8 0;
#X connect 12 0 15 0;
#X restore 326 155 pd feedbackcombine;
#X obj 278 213 inlet;
#N canvas 290 560 597 340 param 0;
#X obj 36 17 inlet;
#X obj 38 85 s \$0x/freq/n/r;
#X obj 74 111 s \$0x/mod/n/r;
#X obj 114 137 route float;
#X obj 120 187 s \$0x/pin/onoff/r;
#X obj 114 209 s \$0x/pin/n/r;
#X obj 120 158 onoff;
#X obj 248 138 route float;
#X obj 254 159 onoff;
#X obj 378 139 route float;
#X obj 384 160 onoff;
#X obj 254 179 s \$0x/lin/onoff/r;
#X obj 249 201 s \$0x/lin/n/r;
#X obj 384 180 s \$0x/sin/onoff/r;
#X obj 378 202 s \$0x/sin/n/r;
#X obj 275 78 s \$0x/delay/n/r;
#X obj 395 84 s \$0x/feedback/n/r;
#X obj 37 52 route freq mod pin lin sin del delay feed feedback midibase
;
#X obj 440 111 s \$0x/midibase;
#X connect 0 0 17 0;
#X connect 3 0 5 0;
#X connect 3 1 6 0;
#X connect 6 0 4 0;
#X connect 7 0 12 0;
#X connect 7 1 8 0;
#X connect 8 0 11 0;
#X connect 9 0 14 0;
#X connect 9 1 10 0;
#X connect 10 0 13 0;
#X connect 17 0 1 0;
#X connect 17 1 2 0;
#X connect 17 2 3 0;
#X connect 17 3 7 0;
#X connect 17 4 9 0;
#X connect 17 5 15 0;
#X connect 17 6 15 0;
#X connect 17 7 16 0;
#X connect 17 8 16 0;
#X connect 17 9 18 0;
#X restore 278 241 pd param routing;
#N canvas 483 429 525 388 midictl 1;
#X obj 35 272 outlet;
#N canvas 0 0 450 300 midictl 0;
#X obj 29 20 r \$0x/midibase;
#X obj 318 85 + 0;
#X obj 288 84 + 1;
#X obj 318 105 s \$0x/midi/freq;
#X obj 288 124 s \$0x/midi/mod;
#X obj 252 85 + 2;
#X obj 272 146 s \$0x/midi/pin/onoff;
#X obj 261 168 s \$0x/midi/pin/val;
#X obj 224 87 + 3;
#X text 6 278 send out controller number assignments;
#X obj 195 86 + 4;
#X obj 167 88 + 5;
#X obj 111 88 + 7;
#X obj 139 87 + 6;
#X obj 30 44 t f f f f f f f f f f f f f;
#X obj 219 190 s \$0x/midi/lin/onoff;
#X obj 208 213 s \$0x/midi/lin/val;
#X obj 190 232 s \$0x/midi/sin/onoff;
#X obj 177 255 s \$0x/midi/sin/val;
#X obj 84 88 + 8;
#X obj 57 89 + 9;
#X obj 66 131 s \$0x/midi/delay;
#X obj 35 153 s \$0x/midi/feedback;
#X connect 0 0 14 0;
#X connect 1 0 3 0;
#X connect 2 0 4 0;
#X connect 5 0 6 0;
#X connect 8 0 7 0;
#X connect 10 0 15 0;
#X connect 11 0 16 0;
#X connect 12 0 18 0;
#X connect 13 0 17 0;
#X connect 14 3 20 0;
#X connect 14 4 19 0;
#X connect 14 5 12 0;
#X connect 14 6 13 0;
#X connect 14 7 11 0;
#X connect 14 8 10 0;
#X connect 14 9 8 0;
#X connect 14 10 5 0;
#X connect 14 11 2 0;
#X connect 14 12 1 0;
#X connect 19 0 21 0;
#X connect 20 0 22 0;
#X restore 36 27 pd midictl dispatch;
#N canvas 58 275 295 296 freq 0;
#X msg 62 209 freq \$1;
#X obj 139 97 r \$0x/midi/freq;
#X obj 39 152 route set;
#X obj 39 125 nrpn_sync 1 500;
#X text 136 83 set cc#;
#X obj 39 15 r \$0x/freq/s;
#X obj 40 188 t b f b;
#X obj 39 95 spigot;
#X msg 68 69 0;
#X msg 100 61 1;
#X obj 99 38 loadbang;
#X obj 47 235 outlet;
#X connect 0 0 11 0;
#X connect 1 0 3 2;
#X connect 2 0 6 0;
#X connect 3 0 2 0;
#X connect 5 0 7 0;
#X connect 6 0 9 0;
#X connect 6 1 0 0;
#X connect 6 2 8 0;
#X connect 7 0 3 0;
#X connect 8 0 7 1;
#X connect 9 0 7 1;
#X connect 10 0 9 0;
#X restore 32 109 pd freq;
#N canvas 58 275 295 296 mod 0;
#X obj 39 152 route set;
#X obj 39 125 nrpn_sync 1 500;
#X text 136 83 set cc#;
#X obj 40 188 t b f b;
#X obj 39 95 spigot;
#X msg 68 69 0;
#X msg 100 61 1;
#X obj 99 38 loadbang;
#X obj 47 235 outlet;
#X obj 139 97 r \$0x/midi/mod;
#X obj 39 15 r \$0x/mod/s;
#X msg 61 209 mod \$1;
#X connect 0 0 3 0;
#X connect 1 0 0 0;
#X connect 3 0 6 0;
#X connect 3 1 11 0;
#X connect 3 2 5 0;
#X connect 4 0 1 0;
#X connect 5 0 4 1;
#X connect 6 0 4 1;
#X connect 7 0 6 0;
#X connect 9 0 1 2;
#X connect 10 0 4 0;
#X connect 11 0 8 0;
#X restore 87 109 pd mod;
#N canvas 54 494 516 389 pin 0;
#X obj 39 248 route set;
#X obj 39 221 nrpn_sync 1 500;
#X text 111 179 set cc#;
#X obj 40 284 t b f b;
#X obj 39 191 spigot;
#X msg 68 165 0;
#X msg 100 157 1;
#X obj 99 134 loadbang;
#X obj 61 353 outlet;
#X msg 61 305 pin \$1;
#X obj 39 15 r \$0x/pin/s;
#X obj 114 193 r \$0x/midi/pin/val;
#X obj 39 39 route float;
#X obj 260 54 onoff;
#X obj 261 76 * 127;
#X obj 262 250 route set;
#X obj 262 223 nrpn_sync 1 500;
#X text 359 181 set cc#;
#X obj 262 271 t b f b;
#X obj 262 193 spigot;
#X msg 291 167 0;
#X msg 323 159 1;
#X obj 322 136 loadbang;
#X obj 362 195 r \$0x/midi/pin/onoff;
#X obj 283 293 select 0;
#X msg 269 316 pin off;
#X msg 332 316 pin on;
#X connect 0 0 3 0;
#X connect 1 0 0 0;
#X connect 3 0 6 0;
#X connect 3 1 9 0;
#X connect 3 2 5 0;
#X connect 4 0 1 0;
#X connect 5 0 4 1;
#X connect 6 0 4 1;
#X connect 7 0 6 0;
#X connect 9 0 8 0;
#X connect 10 0 12 0;
#X connect 11 0 1 2;
#X connect 12 0 4 0;
#X connect 12 1 13 0;
#X connect 13 0 14 0;
#X connect 14 0 19 0;
#X connect 15 0 18 0;
#X connect 16 0 15 0;
#X connect 18 0 21 0;
#X connect 18 1 24 0;
#X connect 18 2 20 0;
#X connect 19 0 16 0;
#X connect 20 0 19 1;
#X connect 21 0 19 1;
#X connect 22 0 21 0;
#X connect 23 0 16 2;
#X connect 24 0 25 0;
#X connect 24 1 26 0;
#X connect 25 0 8 0;
#X connect 26 0 8 0;
#X restore 136 110 pd pin;
#N canvas 54 494 516 389 lin 0;
#X obj 39 248 route set;
#X obj 39 221 nrpn_sync 1 500;
#X text 111 179 set cc#;
#X obj 40 284 t b f b;
#X obj 39 191 spigot;
#X msg 68 165 0;
#X msg 100 157 1;
#X obj 99 134 loadbang;
#X obj 61 353 outlet;
#X obj 39 39 route float;
#X obj 260 54 onoff;
#X obj 261 76 * 127;
#X obj 262 250 route set;
#X obj 262 223 nrpn_sync 1 500;
#X text 359 181 set cc#;
#X obj 262 271 t b f b;
#X obj 262 193 spigot;
#X msg 291 167 0;
#X msg 323 159 1;
#X obj 322 136 loadbang;
#X obj 283 293 select 0;
#X obj 39 15 r \$0x/lin/s;
#X obj 362 195 r \$0x/midi/lin/onoff;
#X obj 115 195 r \$0x/midi/lin/val;
#X msg 269 316 lin off;
#X msg 332 316 lin on;
#X msg 61 305 lin \$1;
#X connect 0 0 3 0;
#X connect 1 0 0 0;
#X connect 3 0 6 0;
#X connect 3 1 26 0;
#X connect 3 2 5 0;
#X connect 4 0 1 0;
#X connect 5 0 4 1;
#X connect 6 0 4 1;
#X connect 7 0 6 0;
#X connect 9 0 4 0;
#X connect 9 1 10 0;
#X connect 10 0 11 0;
#X connect 11 0 16 0;
#X connect 12 0 15 0;
#X connect 13 0 12 0;
#X connect 15 0 18 0;
#X connect 15 1 20 0;
#X connect 15 2 17 0;
#X connect 16 0 13 0;
#X connect 17 0 16 1;
#X connect 18 0 16 1;
#X connect 19 0 18 0;
#X connect 20 0 24 0;
#X connect 20 1 25 0;
#X connect 21 0 9 0;
#X connect 22 0 13 2;
#X connect 23 0 1 2;
#X connect 24 0 8 0;
#X connect 25 0 8 0;
#X connect 26 0 8 0;
#X restore 183 109 pd lin;
#N canvas 54 494 516 389 sin 0;
#X obj 39 248 route set;
#X obj 39 221 nrpn_sync 1 500;
#X text 111 179 set cc#;
#X obj 40 284 t b f b;
#X obj 39 191 spigot;
#X msg 68 165 0;
#X msg 100 157 1;
#X obj 99 134 loadbang;
#X obj 61 353 outlet;
#X obj 39 39 route float;
#X obj 260 54 onoff;
#X obj 261 76 * 127;
#X obj 262 250 route set;
#X obj 262 223 nrpn_sync 1 500;
#X text 359 181 set cc#;
#X obj 262 271 t b f b;
#X obj 262 193 spigot;
#X msg 291 167 0;
#X msg 323 159 1;
#X obj 322 136 loadbang;
#X obj 283 293 select 0;
#X obj 39 15 r \$0x/sin/s;
#X obj 115 195 r \$0x/midi/sin/val;
#X obj 362 195 r \$0x/midi/sin/onoff;
#X msg 269 316 sin off;
#X msg 332 316 sin on;
#X msg 60 305 sin \$1;
#X connect 0 0 3 0;
#X connect 1 0 0 0;
#X connect 3 0 6 0;
#X connect 3 1 26 0;
#X connect 3 2 5 0;
#X connect 4 0 1 0;
#X connect 5 0 4 1;
#X connect 6 0 4 1;
#X connect 7 0 6 0;
#X connect 9 0 4 0;
#X connect 9 1 10 0;
#X connect 10 0 11 0;
#X connect 11 0 16 0;
#X connect 12 0 15 0;
#X connect 13 0 12 0;
#X connect 15 0 18 0;
#X connect 15 1 20 0;
#X connect 15 2 17 0;
#X connect 16 0 13 0;
#X connect 17 0 16 1;
#X connect 18 0 16 1;
#X connect 19 0 18 0;
#X connect 20 0 24 0;
#X connect 20 1 25 0;
#X connect 21 0 9 0;
#X connect 22 0 1 2;
#X connect 23 0 13 2;
#X connect 24 0 8 0;
#X connect 25 0 8 0;
#X connect 26 0 8 0;
#X restore 232 109 pd sin;
#N canvas 58 275 305 387 delay 0;
#X obj 40 210 route set;
#X obj 40 183 nrpn_sync 1 500;
#X text 136 83 set cc#;
#X obj 41 246 t b f b;
#X obj 41 95 spigot;
#X msg 68 69 0;
#X msg 100 61 1;
#X obj 99 38 loadbang;
#X obj 48 320 outlet;
#X obj 139 97 r \$0x/midi/delay;
#X obj 39 15 r \$0x/delay/s;
#X msg 63 294 delay \$1;
#X obj 65 270 range 0 500 0 2000;
#X obj 36 136 range 0 2000 0 500;
#X connect 0 0 3 0;
#X connect 1 0 0 0;
#X connect 3 0 6 0;
#X connect 3 1 12 0;
#X connect 3 2 5 0;
#X connect 4 0 13 0;
#X connect 5 0 4 1;
#X connect 6 0 4 1;
#X connect 7 0 6 0;
#X connect 9 0 1 2;
#X connect 10 0 4 0;
#X connect 11 0 8 0;
#X connect 12 0 11 0;
#X connect 13 0 1 0;
#X restore 281 109 pd delay;
#N canvas 58 275 299 352 feedback 0;
#X obj 39 213 route set;
#X obj 39 186 nrpn_sync 1 500;
#X text 136 83 set cc#;
#X obj 40 249 t b f b;
#X obj 39 95 spigot;
#X msg 68 69 0;
#X msg 100 61 1;
#X obj 99 38 loadbang;
#X obj 46 321 outlet;
#X obj 39 15 r \$0x/feedback/s;
#X obj 139 97 r \$0x/midi/feedback;
#X msg 57 300 feedback \$1;
#X obj 61 274 range 0 500 0 1;
#X obj 32 140 range 0 1 0 500;
#X connect 0 0 3 0;
#X connect 1 0 0 0;
#X connect 3 0 6 0;
#X connect 3 1 12 0;
#X connect 3 2 5 0;
#X connect 4 0 13 0;
#X connect 5 0 4 1;
#X connect 6 0 4 1;
#X connect 7 0 6 0;
#X connect 9 0 4 0;
#X connect 10 0 1 2;
#X connect 11 0 8 0;
#X connect 12 0 11 0;
#X connect 13 0 1 0;
#X restore 294 132 pd feedback;
#X connect 2 0 0 0;
#X connect 3 0 0 0;
#X connect 4 0 0 0;
#X connect 5 0 0 0;
#X connect 6 0 0 0;
#X connect 7 0 0 0;
#X connect 8 0 0 0;
#X restore 328 213 pd midictl;
#X obj 35 221 r \$0x/mod/s;
#X connect 2 0 1 0;
#X connect 5 0 2 0;
#X connect 6 0 2 2;
#X connect 7 0 2 3;
#X connect 8 0 2 4;
#X connect 9 0 2 5;
#X connect 10 0 2 6;
#X connect 34 0 35 0;
#X connect 36 0 35 0;
#X connect 37 0 2 1;
#X coords 0 -1 1 1 262 157 1 20 25;
