#N canvas 46 54 669 561 10;
#X obj 66 436 dac~;
#X obj 65 267 caradisio~ 200 0.3;
#X obj 66 390 *~;
#X obj 97 390 hsl 128 15 0 1 0 0 empty empty empty -2 -6 0 8 -262075
-1 -1 5000 1;
#X floatatom 94 407 5 0 0 0 - - -;
#X obj 234 388 *~;
#X obj 265 388 hsl 128 15 0 1 0 0 empty empty empty -2 -6 0 8 -262075
-1 -1 6800 1;
#X floatatom 262 405 5 0 0 0 - - -;
#X floatatom 117 193 5 0 0 0 - - -;
#X msg 100 153 start;
#X msg 108 172 stop;
#X floatatom 61 188 5 0 0 0 - - -;
#X floatatom 20 188 5 0 0 0 - - -;
#X floatatom 175 193 5 0 0 0 - - -;
#X msg 158 153 start;
#X msg 166 172 stop;
#X floatatom 227 194 5 0 0 0 - - -;
#X msg 210 154 start;
#X msg 218 173 stop;
#X floatatom 189 240 5 0 0 0 - - -;
#X floatatom 232 240 5 0 0 0 - - -;
#X text 106 134 pin;
#X text 161 135 lin;
#X text 213 136 sin;
#X text 232 224 feedback;
#X text 190 225 delay;
#X text 20 171 freq;
#X text 56 174 mod;
#X obj 347 170 caradisio2~;
#X text 447 327 caradisio2~ - graphical;
#X msg 374 65 pin on;
#X msg 373 46 pin \$1;
#X floatatom 313 12 5 0 0 0 - - -;
#X msg 313 29 mod \$1;
#X floatatom 373 29 5 0 0 0 - - -;
#X floatatom 512 112 5 0 0 0 - - -;
#X msg 572 130 feed \$1;
#X floatatom 572 113 5 0 0 0 - - -;
#X msg 512 130 del \$1;
#X msg 563 53 midibase 52;
#X floatatom 253 12 5 0 0 0 - - -;
#X msg 253 29 freq \$1;
#X msg 374 84 pin off;
#X floatatom 434 30 5 0 0 0 - - -;
#X floatatom 495 30 5 0 0 0 - - -;
#X msg 434 47 lin \$1;
#X msg 495 47 sin \$1;
#X msg 496 66 sin on;
#X msg 496 85 sin off;
#X msg 435 85 lin off;
#X msg 435 66 lin on;
#X text 134 484 caradisio~ :: by jason plumb :: noisybox.net;
#N canvas 0 0 451 196 midi 0;
#X text 18 17 Note: Sending a "midibase <n>" message into the graphical
inlet will set up the caradisio to start handling midi messages from
controllers ranging from <n> to <n>+10.;
#X text 20 92 All controllers should be using NRPN (14-bit) format.
The range is currently coded inside the patch and cannot be changed
\, and the nrpn values should range from 0 to 500;
#X restore 563 30 pd midi info;
#X connect 1 0 2 0;
#X connect 2 0 0 0;
#X connect 2 0 0 1;
#X connect 3 0 4 0;
#X connect 3 0 2 1;
#X connect 5 0 0 0;
#X connect 5 0 0 1;
#X connect 6 0 7 0;
#X connect 6 0 5 1;
#X connect 8 0 1 2;
#X connect 9 0 1 2;
#X connect 10 0 1 2;
#X connect 11 0 1 1;
#X connect 12 0 1 0;
#X connect 13 0 1 3;
#X connect 14 0 1 3;
#X connect 15 0 1 3;
#X connect 16 0 1 4;
#X connect 17 0 1 4;
#X connect 18 0 1 4;
#X connect 19 0 1 5;
#X connect 20 0 1 6;
#X connect 28 0 5 0;
#X connect 30 0 28 0;
#X connect 31 0 28 0;
#X connect 32 0 33 0;
#X connect 33 0 28 0;
#X connect 34 0 31 0;
#X connect 35 0 38 0;
#X connect 36 0 28 0;
#X connect 37 0 36 0;
#X connect 38 0 28 0;
#X connect 39 0 28 0;
#X connect 40 0 41 0;
#X connect 41 0 28 0;
#X connect 42 0 28 0;
#X connect 43 0 45 0;
#X connect 44 0 46 0;
#X connect 45 0 28 0;
#X connect 46 0 28 0;
#X connect 47 0 28 0;
#X connect 48 0 28 0;
#X connect 49 0 28 0;
#X connect 50 0 28 0;
