#N canvas 18 602 325 288 10;
#X obj 26 33 inlet~;
#X obj 28 252 outlet~;
#X obj 92 34 inlet;
#X obj 157 46 loadbang;
#X obj 27 224 *~;
#X obj 135 197 /;
#X obj 92 140 / 100;
#X obj 59 168 * -1;
#X obj 27 190 clip~ -1 1;
#X text 21 16 audio;
#X text 79 224 clips audio signal at certain amount and then maxes
it back out;
#X text 88 17 level (0-100);
#X obj 157 71 \$1;
#X obj 160 133 t b f;
#X obj 135 160 100;
#X obj 92 94 clip 0 100;
#X connect 0 0 8 0;
#X connect 2 0 15 0;
#X connect 3 0 12 0;
#X connect 4 0 1 0;
#X connect 5 0 4 1;
#X connect 6 0 7 0;
#X connect 6 0 8 2;
#X connect 7 0 8 1;
#X connect 8 0 4 0;
#X connect 12 0 15 0;
#X connect 13 0 14 0;
#X connect 13 1 5 1;
#X connect 14 0 5 0;
#X connect 15 0 6 0;
#X connect 15 0 13 0;
