#N canvas 553 6 602 344 10;
#X obj 17 7 table \$0_lt;
#X obj 17 26 table \$0_rt;
#X obj 28 56 symbol \$0_lt;
#N canvas 612 15 419 298 table_resizing 0;
#X text 189 20 time in ms;
#X obj 191 81 * 48;
#X obj 191 36 inlet;
#X obj 192 105 * 2;
#X text 224 81 48khz;
#X text 223 104 double length for overlap;
#X msg 192 147 bang;
#X obj 88 181 symbol \$0_lt;
#X obj 191 180 symbol \$0_rt;
#X obj 37 221 pack f s;
#X msg 37 241 \; \$2 resize \$1;
#X obj 140 221 pack f s;
#X msg 140 241 \; \$2 resize \$1;
#X connect 1 0 3 0;
#X connect 2 0 1 0;
#X connect 3 0 6 0;
#X connect 3 0 9 0;
#X connect 3 0 11 0;
#X connect 6 0 7 0;
#X connect 6 0 8 0;
#X connect 7 0 9 1;
#X connect 8 0 11 1;
#X connect 9 0 10 0;
#X connect 11 0 12 0;
#X restore 229 122 pd table_resizing;
#X floatatom 208 100 5 0 0 0 - - -;
#X obj 168 16 loadbang;
#X obj 118 56 symbol \$0_rt;
#N canvas 680 494 409 408 overlapwriting 0;
#X obj 146 11 inlet;
#X obj 191 331 inlet~;
#X obj 11 369 tabwrite~;
#X msg 11 326 set \$1;
#X obj 11 304 pack s;
#X msg 146 72 bang;
#X obj 104 368 tabwrite~;
#X msg 104 325 set \$1;
#X obj 104 303 pack s;
#X obj 253 247 metro;
#X obj 298 246 delay;
#X obj 255 193 loadbang;
#X obj 276 370 outlet;
#X obj 104 108 symbol \$0_rt;
#X obj 11 107 symbol \$0_lt;
#X text 192 347 audio in;
#X text 188 11 t (in ms);
#X obj 279 10 inlet;
#X text 286 27 start/stop;
#X obj 279 48 select 1;
#X msg 329 70 stop;
#X msg 279 72 bang;
#X obj 284 141 * 2;
#X connect 0 0 5 0;
#X connect 0 0 10 1;
#X connect 0 0 22 0;
#X connect 1 0 2 0;
#X connect 1 0 6 0;
#X connect 3 0 2 0;
#X connect 4 0 3 0;
#X connect 5 0 13 0;
#X connect 5 0 14 0;
#X connect 7 0 6 0;
#X connect 8 0 7 0;
#X connect 9 0 2 0;
#X connect 9 0 12 0;
#X connect 9 0 10 0;
#X connect 10 0 6 0;
#X connect 11 0 9 0;
#X connect 13 0 8 0;
#X connect 14 0 4 0;
#X connect 17 0 19 0;
#X connect 19 0 21 0;
#X connect 19 1 20 0;
#X connect 20 0 2 0;
#X connect 20 0 6 0;
#X connect 20 0 9 0;
#X connect 21 0 9 0;
#X connect 22 0 9 1;
#X restore 208 146 pd overlapwriting;
#X obj 207 56 delay 1;
#X obj 323 12 inlet~;
#X obj 400 12 inlet;
#X obj 208 77 \$1;
#X obj 28 171 outlet;
#X obj 118 172 outlet;
#X obj 208 174 outlet;
#X text 10 223 ctable :: continuous table;
#X text 328 28 audio;
#X text 398 27 min_time;
#X text 8 295 guarantees that there is always a continuous block of
length "min_time" available.;
#X text 254 170 phase start;
#X text 9 249 provides two overlapping tables to which audio can be
continuously and cyclically written.;
#X text 10 236 by jason plumb :: noisybox.net;
#X obj 471 13 inlet;
#X text 474 28 active;
#X floatatom 374 145 5 0 0 0 - - -;
#X text 471 39 bang \, 0 \, or 1;
#X text 471 50 comment;
#X text 469 63 (bang toggles);
#X text 21 188 t1 symbol;
#X text 110 188 t2 symbol;
#N canvas 681 599 296 303 onofftoggler 0;
#X msg 14 71 bang;
#X msg 107 104 0;
#X msg 73 105 1;
#X obj 46 191 select 1;
#X obj 46 164 f;
#X obj 54 72 loadbang;
#X obj 26 252 outlet;
#X msg 97 220 0;
#X msg 26 220 1;
#X obj 14 6 inlet;
#X obj 14 43 route bang float;
#X obj 121 72 select 1;
#X connect 0 0 4 0;
#X connect 1 0 4 1;
#X connect 2 0 4 1;
#X connect 3 0 8 0;
#X connect 3 1 7 0;
#X connect 4 0 3 0;
#X connect 5 0 2 0;
#X connect 5 0 8 0;
#X connect 7 0 6 0;
#X connect 7 0 2 0;
#X connect 8 0 6 0;
#X connect 8 0 1 0;
#X connect 9 0 10 0;
#X connect 10 0 0 0;
#X connect 10 1 11 0;
#X connect 11 0 8 0;
#X connect 11 1 7 0;
#X restore 366 123 pd onofftoggler;
#X connect 2 0 12 0;
#X connect 4 0 3 0;
#X connect 4 0 7 0;
#X connect 5 0 2 0;
#X connect 5 0 6 0;
#X connect 5 0 8 0;
#X connect 6 0 13 0;
#X connect 7 0 14 0;
#X connect 8 0 11 0;
#X connect 9 0 7 1;
#X connect 10 0 4 0;
#X connect 11 0 4 0;
#X connect 22 0 30 0;
#X connect 30 0 24 0;
#X connect 30 0 7 2;
