#N canvas 450 207 742 951 10;
#X obj 186 30 inlet;
#X obj 87 287 outlet;
#X text 42 346 an external control.;
#X text 40 410 jason plumb :: noisybox.net;
#X text 123 13 input from pd ctrl;
#X obj 73 215 change;
#X text 43 322 midi helper to keep a;
#X text 41 363 creation arg 1 = midi controller number;
#X text 41 376 creation arg 2 = midi channel number;
#X text 38 66 assume 0 \, 127 input and 0 \, 1 output;
#X text 42 334 pd UI toggle control synchronized with;
#X obj 73 237 select 0;
#X obj 185 186 select 0;
#X msg 185 210 0;
#X msg 222 209 127;
#X msg 73 260 0;
#X msg 110 259 1;
#X obj 187 237 change;
#X obj 187 286 ctlout \$1;
#X obj 73 100 ctlin \$1;
#X obj 300 32 inlet;
#X text 306 50 channel;
#X obj 93 128 select -1;
#X msg 93 157 1;
#X msg 131 156 0;
#X obj 73 183 spigot;
#X obj 272 260 print 2ctl;
#X obj 272 287 print 2ui;
#X connect 0 0 12 0;
#X connect 5 0 11 0;
#X connect 5 0 27 0;
#X connect 11 0 15 0;
#X connect 11 1 16 0;
#X connect 12 0 13 0;
#X connect 12 1 14 0;
#X connect 13 0 5 0;
#X connect 13 0 17 0;
#X connect 14 0 5 0;
#X connect 14 0 17 0;
#X connect 15 0 1 0;
#X connect 16 0 1 0;
#X connect 17 0 18 0;
#X connect 17 0 26 0;
#X connect 19 0 25 0;
#X connect 19 1 22 0;
#X connect 20 0 18 2;
#X connect 20 0 22 1;
#X connect 22 0 23 0;
#X connect 22 1 24 0;
#X connect 23 0 25 1;
#X connect 24 0 25 1;
#X connect 25 0 5 0;
