#N canvas 629 14 379 300 10;
#X obj 37 73 ctlin;
#X obj 131 65 \$1;
#X obj 74 107 select;
#X obj 37 186 spigot;
#X msg 111 131 0;
#X msg 74 132 1;
#X obj 131 43 loadbang;
#X obj 111 19 inlet;
#X obj 37 257 outlet;
#X text 99 249 like ctlin \, but configurable;
#X text 100 261 jason plumb :: noisybox.net;
#X obj 37 233 spigot;
#X msg 168 145 1;
#X obj 168 66 \$2;
#X obj 218 19 inlet;
#X text 95 2 controller;
#X text 221 1 chan;
#X obj 168 93 select 0;
#X obj 161 169 spigot;
#X msg 198 145 0;
#X obj 168 117 t b b;
#X msg 229 145 1;
#X obj 161 190 select;
#X obj 219 116 t b f;
#X msg 198 211 0;
#X msg 161 210 1;
#X text 220 39 0 for omni;
#X connect 0 0 3 0;
#X connect 0 1 2 0;
#X connect 0 2 18 0;
#X connect 1 0 2 1;
#X connect 2 0 5 0;
#X connect 2 1 4 0;
#X connect 3 0 11 0;
#X connect 4 0 3 1;
#X connect 5 0 3 1;
#X connect 6 0 1 0;
#X connect 6 0 13 0;
#X connect 7 0 2 1;
#X connect 11 0 8 0;
#X connect 12 0 11 1;
#X connect 13 0 17 0;
#X connect 14 0 17 0;
#X connect 17 0 20 0;
#X connect 17 1 23 0;
#X connect 18 0 22 0;
#X connect 19 0 18 1;
#X connect 20 0 12 0;
#X connect 20 1 19 0;
#X connect 21 0 18 1;
#X connect 22 0 25 0;
#X connect 22 1 24 0;
#X connect 23 0 21 0;
#X connect 23 1 22 1;
#X connect 24 0 11 1;
#X connect 25 0 11 1;
