#N canvas 74 80 704 910 10;
#X msg 84 238 set \$1;
#X obj 110 30 inlet;
#X obj 85 305 outlet;
#X obj 185 31 inlet;
#X text 34 354 an external control.;
#X text 32 418 jason plumb :: noisybox.net;
#X text 47 13 input from pd ctrl;
#X text 192 15 max value limit;
#X obj 179 211 change;
#X msg 179 231 range 0 \$1;
#X text 34 342 pd UI control synchronized with;
#X obj 83 193 t f b;
#X obj 185 52 t f f b f;
#X obj 179 189 f \$2;
#X text 35 330 midi helper to keep a;
#X text 33 371 creation arg 1 = midi controller number;
#X text 33 396 creation arg 3 = max controller value;
#X obj 235 147 clip 0 \$3;
#X text 33 384 creation arg 2 = midi channel number;
#X obj 52 156 ctlin \$1 \$2;
#X obj 235 172 ctlout \$1 \$2;
#X obj 84 214 clip 0 \$3;
#X connect 0 0 2 0;
#X connect 1 0 17 0;
#X connect 3 0 12 0;
#X connect 8 0 9 0;
#X connect 9 0 2 0;
#X connect 11 0 21 0;
#X connect 11 1 13 0;
#X connect 12 0 21 2;
#X connect 12 1 17 2;
#X connect 12 2 13 0;
#X connect 12 3 13 1;
#X connect 13 0 8 0;
#X connect 17 0 20 0;
#X connect 19 0 11 0;
#X connect 21 0 0 0;
