#N canvas 74 80 704 910 10;
#X msg 84 238 set \$1;
#X obj 110 30 inlet;
#X obj 85 305 outlet;
#X text 34 354 an external control.;
#X text 34 399 jason plumb :: noisybox.net;
#X text 47 13 input from pd ctrl;
#X obj 179 211 change;
#X msg 179 231 range 0 \$1;
#X obj 83 193 t f b;
#X obj 179 189 f \$2;
#X text 35 330 midi helper to keep a;
#X text 33 371 creation arg 1 = midi controller number;
#X obj 235 147 clip 0 \$3;
#X text 33 384 creation arg 2 = midi channel number;
#X obj 52 156 ctlin \$1 \$2;
#X obj 235 172 ctlout \$1 \$2;
#X obj 84 214 clip 0 \$3;
#X text 34 342 pd toggle synchronized with;
#X connect 0 0 2 0;
#X connect 1 0 12 0;
#X connect 6 0 7 0;
#X connect 7 0 2 0;
#X connect 8 0 16 0;
#X connect 8 1 9 0;
#X connect 9 0 6 0;
#X connect 12 0 15 0;
#X connect 14 0 8 0;
#X connect 16 0 0 0;
