#N canvas 297 248 438 311 10;
#X obj 47 21 inlet~;
#X obj 74 239 dline~ \$1 \$2;
#X obj 136 24 inlet;
#X obj 185 23 inlet;
#X obj 75 268 outlet~;
#X obj 185 49 moses 1;
#X obj 231 78 t f b;
#X obj 47 208 *~ 1;
#X obj 151 158 line;
#X obj 145 76 t f b;
#X msg 183 112 0 50;
#X msg 139 110 1 50;
#X connect 0 0 7 0;
#X connect 1 0 4 0;
#X connect 2 0 1 1;
#X connect 3 0 5 0;
#X connect 5 0 9 0;
#X connect 5 1 6 0;
#X connect 6 0 1 2;
#X connect 6 1 10 0;
#X connect 7 0 1 0;
#X connect 8 0 7 1;
#X connect 9 0 1 2;
#X connect 9 1 11 0;
#X connect 10 0 8 0;
#X connect 11 0 8 0;
