#N canvas 678 519 628 478 10;
#N canvas 1136 112 391 354 rows 0;
#X obj 25 86 env~ 1000;
#X obj 32 106 - 97;
#X msg 69 147 1;
#X obj 143 15 inlet~;
#X obj 179 314 outlet;
#X obj 110 87 env~ 1000;
#X obj 117 107 - 97;
#X obj 191 87 env~ 1000;
#X obj 198 107 - 97;
#X obj 275 87 env~ 1000;
#X obj 282 107 - 97;
#X obj 282 127 moses 0;
#X obj 198 127 moses 0;
#X obj 117 127 moses 0;
#X obj 32 126 moses 0;
#X obj 30 241 pack f f;
#X msg 30 219 1;
#X msg 23 147 0;
#X obj 30 173 change;
#X obj 110 67 bp~ 770 16;
#X obj 191 67 bp~ 852 16;
#X obj 274 67 bp~ 941 16;
#X obj 30 196 t b f;
#X msg 157 148 1;
#X obj 118 242 pack f f;
#X msg 111 148 0;
#X obj 118 174 change;
#X obj 118 197 t b f;
#X msg 241 149 1;
#X obj 202 243 pack f f;
#X msg 195 149 0;
#X obj 202 175 change;
#X obj 202 198 t b f;
#X msg 330 149 1;
#X obj 291 243 pack f f;
#X msg 284 149 0;
#X obj 291 175 change;
#X obj 291 198 t b f;
#X msg 118 220 2;
#X msg 202 221 3;
#X msg 291 221 4;
#X floatatom 19 309 5 0 0 0 - - -, f 5;
#X obj 25 66 bp~ 697 16;
#X obj 76 335 print;
#X obj 72 305 change;
#X obj 233 13 inlet;
#X text 273 13 Q;
#X connect 0 0 1 0;
#X connect 1 0 14 0;
#X connect 1 0 41 0;
#X connect 1 0 44 0;
#X connect 2 0 18 0;
#X connect 3 0 19 0;
#X connect 3 0 20 0;
#X connect 3 0 21 0;
#X connect 3 0 42 0;
#X connect 5 0 6 0;
#X connect 6 0 13 0;
#X connect 7 0 8 0;
#X connect 8 0 12 0;
#X connect 9 0 10 0;
#X connect 10 0 11 0;
#X connect 11 0 35 0;
#X connect 11 1 33 0;
#X connect 12 0 30 0;
#X connect 12 1 28 0;
#X connect 13 0 25 0;
#X connect 13 1 23 0;
#X connect 14 0 17 0;
#X connect 14 1 2 0;
#X connect 15 0 4 0;
#X connect 16 0 15 0;
#X connect 17 0 18 0;
#X connect 18 0 22 0;
#X connect 19 0 5 0;
#X connect 20 0 7 0;
#X connect 21 0 9 0;
#X connect 22 0 16 0;
#X connect 22 1 15 1;
#X connect 23 0 26 0;
#X connect 24 0 4 0;
#X connect 25 0 26 0;
#X connect 26 0 27 0;
#X connect 27 0 38 0;
#X connect 27 1 24 1;
#X connect 28 0 31 0;
#X connect 29 0 4 0;
#X connect 30 0 31 0;
#X connect 31 0 32 0;
#X connect 32 0 39 0;
#X connect 32 1 29 1;
#X connect 33 0 36 0;
#X connect 34 0 4 0;
#X connect 35 0 36 0;
#X connect 36 0 37 0;
#X connect 37 0 40 0;
#X connect 37 1 34 1;
#X connect 38 0 24 0;
#X connect 39 0 29 0;
#X connect 40 0 34 0;
#X connect 42 0 0 0;
#X connect 45 0 20 2;
#X connect 45 0 21 2;
#X connect 45 0 19 2;
#X connect 45 0 42 2;
#X restore 59 214 pd rows;
#N canvas 1134 539 391 354 cols 0;
#X obj 25 86 env~ 1000;
#X obj 32 106 - 97;
#X msg 69 147 1;
#X obj 143 15 inlet~;
#X obj 179 314 outlet;
#X obj 110 87 env~ 1000;
#X obj 117 107 - 97;
#X obj 191 87 env~ 1000;
#X obj 198 107 - 97;
#X obj 275 87 env~ 1000;
#X obj 282 107 - 97;
#X obj 282 127 moses 0;
#X obj 198 127 moses 0;
#X obj 117 127 moses 0;
#X obj 32 126 moses 0;
#X obj 30 241 pack f f;
#X msg 30 219 1;
#X msg 23 147 0;
#X obj 30 173 change;
#X obj 30 196 t b f;
#X msg 157 148 1;
#X obj 118 242 pack f f;
#X msg 111 148 0;
#X obj 118 174 change;
#X obj 118 197 t b f;
#X msg 241 149 1;
#X obj 202 243 pack f f;
#X msg 195 149 0;
#X obj 202 175 change;
#X obj 202 198 t b f;
#X msg 330 149 1;
#X obj 291 243 pack f f;
#X msg 284 149 0;
#X obj 291 175 change;
#X obj 291 198 t b f;
#X msg 118 220 2;
#X msg 202 221 3;
#X msg 291 221 4;
#X obj 25 66 bp~ 1209 16;
#X obj 110 67 bp~ 1336 16;
#X obj 190 67 bp~ 1477 16;
#X obj 274 67 bp~ 1633 16;
#X obj 233 13 inlet;
#X text 273 13 Q;
#X connect 0 0 1 0;
#X connect 1 0 14 0;
#X connect 2 0 18 0;
#X connect 3 0 38 0;
#X connect 3 0 39 0;
#X connect 3 0 40 0;
#X connect 3 0 41 0;
#X connect 5 0 6 0;
#X connect 6 0 13 0;
#X connect 7 0 8 0;
#X connect 8 0 12 0;
#X connect 9 0 10 0;
#X connect 10 0 11 0;
#X connect 11 0 32 0;
#X connect 11 1 30 0;
#X connect 12 0 27 0;
#X connect 12 1 25 0;
#X connect 13 0 22 0;
#X connect 13 1 20 0;
#X connect 14 0 17 0;
#X connect 14 1 2 0;
#X connect 15 0 4 0;
#X connect 16 0 15 0;
#X connect 17 0 18 0;
#X connect 18 0 19 0;
#X connect 19 0 16 0;
#X connect 19 1 15 1;
#X connect 20 0 23 0;
#X connect 21 0 4 0;
#X connect 22 0 23 0;
#X connect 23 0 24 0;
#X connect 24 0 35 0;
#X connect 24 1 21 1;
#X connect 25 0 28 0;
#X connect 26 0 4 0;
#X connect 27 0 28 0;
#X connect 28 0 29 0;
#X connect 29 0 36 0;
#X connect 29 1 26 1;
#X connect 30 0 33 0;
#X connect 31 0 4 0;
#X connect 32 0 33 0;
#X connect 33 0 34 0;
#X connect 34 0 37 0;
#X connect 34 1 31 1;
#X connect 35 0 21 0;
#X connect 36 0 26 0;
#X connect 37 0 31 0;
#X connect 38 0 0 0;
#X connect 39 0 5 0;
#X connect 40 0 7 0;
#X connect 41 0 9 0;
#X connect 42 0 40 2;
#X connect 42 0 41 2;
#X connect 42 0 39 2;
#X connect 42 0 38 2;
#X restore 124 215 pd cols;
#N canvas 413 416 701 507 matrix_decode 0;
#X obj 67 23 inlet;
#X text 65 5 row;
#X obj 296 21 inlet;
#X text 294 3 col;
#X obj 67 49 route 1 2 3 4;
#X obj 61 122 f;
#X obj 100 121 f;
#X obj 136 121 f;
#X obj 174 121 f;
#X text 68 141 1;
#X text 104 141 2;
#X text 141 139 3;
#X text 177 139 4;
#X obj 44 87 t b f;
#X obj 88 87 t b f;
#X obj 130 88 t b f;
#X obj 174 88 t b f;
#X obj 344 53 route 1 2 3 4;
#X obj 335 128 f;
#X obj 374 127 f;
#X obj 410 127 f;
#X obj 448 127 f;
#X text 342 147 1;
#X text 378 147 2;
#X text 415 145 3;
#X text 451 145 4;
#X obj 321 91 t b f;
#X obj 365 91 t b f;
#X obj 407 92 t b f;
#X obj 451 92 t b f;
#X obj 251 432 outlet;
#N canvas 752 606 354 295 r1 0;
#X obj 39 101 &&;
#X obj 38 145 t b f;
#X msg 38 165 1;
#X obj 100 145 t b f;
#X obj 95 184 pack f f;
#X msg 100 165 2;
#X obj 162 145 t b f;
#X obj 157 184 pack f f;
#X obj 224 145 t b f;
#X obj 35 25 inlet;
#X text 73 22 row;
#X obj 232 24 inlet;
#X text 271 22 cols;
#X obj 231 51 route 1 2 3 4;
#X msg 162 165 3;
#X msg 224 165 A;
#X obj 104 264 outlet;
#X obj 32 183 pack f f;
#X obj 97 100 &&;
#X obj 38 123 change;
#X obj 96 122 change;
#X obj 161 98 &&;
#X obj 219 97 &&;
#X obj 160 120 change;
#X obj 218 119 change;
#X obj 251 208 pack s f;
#X obj 224 185 t a;
#X obj 249 229 list trim;
#X connect 0 0 19 0;
#X connect 1 0 2 0;
#X connect 1 1 17 1;
#X connect 2 0 17 0;
#X connect 3 0 5 0;
#X connect 3 1 4 1;
#X connect 4 0 16 0;
#X connect 5 0 4 0;
#X connect 6 0 14 0;
#X connect 6 1 7 1;
#X connect 7 0 16 0;
#X connect 8 0 15 0;
#X connect 8 1 25 1;
#X connect 9 0 0 0;
#X connect 9 0 18 0;
#X connect 9 0 21 0;
#X connect 9 0 22 0;
#X connect 11 0 13 0;
#X connect 13 0 0 1;
#X connect 13 1 18 1;
#X connect 13 2 21 1;
#X connect 13 3 22 1;
#X connect 14 0 7 0;
#X connect 15 0 26 0;
#X connect 17 0 16 0;
#X connect 18 0 20 0;
#X connect 19 0 1 0;
#X connect 20 0 3 0;
#X connect 21 0 23 0;
#X connect 22 0 24 0;
#X connect 23 0 6 0;
#X connect 24 0 8 0;
#X connect 25 0 27 0;
#X connect 26 0 25 0;
#X connect 27 0 16 0;
#X restore 48 274 pd r1;
#N canvas 752 598 361 325 r2 0;
#X obj 39 101 &&;
#X obj 38 145 t b f;
#X obj 100 145 t b f;
#X obj 95 184 pack f f;
#X obj 162 145 t b f;
#X obj 157 184 pack f f;
#X obj 224 145 t b f;
#X obj 35 25 inlet;
#X text 73 22 row;
#X obj 232 24 inlet;
#X text 271 22 cols;
#X obj 231 51 route 1 2 3 4;
#X obj 105 271 outlet;
#X obj 32 183 pack f f;
#X obj 97 100 &&;
#X obj 38 123 change;
#X obj 96 122 change;
#X obj 161 98 &&;
#X obj 219 97 &&;
#X obj 160 120 change;
#X obj 218 119 change;
#X obj 251 208 pack s f;
#X msg 224 165 B;
#X msg 38 165 4;
#X msg 100 165 5;
#X msg 162 165 6;
#X obj 225 185 t a;
#X obj 243 232 list trim;
#X connect 0 0 15 0;
#X connect 1 0 23 0;
#X connect 1 1 13 1;
#X connect 2 0 24 0;
#X connect 2 1 3 1;
#X connect 3 0 12 0;
#X connect 4 0 25 0;
#X connect 4 1 5 1;
#X connect 5 0 12 0;
#X connect 6 0 22 0;
#X connect 6 1 21 1;
#X connect 7 0 0 0;
#X connect 7 0 14 0;
#X connect 7 0 17 0;
#X connect 7 0 18 0;
#X connect 9 0 11 0;
#X connect 11 0 0 1;
#X connect 11 1 14 1;
#X connect 11 2 17 1;
#X connect 11 3 18 1;
#X connect 13 0 12 0;
#X connect 14 0 16 0;
#X connect 15 0 1 0;
#X connect 16 0 2 0;
#X connect 17 0 19 0;
#X connect 18 0 20 0;
#X connect 19 0 4 0;
#X connect 20 0 6 0;
#X connect 21 0 27 0;
#X connect 22 0 26 0;
#X connect 23 0 13 0;
#X connect 24 0 3 0;
#X connect 25 0 5 0;
#X connect 26 0 21 0;
#X connect 27 0 12 0;
#X restore 89 275 pd r2;
#N canvas 754 608 355 319 r3 0;
#X obj 39 101 &&;
#X obj 38 145 t b f;
#X obj 100 145 t b f;
#X obj 95 184 pack f f;
#X obj 162 145 t b f;
#X obj 157 184 pack f f;
#X obj 224 145 t b f;
#X obj 35 25 inlet;
#X text 73 22 row;
#X obj 232 24 inlet;
#X text 271 22 cols;
#X obj 231 51 route 1 2 3 4;
#X obj 105 280 outlet;
#X obj 32 183 pack f f;
#X obj 97 100 &&;
#X obj 38 123 change;
#X obj 96 122 change;
#X obj 161 98 &&;
#X obj 219 97 &&;
#X obj 160 120 change;
#X obj 218 119 change;
#X obj 251 208 pack s f;
#X msg 38 165 7;
#X msg 100 165 8;
#X msg 162 165 9;
#X msg 224 165 C;
#X obj 224 185 t a;
#X obj 243 234 list trim;
#X connect 0 0 15 0;
#X connect 1 0 22 0;
#X connect 1 1 13 1;
#X connect 2 0 23 0;
#X connect 2 1 3 1;
#X connect 3 0 12 0;
#X connect 4 0 24 0;
#X connect 4 1 5 1;
#X connect 5 0 12 0;
#X connect 6 0 25 0;
#X connect 6 1 21 1;
#X connect 7 0 0 0;
#X connect 7 0 14 0;
#X connect 7 0 17 0;
#X connect 7 0 18 0;
#X connect 9 0 11 0;
#X connect 11 0 0 1;
#X connect 11 1 14 1;
#X connect 11 2 17 1;
#X connect 11 3 18 1;
#X connect 13 0 12 0;
#X connect 14 0 16 0;
#X connect 15 0 1 0;
#X connect 16 0 2 0;
#X connect 17 0 19 0;
#X connect 18 0 20 0;
#X connect 19 0 4 0;
#X connect 20 0 6 0;
#X connect 21 0 27 0;
#X connect 22 0 13 0;
#X connect 23 0 3 0;
#X connect 24 0 5 0;
#X connect 25 0 26 0;
#X connect 26 0 21 0;
#X connect 27 0 12 0;
#X restore 131 274 pd r3;
#N canvas 748 577 362 383 r4 0;
#X obj 39 101 &&;
#X obj 38 145 t b f;
#X obj 100 145 t b f;
#X obj 95 184 pack f f;
#X obj 162 145 t b f;
#X obj 224 145 t b f;
#X obj 35 25 inlet;
#X text 73 22 row;
#X obj 232 24 inlet;
#X text 271 22 cols;
#X obj 231 51 route 1 2 3 4;
#X obj 107 324 outlet;
#X obj 97 100 &&;
#X obj 38 123 change;
#X obj 96 122 change;
#X obj 161 98 &&;
#X obj 219 97 &&;
#X obj 160 120 change;
#X obj 218 119 change;
#X obj 251 208 pack s f;
#X msg 38 165 *;
#X msg 100 165 0;
#X msg 162 165 #;
#X msg 230 165 D;
#X obj 34 216 pack s f;
#X obj 160 211 pack s f;
#X obj 224 185 t a;
#X obj 161 186 t a;
#X obj 32 191 t a;
#X obj 250 234 list trim;
#X obj 35 242 list trim;
#X obj 162 233 list trim;
#X connect 0 0 13 0;
#X connect 1 0 20 0;
#X connect 1 1 24 1;
#X connect 2 0 21 0;
#X connect 2 1 3 1;
#X connect 3 0 11 0;
#X connect 4 0 22 0;
#X connect 4 1 25 1;
#X connect 5 0 23 0;
#X connect 5 1 19 1;
#X connect 6 0 0 0;
#X connect 6 0 12 0;
#X connect 6 0 15 0;
#X connect 6 0 16 0;
#X connect 8 0 10 0;
#X connect 10 0 0 1;
#X connect 10 1 12 1;
#X connect 10 2 15 1;
#X connect 10 3 16 1;
#X connect 12 0 14 0;
#X connect 13 0 1 0;
#X connect 14 0 2 0;
#X connect 15 0 17 0;
#X connect 16 0 18 0;
#X connect 17 0 4 0;
#X connect 18 0 5 0;
#X connect 19 0 29 0;
#X connect 20 0 28 0;
#X connect 21 0 3 0;
#X connect 22 0 27 0;
#X connect 23 0 26 0;
#X connect 24 0 30 0;
#X connect 25 0 31 0;
#X connect 26 0 19 0;
#X connect 27 0 25 0;
#X connect 28 0 24 0;
#X connect 29 0 11 0;
#X connect 30 0 11 0;
#X connect 31 0 11 0;
#X restore 173 274 pd r4;
#N canvas 750 592 353 270 c1 0;
#X obj 39 101 &&;
#X obj 38 145 t b f;
#X msg 38 165 1;
#X obj 100 145 t b f;
#X obj 95 184 pack f f;
#X obj 162 145 t b f;
#X obj 157 184 pack f f;
#X obj 224 145 t b f;
#X obj 35 25 inlet;
#X obj 232 24 inlet;
#X obj 231 51 route 1 2 3 4;
#X obj 105 241 outlet;
#X obj 32 183 pack f f;
#X obj 97 100 &&;
#X obj 38 123 change;
#X obj 96 122 change;
#X obj 161 98 &&;
#X obj 219 97 &&;
#X obj 160 120 change;
#X obj 218 119 change;
#X obj 251 208 pack s f;
#X obj 224 185 t a;
#X text 73 23 col;
#X msg 100 165 4;
#X msg 162 165 7;
#X msg 224 165 *;
#X text 271 22 rows;
#X connect 0 0 14 0;
#X connect 1 0 2 0;
#X connect 1 1 12 1;
#X connect 2 0 12 0;
#X connect 3 0 23 0;
#X connect 3 1 4 1;
#X connect 4 0 11 0;
#X connect 5 0 24 0;
#X connect 5 1 6 1;
#X connect 6 0 11 0;
#X connect 7 0 25 0;
#X connect 7 1 20 1;
#X connect 8 0 0 0;
#X connect 8 0 13 0;
#X connect 8 0 16 0;
#X connect 8 0 17 0;
#X connect 9 0 10 0;
#X connect 10 0 0 1;
#X connect 10 1 13 1;
#X connect 10 2 16 1;
#X connect 10 3 17 1;
#X connect 12 0 11 0;
#X connect 13 0 15 0;
#X connect 14 0 1 0;
#X connect 15 0 3 0;
#X connect 16 0 18 0;
#X connect 17 0 19 0;
#X connect 18 0 5 0;
#X connect 19 0 7 0;
#X connect 20 0 11 0;
#X connect 21 0 20 0;
#X connect 23 0 4 0;
#X connect 24 0 6 0;
#X connect 25 0 21 0;
#X restore 331 266 pd c1;
#N canvas 751 593 353 270 c2 0;
#X obj 39 101 &&;
#X obj 38 145 t b f;
#X obj 100 145 t b f;
#X obj 95 184 pack f f;
#X obj 162 145 t b f;
#X obj 157 184 pack f f;
#X obj 224 145 t b f;
#X obj 35 25 inlet;
#X obj 232 24 inlet;
#X obj 231 51 route 1 2 3 4;
#X obj 105 241 outlet;
#X obj 32 183 pack f f;
#X obj 97 100 &&;
#X obj 38 123 change;
#X obj 96 122 change;
#X obj 161 98 &&;
#X obj 219 97 &&;
#X obj 160 120 change;
#X obj 218 119 change;
#X msg 100 165 5;
#X msg 38 165 2;
#X msg 162 165 8;
#X msg 224 165 0;
#X obj 223 187 pack f f;
#X text 73 22 col;
#X text 271 22 rows;
#X connect 0 0 13 0;
#X connect 1 0 20 0;
#X connect 1 1 11 1;
#X connect 2 0 19 0;
#X connect 2 1 3 1;
#X connect 3 0 10 0;
#X connect 4 0 21 0;
#X connect 4 1 5 1;
#X connect 5 0 10 0;
#X connect 6 0 22 0;
#X connect 7 0 0 0;
#X connect 7 0 12 0;
#X connect 7 0 15 0;
#X connect 7 0 16 0;
#X connect 8 0 9 0;
#X connect 9 0 0 1;
#X connect 9 1 12 1;
#X connect 9 2 15 1;
#X connect 9 3 16 1;
#X connect 11 0 10 0;
#X connect 12 0 14 0;
#X connect 13 0 1 0;
#X connect 14 0 2 0;
#X connect 15 0 17 0;
#X connect 16 0 18 0;
#X connect 17 0 4 0;
#X connect 18 0 6 0;
#X connect 19 0 3 0;
#X connect 20 0 11 0;
#X connect 21 0 5 0;
#X connect 22 0 23 0;
#X connect 23 0 10 0;
#X restore 372 267 pd c2;
#N canvas 751 593 353 270 c3 0;
#X obj 39 101 &&;
#X obj 38 145 t b f;
#X obj 100 145 t b f;
#X obj 95 184 pack f f;
#X obj 162 145 t b f;
#X obj 157 184 pack f f;
#X obj 224 145 t b f;
#X obj 35 25 inlet;
#X obj 232 24 inlet;
#X obj 231 51 route 1 2 3 4;
#X obj 105 241 outlet;
#X obj 32 183 pack f f;
#X obj 97 100 &&;
#X obj 38 123 change;
#X obj 96 122 change;
#X obj 161 98 &&;
#X obj 219 97 &&;
#X obj 160 120 change;
#X obj 218 119 change;
#X obj 251 208 pack s f;
#X msg 162 165 9;
#X obj 224 185 t a;
#X msg 39 165 3;
#X msg 100 165 6;
#X msg 224 165 #;
#X text 73 22 col;
#X text 271 22 rows;
#X connect 0 0 13 0;
#X connect 1 0 22 0;
#X connect 1 1 11 1;
#X connect 2 0 23 0;
#X connect 2 1 3 1;
#X connect 3 0 10 0;
#X connect 4 0 20 0;
#X connect 4 1 5 1;
#X connect 5 0 10 0;
#X connect 6 0 24 0;
#X connect 6 1 19 1;
#X connect 7 0 0 0;
#X connect 7 0 12 0;
#X connect 7 0 15 0;
#X connect 7 0 16 0;
#X connect 8 0 9 0;
#X connect 9 0 0 1;
#X connect 9 1 12 1;
#X connect 9 2 15 1;
#X connect 9 3 16 1;
#X connect 11 0 10 0;
#X connect 12 0 14 0;
#X connect 13 0 1 0;
#X connect 14 0 2 0;
#X connect 15 0 17 0;
#X connect 16 0 18 0;
#X connect 17 0 4 0;
#X connect 18 0 6 0;
#X connect 19 0 10 0;
#X connect 20 0 5 0;
#X connect 21 0 19 0;
#X connect 22 0 11 0;
#X connect 23 0 3 0;
#X connect 24 0 21 0;
#X restore 414 266 pd c3;
#N canvas 743 552 358 302 c4 0;
#X obj 39 101 &&;
#X obj 38 145 t b f;
#X obj 100 145 t b f;
#X obj 162 145 t b f;
#X obj 224 145 t b f;
#X obj 35 25 inlet;
#X text 73 22 row;
#X obj 232 24 inlet;
#X text 271 22 cols;
#X obj 231 51 route 1 2 3 4;
#X obj 106 278 outlet;
#X obj 97 100 &&;
#X obj 38 123 change;
#X obj 96 122 change;
#X obj 161 98 &&;
#X obj 219 97 &&;
#X obj 160 120 change;
#X obj 218 119 change;
#X obj 251 208 pack s f;
#X msg 230 165 D;
#X obj 28 212 pack s f;
#X obj 163 212 pack s f;
#X obj 224 185 t a;
#X obj 161 186 t a;
#X obj 32 191 t a;
#X msg 38 165 A;
#X msg 100 165 B;
#X msg 162 165 C;
#X obj 97 213 pack s f;
#X obj 101 192 t a;
#X connect 0 0 12 0;
#X connect 1 0 25 0;
#X connect 2 0 26 0;
#X connect 3 0 27 0;
#X connect 3 1 21 1;
#X connect 4 0 19 0;
#X connect 4 1 18 1;
#X connect 5 0 0 0;
#X connect 5 0 11 0;
#X connect 5 0 14 0;
#X connect 5 0 15 0;
#X connect 7 0 9 0;
#X connect 9 0 0 1;
#X connect 9 1 11 1;
#X connect 9 2 14 1;
#X connect 9 3 15 1;
#X connect 11 0 13 0;
#X connect 12 0 1 0;
#X connect 13 0 2 0;
#X connect 14 0 16 0;
#X connect 15 0 17 0;
#X connect 16 0 3 0;
#X connect 17 0 4 0;
#X connect 18 0 10 0;
#X connect 19 0 22 0;
#X connect 20 0 10 0;
#X connect 21 0 10 0;
#X connect 22 0 18 0;
#X connect 23 0 21 0;
#X connect 24 0 20 0;
#X connect 25 0 24 0;
#X connect 26 0 29 0;
#X connect 27 0 23 0;
#X connect 28 0 10 0;
#X connect 29 0 28 0;
#X restore 456 266 pd c4;
#X connect 0 0 4 0;
#X connect 0 0 35 1;
#X connect 0 0 36 1;
#X connect 0 0 37 1;
#X connect 0 0 38 1;
#X connect 2 0 17 0;
#X connect 2 0 31 1;
#X connect 2 0 32 1;
#X connect 2 0 33 1;
#X connect 2 0 34 1;
#X connect 4 0 13 0;
#X connect 4 1 14 0;
#X connect 4 2 15 0;
#X connect 4 3 16 0;
#X connect 5 0 31 0;
#X connect 6 0 32 0;
#X connect 7 0 33 0;
#X connect 8 0 34 0;
#X connect 13 0 5 0;
#X connect 13 1 5 1;
#X connect 14 0 6 0;
#X connect 14 1 6 1;
#X connect 15 0 7 0;
#X connect 15 1 7 1;
#X connect 16 0 8 0;
#X connect 16 1 8 1;
#X connect 17 0 26 0;
#X connect 17 1 27 0;
#X connect 17 2 28 0;
#X connect 17 3 29 0;
#X connect 18 0 35 0;
#X connect 19 0 36 0;
#X connect 20 0 37 0;
#X connect 21 0 38 0;
#X connect 26 0 18 0;
#X connect 26 1 18 1;
#X connect 27 0 19 0;
#X connect 27 1 19 1;
#X connect 28 0 20 0;
#X connect 28 1 20 1;
#X connect 29 0 21 0;
#X connect 29 1 21 1;
#X connect 31 0 30 0;
#X connect 32 0 30 0;
#X connect 33 0 30 0;
#X connect 34 0 30 0;
#X connect 35 0 30 0;
#X connect 36 0 30 0;
#X connect 37 0 30 0;
#X connect 38 0 30 0;
#X restore 59 244 pd matrix_decode;
#X floatatom 145 173 5 0 0 0 - - -, f 5;
#X text 148 120 filter Q;
#X obj 60 99 inlet~;
#X obj 145 99 inlet;
#X obj 245 110 loadbang;
#X obj 246 131 \$1;
#X obj 243 160 select 0;
#X obj 59 149 *~ 5;
#X msg 242 180 55;
#X text 273 181 default Q;
#X obj 146 348 outlet;
#X text 150 328 on/off output;
#X obj 59 349 outlet;
#N canvas 1042 134 641 363 outs 0;
#X obj 49 76 bng 15 250 50 0 empty empty empty 17 7 0 10 -262144 -1
-1;
#X obj 70 76 bng 15 250 50 0 empty empty empty 17 7 0 10 -262144 -1
-1;
#X obj 91 76 bng 15 250 50 0 empty empty empty 17 7 0 10 -262144 -1
-1;
#X obj 112 76 bng 15 250 50 0 empty empty empty 17 7 0 10 -262144 -1
-1;
#X obj 134 76 bng 15 250 50 0 empty empty empty 17 7 0 10 -262144 -1
-1;
#X obj 155 76 bng 15 250 50 0 empty empty empty 17 7 0 10 -262144 -1
-1;
#X obj 176 76 bng 15 250 50 0 empty empty empty 17 7 0 10 -262144 -1
-1;
#X obj 197 76 bng 15 250 50 0 empty empty empty 17 7 0 10 -262144 -1
-1;
#X obj 376 151 bng 15 250 50 0 empty empty empty 17 7 0 10 -262144
-1 -1;
#X obj 377 122 route A B C D * #;
#X obj 396 151 bng 15 250 50 0 empty empty empty 17 7 0 10 -262144
-1 -1;
#X obj 416 151 bng 15 250 50 0 empty empty empty 17 7 0 10 -262144
-1 -1;
#X obj 436 151 bng 15 250 50 0 empty empty empty 17 7 0 10 -262144
-1 -1;
#X obj 455 151 bng 15 250 50 0 empty empty empty 17 7 0 10 -262144
-1 -1;
#X obj 475 151 bng 15 250 50 0 empty empty empty 17 7 0 10 -262144
-1 -1;
#X obj 65 49 route 1 2 3 4 5 6 7 8 9 0;
#X obj 216 76 bng 15 250 50 0 empty empty empty 17 7 0 10 -262144 -1
-1;
#X obj 237 76 bng 15 250 50 0 empty empty empty 17 7 0 10 -262144 -1
-1;
#X obj 101 320 outlet;
#X obj 23 116 select 1;
#X msg 23 136 1;
#X msg 85 136 2;
#X obj 63 9 inlet;
#X obj 85 116 select 1;
#X obj 147 115 select 1;
#X obj 209 115 select 1;
#X msg 147 135 3;
#X msg 209 135 4;
#X obj 38 164 select 1;
#X obj 100 164 select 1;
#X obj 162 163 select 1;
#X obj 224 163 select 1;
#X msg 38 184 5;
#X msg 100 184 6;
#X msg 162 183 7;
#X msg 224 183 8;
#X obj 181 211 select 1;
#X obj 247 211 select 1;
#X msg 247 231 0;
#X msg 181 231 9;
#X obj 345 187 select 1;
#X obj 407 187 select 1;
#X obj 469 186 select 1;
#X obj 531 186 select 1;
#X msg 345 207 A;
#X msg 407 207 B;
#X msg 468 206 C;
#X msg 531 206 D;
#X obj 467 228 select 1;
#X obj 529 228 select 1;
#X msg 466 248 *;
#X msg 529 247 #;
#X connect 9 0 8 0;
#X connect 9 0 40 0;
#X connect 9 1 10 0;
#X connect 9 1 41 0;
#X connect 9 2 11 0;
#X connect 9 2 42 0;
#X connect 9 3 12 0;
#X connect 9 3 43 0;
#X connect 9 4 13 0;
#X connect 9 4 48 0;
#X connect 9 5 14 0;
#X connect 9 5 49 0;
#X connect 15 0 0 0;
#X connect 15 0 19 0;
#X connect 15 1 1 0;
#X connect 15 1 23 0;
#X connect 15 2 2 0;
#X connect 15 2 24 0;
#X connect 15 3 3 0;
#X connect 15 3 25 0;
#X connect 15 4 4 0;
#X connect 15 4 28 0;
#X connect 15 5 5 0;
#X connect 15 5 29 0;
#X connect 15 6 6 0;
#X connect 15 6 30 0;
#X connect 15 7 7 0;
#X connect 15 7 31 0;
#X connect 15 8 16 0;
#X connect 15 8 36 0;
#X connect 15 9 17 0;
#X connect 15 9 37 0;
#X connect 15 10 9 0;
#X connect 19 0 20 0;
#X connect 20 0 18 0;
#X connect 21 0 18 0;
#X connect 22 0 15 0;
#X connect 23 0 21 0;
#X connect 24 0 26 0;
#X connect 25 0 27 0;
#X connect 26 0 18 0;
#X connect 27 0 18 0;
#X connect 28 0 32 0;
#X connect 29 0 33 0;
#X connect 30 0 34 0;
#X connect 31 0 35 0;
#X connect 32 0 18 0;
#X connect 33 0 18 0;
#X connect 34 0 18 0;
#X connect 35 0 18 0;
#X connect 36 0 39 0;
#X connect 37 0 38 0;
#X connect 38 0 18 0;
#X connect 39 0 18 0;
#X connect 40 0 44 0;
#X connect 41 0 45 0;
#X connect 42 0 46 0;
#X connect 43 0 47 0;
#X connect 44 0 18 0;
#X connect 45 0 18 0;
#X connect 46 0 18 0;
#X connect 47 0 18 0;
#X connect 48 0 50 0;
#X connect 49 0 51 0;
#X connect 50 0 18 0;
#X connect 51 0 18 0;
#X restore 59 318 pd outs;
#X text 59 14 DTMF Decoder - jason@noisybox.net;
#X connect 0 0 2 0;
#X connect 1 0 2 1;
#X connect 2 0 13 0;
#X connect 2 0 16 0;
#X connect 3 0 0 1;
#X connect 3 0 1 1;
#X connect 5 0 10 0;
#X connect 6 0 3 0;
#X connect 7 0 8 0;
#X connect 8 0 9 0;
#X connect 9 0 11 0;
#X connect 9 1 3 0;
#X connect 10 0 0 0;
#X connect 10 0 1 0;
#X connect 11 0 3 0;
#X connect 16 0 15 0;
