#N canvas 122 -2 695 424 10;
#X obj 19 285 osc~;
#X obj 102 285 osc~;
#X text 112 267 cols;
#X text 28 267 row;
#X obj 19 246 r \$0_row_f;
#X obj 102 246 r \$0_col_f;
#X obj 140 319 vline~;
#X obj 101 349 *~;
#N canvas 0 0 365 477 selrow 0;
#X obj 26 8 inlet;
#X obj 23 436 outlet;
#X obj 97 275 f 1;
#X obj 151 321 f 2;
#X obj 200 360 f 3;
#X obj 249 393 f 4;
#X obj 97 251 select 1 2 3;
#X obj 150 293 select 4 5 6;
#X obj 204 326 select 7 8 9;
#X obj 253 369 select 0;
#X obj 28 146 1;
#X obj 59 146 2;
#X obj 90 147 3;
#X obj 120 147 4;
#X obj 26 117 route A a B b C c D d # *;
#X connect 0 0 14 0;
#X connect 2 0 1 0;
#X connect 3 0 1 0;
#X connect 4 0 1 0;
#X connect 5 0 1 0;
#X connect 6 0 2 0;
#X connect 6 1 2 0;
#X connect 6 2 2 0;
#X connect 6 3 7 0;
#X connect 7 0 3 0;
#X connect 7 1 3 0;
#X connect 7 2 3 0;
#X connect 7 3 8 0;
#X connect 8 0 4 0;
#X connect 8 1 4 0;
#X connect 8 2 4 0;
#X connect 8 3 9 0;
#X connect 9 0 5 0;
#X connect 10 0 1 0;
#X connect 11 0 1 0;
#X connect 12 0 1 0;
#X connect 13 0 1 0;
#X connect 14 0 10 0;
#X connect 14 1 10 0;
#X connect 14 2 11 0;
#X connect 14 3 11 0;
#X connect 14 4 12 0;
#X connect 14 5 12 0;
#X connect 14 6 13 0;
#X connect 14 7 13 0;
#X connect 14 8 13 0;
#X connect 14 9 13 0;
#X connect 14 10 6 0;
#X restore 365 105 pd selrow;
#X floatatom 381 130 5 0 0 0 - - -;
#N canvas 0 0 365 477 selcol 0;
#X obj 26 8 inlet;
#X obj 23 436 outlet;
#X obj 97 275 f 1;
#X obj 151 321 f 2;
#X obj 200 360 f 3;
#X obj 253 370 select 0;
#X obj 97 251 select 1 4 7;
#X obj 150 293 select 2 5 8;
#X obj 204 326 select 3 6 9;
#X obj 249 393 f 2;
#X obj 119 108 route A a B b C c D d;
#X obj 73 67 route #;
#X obj 191 144 4;
#X obj 73 89 3;
#X obj 21 37 route *;
#X obj 27 64 1;
#X connect 0 0 14 0;
#X connect 2 0 1 0;
#X connect 3 0 1 0;
#X connect 4 0 1 0;
#X connect 5 0 9 0;
#X connect 6 0 2 0;
#X connect 6 1 2 0;
#X connect 6 2 2 0;
#X connect 6 3 7 0;
#X connect 7 0 3 0;
#X connect 7 1 3 0;
#X connect 7 2 3 0;
#X connect 7 3 8 0;
#X connect 8 0 4 0;
#X connect 8 1 4 0;
#X connect 8 2 4 0;
#X connect 8 3 5 0;
#X connect 9 0 1 0;
#X connect 10 0 12 0;
#X connect 10 1 12 0;
#X connect 10 2 12 0;
#X connect 10 3 12 0;
#X connect 10 4 12 0;
#X connect 10 5 12 0;
#X connect 10 6 12 0;
#X connect 10 7 12 0;
#X connect 10 8 6 0;
#X connect 11 0 13 0;
#X connect 11 1 10 0;
#X connect 12 0 1 0;
#X connect 13 0 1 0;
#X connect 14 0 15 0;
#X connect 14 1 11 0;
#X connect 15 0 1 0;
#X restore 525 103 pd selcol;
#X floatatom 536 126 5 0 0 0 - - -;
#X obj 361 153 select 1 2 3 4;
#X obj 524 153 select 1 2 3 4;
#X obj 382 245 s \$0_row_f;
#X msg 350 186 697;
#X msg 382 185 770;
#X msg 418 184 852;
#X msg 455 182 941;
#X obj 552 247 s \$0_col_f;
#X msg 512 186 1209;
#X msg 552 187 1336;
#X msg 593 187 1477;
#X msg 634 187 1633;
#X msg 204 263 0 1;
#X msg 186 287 1 1;
#X msg 246 285 1 1 \, 0 1 \$1;
#X obj 349 67 t b a a;
#X obj 100 396 outlet~;
#X obj 228 2 inlet;
#X obj 280 208 loadbang;
#X obj 279 230 \$1;
#X obj 246 253 f 50;
#X text 173 396 jason plumb :: noisybox.net;
#X obj 267 2 inlet;
#X text 175 337 dtmf (touch-tone) generator;
#X text 175 350 creation arg is duration in ms;
#X text 175 366 inlet is 0-9 \, a-d \, A-D \, # \, or *;
#X obj 101 372 /~ 2.1;
#X obj 276 39 route on off;
#X obj 276 67 t b a a;
#X text 173 383 also "on <d>" to turn on tone \, "off" to turn off
;
#X connect 0 0 7 0;
#X connect 1 0 7 0;
#X connect 4 0 0 0;
#X connect 5 0 1 0;
#X connect 6 0 7 1;
#X connect 7 0 38 0;
#X connect 8 0 9 0;
#X connect 8 0 12 0;
#X connect 10 0 11 0;
#X connect 10 0 13 0;
#X connect 12 0 15 0;
#X connect 12 1 16 0;
#X connect 12 2 17 0;
#X connect 12 3 18 0;
#X connect 13 0 20 0;
#X connect 13 1 21 0;
#X connect 13 2 22 0;
#X connect 13 3 23 0;
#X connect 15 0 14 0;
#X connect 16 0 14 0;
#X connect 17 0 14 0;
#X connect 18 0 14 0;
#X connect 20 0 19 0;
#X connect 21 0 19 0;
#X connect 22 0 19 0;
#X connect 23 0 19 0;
#X connect 24 0 6 0;
#X connect 25 0 6 0;
#X connect 26 0 6 0;
#X connect 27 0 32 0;
#X connect 27 1 8 0;
#X connect 27 2 10 0;
#X connect 29 0 39 0;
#X connect 30 0 31 0;
#X connect 31 0 32 1;
#X connect 32 0 26 0;
#X connect 34 0 32 1;
#X connect 38 0 28 0;
#X connect 39 0 40 0;
#X connect 39 1 24 0;
#X connect 39 2 27 0;
#X connect 40 0 25 0;
#X connect 40 1 8 0;
#X connect 40 2 10 0;
