#N canvas 92 80 589 308 10;
#X obj 123 47 list split 1;
#X obj 147 71 list append;
#X obj 78 211 list;
#X msg 40 212 \$1;
#X obj 9 100 route symbol float;
#X obj 74 123 t b f;
#X obj 10 122 t b s;
#X obj 61 269 outlet~;
#X obj 60 244 dtmf~ \$1;
#X obj 297 165 +;
#X obj 121 14 inlet;
#X obj 258 9 inlet;
#X obj 341 8 inlet;
#X obj 261 38 t f b f;
#X obj 344 42 t b f;
#X obj 202 273 outlet;
#X text 281 278 jason plumb :: noisybox.net;
#X text 283 190 dtmf dialer using the dtmf~ object;
#X text 281 234 inlet 1 : list of digits;
#X text 281 249 inlet 2 : on-time;
#X text 281 264 inlet 3 : off-time;
#X obj 371 135 f;
#X obj 520 131 f;
#X obj 432 8 loadbang;
#X obj 433 28 t b b;
#X obj 410 50 \$1;
#X obj 490 52 \$2;
#X obj 410 72 select 0;
#X obj 491 78 select 0;
#X floatatom 229 208 5 0 0 0 - - -;
#X obj 159 194 delay;
#X obj 385 101 100;
#X obj 494 100 100;
#X text 282 204 arg 1 : on-time in ms (default = 100ms);
#X text 283 218 arg 2 : off-time in ms (default = 100ms);
#X connect 0 0 4 0;
#X connect 0 1 1 1;
#X connect 0 2 15 0;
#X connect 1 0 0 0;
#X connect 2 0 8 0;
#X connect 3 0 8 0;
#X connect 4 0 6 0;
#X connect 4 1 5 0;
#X connect 5 0 2 0;
#X connect 5 0 30 0;
#X connect 5 1 2 1;
#X connect 6 0 30 0;
#X connect 6 1 3 0;
#X connect 8 0 7 0;
#X connect 9 0 29 0;
#X connect 9 0 30 1;
#X connect 10 0 0 0;
#X connect 11 0 13 0;
#X connect 12 0 14 0;
#X connect 13 0 8 1;
#X connect 13 1 21 0;
#X connect 13 2 9 1;
#X connect 14 0 21 0;
#X connect 14 1 21 1;
#X connect 21 0 9 0;
#X connect 22 0 9 1;
#X connect 23 0 24 0;
#X connect 24 0 25 0;
#X connect 24 1 26 0;
#X connect 25 0 27 0;
#X connect 26 0 28 0;
#X connect 27 0 31 0;
#X connect 27 1 21 0;
#X connect 28 0 32 0;
#X connect 28 1 22 0;
#X connect 30 0 1 0;
#X connect 31 0 21 0;
#X connect 31 0 8 1;
#X connect 32 0 22 0;
