#N canvas 290 96 371 264 10;
#X text 14 27 It's like a phone keypad!;
#X obj 23 47 cnv 15 150 100 empty empty empty 20 12 0 14 -261879 -66577
0;
#X obj 200 224 dac~;
#X obj 202 195 dtmf~ 125;
#X msg 33 56 1;
#X msg 65 56 2;
#X msg 97 56 3;
#X msg 129 56 A;
#X msg 33 78 4;
#X msg 65 78 5;
#X msg 97 78 6;
#X msg 33 99 7;
#X msg 65 99 8;
#X msg 97 99 9;
#X msg 33 121 *;
#X msg 65 121 0;
#X msg 97 121 #;
#X msg 129 78 B;
#X msg 129 99 C;
#X msg 130 121 D;
#X text 184 76 dtmf~ generates dual;
#X text 184 87 tone multi frequency;
#X text 183 97 creation arg is duration;
#X msg 95 179 on 5;
#X msg 95 200 off;
#X text 15 180 turn tone on;
#X text 14 201 silence tone;
#X connect 3 0 2 0;
#X connect 3 0 2 1;
#X connect 4 0 3 0;
#X connect 5 0 3 0;
#X connect 6 0 3 0;
#X connect 7 0 3 0;
#X connect 8 0 3 0;
#X connect 9 0 3 0;
#X connect 10 0 3 0;
#X connect 11 0 3 0;
#X connect 12 0 3 0;
#X connect 13 0 3 0;
#X connect 14 0 3 0;
#X connect 15 0 3 0;
#X connect 16 0 3 0;
#X connect 17 0 3 0;
#X connect 18 0 3 0;
#X connect 19 0 3 0;
#X connect 23 0 3 0;
#X connect 24 0 3 0;
