#N canvas 673 565 410 287 10;
#X obj 81 166 textfile;
#X obj 127 263 outlet;
#X obj 127 243 list append;
#X msg 20 67 rewind;
#X obj 256 158 t l;
#X obj 155 214 list prepend;
#X obj 35 12 inlet;
#X obj 31 218 t b a;
#X msg 69 99 read \$1 cr;
#X obj 129 43 symbol \$1;
#X obj 129 18 loadbang;
#X text 181 65 file to list;
#X text 189 78 cr delimited file to a list;
#X text 183 96 jason@noisybox.net;
#X msg 210 139 bang;
#X obj 87 192 l2s;
#X text 261 114 (l2s requires zexy);
#X msg 82 66 clear;
#X obj 32 33 t b b a b b b;
#X connect 0 0 15 0;
#X connect 0 1 2 0;
#X connect 2 0 1 0;
#X connect 3 0 0 0;
#X connect 4 0 5 1;
#X connect 5 0 4 0;
#X connect 5 0 2 1;
#X connect 6 0 18 0;
#X connect 7 0 0 0;
#X connect 7 1 5 0;
#X connect 8 0 0 0;
#X connect 9 0 18 0;
#X connect 10 0 9 0;
#X connect 14 0 5 1;
#X connect 15 0 7 0;
#X connect 17 0 0 0;
#X connect 18 0 0 0;
#X connect 18 1 3 0;
#X connect 18 2 8 0;
#X connect 18 3 14 0;
#X connect 18 4 2 1;
#X connect 18 5 17 0;
