#N canvas 0 0 458 308 12;
#X obj 79 51 inlet~;
#X obj 68 244 outlet~;
#X obj 226 94 \$1;
#X obj 173 122 * -1;
#X obj 67 173 clip~ -1000 0;
#X obj 184 171 clip~ 0 1000;
#X obj 220 63 loadbang;
#X obj 155 38 inlet;
#X connect 0 0 4 0;
#X connect 0 0 5 0;
#X connect 2 0 3 0;
#X connect 2 0 5 1;
#X connect 3 0 4 2;
#X connect 4 0 1 0;
#X connect 5 0 1 0;
#X connect 6 0 2 0;
#X connect 7 0 5 1;
#X connect 7 0 3 0;
