#N canvas 113 247 551 172 10;
#X obj 16 34 select 54 53 52 51 48 55 50 49;
#X obj 16 10 comport \$1 38400;
#X obj 16 94 t b b;
#X obj 47 134 s gdpad1;
#X obj 16 114 outlet;
#X obj 77 94 t b b;
#X obj 77 114 outlet;
#X obj 108 134 s gdpad2;
#X obj 138 94 t b b;
#X obj 138 114 outlet;
#X obj 199 94 t b b;
#X obj 199 114 outlet;
#X obj 169 134 s gdpad3;
#X obj 230 134 s gdpad4;
#X obj 260 94 t b b;
#X obj 260 114 outlet;
#X obj 321 94 t b b;
#X obj 321 114 outlet;
#X obj 382 94 t b b;
#X obj 382 114 outlet;
#X obj 443 94 t b b;
#X obj 443 114 outlet;
#X obj 291 134 s gdpad5;
#X obj 352 134 s gdpad6;
#X obj 413 134 s gdpad7;
#X obj 474 134 s gdpad8;
#X connect 0 0 2 0;
#X connect 0 1 5 0;
#X connect 0 2 8 0;
#X connect 0 3 10 0;
#X connect 0 4 14 0;
#X connect 0 5 16 0;
#X connect 0 6 18 0;
#X connect 0 7 20 0;
#X connect 1 0 0 0;
#X connect 2 0 4 0;
#X connect 2 1 3 0;
#X connect 5 0 6 0;
#X connect 5 1 7 0;
#X connect 8 0 9 0;
#X connect 8 1 12 0;
#X connect 10 0 11 0;
#X connect 10 1 13 0;
#X connect 14 0 15 0;
#X connect 14 1 22 0;
#X connect 16 0 17 0;
#X connect 16 1 23 0;
#X connect 18 0 19 0;
#X connect 18 1 24 0;
#X connect 20 0 21 0;
#X connect 20 1 25 0;
