#N canvas 262 454 369 413 10;
#X obj 232 103 table \$0-pad;
#X obj 35 241 soundfiler;
#X obj 108 174 \$0;
#X obj 14 26 inlet;
#X obj 121 25 inlet;
#X obj 210 349 outlet~;
#X obj 108 155 loadbang;
#X text 159 59 represents a single \, playable;
#X text 165 72 pad for the ghetto drum;
#X text 170 84 jason@noisybox.net;
#X obj 210 26 inlet;
#X text 201 7 bang to play;
#X text 120 3 kitname;
#X text 122 12 (subdir);
#X obj 69 24 inlet;
#X text 7 11 wav file;
#X text 66 10 basedir;
#X obj 35 196 pack s s s f;
#X msg 35 218 read -resize \$2/\$3/\$1 \$4-pad;
#X obj 14 47 l2s;
#X obj 69 48 l2s;
#X obj 121 50 l2s;
#N canvas 0 0 450 300 playit! 0;
#X obj 95 10 inlet;
#X obj 95 54 bangloop 8;
#X obj 37 193 tabplay~ \$0-pad;
#X obj 30 270 outlet~;
#X obj 140 194 tabplay~ \$0-pad;
#X obj 239 193 tabplay~ \$0-pad;
#X obj 342 194 tabplay~ \$0-pad;
#X obj 16 236 tabplay~ \$0-pad;
#X obj 119 237 tabplay~ \$0-pad;
#X obj 218 236 tabplay~ \$0-pad;
#X obj 321 237 tabplay~ \$0-pad;
#X msg 15 109 bang;
#X msg 52 109 bang;
#X msg 89 109 bang;
#X msg 126 109 bang;
#X msg 161 110 bang;
#X msg 198 110 bang;
#X msg 235 110 bang;
#X msg 271 109 bang;
#X msg 96 30 bang;
#X obj 100 76 select 0 1 2 3 4 5 6 7;
#X connect 0 0 19 0;
#X connect 1 0 20 0;
#X connect 2 0 3 0;
#X connect 4 0 3 0;
#X connect 5 0 3 0;
#X connect 6 0 3 0;
#X connect 7 0 3 0;
#X connect 8 0 3 0;
#X connect 9 0 3 0;
#X connect 10 0 3 0;
#X connect 11 0 2 0;
#X connect 12 0 4 0;
#X connect 13 0 5 0;
#X connect 14 0 6 0;
#X connect 15 0 7 0;
#X connect 16 0 8 0;
#X connect 17 0 9 0;
#X connect 18 0 10 0;
#X connect 19 0 1 0;
#X connect 20 0 11 0;
#X connect 20 1 12 0;
#X connect 20 2 13 0;
#X connect 20 3 14 0;
#X connect 20 4 15 0;
#X connect 20 5 16 0;
#X connect 20 6 17 0;
#X connect 20 7 18 0;
#X restore 210 277 pd playit!;
#X obj 222 248 bng 15 250 50 0 empty empty empty 17 7 0 10 -262144
-1 -1;
#X text 192 297 TODO: this can be pitched!;
#X obj 80 90 \$0;
#X msg 80 109 \; \$1-pad resize 0;
#X obj 171 152 print dikkkkk;
#X obj 19 87 t s b;
#X connect 2 0 17 3;
#X connect 3 0 19 0;
#X connect 4 0 21 0;
#X connect 6 0 2 0;
#X connect 10 0 22 0;
#X connect 14 0 20 0;
#X connect 17 0 18 0;
#X connect 18 0 1 0;
#X connect 19 0 28 0;
#X connect 20 0 17 1;
#X connect 21 0 17 2;
#X connect 22 0 5 0;
#X connect 23 0 22 0;
#X connect 25 0 26 0;
#X connect 26 0 27 0;
#X connect 28 0 17 0;
#X connect 28 1 25 0;
