#N struct awf-template-1122 float x float y float h;
#N canvas 66 0 641 604 10;
#X obj 251 21 cnv 15 200 260 empty empty empty 20 12 0 14 -241406 -66577
0;
#X msg 36 179 stop;
#N canvas 435 37 481 458 granstream 0;
#X obj 22 418 outlet~;
#X floatatom 94 57 5 0 0 0 - - -;
#X floatatom 143 48 5 0 0 0 - - -;
#X floatatom 188 67 5 0 0 0 - - -;
#X obj 22 397 /~ 2;
#X obj 259 308 +;
#X obj 242 256 t b f;
#X obj 250 277 f;
#X obj 399 42 samplerate~;
#X obj 399 61 / 1000;
#X obj 399 23 loadbang;
#X obj 380 25 bng 15 250 50 0 empty empty empty 0 -6 0 8 -262144 -1
-1;
#X obj 322 172 *;
#X obj 83 80 * 1.3;
#X text 9 81 hard coded;
#X obj 131 165 * 1.3;
#X text 122 182 hard coded;
#X obj 174 213 * 1.3;
#X text 165 230 hard coded;
#X floatatom 298 107 5 0 0 0 - - -;
#X text 76 9 size;
#X text 289 91 spread pos;
#X obj 153 370 gran2~ gransamp;
#X obj 21 368 gran2~ gransamp;
#X obj 86 418 outlet~;
#X obj 86 398 /~ 2;
#X obj 321 231 t b f;
#X obj 23 27 inlet;
#X obj 76 24 inlet;
#X text 182 45 <- try 0.19;
#X text 230 66 <- try 250;
#X text 334 106 <- try 10;
#X obj 135 26 inlet;
#X obj 177 25 inlet;
#X obj 218 25 inlet;
#X text 133 9 sprd1;
#X text 176 9 sprd2;
#X text 218 8 sprd3;
#X text 23 11 ctrl;
#X obj 273 25 inlet;
#X obj 321 25 inlet;
#X text 279 8 pos;
#X text 317 10 array;
#X connect 4 0 0 0;
#X connect 5 0 22 2;
#X connect 6 0 7 0;
#X connect 6 1 7 1;
#X connect 7 0 5 0;
#X connect 8 0 9 0;
#X connect 9 0 12 1;
#X connect 10 0 8 0;
#X connect 11 0 8 0;
#X connect 12 0 26 0;
#X connect 13 0 22 1;
#X connect 15 0 22 3;
#X connect 17 0 22 4;
#X connect 22 0 25 0;
#X connect 22 1 4 0;
#X connect 23 0 4 0;
#X connect 23 1 25 0;
#X connect 25 0 24 0;
#X connect 26 0 7 0;
#X connect 26 1 5 1;
#X connect 27 0 23 0;
#X connect 27 0 22 0;
#X connect 28 0 23 1;
#X connect 28 0 13 0;
#X connect 28 0 1 0;
#X connect 32 0 23 3;
#X connect 32 0 2 0;
#X connect 32 0 15 0;
#X connect 33 0 23 4;
#X connect 33 0 17 0;
#X connect 33 0 3 0;
#X connect 34 0 12 0;
#X connect 34 0 19 0;
#X connect 39 0 23 2;
#X connect 39 0 6 0;
#X connect 40 0 23 5;
#X connect 40 0 22 5;
#X restore 36 369 pd granstream;
#X obj 255 201 cnv 15 100 78 empty empty empty 20 12 0 14 -245760 -66577
0;
#X floatatom 310 208 5 0 100 0 size #0_GG/size/r #0_GG/size/s;
#X floatatom 310 225 5 0 0 0 spread1 #0_GG/spread/1/r #0_GG/spread/1/s
;
#X floatatom 310 242 5 0 0 0 spread2 #0_GG/spread/2/r #0_GG/spread/2/s
;
#X floatatom 310 259 5 0 0 0 spread3 #0_GG/spread/3/r #0_GG/spread/3/s
;
#X obj 35 510 outlet~;
#X obj 121 510 outlet~;
#X obj 255 115 hsl 193 10 0 515395 0 0 \$0_GG/hslider/s \$0_GG/hslider/r
empty -2 -6 0 8 -262131 -1 -1 2201 1;
#X obj 299 128 tgl 15 0 \$0_GG/wander/onoff \$0_GG/wander/onoff empty
0 -6 0 8 -262144 -1 -1 1 1;
#X text 253 127 wander;
#X obj 368 128 tgl 15 0 \$0_GG/record/onoff \$0_GG/record/onoff empty
0 -6 0 8 -258699 -1 -1 0 1;
#X text 320 127 record;
#X text 392 127 norm.;
#X msg 472 74 \; \$1_granarr normalize;
#X obj 473 25 \$0;
#X obj 429 128 bng 15 250 50 0 \$0_GG/norm \$0_GG/norm empty 0 -6 0
8 -262144 -1 -1;
#X msg 122 346 \$1_granarr;
#X obj 122 326 \$0;
#X obj 122 305 loadbang;
#X msg 54 138 0;
#X obj 255 148 cnv 15 70 50 empty empty empty 20 12 0 14 -261814 -66577
0;
#X text 260 151 PLAYBACK;
#X obj 300 176 bng 15 250 50 0 \$0_GG/play/off \$0_GG/play/off off
0 -6 0 8 -258699 -1 -1;
#X obj 262 175 bng 15 250 50 0 \$0_GG/play/on \$0_GG/play/on on 0 -6
0 8 -24198 -1 -1;
#X obj 330 148 cnv 15 118 50 empty empty empty 20 12 0 14 -224825 -66577
0;
#X floatatom 400 155 5 0 0 0 delay_t #0_GG/delay/r #0_GG/delay/s;
#X floatatom 400 175 5 0 1 0 feedback #0_GG/feedback/r #0_GG/feedback/s
;
#X obj 358 230 cnv 15 87 24 empty empty empty 20 12 0 14 -262131 -66577
0;
#X floatatom 405 235 5 0 0 0 low(f) #0_GG/lop/r #0_GG/lop/s;
#X obj 358 256 cnv 15 87 24 empty empty empty 20 12 0 14 -237558 -66577
0;
#X floatatom 406 261 5 0 125 0 volume #0_GG/volume/r #0_GG/volume/s
;
#X obj 359 202 cnv 15 87 24 empty empty empty 20 12 0 14 -261689 -66577
0;
#X floatatom 405 207 5 0 100 0 clip_ #0_GG/clip/r #0_GG/clip/s;
#X obj 20 -1 inlet;
#N canvas 100 0 643 528 parameter 0;
#X obj 18 7 inlet;
#X obj 18 66 onoff;
#X obj 66 107 onoff;
#X msg 114 148 bang;
#X obj 19 86 s \$0_GG/wander/onoff;
#X obj 66 127 s \$0_GG/record/onoff;
#X obj 114 168 s \$0_GG/norm;
#X obj 162 209 s \$0_GG/play/on;
#X msg 162 189 bang;
#X obj 211 126 s \$0_GG/play/off;
#X msg 211 106 bang;
#X obj 259 92 s \$0_GG/delay/r;
#X obj 307 70 s \$0_GG/feedback/r;
#X obj 18 46 route wander record norm play stop delay feedback;
#X obj 53 251 route size spread1 spread2 spread3;
#X obj 53 272 s \$0_GG/size/r;
#X obj 65 292 s \$0_GG/spread/1/r;
#X obj 77 313 s \$0_GG/spread/2/r;
#X obj 89 333 s \$0_GG/spread/3/r;
#X obj 286 297 s \$0_GG/clip/r;
#X obj 337 318 s \$0_GG/lop/r;
#X obj 388 339 s \$0_GG/volume/r;
#X obj 439 360 s \$0_GG/midibase;
#X obj 286 276 route clip lop volume midibase;
#X obj 244 382 s \$0_GG/loadfile;
#X obj 294 402 s \$0_GG/savefile;
#X obj 244 361 route loadfile savefile;
#X obj 421 404 route pos;
#X obj 421 425 s \$0_GG/hslider/r;
#X connect 0 0 13 0;
#X connect 1 0 4 0;
#X connect 2 0 5 0;
#X connect 3 0 6 0;
#X connect 8 0 7 0;
#X connect 10 0 9 0;
#X connect 13 0 1 0;
#X connect 13 1 2 0;
#X connect 13 2 3 0;
#X connect 13 3 8 0;
#X connect 13 4 10 0;
#X connect 13 5 11 0;
#X connect 13 6 12 0;
#X connect 13 7 14 0;
#X connect 14 0 15 0;
#X connect 14 1 16 0;
#X connect 14 2 17 0;
#X connect 14 3 18 0;
#X connect 14 4 23 0;
#X connect 23 0 19 0;
#X connect 23 1 20 0;
#X connect 23 2 21 0;
#X connect 23 3 22 0;
#X connect 23 4 26 0;
#X connect 26 0 24 0;
#X connect 26 1 25 0;
#X connect 26 2 27 0;
#X connect 27 0 28 0;
#X restore 20 50 pd parameter routing;
#X obj 54 158 s \$0_GG/wander/onoff;
#N canvas 0 0 300 175 wanderctl 0;
#X obj 33 57 wander 0 95000 12000 40000;
#X obj 33 101 spigot;
#X obj 66 35 r \$0_GG/wander/maxval;
#X obj 80 76 r \$0_GG/wander/onoff;
#X obj 33 124 s \$0_GG/hslider/r;
#X connect 0 0 1 0;
#X connect 1 0 4 0;
#X connect 2 0 0 1;
#X connect 3 0 1 1;
#X restore 20 70 pd wanderctl;
#X obj 93 264 r \$0_GG/spread/3/s;
#X obj 79 243 r \$0_GG/spread/2/s;
#X obj 64 222 r \$0_GG/spread/1/s;
#X obj 50 201 r \$0_GG/size/s;
#N canvas 24 27 304 285 chanpath 0;
#X obj -2 70 dline~ 1000 0.9;
#X obj -1 247 outlet~;
#X obj -1 156 lop~ 250;
#X obj 0 225 *~;
#X obj 28 198 / 100;
#X obj 28 178 r \$0_GG/volume/s;
#X obj 50 134 r \$0_GG/lop/s;
#X obj 64 91 r \$0_GG/clip/s;
#X obj 98 43 r \$0_GG/feedback/s;
#X obj 48 22 r \$0_GG/delay/s;
#X obj -2 12 inlet~;
#X obj -1 113 clipper~ 100;
#X connect 0 0 11 0;
#X connect 2 0 3 0;
#X connect 3 0 1 0;
#X connect 4 0 3 1;
#X connect 5 0 4 0;
#X connect 6 0 2 1;
#X connect 7 0 11 1;
#X connect 8 0 0 2;
#X connect 9 0 0 1;
#X connect 10 0 0 0;
#X connect 11 0 2 0;
#X restore 122 455 pd chanpath;
#N canvas 0 0 304 285 chanpath 0;
#X obj -2 70 dline~ 1000 0.9;
#X obj -1 247 outlet~;
#X obj -1 156 lop~ 250;
#X obj 0 225 *~;
#X obj 28 198 / 100;
#X obj 28 178 r \$0_GG/volume/s;
#X obj 50 134 r \$0_GG/lop/s;
#X obj 64 91 r \$0_GG/clip/s;
#X obj 98 43 r \$0_GG/feedback/s;
#X obj 48 22 r \$0_GG/delay/s;
#X obj -2 12 inlet~;
#X obj -1 113 clipper~ 100;
#X connect 0 0 11 0;
#X connect 2 0 3 0;
#X connect 3 0 1 0;
#X connect 4 0 3 1;
#X connect 5 0 4 0;
#X connect 6 0 2 1;
#X connect 7 0 11 1;
#X connect 8 0 0 2;
#X connect 9 0 0 1;
#X connect 10 0 0 0;
#X connect 11 0 2 0;
#X restore 36 455 pd chanpath;
#X obj 472 4 r \$0_GG/norm;
#X text 78 138 wander stop disabled;
#X obj 46 116 r \$0_GG/play/off;
#X obj 36 97 r \$0_GG/play/on;
#X obj 250 20 agraph \$0_granarr 318528;
#X obj 403 -4 t b f;
#X obj 107 285 r \$0_GG/hslider/s;
#N canvas 483 251 659 640 midictl 0;
#X obj 11 618 outlet;
#X text 14 7 15ish controls;
#N canvas 739 0 342 199 playback 0;
#X obj 48 160 outlet;
#X msg 122 89 127;
#X msg 155 120 0;
#X obj 22 85 select 0;
#X msg 22 105 stop;
#X msg 73 106 play;
#X obj 156 99 r \$0_GG/play/off;
#X obj 122 64 r \$0_GG/play/on;
#X obj 22 65 ctlin2;
#X obj 46 16 r \$0_GG/midi/play;
#X obj 122 157 ctlout;
#X connect 1 0 10 0;
#X connect 2 0 10 0;
#X connect 3 0 4 0;
#X connect 3 1 5 0;
#X connect 4 0 0 0;
#X connect 5 0 0 0;
#X connect 6 0 2 0;
#X connect 7 0 1 0;
#X connect 8 0 3 0;
#X connect 9 0 8 0;
#X connect 9 0 10 1;
#X restore 56 415 pd playback;
#N canvas 0 0 356 204 wander 0;
#X obj 195 157 outlet;
#X msg 195 101 wander off;
#X msg 246 125 wander on;
#X obj 196 76 select 0;
#X obj 35 50 r \$0_GG/wander/onoff;
#X obj 36 72 select 0;
#X msg 35 94 0;
#X msg 72 95 127;
#X obj 46 12 r \$0_GG/midi/wander;
#X obj 195 50 ctlin2;
#X obj 35 139 ctlout;
#X connect 1 0 0 0;
#X connect 2 0 0 0;
#X connect 3 0 1 0;
#X connect 3 1 2 0;
#X connect 4 0 5 0;
#X connect 5 0 6 0;
#X connect 5 1 7 0;
#X connect 6 0 10 0;
#X connect 7 0 10 0;
#X connect 8 0 9 0;
#X connect 8 0 10 1;
#X connect 9 0 3 0;
#X restore 56 441 pd wander;
#N canvas 310 73 466 177 record 0;
#X obj 204 -7 select 0;
#X msg 264 19 record on;
#X msg 183 18 record off;
#X obj 12 -37 loadbang;
#X obj 212 53 outlet;
#X obj 36 -17 r \$0_GG/record/onoff;
#X obj 35 4 select 0;
#X msg 37 26 0;
#X msg 70 25 127;
#X obj 204 -28 ctlin2;
#X obj 46 61 ctlout;
#X obj 204 -53 r \$0_GG/midi/rec;
#X connect 0 0 2 0;
#X connect 0 1 1 0;
#X connect 1 0 4 0;
#X connect 2 0 4 0;
#X connect 3 0 7 0;
#X connect 5 0 6 0;
#X connect 6 0 7 0;
#X connect 6 1 8 0;
#X connect 7 0 10 0;
#X connect 8 0 10 0;
#X connect 9 0 0 0;
#X connect 11 0 9 0;
#X connect 11 0 10 1;
#X restore 55 389 pd record;
#N canvas 332 16 300 185 vol 0;
#X obj 144 24 r \$0_GG/volume/s;
#X msg 21 126 volume \$1;
#X obj 21 150 outlet;
#X obj 144 106 change;
#X msg 94 78 set \$1;
#X obj 21 61 t f f;
#X obj 110 3 r \$0_GG/midi/vol;
#X obj 144 127 nrpn_out;
#X obj 21 41 nrpn_in;
#X connect 0 0 3 0;
#X connect 1 0 2 0;
#X connect 3 0 7 0;
#X connect 4 0 3 0;
#X connect 5 0 1 0;
#X connect 5 1 4 0;
#X connect 6 0 7 1;
#X connect 6 0 8 0;
#X connect 8 0 5 0;
#X restore 55 465 pd vol;
#N canvas 798 538 306 193 size 0;
#X obj 146 41 r \$0_GG/size/s;
#X obj 146 65 * 5;
#X obj 26 151 outlet;
#X msg 26 130 size \$1;
#X obj 25 108 / 5;
#X obj 124 132 change;
#X msg 83 93 set \$1;
#X obj 36 65 t f f;
#X obj 53 6 r \$0_GG/midi/size;
#X obj 36 42 nrpn_in;
#X obj 124 154 nrpn_out;
#X connect 0 0 1 0;
#X connect 1 0 5 0;
#X connect 3 0 2 0;
#X connect 4 0 3 0;
#X connect 5 0 10 0;
#X connect 6 0 5 0;
#X connect 7 0 4 0;
#X connect 7 1 6 0;
#X connect 8 0 9 0;
#X connect 8 0 10 1;
#X connect 9 0 7 0;
#X restore 321 446 pd size;
#N canvas 661 100 325 179 feedback 0;
#X obj 21 135 outlet;
#X obj 144 103 change;
#X msg 92 81 set \$1;
#X obj 21 57 t f f;
#X obj 144 32 r \$0_GG/feedback/s;
#X obj 21 79 / 500;
#X obj 144 52 * 500;
#X msg 21 114 feedback \$1;
#X obj 27 10 r \$0_GG/midi/feedback;
#X obj 21 37 nrpn_in;
#X obj 144 127 nrpn_out;
#X connect 1 0 10 0;
#X connect 2 0 1 0;
#X connect 3 0 5 0;
#X connect 3 1 2 0;
#X connect 4 0 6 0;
#X connect 5 0 7 0;
#X connect 6 0 1 0;
#X connect 7 0 0 0;
#X connect 8 0 9 0;
#X connect 8 0 10 1;
#X connect 9 0 3 0;
#X restore 321 560 pd feedback;
#N canvas 678 179 299 194 delay 0;
#X obj 21 135 outlet;
#X obj 145 103 change;
#X msg 94 78 set \$1;
#X obj 21 60 t f f;
#X msg 21 114 delay \$1;
#X obj 21 86 * 10;
#X obj 145 47 / 10;
#X obj 144 27 r \$0_GG/delay/s;
#X obj 21 39 nrpn_in;
#X obj 145 127 nrpn_out;
#X obj 13 11 r \$0_GG/midi/delay;
#X connect 1 0 9 0;
#X connect 2 0 1 0;
#X connect 3 0 5 0;
#X connect 3 1 2 0;
#X connect 4 0 0 0;
#X connect 5 0 4 0;
#X connect 6 0 1 0;
#X connect 7 0 6 0;
#X connect 8 0 3 0;
#X connect 10 0 8 0;
#X connect 10 0 9 1;
#X restore 321 538 pd delay;
#N canvas 798 538 306 193 spread1 0;
#X obj 143 52 * 5;
#X obj 23 138 outlet;
#X obj 22 95 / 5;
#X obj 121 119 change;
#X msg 80 80 set \$1;
#X obj 33 52 t f f;
#X msg 22 117 spread1 \$1;
#X obj 143 28 r \$0_GG/spread/1/s;
#X obj 39 6 r \$0_GG/midi/spread1;
#X obj 33 30 nrpn_in;
#X obj 121 142 nrpn_out;
#X connect 0 0 3 0;
#X connect 2 0 6 0;
#X connect 3 0 10 0;
#X connect 4 0 3 0;
#X connect 5 0 2 0;
#X connect 5 1 4 0;
#X connect 6 0 1 0;
#X connect 7 0 0 0;
#X connect 8 0 9 0;
#X connect 8 0 10 1;
#X connect 9 0 5 0;
#X restore 321 467 pd spread1;
#N canvas 798 538 306 193 spread2 0;
#X obj 143 52 * 5;
#X obj 23 138 outlet;
#X obj 22 95 / 5;
#X obj 121 119 change;
#X msg 80 80 set \$1;
#X obj 33 52 t f f;
#X msg 23 117 spread2 \$1;
#X obj 143 28 r \$0_GG/spread/2/s;
#X obj 33 5 r \$0_GG/midi/spread2;
#X obj 33 32 nrpn_in;
#X obj 121 142 nrpn_out;
#X connect 0 0 3 0;
#X connect 2 0 6 0;
#X connect 3 0 10 0;
#X connect 4 0 3 0;
#X connect 5 0 2 0;
#X connect 5 1 4 0;
#X connect 6 0 1 0;
#X connect 7 0 0 0;
#X connect 8 0 9 0;
#X connect 8 0 10 1;
#X connect 9 0 5 0;
#X restore 321 489 pd spread2;
#N canvas 798 538 306 193 spread3 0;
#X obj 23 138 outlet;
#X obj 121 119 change;
#X msg 80 80 set \$1;
#X obj 33 55 t f f;
#X obj 143 32 r \$0_GG/spread/3/s;
#X msg 23 117 spread3 \$1;
#X obj 143 56 * 2.5;
#X obj 22 95 / 2.5;
#X obj 33 9 r \$0_GG/midi/spread3;
#X obj 121 142 nrpn_out;
#X obj 33 33 nrpn_in;
#X connect 1 0 9 0;
#X connect 2 0 1 0;
#X connect 3 0 7 0;
#X connect 3 1 2 0;
#X connect 4 0 6 0;
#X connect 5 0 0 0;
#X connect 6 0 1 0;
#X connect 7 0 5 0;
#X connect 8 0 9 1;
#X connect 8 0 10 0;
#X connect 10 0 3 0;
#X restore 321 511 pd spread3;
#X floatatom 243 59 5 0 0 0 - - -;
#X text 279 36 btn;
#X floatatom 359 64 5 0 0 0 - - -;
#X text 395 43 wheel;
#X obj 171 245 f;
#X text 182 262 left;
#X obj 349 246 f;
#X text 359 262 right;
#X obj 230 83 select 0;
#X obj 135 115 t b b b;
#X obj 304 118 t b b b;
#X msg 377 377 clip \$1;
#X obj 188 220 t f f;
#X obj 218 242 * 5;
#X msg 228 373 lop \$1;
#X obj 468 136 r \$0_GG/clip/s;
#N canvas 0 0 324 237 switcher 0;
#X obj 120 109 spigot;
#X msg 145 87 1;
#X msg 178 88 0;
#X obj 39 36 inlet;
#X text 48 55 value;
#X obj 105 35 inlet;
#X obj 164 36 inlet;
#X text 102 53 on;
#X text 161 53 off;
#X obj 104 159 outlet;
#X connect 0 0 9 0;
#X connect 1 0 0 1;
#X connect 2 0 0 1;
#X connect 3 0 0 0;
#X connect 5 0 1 0;
#X connect 6 0 2 0;
#X restore 188 179 pd switcher;
#N canvas 0 0 324 237 switcher 0;
#X obj 120 109 spigot;
#X msg 145 87 1;
#X msg 178 88 0;
#X obj 39 36 inlet;
#X text 48 55 value;
#X obj 105 35 inlet;
#X obj 164 36 inlet;
#X text 102 53 on;
#X text 161 53 off;
#X obj 104 159 outlet;
#X connect 0 0 9 0;
#X connect 1 0 0 1;
#X connect 2 0 0 1;
#X connect 3 0 0 0;
#X connect 5 0 1 0;
#X connect 6 0 2 0;
#X restore 383 178 pd switcher;
#N canvas 0 0 324 237 switcher 0;
#X obj 120 109 spigot;
#X msg 145 87 1;
#X msg 178 88 0;
#X obj 39 36 inlet;
#X text 48 55 value;
#X obj 105 35 inlet;
#X obj 164 36 inlet;
#X text 102 53 on;
#X text 161 53 off;
#X obj 104 159 outlet;
#X connect 0 0 9 0;
#X connect 1 0 0 1;
#X connect 2 0 0 1;
#X connect 3 0 0 0;
#X connect 5 0 1 0;
#X connect 6 0 2 0;
#X restore 468 178 pd switcher;
#X floatatom 475 199 5 0 0 0 - - -;
#X obj 468 314 change;
#X msg 447 291 set \$1;
#X obj 386 226 t f f;
#X obj 417 270 t f f;
#N canvas 0 0 324 237 switcher 0;
#X obj 120 109 spigot;
#X msg 145 87 1;
#X msg 178 88 0;
#X obj 39 36 inlet;
#X text 48 55 value;
#X obj 105 35 inlet;
#X obj 164 36 inlet;
#X text 102 53 on;
#X text 161 53 off;
#X obj 104 159 outlet;
#X connect 0 0 9 0;
#X connect 1 0 0 1;
#X connect 2 0 0 1;
#X connect 3 0 0 0;
#X connect 5 0 1 0;
#X connect 6 0 2 0;
#X restore 95 178 pd switcher;
#X obj 75 87 r \$0_GG/lop/s;
#X floatatom 102 199 5 0 0 0 - - -;
#X msg 181 64 0;
#X obj 168 41 loadbang;
#X obj 280 311 change;
#X msg 259 289 set \$1;
#X obj 228 263 t f f;
#X obj 280 332 / 5;
#N canvas 108 0 563 303 ctldispatch 0;
#X text 118 8 dispatch controller numbers via sends;
#X obj 151 31 r \$0_GG/midibase;
#X floatatom 160 53 5 0 0 0 - - -;
#X text 200 53 base;
#X obj 379 146 s \$0_GG/midi/clip;
#X obj 379 166 s \$0_GG/midi/lop;
#X obj 363 186 s \$0_GG/midi/vol;
#X obj 151 73 t f f f f f f f f f f f f f f;
#X obj 373 106 + 2;
#X obj 347 106 + 3;
#X obj 321 106 + 4;
#X obj 295 106 + 5;
#X obj 270 106 + 6;
#X obj 245 106 + 7;
#X obj 220 106 + 8;
#X obj 195 106 + 9;
#X obj 163 106 + 10;
#X obj 131 106 + 11;
#X obj 99 106 + 12;
#X obj 67 106 + 13;
#X obj 398 106 + 1;
#X obj 424 106 + 0;
#X obj 338 207 s \$0_GG/midi/play;
#X obj 324 227 s \$0_GG/midi/rec;
#X obj 235 146 s \$0_GG/midi/wander;
#X obj 217 163 s \$0_GG/midi/size;
#X obj 189 183 s \$0_GG/midi/spread1;
#X obj 166 204 s \$0_GG/midi/spread2;
#X obj 81 145 s \$0_GG/midi/spread3;
#X obj 42 165 s \$0_GG/midi/delay;
#X obj 8 182 s \$0_GG/midi/feedback;
#X obj 424 127 s \$0_GG/midi/tog;
#X connect 1 0 2 0;
#X connect 1 0 7 0;
#X connect 7 0 19 0;
#X connect 7 1 18 0;
#X connect 7 2 17 0;
#X connect 7 3 16 0;
#X connect 7 4 15 0;
#X connect 7 5 14 0;
#X connect 7 6 13 0;
#X connect 7 7 12 0;
#X connect 7 8 11 0;
#X connect 7 9 10 0;
#X connect 7 10 9 0;
#X connect 7 11 8 0;
#X connect 7 12 20 0;
#X connect 7 13 21 0;
#X connect 8 0 4 0;
#X connect 8 0 5 0;
#X connect 9 0 6 0;
#X connect 11 0 22 0;
#X connect 12 0 23 0;
#X connect 13 0 24 0;
#X connect 14 0 25 0;
#X connect 15 0 26 0;
#X connect 16 0 27 0;
#X connect 17 0 28 0;
#X connect 18 0 29 0;
#X connect 19 0 30 0;
#X connect 21 0 31 0;
#X restore 14 28 pd ctldispatch;
#X obj 341 42 nrpn_in;
#X obj 341 22 r \$0_GG/midi/lop;
#X obj 230 36 ctlin2;
#X obj 211 11 r \$0_GG/midi/tog;
#X obj 517 332 r \$0_GG/midi/lop;
#X obj 468 356 nrpn_out;
#X obj 316 331 r \$0_GG/midi/lop;
#X obj 280 353 nrpn_out;
#X obj 104 283 r \$0_GG/midi/lop;
#X obj 172 314 nrpn_out;
#X obj 416 250 / 5;
#X obj 468 335 * 5;
#X connect 2 0 0 0;
#X connect 3 0 0 0;
#X connect 4 0 0 0;
#X connect 5 0 0 0;
#X connect 6 0 0 0;
#X connect 7 0 0 0;
#X connect 8 0 0 0;
#X connect 9 0 0 0;
#X connect 10 0 0 0;
#X connect 11 0 0 0;
#X connect 16 0 55 0;
#X connect 18 0 55 0;
#X connect 20 0 21 0;
#X connect 20 1 22 0;
#X connect 21 0 28 1;
#X connect 21 0 36 1;
#X connect 21 1 29 2;
#X connect 21 1 30 2;
#X connect 21 2 16 0;
#X connect 22 0 29 1;
#X connect 22 0 30 1;
#X connect 22 1 28 2;
#X connect 22 2 18 0;
#X connect 22 2 36 2;
#X connect 23 0 0 0;
#X connect 24 0 16 1;
#X connect 24 1 25 0;
#X connect 25 0 43 0;
#X connect 26 0 0 0;
#X connect 27 0 30 0;
#X connect 28 0 24 0;
#X connect 29 0 34 0;
#X connect 30 0 31 0;
#X connect 30 0 32 0;
#X connect 32 0 57 0;
#X connect 33 0 32 0;
#X connect 34 0 18 1;
#X connect 34 1 56 0;
#X connect 35 0 23 0;
#X connect 35 1 33 0;
#X connect 36 0 38 0;
#X connect 36 0 41 0;
#X connect 37 0 36 0;
#X connect 39 0 20 0;
#X connect 40 0 39 0;
#X connect 41 0 44 0;
#X connect 42 0 41 0;
#X connect 43 0 26 0;
#X connect 43 1 42 0;
#X connect 44 0 53 0;
#X connect 46 0 14 0;
#X connect 46 0 28 0;
#X connect 46 0 29 0;
#X connect 47 0 46 0;
#X connect 48 0 12 0;
#X connect 48 0 20 0;
#X connect 49 0 48 0;
#X connect 50 0 51 1;
#X connect 52 0 53 1;
#X connect 54 0 55 1;
#X connect 56 0 35 0;
#X connect 57 0 51 0;
#X restore 90 28 pd midictl;
#X obj 295 340 table \$0_granarr;
#N canvas 291 483 450 300 file-operations 1;
#X obj 40 9 r \$0_GG/loadfile;
#X obj 45 136 soundfiler;
#X obj 40 81 pack s f;
#X obj 70 55 \$0;
#X msg 40 109 read -resize \$1 \$2_granarr;
#X obj 40 32 t a b;
#X obj 10 270 print LOADING:;
#X obj 253 108 pack s f;
#X obj 283 82 \$0;
#X obj 253 59 t a b;
#X obj 253 36 r \$0_GG/savefile;
#X obj 268 163 soundfiler;
#X obj 233 239 print SAVING:;
#X obj 263 205 print dbg;
#X msg 253 137 write -wave \$1 \$2_granarr;
#X obj 56 223 s \$0_GG/wander/maxval;
#X obj 56 157 t f f;
#X msg 86 180 range 0 \$1;
#X obj 86 201 s \$0_GG/hslider/r;
#X obj 131 61 print blibb;
#X connect 0 0 5 0;
#X connect 1 0 16 0;
#X connect 2 0 4 0;
#X connect 2 0 19 0;
#X connect 3 0 2 1;
#X connect 4 0 1 0;
#X connect 4 0 6 0;
#X connect 5 0 2 0;
#X connect 5 1 3 0;
#X connect 7 0 14 0;
#X connect 8 0 7 1;
#X connect 9 0 7 0;
#X connect 9 1 8 0;
#X connect 10 0 9 0;
#X connect 14 0 11 0;
#X connect 14 0 12 0;
#X connect 14 0 13 0;
#X connect 16 0 15 0;
#X connect 16 1 17 0;
#X connect 17 0 18 0;
#X restore 291 374 pd file-operations;
#X obj 473 47 t b f;
#X obj 372 -23 r \$0_GG/wander/maxval;
#N canvas 100 516 483 365 recording 0;
#X obj 70 8 r \$0_GG/record/onoff;
#X msg 155 137 \; \$1_granarr resize \$2;
#X obj 155 114 pack f f;
#X obj 155 93 \$0;
#X obj 117 52 t b b b b;
#X obj 196 73 samplerate~;
#X obj 196 93 * 10;
#X text 231 95 10 sec max;
#X obj 136 175 timer;
#X obj 21 312 tabwrite~ \$0_granarr;
#X msg 55 260 stop;
#X obj 66 30 select 0;
#X obj 63 53 t b b b;
#X obj 190 313 s \$0_GG/wander/maxval;
#X msg 212 274 range 0 \$1;
#X obj 190 254 t f f f;
#X obj 212 293 s \$0_GG/hslider/r;
#X obj 205 193 samplerate~;
#X obj 205 214 / 1000;
#X obj 137 197 t f b;
#X obj 189 234 *;
#X obj 22 8 inlet~;
#X connect 0 0 11 0;
#X connect 2 0 1 0;
#X connect 3 0 2 0;
#X connect 4 0 9 0;
#X connect 4 1 8 0;
#X connect 4 2 3 0;
#X connect 4 3 5 0;
#X connect 5 0 6 0;
#X connect 6 0 2 1;
#X connect 8 0 19 0;
#X connect 10 0 9 0;
#X connect 11 0 12 0;
#X connect 11 1 4 0;
#X connect 12 0 10 0;
#X connect 12 1 3 0;
#X connect 12 2 8 1;
#X connect 14 0 16 0;
#X connect 15 0 13 0;
#X connect 15 1 14 0;
#X connect 15 2 2 1;
#X connect 17 0 18 0;
#X connect 18 0 20 1;
#X connect 19 0 20 0;
#X connect 19 1 17 0;
#X connect 20 0 15 0;
#X connect 21 0 9 0;
#X restore 308 452 pd recording;
#X obj 308 424 inlet~;
#X connect 1 0 2 0;
#X connect 2 0 45 0;
#X connect 2 1 44 0;
#X connect 17 0 56 0;
#X connect 19 0 2 6;
#X connect 20 0 19 0;
#X connect 21 0 20 0;
#X connect 22 0 38 0;
#X connect 36 0 37 0;
#X connect 40 0 2 4;
#X connect 41 0 2 3;
#X connect 42 0 2 2;
#X connect 43 0 2 1;
#X connect 44 0 9 0;
#X connect 45 0 8 0;
#X connect 46 0 17 0;
#X connect 48 0 1 0;
#X connect 49 0 2 0;
#X connect 51 0 50 0;
#X connect 51 1 50 2;
#X connect 52 0 2 5;
#X connect 53 0 37 0;
#X connect 56 0 50 0;
#X connect 56 1 16 0;
#X connect 57 0 51 0;
#X connect 59 0 58 0;
#X coords 0 -1 1 1 202 263 1 250 20;
