#N canvas 728 291 297 444 10;
#X obj 21 411 outlet~;
#X obj 20 25 inlet;
#X obj 125 24 inlet;
#X obj 109 233 pack f f;
#X obj 20 306 list;
#X obj 109 209 f;
#X obj 20 180 t b b;
#X obj 71 23 inlet;
#X obj 20 381 *~;
#X obj 176 147 samplerate~;
#X obj 176 167 / 1000;
#X obj 160 191 *;
#X obj 20 327 tabplay~ \$1;
#X text -5 9 start/stop;
#X text 68 9 size(ms);
#X text 128 9 position;
#X obj 201 24 inlet;
#X obj 30 60 loadbang;
#X text 196 8 tbl name;
#X obj 69 278 symbol;
#X msg 69 300 set \$1;
#X obj 20 153 metro \$2;
#X obj 92 169 \$3;
#X obj 82 121 \$2;
#N canvas 0 0 297 306 hanning 0;
#X text -6 3 hanning window to reduce clicks at edges;
#X obj 79 206 osc~;
#X obj 58 49 / 1000;
#X obj 72 115 /;
#X msg 60 92 1;
#X obj 58 70 t b f;
#X obj 56 137 f;
#X obj 79 161 t f b;
#X obj 79 247 +~ 0.5;
#X text 83 136 hann freq;
#X msg 109 184 0;
#X obj 79 227 /~ -2;
#X obj 59 29 inlet;
#X obj 1 29 inlet;
#X obj 80 270 outlet~;
#X connect 1 0 11 0;
#X connect 2 0 5 0;
#X connect 3 0 6 1;
#X connect 4 0 3 0;
#X connect 5 0 4 0;
#X connect 5 1 3 1;
#X connect 6 0 7 0;
#X connect 7 0 1 0;
#X connect 7 1 10 0;
#X connect 8 0 14 0;
#X connect 10 0 1 1;
#X connect 11 0 8 0;
#X connect 12 0 2 0;
#X connect 13 0 6 0;
#X restore 139 317 pd hanning;
#X obj 41 87 t b b b b;
#X connect 1 0 21 0;
#X connect 2 0 5 1;
#X connect 3 0 4 1;
#X connect 4 0 12 0;
#X connect 5 0 3 0;
#X connect 6 0 4 0;
#X connect 6 0 24 0;
#X connect 6 1 5 0;
#X connect 7 0 11 0;
#X connect 7 0 21 1;
#X connect 7 0 24 1;
#X connect 8 0 0 0;
#X connect 9 0 10 0;
#X connect 10 0 11 1;
#X connect 11 0 3 1;
#X connect 12 0 8 0;
#X connect 16 0 19 0;
#X connect 17 0 25 0;
#X connect 19 0 20 0;
#X connect 20 0 12 0;
#X connect 21 0 6 0;
#X connect 22 0 5 1;
#X connect 23 0 11 0;
#X connect 23 0 24 1;
#X connect 23 0 21 1;
#X connect 24 0 8 1;
#X connect 25 0 21 0;
#X connect 25 1 22 0;
#X connect 25 2 23 0;
#X connect 25 3 9 0;
