#N canvas 666 88 413 330 10;
#X obj 31 298 outlet~;
#X obj 310 91 samplerate~;
#X obj 310 110 / 1000;
#X text 193 0 spread1;
#X text 265 0 spread2;
#X obj 177 72 + 1;
#X obj 238 216 +;
#X obj 265 134 *;
#X obj 165 252 granule~ \$1;
#X obj 32 248 granule~ \$1;
#X obj 32 32 inlet;
#X obj 195 30 inlet;
#X obj 265 30 inlet;
#X obj 86 33 inlet;
#X obj 139 30 inlet;
#X text 145 16 pos;
#X obj 185 213 * 1.3;
#X obj 154 188 f;
#X obj 133 136 t b f;
#X obj 177 162 t b f;
#X obj 208 132 t b f;
#X obj 229 185 f;
#X obj 319 221 inlet;
#X text 314 205 tbl name;
#X obj 265 160 t b f;
#X text 201 13 size;
#X text 280 11 pos;
#X obj 312 41 loadbang;
#X obj 90 100 \$2;
#X text 88 18 size;
#X obj 246 98 \$4;
#X obj 205 51 \$3;
#X obj 252 69 t b b b b;
#X text 140 292 ...wish this was cleaner...;
#X obj 86 298 outlet~;
#X connect 1 0 2 0;
#X connect 2 0 7 1;
#X connect 5 0 19 0;
#X connect 6 0 8 2;
#X connect 7 0 24 0;
#X connect 8 0 34 0;
#X connect 9 0 0 0;
#X connect 10 0 9 0;
#X connect 10 0 8 0;
#X connect 11 0 5 0;
#X connect 12 0 7 0;
#X connect 13 0 9 1;
#X connect 13 0 18 0;
#X connect 14 0 9 2;
#X connect 14 0 20 0;
#X connect 16 0 8 1;
#X connect 17 0 16 0;
#X connect 18 0 17 0;
#X connect 18 1 17 1;
#X connect 19 0 17 0;
#X connect 19 1 16 1;
#X connect 20 0 21 0;
#X connect 20 1 21 1;
#X connect 21 0 6 0;
#X connect 22 0 8 3;
#X connect 22 0 9 3;
#X connect 24 0 21 0;
#X connect 24 1 6 1;
#X connect 27 0 9 0;
#X connect 27 0 8 0;
#X connect 27 0 32 0;
#X connect 28 0 9 1;
#X connect 28 0 18 0;
#X connect 30 0 7 0;
#X connect 31 0 5 0;
#X connect 32 0 30 0;
#X connect 32 1 31 0;
#X connect 32 2 28 0;
#X connect 32 3 1 0;
