#N canvas 589 223 308 147 10;
#X obj 11 96 outlet;
#X obj 11 9 inlet;
#X obj 11 74 spigot;
#X obj 48 31 keybang \$1;
#X obj 48 54 tgl 15 0 empty empty empty 0 -6 0 8 -262144 -1 -1 0 1
;
#X text 81 58 key turns spigot on and off with each hit;
#X text 83 98 relies on keybang;
#X connect 1 0 2 0;
#X connect 2 0 0 0;
#X connect 3 0 4 0;
#X connect 4 0 2 1;
