#N canvas 349 553 334 279 10;
#X obj 86 117 list split 0;
#X obj 29 59 t b f;
#X obj 84 58 list;
#X obj 56 81 + 1;
#X obj 85 138 t l l;
#X obj 134 162 list length;
#X obj 61 210 list split 0;
#X obj 133 187 - 1;
#X obj 95 233 outlet;
#X obj 75 20 inlet;
#X obj 29 21 inlet;
#X text 133 17 picks a single zero-based item;
#X text 130 30 out of a list;
#X text 15 2 item;
#X text 74 4 list;
#X text 159 90 jason :: noisybox.net;
#X obj 175 235 outlet;
#X text 130 52 2nd outlet bangs if out of range;
#X connect 0 0 4 0;
#X connect 0 2 16 0;
#X connect 1 0 2 0;
#X connect 1 1 3 0;
#X connect 2 0 0 0;
#X connect 3 0 0 1;
#X connect 4 0 6 0;
#X connect 4 1 5 0;
#X connect 5 0 7 0;
#X connect 6 1 8 0;
#X connect 7 0 6 1;
#X connect 9 0 2 1;
#X connect 10 0 1 0;
