#N canvas 468 53 298 160 10;
#X obj 42 10 inlet;
#X obj 54 114 outlet;
#X obj 42 34 t l l;
#X obj 77 63 list length;
#X obj 15 63 list-sum;
#X obj 55 90 /;
#X connect 0 0 2 0;
#X connect 2 0 4 0;
#X connect 2 1 3 0;
#X connect 3 0 5 1;
#X connect 4 0 5 0;
#X connect 5 0 1 0;
