#N canvas 35 362 492 517 10;
#X obj 69 23 inlet;
#X obj 141 24 inlet;
#X obj 183 142 list;
#X obj 126 143 t b f;
#X obj 109 187 list split;
#X obj 94 424 list append;
#X text 193 168 zero based;
#X obj 57 213 t l l;
#X obj 114 233 list length;
#X obj 57 272 list split;
#X obj 33 388 list append;
#X obj 209 28 inlet;
#X text 210 13 list;
#X text 142 9 index;
#X obj 94 475 outlet;
#X text 70 8 item;
#X text 259 24 sets an item at an index in a list;
#X obj 126 122 f;
#X obj 166 166 + 1;
#X obj 69 73 t b a;
#X obj 103 335 t a a;
#X obj 176 384 t l l;
#X obj 176 423 list append;
#X obj 176 447 list trim;
#X obj 112 387 list;
#X text 259 39 jason@noisybox.net;
#X obj 151 76 loadbang;
#X obj 151 98 \$1;
#X text 184 367 high side;
#X text 31 187 low side;
#X obj 114 253 - 1;
#X obj 187 343 bng 15 250 50 0 empty empty empty 17 7 0 10 -262144
-1 -1;
#X obj 32 308 route list symbol float bang;
#X obj 94 445 list trim;
#X obj 141 50 max 0;
#X connect 0 0 19 0;
#X connect 1 0 34 0;
#X connect 2 0 4 0;
#X connect 3 0 2 0;
#X connect 3 1 18 0;
#X connect 4 0 7 0;
#X connect 4 1 21 0;
#X connect 5 0 33 0;
#X connect 7 0 9 0;
#X connect 7 1 8 0;
#X connect 8 0 30 0;
#X connect 9 0 32 0;
#X connect 10 0 5 0;
#X connect 11 0 2 1;
#X connect 17 0 3 0;
#X connect 18 0 4 1;
#X connect 19 0 17 0;
#X connect 19 1 20 0;
#X connect 20 0 10 1;
#X connect 20 1 24 1;
#X connect 21 0 5 1;
#X connect 21 1 22 1;
#X connect 22 0 23 0;
#X connect 23 0 14 0;
#X connect 24 0 22 0;
#X connect 26 0 27 0;
#X connect 27 0 17 1;
#X connect 30 0 9 1;
#X connect 32 0 10 0;
#X connect 32 1 10 0;
#X connect 32 2 10 0;
#X connect 32 3 24 0;
#X connect 32 4 31 0;
#X connect 33 0 14 0;
#X connect 34 0 17 1;
