#N canvas 345 163 512 506 10;
#X obj 133 182 list length;
#X obj 91 34 inlet;
#X obj 192 31 inlet;
#X text 246 31 pad a list to a given length (with zeros);
#X text 192 13 list;
#X text 88 17 length;
#X obj 93 116 max;
#X obj 83 88 0;
#X obj 71 407 list split;
#X obj 53 304 t b f;
#X obj 116 469 outlet;
#X text 249 44 or trim to length if longer;
#X obj 81 212 -;
#X obj 51 243 moses 0;
#X text 98 243 expand;
#X text 17 243 trim;
#X obj 52 154 t f f;
#X obj 43 284 f;
#X msg 46 263 bang;
#X text 246 57 existing items are left unchanged;
#X msg 234 333 0;
#X obj 133 118 t l l l;
#X obj 233 356 list prepend;
#X obj 232 310 until;
#X obj 246 401 t l l;
#X obj 198 275 t b f b;
#X text 246 74 jason@noisybox.net;
#X obj 292 320 list append;
#X obj 120 359 list append;
#X obj 133 88 list append;
#X obj 199 433 list append;
#X obj 91 62 t b f b;
#X obj 116 278 route 0;
#X obj 117 297 t b b b;
#X connect 0 0 12 1;
#X connect 1 0 31 0;
#X connect 2 0 29 1;
#X connect 6 0 16 0;
#X connect 7 0 6 0;
#X connect 8 0 10 0;
#X connect 9 0 28 0;
#X connect 9 1 8 1;
#X connect 12 0 13 0;
#X connect 13 0 18 0;
#X connect 13 1 32 0;
#X connect 16 0 12 0;
#X connect 16 1 17 1;
#X connect 17 0 9 0;
#X connect 18 0 17 0;
#X connect 20 0 22 0;
#X connect 21 0 0 0;
#X connect 21 1 28 1;
#X connect 21 2 27 1;
#X connect 22 0 24 0;
#X connect 23 0 20 0;
#X connect 24 0 30 1;
#X connect 24 1 22 1;
#X connect 25 0 30 0;
#X connect 25 1 23 0;
#X connect 25 2 27 0;
#X connect 27 0 22 1;
#X connect 28 0 8 0;
#X connect 29 0 21 0;
#X connect 30 0 10 0;
#X connect 31 0 7 0;
#X connect 31 1 6 1;
#X connect 31 2 29 0;
#X connect 32 0 33 0;
#X connect 32 1 25 0;
#X connect 33 0 30 0;
#X connect 33 1 22 0;
#X connect 33 2 27 0;
