#N canvas 0 0 375 265 10;
#X obj 60 148 min;
#X obj 42 90 t f b;
#X obj 71 114 f;
#X obj 111 90 t f b;
#X obj 140 114 f;
#X obj 129 147 max;
#X obj 70 58 t f f;
#X obj 69 35 inlet;
#X obj 58 202 outlet;
#X obj 128 172 change;
#X obj 58 172 change;
#X obj 129 202 outlet;
#X obj 198 32 inlet;
#X text 236 33 bang to reset;
#X msg 199 56 0;
#X obj 194 79 t f f f f;
#X connect 0 0 2 1;
#X connect 0 0 10 0;
#X connect 1 0 0 0;
#X connect 1 1 2 0;
#X connect 2 0 0 1;
#X connect 3 0 5 0;
#X connect 3 1 4 0;
#X connect 4 0 5 1;
#X connect 5 0 4 1;
#X connect 5 0 9 0;
#X connect 6 0 1 0;
#X connect 6 1 3 0;
#X connect 7 0 6 0;
#X connect 9 0 11 0;
#X connect 10 0 8 0;
#X connect 12 0 14 0;
#X connect 14 0 15 0;
#X connect 15 0 0 0;
#X connect 15 1 0 1;
#X connect 15 2 5 0;
#X connect 15 3 5 1;
