#N canvas 299 345 682 484 10;
#X msg 458 68 bang;
#X msg 551 67 stop;
#N canvas 586 85 572 371 arrayselector 0;
#X obj 227 312 outlet;
#X obj 287 313 outlet;
#X obj 92 118 metro;
#X obj 92 146 bng 15 250 50 0 empty empty empty 0 -6 0 8 -262144 -1
-1;
#X obj 127 149 f;
#X floatatom 196 168 5 0 0 0 - - -;
#X obj 181 148 + 1;
#X msg 162 219 0;
#X obj 178 192 select 2;
#X obj 160 243 bng 15 250 50 0 empty empty empty 0 -6 0 8 -262144 -1
-1;
#X obj 229 238 bng 15 250 50 0 empty empty empty 0 -6 0 8 -262144 -1
-1;
#X obj 60 37 inlet;
#X text 102 37 start;
#X obj 219 34 inlet;
#X text 260 35 stop;
#X msg 66 74 bang;
#X obj 354 31 inlet;
#X text 381 48 go back time in seconds;
#X obj 351 77 * 1000;
#X msg 219 62 stop;
#X msg 228 288 bang;
#X obj 361 312 outlet;
#X obj 443 312 outlet;
#X msg 362 288 bang;
#X msg 143 68 1;
#X connect 2 0 3 0;
#X connect 2 0 4 0;
#X connect 4 0 6 0;
#X connect 6 0 4 1;
#X connect 6 0 5 0;
#X connect 6 0 8 0;
#X connect 7 0 4 1;
#X connect 7 0 9 0;
#X connect 8 0 7 0;
#X connect 8 0 20 0;
#X connect 8 1 10 0;
#X connect 8 1 23 0;
#X connect 11 0 15 0;
#X connect 11 0 24 0;
#X connect 13 0 19 0;
#X connect 15 0 2 0;
#X connect 16 0 18 0;
#X connect 18 0 2 1;
#X connect 19 0 2 0;
#X connect 19 0 22 0;
#X connect 19 0 1 0;
#X connect 20 0 0 0;
#X connect 23 0 21 0;
#X connect 24 0 4 0;
#X restore 336 208 pd arrayselector control;
#X obj 347 256 bng 15 250 50 0 empty empty empty 0 -6 0 8 -262144 -1
-1;
#X obj 444 256 bng 15 250 50 0 empty empty empty 0 -6 0 8 -262144 -1
-1;
#N canvas 325 56 531 586 playback 0;
#X obj 122 298 -;
#X floatatom 97 360 6 0 0 0 - - -;
#X obj 93 391 pack f f;
#X msg 94 412 \$1 \$2;
#X obj 155 478 bng 15 250 50 0 empty empty empty 0 -6 0 8 -262144 -1
-1;
#X obj 122 318 * 44.1;
#X obj 126 165 timer;
#X obj 193 163 timer;
#X floatatom 143 197 6 0 0 0 - - -;
#X floatatom 218 197 6 0 0 0 - - -;
#X obj 136 220 moses;
#X obj 201 226 moses;
#X obj 191 47 inlet;
#X text 232 44 start playing;
#X obj 359 41 inlet;
#X text 402 40 goback time (s);
#X obj 74 526 outlet~;
#X obj 18 54 inlet;
#X obj 62 53 inlet;
#X text 16 36 left;
#X text 58 33 right;
#X obj 350 119 * 44100;
#X obj 342 97 * 1000;
#X text 409 120 in samples;
#X text 386 97 in ms;
#X msg 190 69 bang;
#X msg 116 339 bang;
#X obj 324 299 -;
#X floatatom 298 363 6 0 0 0 - - -;
#X obj 295 392 pack f f;
#X msg 296 413 \$1 \$2;
#X obj 324 319 * 44.1;
#X msg 318 340 bang;
#X obj 358 483 bng 15 250 50 0 empty empty empty 0 -6 0 8 -262144 -1
-1;
#X msg 37 159 stop;
#X obj 285 462 tabplay~ \$0_rt;
#X obj 73 456 tabplay~ \$0_lt;
#X obj 130 51 inlet;
#X floatatom 361 150 5 0 0 0 - - -;
#X msg 126 249 1;
#X msg 204 267 1;
#X obj 179 291 *;
#X msg 161 249 0;
#X msg 234 267 0;
#X obj 231 315 select 1;
#X obj 178 418 pack f f;
#X msg 192 394 0;
#X obj 259 526 bng 15 250 50 0 empty empty empty 0 -6 0 8 -262144 -1
-1;
#X obj 177 503 tabplay~ \$0_lt;
#X msg 185 441 \$1 \$2;
#X obj 228 391 * 44.1;
#X obj 175 368 spigot;
#X connect 0 0 5 0;
#X connect 1 0 2 0;
#X connect 2 0 3 0;
#X connect 3 0 36 0;
#X connect 5 0 1 0;
#X connect 6 0 8 0;
#X connect 6 0 10 0;
#X connect 6 0 50 0;
#X connect 7 0 9 0;
#X connect 7 0 11 0;
#X connect 10 0 39 0;
#X connect 10 1 0 0;
#X connect 10 1 42 0;
#X connect 11 0 40 0;
#X connect 11 1 27 0;
#X connect 11 1 43 0;
#X connect 12 0 25 0;
#X connect 14 0 22 0;
#X connect 14 0 21 0;
#X connect 17 0 6 0;
#X connect 17 0 34 0;
#X connect 18 0 7 0;
#X connect 18 0 34 0;
#X connect 21 0 2 1;
#X connect 21 0 29 1;
#X connect 21 0 38 0;
#X connect 22 0 0 1;
#X connect 22 0 11 1;
#X connect 22 0 10 1;
#X connect 22 0 27 1;
#X connect 25 0 7 1;
#X connect 25 0 6 1;
#X connect 26 0 1 0;
#X connect 27 0 31 0;
#X connect 28 0 29 0;
#X connect 29 0 30 0;
#X connect 30 0 35 0;
#X connect 31 0 28 0;
#X connect 32 0 28 0;
#X connect 34 0 35 0;
#X connect 34 0 36 0;
#X connect 34 0 48 0;
#X connect 35 0 16 0;
#X connect 35 1 33 0;
#X connect 35 1 32 0;
#X connect 36 0 16 0;
#X connect 36 1 4 0;
#X connect 36 1 26 0;
#X connect 37 0 6 0;
#X connect 37 0 7 0;
#X connect 39 0 41 0;
#X connect 40 0 41 1;
#X connect 41 0 44 0;
#X connect 41 0 51 1;
#X connect 42 0 41 0;
#X connect 43 0 41 1;
#X connect 45 0 49 0;
#X connect 46 0 45 0;
#X connect 48 0 16 0;
#X connect 48 1 47 0;
#X connect 48 1 51 0;
#X connect 49 0 48 0;
#X connect 50 0 45 1;
#X connect 50 0 51 0;
#X connect 51 0 46 0;
#X restore 479 388 pd playback control;
#X text 468 37 run;
#X text 556 39 goback;
#X obj 280 27 inlet~;
#X obj 480 442 outlet~;
#X obj 96 62 loadbang;
#X msg 60 195 \; \$2 resize \$1;
#X obj 62 175 pack f s;
#X obj 16 13 table \$0_lt;
#X obj 16 34 table \$0_rt;
#X obj 127 116 symbol \$0_lt;
#X obj 303 362 tabwrite~ \$0_lt;
#X obj 418 361 tabwrite~ \$0_rt;
#X obj 57 121 \$1;
#X obj 462 23 inlet;
#X obj 550 21 inlet;
#X msg 43 273 \; \$2 resize \$1;
#X obj 43 253 pack f s;
#X obj 94 229 symbol \$0_rt;
#X obj 190 362 line;
#X msg 211 335 0 15;
#X obj 155 393 *~;
#X msg 207 312 1 15;
#X obj 31 92 delay 1;
#X text 14 73 lame!;
#X obj 381 24 loadbang;
#X obj 382 44 delay 3;
#X obj 49 151 * 88200;
#X text 32 447 couldn't be messier!;
#X text 33 460 there's gotta be a simpler way....;
#X obj 594 137 r \$0_stop;
#X text 109 151 TODO: Use samplerate!;
#X connect 0 0 2 0;
#X connect 0 0 27 0;
#X connect 0 0 5 2;
#X connect 1 0 2 1;
#X connect 1 0 5 3;
#X connect 1 0 25 0;
#X connect 2 0 3 0;
#X connect 2 0 5 0;
#X connect 2 0 16 0;
#X connect 2 1 16 0;
#X connect 2 2 4 0;
#X connect 2 2 5 1;
#X connect 2 2 17 0;
#X connect 2 3 17 0;
#X connect 5 0 9 0;
#X connect 8 0 16 0;
#X connect 8 0 17 0;
#X connect 8 0 26 0;
#X connect 10 0 15 0;
#X connect 10 0 23 0;
#X connect 10 0 28 0;
#X connect 12 0 11 0;
#X connect 15 0 12 1;
#X connect 18 0 2 2;
#X connect 18 0 5 4;
#X connect 18 0 32 0;
#X connect 19 0 0 0;
#X connect 20 0 1 0;
#X connect 22 0 21 0;
#X connect 23 0 22 1;
#X connect 24 0 26 1;
#X connect 25 0 24 0;
#X connect 26 0 9 0;
#X connect 27 0 24 0;
#X connect 28 0 18 0;
#X connect 30 0 31 0;
#X connect 31 0 0 0;
#X connect 32 0 12 0;
#X connect 32 0 22 0;
