#N canvas 276 335 623 566 12;
#X obj 19 16 inlet;
#X obj 74 18 loadbang;
#X floatatom 101 72 5 0 0 0 - - -;
#X obj 73 45 samplerate~;
#X obj 19 129 *;
#X obj 73 95 / 1000;
#X obj 18 166 outlet;
#X text 113 126 convert millis to samples;
#X connect 0 0 4 0;
#X connect 1 0 3 0;
#X connect 3 0 2 0;
#X connect 3 0 5 0;
#X connect 4 0 6 0;
#X connect 5 0 4 1;
