#N canvas 290 181 881 1080 10;
#X obj 174 43 inlet;
#X obj 40 357 outlet;
#X obj 40 65 nrpn_in \$1;
#X obj 192 270 nrpn_out \$1;
#X text 23 425 an external control.;
#X text 20 503 jason plumb :: noisybox.net;
#X text 146 24 input from pd ctrl;
#X text 21 474 creation arg 1 = nrpn controller number;
#X text 23 413 pd UI control synchronized with;
#X text 24 401 midi nrpn helper to keep a;
#X text 21 487 creation arg 2 = midi channel number;
#X obj 60 92 select -1;
#X msg 60 121 1;
#X msg 98 120 0;
#X obj 40 147 spigot;
#X obj 255 50 inlet;
#X text 272 67 channel;
#X text 21 442 THIS REQUIRES EXTERNAL RANGE ADJUSTMENTS;
#X text 20 456 MAKE ME BETTER PLZ;
#X obj 40 196 change;
#X obj 166 159 change;
#X connect 0 0 20 0;
#X connect 2 0 14 0;
#X connect 2 1 11 0;
#X connect 11 0 12 0;
#X connect 11 1 13 0;
#X connect 12 0 14 1;
#X connect 13 0 14 1;
#X connect 14 0 19 0;
#X connect 15 0 11 1;
#X connect 15 0 3 2;
#X connect 19 0 1 0;
#X connect 20 0 3 0;
