#N canvas 0 0 293 166 10;
#X obj 9 38 inlet;
#X obj 61 138 outlet;
#X obj 9 59 route on off;
#X obj 88 80 select 0;
#X msg 101 113 1;
#X msg 49 113 0;
#X text 10 20 Converts to 1/0;
#X text 9 7 Handle on/off nonzero/zero;
#X connect 0 0 2 0;
#X connect 2 0 4 0;
#X connect 2 1 5 0;
#X connect 2 2 3 0;
#X connect 3 0 5 0;
#X connect 3 1 4 0;
#X connect 4 0 1 0;
#X connect 5 0 1 0;
