#N canvas 26 577 477 350 10;
#X obj 27 89 OSCroute /p5glove;
#X obj 27 122 OSCroute /buttons /fingers /position /rotation;
#X obj 27 62 r rcvOSC;
#X obj 381 94 s rcvOSC;
#N canvas 90 241 297 213 buttons 0;
#X obj 42 34 unpack f f f;
#X obj 42 10 inlet;
#X obj 14 159 s p5_btn1;
#X obj 82 159 s p5_btn2;
#X obj 152 158 s p5_btn3;
#X obj 15 113 select 1;
#X obj 15 68 change;
#X msg 15 139 bang;
#X obj 78 114 select 1;
#X obj 78 66 change;
#X msg 82 139 bang;
#X obj 140 115 select 1;
#X obj 140 66 change;
#X msg 152 137 bang;
#X obj 172 91 s p5_mbtn3;
#X obj 95 91 s p5_mbtn2;
#X obj 21 91 s p5_mbtn1;
#X connect 0 0 6 0;
#X connect 0 1 9 0;
#X connect 0 2 12 0;
#X connect 1 0 0 0;
#X connect 5 0 7 0;
#X connect 6 0 5 0;
#X connect 6 0 16 0;
#X connect 7 0 2 0;
#X connect 8 0 10 0;
#X connect 9 0 8 0;
#X connect 9 0 15 0;
#X connect 10 0 3 0;
#X connect 11 0 13 0;
#X connect 12 0 11 0;
#X connect 12 0 14 0;
#X connect 13 0 4 0;
#X restore 27 149 pd buttons;
#N canvas 145 16 297 176 fingers 0;
#X obj 11 35 unpack f f f f f;
#X obj 11 10 inlet;
#X obj 11 59 s p5_thumb;
#X obj 36 79 s p5_index;
#X obj 63 99 s p5_middle;
#X obj 91 119 s p5_ring;
#X obj 118 139 s p5_pinky;
#N canvas 23 264 450 300 makefist 0;
#X obj 26 62 moses 0.75;
#X obj 106 61 moses 0.75;
#X obj 188 61 moses 0.75;
#X obj 270 61 moses 0.75;
#X obj 351 62 moses 0.75;
#X obj 60 174 f;
#X obj 124 176 f;
#X obj 191 175 f;
#X obj 277 176 f;
#X msg 8 139 bang;
#X obj 89 197 *;
#X msg 153 83 1;
#X msg 106 83 0;
#X msg 72 83 1;
#X msg 25 83 0;
#X msg 317 83 1;
#X msg 270 83 0;
#X msg 236 83 1;
#X msg 190 83 0;
#X msg 399 84 1;
#X msg 190 83 0;
#X msg 352 84 0;
#X obj 358 175 f;
#X obj 157 194 *;
#X obj 241 196 *;
#X obj 320 196 *;
#X obj 25 38 change;
#X obj 106 39 change;
#X obj 187 40 change;
#X obj 272 38 change;
#X obj 344 39 change;
#X obj 319 216 change;
#X text 7 226 threshold for a finger is 0.75;
#X text 6 241 this is just a reasonable guess...;
#X text 6 255 could be made better (adjustable);
#X obj 256 238 select 1;
#X msg 256 257 bang;
#X obj 256 278 s p5_fistbang;
#X obj 324 238 s p5_mfist;
#X obj 25 17 inlet;
#X obj 106 17 inlet;
#X obj 187 17 inlet;
#X obj 272 17 inlet;
#X obj 344 17 inlet;
#X connect 0 0 14 0;
#X connect 0 1 13 0;
#X connect 1 0 12 0;
#X connect 1 1 11 0;
#X connect 2 0 18 0;
#X connect 2 0 20 0;
#X connect 2 1 17 0;
#X connect 3 0 16 0;
#X connect 3 1 15 0;
#X connect 4 0 21 0;
#X connect 4 1 19 0;
#X connect 5 0 10 0;
#X connect 6 0 10 1;
#X connect 7 0 23 1;
#X connect 8 0 24 1;
#X connect 9 0 5 0;
#X connect 9 0 6 0;
#X connect 9 0 7 0;
#X connect 9 0 8 0;
#X connect 9 0 22 0;
#X connect 10 0 23 0;
#X connect 11 0 6 1;
#X connect 11 0 9 0;
#X connect 12 0 6 1;
#X connect 12 0 9 0;
#X connect 13 0 5 1;
#X connect 13 0 9 0;
#X connect 14 0 5 1;
#X connect 14 0 9 0;
#X connect 15 0 8 1;
#X connect 15 0 9 0;
#X connect 16 0 8 1;
#X connect 16 0 9 0;
#X connect 17 0 7 1;
#X connect 17 0 9 0;
#X connect 19 0 22 1;
#X connect 19 0 9 0;
#X connect 20 0 7 1;
#X connect 20 0 9 0;
#X connect 21 0 22 1;
#X connect 21 0 9 0;
#X connect 22 0 25 1;
#X connect 23 0 24 0;
#X connect 24 0 25 0;
#X connect 25 0 31 0;
#X connect 26 0 0 0;
#X connect 27 0 1 0;
#X connect 28 0 2 0;
#X connect 29 0 3 0;
#X connect 30 0 4 0;
#X connect 31 0 38 0;
#X connect 31 0 35 0;
#X connect 35 0 36 0;
#X connect 36 0 37 0;
#X connect 39 0 26 0;
#X connect 40 0 27 0;
#X connect 41 0 28 0;
#X connect 42 0 29 0;
#X connect 43 0 30 0;
#X restore 170 68 pd makefist;
#X connect 0 0 2 0;
#X connect 0 0 7 0;
#X connect 0 1 3 0;
#X connect 0 1 7 1;
#X connect 0 2 4 0;
#X connect 0 2 7 2;
#X connect 0 3 5 0;
#X connect 0 3 7 3;
#X connect 0 4 6 0;
#X connect 0 4 7 4;
#X connect 1 0 0 0;
#X restore 106 149 pd fingers;
#N canvas 23 6 304 141 position 0;
#X obj 47 43 unpack f f f;
#X obj 47 20 inlet;
#X obj 32 76 s p5_x;
#X obj 127 75 s p5_z;
#X obj 80 75 s p5_y;
#X connect 0 0 2 0;
#X connect 0 1 4 0;
#X connect 0 2 3 0;
#X connect 1 0 0 0;
#X restore 185 148 pd position;
#N canvas 81 117 295 158 rotation 0;
#X obj 19 37 unpack f f f f;
#X obj 19 10 inlet;
#X obj 19 59 s p5_roll;
#X obj 50 79 s p5_pitch;
#X obj 82 99 s p5_yaw;
#X obj 112 118 s p5_angle;
#X connect 0 0 2 0;
#X connect 0 1 3 0;
#X connect 0 2 4 0;
#X connect 0 3 5 0;
#X connect 1 0 0 0;
#X restore 273 147 pd rotation;
#X obj 381 73 dumpOSC \$1;
#X text 230 74 as creation param -->;
#X text 230 60 Must provide a port;
#X text 29 251 p5_mbtn1 \, p5_mbtn2 \, p5_mbtn3 \, p5_btn1 \, p5_btn2
\, p5_btn3 \, p5_thumb \, p5_index \, p5_middle \, p5_ring \, p5_pinky
\, p5_x \, p5_y \, p5_z p5_roll \, p5_pitch \, p5_yaw \, p5_angle;
#X text 24 225 All messages are prefixed with p5_;
#X text 22 236 ===========================================================
;
#X text 21 291 ===========================================================
;
#X text 32 311 More details:;
#N canvas 419 160 632 534 p5 0;
#X text 14 10 Documentation for p5glove messages;
#X text 13 23 ===========================================================
;
#X text 14 35 Buttons:;
#X text 12 126 ===========================================================
;
#X text 24 50 p5_mbtn1 :: Momentary button 1 output (1 or 0);
#X text 24 63 p5_mbtn2 :: Momentary button 2 output (1 or 0);
#X text 24 75 p5_mbtn3 :: Momentary button 3 output (1 or 0);
#X text 24 87 p5_btn1 :: Outputs bang when button 1 pressed;
#X text 24 100 p5_btn2 :: Outputs bang when button 2 pressed;
#X text 24 112 p5_btn3 :: Outputs bang when button 3 pressed;
#X text 16 137 Fingers:;
#X text 26 152 p5_thumb :: Thumb bend float (range 0-1);
#X text 26 165 p5_index :: Index finger bend float (range 0-1);
#X text 26 179 p5_middle :: Middle finger bend float (range 0-1);
#X text 26 192 p5_ring :: Ring finger bend float (range 0-1);
#X text 26 206 p5_pinky :: Pinky finger bend float (range 0-1);
#X text 12 220 ===========================================================
;
#X text 18 233 Position:;
#X text 27 248 p5_x :: glove X position (range approx -0.3 to 0.3)
;
#X text 27 261 p5_y :: glove Y position (range approx -0.3 to 0.3)
;
#X text 27 274 p5_z :: glove Z position (range approx -0.3 to 0.3)
;
#X text 13 291 ===========================================================
;
#X text 19 304 Rotation/Orientation:;
#X text 16 373 ===========================================================
;
#X text 22 386 Misc:;
#X text 28 319 p5_roll :: roll angle (range ???);
#X text 28 332 p5_pitch :: pitch angle (range ???);
#X text 28 345 p5_yaw :: yaw angle (range ???);
#X text 28 400 p5_fistbang :: tries to output bang when a fist is made
;
#X text 28 413 p5_mfist :: 1 when fist is made \, 0 otherwise;
#X text 28 358 p5_angle :: I'm not sure...it's from libp5glove :);
#X restore 129 310 pd p5 message documentation;
#X text 24 186 The above serves to send messages. There's no direct
outlet from the p5glove abstraction.;
#X text 29 7 p5glove patch hack by jason plumb -- http://noisybox.net
;
#X text 29 22 depends on p5osc program to send OSC messages to it.
;
#X connect 0 0 1 0;
#X connect 1 0 4 0;
#X connect 1 1 5 0;
#X connect 1 2 6 0;
#X connect 1 3 7 0;
#X connect 2 0 0 0;
#X connect 8 0 3 0;
