#N canvas 11 391 643 397 10;
#X obj 19 24 inlet~;
#X obj 54 322 delwrite~ \$0_dl 5000;
#X obj 60 108 delread~ \$0_dl 50;
#X obj 60 84 \$1;
#X obj 60 56 loadbang;
#X obj 19 356 outlet~;
#X obj 19 142 hip~ 5;
#X floatatom 90 169 5 0 1 0 - - -;
#X obj 55 220 *~ 0.5;
#X obj 90 136 \$2;
#X obj 98 25 inlet;
#X obj 159 24 inlet;
#X obj 20 167 /~ 2;
#X text 21 8 audio;
#X text 83 9 delay(ms);
#X text 161 10 feedback;
#X text 216 324 pitch shifting feedback delay line capable of handling
up to 5 seconds. inputs are signal \, delay time (ms) \, and feedback
amount (which defaults to 0.5) -jason plumb;
#X obj 225 24 inlet;
#X text 224 8 pitcher;
#X obj 143 134 \$3;
#X obj 54 260 l_pitchScale~ 1;
#X floatatom 134 284 5 0 0 0 - - -;
#X obj 88 296 *~ 4;
#X obj 159 163 clip 0.5 2;
#X obj 205 199 - 0.5;
#X obj 205 219 / 1.5;
#X floatatom 205 240 5 0 0 0 - - -;
#X obj 289 22 inlet;
#X text 311 40 multiplier \, only for dev really;
#X text 313 123 * ~8.5 when pitch 0.5;
#X text 312 139 * ~4.5 when pitch 1.4;
#X connect 0 0 6 0;
#X connect 2 0 6 0;
#X connect 3 0 2 0;
#X connect 4 0 3 0;
#X connect 4 0 9 0;
#X connect 4 0 19 0;
#X connect 6 0 12 0;
#X connect 6 0 8 0;
#X connect 7 0 8 1;
#X connect 8 0 20 0;
#X connect 9 0 7 0;
#X connect 10 0 2 0;
#X connect 11 0 7 0;
#X connect 12 0 5 0;
#X connect 17 0 20 1;
#X connect 17 0 23 0;
#X connect 19 0 23 0;
#X connect 20 0 22 0;
#X connect 21 0 22 1;
#X connect 22 0 1 0;
#X connect 23 0 20 1;
#X connect 23 0 24 0;
#X connect 24 0 25 0;
#X connect 25 0 26 0;
#X connect 27 0 21 0;
