#N canvas 370 249 597 484 10;
#N canvas 52 71 466 438 previous-analysis 0;
#X obj 34 20 table \$0_last-real;
#X obj 238 19 table \$0_last-imag;
#X obj 34 152 table \$0_phase-real;
#X obj 235 158 table \$0_phase-imag;
#X obj 32 284 table \$0_inc-real;
#X obj 237 283 table \$0_inc-imag;
#X obj 35 43 loadbang;
#X obj 35 62 symbol \$0_last-real;
#X obj 237 62 symbol \$0_last-imag;
#X obj 35 195 symbol \$0_phase-real;
#X obj 236 199 symbol \$0_phase-imag;
#X obj 34 325 symbol \$0_inc-real;
#X obj 238 327 symbol \$0_inc-imag;
#X msg 36 82 \; \$1 resize 2048 \;;
#X obj 237 42 loadbang;
#X msg 238 81 \; \$1 resize 2048 \;;
#X msg 238 220 \; \$1 resize 2048 \;;
#X msg 35 218 \; \$1 resize 2048 \;;
#X obj 35 172 loadbang;
#X obj 235 177 loadbang;
#X msg 238 348 \; \$1 resize 2048 \;;
#X msg 33 347 \; \$1 resize 2048 \;;
#X obj 34 304 loadbang;
#X obj 237 304 loadbang;
#X connect 6 0 7 0;
#X connect 7 0 13 0;
#X connect 8 0 15 0;
#X connect 9 0 17 0;
#X connect 10 0 16 0;
#X connect 11 0 21 0;
#X connect 12 0 20 0;
#X connect 14 0 8 0;
#X connect 18 0 9 0;
#X connect 19 0 10 0;
#X connect 22 0 11 0;
#X connect 23 0 12 0;
#X restore 422 312 pd previous-analysis;
#N canvas 180 77 866 679 fft 0;
#X obj 14 640 *~;
#X obj 422 576 *~;
#X obj 396 576 *~;
#X obj 480 576 *~;
#X obj 455 576 *~;
#X obj 455 598 +~;
#X obj 395 601 -~;
#X obj 138 480 *~;
#X obj 531 332 -~;
#X obj 505 528 +~;
#X obj 531 528 *~;
#X obj 458 330 -~;
#X obj 431 526 +~;
#X obj 458 526 *~;
#X obj 159 336 -~;
#X obj 133 373 +~;
#X obj 159 373 *~;
#X obj 201 138 *~;
#X obj 172 138 *~;
#X obj 172 159 +~;
#X obj 351 288 *~;
#X obj 325 288 *~;
#X obj 404 115 *~;
#X obj 379 115 *~;
#X obj 336 116 *~;
#X obj 311 116 *~;
#X obj 181 408 *~;
#X obj 154 409 *~;
#X obj 198 39 *~;
#X obj 14 662 outlet~;
#X obj 14 615 *~;
#X obj 537 561 block~ 2048 4;
#X obj 235 10 inlet~;
#X obj 198 58 rfft~;
#X obj 30 591 rifft~;
#X obj 154 431 rsqrt~;
#X obj 311 138 +~;
#X obj 379 137 -~;
#X obj 325 309 +~;
#X obj 75 335 -~;
#X obj 48 372 +~;
#X obj 75 372 *~;
#X obj 51 479 *~;
#X obj 191 454 r gain;
#X obj 52 618 sig~ 0.0002;
#X obj 60 217 *~ 0;
#X obj 154 453 *~ 0;
#N canvas 167 161 699 396 decision 0;
#X obj 63 32 inlet~;
#X obj 64 272 outlet~;
#X obj 64 114 -~;
#X obj 64 157 clip~ 0 1;
#X obj 64 135 *~ 1e+20;
#X obj 135 31 inlet~;
#X text 139 136 1 if new sig;
#X text 138 147 stronger than;
#X text 140 159 old one;
#X obj 245 130 -~;
#X obj 259 105 lrshift~ 1;
#X obj 245 178 clip~ 0 1;
#X obj 245 156 *~ 1e+20;
#X obj 421 130 -~;
#X obj 421 178 clip~ 0 1;
#X obj 421 156 *~ 1e+20;
#X obj 435 105 lrshift~ -1;
#X obj 64 214 *~;
#X obj 64 243 *~;
#X connect 0 0 2 0;
#X connect 0 0 10 0;
#X connect 0 0 9 0;
#X connect 0 0 13 0;
#X connect 0 0 16 0;
#X connect 2 0 4 0;
#X connect 3 0 17 0;
#X connect 4 0 3 0;
#X connect 5 0 2 1;
#X connect 9 0 12 0;
#X connect 10 0 9 1;
#X connect 11 0 17 1;
#X connect 12 0 11 0;
#X connect 13 0 15 0;
#X connect 14 0 18 1;
#X connect 15 0 14 0;
#X connect 16 0 13 1;
#X connect 17 0 18 0;
#X connect 18 0 1 0;
#X restore 253 334 pd decision;
#X obj 391 626 +~ 1e-15;
#X obj 46 540 +~ 1e-15;
#X obj 18 16 tabreceive~ \$0_hanning-window;
#X obj 30 99 tabsend~ \$0_last-real;
#X obj 30 130 tabsend~ \$0_last-imag;
#X obj 354 40 tabreceive~ \$0_last-real;
#X obj 414 62 tabreceive~ \$0_last-imag;
#X obj 430 202 tabreceive~ \$0_phase-real;
#X obj 502 225 tabreceive~ \$0_phase-imag;
#X obj 453 620 tabsend~ \$0_phase-imag;
#X obj 391 649 tabsend~ \$0_phase-real;
#X obj 46 560 tabsend~ \$0_inc-real;
#X obj 64 519 tabsend~ \$0_inc-imag;
#X obj 69 278 tabreceive~ \$0_inc-imag;
#X obj 35 255 tabreceive~ \$0_inc-real;
#X connect 0 0 29 0;
#X connect 1 0 6 1;
#X connect 2 0 6 0;
#X connect 3 0 5 1;
#X connect 4 0 5 0;
#X connect 5 0 57 0;
#X connect 6 0 48 0;
#X connect 7 0 1 0;
#X connect 7 0 3 0;
#X connect 7 0 60 0;
#X connect 8 0 10 0;
#X connect 9 0 34 1;
#X connect 9 0 1 1;
#X connect 9 0 4 1;
#X connect 10 0 9 1;
#X connect 11 0 13 0;
#X connect 12 0 34 0;
#X connect 12 0 2 1;
#X connect 12 0 3 1;
#X connect 13 0 12 1;
#X connect 14 0 16 0;
#X connect 15 0 26 0;
#X connect 15 0 26 1;
#X connect 15 0 7 0;
#X connect 16 0 15 1;
#X connect 17 0 19 1;
#X connect 18 0 19 0;
#X connect 19 0 47 0;
#X connect 20 0 38 1;
#X connect 21 0 38 0;
#X connect 22 0 37 1;
#X connect 23 0 37 0;
#X connect 24 0 36 1;
#X connect 25 0 36 0;
#X connect 26 0 35 0;
#X connect 27 0 35 0;
#X connect 28 0 33 0;
#X connect 30 0 0 0;
#X connect 32 0 28 1;
#X connect 33 0 25 0;
#X connect 33 0 22 0;
#X connect 33 0 18 0;
#X connect 33 0 18 1;
#X connect 33 0 11 0;
#X connect 33 0 51 0;
#X connect 33 1 24 0;
#X connect 33 1 23 0;
#X connect 33 1 17 0;
#X connect 33 1 17 1;
#X connect 33 1 8 0;
#X connect 33 1 52 0;
#X connect 34 0 30 1;
#X connect 35 0 46 0;
#X connect 36 0 39 0;
#X connect 36 0 45 0;
#X connect 37 0 14 0;
#X connect 38 0 47 1;
#X connect 39 0 41 0;
#X connect 40 0 27 0;
#X connect 40 0 27 1;
#X connect 40 0 42 0;
#X connect 41 0 40 1;
#X connect 42 0 2 0;
#X connect 42 0 4 0;
#X connect 42 0 49 0;
#X connect 43 0 46 1;
#X connect 44 0 0 1;
#X connect 45 0 51 0;
#X connect 45 0 52 0;
#X connect 46 0 42 1;
#X connect 46 0 7 1;
#X connect 47 0 41 1;
#X connect 47 0 16 1;
#X connect 47 0 13 1;
#X connect 47 0 10 1;
#X connect 48 0 58 0;
#X connect 49 0 59 0;
#X connect 50 0 28 0;
#X connect 50 0 30 0;
#X connect 53 0 25 1;
#X connect 53 0 23 1;
#X connect 54 0 24 1;
#X connect 54 0 22 1;
#X connect 55 0 21 0;
#X connect 55 0 21 1;
#X connect 55 0 12 0;
#X connect 55 0 11 1;
#X connect 56 0 20 0;
#X connect 56 0 20 1;
#X connect 56 0 9 0;
#X connect 56 0 8 1;
#X connect 61 0 15 0;
#X connect 61 0 14 1;
#X connect 62 0 40 0;
#X connect 62 0 39 1;
#X restore 214 366 pd fft;
#X floatatom 117 106 0 0 0 0 - - -;
#N canvas 613 52 490 373 hanning-window 0;
#X obj 99 231 phasor~;
#X obj 99 267 cos~;
#X obj 45 284 -~;
#X obj 43 250 sig~ 1;
#X msg 53 212 0;
#X obj 101 117 r sample-rate;
#X obj 216 119 r window-size;
#X obj 124 145 t b f;
#X obj 101 167 /;
#X obj 99 204 sig~;
#X obj 39 71 r make-window;
#X msg 38 145 bang;
#X obj 47 311 *~ 0.5;
#X obj 265 73 table \$0_hanning-window;
#X obj 233 205 symbol \$0_hanning-window;
#X obj 233 182 loadbang;
#X msg 233 230 \; \$1 resize 2048;
#X obj 31 349 tabwrite~ \$0_hanning-window;
#X connect 0 0 1 0;
#X connect 1 0 2 1;
#X connect 2 0 12 0;
#X connect 3 0 2 0;
#X connect 4 0 0 1;
#X connect 5 0 8 0;
#X connect 6 0 7 0;
#X connect 7 0 8 0;
#X connect 7 1 8 1;
#X connect 8 0 9 0;
#X connect 9 0 0 0;
#X connect 10 0 11 0;
#X connect 11 0 4 0;
#X connect 11 0 17 0;
#X connect 12 0 17 0;
#X connect 14 0 16 0;
#X connect 15 0 14 0;
#X restore 422 283 pd hanning-window;
#X obj 421 347 loadbang;
#X obj 58 392 s gain;
#X msg 58 264 0;
#X msg 421 373 \; sample-rate 44100 \; window-size 2048 \; make-window
bang \; gain 0 \;;
#X obj 103 269 t b b f;
#X obj 130 322 /;
#X msg 100 322 1;
#X obj 100 345 -;
#X floatatom 58 370 0 0 0 0 - - -;
#X obj 58 216 * 0.1;
#X obj 213 389 hip~ 5;
#X obj 59 241 moses 0.1;
#X msg 125 294 0.005;
#X text 103 71 reverb time;
#X text 21 18 robbed from miller's fftp help piano reverb patch;
#X obj 114 85 inlet;
#X obj 213 441 outlet~;
#X obj 154 85 \$1;
#X obj 150 39 loadbang;
#X obj 44 85 inlet~;
#X connect 1 0 14 0;
#X connect 4 0 7 0;
#X connect 6 0 12 0;
#X connect 8 0 10 0;
#X connect 8 1 16 0;
#X connect 8 2 9 1;
#X connect 9 0 11 1;
#X connect 10 0 11 0;
#X connect 11 0 12 0;
#X connect 12 0 5 0;
#X connect 13 0 15 0;
#X connect 14 0 20 0;
#X connect 15 0 6 0;
#X connect 15 1 8 0;
#X connect 16 0 9 0;
#X connect 19 0 13 0;
#X connect 19 0 2 0;
#X connect 21 0 2 0;
#X connect 21 0 13 0;
#X connect 22 0 21 0;
#X connect 23 0 1 0;
