#N canvas 360 146 703 638 10;
#X obj 64 529 hip~ 5;
#X floatatom 64 123 0 0 0 0 - - -;
#X obj 129 395 *~;
#X obj 237 326 line~;
#X floatatom 310 150 0 0 0 0 - - -;
#X text 69 2 PITCH SHIFTER;
#X obj 237 300 pack 0 200;
#X obj 311 177 moses 1;
#X msg 272 177 1;
#X obj 64 179 exp;
#X floatatom 64 205 0 0 0 0 - - -;
#X obj 64 295 /;
#X obj 191 225 * 0.001;
#X obj 391 403 line~;
#X obj 391 379 pack 0 200;
#X floatatom 391 304 0 0 0 0 - - -;
#X text 416 304 delay (msec);
#X obj 129 421 +~;
#X msg 391 352 1;
#X obj 391 326 moses 1.5;
#X obj 64 446 cos~;
#X obj 64 473 *~;
#X obj 64 502 +~;
#X obj 151 353 wrap~;
#X obj 296 396 *~;
#X obj 296 429 +~;
#X obj 233 456 cos~;
#X obj 233 483 *~;
#X obj 191 252 t b f;
#X floatatom 64 321 0 0 0 0 - - -;
#X obj 64 348 phasor~ 0;
#X obj 151 326 +~ 0.5;
#X obj 64 394 -~ 0.5;
#X obj 64 420 *~ 0.5;
#X obj 233 395 -~ 0.5;
#X obj 233 428 *~ 0.5;
#X floatatom 272 203 0 0 0 0 - - -;
#X obj 64 232 - 1;
#X obj 64 153 * 0.05776;
#X obj 64 258 * -1;
#X text 98 122 <-- transposition;
#X text 141 135 (halftones);
#X text 130 214 speed;
#X text 130 227 change;
#X text 335 151 <--window (msec);
#X text 99 288 tape head;
#X text 100 301 rotation speed;
#X text 139 515 PITCH SHIFTER;
#X obj 297 458 vd~ \$0_psd;
#X obj 128 447 vd~ \$0_psd;
#X obj 63 552 outlet~;
#X obj 68 40 inlet~;
#X obj 68 60 delwrite~ \$0_psd 5000;
#X obj 309 48 inlet;
#X obj 391 48 inlet;
#X obj 437 277 \$2;
#X obj 436 256 loadbang;
#X obj 310 102 loadbang;
#X obj 311 123 \$1;
#X text 299 32 window(ms);
#X text 66 22 signal;
#X text 139 531 Generic version based on the PD sample version I don't
pretend to understand all the details here...just the fact that it's
a rotating tape head mechanism.;
#X obj 245 49 inlet;
#X text 387 31 delay (msec);
#X text 241 31 amount;
#X connect 0 0 50 0;
#X connect 1 0 38 0;
#X connect 2 0 17 0;
#X connect 3 0 2 1;
#X connect 3 0 24 1;
#X connect 4 0 7 0;
#X connect 6 0 3 0;
#X connect 7 0 8 0;
#X connect 7 1 36 0;
#X connect 8 0 36 0;
#X connect 9 0 10 0;
#X connect 10 0 37 0;
#X connect 11 0 29 0;
#X connect 12 0 28 0;
#X connect 13 0 17 1;
#X connect 13 0 25 1;
#X connect 14 0 13 0;
#X connect 15 0 19 0;
#X connect 17 0 49 0;
#X connect 18 0 14 0;
#X connect 19 0 18 0;
#X connect 19 1 14 0;
#X connect 20 0 21 0;
#X connect 21 0 22 0;
#X connect 22 0 0 0;
#X connect 23 0 24 0;
#X connect 23 0 34 0;
#X connect 24 0 25 0;
#X connect 25 0 48 0;
#X connect 26 0 27 0;
#X connect 27 0 22 1;
#X connect 28 0 11 0;
#X connect 28 1 11 1;
#X connect 29 0 30 0;
#X connect 30 0 2 0;
#X connect 30 0 32 0;
#X connect 30 0 31 0;
#X connect 31 0 23 0;
#X connect 32 0 33 0;
#X connect 33 0 20 0;
#X connect 34 0 35 0;
#X connect 35 0 26 0;
#X connect 36 0 6 0;
#X connect 36 0 12 0;
#X connect 37 0 39 0;
#X connect 38 0 9 0;
#X connect 39 0 11 0;
#X connect 48 0 27 1;
#X connect 49 0 21 1;
#X connect 51 0 52 0;
#X connect 53 0 4 0;
#X connect 54 0 15 0;
#X connect 55 0 15 0;
#X connect 56 0 55 0;
#X connect 57 0 58 0;
#X connect 58 0 4 0;
#X connect 62 0 1 0;
