#N canvas 81 332 633 619 10;
#X floatatom 288 296 5 0 0 0 - - -;
#X floatatom 337 297 5 0 0 0 - - -;
#X floatatom 387 297 5 0 0 0 - - -;
#X floatatom 436 296 5 0 0 0 - - -;
#X floatatom 342 224 5 0 0 0 - - -;
#X floatatom 392 224 5 0 0 0 - - -;
#X obj 287 157 hsl 128 15 0 1 0 0 empty empty empty -2 -6 0 8 -220135
-241291 -1 0 1;
#X obj 266 41 vsl 15 128 0 1 0 0 empty empty empty 0 -8 0 8 -220135
-241291 -1 0 1;
#X floatatom 223 401 5 0 0 0 - - -;
#X floatatom 288 402 5 0 0 0 - - -;
#X floatatom 341 402 5 0 0 0 - - -;
#X floatatom 392 402 5 0 0 0 - - -;
#X floatatom 207 298 5 0 0 0 - - -;
#X floatatom 295 223 5 0 0 0 - - -;
#X floatatom 248 222 5 0 0 0 - - -;
#X obj 223 373 /;
#X obj 288 373 /;
#X obj 341 373 /;
#X obj 392 372 /;
#X obj 19 20 inlet~;
#X obj 78 20 inlet~;
#X obj 138 20 inlet~;
#X obj 198 20 inlet~;
#X obj 399 23 inlet;
#X obj 453 23 inlet;
#X obj 17 498 outlet~;
#X obj 78 498 outlet~;
#X obj 139 498 outlet~;
#X obj 200 498 outlet~;
#X obj 18 466 *~;
#X obj 77 465 *~;
#X obj 139 466 *~;
#X obj 199 468 *~;
#X obj 258 261 quaddist 1 1 0 0;
#X obj 208 322 * 1.5;
#X connect 4 0 33 2;
#X connect 5 0 33 3;
#X connect 12 0 34 0;
#X connect 13 0 33 1;
#X connect 14 0 33 0;
#X connect 15 0 8 0;
#X connect 15 0 29 1;
#X connect 16 0 9 0;
#X connect 16 0 30 1;
#X connect 17 0 10 0;
#X connect 17 0 31 1;
#X connect 18 0 11 0;
#X connect 18 0 32 1;
#X connect 19 0 29 0;
#X connect 20 0 30 0;
#X connect 21 0 31 0;
#X connect 22 0 32 0;
#X connect 23 0 33 2;
#X connect 23 0 7 0;
#X connect 24 0 33 3;
#X connect 24 0 6 0;
#X connect 29 0 25 0;
#X connect 30 0 26 0;
#X connect 31 0 27 0;
#X connect 32 0 28 0;
#X connect 33 0 12 0;
#X connect 33 1 15 0;
#X connect 33 2 16 0;
#X connect 33 3 17 0;
#X connect 33 4 18 0;
#X connect 34 0 15 1;
#X connect 34 0 16 1;
#X connect 34 0 17 1;
#X connect 34 0 18 1;
