#N canvas 249 179 633 517 10;
#X text 83 5 x;
#X text 139 7 y;
#X text 201 8 a;
#X text 319 11 b;
#N canvas 764 14 307 314 sqrt(a^2 0;
#X obj 34 239 sqrt;
#X obj 34 258 outlet;
#X obj 34 217 +;
#X text 42 0 y;
#X text 104 3 a;
#X text 191 5 b;
#X obj 93 20 inlet;
#X obj 181 22 inlet;
#X obj 34 20 inlet;
#X obj 34 139 -;
#X obj 34 101 f;
#X obj 123 165 t f f;
#X obj 123 189 *;
#X obj 34 164 t f f;
#X obj 34 188 *;
#X obj 34 51 t b f;
#X obj 93 51 t b f;
#X obj 181 51 t b f;
#X connect 0 0 1 0;
#X connect 2 0 0 0;
#X connect 6 0 16 0;
#X connect 7 0 17 0;
#X connect 8 0 15 0;
#X connect 9 0 13 0;
#X connect 10 0 9 0;
#X connect 11 0 12 0;
#X connect 11 1 12 1;
#X connect 12 0 2 1;
#X connect 13 0 14 0;
#X connect 13 1 14 1;
#X connect 14 0 2 0;
#X connect 15 0 10 0;
#X connect 15 1 10 1;
#X connect 16 0 10 0;
#X connect 16 1 11 0;
#X connect 17 0 10 0;
#X connect 17 1 9 1;
#X restore 114 277 pd sqrt(a^2 + (y-b)^2);
#X text 93 278 d1;
#X text 302 279 d3;
#N canvas 763 108 323 330 sqrt((x-a)^2 0;
#X obj 34 239 sqrt;
#X obj 34 258 outlet;
#X obj 34 217 +;
#X text 104 3 a;
#X text 191 5 b;
#X obj 93 20 inlet;
#X obj 181 22 inlet;
#X obj 34 20 inlet;
#X obj 34 139 -;
#X obj 34 101 f;
#X obj 123 165 t f f;
#X obj 123 189 *;
#X obj 34 164 t f f;
#X obj 34 188 *;
#X obj 34 51 t b f;
#X obj 93 51 t b f;
#X obj 181 51 t b f;
#X text 42 0 x;
#X connect 0 0 1 0;
#X connect 2 0 0 0;
#X connect 5 0 15 0;
#X connect 6 0 16 0;
#X connect 7 0 14 0;
#X connect 8 0 12 0;
#X connect 9 0 8 0;
#X connect 10 0 11 0;
#X connect 10 1 11 1;
#X connect 11 0 2 1;
#X connect 12 0 13 0;
#X connect 12 1 13 1;
#X connect 13 0 2 0;
#X connect 14 0 9 0;
#X connect 14 1 9 1;
#X connect 15 0 9 0;
#X connect 15 1 8 1;
#X connect 16 0 9 0;
#X connect 16 1 10 0;
#X restore 321 278 pd sqrt((x-a)^2 + b^2);
#X text 66 358 d2;
#X text 310 358 d4;
#X obj 79 25 inlet;
#X obj 138 26 inlet;
#X obj 197 26 inlet;
#X obj 317 29 inlet;
#X obj 81 414 outlet;
#X obj 139 414 outlet;
#X obj 197 414 outlet;
#X obj 252 414 outlet;
#N canvas 765 409 339 346 sqrt(a^2 0;
#X obj 34 239 sqrt;
#X obj 34 258 outlet;
#X obj 34 217 +;
#X text 44 2 a;
#X text 191 5 b;
#X obj 33 19 inlet;
#X obj 181 22 inlet;
#X obj 123 165 t f f;
#X obj 123 189 *;
#X obj 33 50 t b f;
#X obj 181 51 t b f;
#X obj 33 165 t f f;
#X obj 33 189 *;
#X obj 33 110 f;
#X connect 0 0 1 0;
#X connect 2 0 0 0;
#X connect 5 0 9 0;
#X connect 6 0 10 0;
#X connect 7 0 8 0;
#X connect 7 1 8 1;
#X connect 8 0 2 1;
#X connect 9 0 13 0;
#X connect 9 1 13 1;
#X connect 10 0 13 0;
#X connect 10 1 7 0;
#X connect 11 0 12 0;
#X connect 11 1 12 1;
#X connect 12 0 2 0;
#X connect 13 0 11 0;
#X restore 329 357 pd sqrt(a^2 + b^2);
#N canvas 764 14 393 364 sqrt((x-a)^2 0;
#X obj 116 268 sqrt;
#X obj 116 287 outlet;
#X obj 116 246 +;
#X text 124 28 y;
#X text 186 31 a;
#X text 252 31 b;
#X obj 175 48 inlet;
#X obj 242 48 inlet;
#X obj 116 48 inlet;
#X obj 116 168 -;
#X obj 116 130 f;
#X obj 116 193 t f f;
#X obj 116 217 *;
#X obj 116 79 t b f;
#X obj 57 46 inlet;
#X text 65 27 x;
#X obj 172 167 -;
#X obj 172 129 f;
#X obj 172 192 t f f;
#X obj 172 216 *;
#X obj 57 79 t b f;
#X obj 175 79 t b b f;
#X obj 246 76 t b b f;
#X connect 0 0 1 0;
#X connect 2 0 0 0;
#X connect 6 0 21 0;
#X connect 7 0 22 0;
#X connect 8 0 13 0;
#X connect 9 0 11 0;
#X connect 10 0 9 0;
#X connect 11 0 12 0;
#X connect 11 1 12 1;
#X connect 12 0 2 0;
#X connect 13 0 10 0;
#X connect 13 1 10 1;
#X connect 14 0 20 0;
#X connect 16 0 18 0;
#X connect 17 0 16 0;
#X connect 18 0 19 0;
#X connect 18 1 19 1;
#X connect 19 0 2 1;
#X connect 20 0 17 0;
#X connect 20 0 10 0;
#X connect 20 1 17 1;
#X connect 21 0 10 0;
#X connect 21 0 17 0;
#X connect 21 1 17 0;
#X connect 21 2 16 1;
#X connect 22 0 17 0;
#X connect 22 1 10 0;
#X connect 22 2 9 1;
#X restore 87 357 pd sqrt((x-a)^2 + (y-b)^2);
#X obj 317 189 clip 0 1;
#X obj 202 189 clip 0 1;
#X obj 413 45 \$1;
#X obj 443 45 \$2;
#X obj 473 45 \$3;
#X obj 503 45 \$4;
#X obj 441 14 loadbang;
#X obj 20 414 outlet;
#N canvas 0 0 454 304 maxval 0;
#X obj 90 18 inlet;
#X obj 164 18 inlet;
#X obj 164 58 t b f;
#X obj 90 101 f;
#X obj 95 166 *;
#X obj 163 167 *;
#X obj 105 205 +;
#X obj 103 231 sqrt;
#X obj 109 265 outlet;
#X obj 90 138 t f f;
#X obj 161 137 t f f;
#X obj 90 59 t b f;
#X connect 0 0 11 0;
#X connect 1 0 2 0;
#X connect 2 0 3 0;
#X connect 2 1 10 0;
#X connect 3 0 9 0;
#X connect 4 0 6 0;
#X connect 5 0 6 1;
#X connect 6 0 7 0;
#X connect 7 0 8 0;
#X connect 9 0 4 0;
#X connect 9 1 4 1;
#X connect 10 0 5 0;
#X connect 10 1 5 1;
#X connect 11 0 3 0;
#X connect 11 1 3 1;
#X restore 20 225 pd maxval;
#X text 21 432 maxval;
#X text 95 433 d1;
#X text 151 433 d2;
#X text 209 433 d3;
#X text 265 432 d4;
#X connect 4 0 14 0;
#X connect 7 0 16 0;
#X connect 10 0 19 0;
#X connect 10 0 7 0;
#X connect 10 0 21 2;
#X connect 10 0 28 0;
#X connect 11 0 4 0;
#X connect 11 0 19 1;
#X connect 11 0 20 2;
#X connect 11 0 28 1;
#X connect 12 0 21 0;
#X connect 13 0 20 0;
#X connect 18 0 17 0;
#X connect 19 0 15 0;
#X connect 20 0 4 2;
#X connect 20 0 19 3;
#X connect 20 0 18 1;
#X connect 20 0 7 2;
#X connect 21 0 4 1;
#X connect 21 0 19 2;
#X connect 21 0 18 0;
#X connect 21 0 7 1;
#X connect 22 0 21 2;
#X connect 22 0 7 0;
#X connect 22 0 19 0;
#X connect 22 0 28 0;
#X connect 23 0 20 2;
#X connect 23 0 19 1;
#X connect 23 0 4 0;
#X connect 23 0 28 1;
#X connect 24 0 21 0;
#X connect 25 0 20 0;
#X connect 26 0 22 0;
#X connect 26 0 23 0;
#X connect 26 0 24 0;
#X connect 26 0 25 0;
#X connect 28 0 27 0;
