#N canvas 600 346 448 429 10;
#X obj 55 309 pack f f;
#X obj 55 226 rndseq 16 38 18;
#X msg 55 331 note 10 \$1 \$2;
#X obj 238 180 metro 250;
#X obj 259 73 tgl 15 0 empty empty empty 0 -6 0 8 -262144 -1 -1 1 1
;
#X text 53 33 reseed;
#X floatatom 207 75 5 0 0 0 - - -;
#X floatatom 129 81 5 0 0 0 - - -;
#X text 118 33 seq len;
#X text 181 31 speed;
#X obj 180 227 rndseq 16 0 127;
#X obj 55 373 outlet;
#X text 70 347 midi chan 9 is drums;
#X obj 181 48 inlet;
#X obj 55 47 inlet;
#X msg 55 190 bang;
#N canvas 734 563 404 252 errors 1;
#X obj 54 149 delay;
#X obj 54 128 t b f;
#X text 306 81 strike error;
#X obj 16 10 inlet;
#X obj 264 11 inlet;
#X obj 24 210 outlet;
#X obj 264 214 outlet;
#X obj 16 35 t b f;
#X obj 24 188 f;
#X obj 294 119 - 5;
#X obj 264 141 +;
#X obj 264 52 t f b;
#X obj 264 166 clip 0 127;
#X obj 294 97 random 11;
#X obj 53 95 random 36;
#X text 57 78 rhythm error (35ms worst);
#X connect 0 0 8 0;
#X connect 1 0 0 0;
#X connect 1 1 0 1;
#X connect 3 0 7 0;
#X connect 4 0 11 0;
#X connect 7 0 14 0;
#X connect 7 1 8 1;
#X connect 8 0 5 0;
#X connect 9 0 10 1;
#X connect 10 0 12 0;
#X connect 11 0 10 0;
#X connect 11 1 13 0;
#X connect 12 0 6 0;
#X connect 13 0 9 0;
#X connect 14 0 1 0;
#X restore 55 275 pd errors;
#X text 17 225 note;
#X text 290 227 vel;
#X obj 125 47 inlet;
#X obj 260 51 inlet;
#X text 252 35 on / off;
#X obj 368 52 loadbang;
#X text 4 2 random drummer sequence - geared mostly at fluid~;
#X obj 350 93 \$1;
#X obj 379 92 \$2;
#X text 378 123 seq len;
#X text 380 137 speed;
#X connect 0 0 2 0;
#X connect 1 0 16 0;
#X connect 2 0 11 0;
#X connect 3 0 1 4;
#X connect 3 0 10 4;
#X connect 4 0 3 0;
#X connect 10 0 16 1;
#X connect 13 0 6 0;
#X connect 13 0 3 1;
#X connect 14 0 15 0;
#X connect 15 0 1 0;
#X connect 15 0 10 0;
#X connect 16 0 0 0;
#X connect 16 1 0 1;
#X connect 19 0 7 0;
#X connect 19 0 1 1;
#X connect 19 0 10 1;
#X connect 20 0 4 0;
#X connect 22 0 24 0;
#X connect 22 0 25 0;
#X connect 22 0 15 0;
#X connect 24 0 7 0;
#X connect 24 0 1 1;
#X connect 25 0 6 0;
#X connect 25 0 3 1;
