#N canvas 129 357 454 254 10;
#X obj 21 18 inlet;
#X obj 21 50 moses \$1;
#X obj 75 186 outlet;
#X obj 26 186 outlet;
#X text 99 13 \$1 is low end of range;
#X text 98 30 \$2 is high end of range;
#X text 145 147 rangesel - select a range \, inclusive;
#X obj 85 85 \$2;
#X obj 85 109 + 1;
#X obj 87 59 loadbang;
#X text 114 85 offset to make inclusive;
#X obj 50 136 moses;
#X text 147 201 jason plumb :: noisybox.net;
#X text 147 164 left outlet gets value when in range;
#X text 147 182 right outlet gets value when not in range;
#X connect 0 0 1 0;
#X connect 1 0 2 0;
#X connect 1 1 11 0;
#X connect 7 0 8 0;
#X connect 8 0 11 1;
#X connect 9 0 7 0;
#X connect 11 0 3 0;
#X connect 11 1 2 0;
