#N canvas 697 143 406 624 10;
#X floatatom 218 241 5 0 0 0 - - -;
#X floatatom 100 175 5 0 0 0 - - -;
#X obj 92 151 r \$0_lo;
#X obj 207 219 r \$0_hi;
#X obj 308 363 s \$0_lo;
#X obj 106 272 s \$0_lo;
#X obj 201 11 loadbang;
#X obj 184 123 s \$0_hi;
#X obj 310 98 s \$0_lo;
#X obj 175 416 -;
#X obj 193 385 r \$0_lo;
#X obj 83 352 s \$0_hi;
#X obj 60 241 t b f f;
#X obj 60 194 moses;
#X obj 175 258 moses;
#X obj 287 117 s \$0_min;
#X obj 161 99 s \$0_max;
#X obj 77 393 r \$0_min;
#X obj 280 415 r \$0_max;
#X obj 60 418 f;
#X obj 262 444 f;
#X text 22 376 below range;
#X text 290 444 above range;
#X obj 285 388 s \$0_hi;
#X text 183 370 in range;
#X obj 262 311 t b f f;
#X obj 175 552 outlet;
#X obj 264 53 \$1;
#X obj 161 51 \$2;
#X obj 60 11 inlet;
#X text 12 578 relrange :: by jason plumb :: noisybox.net;
#X text 13 593 provides a "relative range" that floats;
#X obj 246 134 -;
#X obj 201 31 t b b;
#X obj 161 73 t f f f;
#X obj 264 75 t f f f;
#X obj 246 155 s \$0_size;
#X obj 83 332 +;
#X obj 101 305 r \$0_size;
#X obj 326 310 r \$0_size;
#X obj 308 337 -;
#X connect 2 0 1 0;
#X connect 2 0 13 1;
#X connect 3 0 0 0;
#X connect 3 0 14 1;
#X connect 6 0 33 0;
#X connect 9 0 26 0;
#X connect 10 0 9 1;
#X connect 12 0 19 0;
#X connect 12 1 37 0;
#X connect 12 2 5 0;
#X connect 13 0 12 0;
#X connect 13 1 14 0;
#X connect 14 0 9 0;
#X connect 14 1 25 0;
#X connect 17 0 19 1;
#X connect 18 0 20 1;
#X connect 19 0 26 0;
#X connect 20 0 26 0;
#X connect 25 0 20 0;
#X connect 25 1 23 0;
#X connect 25 2 40 0;
#X connect 27 0 35 0;
#X connect 28 0 34 0;
#X connect 29 0 13 0;
#X connect 32 0 36 0;
#X connect 33 0 28 0;
#X connect 33 1 27 0;
#X connect 34 0 16 0;
#X connect 34 1 7 0;
#X connect 34 2 32 0;
#X connect 35 0 32 1;
#X connect 35 1 15 0;
#X connect 35 2 8 0;
#X connect 37 0 11 0;
#X connect 38 0 37 1;
#X connect 39 0 40 1;
#X connect 40 0 4 0;
