#N canvas 529 190 318 304 12;
#X obj 41 26 inlet;
#X msg 42 60 bang;
#X obj 58 233 outlet;
#X obj 156 27 inlet;
#X obj 96 154 moses \$1;
#X obj 43 104 random 100;
#X msg 72 199 bang;
#X text 26 3 bang inlet;
#X text 143 5 probability (0-100);
#X obj 140 234 outlet;
#X msg 143 201 bang;
#X connect 0 0 1 0;
#X connect 1 0 5 0;
#X connect 3 0 4 1;
#X connect 4 0 6 0;
#X connect 4 1 10 0;
#X connect 5 0 4 0;
#X connect 6 0 2 0;
#X connect 10 0 9 0;
