#N canvas 552 80 482 479 12;
#X obj 44 19 inlet;
#X obj 43 353 rnd_moses \$1;
#X obj 167 30 inlet;
#X obj 301 27 inlet;
#X obj 42 398 outlet;
#X obj 137 394 outlet;
#X text 282 339 \$1 output prob;
#X text 282 362 \$2 change prob;
#X text 280 385 \$3 change amt;
#X obj 210 151 loadbang;
#X obj 188 216 f;
#X obj 43 57 t b b;
#X obj 257 246 + \$3;
#X obj 177 308 clip 0 100;
#X obj 78 94 rnd_moses \$2;
#X obj 79 121 rnd_moses 50;
#X text 181 97 wander?;
#X text 180 122 direction?;
#X obj 133 216 f;
#X floatatom 166 343 5 0 0 0 - - -;
#X obj 177 262 - \$3;
#X obj 227 181 \$1;
#X obj 201 395 outlet;
#X text 38 0 bang;
#X text 159 10 change prob;
#X text 300 9 change amt;
#X connect 0 0 11 0;
#X connect 1 0 4 0;
#X connect 1 1 5 0;
#X connect 2 0 14 1;
#X connect 3 0 12 1;
#X connect 3 0 20 1;
#X connect 9 0 21 0;
#X connect 10 0 12 0;
#X connect 11 0 1 0;
#X connect 11 1 14 0;
#X connect 12 0 13 0;
#X connect 13 0 19 0;
#X connect 13 0 18 1;
#X connect 13 0 10 1;
#X connect 14 0 15 0;
#X connect 15 0 18 0;
#X connect 15 1 10 0;
#X connect 18 0 20 0;
#X connect 18 0 1 1;
#X connect 19 0 22 0;
#X connect 20 0 13 0;
#X connect 21 0 10 1;
#X connect 21 0 18 1;
