#N canvas 273 34 339 485 12;
#X obj 48 142 int;
#X obj 16 245 moses 0.5;
#X obj 15 207 -;
#X obj 24 115 t f f f;
#X obj 107 79 moses 0;
#X obj 24 44 t f f;
#X obj 24 80 abs;
#X obj 256 412 *;
#X obj 122 338 f;
#X obj 161 337 f;
#X obj 179 307 + 1;
#X obj 48 176 t f f f;
#X msg 16 276 bang;
#X msg 79 275 bang;
#X msg 158 107 1;
#X msg 107 107 -1;
#X obj 257 438 outlet;
#X obj 24 12 inlet;
#X connect 0 0 11 0;
#X connect 1 0 12 0;
#X connect 1 1 13 0;
#X connect 2 0 1 0;
#X connect 3 0 2 0;
#X connect 3 1 0 0;
#X connect 4 0 15 0;
#X connect 4 1 14 0;
#X connect 5 0 6 0;
#X connect 5 1 4 0;
#X connect 6 0 3 0;
#X connect 7 0 16 0;
#X connect 8 0 7 0;
#X connect 9 0 7 0;
#X connect 10 0 9 1;
#X connect 11 0 2 1;
#X connect 11 1 8 1;
#X connect 11 2 10 0;
#X connect 12 0 8 0;
#X connect 13 0 9 0;
#X connect 14 0 7 1;
#X connect 15 0 7 1;
#X connect 17 0 5 0;
