#N canvas 781 458 374 455 10;
#X obj -57 395 outlet~;
#X obj 6 395 outlet;
#X obj 63 395 outlet;
#X msg 125 335 \; \$2 resize \$1;
#X text 143 255 max sample len;
#X obj -44 35 inlet~;
#X obj 99 176 timer;
#X obj 124 372 table \$0_slrtbl;
#X obj 176 291 symbol \$0_slrtbl;
#X obj -58 352 tabplay~ \$0_slrtbl;
#X obj 6 374 / 1000;
#X obj 8 35 inlet;
#X obj 71 35 inlet;
#X obj -43 175 tabwrite~ \$0_slrtbl;
#X obj 125 315 pack f s;
#X msg 8 57 bang;
#X obj 207 84 loadbang;
#X text -59 17 audio;
#X text -9 17 start/stop;
#X text 77 17 play;
#X text -59 414 audio;
#X text 2 412 rec len;
#X text 61 411 donebang;
#X msg -58 326 0 \$1;
#X obj -58 304 f;
#X obj 207 109 samplerate~;
#X obj 173 170 / 1000;
#X obj 210 131 t f f b;
#X obj 125 273 * 60;
#X obj 91 233 *;
#X obj 8 80 toggler;
#X obj 7 121 t b b;
#X obj 7 100 select 1;
#X obj 59 121 t b b;
#X msg 59 142 stop;
#X obj 61 207 t f f;
#X connect 5 0 13 0;
#X connect 6 0 35 0;
#X connect 8 0 14 1;
#X connect 9 0 0 0;
#X connect 9 1 2 0;
#X connect 10 0 1 0;
#X connect 11 0 15 0;
#X connect 12 0 24 0;
#X connect 14 0 3 0;
#X connect 15 0 30 0;
#X connect 16 0 25 0;
#X connect 23 0 9 0;
#X connect 24 0 23 0;
#X connect 25 0 27 0;
#X connect 26 0 29 1;
#X connect 27 0 26 0;
#X connect 27 1 28 0;
#X connect 27 2 8 0;
#X connect 28 0 14 0;
#X connect 29 0 24 1;
#X connect 30 0 32 0;
#X connect 31 0 13 0;
#X connect 31 1 6 0;
#X connect 32 0 31 0;
#X connect 32 1 33 0;
#X connect 33 0 34 0;
#X connect 33 1 6 1;
#X connect 34 0 13 0;
#X connect 35 0 10 0;
#X connect 35 1 29 0;
