#N canvas 70 329 426 271 10;
#X obj 56 225 outlet~;
#X obj 175 222 outlet;
#X text 6 5 simple one-channel file sample player;
#X obj 56 30 inlet;
#X obj 56 198 tabplay~ \$0_sampletable;
#X obj 230 199 table \$0_sampletable;
#X obj 154 171 soundfiler;
#X obj 153 60 loadbang;
#X obj 153 104 symbol \$1;
#X obj 225 104 symbol \$0_sampletable;
#X obj 154 126 pack s s;
#X msg 154 149 read -resize \$1 \$2;
#X obj 152 82 delay 1;
#X text 5 48 bang to play;
#X obj 100 30 inlet;
#X text 144 30 <- new sound file name;
#X connect 3 0 4 0;
#X connect 4 0 0 0;
#X connect 4 1 1 0;
#X connect 7 0 9 0;
#X connect 7 0 12 0;
#X connect 8 0 10 0;
#X connect 9 0 10 1;
#X connect 10 0 11 0;
#X connect 11 0 6 0;
#X connect 12 0 8 0;
#X connect 14 0 8 0;
