#N canvas 132 171 296 259 10;
#X obj 20 145 sample~ \$1;
#X obj 131 45 inlet;
#X obj 19 222 outlet~;
#X obj 86 46 inlet;
#X obj 96 164 spigot;
#X obj 20 74 loadbang;
#X obj 87 75 route start bang stop;
#X msg 117 110 1;
#X msg 150 110 0;
#X text 39 5 uses sample~ to create a loop;
#X obj 85 221 outlet;
#X obj 20 185 *~;
#X connect 0 0 11 0;
#X connect 0 1 4 0;
#X connect 0 1 10 0;
#X connect 1 0 0 1;
#X connect 3 0 6 0;
#X connect 4 0 0 0;
#X connect 5 0 7 0;
#X connect 6 0 7 0;
#X connect 6 0 0 0;
#X connect 6 1 7 0;
#X connect 6 1 0 0;
#X connect 6 2 8 0;
#X connect 7 0 4 1;
#X connect 7 0 11 1;
#X connect 8 0 4 1;
#X connect 8 0 11 1;
#X connect 11 0 2 0;
