#N canvas 553 357 519 463 10;
#X obj 106 17 inlet;
#X obj 91 411 outlet~;
#X obj 35 18 inlet~;
#N canvas 22 654 301 227 pass 0;
#X obj 18 16 inlet~;
#X obj 40 181 outlet~;
#X obj 40 144 *~;
#X obj 71 119 line~;
#X obj 78 15 inlet;
#X obj 97 40 toggler;
#X obj 98 67 select 0;
#X msg 87 91 0 5;
#X msg 132 93 1 5;
#X connect 0 0 2 0;
#X connect 2 0 1 0;
#X connect 3 0 2 1;
#X connect 4 0 5 0;
#X connect 5 0 6 0;
#X connect 6 0 7 0;
#X connect 6 1 8 0;
#X connect 7 0 3 0;
#X connect 8 0 3 0;
#X restore 35 84 pd pass;
#X obj 106 39 t b b b;
#X obj 158 255 delay;
#X obj 158 161 * 1000;
#X obj 158 184 - 5;
#X obj 204 89 toggler;
#X obj 205 109 select 0;
#X msg 278 155 stop;
#X obj 128 114 t b f;
#X obj 158 211 t b b f;
#X obj 234 318 delay 5;
#X obj 157 278 t b b;
#N canvas 0 0 297 305 ramper 0;
#X obj 29 17 inlet~;
#X obj 132 18 inlet;
#X obj 42 176 outlet~;
#X obj 88 113 line~;
#X msg 101 63 0 5;
#X msg 138 62 1 5;
#X obj 43 150 *~;
#X obj 179 20 inlet;
#X connect 0 0 6 0;
#X connect 1 0 4 0;
#X connect 3 0 6 1;
#X connect 4 0 3 0;
#X connect 5 0 3 0;
#X connect 6 0 2 0;
#X connect 7 0 5 0;
#X restore 102 372 pd ramper;
#X obj 103 83 sampler~;
#X obj 290 276 spigot;
#X msg 358 248 0;
#X msg 326 248 1;
#X obj 358 19 inlet;
#X text 336 2 bang to stop;
#X obj 256 131 t b b b;
#X obj 228 343 t b b;
#X obj 297 297 t b b;
#X obj 358 203 t b b;
#X text 245 399 Delegates to a sampler~ to record and;
#X text 245 412 immediately begin playing.;
#X text 98 2 bang to start/stop;
#X text 38 1 audio;
#X obj 161 412 outlet;
#X obj 160 349 r \$0_rup;
#X obj 155 62 r \$0_play;
#X obj 327 319 s \$0_play;
#X obj 128 136 s \$0_play;
#X obj 258 365 s \$0_rup;
#X obj 204 244 s \$0_rup;
#X obj 389 223 s \$0_rdn;
#X obj 131 330 r \$0_rdn;
#X obj 246 175 s \$0_rdn;
#X obj 158 298 s \$0_rdn;
#X obj 172 386 r \$0_play;
#X connect 0 0 4 0;
#X connect 2 0 3 0;
#X connect 2 0 16 0;
#X connect 3 0 1 0;
#X connect 4 0 3 1;
#X connect 4 1 16 1;
#X connect 4 2 8 0;
#X connect 5 0 14 0;
#X connect 6 0 7 0;
#X connect 7 0 12 0;
#X connect 8 0 9 0;
#X connect 9 1 22 0;
#X connect 10 0 5 0;
#X connect 11 0 34 0;
#X connect 11 1 6 0;
#X connect 12 0 5 0;
#X connect 12 1 36 0;
#X connect 12 2 5 1;
#X connect 13 0 23 0;
#X connect 14 0 40 0;
#X connect 14 1 13 0;
#X connect 15 0 1 0;
#X connect 16 0 15 0;
#X connect 16 1 11 0;
#X connect 17 0 24 0;
#X connect 18 0 17 1;
#X connect 19 0 17 1;
#X connect 20 0 25 0;
#X connect 22 0 39 0;
#X connect 22 1 10 0;
#X connect 22 2 19 0;
#X connect 23 0 17 0;
#X connect 23 1 35 0;
#X connect 24 0 5 0;
#X connect 24 1 33 0;
#X connect 25 0 18 0;
#X connect 25 1 37 0;
#X connect 31 0 15 2;
#X connect 32 0 16 2;
#X connect 38 0 15 1;
#X connect 41 0 30 0;
