#N canvas 593 482 256 349 10;
#X obj 1 18 cnv 15 55 115 empty empty empty 20 12 0 14 -241334 -66577
0;
#X floatatom 5 25 6 0 0 0 - - -;
#X obj 4 46 vu 10 80 empty empty -1 -8 0 8 -66577 -1 0 0;
#X obj 32 46 vsl 20 80 0 1 0 0 empty empty empty 0 -8 0 8 -191799 -1
-1 3950 1;
#X obj 57 284 dac~;
#X obj 15 214 *~;
#X obj 11 243 env~ 10000;
#X obj 3 267 - 97;
#X obj 15 158 inlet~;
#X obj 63 214 *~;
#X obj 63 158 inlet~;
#X obj 90 242 env~ 10000;
#X obj 91 262 - 97;
#X obj 18 46 vu 10 80 empty empty -1 -8 0 8 -66577 -1 0 0;
#X obj 64 4 inlet;
#X connect 1 0 5 1;
#X connect 1 0 9 1;
#X connect 3 0 1 0;
#X connect 5 0 4 0;
#X connect 5 0 6 0;
#X connect 6 0 7 0;
#X connect 7 0 2 0;
#X connect 8 0 5 0;
#X connect 9 0 4 1;
#X connect 9 0 11 0;
#X connect 10 0 9 0;
#X connect 11 0 12 0;
#X connect 12 0 13 0;
#X connect 14 0 3 0;
#X coords 0 0 1 1 58 134 1 0 0;
