#N canvas 303 13 370 400 10;
#X obj 44 223 textfile;
#X msg 44 152 rewind;
#X obj 51 246 t b a;
#X obj 121 287 list append;
#X obj 204 286 list;
#X obj 187 250 list split 0;
#X obj 86 340 list;
#X obj 86 368 outlet;
#X obj 28 11 inlet;
#X obj 29 118 t b b a b;
#X obj 52 61 symbol;
#X msg 72 183 read \$1 cr;
#X text 117 106 reads a textfile into a list;
#X text 119 120 lines are \; terminated;
#X text 130 143 TODO: List comes out reversed;
#X connect 0 0 2 0;
#X connect 0 1 6 0;
#X connect 1 0 0 0;
#X connect 2 0 0 0;
#X connect 2 1 3 0;
#X connect 3 0 4 0;
#X connect 3 0 6 1;
#X connect 4 0 3 1;
#X connect 5 0 3 1;
#X connect 6 0 7 0;
#X connect 8 0 10 0;
#X connect 9 0 0 0;
#X connect 9 1 1 0;
#X connect 9 2 11 0;
#X connect 9 3 5 0;
#X connect 10 0 9 0;
#X connect 11 0 0 0;
