#N canvas 226 482 359 240 10;
#X obj 63 81 f 1;
#X floatatom 46 110 5 0 0 0 - - -;
#X obj 62 141 moses 1;
#X msg 103 166 0;
#X msg 62 166 1;
#X obj 63 26 inlet;
#X obj 148 162 outlet;
#X text 136 88 output toggles between 0 and 1 each time the input is
banged - jason plumb;
#X msg 63 52 bang;
#X connect 0 0 1 0;
#X connect 0 0 2 0;
#X connect 0 0 6 0;
#X connect 2 0 4 0;
#X connect 2 1 3 0;
#X connect 3 0 0 1;
#X connect 4 0 0 1;
#X connect 5 0 8 0;
#X connect 8 0 0 0;
