#N canvas 357 28 478 268 10;
#X obj 24 46 *~ 2;
#X obj 24 69 -~ 1;
#X obj 31 121 *~;
#X obj 61 85 *~ 8.38861e+006;
#X obj 61 105 clip~ -1 1;
#X obj 32 144 outlet~;
#X text 170 -10 triangle wave generator by jason plumb;
#X text 170 28 basically take a sawtooth \, adjust the level \, and
multiply it with a synchronized square wave.;
#X text 173 83 the output ranges from 0 to 1...adjust as necessary.
;
#X obj 112 -25 inlet;
#X obj 24 -25 inlet~;
#X obj 25 15 phasor~;
#X connect 0 0 1 0;
#X connect 1 0 2 0;
#X connect 1 0 3 0;
#X connect 2 0 5 0;
#X connect 3 0 4 0;
#X connect 4 0 2 1;
#X connect 9 0 11 1;
#X connect 10 0 11 0;
#X connect 11 0 0 0;
