#N canvas 486 3 529 466 10;
#X obj 154 42 inlet;
#X obj 216 42 inlet;
#X text 153 22 minval;
#X text 215 23 maxval;
#X obj 339 42 inlet;
#X obj 401 43 inlet;
#X text 338 24 mintime;
#X text 403 23 maxtime;
#X obj 377 162 -;
#X obj 377 133 f;
#X obj 334 227 random;
#X obj 192 156 -;
#X obj 192 136 f;
#X obj 149 231 random;
#X obj 206 270 +;
#X obj 391 268 +;
#X obj 206 378 line;
#X obj 206 310 pack f f;
#X obj 206 402 outlet;
#X obj 16 45 \$1;
#X obj 46 45 \$2;
#X obj 74 47 \$3;
#X obj 105 46 \$4;
#X obj 18 12 loadbang;
#X obj 75 176 t b b;
#X msg 326 373 bang;
#X obj 75 136 loadbang;
#X obj 391 318 moses 5;
#X obj 192 177 + 1;
#X obj 377 188 + 1;
#X obj 326 407 delay 250;
#X floatatom 391 343 5 0 0 0 - - -;
#X msg 302 142 bang;
#X obj 139 99 t b b f;
#X obj 204 99 t b b f;
#X obj 333 99 t b b f;
#X obj 392 97 t b b f;
#X connect 0 0 33 0;
#X connect 1 0 34 0;
#X connect 4 0 35 0;
#X connect 5 0 36 0;
#X connect 8 0 29 0;
#X connect 9 0 8 0;
#X connect 10 0 15 0;
#X connect 11 0 28 0;
#X connect 12 0 11 0;
#X connect 13 0 14 0;
#X connect 14 0 17 0;
#X connect 15 0 17 1;
#X connect 15 0 27 0;
#X connect 16 0 18 0;
#X connect 17 0 16 0;
#X connect 17 0 25 0;
#X connect 19 0 33 0;
#X connect 20 0 34 0;
#X connect 21 0 35 0;
#X connect 22 0 36 0;
#X connect 23 0 19 0;
#X connect 23 0 20 0;
#X connect 23 0 21 0;
#X connect 23 0 22 0;
#X connect 24 0 13 0;
#X connect 24 1 10 0;
#X connect 25 0 30 0;
#X connect 26 0 24 0;
#X connect 27 0 31 0;
#X connect 27 1 30 1;
#X connect 28 0 13 1;
#X connect 29 0 10 1;
#X connect 30 0 24 0;
#X connect 32 0 24 0;
#X connect 33 0 32 0;
#X connect 33 1 12 0;
#X connect 33 2 14 1;
#X connect 33 2 11 1;
#X connect 34 0 32 0;
#X connect 34 1 12 0;
#X connect 34 2 12 1;
#X connect 35 0 32 0;
#X connect 35 1 9 0;
#X connect 35 2 15 1;
#X connect 35 2 8 1;
#X connect 36 0 32 0;
#X connect 36 1 9 0;
#X connect 36 2 9 1;
