#N canvas 257 445 450 300 10;
#X obj 78 264 outlet~;
#X obj 123 224 *~;
#X obj 58 225 *~;
#X obj 35 34 inlet~;
#X obj 99 34 inlet~;
#X text 32 17 dry sig;
#X text 94 15 wet sig;
#X obj 242 22 loadbang;
#X obj 244 43 \$1;
#X text 206 239 just like wetdry~ \, but uses audio input to control
mix;
#X obj 169 37 inlet~;
#X text 169 20 control;
#X obj 174 99 clip~ -1 1;
#X obj 243 66 sig~;
#X obj 174 123 +~ 1;
#X obj 174 145 /~ 2;
#X obj 180 171 -~ 1;
#X obj 181 196 *~ -1;
#X connect 1 0 0 0;
#X connect 2 0 0 0;
#X connect 3 0 2 0;
#X connect 4 0 1 0;
#X connect 7 0 8 0;
#X connect 8 0 13 0;
#X connect 10 0 12 0;
#X connect 12 0 14 0;
#X connect 13 0 12 0;
#X connect 14 0 15 0;
#X connect 15 0 16 0;
#X connect 15 0 2 1;
#X connect 16 0 17 0;
#X connect 17 0 1 1;
