#N canvas 0 0 414 300 10;
#X obj 78 264 outlet~;
#X obj 131 228 *~;
#X obj 54 212 *~;
#X obj 71 165 -;
#X obj 62 139 1;
#X obj 73 113 t b f f;
#X obj 35 34 inlet~;
#X obj 146 34 inlet~;
#X text 32 17 dry sig;
#X text 141 15 wet sig;
#X obj 216 33 inlet;
#X text 213 16 control;
#X obj 217 71 clip 0 100;
#X obj 217 95 / 100;
#X obj 286 26 loadbang;
#X obj 288 47 \$1;
#X connect 1 0 0 0;
#X connect 2 0 0 0;
#X connect 3 0 2 1;
#X connect 4 0 3 0;
#X connect 5 0 4 0;
#X connect 5 1 3 1;
#X connect 5 2 1 1;
#X connect 6 0 2 0;
#X connect 7 0 1 0;
#X connect 10 0 12 0;
#X connect 12 0 13 0;
#X connect 13 0 5 0;
#X connect 14 0 15 0;
#X connect 15 0 12 0;
