#N canvas 3 52 971 679 10;
#X obj 364 498 sout~;
#X obj 357 405 osc~;
#X obj 339 236 oscsq~;
#X obj 357 377 +~ 40;
#X obj 310 152 mtof;
#X floatatom 298 112 5 0 0 0 - - -;
#X floatatom 436 243 5 0 0 0 - - -;
#X obj 351 303 *~;
#X obj 439 215 mtof;
#X floatatom 440 199 5 0 0 0 - - -;
#X floatatom 386 144 5 0 0 0 - - -;
#X floatatom 391 352 5 0 0 0 - - -;
#X obj 548 374 * 1.5;
#X floatatom 545 407 5 0 0 0 - - -;
#X connect 1 0 0 0;
#X connect 1 0 0 1;
#X connect 2 0 7 0;
#X connect 3 0 1 0;
#X connect 4 0 2 0;
#X connect 4 0 12 0;
#X connect 5 0 4 0;
#X connect 6 0 7 1;
#X connect 7 0 3 0;
#X connect 8 0 6 0;
#X connect 9 0 8 0;
#X connect 10 0 2 0;
#X connect 11 0 3 1;
#X connect 12 0 11 0;
#X connect 12 0 13 0;
