#N canvas 16 52 1050 683 10;
#X obj 414 481 sout~;
#X obj 421 362 osc~;
#X obj 423 191 +~ 1;
#X obj 421 213 /~ 2;
#X obj 439 256 *~ 50;
#X obj 421 170 oscsq~ 10;
#X obj 446 287 +~ 220;
#X floatatom 428 104 5 0 0 0 - - -;
#X floatatom 494 229 5 0 0 0 - - -;
#X floatatom 492 265 5 0 0 0 - - -;
#X obj 561 248 * 1.5;
#X obj 548 110 mtof;
#X floatatom 558 154 5 0 0 0 - - -;
#X floatatom 541 73 5 0 0 0 - - -;
#X connect 1 0 0 0;
#X connect 2 0 3 0;
#X connect 3 0 4 0;
#X connect 4 0 6 0;
#X connect 5 0 2 0;
#X connect 6 0 1 0;
#X connect 7 0 5 0;
#X connect 8 0 4 1;
#X connect 8 0 10 0;
#X connect 9 0 6 1;
#X connect 10 0 9 0;
#X connect 11 0 12 0;
#X connect 11 0 8 0;
#X connect 13 0 11 0;
