#N canvas 396 368 828 517 10;
#X obj 251 344 dac~;
#X obj 290 70 adc~;
#X obj 314 310 hsl 128 15 0 1 0 0 empty empty empty -2 -6 0 8 -262144
-1 -1 12700 1;
#X obj 249 301 *~;
#X obj 301 136 dline~ 100 0.5;
#X floatatom 345 100 5 0 0 0 - - -;
#X floatatom 394 99 5 0 0 0 - - -;
#X obj 180 128 dline~ 100 0.5;
#X obj 168 260 +~;
#X obj 169 292 /~ 2;
#X floatatom 224 88 5 0 0 0 - - -;
#X floatatom 255 107 5 0 0 0 - - -;
#X floatatom 314 336 5 0 0 0 - - -;
#X connect 1 0 4 0;
#X connect 1 0 7 0;
#X connect 2 0 3 1;
#X connect 2 0 12 0;
#X connect 3 0 0 0;
#X connect 3 0 0 1;
#X connect 4 0 8 1;
#X connect 5 0 4 1;
#X connect 6 0 4 2;
#X connect 7 0 8 0;
#X connect 8 0 9 0;
#X connect 9 0 3 0;
#X connect 10 0 7 1;
#X connect 11 0 7 2;
