#N canvas 286 12 636 602 10;
#X obj 43 32 unpackOSC;
#X obj 44 58 pipelist;
#X obj 44 80 route /acc /ori /touch;
#X obj 116 108 print ORI;
#X obj 226 113 print TOUCH;
#X obj 42 11 udpreceive 18663;
#X obj 92 429 mout~;
#X obj 21 178 unpack f f f;
#X floatatom 7 240 5 0 0 0 - - -;
#X obj 170 399 tgl 15 0 empty empty empty 17 7 0 10 -262144 -1 -1 1
1;
#N canvas 798 47 537 446 orientation 0;
#X obj 63 175 noise~;
#X obj 91 55 unpack f f f;
#X obj 65 257 *~;
#X obj 181 90 range -90 90 0 1;
#X floatatom 199 115 5 0 0 0 - - -;
#X floatatom 129 165 5 0 0 0 - - -;
#X obj 60 200 bp~ 100 1;
#X obj 67 234 dline~ 350 0.8;
#X obj 116 137 range -180 180 30 1500;
#X obj 56 17 inlet;
#X obj 65 330 outlet~;
#X connect 0 0 6 0;
#X connect 1 1 8 0;
#X connect 1 2 3 0;
#X connect 2 0 10 0;
#X connect 3 0 4 0;
#X connect 3 0 2 1;
#X connect 6 0 7 0;
#X connect 7 0 2 0;
#X connect 8 0 5 0;
#X connect 8 0 6 1;
#X connect 9 0 1 0;
#X restore 123 144 pd orientation;
#X obj 44 256 -;
#X obj 64 234 f;
#X obj 39 208 t f f b;
#X obj 44 277 abs;
#X floatatom 61 299 5 0 0 0 - - -;
#X obj 34 345 range 0 30 100 4000;
#X floatatom 45 367 5 0 0 0 - - -;
#X obj 283 361 osc~;
#X obj 211 293 t b f;
#X obj 243 405 *~;
#X obj 192 336 adsr~ 35 0.6 10 12 12;
#X obj 34 319 moses 0.1;
#X connect 0 0 1 0;
#X connect 0 1 1 1;
#X connect 1 0 2 0;
#X connect 2 0 7 0;
#X connect 2 1 3 0;
#X connect 2 1 10 0;
#X connect 2 2 4 0;
#X connect 5 0 0 0;
#X connect 7 0 8 0;
#X connect 7 0 13 0;
#X connect 9 0 6 1;
#X connect 10 0 6 0;
#X connect 11 0 14 0;
#X connect 12 0 11 1;
#X connect 13 0 11 0;
#X connect 13 1 12 1;
#X connect 13 2 12 0;
#X connect 14 0 15 0;
#X connect 14 0 22 0;
#X connect 16 0 17 0;
#X connect 16 0 19 0;
#X connect 18 0 20 1;
#X connect 19 0 21 0;
#X connect 19 1 18 0;
#X connect 20 0 6 0;
#X connect 21 0 20 0;
#X connect 22 1 16 0;
