#N canvas 195 575 792 318 10;
#X obj 25 17 dumpOSC 7777;
#X obj 25 278 print;
#X obj 83 70 OSCroute /fingerplay;
#X obj 86 95 OSCroute /control;
#X floatatom 51 155 5 0 0 0 - - -;
#X floatatom 93 154 5 0 0 0 - - -;
#X floatatom 133 155 5 0 0 0 - - -;
#X floatatom 175 154 5 0 0 0 - - -;
#X floatatom 213 154 5 0 0 0 - - -;
#X floatatom 255 153 5 0 0 0 - - -;
#X obj 87 117 OSCroute /0 /1 /2 /3 /4 /5;
#X obj 580 99 tgl 25 0 empty fp14 empty 17 7 0 10 -1 -262144 -262144
0 1;
#X obj 580 131 tgl 25 0 empty fp15 empty 17 7 0 10 -1 -262144 -262144
0 1;
#X obj 580 163 tgl 25 0 empty fp16 empty 17 7 0 10 -1 -262144 -262144
0 1;
#X obj 580 196 tgl 25 0 empty fp17 empty 17 7 0 10 -1 -262144 -262144
0 1;
#X obj 613 99 tgl 25 0 empty fp18 empty 17 7 0 10 -1 -262144 -262144
0 1;
#X obj 613 131 tgl 25 0 empty fp19 empty 17 7 0 10 -1 -262144 -262144
0 1;
#X obj 613 163 tgl 25 0 empty fp20 empty 17 7 0 10 -1 -262144 -262144
0 1;
#X obj 613 196 tgl 25 0 empty fp21 empty 17 7 0 10 -1 -262144 -262144
0 1;
#N canvas 0 0 585 329 col2 0;
#X obj 173 29 inlet;
#X obj 380 48 outlet;
#X obj 176 48 OSCroute /18 /19 /20 /21;
#X obj 35 137 t b f;
#X obj 85 138 t b f;
#X obj 178 134 t b f;
#X obj 228 135 t b f;
#X obj 312 135 t b f;
#X obj 362 136 t b f;
#X obj 442 134 t b f;
#X obj 492 135 t b f;
#X msg 15 200 \; fp18 color 22 0 0;
#X msg 36 167 \; fp18 \$1;
#X msg 16 235 \; fp18 color 13 13 0;
#X msg 159 200 \; fp19 color 22 0 0;
#X msg 182 167 \; fp19 \$1;
#X msg 155 233 \; fp19 color 13 13 0;
#X msg 314 167 \; fp20 \$1;
#X msg 486 165 \; fp21 \$1;
#X msg 423 199 \; fp21 color 22 0 0;
#X msg 293 201 \; fp20 color 22 0 0;
#X msg 287 234 \; fp20 color 13 13 0;
#X msg 419 233 \; fp21 color 13 13 0;
#X obj 54 88 moses 40;
#X msg 86 110 1;
#X msg 56 110 0;
#X obj 188 89 moses 40;
#X msg 220 111 1;
#X msg 191 111 0;
#X obj 317 86 moses 40;
#X msg 349 108 1;
#X msg 319 108 0;
#X obj 441 84 moses 40;
#X msg 473 106 1;
#X msg 443 106 0;
#X connect 0 0 2 0;
#X connect 2 0 23 0;
#X connect 2 1 26 0;
#X connect 2 2 29 0;
#X connect 2 3 32 0;
#X connect 2 4 1 0;
#X connect 3 0 11 0;
#X connect 3 1 12 0;
#X connect 4 0 13 0;
#X connect 4 1 12 0;
#X connect 5 0 14 0;
#X connect 5 1 15 0;
#X connect 6 0 16 0;
#X connect 6 1 15 0;
#X connect 7 0 20 0;
#X connect 7 1 17 0;
#X connect 8 0 21 0;
#X connect 8 1 17 0;
#X connect 9 0 19 0;
#X connect 9 1 18 0;
#X connect 10 0 22 0;
#X connect 10 1 18 0;
#X connect 23 0 25 0;
#X connect 23 1 24 0;
#X connect 24 0 4 0;
#X connect 25 0 3 0;
#X connect 26 0 28 0;
#X connect 26 1 27 0;
#X connect 27 0 6 0;
#X connect 28 0 5 0;
#X connect 29 0 31 0;
#X connect 29 1 30 0;
#X connect 30 0 8 0;
#X connect 31 0 7 0;
#X connect 32 0 34 0;
#X connect 32 1 33 0;
#X connect 33 0 10 0;
#X connect 34 0 9 0;
#X restore 608 76 pd col2;
#X obj 645 99 tgl 25 0 empty fp22 empty 17 7 0 10 -1 -262144 -262144
0 1;
#X obj 645 131 tgl 25 0 empty fp23 empty 17 7 0 10 -1 -262144 -262144
0 1;
#X obj 645 163 tgl 25 0 empty fp24 empty 17 7 0 10 -1 -262144 -262144
0 1;
#X obj 645 196 tgl 25 0 empty fp25 empty 17 7 0 10 -1 -262144 -262144
0 1;
#X obj 678 99 tgl 25 0 empty fp26 empty 17 7 0 10 -1 -262144 -262144
0 1;
#X obj 678 131 tgl 25 0 empty fp27 empty 17 7 0 10 -1 -262144 -262144
0 1;
#X obj 678 163 tgl 25 0 empty fp28 empty 17 7 0 10 -1 -262144 -262144
0 1;
#X obj 678 196 tgl 25 0 empty fp29 empty 17 7 0 10 -1 -262144 -262144
0 1;
#N canvas 424 17 723 404 sliders 0;
#X obj 36 19 inlet;
#X obj 304 61 outlet;
#X floatatom 8 97 5 0 0 0 - - -;
#X floatatom 50 96 5 0 0 0 - - -;
#X floatatom 90 97 5 0 0 0 - - -;
#X floatatom 132 96 5 0 0 0 - - -;
#X floatatom 170 96 5 0 0 0 - - -;
#X floatatom 212 95 5 0 0 0 - - -;
#X obj 44 59 OSCroute /6 /7 /8 /9 /10 /11 /12 /13;
#X floatatom 250 96 5 0 0 0 - - -;
#X floatatom 292 95 5 0 0 0 - - -;
#X obj 13 128 cnv 15 200 150 empty empty empty 20 12 0 14 -224763 -66577
0;
#X obj 58 150 hsl 128 20 0 127 0 0 empty empty empty -2 -8 0 10 -1
-258113 -1 7200 1;
#X obj 30 150 tgl 20 0 empty fp6 empty 17 7 0 10 -1 -258699 -262144
0 127;
#X obj 58 180 hsl 128 20 0 127 0 0 empty empty empty -2 -8 0 10 -1
-258113 -1 2900 1;
#X obj 30 180 tgl 20 0 empty fp8 empty 17 7 0 10 -1 -258699 -262144
0 127;
#X obj 58 210 hsl 128 20 0 127 0 0 empty empty empty -2 -8 0 10 -1
-258113 -1 7300 1;
#X obj 30 210 tgl 20 0 empty fp10 empty 17 7 0 10 -258699 -262144 -262144
127 127;
#X obj 58 240 hsl 128 20 0 127 0 0 empty empty empty -2 -8 0 10 -1
-258113 -1 8600 1;
#X obj 30 240 tgl 20 0 empty fp12 empty 17 7 0 10 -1 -258699 -262144
0 127;
#X obj 237 146 select 127;
#X msg 237 197 \; fp6 color 22 13 0;
#X msg 238 166 \; fp6 color 13 0 0;
#X obj 352 145 select 127;
#X obj 237 233 select 127;
#X obj 362 235 select 127;
#X msg 354 165 \; fp8 color 13 0 0;
#X msg 352 196 \; fp8 color 22 13 0;
#X msg 236 253 \; fp10 color 13 0 0;
#X msg 238 285 \; fp10 color 22 13 0;
#X msg 362 285 \; fp12 color 22 13 0;
#X msg 363 255 \; fp12 color 13 0 0;
#X connect 0 0 8 0;
#X connect 2 0 13 0;
#X connect 2 0 20 0;
#X connect 3 0 12 0;
#X connect 4 0 15 0;
#X connect 4 0 23 0;
#X connect 5 0 14 0;
#X connect 6 0 17 0;
#X connect 6 0 24 0;
#X connect 7 0 16 0;
#X connect 8 0 2 0;
#X connect 8 1 3 0;
#X connect 8 2 4 0;
#X connect 8 3 5 0;
#X connect 8 4 6 0;
#X connect 8 5 7 0;
#X connect 8 6 9 0;
#X connect 8 7 10 0;
#X connect 8 8 1 0;
#X connect 9 0 19 0;
#X connect 9 0 25 0;
#X connect 10 0 18 0;
#X connect 20 0 22 0;
#X connect 20 1 21 0;
#X connect 23 0 26 0;
#X connect 23 1 27 0;
#X connect 24 0 28 0;
#X connect 24 1 29 0;
#X connect 25 0 31 0;
#X connect 25 1 30 0;
#X coords 0 -1 1 1 200 150 1 13 129;
#X restore 339 83 pd sliders;
#X text 139 17 for use with fingerplay http://thesundancekid.net/blog/category/fingerplay
;
#X text 139 41 for free in the android marketplace;
#N canvas 645 0 572 330 col1 1;
#X obj 96 53 OSCroute /14 /15 /16 /17;
#X obj 50 101 moses 40;
#X msg 82 123 1;
#X msg 52 123 0;
#X msg 36 185 \; fp14 \$1;
#X obj 94 34 inlet;
#X obj 184 102 moses 40;
#X msg 216 124 1;
#X msg 187 124 0;
#X obj 313 99 moses 40;
#X msg 345 121 1;
#X msg 315 121 0;
#X obj 437 97 moses 40;
#X msg 469 119 1;
#X msg 439 119 0;
#X obj 301 53 outlet;
#X obj 34 155 t b f;
#X obj 84 156 t b f;
#X msg 14 218 \; fp14 color 22 0 0;
#X msg 14 253 \; fp14 color 13 13 0;
#X obj 177 152 t b f;
#X obj 227 153 t b f;
#X msg 180 184 \; fp15 \$1;
#X msg 154 251 \; fp15 color 13 13 0;
#X msg 158 217 \; fp15 color 22 0 0;
#X obj 311 153 t b f;
#X obj 361 154 t b f;
#X obj 441 152 t b f;
#X obj 491 153 t b f;
#X msg 313 185 \; fp16 \$1;
#X msg 292 218 \; fp16 color 22 0 0;
#X msg 288 252 \; fp16 color 13 13 0;
#X msg 422 217 \; fp17 color 22 0 0;
#X msg 418 251 \; fp17 color 13 13 0;
#X msg 444 184 \; fp17 \$1;
#X connect 0 0 1 0;
#X connect 0 1 6 0;
#X connect 0 2 9 0;
#X connect 0 3 12 0;
#X connect 0 4 15 0;
#X connect 1 0 3 0;
#X connect 1 1 2 0;
#X connect 2 0 17 0;
#X connect 3 0 16 0;
#X connect 5 0 0 0;
#X connect 6 0 8 0;
#X connect 6 1 7 0;
#X connect 7 0 21 0;
#X connect 8 0 20 0;
#X connect 9 0 11 0;
#X connect 9 1 10 0;
#X connect 10 0 26 0;
#X connect 11 0 25 0;
#X connect 12 0 14 0;
#X connect 12 1 13 0;
#X connect 13 0 28 0;
#X connect 14 0 27 0;
#X connect 16 0 18 0;
#X connect 16 1 4 0;
#X connect 17 0 19 0;
#X connect 17 1 4 0;
#X connect 20 0 24 0;
#X connect 20 1 22 0;
#X connect 21 0 23 0;
#X connect 21 1 22 0;
#X connect 25 0 30 0;
#X connect 25 1 29 0;
#X connect 26 0 31 0;
#X connect 26 1 29 0;
#X connect 27 0 32 0;
#X connect 27 1 34 0;
#X connect 28 0 33 0;
#X connect 28 1 34 0;
#X restore 557 76 pd col1;
#N canvas 0 0 595 408 col3 0;
#X obj 60 102 moses 40;
#X msg 92 124 1;
#X msg 62 124 0;
#X obj 104 35 inlet;
#X obj 186 103 moses 40;
#X msg 218 125 1;
#X msg 188 125 0;
#X obj 321 107 moses 40;
#X msg 353 129 1;
#X msg 314 127 0;
#X obj 449 107 moses 40;
#X msg 490 128 1;
#X msg 451 129 0;
#X obj 311 54 outlet;
#X obj 106 54 OSCroute /22 /23 /24 /25;
#X obj 34 155 t b f;
#X obj 84 156 t b f;
#X obj 177 152 t b f;
#X obj 227 153 t b f;
#X obj 311 153 t b f;
#X obj 361 154 t b f;
#X obj 441 152 t b f;
#X obj 491 153 t b f;
#X msg 36 185 \; fp22 \$1;
#X msg 14 221 \; fp22 color 22 0 0;
#X msg 14 253 \; fp22 color 13 13 0;
#X msg 180 184 \; fp23 \$1;
#X msg 158 217 \; fp23 color 22 0 0;
#X msg 154 251 \; fp23 color 13 13 0;
#X msg 313 184 \; fp24 \$1;
#X msg 292 218 \; fp24 color 22 0 0;
#X msg 444 184 \; fp25 \$1;
#X msg 422 217 \; fp25 color 22 0 0;
#X msg 418 251 \; fp25 color 13 13 0;
#X msg 288 253 \; fp24 color 13 13 0;
#X connect 0 0 2 0;
#X connect 0 1 1 0;
#X connect 1 0 16 0;
#X connect 2 0 15 0;
#X connect 3 0 14 0;
#X connect 4 0 6 0;
#X connect 4 1 5 0;
#X connect 5 0 18 0;
#X connect 6 0 17 0;
#X connect 7 0 9 0;
#X connect 7 1 8 0;
#X connect 8 0 20 0;
#X connect 9 0 19 0;
#X connect 10 0 12 0;
#X connect 10 1 11 0;
#X connect 11 0 22 0;
#X connect 12 0 21 0;
#X connect 14 0 0 0;
#X connect 14 1 4 0;
#X connect 14 2 7 0;
#X connect 14 3 10 0;
#X connect 14 4 13 0;
#X connect 15 0 24 0;
#X connect 15 1 23 0;
#X connect 16 0 25 0;
#X connect 16 1 23 0;
#X connect 17 0 27 0;
#X connect 17 1 26 0;
#X connect 18 0 28 0;
#X connect 18 1 26 0;
#X connect 19 0 30 0;
#X connect 19 1 29 0;
#X connect 20 0 34 0;
#X connect 20 1 29 0;
#X connect 21 0 32 0;
#X connect 21 1 31 0;
#X connect 22 0 33 0;
#X connect 22 1 31 0;
#X restore 662 76 pd col3;
#N canvas 0 0 611 384 col4 0;
#X obj 50 101 moses 40;
#X msg 82 123 1;
#X msg 52 123 0;
#X obj 236 31 inlet;
#X obj 189 100 moses 40;
#X msg 221 122 1;
#X msg 191 122 0;
#X obj 321 104 moses 40;
#X msg 353 126 1;
#X msg 323 126 0;
#X obj 455 105 moses 40;
#X msg 487 127 1;
#X msg 457 127 0;
#X obj 443 50 outlet;
#X obj 238 51 OSCroute /26 /27 /28 /29;
#X obj 34 155 t b f;
#X obj 84 156 t b f;
#X obj 177 152 t b f;
#X obj 227 153 t b f;
#X obj 311 153 t b f;
#X obj 361 154 t b f;
#X obj 441 152 t b f;
#X obj 491 153 t b f;
#X msg 35 184 \; fp26 \$1;
#X msg 13 218 \; fp26 color 22 0 0;
#X msg 14 253 \; fp26 color 13 13 0;
#X msg 156 217 \; fp27 color 22 0 0;
#X msg 180 184 \; fp27 \$1;
#X msg 154 251 \; fp27 color 13 13 0;
#X msg 313 185 \; fp28 \$1;
#X msg 293 218 \; fp28 color 22 0 0;
#X msg 285 253 \; fp28 color 13 13 0;
#X msg 444 184 \; fp29 \$1;
#X msg 422 217 \; fp29 color 22 0 0;
#X msg 419 249 \; fp29 color 13 13 0;
#X connect 0 0 2 0;
#X connect 0 1 1 0;
#X connect 1 0 16 0;
#X connect 2 0 15 0;
#X connect 3 0 14 0;
#X connect 4 0 6 0;
#X connect 4 1 5 0;
#X connect 5 0 18 0;
#X connect 6 0 17 0;
#X connect 7 0 9 0;
#X connect 7 1 8 0;
#X connect 8 0 20 0;
#X connect 9 0 19 0;
#X connect 10 0 12 0;
#X connect 10 1 11 0;
#X connect 11 0 22 0;
#X connect 12 0 21 0;
#X connect 14 0 0 0;
#X connect 14 1 4 0;
#X connect 14 2 7 0;
#X connect 14 3 10 0;
#X connect 14 4 13 0;
#X connect 15 0 24 0;
#X connect 15 1 23 0;
#X connect 16 0 25 0;
#X connect 16 1 23 0;
#X connect 17 0 26 0;
#X connect 17 1 27 0;
#X connect 18 0 28 0;
#X connect 18 1 27 0;
#X connect 19 0 30 0;
#X connect 19 1 29 0;
#X connect 20 0 31 0;
#X connect 20 1 29 0;
#X connect 21 0 33 0;
#X connect 21 1 32 0;
#X connect 22 0 34 0;
#X connect 22 1 32 0;
#X restore 713 76 pd col4;
#X connect 0 0 1 0;
#X connect 0 0 2 0;
#X connect 2 0 3 0;
#X connect 3 0 10 0;
#X connect 10 0 4 0;
#X connect 10 1 5 0;
#X connect 10 2 6 0;
#X connect 10 3 7 0;
#X connect 10 4 8 0;
#X connect 10 5 9 0;
#X connect 10 6 28 0;
#X connect 19 0 32 0;
#X connect 28 0 31 0;
#X connect 31 0 19 0;
#X connect 32 0 33 0;
