#N canvas 15 75 838 486 10;
#X obj 25 17 dumpOSC 7777;
#X obj 25 383 print;
#X obj 86 65 OSCroute /fingerplay;
#X obj 89 90 OSCroute /control;
#X floatatom 54 150 5 0 0 0 - - -;
#X floatatom 96 149 5 0 0 0 - - -;
#X floatatom 136 150 5 0 0 0 - - -;
#X floatatom 178 149 5 0 0 0 - - -;
#X floatatom 216 149 5 0 0 0 - - -;
#X floatatom 258 148 5 0 0 0 - - -;
#X obj 90 112 OSCroute /0 /1 /2 /3 /4 /5;
#X floatatom 311 150 5 0 0 0 - - -;
#X floatatom 353 149 5 0 0 0 - - -;
#X floatatom 393 150 5 0 0 0 - - -;
#X floatatom 435 149 5 0 0 0 - - -;
#X floatatom 473 149 5 0 0 0 - - -;
#X floatatom 515 148 5 0 0 0 - - -;
#X obj 347 112 OSCroute /6 /7 /8 /9 /10 /11 /12 /13;
#X floatatom 553 149 5 0 0 0 - - -;
#X floatatom 595 148 5 0 0 0 - - -;
#X obj 330 228 OSCroute /14 /15 /16 /17;
#X obj 325 258 moses 40;
#X obj 328 315 tgl 15 0 empty fp11 empty 17 7 0 10 -262144 -1 -1 0
1;
#X msg 357 280 1;
#X msg 327 280 0;
#X msg 487 304 \; fp11 1;
#X connect 0 0 1 0;
#X connect 0 0 2 0;
#X connect 2 0 3 0;
#X connect 3 0 10 0;
#X connect 10 0 4 0;
#X connect 10 1 5 0;
#X connect 10 2 6 0;
#X connect 10 3 7 0;
#X connect 10 4 8 0;
#X connect 10 5 9 0;
#X connect 10 6 17 0;
#X connect 17 0 11 0;
#X connect 17 1 12 0;
#X connect 17 2 13 0;
#X connect 17 3 14 0;
#X connect 17 4 15 0;
#X connect 17 5 16 0;
#X connect 17 6 18 0;
#X connect 17 7 19 0;
#X connect 17 8 20 0;
#X connect 20 0 21 0;
#X connect 21 0 24 0;
#X connect 21 1 23 0;
#X connect 23 0 22 0;
#X connect 24 0 22 0;
