#N canvas 124 355 645 454 10;
#N canvas 137 53 348 325 hid_to_messages 0;
#X obj 128 175 hid 0;
#X msg 139 77 open 1;
#X text 200 145 ms;
#X msg 39 132 0;
#X msg 36 156 close;
#X msg 203 126 25;
#X obj 102 208 route key abs;
#N canvas 45 65 653 404 positions 0;
#X floatatom 43 117 5 0 0 0 - - -;
#X floatatom 93 120 5 0 0 0 - - -;
#X floatatom 146 122 5 0 0 0 - - -;
#X floatatom 225 142 5 0 0 0 - - -;
#X floatatom 285 141 5 0 0 0 - - -;
#X floatatom 446 198 5 0 0 0 - - -;
#X obj 71 86 route abs_x abs_y abs_z;
#X obj 436 175 route abs_rudder;
#X obj 224 116 route abs_rx abs_ry abs_rz;
#X floatatom 348 143 5 0 0 0 - - -;
#X obj 165 201 route 0 255;
#X msg 157 228 bang;
#X msg 231 225 bang;
#X obj 137 229 bng 15 250 50 0 empty empty empty 17 7 0 10 -262144
-1 -1;
#X obj 209 229 bng 15 250 50 0 empty empty empty 17 7 0 10 -262144
-1 -1;
#X obj 147 249 s hid_pad_U;
#X obj 231 249 s hid_pad_D;
#X obj 419 254 route 0 255;
#X msg 407 322 bang;
#X msg 485 278 bang;
#X obj 387 323 bng 15 250 50 0 empty empty empty 17 7 0 10 -262144
-1 -1;
#X obj 463 282 bng 15 250 50 0 empty empty empty 17 7 0 10 -262144
-1 -1;
#X obj 485 302 s hid_pad_R;
#X obj 397 343 s hid_pad_L;
#X obj 87 30 inlet;
#X obj 417 221 change;
#X obj 192 178 change;
#X obj 86 154 s l_y;
#X obj 27 154 s l_x;
#X obj 155 140 s r_y;
#X obj 352 174 s r_x;
#X connect 6 0 0 0;
#X connect 6 0 28 0;
#X connect 6 1 1 0;
#X connect 6 1 27 0;
#X connect 6 2 2 0;
#X connect 6 2 29 0;
#X connect 6 3 8 0;
#X connect 7 0 5 0;
#X connect 7 0 25 0;
#X connect 8 0 3 0;
#X connect 8 0 26 0;
#X connect 8 1 4 0;
#X connect 8 2 9 0;
#X connect 8 2 30 0;
#X connect 8 3 7 0;
#X connect 10 0 11 0;
#X connect 10 0 13 0;
#X connect 10 1 12 0;
#X connect 10 1 14 0;
#X connect 11 0 15 0;
#X connect 12 0 16 0;
#X connect 17 0 18 0;
#X connect 17 0 20 0;
#X connect 17 1 19 0;
#X connect 17 1 21 0;
#X connect 18 0 23 0;
#X connect 19 0 22 0;
#X connect 24 0 6 0;
#X connect 25 0 17 0;
#X connect 26 0 10 0;
#X restore 145 240 pd positions;
#N canvas 447 28 450 300 buttons 0;
#X obj 38 31 inlet;
#X obj 58 65 route btn_0 btn_1 btn_2 btn_3;
#X obj 57 124 s btn_0;
#X obj 113 124 s btn_1;
#X obj 169 125 s btn_2;
#X obj 227 124 s btn_3;
#X obj 62 165 route btn_4 btn_5 btn_6 btn_7;
#X obj 65 210 s btn_4;
#X obj 122 210 s btn_5;
#X obj 177 211 s btn_6;
#X obj 236 210 s btn_7;
#X obj 113 189 change;
#X obj 57 188 change;
#X obj 233 188 change;
#X obj 172 189 change;
#X obj 55 91 change;
#X obj 107 93 change;
#X obj 159 93 change;
#X obj 217 95 change;
#X connect 0 0 1 0;
#X connect 1 0 15 0;
#X connect 1 1 16 0;
#X connect 1 2 17 0;
#X connect 1 3 18 0;
#X connect 1 4 6 0;
#X connect 6 0 12 0;
#X connect 6 1 11 0;
#X connect 6 2 14 0;
#X connect 6 3 13 0;
#X connect 11 0 8 0;
#X connect 12 0 7 0;
#X connect 13 0 10 0;
#X connect 14 0 9 0;
#X connect 15 0 2 0;
#X connect 16 0 3 0;
#X connect 17 0 4 0;
#X connect 18 0 5 0;
#X restore 102 270 pd buttons;
#X msg 172 102 debug 0;
#X obj 108 25 loadbang;
#X obj 120 48 t b b b;
#X connect 0 0 6 0;
#X connect 1 0 0 0;
#X connect 3 0 0 0;
#X connect 4 0 0 0;
#X connect 5 0 0 0;
#X connect 6 0 8 0;
#X connect 6 1 7 0;
#X connect 9 0 0 0;
#X connect 10 0 11 0;
#X connect 11 0 5 0;
#X connect 11 1 9 0;
#X connect 11 2 1 0;
#X restore 62 22 pd hid_to_messages;
#X obj 52 318 sout~;
#X obj 136 289 loadbang;
#X obj 70 287 *~ -1;
#N canvas 43 20 517 473 hid_selector 0;
#X obj 26 425 outlet~;
#X obj 22 29 inlet~;
#X obj 130 25 inlet~;
#X obj 27 379 *~;
#X obj 127 382 *~;
#X msg 77 330 0;
#X msg 182 325 0;
#X msg 149 327 1;
#X msg 48 330 1;
#X obj 271 29 inlet~;
#X obj 387 29 inlet~;
#X obj 250 379 *~;
#X obj 350 382 *~;
#X msg 300 330 0;
#X msg 416 326 0;
#X msg 383 328 1;
#X msg 271 330 1;
#X obj 57 161 loadbang;
#X obj 177 68 select 1;
#X obj 175 149 f;
#X obj 211 148 + 1;
#X obj 176 182 moses 4;
#X msg 216 205 0;
#X floatatom 175 227 5 0 0 0 - - -;
#X obj 171 289 route 0 1 2 3;
#X obj 199 44 r btn_4;
#X obj 199 265 s which;
#N canvas 591 164 450 300 beeptog 0;
#X obj 155 169 osc~ 3000;
#X obj 132 112 t b b;
#X msg 114 138 1;
#X msg 146 138 0;
#X obj 109 65 t b b;
#X obj 125 89 delay 45;
#X obj 30 22 inlet;
#X obj 54 260 outlet;
#X obj 134 258 outlet~;
#X obj 120 193 *~;
#X connect 0 0 9 1;
#X connect 1 0 7 0;
#X connect 1 1 3 0;
#X connect 2 0 9 0;
#X connect 3 0 9 0;
#X connect 4 0 5 0;
#X connect 4 1 2 0;
#X connect 5 0 1 0;
#X connect 6 0 4 0;
#X connect 9 0 8 0;
#X restore 176 101 pd beeptog;
#X connect 1 0 3 0;
#X connect 2 0 4 0;
#X connect 3 0 0 0;
#X connect 4 0 0 0;
#X connect 5 0 4 1;
#X connect 5 0 11 1;
#X connect 5 0 12 1;
#X connect 6 0 3 1;
#X connect 6 0 11 1;
#X connect 6 0 12 1;
#X connect 7 0 4 1;
#X connect 8 0 3 1;
#X connect 9 0 11 0;
#X connect 10 0 12 0;
#X connect 11 0 0 0;
#X connect 12 0 0 0;
#X connect 13 0 12 1;
#X connect 13 0 4 1;
#X connect 13 0 3 1;
#X connect 14 0 11 1;
#X connect 14 0 4 1;
#X connect 14 0 3 1;
#X connect 15 0 12 1;
#X connect 16 0 11 1;
#X connect 17 0 8 0;
#X connect 17 0 5 0;
#X connect 18 0 27 0;
#X connect 19 0 21 0;
#X connect 20 0 19 1;
#X connect 21 0 23 0;
#X connect 21 0 20 0;
#X connect 21 1 22 0;
#X connect 22 0 23 0;
#X connect 22 0 20 0;
#X connect 23 0 24 0;
#X connect 23 0 26 0;
#X connect 24 0 8 0;
#X connect 24 0 5 0;
#X connect 24 1 7 0;
#X connect 24 1 6 0;
#X connect 24 2 16 0;
#X connect 24 2 13 0;
#X connect 24 3 15 0;
#X connect 24 3 14 0;
#X connect 25 0 18 0;
#X connect 27 0 19 0;
#X connect 27 1 0 0;
#X restore 51 232 pd hid_selector;
#N canvas 100 9 635 451 one 0;
#X obj 32 424 outlet~;
#X obj 61 301 osc~;
#X obj 21 139 bng 15 250 50 0 empty empty empty 0 -6 0 8 -262144 -1
-1;
#N canvas 0 0 498 440 bars 0;
#X obj 61 261 rndseq 4 25 75;
#X floatatom 73 286 5 0 0 0 - - -;
#X obj 63 309 mtof;
#X obj 177 235 bng 15 250 50 0 empty empty empty 0 -6 0 8 -262144 -1
-1;
#X obj 63 338 outlet;
#X obj 211 36 inlet;
#X text 197 17 randomize;
#X obj 29 27 inlet;
#X text 28 8 start;
#X obj 248 348 outlet;
#X text 233 332 finished;
#X obj 214 97 random 3;
#X obj 214 130 + 1;
#X obj 61 189 loadbang;
#X floatatom 227 157 5 0 0 0 - - -;
#X obj 171 209 bangs 4 150;
#X obj 297 148 r barsbase;
#X obj 210 178 * 4;
#X obj 96 38 r barslen;
#X obj 103 73 t f f;
#X connect 0 0 2 0;
#X connect 0 0 1 0;
#X connect 2 0 4 0;
#X connect 5 0 11 0;
#X connect 5 0 0 0;
#X connect 7 0 15 0;
#X connect 11 0 12 0;
#X connect 12 0 14 0;
#X connect 12 0 17 0;
#X connect 13 0 0 0;
#X connect 15 0 3 0;
#X connect 15 0 0 4;
#X connect 15 1 9 0;
#X connect 16 0 15 2;
#X connect 17 0 15 1;
#X connect 18 0 19 0;
#X connect 19 0 0 1;
#X connect 19 1 17 1;
#X restore 256 246 pd bars;
#X obj 299 227 bng 15 250 50 0 empty empty empty 0 -6 0 8 -262144 -1
-1;
#N canvas 0 0 498 440 bars 0;
#X obj 61 261 rndseq 4 25 75;
#X floatatom 73 286 5 0 0 0 - - -;
#X obj 63 309 mtof;
#X obj 177 235 bng 15 250 50 0 empty empty empty 0 -6 0 8 -262144 -1
-1;
#X obj 63 338 outlet;
#X obj 211 36 inlet;
#X text 197 17 randomize;
#X obj 29 27 inlet;
#X text 28 8 start;
#X obj 248 348 outlet;
#X text 233 332 finished;
#X obj 214 97 random 3;
#X obj 214 130 + 1;
#X obj 61 189 loadbang;
#X floatatom 227 157 5 0 0 0 - - -;
#X obj 171 209 bangs 4 150;
#X obj 297 148 r barsbase;
#X obj 210 178 * 4;
#X obj 96 38 r barslen;
#X obj 103 73 t f f;
#X connect 0 0 2 0;
#X connect 0 0 1 0;
#X connect 2 0 4 0;
#X connect 5 0 11 0;
#X connect 5 0 0 0;
#X connect 7 0 15 0;
#X connect 11 0 12 0;
#X connect 12 0 14 0;
#X connect 12 0 17 0;
#X connect 13 0 0 0;
#X connect 15 0 3 0;
#X connect 15 0 0 4;
#X connect 15 1 9 0;
#X connect 16 0 15 2;
#X connect 17 0 15 1;
#X connect 18 0 19 0;
#X connect 19 0 0 1;
#X connect 19 1 17 1;
#X restore 181 247 pd bars;
#X obj 224 228 bng 15 250 50 0 empty empty empty 0 -6 0 8 -262144 -1
-1;
#N canvas 0 0 498 440 bars 0;
#X obj 61 261 rndseq 4 25 75;
#X floatatom 73 286 5 0 0 0 - - -;
#X obj 63 309 mtof;
#X obj 177 235 bng 15 250 50 0 empty empty empty 0 -6 0 8 -262144 -1
-1;
#X obj 63 338 outlet;
#X obj 211 36 inlet;
#X text 197 17 randomize;
#X obj 29 27 inlet;
#X text 28 8 start;
#X obj 248 348 outlet;
#X text 233 332 finished;
#X obj 214 97 random 3;
#X obj 214 130 + 1;
#X obj 61 189 loadbang;
#X floatatom 227 157 5 0 0 0 - - -;
#X obj 171 209 bangs 4 150;
#X obj 297 148 r barsbase;
#X obj 210 178 * 4;
#X obj 96 38 r barslen;
#X obj 103 73 t f f;
#X connect 0 0 2 0;
#X connect 0 0 1 0;
#X connect 2 0 4 0;
#X connect 5 0 11 0;
#X connect 5 0 0 0;
#X connect 7 0 15 0;
#X connect 11 0 12 0;
#X connect 12 0 14 0;
#X connect 12 0 17 0;
#X connect 13 0 0 0;
#X connect 15 0 3 0;
#X connect 15 0 0 4;
#X connect 15 1 9 0;
#X connect 16 0 15 2;
#X connect 17 0 15 1;
#X connect 18 0 19 0;
#X connect 19 0 0 1;
#X connect 19 1 17 1;
#X restore 103 248 pd bars;
#X obj 146 229 bng 15 250 50 0 empty empty empty 0 -6 0 8 -262144 -1
-1;
#N canvas 0 0 510 452 bars 0;
#X obj 61 261 rndseq 4 25 75;
#X floatatom 73 286 5 0 0 0 - - -;
#X obj 63 309 mtof;
#X obj 177 235 bng 15 250 50 0 empty empty empty 0 -6 0 8 -262144 -1
-1;
#X obj 63 338 outlet;
#X obj 211 36 inlet;
#X text 197 17 randomize;
#X obj 29 27 inlet;
#X text 28 8 start;
#X obj 248 348 outlet;
#X text 233 332 finished;
#X obj 214 76 random 3;
#X obj 214 109 + 1;
#X obj 61 189 loadbang;
#X floatatom 227 136 5 0 0 0 - - -;
#X obj 171 209 bangs 4 150;
#X obj 297 127 r barsbase;
#X obj 210 178 * 4;
#X obj 96 38 r barslen;
#X obj 103 73 t f f;
#X connect 0 0 2 0;
#X connect 0 0 1 0;
#X connect 2 0 4 0;
#X connect 5 0 11 0;
#X connect 5 0 0 0;
#X connect 7 0 15 0;
#X connect 11 0 12 0;
#X connect 12 0 14 0;
#X connect 12 0 17 0;
#X connect 13 0 0 0;
#X connect 15 0 3 0;
#X connect 15 0 0 4;
#X connect 15 1 9 0;
#X connect 16 0 15 2;
#X connect 17 0 15 1;
#X connect 18 0 19 0;
#X connect 19 0 0 1;
#X connect 19 1 17 1;
#X restore 21 250 pd bars;
#X obj 64 231 bng 15 250 50 0 empty empty empty 0 -6 0 8 -262144 -1
-1;
#X obj 61 277 bng 15 250 50 0 empty empty empty 0 -6 0 8 -262144 -1
-1;
#X obj 141 272 bng 15 250 50 0 empty empty empty 0 -6 0 8 -262144 -1
-1;
#X obj 223 278 bng 15 250 50 0 empty empty empty 0 -6 0 8 -262144 -1
-1;
#X obj 303 278 bng 15 250 50 0 empty empty empty 0 -6 0 8 -262144 -1
-1;
#X obj 86 363 *~ 0.7;
#X obj 52 391 /~ 2;
#X obj 36 12 loadbang;
#X obj 436 357 s barsbase;
#X floatatom 436 338 5 0 0 0 - - -;
#X floatatom 473 10 5 0 0 0 - - -;
#X obj 473 43 s barslen;
#X obj 178 120 r btn_0;
#X obj 181 141 bng 15 250 50 0 empty empty empty 17 7 0 10 -262144
-1 -1;
#X obj 126 70 r which;
#X obj 126 95 select 0;
#X obj 82 174 spigot;
#X msg 88 121 1;
#X msg 131 121 0;
#X obj 85 42 loadbang;
#X obj 145 176 spigot;
#X obj 201 177 spigot;
#X obj 252 179 spigot;
#X obj 244 141 bng 15 250 50 0 empty empty empty 17 7 0 10 -262144
-1 -1;
#X obj 306 140 bng 15 250 50 0 empty empty empty 17 7 0 10 -262144
-1 -1;
#X obj 365 144 bng 15 250 50 0 empty empty empty 17 7 0 10 -262144
-1 -1;
#X obj 239 121 r btn_1;
#X obj 303 120 r btn_2;
#X obj 359 120 r btn_3;
#X obj 79 197 change;
#X obj 144 199 change;
#X obj 210 201 change;
#X obj 264 202 change;
#X floatatom 449 186 5 0 0 0 - - -;
#X obj 435 208 range 0 255 10 500;
#X floatatom 442 238 5 0 0 0 - - -;
#X floatatom 468 287 5 0 0 0 - - -;
#X obj 90 330 dline~ 250 0.92;
#X obj 438 309 spigot;
#X obj 442 258 r btn_5;
#X obj 435 159 r r_y;
#X connect 1 0 16 0;
#X connect 1 0 47 0;
#X connect 2 0 9 0;
#X connect 3 0 1 0;
#X connect 3 1 2 0;
#X connect 3 1 14 0;
#X connect 4 0 3 1;
#X connect 5 0 1 0;
#X connect 5 1 3 0;
#X connect 5 1 13 0;
#X connect 6 0 5 1;
#X connect 7 0 1 0;
#X connect 7 1 5 0;
#X connect 7 1 12 0;
#X connect 8 0 7 1;
#X connect 9 0 1 0;
#X connect 9 1 7 0;
#X connect 9 1 11 0;
#X connect 10 0 9 1;
#X connect 15 0 16 0;
#X connect 16 0 0 0;
#X connect 17 0 2 0;
#X connect 19 0 18 0;
#X connect 20 0 21 0;
#X connect 22 0 23 0;
#X connect 22 0 26 0;
#X connect 24 0 25 0;
#X connect 25 0 27 0;
#X connect 25 1 28 0;
#X connect 26 0 39 0;
#X connect 27 0 26 1;
#X connect 27 0 30 1;
#X connect 27 0 31 1;
#X connect 27 0 32 1;
#X connect 28 0 26 1;
#X connect 28 0 30 1;
#X connect 28 0 31 1;
#X connect 28 0 32 1;
#X connect 29 0 27 0;
#X connect 30 0 40 0;
#X connect 31 0 41 0;
#X connect 32 0 42 0;
#X connect 36 0 33 0;
#X connect 36 0 30 0;
#X connect 37 0 34 0;
#X connect 37 0 31 0;
#X connect 38 0 35 0;
#X connect 38 0 32 0;
#X connect 39 0 10 0;
#X connect 40 0 8 0;
#X connect 41 0 6 0;
#X connect 42 0 4 0;
#X connect 44 0 45 0;
#X connect 44 0 48 0;
#X connect 47 0 15 0;
#X connect 48 0 19 0;
#X connect 49 0 46 0;
#X connect 49 0 48 1;
#X connect 50 0 43 0;
#X connect 50 0 44 0;
#X restore 52 92 pd one;
#N canvas 0 0 517 473 hid_selector 0;
#X obj 26 425 outlet~;
#X obj 22 29 inlet~;
#X obj 138 29 inlet~;
#X obj 67 188 r btn_0;
#X obj 69 243 bng 15 250 50 0 empty empty empty 17 7 0 10 -262144 -1
-1;
#X obj 96 244 bng 15 250 50 0 empty empty empty 17 7 0 10 -262144 -1
-1;
#X obj 27 379 *~;
#X obj 127 382 *~;
#X obj 186 247 bng 15 250 50 0 empty empty empty 17 7 0 10 -262144
-1 -1;
#X obj 213 248 bng 15 250 50 0 empty empty empty 17 7 0 10 -262144
-1 -1;
#X obj 184 192 r btn_1;
#X msg 77 280 0;
#X msg 182 275 0;
#X obj 60 219 route 1 0;
#X obj 177 223 route 1 0;
#X msg 149 277 1;
#X msg 48 280 1;
#X obj 271 29 inlet~;
#X obj 387 29 inlet~;
#X obj 292 243 bng 15 250 50 0 empty empty empty 17 7 0 10 -262144
-1 -1;
#X obj 319 244 bng 15 250 50 0 empty empty empty 17 7 0 10 -262144
-1 -1;
#X obj 250 379 *~;
#X obj 350 382 *~;
#X obj 420 248 bng 15 250 50 0 empty empty empty 17 7 0 10 -262144
-1 -1;
#X obj 447 249 bng 15 250 50 0 empty empty empty 17 7 0 10 -262144
-1 -1;
#X msg 300 280 0;
#X msg 416 276 0;
#X obj 283 219 route 1 0;
#X obj 411 224 route 1 0;
#X msg 383 278 1;
#X msg 271 280 1;
#X obj 290 188 r btn_2;
#X obj 418 193 r btn_3;
#X obj 50 78 loadbang;
#X msg 59 100 1;
#X connect 1 0 6 0;
#X connect 2 0 7 0;
#X connect 3 0 13 0;
#X connect 6 0 0 0;
#X connect 7 0 0 0;
#X connect 10 0 14 0;
#X connect 11 0 7 1;
#X connect 11 0 21 1;
#X connect 11 0 22 1;
#X connect 12 0 6 1;
#X connect 12 0 21 1;
#X connect 12 0 22 1;
#X connect 13 0 4 0;
#X connect 13 0 11 0;
#X connect 13 0 16 0;
#X connect 13 1 5 0;
#X connect 14 0 8 0;
#X connect 14 0 12 0;
#X connect 14 0 15 0;
#X connect 14 1 9 0;
#X connect 15 0 7 1;
#X connect 16 0 6 1;
#X connect 17 0 21 0;
#X connect 18 0 22 0;
#X connect 21 0 0 0;
#X connect 22 0 0 0;
#X connect 25 0 22 1;
#X connect 25 0 7 1;
#X connect 25 0 6 1;
#X connect 26 0 21 1;
#X connect 26 0 7 1;
#X connect 26 0 6 1;
#X connect 27 0 19 0;
#X connect 27 0 25 0;
#X connect 27 0 30 0;
#X connect 27 1 20 0;
#X connect 28 0 23 0;
#X connect 28 0 26 0;
#X connect 28 0 29 0;
#X connect 28 1 24 0;
#X connect 29 0 22 1;
#X connect 30 0 21 1;
#X connect 31 0 27 0;
#X connect 32 0 28 0;
#X connect 33 0 34 0;
#X connect 34 0 13 0;
#X restore 352 300 pd hid_selector;
#N canvas 460 261 433 391 two 0;
#X obj 22 315 outlet~;
#N canvas 12 13 656 575 input_stage 0;
#X obj 49 19 adc~ 1;
#X floatatom 78 46 5 0 0 0 - - -;
#X obj 50 67 *~ 50;
#N canvas 0 0 450 300 verb 0;
#X obj 79 274 outlet~;
#X obj 77 113 dline~ 100 0.9;
#X obj 99 242 /~ 3;
#X obj 82 26 inlet~;
#X obj 122 140 dline~ 200 0.9;
#X obj 201 111 dline~ 150 0.9;
#X connect 1 0 2 0;
#X connect 2 0 0 0;
#X connect 3 0 1 0;
#X connect 3 0 4 0;
#X connect 3 0 5 0;
#X connect 4 0 2 0;
#X connect 5 0 2 0;
#X restore 27 480 pd verb;
#X obj 39 97 clip~ -1 1;
#X obj 27 510 outlet~;
#X obj 537 52 vu 15 120 empty empty -1 -8 0 8 -66577 -1 1 0;
#X obj 57 121 env~ 10000;
#X obj 63 140 - 97;
#X obj 114 187 moses 0.8;
#X obj 53 428 line~;
#X obj 29 451 *~;
#X obj 178 514 outlet;
#X obj 253 514 outlet;
#X msg 179 491 bang;
#X msg 252 493 bang;
#X msg 96 405 0;
#X obj 138 253 timer;
#X msg 132 224 bang;
#X msg 172 226 bang;
#X floatatom 154 281 5 0 0 0 - - -;
#X floatatom 49 173 5 0 0 0 - - -;
#X obj 230 184 moses -35;
#X floatatom 292 209 5 0 0 0 - - -;
#X obj 236 251 timer;
#X msg 230 222 bang;
#X msg 270 224 bang;
#X text 177 533 on;
#X text 254 534 off;
#X obj 200 429 spigot;
#X msg 228 393 0;
#X msg 261 393 1;
#X obj 209 455 bng 15 250 50 0 empty empty empty 17 7 0 10 -262144
-1 -1;
#X obj 260 370 loadbang;
#X obj 385 438 spigot;
#X msg 413 402 0;
#X msg 446 402 1;
#X obj 445 379 loadbang;
#X obj 377 463 bng 15 250 50 0 empty empty empty 17 7 0 10 -262144
-1 -1;
#X obj 187 368 t b b b;
#X obj 380 351 t b b b;
#X obj 235 272 moses 800;
#X msg 55 406 1 25;
#X connect 0 0 2 0;
#X connect 1 0 2 1;
#X connect 2 0 4 0;
#X connect 3 0 5 0;
#X connect 4 0 7 0;
#X connect 4 0 11 0;
#X connect 7 0 8 0;
#X connect 8 0 6 0;
#X connect 8 0 9 0;
#X connect 8 0 21 0;
#X connect 8 0 22 0;
#X connect 9 0 18 0;
#X connect 9 1 19 0;
#X connect 10 0 11 1;
#X connect 11 0 3 0;
#X connect 14 0 12 0;
#X connect 15 0 13 0;
#X connect 16 0 10 0;
#X connect 17 0 20 0;
#X connect 17 0 42 0;
#X connect 17 0 39 0;
#X connect 18 0 17 0;
#X connect 19 0 17 1;
#X connect 22 0 26 0;
#X connect 22 1 23 0;
#X connect 22 1 25 0;
#X connect 24 0 41 0;
#X connect 25 0 24 0;
#X connect 26 0 24 1;
#X connect 29 0 32 0;
#X connect 29 0 14 0;
#X connect 30 0 29 1;
#X connect 31 0 29 1;
#X connect 33 0 31 0;
#X connect 34 0 38 0;
#X connect 34 0 15 0;
#X connect 35 0 34 1;
#X connect 36 0 34 1;
#X connect 37 0 36 0;
#X connect 39 0 30 0;
#X connect 39 1 36 0;
#X connect 39 2 29 0;
#X connect 40 0 35 0;
#X connect 40 1 31 0;
#X connect 40 2 34 0;
#X connect 41 1 16 0;
#X connect 41 1 40 0;
#X connect 42 0 10 0;
#X restore 25 31 pd input_stage;
#X obj 81 79 bng 15 250 50 0 empty empty empty 17 7 0 10 -262144 -1
-1;
#X obj 120 56 bng 15 250 50 0 empty empty empty 17 7 0 10 -262144 -1
-1;
#X text 155 139 240000 at 48k is 5s;
#X obj 165 57 table two_a 240000;
#X obj 164 76 table two_b 240000;
#X obj 164 96 table two_c 240000;
#X obj 165 116 table two_d 240000;
#N canvas 0 0 660 354 recorders 0;
#X obj 301 56 bng 15 250 50 0 empty empty empty 17 7 0 10 -262144 -1
-1;
#X obj 44 26 inlet~;
#X obj 299 33 inlet;
#X obj 39 193 tabwrite~ two_a;
#X obj 299 79 bangloop 4;
#X obj 296 129 route 0 1 2 3;
#X obj 161 192 tabwrite~ two_b;
#X obj 274 191 tabwrite~ two_c;
#X obj 388 190 tabwrite~ two_d;
#X floatatom 325 101 5 0 0 0 - - -;
#X connect 0 0 4 0;
#X connect 1 0 3 0;
#X connect 1 0 6 0;
#X connect 1 0 7 0;
#X connect 1 0 8 0;
#X connect 2 0 0 0;
#X connect 4 0 5 0;
#X connect 4 0 9 0;
#X connect 5 0 3 0;
#X connect 5 1 6 0;
#X connect 5 2 7 0;
#X connect 5 3 8 0;
#X restore 41 118 pd recorders;
#N canvas 0 0 380 297 triggered_playbacks 0;
#X obj 70 192 outlet~;
#N canvas 278 381 465 372 play_a 0;
#X obj 77 15 r btn_0;
#X obj 77 37 select 1;
#X obj 70 265 line;
#X msg 70 286 \$1 1000;
#X obj 69 309 tabplay~ two_a;
#X msg 114 211 1 \, 240000 \$1;
#X obj 138 127 * 5000;
#X obj 138 105 clip 0.25 3;
#X obj 101 151 f 5000;
#X msg 84 61 bang;
#X text 118 230 fwd;
#X text 246 234 rev;
#X msg 219 215 240000 \, 1 \$1;
#X obj 70 336 outlet~;
#X obj 296 24 r hid_pad_L;
#X obj 278 88 toggler;
#X obj 265 122 select 0;
#X obj 131 182 spigot;
#X obj 220 188 spigot;
#X msg 261 149 0;
#X msg 291 150 1;
#X msg 326 150 0;
#X msg 356 151 1;
#X obj 224 23 loadbang;
#X obj 223 48 0;
#X obj 293 59 t b b;
#X obj 138 74 r a_spd;
#X connect 0 0 1 0;
#X connect 1 0 9 0;
#X connect 2 0 3 0;
#X connect 3 0 4 0;
#X connect 4 0 13 0;
#X connect 5 0 2 0;
#X connect 6 0 8 1;
#X connect 7 0 6 0;
#X connect 8 0 17 0;
#X connect 8 0 18 0;
#X connect 9 0 8 0;
#X connect 12 0 2 0;
#X connect 14 0 25 0;
#X connect 15 0 16 0;
#X connect 16 0 19 0;
#X connect 16 0 20 0;
#X connect 16 1 21 0;
#X connect 16 1 22 0;
#X connect 17 0 5 0;
#X connect 18 0 12 0;
#X connect 19 0 18 1;
#X connect 20 0 17 1;
#X connect 21 0 17 1;
#X connect 22 0 18 1;
#X connect 23 0 24 0;
#X connect 24 0 16 0;
#X connect 25 0 9 0;
#X connect 25 1 15 0;
#X connect 26 0 7 0;
#X connect 26 0 9 0;
#X restore 59 37 pd play_a;
#N canvas 278 381 465 372 play_b 0;
#X obj 77 37 select 1;
#X obj 70 265 line;
#X msg 70 286 \$1 1000;
#X msg 114 211 1 \, 240000 \$1;
#X obj 138 127 * 5000;
#X obj 138 105 clip 0.25 3;
#X obj 101 151 f 5000;
#X msg 84 61 bang;
#X text 118 230 fwd;
#X text 246 234 rev;
#X msg 219 215 240000 \, 1 \$1;
#X obj 70 336 outlet~;
#X obj 280 78 toggler;
#X obj 265 122 select 0;
#X obj 131 182 spigot;
#X obj 220 188 spigot;
#X msg 261 149 0;
#X msg 291 150 1;
#X msg 326 150 0;
#X msg 356 151 1;
#X obj 224 23 loadbang;
#X obj 223 48 0;
#X obj 77 15 r btn_1;
#X obj 296 24 r hid_pad_D;
#X obj 69 309 tabplay~ two_b;
#X floatatom 330 111 5 0 0 0 - - -;
#X obj 304 51 t b b;
#X obj 138 74 r b_spd;
#X connect 0 0 7 0;
#X connect 1 0 2 0;
#X connect 2 0 24 0;
#X connect 3 0 1 0;
#X connect 4 0 6 1;
#X connect 5 0 4 0;
#X connect 6 0 14 0;
#X connect 6 0 15 0;
#X connect 7 0 6 0;
#X connect 10 0 1 0;
#X connect 12 0 13 0;
#X connect 12 0 25 0;
#X connect 13 0 16 0;
#X connect 13 0 17 0;
#X connect 13 1 18 0;
#X connect 13 1 19 0;
#X connect 14 0 3 0;
#X connect 15 0 10 0;
#X connect 16 0 15 1;
#X connect 17 0 14 1;
#X connect 18 0 14 1;
#X connect 19 0 15 1;
#X connect 20 0 21 0;
#X connect 21 0 13 0;
#X connect 22 0 0 0;
#X connect 23 0 26 0;
#X connect 24 0 11 0;
#X connect 26 0 7 0;
#X connect 26 1 12 0;
#X connect 27 0 5 0;
#X connect 27 0 7 0;
#X restore 110 74 pd play_b;
#N canvas 278 381 465 372 play_c 0;
#X obj 77 37 select 1;
#X obj 70 265 line;
#X msg 70 286 \$1 1000;
#X msg 114 211 1 \, 240000 \$1;
#X obj 138 127 * 5000;
#X obj 138 105 clip 0.25 3;
#X obj 101 151 f 5000;
#X msg 84 61 bang;
#X text 118 230 fwd;
#X text 246 234 rev;
#X msg 219 215 240000 \, 1 \$1;
#X obj 70 336 outlet~;
#X obj 280 78 toggler;
#X obj 265 122 select 0;
#X obj 131 182 spigot;
#X obj 220 188 spigot;
#X msg 261 149 0;
#X msg 291 150 1;
#X msg 326 150 0;
#X msg 356 151 1;
#X obj 224 23 loadbang;
#X obj 223 48 0;
#X floatatom 330 111 5 0 0 0 - - -;
#X obj 298 25 r hid_pad_R;
#X obj 70 309 tabplay~ two_c;
#X obj 77 15 r btn_2;
#X obj 138 74 r c_spd;
#X obj 299 47 t b b;
#X connect 0 0 7 0;
#X connect 1 0 2 0;
#X connect 2 0 24 0;
#X connect 3 0 1 0;
#X connect 4 0 6 1;
#X connect 5 0 4 0;
#X connect 6 0 14 0;
#X connect 6 0 15 0;
#X connect 7 0 6 0;
#X connect 10 0 1 0;
#X connect 12 0 13 0;
#X connect 12 0 22 0;
#X connect 13 0 16 0;
#X connect 13 0 17 0;
#X connect 13 1 18 0;
#X connect 13 1 19 0;
#X connect 14 0 3 0;
#X connect 15 0 10 0;
#X connect 16 0 15 1;
#X connect 17 0 14 1;
#X connect 18 0 14 1;
#X connect 19 0 15 1;
#X connect 20 0 21 0;
#X connect 21 0 13 0;
#X connect 23 0 27 0;
#X connect 24 0 11 0;
#X connect 25 0 0 0;
#X connect 26 0 5 0;
#X connect 26 0 7 0;
#X connect 27 0 7 0;
#X connect 27 1 12 0;
#X restore 172 109 pd play_c;
#N canvas 278 381 465 372 play_d 0;
#X obj 77 37 select 1;
#X obj 70 265 line;
#X msg 70 286 \$1 1000;
#X msg 114 211 1 \, 240000 \$1;
#X obj 138 127 * 5000;
#X obj 138 105 clip 0.25 3;
#X obj 101 151 f 5000;
#X msg 84 61 bang;
#X text 118 230 fwd;
#X text 246 234 rev;
#X msg 219 215 240000 \, 1 \$1;
#X obj 70 336 outlet~;
#X obj 280 78 toggler;
#X obj 265 122 select 0;
#X obj 131 182 spigot;
#X obj 220 188 spigot;
#X msg 261 149 0;
#X msg 291 150 1;
#X msg 326 150 0;
#X msg 356 151 1;
#X obj 224 23 loadbang;
#X obj 223 48 0;
#X floatatom 330 111 5 0 0 0 - - -;
#X obj 80 14 r btn_3;
#X obj 298 25 r hid_pad_U;
#X obj 75 308 tabplay~ two_d;
#X obj 138 74 r d_spd;
#X obj 297 50 t b b;
#X connect 0 0 7 0;
#X connect 1 0 2 0;
#X connect 2 0 25 0;
#X connect 3 0 1 0;
#X connect 4 0 6 1;
#X connect 5 0 4 0;
#X connect 6 0 14 0;
#X connect 6 0 15 0;
#X connect 7 0 6 0;
#X connect 10 0 1 0;
#X connect 12 0 13 0;
#X connect 12 0 22 0;
#X connect 13 0 16 0;
#X connect 13 0 17 0;
#X connect 13 1 18 0;
#X connect 13 1 19 0;
#X connect 14 0 3 0;
#X connect 15 0 10 0;
#X connect 16 0 15 1;
#X connect 17 0 14 1;
#X connect 18 0 14 1;
#X connect 19 0 15 1;
#X connect 20 0 21 0;
#X connect 21 0 13 0;
#X connect 23 0 0 0;
#X connect 24 0 27 0;
#X connect 25 0 11 0;
#X connect 26 0 5 0;
#X connect 26 0 7 0;
#X connect 27 0 7 0;
#X connect 27 1 12 0;
#X restore 238 147 pd play_d;
#X connect 1 0 0 0;
#X connect 2 0 0 0;
#X connect 3 0 0 0;
#X connect 4 0 0 0;
#X restore 57 187 pd triggered_playbacks;
#N canvas 0 0 439 331 looped_playbacks 0;
#X obj 75 265 outlet~;
#N canvas 278 381 465 372 play_a 0;
#X obj 70 265 line;
#X msg 70 286 \$1 1000;
#X obj 69 309 tabplay~ two_a;
#X msg 114 211 1 \, 240000 \$1;
#X obj 138 74 r a_spd;
#X obj 138 127 * 5000;
#X obj 138 105 clip 0.25 3;
#X obj 101 151 f 5000;
#X text 118 230 fwd;
#X text 246 234 rev;
#X msg 219 215 240000 \, 1 \$1;
#X obj 70 336 outlet~;
#X obj 296 24 r hid_pad_L;
#X obj 280 78 toggler;
#X obj 265 122 select 0;
#X obj 131 182 spigot;
#X obj 220 188 spigot;
#X msg 261 149 0;
#X msg 291 150 1;
#X msg 326 150 0;
#X msg 356 151 1;
#X obj 224 23 loadbang;
#X obj 223 48 0;
#X floatatom 157 151 5 0 0 0 - - -;
#X obj 50 65 metro 5000;
#X obj 53 18 loadbang;
#X msg 65 40 stop;
#X msg 116 41 bang;
#X obj 299 48 t b b;
#X connect 0 0 1 0;
#X connect 1 0 2 0;
#X connect 2 0 11 0;
#X connect 3 0 0 0;
#X connect 4 0 6 0;
#X connect 4 0 27 0;
#X connect 5 0 7 1;
#X connect 5 0 23 0;
#X connect 5 0 24 1;
#X connect 6 0 5 0;
#X connect 7 0 15 0;
#X connect 7 0 16 0;
#X connect 10 0 0 0;
#X connect 12 0 28 0;
#X connect 13 0 14 0;
#X connect 14 0 17 0;
#X connect 14 0 18 0;
#X connect 14 1 19 0;
#X connect 14 1 20 0;
#X connect 15 0 3 0;
#X connect 16 0 10 0;
#X connect 17 0 16 1;
#X connect 18 0 15 1;
#X connect 19 0 15 1;
#X connect 20 0 16 1;
#X connect 21 0 22 0;
#X connect 22 0 14 0;
#X connect 24 0 7 0;
#X connect 25 0 24 0;
#X connect 26 0 24 0;
#X connect 27 0 24 0;
#X connect 28 0 27 0;
#X connect 28 1 13 0;
#X restore 64 110 pd play_a;
#N canvas 278 381 465 372 play_b 0;
#X obj 70 265 line;
#X msg 70 286 \$1 1000;
#X msg 114 211 1 \, 240000 \$1;
#X obj 138 127 * 5000;
#X obj 138 105 clip 0.25 3;
#X obj 101 151 f 5000;
#X text 118 230 fwd;
#X text 246 234 rev;
#X msg 219 215 240000 \, 1 \$1;
#X obj 70 336 outlet~;
#X obj 280 78 toggler;
#X obj 265 122 select 0;
#X obj 131 182 spigot;
#X obj 220 188 spigot;
#X msg 261 149 0;
#X msg 291 150 1;
#X msg 326 150 0;
#X msg 356 151 1;
#X obj 224 23 loadbang;
#X obj 223 48 0;
#X obj 296 24 r hid_pad_D;
#X obj 69 309 tabplay~ two_b;
#X floatatom 330 111 5 0 0 0 - - -;
#X obj 138 74 r b_spd;
#X floatatom 154 154 5 0 0 0 - - -;
#X obj 52 67 metro 5000;
#X obj 55 20 loadbang;
#X msg 67 42 stop;
#X msg 118 43 bang;
#X obj 294 49 t b b;
#X connect 0 0 1 0;
#X connect 1 0 21 0;
#X connect 2 0 0 0;
#X connect 3 0 5 1;
#X connect 3 0 24 0;
#X connect 3 0 25 1;
#X connect 4 0 3 0;
#X connect 5 0 12 0;
#X connect 5 0 13 0;
#X connect 8 0 0 0;
#X connect 10 0 11 0;
#X connect 10 0 22 0;
#X connect 11 0 14 0;
#X connect 11 0 15 0;
#X connect 11 1 16 0;
#X connect 11 1 17 0;
#X connect 12 0 2 0;
#X connect 13 0 8 0;
#X connect 14 0 13 1;
#X connect 15 0 12 1;
#X connect 16 0 12 1;
#X connect 17 0 13 1;
#X connect 18 0 19 0;
#X connect 19 0 11 0;
#X connect 20 0 29 0;
#X connect 21 0 9 0;
#X connect 23 0 4 0;
#X connect 23 0 28 0;
#X connect 25 0 5 0;
#X connect 26 0 25 0;
#X connect 27 0 25 0;
#X connect 28 0 25 0;
#X connect 29 0 28 0;
#X connect 29 1 10 0;
#X restore 140 111 pd play_b;
#N canvas 278 381 465 372 play_c 0;
#X obj 70 265 line;
#X msg 70 286 \$1 1000;
#X msg 114 211 1 \, 240000 \$1;
#X obj 138 127 * 5000;
#X obj 138 105 clip 0.25 3;
#X obj 101 151 f 5000;
#X text 118 230 fwd;
#X text 246 234 rev;
#X msg 219 215 240000 \, 1 \$1;
#X obj 70 336 outlet~;
#X obj 280 78 toggler;
#X obj 265 122 select 0;
#X obj 131 182 spigot;
#X obj 220 188 spigot;
#X msg 261 149 0;
#X msg 291 150 1;
#X msg 326 150 0;
#X msg 356 151 1;
#X obj 224 23 loadbang;
#X obj 223 48 0;
#X floatatom 330 111 5 0 0 0 - - -;
#X obj 298 25 r hid_pad_R;
#X obj 70 309 tabplay~ two_c;
#X obj 138 74 r c_spd;
#X floatatom 162 155 5 0 0 0 - - -;
#X obj 54 66 metro 5000;
#X obj 57 19 loadbang;
#X msg 69 41 stop;
#X msg 120 42 bang;
#X obj 301 49 t b b;
#X connect 0 0 1 0;
#X connect 1 0 22 0;
#X connect 2 0 0 0;
#X connect 3 0 5 1;
#X connect 3 0 24 0;
#X connect 3 0 25 1;
#X connect 4 0 3 0;
#X connect 5 0 12 0;
#X connect 5 0 13 0;
#X connect 8 0 0 0;
#X connect 10 0 11 0;
#X connect 10 0 20 0;
#X connect 11 0 14 0;
#X connect 11 0 15 0;
#X connect 11 1 16 0;
#X connect 11 1 17 0;
#X connect 12 0 2 0;
#X connect 13 0 8 0;
#X connect 14 0 13 1;
#X connect 15 0 12 1;
#X connect 16 0 12 1;
#X connect 17 0 13 1;
#X connect 18 0 19 0;
#X connect 19 0 11 0;
#X connect 21 0 29 0;
#X connect 22 0 9 0;
#X connect 23 0 4 0;
#X connect 23 0 28 0;
#X connect 25 0 5 0;
#X connect 26 0 25 0;
#X connect 27 0 25 0;
#X connect 28 0 25 0;
#X connect 29 0 28 0;
#X connect 29 1 10 0;
#X restore 214 113 pd play_c;
#N canvas 278 381 465 372 play_d 0;
#X obj 70 265 line;
#X msg 70 286 \$1 1000;
#X msg 114 211 1 \, 240000 \$1;
#X obj 138 127 * 5000;
#X obj 138 105 clip 0.25 3;
#X obj 101 151 f 5000;
#X text 118 230 fwd;
#X text 246 234 rev;
#X msg 219 215 240000 \, 1 \$1;
#X obj 70 336 outlet~;
#X obj 280 78 toggler;
#X obj 265 122 select 0;
#X obj 131 182 spigot;
#X obj 220 188 spigot;
#X msg 261 149 0;
#X msg 291 150 1;
#X msg 326 150 0;
#X msg 356 151 1;
#X obj 224 23 loadbang;
#X obj 223 48 0;
#X floatatom 330 111 5 0 0 0 - - -;
#X obj 298 25 r hid_pad_U;
#X obj 75 308 tabplay~ two_d;
#X obj 138 74 r d_spd;
#X floatatom 155 152 5 0 0 0 - - -;
#X obj 48 67 metro 5000;
#X obj 51 20 loadbang;
#X msg 63 42 stop;
#X msg 114 43 bang;
#X obj 300 50 t b b;
#X connect 0 0 1 0;
#X connect 1 0 22 0;
#X connect 2 0 0 0;
#X connect 3 0 5 1;
#X connect 3 0 24 0;
#X connect 3 0 25 1;
#X connect 4 0 3 0;
#X connect 5 0 12 0;
#X connect 5 0 13 0;
#X connect 8 0 0 0;
#X connect 10 0 11 0;
#X connect 10 0 20 0;
#X connect 11 0 14 0;
#X connect 11 0 15 0;
#X connect 11 1 16 0;
#X connect 11 1 17 0;
#X connect 12 0 2 0;
#X connect 13 0 8 0;
#X connect 14 0 13 1;
#X connect 15 0 12 1;
#X connect 16 0 12 1;
#X connect 17 0 13 1;
#X connect 18 0 19 0;
#X connect 19 0 11 0;
#X connect 21 0 29 0;
#X connect 22 0 9 0;
#X connect 23 0 4 0;
#X connect 23 0 28 0;
#X connect 25 0 5 0;
#X connect 26 0 25 0;
#X connect 27 0 25 0;
#X connect 28 0 25 0;
#X connect 29 0 28 0;
#X connect 29 1 10 0;
#X restore 286 115 pd play_d;
#X connect 1 0 0 0;
#X connect 2 0 0 0;
#X connect 3 0 0 0;
#X connect 4 0 0 0;
#X restore 223 188 pd looped_playbacks;
#N canvas 721 13 347 326 speeds 0;
#X obj 38 260 s a_spd;
#X text 34 288 range 0.25 to 3;
#X obj 97 258 s b_spd;
#X obj 155 259 s c_spd;
#X obj 210 260 s d_spd;
#X floatatom 38 241 5 0 0 0 - - -;
#X floatatom 183 68 5 0 0 0 - - -;
#X obj 175 40 r btn_5;
#X obj 178 98 select 1;
#X msg 178 120 1;
#X msg 229 121 0;
#X obj 53 167 spigot;
#X obj 248 72 loadbang;
#X floatatom 50 53 5 0 0 0 - - -;
#X obj 24 29 r l_y;
#X obj 29 80 range 22 237 0.25 3;
#N canvas 0 0 337 308 sb0 0;
#X obj 110 216 spigot;
#X floatatom 127 137 5 0 0 0 - - -;
#X obj 122 167 select 1;
#X msg 122 189 1;
#X msg 173 190 0;
#X obj 119 109 r btn_0;
#X obj 71 64 inlet;
#X obj 76 261 outlet;
#X connect 0 0 7 0;
#X connect 2 0 3 0;
#X connect 2 1 4 0;
#X connect 3 0 0 1;
#X connect 4 0 0 1;
#X connect 5 0 1 0;
#X connect 5 0 2 0;
#X connect 6 0 0 0;
#X restore 47 206 pd sb0;
#X floatatom 99 239 5 0 0 0 - - -;
#X floatatom 154 240 5 0 0 0 - - -;
#X floatatom 212 240 5 0 0 0 - - -;
#N canvas 0 0 337 308 sb1 0;
#X obj 110 216 spigot;
#X floatatom 127 137 5 0 0 0 - - -;
#X obj 122 167 select 1;
#X msg 122 189 1;
#X msg 173 190 0;
#X obj 71 64 inlet;
#X obj 76 261 outlet;
#X obj 121 110 r btn_1;
#X connect 0 0 6 0;
#X connect 2 0 3 0;
#X connect 2 1 4 0;
#X connect 3 0 0 1;
#X connect 4 0 0 1;
#X connect 5 0 0 0;
#X connect 7 0 1 0;
#X connect 7 0 2 0;
#X restore 108 204 pd sb1;
#N canvas 0 0 337 308 sb2 0;
#X obj 110 216 spigot;
#X floatatom 127 137 5 0 0 0 - - -;
#X obj 122 167 select 1;
#X msg 122 189 1;
#X msg 173 190 0;
#X obj 71 64 inlet;
#X obj 76 261 outlet;
#X obj 119 109 r btn_2;
#X connect 0 0 6 0;
#X connect 2 0 3 0;
#X connect 2 1 4 0;
#X connect 3 0 0 1;
#X connect 4 0 0 1;
#X connect 5 0 0 0;
#X connect 7 0 1 0;
#X connect 7 0 2 0;
#X restore 163 205 pd sb2;
#N canvas 0 0 337 308 sb3 0;
#X obj 110 216 spigot;
#X floatatom 127 137 5 0 0 0 - - -;
#X obj 122 167 select 1;
#X msg 122 189 1;
#X msg 173 190 0;
#X obj 71 64 inlet;
#X obj 76 261 outlet;
#X obj 119 109 r btn_3;
#X connect 0 0 6 0;
#X connect 2 0 3 0;
#X connect 2 1 4 0;
#X connect 3 0 0 1;
#X connect 4 0 0 1;
#X connect 5 0 0 0;
#X connect 7 0 1 0;
#X connect 7 0 2 0;
#X restore 221 205 pd sb3;
#X connect 5 0 0 0;
#X connect 7 0 6 0;
#X connect 7 0 8 0;
#X connect 8 0 9 0;
#X connect 8 1 10 0;
#X connect 9 0 11 1;
#X connect 10 0 11 1;
#X connect 11 0 16 0;
#X connect 11 0 20 0;
#X connect 11 0 21 0;
#X connect 11 0 22 0;
#X connect 12 0 10 0;
#X connect 14 0 13 0;
#X connect 14 0 15 0;
#X connect 15 0 11 0;
#X connect 16 0 5 0;
#X connect 17 0 2 0;
#X connect 18 0 3 0;
#X connect 19 0 4 0;
#X connect 20 0 17 0;
#X connect 21 0 18 0;
#X connect 22 0 19 0;
#X restore 57 159 pd speeds;
#X obj 62 287 hip~ 10;
#X obj 61 263 lop~ 9000;
#N canvas 431 72 450 300 loop_or_trig_mode 0;
#X obj 31 39 inlet~;
#X obj 255 48 inlet~;
#X obj 41 273 outlet~;
#X obj 111 15 r btn_6;
#X obj 40 222 *~;
#X obj 127 220 *~;
#X msg 73 147 0;
#X msg 104 147 1;
#X msg 142 146 0;
#X msg 173 146 1;
#X obj 150 102 loadbang;
#X obj 66 115 select 1;
#X obj 116 46 select 1;
#X msg 144 71 bang;
#X obj 89 80 toggler;
#X floatatom 176 44 5 0 0 0 - - -;
#X connect 0 0 4 0;
#X connect 1 0 5 0;
#X connect 3 0 12 0;
#X connect 3 0 15 0;
#X connect 4 0 2 0;
#X connect 5 0 2 0;
#X connect 6 0 5 1;
#X connect 7 0 4 1;
#X connect 8 0 4 1;
#X connect 9 0 5 1;
#X connect 10 0 7 0;
#X connect 10 0 8 0;
#X connect 11 0 7 0;
#X connect 11 0 6 0;
#X connect 11 1 8 0;
#X connect 11 1 9 0;
#X connect 12 0 13 0;
#X connect 13 0 14 0;
#X connect 14 0 11 0;
#X restore 59 224 pd loop_or_trig_mode;
#X connect 1 0 0 0;
#X connect 1 0 9 0;
#X connect 1 1 2 0;
#X connect 1 1 9 1;
#X connect 1 2 3 0;
#X connect 10 0 15 0;
#X connect 11 0 15 1;
#X connect 13 0 0 0;
#X connect 14 0 13 0;
#X connect 15 0 14 0;
#X restore 84 127 pd two;
#N canvas 313 41 629 466 three 0;
#X obj 23 180 osc~;
#X obj 356 158 noise~;
#X obj 34 443 outlet~;
#X obj 53 377 bp~ 300 3;
#X floatatom 30 136 5 0 0 0 - - -;
#X obj 355 234 dline~ 650 0.92;
#X obj 35 212 *~ 1.5;
#X obj 35 233 clip~ -1 1;
#X floatatom 376 189 5 0 0 0 - - -;
#X floatatom 138 352 5 0 0 0 - - -;
#X floatatom 192 356 5 0 0 0 - - -;
#X obj 356 211 *~ 5;
#X floatatom 77 191 5 0 0 0 - - -;
#X obj 34 279 *~ 1.5;
#X floatatom 76 258 5 0 0 0 - - -;
#X obj 33 53 r l_x;
#X floatatom 33 79 5 0 0 0 - - -;
#X obj 76 92 range 12 232 35 300;
#X floatatom 82 121 5 0 0 0 - - -;
#X obj 269 10 r l_y;
#X floatatom 282 33 5 0 0 0 - - -;
#X obj 373 76 r r_x;
#X floatatom 395 98 5 0 0 0 - - -;
#X floatatom 492 102 5 0 0 0 - - -;
#X obj 474 80 r r_y;
#X obj 372 115 range 22 237 40 400;
#X obj 162 153 osc~;
#X floatatom 167 125 5 0 0 0 - - -;
#X obj 71 156 +~;
#X obj 160 178 *~ 90;
#X obj 238 56 range 22 237 0.3 122;
#X obj 23 305 dline~ 650 0.82;
#X obj 51 405 dline~ 2500 0.75;
#N canvas 687 19 543 424 lines 0;
#X obj 30 343 outlet~;
#X obj 16 196 osc~;
#X obj 36 270 dline~ 25 0.7;
#X msg 34 81 bang;
#X obj 41 53 r btn_0;
#X obj 35 225 *~;
#X obj 16 174 line;
#X obj 20 117 adsr~ 500 0.9 500 500;
#X msg 15 150 0 \, 1800 2000;
#X obj 132 198 osc~;
#X obj 152 272 dline~ 25 0.7;
#X obj 151 227 *~;
#X obj 132 176 line;
#X obj 252 199 osc~;
#X obj 272 273 dline~ 25 0.7;
#X obj 271 228 *~;
#X obj 252 177 line;
#X obj 363 200 osc~;
#X obj 383 274 dline~ 25 0.7;
#X obj 382 229 *~;
#X obj 363 178 line;
#X msg 131 152 2200 \, 0 500;
#X msg 141 66 bang;
#X obj 147 89 adsr~ 500 0.9 500 500;
#X obj 155 38 r btn_1;
#X msg 422 80 bang;
#X obj 428 103 adsr~ 500 0.9 500 500;
#X msg 250 32 bang;
#X obj 277 9 r btn_2;
#X obj 435 52 r btn_3;
#X msg 251 153 4000 \, 1000 200;
#X obj 266 58 adsr~ 500 0.9 50 50;
#X msg 362 154 0 \, 1000 1200;
#X connect 1 0 5 0;
#X connect 2 0 0 0;
#X connect 3 0 8 0;
#X connect 3 0 7 0;
#X connect 4 0 3 0;
#X connect 5 0 2 0;
#X connect 6 0 1 0;
#X connect 7 0 5 1;
#X connect 8 0 6 0;
#X connect 9 0 11 0;
#X connect 10 0 0 0;
#X connect 11 0 10 0;
#X connect 12 0 9 0;
#X connect 13 0 15 0;
#X connect 14 0 0 0;
#X connect 15 0 14 0;
#X connect 16 0 13 0;
#X connect 17 0 19 0;
#X connect 18 0 0 0;
#X connect 19 0 18 0;
#X connect 20 0 17 0;
#X connect 21 0 12 0;
#X connect 22 0 23 0;
#X connect 22 0 21 0;
#X connect 23 0 11 1;
#X connect 24 0 22 0;
#X connect 25 0 26 0;
#X connect 25 0 32 0;
#X connect 26 0 19 1;
#X connect 27 0 30 0;
#X connect 27 0 31 0;
#X connect 28 0 27 0;
#X connect 29 0 25 0;
#X connect 30 0 16 0;
#X connect 31 0 15 1;
#X connect 32 0 20 0;
#X restore 312 337 pd lines;
#X connect 0 0 6 0;
#X connect 1 0 11 0;
#X connect 3 0 32 0;
#X connect 4 0 0 0;
#X connect 5 0 3 0;
#X connect 6 0 7 0;
#X connect 7 0 13 0;
#X connect 8 0 11 1;
#X connect 9 0 3 1;
#X connect 10 0 3 2;
#X connect 11 0 5 0;
#X connect 12 0 6 1;
#X connect 13 0 31 0;
#X connect 14 0 13 1;
#X connect 15 0 16 0;
#X connect 15 0 17 0;
#X connect 17 0 18 0;
#X connect 18 0 28 0;
#X connect 19 0 20 0;
#X connect 19 0 30 0;
#X connect 21 0 22 0;
#X connect 21 0 25 0;
#X connect 24 0 23 0;
#X connect 25 0 9 0;
#X connect 26 0 29 0;
#X connect 27 0 26 0;
#X connect 28 0 0 0;
#X connect 29 0 28 1;
#X connect 30 0 27 0;
#X connect 31 0 2 0;
#X connect 32 0 2 0;
#X connect 33 0 32 0;
#X restore 117 169 pd three;
#N canvas 138 144 553 454 four 0;
#X obj 75 412 outlet~;
#X obj 89 237 caradisio2~;
#N canvas 659 40 450 300 defaults 0;
#X obj 90 262 outlet;
#X obj 79 71 loadbang;
#X msg 77 106 lin on;
#X msg 136 107 sin on;
#X msg 193 106 pin on;
#X msg 174 144 delay 175;
#X msg 170 169 feedback 0.8;
#X connect 1 0 2 0;
#X connect 1 0 3 0;
#X connect 1 0 4 0;
#X connect 1 0 5 0;
#X connect 1 0 6 0;
#X connect 2 0 0 0;
#X connect 3 0 0 0;
#X connect 4 0 0 0;
#X connect 5 0 0 0;
#X connect 6 0 0 0;
#X restore 148 204 pd defaults;
#X obj 54 37 r l_x;
#X obj 152 12 r l_y;
#X obj 23 79 range 22 232 12 600;
#X msg 27 136 freq \$1;
#X floatatom 33 104 5 0 0 0 - - -;
#X floatatom 169 61 5 0 0 0 - - -;
#X msg 168 94 mod \$1;
#X obj 159 40 range 22 232 1 25;
#X floatatom 320 92 5 0 0 0 - - -;
#X msg 314 122 pin \$1;
#X obj 303 43 r r_x;
#X floatatom 388 150 5 0 0 0 - - -;
#X obj 373 101 r r_y;
#X msg 382 179 sin \$1;
#X obj 310 71 range 22 232 10 225;
#X obj 378 129 range 22 232 10 225;
#X connect 1 0 0 0;
#X connect 2 0 1 0;
#X connect 3 0 5 0;
#X connect 4 0 10 0;
#X connect 5 0 7 0;
#X connect 5 0 6 0;
#X connect 6 0 1 0;
#X connect 9 0 1 0;
#X connect 10 0 8 0;
#X connect 10 0 9 0;
#X connect 12 0 1 0;
#X connect 13 0 17 0;
#X connect 15 0 18 0;
#X connect 16 0 1 0;
#X connect 17 0 11 0;
#X connect 17 0 12 0;
#X connect 18 0 14 0;
#X connect 18 0 16 0;
#X restore 150 202 pd four;
#X msg 137 318 0.5;
#X connect 2 0 10 0;
#X connect 3 0 1 1;
#X connect 4 0 1 0;
#X connect 4 0 3 0;
#X connect 5 0 4 0;
#X connect 7 0 4 1;
#X connect 8 0 4 2;
#X connect 9 0 4 3;
#X connect 10 0 1 2;
