#N canvas 116 195 467 181 10;
#X obj 18 100 dac~;
#X obj 53 76 hsl 128 15 0 1 0 0 empty empty empty -2 -6 0 8 -262131
-1 -1 6350 1;
#X obj 17 75 *~;
#X floatatom 46 15 5 0 0 0 - - -;
#X obj 46 35 osc~ 50;
#X obj 270 84 f;
#X obj 300 83 + 1;
#X obj 252 36 loadbang;
#X obj 252 57 metro 1000;
#X floatatom 272 109 5 0 0 0 - - -;
#X obj 233 36 bng 15 250 50 0 empty empty empty 0 -6 0 8 -262144 -1
-1;
#X msg 218 57 0;
#X msg 320 17 \; pd dsp 1;
#X msg 128 49 0.5;
#X text 312 110 running seconds;
#X connect 1 0 2 1;
#X connect 2 0 0 0;
#X connect 2 0 0 1;
#X connect 3 0 4 0;
#X connect 4 0 2 0;
#X connect 5 0 9 0;
#X connect 5 0 6 0;
#X connect 6 0 5 1;
#X connect 7 0 8 0;
#X connect 7 0 12 0;
#X connect 7 0 13 0;
#X connect 8 0 5 0;
#X connect 10 0 8 0;
#X connect 11 0 5 0;
#X connect 13 0 1 0;
