#N struct awf-template-$0 float x float y float h;
#N canvas 518 49 878 698 12;
#X obj 125 546 sout~;
#X obj 70 19 adc~;
#X obj 169 342 *~ -1;
#X obj 93 83 *~ 1;
#X obj 123 19 hsl 300 15 0 10 0 0 empty empty empty -2 -6 0 8 -262144
-1 -1 0 1;
#X floatatom 133 75 5 0 0 0 - - -;
#X obj 146 316 clip~ -1 1;
#X floatatom 208 143 5 0 0 0 - - -;
#X obj 214 120 hsl 300 15 0 1 0 0 empty empty empty -2 -6 0 8 -262144
-1 -1 7475 1;
#X obj 138 162 gate~ 0;
#N canvas 106 3 1143 724 fbank 0;
#X obj 452 21 inlet~;
#X obj 52 598 outlet~;
#X floatatom 105 329 5 0 0 0 - - -;
#X floatatom 395 331 5 0 0 0 - - -;
#X floatatom 827 339 5 0 0 0 - - -;
#X floatatom 255 330 5 0 0 0 - - -;
#X floatatom 539 328 5 0 0 0 - - -;
#X floatatom 680 328 5 0 0 0 - - -;
#X obj 329 355 bp~ 500 2;
#X obj 181 356 bp~ 150 2;
#X obj 465 354 bp~ 1200 4;
#X obj 467 380 dline~ 1700 0.85;
#X obj 606 354 bp~ 2200 4;
#X obj 753 365 bp~ 5000 3;
#X obj 47 357 bp~ 50 2;
#X obj 50 383 dline~ 1500 0.9;
#X obj 184 383 dline~ 1100 0.85;
#N canvas 0 0 561 456 tv 0;
#X obj 222 120 r rndtime2;
#X obj 137 305 outlet~;
#X obj 136 247 *~;
#X obj 157 50 inlet~;
#X obj 11 11 cnv 15 100 60 empty empty empty 20 12 0 14 -233017 -66577
0;
#X obj 91 53 bng 15 250 50 0 empty empty empty 0 -6 0 8 -262144 -1
-1;
#X floatatom 45 50 5 0 0 0 - - -;
#X obj 221 146 rnd_moses_wander 15 33 1;
#X obj 19 18 nbx 5 14 -1e+037 1e+037 0 0 empty empty empty 0 -6 0 10
-262144 -1 -1 0 256;
#X obj 156 217 adsr~ 1 0.75 50 50 50;
#X connect 0 0 7 0;
#X connect 2 0 1 0;
#X connect 3 0 2 0;
#X connect 7 0 5 0;
#X connect 7 0 9 0;
#X connect 7 2 6 0;
#X connect 9 0 2 1;
#X coords 0 -1 1 1 102 64 1 10 9;
#X restore 770 152 pd tv;
#N canvas 0 0 553 448 tv 0;
#X obj 222 120 r rndtime2;
#X obj 137 305 outlet~;
#X obj 136 247 *~;
#X obj 157 50 inlet~;
#X obj 11 11 cnv 15 100 60 empty empty empty 20 12 0 14 -233017 -66577
0;
#X obj 91 53 bng 15 250 50 0 empty empty empty 0 -6 0 8 -262144 -1
-1;
#X floatatom 45 50 5 0 0 0 - - -;
#X obj 221 146 rnd_moses_wander 15 33 1;
#X obj 19 18 nbx 5 14 -1e+037 1e+037 0 0 empty empty empty 0 -6 0 10
-262144 -1 -1 0 256;
#X obj 158 218 adsr~ 1 0.75 50 50 50;
#X connect 0 0 7 0;
#X connect 2 0 1 0;
#X connect 3 0 2 0;
#X connect 7 0 5 0;
#X connect 7 0 9 0;
#X connect 7 2 6 0;
#X connect 9 0 2 1;
#X coords 0 -1 1 1 102 64 1 10 9;
#X restore 612 144 pd tv;
#N canvas 0 0 565 460 tv 0;
#X obj 222 120 r rndtime2;
#X obj 137 305 outlet~;
#X obj 136 247 *~;
#X obj 157 50 inlet~;
#X obj 11 11 cnv 15 100 60 empty empty empty 20 12 0 14 -233017 -66577
0;
#X obj 91 53 bng 15 250 50 0 empty empty empty 0 -6 0 8 -262144 -1
-1;
#X floatatom 45 50 5 0 0 0 - - -;
#X obj 221 146 rnd_moses_wander 15 33 1;
#X obj 19 18 nbx 5 14 -1e+037 1e+037 0 0 empty empty empty 0 -6 0 10
-262144 -1 -1 0 256;
#X obj 155 217 adsr~ 1 0.75 50 50 50;
#X connect 0 0 7 0;
#X connect 2 0 1 0;
#X connect 3 0 2 0;
#X connect 7 0 5 0;
#X connect 7 0 9 0;
#X connect 7 2 6 0;
#X connect 9 0 2 1;
#X coords 0 -1 1 1 102 64 1 10 9;
#X restore 462 143 pd tv;
#N canvas 0 0 557 452 tv 0;
#X obj 222 120 r rndtime2;
#X obj 137 305 outlet~;
#X obj 136 247 *~;
#X obj 157 50 inlet~;
#X obj 11 11 cnv 15 100 60 empty empty empty 20 12 0 14 -233017 -66577
0;
#X obj 91 53 bng 15 250 50 0 empty empty empty 0 -6 0 8 -262144 -1
-1;
#X floatatom 45 50 5 0 0 0 - - -;
#X obj 221 146 rnd_moses_wander 15 33 1;
#X obj 19 18 nbx 5 14 -1e+037 1e+037 0 0 empty empty empty 0 -6 0 10
-262144 -1 -1 0 256;
#X obj 156 217 adsr~ 1 0.75 50 50 50;
#X connect 0 0 7 0;
#X connect 2 0 1 0;
#X connect 3 0 2 0;
#X connect 7 0 5 0;
#X connect 7 0 9 0;
#X connect 7 2 6 0;
#X connect 9 0 2 1;
#X coords 0 -1 1 1 102 64 1 10 9;
#X restore 328 142 pd tv;
#N canvas 0 0 553 448 tv 0;
#X obj 222 120 r rndtime2;
#X obj 137 305 outlet~;
#X obj 136 247 *~;
#X obj 157 50 inlet~;
#X obj 11 11 cnv 15 100 60 empty empty empty 20 12 0 14 -233017 -66577
0;
#X obj 91 53 bng 15 250 50 0 empty empty empty 0 -6 0 8 -262144 -1
-1;
#X floatatom 45 50 5 0 0 0 - - -;
#X obj 221 146 rnd_moses_wander 15 33 1;
#X obj 19 18 nbx 5 14 -1e+037 1e+037 0 0 empty empty empty 0 -6 0 10
-262144 -1 -1 0 256;
#X obj 156 217 adsr~ 1 0.75 50 50 50;
#X connect 0 0 7 0;
#X connect 2 0 1 0;
#X connect 3 0 2 0;
#X connect 7 0 5 0;
#X connect 7 0 9 0;
#X connect 7 2 6 0;
#X connect 9 0 2 1;
#X coords 0 -1 1 1 102 64 1 10 9;
#X restore 192 141 pd tv;
#N canvas 0 0 553 448 tv 0;
#X obj 222 120 r rndtime2;
#X obj 137 305 outlet~;
#X obj 136 247 *~;
#X obj 157 50 inlet~;
#X obj 11 11 cnv 15 100 60 empty empty empty 20 12 0 14 -233017 -66577
0;
#X obj 91 53 bng 15 250 50 0 empty empty empty 0 -6 0 8 -262144 -1
-1;
#X floatatom 45 50 5 0 0 0 - - -;
#X obj 221 146 rnd_moses_wander 15 33 1;
#X obj 19 18 nbx 5 14 -1e+037 1e+037 0 0 empty empty empty 0 -6 0 10
-262144 -1 -1 0 256;
#X obj 154 217 adsr~ 1 0.75 50 50 50;
#X connect 0 0 7 0;
#X connect 2 0 1 0;
#X connect 3 0 2 0;
#X connect 7 0 5 0;
#X connect 7 0 9 0;
#X connect 7 2 6 0;
#X connect 9 0 2 1;
#X coords 0 -1 1 1 102 64 1 10 9;
#X restore 58 135 pd tv;
#N canvas 0 0 474 324 wander 0;
#X obj 154 162 *~;
#X obj 184 82 wander 0.5 5 5000 60000;
#X obj 138 45 inlet~;
#X obj 152 244 outlet~;
#X obj 12 10 cnv 15 75 45 empty empty empty 20 12 0 14 -233017 -66577
0;
#X obj 18 41 hsl 65 10 0 10 0 0 empty empty empty -2 -6 0 8 -100762
-1 -1 2126 1;
#X floatatom 40 19 5 0 0 0 - - -;
#X obj 19 19 tgl 15 0 empty empty empty 0 -6 0 8 -262144 -1 -1 1 1
;
#X obj 205 132 spigot;
#X obj 16 94 loadbang;
#X connect 0 0 3 0;
#X connect 1 0 8 0;
#X connect 2 0 0 0;
#X connect 5 0 6 0;
#X connect 6 0 0 1;
#X connect 7 0 8 1;
#X connect 8 0 5 0;
#X connect 9 0 7 0;
#X coords 0 -1 1 1 77 49 1 11 8;
#X restore 754 422 pd wander;
#N canvas 0 0 470 320 wander 0;
#X obj 154 162 *~;
#X obj 184 82 wander 0.5 5 5000 60000;
#X obj 138 45 inlet~;
#X obj 152 244 outlet~;
#X obj 12 10 cnv 15 75 45 empty empty empty 20 12 0 14 -233017 -66577
0;
#X obj 18 41 hsl 65 10 0 10 0 0 empty empty empty -2 -6 0 8 -100762
-1 -1 1917 1;
#X floatatom 40 19 5 0 0 0 - - -;
#X obj 19 19 tgl 15 0 empty empty empty 0 -6 0 8 -262144 -1 -1 1 1
;
#X obj 205 132 spigot;
#X obj 16 94 loadbang;
#X connect 0 0 3 0;
#X connect 1 0 8 0;
#X connect 2 0 0 0;
#X connect 5 0 6 0;
#X connect 6 0 0 1;
#X connect 7 0 8 1;
#X connect 8 0 5 0;
#X connect 9 0 7 0;
#X coords 0 -1 1 1 77 49 1 11 8;
#X restore 56 417 pd wander;
#N canvas 0 0 470 320 wander 0;
#X obj 154 162 *~;
#X obj 184 82 wander 0.5 5 5000 60000;
#X obj 138 45 inlet~;
#X obj 152 244 outlet~;
#X obj 12 10 cnv 15 75 45 empty empty empty 20 12 0 14 -233017 -66577
0;
#X obj 18 41 hsl 65 10 0 10 0 0 empty empty empty -2 -6 0 8 -100762
-1 -1 461 1;
#X floatatom 40 19 5 0 0 0 - - -;
#X obj 19 19 tgl 15 0 empty empty empty 0 -6 0 8 -262144 -1 -1 1 1
;
#X obj 205 132 spigot;
#X obj 16 94 loadbang;
#X connect 0 0 3 0;
#X connect 1 0 8 0;
#X connect 2 0 0 0;
#X connect 5 0 6 0;
#X connect 6 0 0 1;
#X connect 7 0 8 1;
#X connect 8 0 5 0;
#X connect 9 0 7 0;
#X coords 0 -1 1 1 77 49 1 11 8;
#X restore 179 417 pd wander;
#N canvas 0 0 470 320 wander 0;
#X obj 154 162 *~;
#X obj 184 82 wander 0.5 5 5000 60000;
#X obj 138 45 inlet~;
#X obj 152 244 outlet~;
#X obj 12 10 cnv 15 75 45 empty empty empty 20 12 0 14 -233017 -66577
0;
#X obj 18 41 hsl 65 10 0 10 0 0 empty empty empty -2 -6 0 8 -100762
-1 -1 1916 1;
#X floatatom 40 19 5 0 0 0 - - -;
#X obj 19 19 tgl 15 0 empty empty empty 0 -6 0 8 -262144 -1 -1 1 1
;
#X obj 205 132 spigot;
#X obj 16 94 loadbang;
#X connect 0 0 3 0;
#X connect 1 0 8 0;
#X connect 2 0 0 0;
#X connect 5 0 6 0;
#X connect 6 0 0 1;
#X connect 7 0 8 1;
#X connect 8 0 5 0;
#X connect 9 0 7 0;
#X coords 0 -1 1 1 77 49 1 11 8;
#X restore 330 419 pd wander;
#N canvas 0 0 470 320 wander 0;
#X obj 154 162 *~;
#X obj 184 82 wander 0.5 5 5000 60000;
#X obj 138 45 inlet~;
#X obj 152 244 outlet~;
#X obj 12 10 cnv 15 75 45 empty empty empty 20 12 0 14 -233017 -66577
0;
#X obj 18 41 hsl 65 10 0 10 0 0 empty empty empty -2 -6 0 8 -100762
-1 -1 1600 1;
#X floatatom 40 19 5 0 0 0 - - -;
#X obj 19 19 tgl 15 0 empty empty empty 0 -6 0 8 -262144 -1 -1 1 1
;
#X obj 205 132 spigot;
#X obj 16 94 loadbang;
#X connect 0 0 3 0;
#X connect 1 0 8 0;
#X connect 2 0 0 0;
#X connect 5 0 6 0;
#X connect 6 0 0 1;
#X connect 7 0 8 1;
#X connect 8 0 5 0;
#X connect 9 0 7 0;
#X coords 0 -1 1 1 77 49 1 11 8;
#X restore 464 423 pd wander;
#N canvas 0 0 470 320 wander 0;
#X obj 154 162 *~;
#X obj 184 82 wander 0.5 5 5000 60000;
#X obj 138 45 inlet~;
#X obj 152 244 outlet~;
#X obj 12 10 cnv 15 75 45 empty empty empty 20 12 0 14 -233017 -66577
0;
#X obj 18 41 hsl 65 10 0 10 0 0 empty empty empty -2 -6 0 8 -100762
-1 -1 2638 1;
#X floatatom 40 19 5 0 0 0 - - -;
#X obj 19 19 tgl 15 0 empty empty empty 0 -6 0 8 -262144 -1 -1 1 1
;
#X obj 205 132 spigot;
#X obj 16 94 loadbang;
#X connect 0 0 3 0;
#X connect 1 0 8 0;
#X connect 2 0 0 0;
#X connect 5 0 6 0;
#X connect 6 0 0 1;
#X connect 7 0 8 1;
#X connect 8 0 5 0;
#X connect 9 0 7 0;
#X coords 0 -1 1 1 77 49 1 11 8;
#X restore 608 421 pd wander;
#N canvas 0 0 561 456 tv 0;
#X obj 222 120 r rndtime2;
#X obj 137 305 outlet~;
#X obj 136 247 *~;
#X obj 157 50 inlet~;
#X obj 11 11 cnv 15 100 60 empty empty empty 20 12 0 14 -233017 -66577
0;
#X obj 91 53 bng 15 250 50 0 empty empty empty 0 -6 0 8 -262144 -1
-1;
#X floatatom 45 50 5 0 0 0 - - -;
#X obj 19 18 nbx 5 14 -1e+037 1e+037 0 0 empty empty empty 0 -6 0 10
-262144 -1 -1 0 256;
#X obj 155 217 adsr~ 1 0.75 8 8 8;
#X obj 221 146 rnd_moses_wander 5 10 1;
#X connect 0 0 9 0;
#X connect 2 0 1 0;
#X connect 3 0 2 0;
#X connect 8 0 2 1;
#X connect 9 0 5 0;
#X connect 9 0 8 0;
#X connect 9 2 6 0;
#X coords 0 -1 1 1 102 64 1 10 9;
#X restore 778 227 pd tv;
#X obj 755 391 dline~ 1230 0.85;
#X obj 329 381 dline~ 571 0.85;
#N canvas 0 0 561 456 tv 0;
#X obj 222 120 r rndtime2;
#X obj 137 305 outlet~;
#X obj 136 247 *~;
#X obj 157 50 inlet~;
#X obj 11 11 cnv 15 100 60 empty empty empty 20 12 0 14 -233017 -66577
0;
#X obj 91 53 bng 15 250 50 0 empty empty empty 0 -6 0 8 -262144 -1
-1;
#X floatatom 45 50 5 0 0 0 - - -;
#X obj 19 18 nbx 5 14 -1e+037 1e+037 0 0 empty empty empty 0 -6 0 10
-262144 -1 -1 0 256;
#X obj 155 217 adsr~ 1 0.75 8 8 8;
#X obj 221 146 rnd_moses_wander 5 10 1;
#X connect 0 0 9 0;
#X connect 2 0 1 0;
#X connect 3 0 2 0;
#X connect 8 0 2 1;
#X connect 9 0 5 0;
#X connect 9 0 8 0;
#X connect 9 2 6 0;
#X coords 0 -1 1 1 102 64 1 10 9;
#X restore 629 226 pd tv;
#N canvas 0 0 569 464 tv 0;
#X obj 222 120 r rndtime2;
#X obj 137 305 outlet~;
#X obj 136 247 *~;
#X obj 157 50 inlet~;
#X obj 11 11 cnv 15 100 60 empty empty empty 20 12 0 14 -233017 -66577
0;
#X obj 91 53 bng 15 250 50 0 empty empty empty 0 -6 0 8 -262144 -1
-1;
#X floatatom 45 50 5 0 0 0 - - -;
#X obj 19 18 nbx 5 14 -1e+037 1e+037 0 0 empty empty empty 0 -6 0 10
-262144 -1 -1 0 256;
#X obj 155 217 adsr~ 1 0.75 8 8 8;
#X obj 221 146 rnd_moses_wander 5 10 1;
#X connect 0 0 9 0;
#X connect 2 0 1 0;
#X connect 3 0 2 0;
#X connect 8 0 2 1;
#X connect 9 0 5 0;
#X connect 9 0 8 0;
#X connect 9 2 6 0;
#X coords 0 -1 1 1 102 64 1 10 9;
#X restore 471 226 pd tv;
#N canvas 0 0 561 456 tv 0;
#X obj 222 120 r rndtime2;
#X obj 137 305 outlet~;
#X obj 136 247 *~;
#X obj 157 50 inlet~;
#X obj 11 11 cnv 15 100 60 empty empty empty 20 12 0 14 -233017 -66577
0;
#X obj 91 53 bng 15 250 50 0 empty empty empty 0 -6 0 8 -262144 -1
-1;
#X floatatom 45 50 5 0 0 0 - - -;
#X obj 19 18 nbx 5 14 -1e+037 1e+037 0 0 empty empty empty 0 -6 0 10
-262144 -1 -1 0 256;
#X obj 155 217 adsr~ 1 0.75 8 8 8;
#X obj 221 146 rnd_moses_wander 5 10 1;
#X connect 0 0 9 0;
#X connect 2 0 1 0;
#X connect 3 0 2 0;
#X connect 8 0 2 1;
#X connect 9 0 5 0;
#X connect 9 0 8 0;
#X connect 9 2 6 0;
#X coords 0 -1 1 1 102 64 1 10 9;
#X restore 342 223 pd tv;
#N canvas 0 0 561 456 tv 0;
#X obj 222 120 r rndtime2;
#X obj 137 305 outlet~;
#X obj 136 247 *~;
#X obj 157 50 inlet~;
#X obj 11 11 cnv 15 100 60 empty empty empty 20 12 0 14 -233017 -66577
0;
#X obj 91 53 bng 15 250 50 0 empty empty empty 0 -6 0 8 -262144 -1
-1;
#X floatatom 45 50 5 0 0 0 - - -;
#X obj 19 18 nbx 5 14 -1e+037 1e+037 0 0 empty empty empty 0 -6 0 10
-262144 -1 -1 0 256;
#X obj 155 217 adsr~ 1 0.75 8 8 8;
#X obj 221 146 rnd_moses_wander 5 10 1;
#X connect 0 0 9 0;
#X connect 2 0 1 0;
#X connect 3 0 2 0;
#X connect 8 0 2 1;
#X connect 9 0 5 0;
#X connect 9 0 8 0;
#X connect 9 2 6 0;
#X coords 0 -1 1 1 102 64 1 10 9;
#X restore 200 223 pd tv;
#N canvas 0 0 565 460 tv 0;
#X obj 222 120 r rndtime2;
#X obj 137 305 outlet~;
#X obj 136 247 *~;
#X obj 157 50 inlet~;
#X obj 11 11 cnv 15 100 60 empty empty empty 20 12 0 14 -233017 -66577
0;
#X obj 91 53 bng 15 250 50 0 empty empty empty 0 -6 0 8 -262144 -1
-1;
#X floatatom 45 50 5 0 0 0 - - -;
#X obj 19 18 nbx 5 14 -1e+037 1e+037 0 0 empty empty empty 0 -6 0 10
-262144 -1 -1 0 256;
#X obj 155 217 adsr~ 1 0.75 8 8 8;
#X obj 221 146 rnd_moses_wander 5 10 1;
#X connect 0 0 9 0;
#X connect 2 0 1 0;
#X connect 3 0 2 0;
#X connect 8 0 2 1;
#X connect 9 0 5 0;
#X connect 9 0 8 0;
#X connect 9 2 6 0;
#X coords 0 -1 1 1 102 64 1 10 9;
#X restore 70 223 pd tv;
#X obj 608 380 dline~ 111 0.85;
#X floatatom 972 335 5 0 0 0 - - -;
#N canvas 0 0 557 452 tv 0;
#X obj 222 120 r rndtime2;
#X obj 137 305 outlet~;
#X obj 136 247 *~;
#X obj 157 50 inlet~;
#X obj 11 11 cnv 15 100 60 empty empty empty 20 12 0 14 -233017 -66577
0;
#X obj 91 53 bng 15 250 50 0 empty empty empty 0 -6 0 8 -262144 -1
-1;
#X floatatom 45 50 5 0 0 0 - - -;
#X obj 221 146 rnd_moses_wander 15 33 1;
#X obj 19 18 nbx 5 14 -1e+037 1e+037 0 0 empty empty empty 0 -6 0 10
-262144 -1 -1 0 256;
#X obj 155 215 adsr~ 1 0.75 50 50 50;
#X connect 0 0 7 0;
#X connect 2 0 1 0;
#X connect 3 0 2 0;
#X connect 7 0 5 0;
#X connect 7 0 9 0;
#X connect 7 2 6 0;
#X connect 9 0 2 1;
#X coords 0 -1 1 1 102 64 1 10 9;
#X restore 915 148 pd tv;
#N canvas 0 0 474 324 wander 0;
#X obj 154 162 *~;
#X obj 184 82 wander 0.5 5 5000 60000;
#X obj 138 45 inlet~;
#X obj 152 244 outlet~;
#X obj 12 10 cnv 15 75 45 empty empty empty 20 12 0 14 -233017 -66577
0;
#X obj 18 41 hsl 65 10 0 10 0 0 empty empty empty -2 -6 0 8 -100762
-1 -1 1944 1;
#X floatatom 40 19 5 0 0 0 - - -;
#X obj 19 19 tgl 15 0 empty empty empty 0 -6 0 8 -262144 -1 -1 1 1
;
#X obj 205 132 spigot;
#X obj 16 94 loadbang;
#X connect 0 0 3 0;
#X connect 1 0 8 0;
#X connect 2 0 0 0;
#X connect 5 0 6 0;
#X connect 6 0 0 1;
#X connect 7 0 8 1;
#X connect 8 0 5 0;
#X connect 9 0 7 0;
#X coords 0 -1 1 1 77 49 1 11 8;
#X restore 899 418 pd wander;
#N canvas 0 0 561 456 tv 0;
#X obj 222 120 r rndtime2;
#X obj 137 305 outlet~;
#X obj 136 247 *~;
#X obj 157 50 inlet~;
#X obj 11 11 cnv 15 100 60 empty empty empty 20 12 0 14 -233017 -66577
0;
#X obj 91 53 bng 15 250 50 0 empty empty empty 0 -6 0 8 -262144 -1
-1;
#X floatatom 45 50 5 0 0 0 - - -;
#X obj 19 18 nbx 5 14 -1e+037 1e+037 0 0 empty empty empty 0 -6 0 10
-262144 -1 -1 0 256;
#X obj 155 217 adsr~ 1 0.75 8 8 8;
#X obj 221 146 rnd_moses_wander 5 10 1;
#X connect 0 0 9 0;
#X connect 2 0 1 0;
#X connect 3 0 2 0;
#X connect 8 0 2 1;
#X connect 9 0 5 0;
#X connect 9 0 8 0;
#X connect 9 2 6 0;
#X coords 0 -1 1 1 102 64 1 10 9;
#X restore 923 223 pd tv;
#X obj 56 572 /~ 6;
#X obj 900 387 dline~ 1270 0.85;
#X obj 898 360 bp~ 15000 3;
#X connect 0 0 17 0;
#X connect 0 0 18 0;
#X connect 0 0 19 0;
#X connect 0 0 20 0;
#X connect 0 0 21 0;
#X connect 0 0 22 0;
#X connect 0 0 29 0;
#X connect 0 0 32 0;
#X connect 0 0 33 0;
#X connect 0 0 34 0;
#X connect 0 0 35 0;
#X connect 0 0 36 0;
#X connect 0 0 39 0;
#X connect 0 0 41 0;
#X connect 2 0 14 2;
#X connect 3 0 8 2;
#X connect 4 0 13 2;
#X connect 5 0 9 2;
#X connect 6 0 10 2;
#X connect 7 0 12 2;
#X connect 8 0 31 0;
#X connect 9 0 16 0;
#X connect 10 0 11 0;
#X connect 11 0 27 0;
#X connect 12 0 37 0;
#X connect 13 0 30 0;
#X connect 14 0 15 0;
#X connect 15 0 24 0;
#X connect 16 0 25 0;
#X connect 17 0 13 0;
#X connect 18 0 12 0;
#X connect 19 0 10 0;
#X connect 20 0 8 0;
#X connect 21 0 9 0;
#X connect 22 0 14 0;
#X connect 23 0 42 0;
#X connect 24 0 42 0;
#X connect 25 0 42 0;
#X connect 26 0 42 0;
#X connect 27 0 42 0;
#X connect 28 0 42 0;
#X connect 29 0 13 0;
#X connect 30 0 23 0;
#X connect 31 0 26 0;
#X connect 32 0 12 0;
#X connect 33 0 10 0;
#X connect 34 0 8 0;
#X connect 35 0 9 0;
#X connect 36 0 14 0;
#X connect 37 0 28 0;
#X connect 38 0 44 2;
#X connect 39 0 44 0;
#X connect 40 0 42 0;
#X connect 41 0 44 0;
#X connect 42 0 1 0;
#X connect 43 0 40 0;
#X connect 44 0 43 0;
#X restore 161 200 pd fbank;
#X obj 200 530 loadbang;
#X obj 201 566 1;
#X obj 222 93 / 20;
#X obj 222 70 wander 0 10 250 60000;
#X obj 580 80 metro 250;
#X obj 571 54 bng 15 250 50 0 empty empty empty 0 -6 0 8 -262144 -1
-1;
#X obj 583 107 s rndtime2;
#X obj 680 21 vsl 15 128 10 2000 0 0 empty empty empty 0 -8 0 8 -262144
-1 -1 0 1;
#X floatatom 657 160 5 0 0 0 - - -;
#X obj 557 112 bng 15 250 50 0 empty empty empty 0 -6 0 8 -262144 -1
-1;
#X obj 15 546 wavrec2~;
#X msg 607 50 stop;
#N canvas 225 3 922 655 tonality 0;
#X obj 46 13 inlet~;
#X obj 152 572 outlet~;
#X floatatom 177 157 5 0 0 0 - - -;
#X obj 140 332 osc~;
#X obj 141 362 *~;
#X obj 177 130 unpack f f;
#X floatatom 227 157 5 0 0 0 - - -;
#X floatatom 284 154 5 0 0 0 - - -;
#X obj 249 328 osc~;
#X obj 250 358 *~;
#X obj 286 126 unpack f f;
#X floatatom 333 154 5 0 0 0 - - -;
#X floatatom 395 155 5 0 0 0 - - -;
#X obj 357 330 osc~;
#X obj 358 360 *~;
#X obj 394 128 unpack f f;
#X floatatom 447 153 5 0 0 0 - - -;
#X obj 48 45 fiddle~ 1024 3 20 3;
#X obj 196 71 route 1 2 3;
#X obj 181 373 * 3;
#X obj 293 367 * 3;
#X obj 395 366 * 3;
#X obj 157 496 *~ 0.5;
#X obj 157 234 f;
#X obj 190 235 f;
#X obj 287 234 f;
#X obj 319 235 f;
#X obj 413 228 f;
#X obj 446 229 f;
#X msg 64 148 bang;
#X floatatom 121 264 5 0 0 0 - - -;
#X floatatom 204 264 5 0 0 0 - - -;
#X floatatom 261 262 5 0 0 0 - - -;
#X floatatom 332 262 5 0 0 0 - - -;
#X floatatom 388 260 5 0 0 0 - - -;
#X floatatom 459 260 5 0 0 0 - - -;
#X obj 648 360 line;
#X obj 635 296 pack f f;
#X obj 67 180 t b b b b b b;
#X obj 613 398 osc~;
#X obj 558 340 f;
#X obj 591 339 f;
#X obj 538 294 t b b f;
#X floatatom 666 463 5 0 0 0 - - -;
#X floatatom 213 478 5 0 0 0 - - -;
#N canvas 0 0 474 324 dchompa 0;
#X obj 91 106 dline~ 150 0.96;
#X obj 172 143 dline~ 200 0.96;
#X obj 205 170 dline~ 603 0.96;
#X obj 197 21 inlet~;
#X obj 243 201 dline~ 1003 0.96;
#X obj 86 270 outlet~;
#X obj 90 239 /~ 4;
#X connect 0 0 1 0;
#X connect 0 0 6 0;
#X connect 1 0 6 0;
#X connect 2 0 6 0;
#X connect 3 0 0 0;
#X connect 3 0 1 0;
#X connect 3 0 2 0;
#X connect 3 0 4 0;
#X connect 4 0 6 0;
#X connect 6 0 5 0;
#X restore 604 432 pd dchompa;
#X obj 496 371 delay;
#X msg 494 397 0;
#X obj 521 437 bng 15 250 50 0 empty empty empty 0 -6 0 8 -262144 -1
-1;
#X floatatom 665 396 5 0 0 0 - - -;
#X obj 601 458 *~ 0.05;
#X obj 183 528 *~;
#X msg 286 431 bang;
#X obj 290 467 adsr~ 200 0.8 100 750 1250;
#X obj 22 90 r rndtime2;
#X obj 23 153 bng 15 250 50 0 empty empty empty 0 -6 0 8 -262144 -1
-1;
#X obj 30 120 rnd_moses 2;
#X connect 0 0 17 0;
#X connect 3 0 4 0;
#X connect 4 0 22 0;
#X connect 5 0 2 0;
#X connect 5 0 23 1;
#X connect 5 1 6 0;
#X connect 5 1 24 1;
#X connect 8 0 9 0;
#X connect 9 0 22 0;
#X connect 10 0 7 0;
#X connect 10 0 25 1;
#X connect 10 1 11 0;
#X connect 10 1 26 1;
#X connect 13 0 14 0;
#X connect 14 0 22 0;
#X connect 15 0 12 0;
#X connect 15 0 27 1;
#X connect 15 1 16 0;
#X connect 15 1 28 1;
#X connect 17 6 18 0;
#X connect 18 0 5 0;
#X connect 18 1 10 0;
#X connect 18 2 15 0;
#X connect 19 0 4 1;
#X connect 20 0 9 1;
#X connect 21 0 14 1;
#X connect 22 0 51 0;
#X connect 23 0 3 0;
#X connect 23 0 30 0;
#X connect 23 0 42 0;
#X connect 23 0 52 0;
#X connect 24 0 19 0;
#X connect 24 0 31 0;
#X connect 25 0 8 0;
#X connect 25 0 32 0;
#X connect 25 0 40 1;
#X connect 26 0 20 0;
#X connect 26 0 33 0;
#X connect 27 0 13 0;
#X connect 27 0 34 0;
#X connect 27 0 41 1;
#X connect 28 0 21 0;
#X connect 28 0 35 0;
#X connect 29 0 38 0;
#X connect 36 0 39 0;
#X connect 36 0 49 0;
#X connect 37 0 36 0;
#X connect 38 0 23 0;
#X connect 38 1 24 0;
#X connect 38 2 25 0;
#X connect 38 3 26 0;
#X connect 38 4 27 0;
#X connect 38 5 28 0;
#X connect 39 0 45 0;
#X connect 40 0 37 0;
#X connect 41 0 37 1;
#X connect 41 0 46 1;
#X connect 42 0 40 0;
#X connect 42 0 46 0;
#X connect 42 1 41 0;
#X connect 42 2 36 0;
#X connect 43 0 50 1;
#X connect 44 0 22 1;
#X connect 45 0 50 0;
#X connect 46 0 47 0;
#X connect 46 0 48 0;
#X connect 47 0 36 0;
#X connect 50 0 1 0;
#X connect 51 0 1 0;
#X connect 52 0 53 0;
#X connect 53 0 51 1;
#X connect 54 0 56 0;
#X connect 56 0 38 0;
#X connect 56 0 55 0;
#X restore 180 263 pd tonality;
#X obj 375 298 granubench~;
#X obj 566 272 *~ 7;
#X obj 43 493 *~ 1;
#X obj 129 492 *~ 1;
#N canvas 0 0 466 316 defaults 0;
#X obj 53 270 outlet;
#X msg 32 110 wander on;
#X obj 69 56 loadbang;
#X msg 117 108 volume 33;
#X msg 220 113 size 10;
#X msg 62 158 spread1 10;
#X msg 104 193 spread2 12;
#X msg 149 221 spread3 7;
#X msg 289 109 clip 41;
#X connect 1 0 0 0;
#X connect 2 0 1 0;
#X connect 2 0 3 0;
#X connect 2 0 4 0;
#X connect 2 0 5 0;
#X connect 2 0 6 0;
#X connect 2 0 7 0;
#X connect 2 0 8 0;
#X connect 3 0 0 0;
#X connect 4 0 0 0;
#X connect 5 0 0 0;
#X connect 6 0 0 0;
#X connect 7 0 0 0;
#X connect 8 0 0 0;
#X restore 377 267 pd defaults;
#X connect 1 0 3 0;
#X connect 2 0 27 0;
#X connect 3 0 9 0;
#X connect 4 0 3 1;
#X connect 4 0 5 0;
#X connect 6 0 2 0;
#X connect 6 0 26 0;
#X connect 7 0 9 1;
#X connect 8 0 7 0;
#X connect 9 0 10 0;
#X connect 10 0 6 0;
#X connect 10 0 23 0;
#X connect 10 0 25 0;
#X connect 11 0 12 0;
#X connect 12 0 0 2;
#X connect 13 0 8 0;
#X connect 14 0 13 0;
#X connect 15 0 17 0;
#X connect 15 0 20 0;
#X connect 16 0 15 0;
#X connect 18 0 15 1;
#X connect 18 0 19 0;
#X connect 22 0 15 0;
#X connect 23 0 6 0;
#X connect 24 0 26 0;
#X connect 24 1 27 0;
#X connect 25 0 24 1;
#X connect 26 0 21 0;
#X connect 26 0 0 0;
#X connect 27 0 0 1;
#X connect 27 0 21 1;
#X connect 28 0 24 0;
