#N struct awf-template-$0 float x float y float h;
#N canvas 201 249 870 652 10;
#X obj 405 476 sout~;
#X obj 744 460 adc~;
#X obj 744 486 sout~;
#N canvas 185 586 366 254 inits 0;
#X obj 12 3 loadbang;
#X msg 66 75 delay 1000 \, feedback 0.9;
#X msg 12 158 wander on \, play;
#X msg 48 98 size 25 \, spread1 2 \, spread2 2 \, spread3 22;
#X msg 84 51 midibase 40;
#X obj 12 26 t b b b b b;
#X obj 35 220 outlet;
#X msg 30 125 clip 40 \, lop 250 \, volume 45;
#X connect 0 0 5 0;
#X connect 1 0 6 0;
#X connect 2 0 6 0;
#X connect 3 0 6 0;
#X connect 4 0 6 0;
#X connect 5 0 2 0;
#X connect 5 1 7 0;
#X connect 5 2 3 0;
#X connect 5 3 1 0;
#X connect 5 4 4 0;
#X connect 7 0 6 0;
#X restore 19 57 pd inits;
#X obj 529 461 loadbang;
#X msg 530 481 0.95;
#X obj 19 130 granubench~;
#X obj 477 507 ctlin 4;
#X obj 477 527 select 0;
#X msg 528 551 1;
#X msg 477 551 0;
#N canvas 619 3 450 300 Pd 0;
#X obj 51 242 outlet;
#X obj 57 34 bng 20 250 50 0 empty empty empty 0 -6 0 8 -225280 -1
-1;
#X obj 87 34 bng 20 250 50 0 empty empty empty 0 -6 0 8 -261681 -1
-1;
#X text 52 21 load;
#X text 83 21 save;
#X msg 51 218 loadfile \$1;
#X obj 53 195 makefilename /home/jason/barkmulch/bm2_%d.wav;
#X msg 57 168 1;
#X obj 106 119 makefilename /home/jason/barkmulch/bm2_%d.wav;
#X msg 110 92 1;
#X msg 104 142 savefile \$1;
#X connect 1 0 7 0;
#X connect 2 0 9 0;
#X connect 5 0 0 0;
#X connect 6 0 5 0;
#X connect 7 0 6 0;
#X connect 8 0 10 0;
#X connect 9 0 8 0;
#X connect 10 0 0 0;
#X coords 0 -1 1 1 63 45 1 50 10;
#X restore 30 79 pd;
#N canvas 185 586 366 254 inits 0;
#X obj 12 3 loadbang;
#X msg 66 75 delay 1000 \, feedback 0.9;
#X msg 12 158 wander on \, play;
#X msg 48 98 size 25 \, spread1 2 \, spread2 2 \, spread3 22;
#X obj 12 26 t b b b b b;
#X obj 35 220 outlet;
#X msg 84 51 midibase 60;
#X msg 30 125 clip 40 \, lop 250 \, volume 45;
#X connect 0 0 4 0;
#X connect 1 0 5 0;
#X connect 2 0 5 0;
#X connect 3 0 5 0;
#X connect 4 0 2 0;
#X connect 4 1 7 0;
#X connect 4 2 3 0;
#X connect 4 3 1 0;
#X connect 4 4 6 0;
#X connect 6 0 5 0;
#X connect 7 0 5 0;
#X restore 228 57 pd inits;
#N canvas 619 3 450 300 Pd 0;
#X obj 51 242 outlet;
#X obj 57 34 bng 20 250 50 0 empty empty empty 0 -6 0 8 -225280 -1
-1;
#X obj 87 34 bng 20 250 50 0 empty empty empty 0 -6 0 8 -261681 -1
-1;
#X text 52 21 load;
#X text 83 21 save;
#X msg 51 218 loadfile \$1;
#X obj 53 195 makefilename /home/jason/barkmulch/bm2_%d.wav;
#X obj 106 119 makefilename /home/jason/barkmulch/bm2_%d.wav;
#X msg 104 142 savefile \$1;
#X msg 110 92 2;
#X msg 57 168 2;
#X connect 1 0 10 0;
#X connect 2 0 9 0;
#X connect 5 0 0 0;
#X connect 6 0 5 0;
#X connect 7 0 8 0;
#X connect 8 0 0 0;
#X connect 9 0 7 0;
#X connect 10 0 6 0;
#X coords 0 -1 1 1 63 45 1 50 10;
#X restore 239 79 pd;
#N canvas 185 586 366 254 inits 0;
#X obj 12 3 loadbang;
#X msg 66 75 delay 1000 \, feedback 0.9;
#X msg 12 158 wander on \, play;
#X msg 48 98 size 25 \, spread1 2 \, spread2 2 \, spread3 22;
#X obj 12 26 t b b b b b;
#X obj 35 220 outlet;
#X msg 84 51 midibase 80;
#X msg 30 125 clip 40 \, lop 250 \, volume 45;
#X connect 0 0 4 0;
#X connect 1 0 5 0;
#X connect 2 0 5 0;
#X connect 3 0 5 0;
#X connect 4 0 2 0;
#X connect 4 1 7 0;
#X connect 4 2 3 0;
#X connect 4 3 1 0;
#X connect 4 4 6 0;
#X connect 6 0 5 0;
#X connect 7 0 5 0;
#X restore 437 57 pd inits;
#N canvas 619 3 450 300 Pd 0;
#X obj 51 242 outlet;
#X obj 57 34 bng 20 250 50 0 empty empty empty 0 -6 0 8 -225280 -1
-1;
#X obj 87 34 bng 20 250 50 0 empty empty empty 0 -6 0 8 -261681 -1
-1;
#X text 52 21 load;
#X text 83 21 save;
#X msg 51 218 loadfile \$1;
#X obj 53 195 makefilename /home/jason/barkmulch/bm2_%d.wav;
#X obj 106 119 makefilename /home/jason/barkmulch/bm2_%d.wav;
#X msg 104 142 savefile \$1;
#X msg 110 92 3;
#X msg 57 168 3;
#X connect 1 0 10 0;
#X connect 2 0 9 0;
#X connect 5 0 0 0;
#X connect 6 0 5 0;
#X connect 7 0 8 0;
#X connect 8 0 0 0;
#X connect 9 0 7 0;
#X connect 10 0 6 0;
#X coords 0 -1 1 1 63 45 1 50 10;
#X restore 448 79 pd;
#N canvas 185 586 366 254 inits 0;
#X obj 12 3 loadbang;
#X msg 66 75 delay 1000 \, feedback 0.9;
#X msg 12 158 wander on \, play;
#X msg 48 98 size 25 \, spread1 2 \, spread2 2 \, spread3 22;
#X obj 12 26 t b b b b b;
#X obj 35 220 outlet;
#X msg 84 51 midibase 100;
#X msg 30 125 clip 40 \, lop 250 \, volume 45;
#X connect 0 0 4 0;
#X connect 1 0 5 0;
#X connect 2 0 5 0;
#X connect 3 0 5 0;
#X connect 4 0 2 0;
#X connect 4 1 7 0;
#X connect 4 2 3 0;
#X connect 4 3 1 0;
#X connect 4 4 6 0;
#X connect 6 0 5 0;
#X connect 7 0 5 0;
#X restore 646 57 pd inits;
#N canvas 619 3 450 300 Pd 0;
#X obj 51 242 outlet;
#X obj 57 34 bng 20 250 50 0 empty empty empty 0 -6 0 8 -225280 -1
-1;
#X obj 87 34 bng 20 250 50 0 empty empty empty 0 -6 0 8 -261681 -1
-1;
#X text 52 21 load;
#X text 83 21 save;
#X msg 51 218 loadfile \$1;
#X obj 53 195 makefilename /home/jason/barkmulch/bm2_%d.wav;
#X obj 106 119 makefilename /home/jason/barkmulch/bm2_%d.wav;
#X msg 104 142 savefile \$1;
#X msg 110 92 4;
#X msg 57 168 4;
#X connect 1 0 10 0;
#X connect 2 0 9 0;
#X connect 5 0 0 0;
#X connect 6 0 5 0;
#X connect 7 0 8 0;
#X connect 8 0 0 0;
#X connect 9 0 7 0;
#X connect 10 0 6 0;
#X coords 0 -1 1 1 63 45 1 50 10;
#X restore 657 79 pd;
#X obj 665 505 select 0;
#X msg 716 529 1;
#X msg 665 529 0;
#X obj 664 485 ctlin 2;
#X obj 228 130 granubench~;
#X obj 437 130 granubench~;
#X obj 646 130 granubench~;
#X connect 1 0 2 0;
#X connect 1 0 2 1;
#X connect 3 0 6 0;
#X connect 4 0 5 0;
#X connect 5 0 0 2;
#X connect 6 0 0 0;
#X connect 6 1 0 1;
#X connect 7 0 8 0;
#X connect 8 0 10 0;
#X connect 8 1 9 0;
#X connect 9 0 0 2;
#X connect 10 0 0 2;
#X connect 11 0 6 0;
#X connect 12 0 22 0;
#X connect 13 0 22 0;
#X connect 14 0 23 0;
#X connect 15 0 23 0;
#X connect 16 0 24 0;
#X connect 17 0 24 0;
#X connect 18 0 20 0;
#X connect 18 1 19 0;
#X connect 19 0 2 2;
#X connect 20 0 2 2;
#X connect 21 0 18 0;
#X connect 22 0 0 0;
#X connect 22 1 0 1;
#X connect 23 0 0 0;
#X connect 23 1 0 1;
#X connect 24 0 0 0;
#X connect 24 1 0 1;
