#N canvas 386 114 525 521 10;
#X obj 207 453 dac~;
#X obj 207 425 *~;
#X floatatom 266 393 5 0 0 0 - - -;
#X obj 260 410 hsl 128 15 0 1 0 0 empty empty empty -2 -6 0 8 -262144
-1 -1 7620 1;
#X obj 40 313 osc~;
#X obj 306 39 ctlin 8;
#X obj 363 40 ctlin 40;
#X obj 339 91 +;
#X floatatom 378 111 5 0 0 0 - - -;
#X obj 369 141 print ctlin8;
#X obj 370 162 print ctlin40;
#X obj 295 93 << 7;
#X obj 256 351 ctlin 104;
#X obj 40 266 * 9;
#X obj 206 129 ctlin 107;
#X msg 207 149 bang;
#X obj 183 97 adc~;
#X obj 231 172 ctlin 108;
#X msg 233 193 bang;
#X floatatom 207 246 5 0 0 0 - - -;
#X obj 256 245 bng 15 250 50 0 empty empty empty 0 -6 0 8 -262144 -1
-1;
#X obj 209 309 l_pitchScale~;
#X obj 39 243 ctlin 103;
#X floatatom 57 292 5 0 0 0 - - -;
#X text 295 18 higher resolution schtuff:;
#X obj 297 203 ctlin 96;
#X obj 299 268 + 0.5;
#X obj 297 224 / 127;
#X obj 297 246 * 1.5;
#X floatatom 305 290 5 0 0 0 - - -;
#X obj 174 350 *~ 3;
#X obj 12 23 adc~;
#X obj 182 215 sampler~;
#X obj 257 372 / 50;
#N canvas 0 0 850 490 samplebanks 0;
#X obj 23 204 s~ sss1;
#X obj 22 5 inlet~;
#X obj 220 203 s~ sss2;
#X obj 421 204 s~ sss3;
#X obj 76 74 ctlin 89;
#X obj 76 95 / 127;
#X obj 119 117 - 1;
#X obj 120 137 * -1;
#X obj 121 157 * 100;
#X obj 76 157 * 100;
#X obj 21 179 l_reverb~ 90 50 0 50 0;
#X obj 276 94 / 127;
#X obj 319 116 - 1;
#X obj 320 136 * -1;
#X obj 321 156 * 100;
#X obj 276 156 * 100;
#X obj 221 179 l_reverb~ 90 50 0 50 0;
#X obj 276 73 ctlin 90;
#X obj 476 95 / 127;
#X obj 519 117 - 1;
#X obj 520 137 * -1;
#X obj 521 157 * 100;
#X obj 476 157 * 100;
#X obj 421 180 l_reverb~ 90 50 0 50 0;
#X obj 476 74 ctlin 91;
#X obj 680 98 / 127;
#X obj 723 120 - 1;
#X obj 724 140 * -1;
#X obj 725 160 * 100;
#X obj 680 160 * 100;
#X obj 625 183 l_reverb~ 90 50 0 50 0;
#X obj 624 207 s~ sss4;
#X obj 680 77 ctlin 92;
#X obj 22 52 bcr_sampleloop1~ 65 73 81 1;
#X obj 221 52 bcr_sampleloop1~ 66 74 82 2;
#X obj 421 51 bcr_sampleloop1~ 67 75 83 3;
#X obj 624 49 bcr_sampleloop1~ 68 76 84 4;
#X connect 1 0 33 0;
#X connect 1 0 34 0;
#X connect 1 0 35 0;
#X connect 1 0 36 0;
#X connect 4 0 5 0;
#X connect 5 0 6 0;
#X connect 5 0 9 0;
#X connect 6 0 7 0;
#X connect 7 0 8 0;
#X connect 8 0 10 4;
#X connect 9 0 10 3;
#X connect 10 0 0 0;
#X connect 11 0 12 0;
#X connect 11 0 15 0;
#X connect 12 0 13 0;
#X connect 13 0 14 0;
#X connect 14 0 16 4;
#X connect 15 0 16 3;
#X connect 16 0 2 0;
#X connect 17 0 11 0;
#X connect 18 0 19 0;
#X connect 18 0 22 0;
#X connect 19 0 20 0;
#X connect 20 0 21 0;
#X connect 21 0 23 4;
#X connect 22 0 23 3;
#X connect 23 0 3 0;
#X connect 24 0 18 0;
#X connect 25 0 26 0;
#X connect 25 0 29 0;
#X connect 26 0 27 0;
#X connect 27 0 28 0;
#X connect 28 0 30 4;
#X connect 29 0 30 3;
#X connect 30 0 31 0;
#X connect 32 0 25 0;
#X connect 33 0 10 0;
#X connect 34 0 16 0;
#X connect 35 0 23 0;
#X connect 36 0 30 0;
#X restore 13 77 pd samplebanks;
#X obj 12 394 r~ sss1;
#X obj 13 420 r~ sss2;
#X obj 15 444 r~ sss3;
#X obj 16 470 r~ sss4;
#X connect 1 0 0 0;
#X connect 1 0 0 1;
#X connect 3 0 1 1;
#X connect 4 0 1 0;
#X connect 5 0 9 0;
#X connect 5 0 11 0;
#X connect 6 0 7 1;
#X connect 6 0 10 0;
#X connect 7 0 8 0;
#X connect 11 0 7 0;
#X connect 12 0 33 0;
#X connect 13 0 23 0;
#X connect 13 0 4 0;
#X connect 14 0 15 0;
#X connect 15 0 32 1;
#X connect 16 0 32 0;
#X connect 17 0 18 0;
#X connect 18 0 32 2;
#X connect 21 0 30 0;
#X connect 22 0 13 0;
#X connect 25 0 27 0;
#X connect 26 0 29 0;
#X connect 26 0 21 1;
#X connect 27 0 28 0;
#X connect 28 0 26 0;
#X connect 30 0 1 0;
#X connect 31 0 34 0;
#X connect 32 0 21 0;
#X connect 32 1 19 0;
#X connect 32 2 20 0;
#X connect 33 0 3 0;
#X connect 33 0 2 0;
#X connect 35 0 1 0;
#X connect 36 0 1 0;
#X connect 37 0 1 0;
#X connect 38 0 1 0;
