#N canvas 543 105 744 553 10;
#X obj 187 99 bng 15 250 50 0 empty empty empty 17 7 0 10 -262144 -1
-1;
#X obj 265 100 bng 15 250 50 0 empty empty empty 17 7 0 10 -262144
-1 -1;
#X obj 288 98 bng 15 250 50 0 empty empty empty 17 7 0 10 -262144 -1
-1;
#X obj 366 99 bng 15 250 50 0 empty empty empty 17 7 0 10 -262144 -1
-1;
#X obj 386 98 bng 15 250 50 0 empty empty empty 17 7 0 10 -262144 -1
-1;
#X obj 464 99 bng 15 250 50 0 empty empty empty 17 7 0 10 -262144 -1
-1;
#X obj 491 99 bng 15 250 50 0 empty empty empty 17 7 0 10 -262144 -1
-1;
#X obj 569 100 bng 15 250 50 0 empty empty empty 17 7 0 10 -262144
-1 -1;
#X obj 288 237 bng 15 250 50 0 empty empty empty 17 7 0 10 -262144
-1 -1;
#X obj 366 238 bng 15 250 50 0 empty empty empty 17 7 0 10 -262144
-1 -1;
#X obj 389 236 bng 15 250 50 0 empty empty empty 17 7 0 10 -262144
-1 -1;
#X obj 467 237 bng 15 250 50 0 empty empty empty 17 7 0 10 -262144
-1 -1;
#X obj 487 236 bng 15 250 50 0 empty empty empty 17 7 0 10 -262144
-1 -1;
#X obj 565 237 bng 15 250 50 0 empty empty empty 17 7 0 10 -262144
-1 -1;
#X obj 592 237 bng 15 250 50 0 empty empty empty 17 7 0 10 -262144
-1 -1;
#X obj 670 238 bng 15 250 50 0 empty empty empty 17 7 0 10 -262144
-1 -1;
#X text 199 48 c;
#X text 312 49 d;
#X text 422 52 e;
#X text 518 55 f;
#X text 313 191 g;
#X text 407 190 h;
#X text 509 191 i;
#X text 611 188 j;
#X obj 80 96 bng 15 250 50 0 empty empty empty 17 7 0 10 -262144 -1
-1;
#X obj 158 97 bng 15 250 50 0 empty empty empty 17 7 0 10 -262144 -1
-1;
#N canvas 361 346 752 454 beech1 0;
#X obj 42 34 inlet;
#X obj 60 428 outlet~;
#X obj 442 41 inlet;
#X text 37 16 in;
#X text 446 19 out;
#X obj 29 271 osc~;
#X obj 86 287 noise~;
#X obj 41 348 *~ 1;
#X obj 85 318 bp~ 100 3;
#X obj 24 147 mtof;
#X floatatom 63 117 5 0 0 0 - - -, f 5;
#X floatatom 43 169 5 0 0 0 - - -, f 5;
#X obj 63 389 *~;
#X obj 87 347 *~ 7;
#X obj 157 113 adsr~ 444 0.85 100 100 3000;
#X obj 87 84 t b b b;
#X floatatom 194 140 5 0 0 0 - - -, f 5;
#X obj 23 195 sig~;
#X obj 28 235 +~;
#X obj 384 263 osc~;
#X obj 441 279 noise~;
#X obj 396 340 *~ 1;
#X obj 440 310 bp~ 100 3;
#X obj 379 139 mtof;
#X floatatom 418 109 5 0 0 0 - - -, f 5;
#X floatatom 398 161 5 0 0 0 - - -, f 5;
#X obj 418 381 *~;
#X obj 442 339 *~ 7;
#X obj 512 105 adsr~ 444 0.85 100 100 3000;
#X obj 442 76 t b b b;
#X floatatom 549 132 5 0 0 0 - - -, f 5;
#X obj 378 187 sig~;
#X obj 190 25 loadbang;
#X obj 26 115 f;
#X obj 381 107 f;
#X obj 160 161 *~ 75;
#X obj 515 153 *~ 75;
#X obj 383 227 -~;
#X floatatom 256 285 5 0 0 0 - - -, f 5;
#X msg 193 49 50;
#X obj 263 25 inlet;
#X obj 154 367 adsr~ 444 0.85 100 100 5000;
#X obj 509 359 adsr~ 444 0.85 100 100 5000;
#X connect 0 0 15 0;
#X connect 2 0 29 0;
#X connect 5 0 7 0;
#X connect 6 0 8 0;
#X connect 7 0 12 0;
#X connect 8 0 13 0;
#X connect 9 0 11 0;
#X connect 9 0 17 0;
#X connect 10 0 9 0;
#X connect 12 0 1 0;
#X connect 13 0 12 0;
#X connect 14 0 35 0;
#X connect 15 0 33 0;
#X connect 15 1 14 0;
#X connect 15 2 41 0;
#X connect 16 0 35 1;
#X connect 17 0 18 0;
#X connect 18 0 5 0;
#X connect 19 0 21 0;
#X connect 20 0 22 0;
#X connect 21 0 26 0;
#X connect 22 0 27 0;
#X connect 23 0 25 0;
#X connect 23 0 31 0;
#X connect 24 0 23 0;
#X connect 26 0 1 0;
#X connect 27 0 26 0;
#X connect 28 0 36 0;
#X connect 29 0 34 0;
#X connect 29 1 28 0;
#X connect 29 2 42 0;
#X connect 30 0 36 1;
#X connect 31 0 37 0;
#X connect 32 0 39 0;
#X connect 33 0 9 0;
#X connect 34 0 23 0;
#X connect 35 0 18 1;
#X connect 36 0 37 1;
#X connect 37 0 19 0;
#X connect 38 0 13 1;
#X connect 38 0 27 1;
#X connect 39 0 33 1;
#X connect 39 0 34 1;
#X connect 40 0 33 1;
#X connect 40 0 34 1;
#X connect 41 0 12 1;
#X connect 42 0 26 1;
#X restore 87 125 pd beech1;
#X text 92 45 b;
#X obj 80 69 beechannel 0;
#X obj 462 402 ctlin;
#X obj 454 443 print val;
#X obj 533 444 print ch;
#X obj 187 72 beechannel 1;
#X obj 288 71 beechannel 2;
#X obj 392 72 beechannel 3;
#X obj 493 74 beechannel 4;
#X obj 292 212 beechannel 5;
#X obj 393 211 beechannel 6;
#X obj 492 213 beechannel 7;
#X obj 593 212 beechannel 8;
#X obj 69 393 mout~;
#N canvas 361 346 752 454 beech1 0;
#X obj 42 34 inlet;
#X obj 60 428 outlet~;
#X obj 442 41 inlet;
#X text 37 16 in;
#X text 446 19 out;
#X obj 29 271 osc~;
#X obj 86 287 noise~;
#X obj 41 348 *~ 1;
#X obj 85 318 bp~ 100 3;
#X obj 24 147 mtof;
#X floatatom 63 117 5 0 0 0 - - -, f 5;
#X floatatom 43 169 5 0 0 0 - - -, f 5;
#X obj 63 389 *~;
#X obj 154 367 adsr~ 444 0.85 100 100 3000;
#X obj 87 347 *~ 7;
#X obj 157 113 adsr~ 444 0.85 100 100 3000;
#X obj 87 84 t b b b;
#X floatatom 194 140 5 0 0 0 - - -, f 5;
#X obj 23 195 sig~;
#X obj 28 235 +~;
#X obj 384 263 osc~;
#X obj 441 279 noise~;
#X obj 396 340 *~ 1;
#X obj 440 310 bp~ 100 3;
#X obj 379 139 mtof;
#X floatatom 418 109 5 0 0 0 - - -, f 5;
#X floatatom 398 161 5 0 0 0 - - -, f 5;
#X obj 418 381 *~;
#X obj 509 359 adsr~ 444 0.85 100 100 3000;
#X obj 442 339 *~ 7;
#X obj 512 105 adsr~ 444 0.85 100 100 3000;
#X obj 442 76 t b b b;
#X floatatom 549 132 5 0 0 0 - - -, f 5;
#X obj 378 187 sig~;
#X obj 190 25 loadbang;
#X obj 26 115 f;
#X obj 381 107 f;
#X obj 160 161 *~ 75;
#X obj 515 153 *~ 75;
#X obj 383 227 -~;
#X floatatom 256 285 5 0 0 0 - - -, f 5;
#X msg 192 49 53;
#X obj 293 30 inlet;
#X connect 0 0 16 0;
#X connect 2 0 31 0;
#X connect 5 0 7 0;
#X connect 6 0 8 0;
#X connect 7 0 12 0;
#X connect 8 0 14 0;
#X connect 9 0 11 0;
#X connect 9 0 18 0;
#X connect 10 0 9 0;
#X connect 12 0 1 0;
#X connect 13 0 12 1;
#X connect 14 0 12 0;
#X connect 15 0 37 0;
#X connect 16 0 35 0;
#X connect 16 1 15 0;
#X connect 16 2 13 0;
#X connect 17 0 37 1;
#X connect 18 0 19 0;
#X connect 19 0 5 0;
#X connect 20 0 22 0;
#X connect 21 0 23 0;
#X connect 22 0 27 0;
#X connect 23 0 29 0;
#X connect 24 0 26 0;
#X connect 24 0 33 0;
#X connect 25 0 24 0;
#X connect 27 0 1 0;
#X connect 28 0 27 1;
#X connect 29 0 27 0;
#X connect 30 0 38 0;
#X connect 31 0 36 0;
#X connect 31 1 30 0;
#X connect 31 2 28 0;
#X connect 32 0 38 1;
#X connect 33 0 39 0;
#X connect 34 0 41 0;
#X connect 35 0 9 0;
#X connect 36 0 24 0;
#X connect 37 0 19 1;
#X connect 38 0 39 1;
#X connect 39 0 20 0;
#X connect 40 0 14 1;
#X connect 40 0 29 1;
#X connect 41 0 35 1;
#X connect 41 0 36 1;
#X connect 42 0 35 1;
#X connect 42 0 36 1;
#X restore 197 126 pd beech1;
#N canvas 361 346 752 454 beech1 0;
#X obj 42 34 inlet;
#X obj 60 428 outlet~;
#X obj 442 41 inlet;
#X text 37 16 in;
#X text 446 19 out;
#X obj 29 271 osc~;
#X obj 86 287 noise~;
#X obj 41 348 *~ 1;
#X obj 85 318 bp~ 100 3;
#X obj 24 147 mtof;
#X floatatom 63 117 5 0 0 0 - - -, f 5;
#X floatatom 43 169 5 0 0 0 - - -, f 5;
#X obj 63 389 *~;
#X obj 154 367 adsr~ 444 0.85 100 100 3000;
#X obj 87 347 *~ 7;
#X obj 157 113 adsr~ 444 0.85 100 100 3000;
#X obj 87 84 t b b b;
#X floatatom 194 140 5 0 0 0 - - -, f 5;
#X obj 23 195 sig~;
#X obj 28 235 +~;
#X obj 384 263 osc~;
#X obj 441 279 noise~;
#X obj 396 340 *~ 1;
#X obj 440 310 bp~ 100 3;
#X obj 379 139 mtof;
#X floatatom 418 109 5 0 0 0 - - -, f 5;
#X floatatom 398 161 5 0 0 0 - - -, f 5;
#X obj 418 381 *~;
#X obj 509 359 adsr~ 444 0.85 100 100 3000;
#X obj 442 339 *~ 7;
#X obj 512 105 adsr~ 444 0.85 100 100 3000;
#X obj 442 76 t b b b;
#X floatatom 549 132 5 0 0 0 - - -, f 5;
#X obj 378 187 sig~;
#X obj 190 25 loadbang;
#X obj 26 115 f;
#X obj 381 107 f;
#X obj 160 161 *~ 75;
#X obj 515 153 *~ 75;
#X obj 383 227 -~;
#X floatatom 256 285 5 0 0 0 - - -, f 5;
#X msg 192 49 53;
#X obj 293 30 inlet;
#X connect 0 0 16 0;
#X connect 2 0 31 0;
#X connect 5 0 7 0;
#X connect 6 0 8 0;
#X connect 7 0 12 0;
#X connect 8 0 14 0;
#X connect 9 0 11 0;
#X connect 9 0 18 0;
#X connect 10 0 9 0;
#X connect 12 0 1 0;
#X connect 13 0 12 1;
#X connect 14 0 12 0;
#X connect 15 0 37 0;
#X connect 16 0 35 0;
#X connect 16 1 15 0;
#X connect 16 2 13 0;
#X connect 17 0 37 1;
#X connect 18 0 19 0;
#X connect 19 0 5 0;
#X connect 20 0 22 0;
#X connect 21 0 23 0;
#X connect 22 0 27 0;
#X connect 23 0 29 0;
#X connect 24 0 26 0;
#X connect 24 0 33 0;
#X connect 25 0 24 0;
#X connect 27 0 1 0;
#X connect 28 0 27 1;
#X connect 29 0 27 0;
#X connect 30 0 38 0;
#X connect 31 0 36 0;
#X connect 31 1 30 0;
#X connect 31 2 28 0;
#X connect 32 0 38 1;
#X connect 33 0 39 0;
#X connect 34 0 41 0;
#X connect 35 0 9 0;
#X connect 36 0 24 0;
#X connect 37 0 19 1;
#X connect 38 0 39 1;
#X connect 39 0 20 0;
#X connect 40 0 14 1;
#X connect 40 0 29 1;
#X connect 41 0 35 1;
#X connect 41 0 36 1;
#X connect 42 0 35 1;
#X connect 42 0 36 1;
#X restore 301 128 pd beech1;
#X floatatom 107 95 5 0 0 0 - - -, f 5;
#X floatatom 215 97 5 0 0 0 - - -, f 5;
#X floatatom 314 100 5 0 0 0 - - -, f 5;
#N canvas 358 343 752 454 beech1 0;
#X obj 42 34 inlet;
#X obj 60 428 outlet~;
#X obj 442 41 inlet;
#X text 37 16 in;
#X text 446 19 out;
#X obj 29 271 osc~;
#X obj 86 287 noise~;
#X obj 41 348 *~ 1;
#X obj 85 318 bp~ 100 3;
#X obj 24 147 mtof;
#X floatatom 63 117 5 0 0 0 - - -, f 5;
#X floatatom 43 169 5 0 0 0 - - -, f 5;
#X obj 63 389 *~;
#X obj 87 347 *~ 7;
#X obj 87 84 t b b b;
#X floatatom 194 140 5 0 0 0 - - -, f 5;
#X obj 23 195 sig~;
#X obj 28 235 +~;
#X obj 384 263 osc~;
#X obj 441 279 noise~;
#X obj 396 340 *~ 1;
#X obj 440 310 bp~ 100 3;
#X obj 379 139 mtof;
#X floatatom 418 109 5 0 0 0 - - -, f 5;
#X floatatom 398 161 5 0 0 0 - - -, f 5;
#X obj 418 381 *~;
#X obj 442 339 *~ 7;
#X obj 442 76 t b b b;
#X floatatom 549 132 5 0 0 0 - - -, f 5;
#X obj 378 187 sig~;
#X obj 190 25 loadbang;
#X obj 26 115 f;
#X obj 381 107 f;
#X obj 160 161 *~ 75;
#X obj 515 153 *~ 75;
#X obj 383 227 -~;
#X floatatom 256 285 5 0 0 0 - - -, f 5;
#X msg 192 49 53;
#X obj 293 30 inlet;
#X obj 154 367 adsr~ 444 0.85 100 100 5000;
#X obj 509 359 adsr~ 444 0.85 100 100 5000;
#X obj 512 105 adsr~ 444 0.85 100 100 5000;
#X obj 157 113 adsr~ 444 0.85 100 100 5000;
#X connect 0 0 14 0;
#X connect 2 0 27 0;
#X connect 5 0 7 0;
#X connect 6 0 8 0;
#X connect 7 0 12 0;
#X connect 8 0 13 0;
#X connect 9 0 11 0;
#X connect 9 0 16 0;
#X connect 10 0 9 0;
#X connect 12 0 1 0;
#X connect 13 0 12 0;
#X connect 14 0 31 0;
#X connect 14 1 42 0;
#X connect 14 2 39 0;
#X connect 15 0 33 1;
#X connect 16 0 17 0;
#X connect 17 0 5 0;
#X connect 18 0 20 0;
#X connect 19 0 21 0;
#X connect 20 0 25 0;
#X connect 21 0 26 0;
#X connect 22 0 24 0;
#X connect 22 0 29 0;
#X connect 23 0 22 0;
#X connect 25 0 1 0;
#X connect 26 0 25 0;
#X connect 27 0 32 0;
#X connect 27 1 41 0;
#X connect 27 2 40 0;
#X connect 28 0 34 1;
#X connect 29 0 35 0;
#X connect 30 0 37 0;
#X connect 31 0 9 0;
#X connect 32 0 22 0;
#X connect 33 0 17 1;
#X connect 34 0 35 1;
#X connect 35 0 18 0;
#X connect 36 0 13 1;
#X connect 36 0 26 1;
#X connect 37 0 31 1;
#X connect 37 0 32 1;
#X connect 38 0 31 1;
#X connect 38 0 32 1;
#X connect 39 0 12 1;
#X connect 40 0 25 1;
#X connect 41 0 34 0;
#X connect 42 0 33 0;
#X restore 395 127 pd beech1;
#X floatatom 412 99 5 0 0 0 - - -, f 5;
#N canvas 360 345 752 454 beech1 0;
#X obj 42 34 inlet;
#X obj 60 428 outlet~;
#X obj 442 41 inlet;
#X text 37 16 in;
#X text 446 19 out;
#X obj 29 271 osc~;
#X obj 86 287 noise~;
#X obj 41 348 *~ 1;
#X obj 85 318 bp~ 100 3;
#X obj 24 147 mtof;
#X floatatom 63 117 5 0 0 0 - - -, f 5;
#X floatatom 43 169 5 0 0 0 - - -, f 5;
#X obj 63 389 *~;
#X obj 154 367 adsr~ 444 0.85 100 100 3000;
#X obj 87 347 *~ 7;
#X obj 157 113 adsr~ 444 0.85 100 100 3000;
#X obj 87 84 t b b b;
#X floatatom 194 140 5 0 0 0 - - -, f 5;
#X obj 23 195 sig~;
#X obj 28 235 +~;
#X obj 384 263 osc~;
#X obj 441 279 noise~;
#X obj 396 340 *~ 1;
#X obj 440 310 bp~ 100 3;
#X obj 379 139 mtof;
#X floatatom 418 109 5 0 0 0 - - -, f 5;
#X floatatom 398 161 5 0 0 0 - - -, f 5;
#X obj 418 381 *~;
#X obj 509 359 adsr~ 444 0.85 100 100 3000;
#X obj 442 339 *~ 7;
#X obj 512 105 adsr~ 444 0.85 100 100 3000;
#X obj 442 76 t b b b;
#X floatatom 549 132 5 0 0 0 - - -, f 5;
#X obj 378 187 sig~;
#X obj 190 25 loadbang;
#X obj 26 115 f;
#X obj 381 107 f;
#X obj 160 161 *~ 75;
#X obj 515 153 *~ 75;
#X obj 383 227 -~;
#X floatatom 256 285 5 0 0 0 - - -, f 5;
#X msg 192 49 53;
#X obj 293 30 inlet;
#X connect 0 0 16 0;
#X connect 2 0 31 0;
#X connect 5 0 7 0;
#X connect 6 0 8 0;
#X connect 7 0 12 0;
#X connect 8 0 14 0;
#X connect 9 0 11 0;
#X connect 9 0 18 0;
#X connect 10 0 9 0;
#X connect 12 0 1 0;
#X connect 13 0 12 1;
#X connect 14 0 12 0;
#X connect 15 0 37 0;
#X connect 16 0 35 0;
#X connect 16 1 15 0;
#X connect 16 2 13 0;
#X connect 17 0 37 1;
#X connect 18 0 19 0;
#X connect 19 0 5 0;
#X connect 20 0 22 0;
#X connect 21 0 23 0;
#X connect 22 0 27 0;
#X connect 23 0 29 0;
#X connect 24 0 26 0;
#X connect 24 0 33 0;
#X connect 25 0 24 0;
#X connect 27 0 1 0;
#X connect 28 0 27 1;
#X connect 29 0 27 0;
#X connect 30 0 38 0;
#X connect 31 0 36 0;
#X connect 31 1 30 0;
#X connect 31 2 28 0;
#X connect 32 0 38 1;
#X connect 33 0 39 0;
#X connect 34 0 41 0;
#X connect 35 0 9 0;
#X connect 36 0 24 0;
#X connect 37 0 19 1;
#X connect 38 0 39 1;
#X connect 39 0 20 0;
#X connect 40 0 14 1;
#X connect 40 0 29 1;
#X connect 41 0 35 1;
#X connect 41 0 36 1;
#X connect 42 0 35 1;
#X connect 42 0 36 1;
#X restore 499 131 pd beech1;
#X floatatom 516 103 5 0 0 0 - - -, f 5;
#N canvas 361 346 752 454 beech1 0;
#X obj 42 34 inlet;
#X obj 60 428 outlet~;
#X obj 442 41 inlet;
#X text 37 16 in;
#X text 446 19 out;
#X obj 29 271 osc~;
#X obj 86 287 noise~;
#X obj 41 348 *~ 1;
#X obj 85 318 bp~ 100 3;
#X obj 24 147 mtof;
#X floatatom 63 117 5 0 0 0 - - -, f 5;
#X floatatom 43 169 5 0 0 0 - - -, f 5;
#X obj 63 389 *~;
#X obj 154 367 adsr~ 444 0.85 100 100 3000;
#X obj 87 347 *~ 7;
#X obj 157 113 adsr~ 444 0.85 100 100 3000;
#X obj 87 84 t b b b;
#X floatatom 194 140 5 0 0 0 - - -, f 5;
#X obj 23 195 sig~;
#X obj 28 235 +~;
#X obj 384 263 osc~;
#X obj 441 279 noise~;
#X obj 396 340 *~ 1;
#X obj 440 310 bp~ 100 3;
#X obj 379 139 mtof;
#X floatatom 418 109 5 0 0 0 - - -, f 5;
#X floatatom 398 161 5 0 0 0 - - -, f 5;
#X obj 418 381 *~;
#X obj 509 359 adsr~ 444 0.85 100 100 3000;
#X obj 442 339 *~ 7;
#X obj 512 105 adsr~ 444 0.85 100 100 3000;
#X obj 442 76 t b b b;
#X floatatom 549 132 5 0 0 0 - - -, f 5;
#X obj 378 187 sig~;
#X obj 190 25 loadbang;
#X obj 26 115 f;
#X obj 381 107 f;
#X obj 160 161 *~ 75;
#X obj 515 153 *~ 75;
#X obj 383 227 -~;
#X floatatom 256 285 5 0 0 0 - - -, f 5;
#X msg 192 49 53;
#X obj 293 30 inlet;
#X connect 0 0 16 0;
#X connect 2 0 31 0;
#X connect 5 0 7 0;
#X connect 6 0 8 0;
#X connect 7 0 12 0;
#X connect 8 0 14 0;
#X connect 9 0 11 0;
#X connect 9 0 18 0;
#X connect 10 0 9 0;
#X connect 12 0 1 0;
#X connect 13 0 12 1;
#X connect 14 0 12 0;
#X connect 15 0 37 0;
#X connect 16 0 35 0;
#X connect 16 1 15 0;
#X connect 16 2 13 0;
#X connect 17 0 37 1;
#X connect 18 0 19 0;
#X connect 19 0 5 0;
#X connect 20 0 22 0;
#X connect 21 0 23 0;
#X connect 22 0 27 0;
#X connect 23 0 29 0;
#X connect 24 0 26 0;
#X connect 24 0 33 0;
#X connect 25 0 24 0;
#X connect 27 0 1 0;
#X connect 28 0 27 1;
#X connect 29 0 27 0;
#X connect 30 0 38 0;
#X connect 31 0 36 0;
#X connect 31 1 30 0;
#X connect 31 2 28 0;
#X connect 32 0 38 1;
#X connect 33 0 39 0;
#X connect 34 0 41 0;
#X connect 35 0 9 0;
#X connect 36 0 24 0;
#X connect 37 0 19 1;
#X connect 38 0 39 1;
#X connect 39 0 20 0;
#X connect 40 0 14 1;
#X connect 40 0 29 1;
#X connect 41 0 35 1;
#X connect 41 0 36 1;
#X connect 42 0 35 1;
#X connect 42 0 36 1;
#X restore 295 269 pd beech1;
#N canvas 361 346 752 454 beech1 0;
#X obj 42 34 inlet;
#X obj 60 428 outlet~;
#X obj 442 41 inlet;
#X text 37 16 in;
#X text 446 19 out;
#X obj 29 271 osc~;
#X obj 86 287 noise~;
#X obj 41 348 *~ 1;
#X obj 85 318 bp~ 100 3;
#X obj 24 147 mtof;
#X floatatom 63 117 5 0 0 0 - - -, f 5;
#X floatatom 43 169 5 0 0 0 - - -, f 5;
#X obj 63 389 *~;
#X obj 154 367 adsr~ 444 0.85 100 100 3000;
#X obj 87 347 *~ 7;
#X obj 157 113 adsr~ 444 0.85 100 100 3000;
#X obj 87 84 t b b b;
#X floatatom 194 140 5 0 0 0 - - -, f 5;
#X obj 23 195 sig~;
#X obj 28 235 +~;
#X obj 384 263 osc~;
#X obj 441 279 noise~;
#X obj 396 340 *~ 1;
#X obj 440 310 bp~ 100 3;
#X obj 379 139 mtof;
#X floatatom 418 109 5 0 0 0 - - -, f 5;
#X floatatom 398 161 5 0 0 0 - - -, f 5;
#X obj 418 381 *~;
#X obj 509 359 adsr~ 444 0.85 100 100 3000;
#X obj 442 339 *~ 7;
#X obj 512 105 adsr~ 444 0.85 100 100 3000;
#X obj 442 76 t b b b;
#X floatatom 549 132 5 0 0 0 - - -, f 5;
#X obj 378 187 sig~;
#X obj 190 25 loadbang;
#X obj 26 115 f;
#X obj 381 107 f;
#X obj 160 161 *~ 75;
#X obj 515 153 *~ 75;
#X obj 383 227 -~;
#X floatatom 256 285 5 0 0 0 - - -, f 5;
#X msg 192 49 53;
#X obj 293 30 inlet;
#X connect 0 0 16 0;
#X connect 2 0 31 0;
#X connect 5 0 7 0;
#X connect 6 0 8 0;
#X connect 7 0 12 0;
#X connect 8 0 14 0;
#X connect 9 0 11 0;
#X connect 9 0 18 0;
#X connect 10 0 9 0;
#X connect 12 0 1 0;
#X connect 13 0 12 1;
#X connect 14 0 12 0;
#X connect 15 0 37 0;
#X connect 16 0 35 0;
#X connect 16 1 15 0;
#X connect 16 2 13 0;
#X connect 17 0 37 1;
#X connect 18 0 19 0;
#X connect 19 0 5 0;
#X connect 20 0 22 0;
#X connect 21 0 23 0;
#X connect 22 0 27 0;
#X connect 23 0 29 0;
#X connect 24 0 26 0;
#X connect 24 0 33 0;
#X connect 25 0 24 0;
#X connect 27 0 1 0;
#X connect 28 0 27 1;
#X connect 29 0 27 0;
#X connect 30 0 38 0;
#X connect 31 0 36 0;
#X connect 31 1 30 0;
#X connect 31 2 28 0;
#X connect 32 0 38 1;
#X connect 33 0 39 0;
#X connect 34 0 41 0;
#X connect 35 0 9 0;
#X connect 36 0 24 0;
#X connect 37 0 19 1;
#X connect 38 0 39 1;
#X connect 39 0 20 0;
#X connect 40 0 14 1;
#X connect 40 0 29 1;
#X connect 41 0 35 1;
#X connect 41 0 36 1;
#X connect 42 0 35 1;
#X connect 42 0 36 1;
#X restore 399 271 pd beech1;
#N canvas 357 342 752 454 beech1 0;
#X obj 42 34 inlet;
#X obj 60 428 outlet~;
#X obj 442 41 inlet;
#X text 37 16 in;
#X text 446 19 out;
#X obj 29 271 osc~;
#X obj 86 287 noise~;
#X obj 41 348 *~ 1;
#X obj 85 318 bp~ 100 3;
#X obj 24 147 mtof;
#X floatatom 63 117 5 0 0 0 - - -, f 5;
#X floatatom 43 169 5 0 0 0 - - -, f 5;
#X obj 63 389 *~;
#X obj 87 347 *~ 7;
#X obj 87 84 t b b b;
#X floatatom 194 140 5 0 0 0 - - -, f 5;
#X obj 23 195 sig~;
#X obj 28 235 +~;
#X obj 384 263 osc~;
#X obj 441 279 noise~;
#X obj 396 340 *~ 1;
#X obj 440 310 bp~ 100 3;
#X obj 379 139 mtof;
#X floatatom 418 109 5 0 0 0 - - -, f 5;
#X floatatom 398 161 5 0 0 0 - - -, f 5;
#X obj 418 381 *~;
#X obj 442 339 *~ 7;
#X obj 442 76 t b b b;
#X floatatom 549 132 5 0 0 0 - - -, f 5;
#X obj 378 187 sig~;
#X obj 190 25 loadbang;
#X obj 26 115 f;
#X obj 381 107 f;
#X obj 160 161 *~ 75;
#X obj 515 153 *~ 75;
#X obj 383 227 -~;
#X floatatom 256 285 5 0 0 0 - - -, f 5;
#X msg 192 49 53;
#X obj 293 30 inlet;
#X obj 154 367 adsr~ 444 0.85 100 100 5000;
#X obj 509 359 adsr~ 444 0.85 100 100 5000;
#X obj 512 105 adsr~ 444 0.85 100 100 5000;
#X obj 157 113 adsr~ 444 0.85 100 100 5000;
#X connect 0 0 14 0;
#X connect 2 0 27 0;
#X connect 5 0 7 0;
#X connect 6 0 8 0;
#X connect 7 0 12 0;
#X connect 8 0 13 0;
#X connect 9 0 11 0;
#X connect 9 0 16 0;
#X connect 10 0 9 0;
#X connect 12 0 1 0;
#X connect 13 0 12 0;
#X connect 14 0 31 0;
#X connect 14 1 42 0;
#X connect 14 2 39 0;
#X connect 15 0 33 1;
#X connect 16 0 17 0;
#X connect 17 0 5 0;
#X connect 18 0 20 0;
#X connect 19 0 21 0;
#X connect 20 0 25 0;
#X connect 21 0 26 0;
#X connect 22 0 24 0;
#X connect 22 0 29 0;
#X connect 23 0 22 0;
#X connect 25 0 1 0;
#X connect 26 0 25 0;
#X connect 27 0 32 0;
#X connect 27 1 41 0;
#X connect 27 2 40 0;
#X connect 28 0 34 1;
#X connect 29 0 35 0;
#X connect 30 0 37 0;
#X connect 31 0 9 0;
#X connect 32 0 22 0;
#X connect 33 0 17 1;
#X connect 34 0 35 1;
#X connect 35 0 18 0;
#X connect 36 0 13 1;
#X connect 36 0 26 1;
#X connect 37 0 31 1;
#X connect 37 0 32 1;
#X connect 38 0 31 1;
#X connect 38 0 32 1;
#X connect 39 0 12 1;
#X connect 40 0 25 1;
#X connect 41 0 34 0;
#X connect 42 0 33 0;
#X restore 493 270 pd beech1;
#N canvas 360 345 752 454 beech1 0;
#X obj 42 34 inlet;
#X obj 60 428 outlet~;
#X obj 442 41 inlet;
#X text 37 16 in;
#X text 446 19 out;
#X obj 29 271 osc~;
#X obj 86 287 noise~;
#X obj 41 348 *~ 1;
#X obj 85 318 bp~ 100 3;
#X obj 24 147 mtof;
#X floatatom 63 117 5 0 0 0 - - -, f 5;
#X floatatom 43 169 5 0 0 0 - - -, f 5;
#X obj 63 389 *~;
#X obj 154 367 adsr~ 444 0.85 100 100 3000;
#X obj 87 347 *~ 7;
#X obj 157 113 adsr~ 444 0.85 100 100 3000;
#X obj 87 84 t b b b;
#X floatatom 194 140 5 0 0 0 - - -, f 5;
#X obj 23 195 sig~;
#X obj 28 235 +~;
#X obj 384 263 osc~;
#X obj 441 279 noise~;
#X obj 396 340 *~ 1;
#X obj 440 310 bp~ 100 3;
#X obj 379 139 mtof;
#X floatatom 418 109 5 0 0 0 - - -, f 5;
#X floatatom 398 161 5 0 0 0 - - -, f 5;
#X obj 418 381 *~;
#X obj 509 359 adsr~ 444 0.85 100 100 3000;
#X obj 442 339 *~ 7;
#X obj 512 105 adsr~ 444 0.85 100 100 3000;
#X obj 442 76 t b b b;
#X floatatom 549 132 5 0 0 0 - - -, f 5;
#X obj 378 187 sig~;
#X obj 190 25 loadbang;
#X obj 26 115 f;
#X obj 381 107 f;
#X obj 160 161 *~ 75;
#X obj 515 153 *~ 75;
#X obj 383 227 -~;
#X floatatom 256 285 5 0 0 0 - - -, f 5;
#X msg 192 49 53;
#X obj 293 30 inlet;
#X connect 0 0 16 0;
#X connect 2 0 31 0;
#X connect 5 0 7 0;
#X connect 6 0 8 0;
#X connect 7 0 12 0;
#X connect 8 0 14 0;
#X connect 9 0 11 0;
#X connect 9 0 18 0;
#X connect 10 0 9 0;
#X connect 12 0 1 0;
#X connect 13 0 12 1;
#X connect 14 0 12 0;
#X connect 15 0 37 0;
#X connect 16 0 35 0;
#X connect 16 1 15 0;
#X connect 16 2 13 0;
#X connect 17 0 37 1;
#X connect 18 0 19 0;
#X connect 19 0 5 0;
#X connect 20 0 22 0;
#X connect 21 0 23 0;
#X connect 22 0 27 0;
#X connect 23 0 29 0;
#X connect 24 0 26 0;
#X connect 24 0 33 0;
#X connect 25 0 24 0;
#X connect 27 0 1 0;
#X connect 28 0 27 1;
#X connect 29 0 27 0;
#X connect 30 0 38 0;
#X connect 31 0 36 0;
#X connect 31 1 30 0;
#X connect 31 2 28 0;
#X connect 32 0 38 1;
#X connect 33 0 39 0;
#X connect 34 0 41 0;
#X connect 35 0 9 0;
#X connect 36 0 24 0;
#X connect 37 0 19 1;
#X connect 38 0 39 1;
#X connect 39 0 20 0;
#X connect 40 0 14 1;
#X connect 40 0 29 1;
#X connect 41 0 35 1;
#X connect 41 0 36 1;
#X connect 42 0 35 1;
#X connect 42 0 36 1;
#X restore 597 274 pd beech1;
#X floatatom 315 237 5 0 0 0 - - -, f 5;
#X floatatom 418 237 5 0 0 0 - - -, f 5;
#X floatatom 514 238 5 0 0 0 - - -, f 5;
#X floatatom 618 241 5 0 0 0 - - -, f 5;
#X connect 0 0 41 0;
#X connect 1 0 41 2;
#X connect 2 0 42 0;
#X connect 3 0 42 2;
#X connect 4 0 46 0;
#X connect 5 0 46 2;
#X connect 6 0 48 0;
#X connect 7 0 48 2;
#X connect 8 0 50 0;
#X connect 9 0 50 2;
#X connect 10 0 51 0;
#X connect 11 0 51 2;
#X connect 12 0 52 0;
#X connect 13 0 52 2;
#X connect 14 0 53 0;
#X connect 15 0 53 2;
#X connect 24 0 26 0;
#X connect 25 0 26 2;
#X connect 26 0 40 0;
#X connect 28 0 24 0;
#X connect 28 1 25 0;
#X connect 29 0 30 0;
#X connect 29 1 31 0;
#X connect 32 0 0 0;
#X connect 32 1 1 0;
#X connect 33 0 2 0;
#X connect 33 1 3 0;
#X connect 34 0 4 0;
#X connect 34 1 5 0;
#X connect 35 0 6 0;
#X connect 35 1 7 0;
#X connect 36 0 8 0;
#X connect 36 1 9 0;
#X connect 37 0 10 0;
#X connect 37 1 11 0;
#X connect 38 0 12 0;
#X connect 38 1 13 0;
#X connect 39 0 14 0;
#X connect 39 1 15 0;
#X connect 41 0 40 0;
#X connect 42 0 40 0;
#X connect 43 0 26 1;
#X connect 44 0 41 1;
#X connect 45 0 42 1;
#X connect 46 0 40 0;
#X connect 47 0 46 1;
#X connect 48 0 40 0;
#X connect 49 0 48 1;
#X connect 50 0 40 0;
#X connect 51 0 40 0;
#X connect 52 0 40 0;
#X connect 53 0 40 0;
#X connect 54 0 50 1;
#X connect 55 0 51 1;
#X connect 56 0 52 1;
#X connect 57 0 53 1;
