#N canvas 0 0 638 500 10;
#X obj 189 81 osc~ 480;
#X obj 198 105 osc~ 620;
#X obj 189 129 *~ 0.48;
#X obj 134 273 mout~;
#X obj 216 260 *~;
#X obj 240 234 vline~;
#X obj 319 60 loadbang;
#X obj 321 81 metro 500;
#X obj 322 103 f;
#X obj 323 128 mod 2;
#X obj 325 219 bng 15 250 50 0 empty empty empty 17 7 0 10 -262144
-1 -1;
#X obj 372 213 bng 15 250 50 0 empty empty empty 17 7 0 10 -262144
-1 -1;
#X obj 324 152 select 1;
#X obj 356 103 + 1;
#X msg 325 188 0 3;
#X msg 372 189 1 3;
#X msg 406 60 stop;
#X msg 317 30 bang;
#X connect 0 0 2 0;
#X connect 1 0 2 0;
#X connect 2 0 4 0;
#X connect 4 0 3 0;
#X connect 5 0 4 1;
#X connect 6 0 7 0;
#X connect 7 0 8 0;
#X connect 8 0 9 0;
#X connect 8 0 13 0;
#X connect 9 0 12 0;
#X connect 12 0 14 0;
#X connect 12 1 15 0;
#X connect 13 0 8 1;
#X connect 14 0 10 0;
#X connect 14 0 5 0;
#X connect 15 0 11 0;
#X connect 15 0 5 0;
#X connect 16 0 7 0;
#X connect 17 0 7 0;
