#N canvas 103 58 696 620 10;
#X obj 298 408 mout~;
#X floatatom 93 199 5 0 0 0 - - -;
#X msg 76 159 start;
#X msg 84 178 stop;
#X floatatom 36 268 5 0 0 0 - - -;
#X floatatom 26 252 5 0 0 0 - - -;
#X floatatom 151 199 5 0 0 0 - - -;
#X msg 134 159 start;
#X msg 142 178 stop;
#X floatatom 203 200 5 0 0 0 - - -;
#X msg 186 160 start;
#X msg 194 179 stop;
#X floatatom 177 270 5 0 0 0 - - -;
#X floatatom 220 270 5 0 0 0 - - -;
#X obj 32 323 caradisio~ 200 0.3;
#X msg 354 167 pin on;
#X msg 394 136 pin \$1;
#X floatatom 329 117 5 0 0 0 - - -;
#X msg 328 136 mod \$1;
#X floatatom 389 113 5 0 0 0 - - -;
#X floatatom 501 123 5 0 0 0 - - -;
#X msg 558 152 feed \$1;
#X floatatom 562 124 5 0 0 0 - - -;
#X msg 498 152 del \$1;
#X msg 583 71 midibase 52;
#X floatatom 275 94 5 0 0 0 - - -;
#X msg 274 113 freq \$1;
#X msg 414 168 pin off;
#X obj 298 205 caradisio2~;
#X connect 1 0 14 2;
#X connect 2 0 14 2;
#X connect 3 0 14 2;
#X connect 4 0 14 1;
#X connect 5 0 14 0;
#X connect 6 0 14 3;
#X connect 7 0 14 3;
#X connect 8 0 14 3;
#X connect 9 0 14 4;
#X connect 10 0 14 4;
#X connect 11 0 14 4;
#X connect 12 0 14 5;
#X connect 13 0 14 6;
#X connect 15 0 28 0;
#X connect 16 0 28 0;
#X connect 17 0 18 0;
#X connect 18 0 28 0;
#X connect 19 0 16 0;
#X connect 20 0 23 0;
#X connect 21 0 28 0;
#X connect 22 0 21 0;
#X connect 23 0 28 0;
#X connect 24 0 28 0;
#X connect 25 0 26 0;
#X connect 26 0 28 0;
#X connect 27 0 28 0;
#X connect 28 0 0 0;
