#N canvas 15 425 628 490 10;
#X obj 143 420 dac~;
#X floatatom 145 71 5 0 0 0 - - -;
#X obj 341 34 bng 15 250 50 0 empty empty empty 0 -6 0 8 -262144 -1
-1;
#N canvas 530 422 633 491 adsr 1;
#X floatatom 263 54 5 0 0 0 - - -;
#X obj 115 449 outlet~;
#X obj 116 428 line~;
#X obj 139 258 f;
#X obj 88 29 inlet;
#X msg 88 53 bang;
#X floatatom 507 325 5 0 0 0 - - -;
#X floatatom 354 160 5 0 0 0 - - -;
#X msg 491 375 0 \$1;
#X obj 232 80 delay;
#X floatatom 104 145 5 0 0 0 - - -;
#X text 95 130 peak level;
#X floatatom 362 96 5 0 0 0 - - -;
#X text 258 39 attack time;
#X text 363 146 decay time;
#X obj 88 284 pack f f;
#X obj 310 137 f;
#X obj 338 179 f;
#X obj 310 210 pack f f;
#X msg 309 232 \$1 \$2;
#X obj 423 221 delay;
#X obj 491 347 f;
#X text 484 312 release time;
#X floatatom 517 187 5 0 0 0 - - -;
#X text 513 171 sustain time;
#X text 348 81 steady level %;
#X obj 455 265 delay;
#X obj 88 164 f 1;
#X obj 325 116 * 0.75;
#X text 226 346 todo: fix this!;
#X text 223 374 the "trigger" is released....;
#X text 224 360 release should be the time *after*;
#X msg 187 113 stop;
#X msg 117 325 0 1 \, \$1 \$2;
#X connect 0 0 3 1;
#X connect 0 0 9 1;
#X connect 2 0 1 0;
#X connect 3 0 15 1;
#X connect 4 0 5 0;
#X connect 5 0 3 0;
#X connect 5 0 9 0;
#X connect 5 0 27 0;
#X connect 5 0 32 0;
#X connect 6 0 21 1;
#X connect 7 0 17 1;
#X connect 7 0 20 1;
#X connect 8 0 2 0;
#X connect 9 0 16 0;
#X connect 9 0 17 0;
#X connect 9 0 20 0;
#X connect 10 0 27 1;
#X connect 10 0 28 0;
#X connect 12 0 28 1;
#X connect 15 0 33 0;
#X connect 16 0 18 0;
#X connect 17 0 18 1;
#X connect 18 0 19 0;
#X connect 19 0 2 0;
#X connect 20 0 26 0;
#X connect 21 0 8 0;
#X connect 23 0 26 1;
#X connect 26 0 21 0;
#X connect 27 0 15 0;
#X connect 28 0 16 1;
#X connect 32 0 20 0;
#X connect 32 0 26 0;
#X connect 33 0 2 0;
#X restore 341 211 pd adsr;
#X obj 144 282 *~;
#X obj 163 381 *~;
#X obj 181 356 hsl 128 15 0 1 0 0 empty empty empty -2 -6 0 8 -262144
-1 -1 6300 1;
#N canvas 563 33 463 307 osc2 1;
#X obj 27 220 *~;
#X obj 105 221 *~;
#X obj 171 221 *~;
#X obj 32 282 outlet~;
#X obj 91 9 inlet;
#X obj 28 106 phasor~ 0;
#X obj 105 105 oscsq~ 0;
#X obj 170 106 osc~ 0;
#X floatatom 128 41 5 0 0 0 - - -;
#X text 127 25 octave;
#X obj 128 59 + 1;
#X obj 91 76 *;
#X obj 319 223 *~;
#X obj 319 106 noise~;
#X obj 28 180 *~ 2;
#X obj 28 199 -~ 1;
#X obj 249 106 tri~;
#X obj 248 221 *~;
#X obj 248 175 *~ 2;
#X obj 248 194 -~ 1;
#X obj 334 47 hradio 15 1 0 5 empty empty empty 0 -6 0 8 -262144 -1
-1 4;
#X floatatom 359 69 5 0 0 0 - - -;
#X msg 326 154 1;
#X msg 355 154 0;
#X obj 326 133 sel 4;
#X msg 256 153 1;
#X msg 285 153 0;
#X obj 256 132 sel 3;
#X msg 179 153 1;
#X msg 208 153 0;
#X obj 179 132 sel 2;
#X msg 112 154 1;
#X msg 141 154 0;
#X obj 112 133 sel 1;
#X msg 35 156 1;
#X msg 64 156 0;
#X obj 35 135 sel 0;
#X obj 290 187 bng 15 250 50 0 empty empty empty 0 -6 0 8 -262144 -1
-1;
#X obj 224 7 inlet;
#X obj 223 27 clip 0 4;
#X obj 302 5 loadbang;
#X msg 301 24 0;
#X connect 0 0 3 0;
#X connect 1 0 3 0;
#X connect 2 0 3 0;
#X connect 4 0 11 0;
#X connect 5 0 14 0;
#X connect 6 0 1 0;
#X connect 7 0 2 0;
#X connect 8 0 10 0;
#X connect 10 0 11 1;
#X connect 11 0 7 0;
#X connect 11 0 6 0;
#X connect 11 0 5 0;
#X connect 11 0 16 0;
#X connect 12 0 3 0;
#X connect 13 0 12 0;
#X connect 14 0 15 0;
#X connect 15 0 0 0;
#X connect 16 0 18 0;
#X connect 17 0 3 0;
#X connect 18 0 19 0;
#X connect 19 0 17 0;
#X connect 20 0 21 0;
#X connect 20 0 24 0;
#X connect 20 0 27 0;
#X connect 20 0 30 0;
#X connect 20 0 33 0;
#X connect 20 0 36 0;
#X connect 22 0 12 1;
#X connect 23 0 12 1;
#X connect 24 0 22 0;
#X connect 24 1 23 0;
#X connect 25 0 17 1;
#X connect 26 0 17 1;
#X connect 26 0 37 0;
#X connect 27 0 25 0;
#X connect 27 1 26 0;
#X connect 28 0 2 1;
#X connect 29 0 2 1;
#X connect 30 0 28 0;
#X connect 30 1 29 0;
#X connect 31 0 1 1;
#X connect 32 0 1 1;
#X connect 33 0 31 0;
#X connect 33 1 32 0;
#X connect 34 0 0 1;
#X connect 35 0 0 1;
#X connect 36 0 34 0;
#X connect 36 1 35 0;
#X connect 38 0 39 0;
#X connect 39 0 20 0;
#X connect 40 0 41 0;
#X connect 41 0 20 0;
#X connect 41 0 10 0;
#X restore 206 101 pd osc2;
#X obj 200 168 *~;
#X text 228 161 oscillator mix;
#X floatatom 218 142 5 0 0 0 - - -;
#X obj 275 116 hsl 128 15 0 1 0 0 empty empty empty -2 -6 0 8 -262144
-1 -1 6400 1;
#N canvas 17 39 463 307 osc1 0;
#X obj 27 220 *~;
#X obj 105 221 *~;
#X obj 171 221 *~;
#X obj 32 282 outlet~;
#X obj 91 9 inlet;
#X obj 28 106 phasor~ 0;
#X obj 105 105 oscsq~ 0;
#X obj 170 106 osc~ 0;
#X obj 319 223 *~;
#X obj 319 106 noise~;
#X obj 28 180 *~ 2;
#X obj 28 199 -~ 1;
#X obj 249 106 tri~;
#X obj 248 221 *~;
#X obj 248 175 *~ 2;
#X obj 248 194 -~ 1;
#X obj 329 47 hradio 15 1 0 5 empty empty empty 0 -6 0 8 -262144 -1
-1 0;
#X floatatom 354 70 5 0 0 0 - - -;
#X msg 326 154 1;
#X msg 355 154 0;
#X obj 326 133 sel 4;
#X msg 256 153 1;
#X msg 285 153 0;
#X obj 256 132 sel 3;
#X msg 179 153 1;
#X msg 208 153 0;
#X obj 179 132 sel 2;
#X msg 112 154 1;
#X msg 141 154 0;
#X obj 112 133 sel 1;
#X msg 35 156 1;
#X msg 64 156 0;
#X obj 35 135 sel 0;
#X obj 290 187 bng 15 250 50 0 empty empty empty 0 -6 0 8 -262144 -1
-1;
#X obj 91 76 * 1;
#X text 97 28 freq;
#X obj 255 8 inlet;
#X obj 254 28 clip 0 4;
#X obj 333 6 loadbang;
#X msg 332 25 0;
#X connect 0 0 3 0;
#X connect 1 0 3 0;
#X connect 2 0 3 0;
#X connect 4 0 34 0;
#X connect 5 0 10 0;
#X connect 6 0 1 0;
#X connect 7 0 2 0;
#X connect 8 0 3 0;
#X connect 9 0 8 0;
#X connect 10 0 11 0;
#X connect 11 0 0 0;
#X connect 12 0 14 0;
#X connect 13 0 3 0;
#X connect 14 0 15 0;
#X connect 15 0 13 0;
#X connect 16 0 17 0;
#X connect 16 0 20 0;
#X connect 16 0 23 0;
#X connect 16 0 26 0;
#X connect 16 0 29 0;
#X connect 16 0 32 0;
#X connect 18 0 8 1;
#X connect 19 0 8 1;
#X connect 20 0 18 0;
#X connect 20 1 19 0;
#X connect 21 0 13 1;
#X connect 22 0 13 1;
#X connect 22 0 33 0;
#X connect 23 0 21 0;
#X connect 23 1 22 0;
#X connect 24 0 2 1;
#X connect 25 0 2 1;
#X connect 26 0 24 0;
#X connect 26 1 25 0;
#X connect 27 0 1 1;
#X connect 28 0 1 1;
#X connect 29 0 27 0;
#X connect 29 1 28 0;
#X connect 30 0 0 1;
#X connect 31 0 0 1;
#X connect 32 0 30 0;
#X connect 32 1 31 0;
#X connect 34 0 7 0;
#X connect 34 0 6 0;
#X connect 34 0 5 0;
#X connect 34 0 12 0;
#X connect 36 0 37 0;
#X connect 37 0 16 0;
#X connect 38 0 39 0;
#X connect 39 0 16 0;
#X restore 133 101 pd osc1;
#X floatatom 195 379 5 0 0 0 - - -;
#N canvas 17 39 463 307 osc1 1;
#X obj 27 220 *~;
#X obj 105 221 *~;
#X obj 171 221 *~;
#X obj 32 282 outlet~;
#X obj 91 9 inlet;
#X obj 28 106 phasor~ 0;
#X obj 105 105 oscsq~ 0;
#X obj 170 106 osc~ 0;
#X obj 319 223 *~;
#X obj 319 106 noise~;
#X obj 28 180 *~ 2;
#X obj 28 199 -~ 1;
#X obj 249 106 tri~;
#X obj 248 221 *~;
#X obj 248 175 *~ 2;
#X obj 248 194 -~ 1;
#X obj 329 47 hradio 15 1 0 5 empty empty empty 0 -6 0 8 -262144 -1
-1 1;
#X floatatom 354 70 5 0 0 0 - - -;
#X msg 326 154 1;
#X msg 355 154 0;
#X obj 326 133 sel 4;
#X msg 256 153 1;
#X msg 285 153 0;
#X obj 256 132 sel 3;
#X msg 179 153 1;
#X msg 208 153 0;
#X obj 179 132 sel 2;
#X msg 112 154 1;
#X msg 141 154 0;
#X obj 112 133 sel 1;
#X msg 35 156 1;
#X msg 64 156 0;
#X obj 35 135 sel 0;
#X obj 290 187 bng 15 250 50 0 empty empty empty 0 -6 0 8 -262144 -1
-1;
#X obj 91 76 * 1;
#X text 97 28 freq;
#X obj 255 8 inlet;
#X obj 254 28 clip 0 4;
#X obj 333 6 loadbang;
#X msg 332 25 0;
#X obj 171 22 inlet~;
#X connect 0 0 3 0;
#X connect 1 0 3 0;
#X connect 2 0 3 0;
#X connect 4 0 34 0;
#X connect 5 0 10 0;
#X connect 6 0 1 0;
#X connect 7 0 2 0;
#X connect 8 0 3 0;
#X connect 9 0 8 0;
#X connect 10 0 11 0;
#X connect 11 0 0 0;
#X connect 12 0 14 0;
#X connect 13 0 3 0;
#X connect 14 0 15 0;
#X connect 15 0 13 0;
#X connect 16 0 17 0;
#X connect 16 0 20 0;
#X connect 16 0 23 0;
#X connect 16 0 26 0;
#X connect 16 0 29 0;
#X connect 16 0 32 0;
#X connect 18 0 8 1;
#X connect 19 0 8 1;
#X connect 20 0 18 0;
#X connect 20 1 19 0;
#X connect 21 0 13 1;
#X connect 22 0 13 1;
#X connect 22 0 33 0;
#X connect 23 0 21 0;
#X connect 23 1 22 0;
#X connect 24 0 2 1;
#X connect 25 0 2 1;
#X connect 26 0 24 0;
#X connect 26 1 25 0;
#X connect 27 0 1 1;
#X connect 28 0 1 1;
#X connect 29 0 27 0;
#X connect 29 1 28 0;
#X connect 30 0 0 1;
#X connect 31 0 0 1;
#X connect 32 0 30 0;
#X connect 32 1 31 0;
#X connect 34 0 7 0;
#X connect 34 0 6 0;
#X connect 34 0 5 0;
#X connect 34 0 12 0;
#X connect 36 0 37 0;
#X connect 37 0 16 0;
#X connect 38 0 39 0;
#X connect 39 0 16 0;
#X connect 40 0 5 0;
#X connect 40 0 7 0;
#X restore 117 198 pd osc1;
#X floatatom 81 159 5 0 0 0 - - -;
#X connect 1 0 7 0;
#X connect 1 0 12 0;
#X connect 2 0 3 0;
#X connect 3 0 4 1;
#X connect 4 0 5 0;
#X connect 5 0 0 0;
#X connect 5 0 0 1;
#X connect 6 0 5 1;
#X connect 6 0 13 0;
#X connect 7 0 8 0;
#X connect 7 0 14 1;
#X connect 10 0 8 1;
#X connect 11 0 10 0;
#X connect 14 0 4 0;
#X connect 15 0 14 0;
