#N struct pie float x float y float perc;
#N canvas 626 479 573 422 10;
#N canvas 811 215 445 191 pie 1;
#X scalar pie 0 0 1 \;;
#X scalar pie 0 0 2 \;;
#X scalar pie 0 0 3 \;;
#X scalar pie 0 0 4 \;;
#X scalar pie 0 0 5 \;;
#X scalar pie 0 0 6 \;;
#X scalar pie 0 0 7 \;;
#X scalar pie 0 0 8 \;;
#X scalar pie 0 0 9 \;;
#X scalar pie 0 0 10 \;;
#X scalar pie 0 0 11 \;;
#X scalar pie 0 0 12 \;;
#X scalar pie 0 0 13 \;;
#X scalar pie 0 0 14 \;;
#X scalar pie 0 0 15 \;;
#X scalar pie 0 0 16 \;;
#X scalar pie 0 0 17 \;;
#X scalar pie 0 0 18 \;;
#X scalar pie 0 0 19 \;;
#X scalar pie 0 0 20 \;;
#X scalar pie 0 0 21 \;;
#X scalar pie 0 0 22 \;;
#X scalar pie 0 0 23 \;;
#X scalar pie 0 0 24 \;;
#X scalar pie 0 0 25 \;;
#X scalar pie 0 0 26 \;;
#X scalar pie 0 0 27 \;;
#X scalar pie 0 0 28 \;;
#X scalar pie 0 0 29 \;;
#X scalar pie 0 0 30 \;;
#X scalar pie 0 0 31 \;;
#X scalar pie 0 0 32 \;;
#X scalar pie 0 0 33 \;;
#X scalar pie 0 0 34 \;;
#X scalar pie 0 0 35 \;;
#X scalar pie 0 0 1 \;;
#X scalar pie 0 0 2 \;;
#X scalar pie 0 0 3 \;;
#X scalar pie 0 0 4 \;;
#X scalar pie 0 0 5 \;;
#X scalar pie 0 0 6 \;;
#X scalar pie 0 0 7 \;;
#X scalar pie 0 0 8 \;;
#X scalar pie 0 0 9 \;;
#X scalar pie 0 0 10 \;;
#X scalar pie 0 0 11 \;;
#X scalar pie 0 0 12 \;;
#X scalar pie 0 0 11 \;;
#X scalar pie 0 0 10 \;;
#X scalar pie 0 0 9 \;;
#X scalar pie 0 0 10 \;;
#X scalar pie 0 0 11 \;;
#X scalar pie 0 0 12 \;;
#X scalar pie 0 0 13 \;;
#X scalar pie 0 0 14 \;;
#X scalar pie 0 0 15 \;;
#X obj 54 5 struct pie float x float y float perc;
#X obj 55 31 filledpolygon 977 644 1 0 0 0 perc perc perc perc 0;
#X obj 55 143 drawnumber perc 3 3 445;
#X obj 31 65 drawcurve 842 1 perc(0:100)(0:100) 0 perc(0:100)(0:71)
perc(0:100)(0:71) 0;
#X restore 36 96 pd pie;
#X obj 330 161 pointer;
#X floatatom 250 146 5 0 0 0 - - -;
#N canvas 668 31 450 300 pie-data 1;
#X scalar pie 10 10 86 \;;
#X restore 36 67 pd pie-data;
#X msg 400 51 \; pd-pie-data clear;
#X msg 342 130 next;
#X floatatom 355 264 5 0 0 0 - - -;
#X obj 371 213 print;
#X msg 396 134 bang;
#X obj 418 199 print eolist;
#X msg 245 5 bang;
#X msg 164 81 10 10 150;
#X obj 324 188 t p p p;
#X msg 339 98 traverse pd-pie-data;
#X obj 244 30 t b b b b b;
#X obj 162 106 append pie x y perc;
#X obj 354 238 get pie perc;
#X obj 238 209 set pie perc;
#X connect 1 0 12 0;
#X connect 1 0 15 3;
#X connect 1 1 9 0;
#X connect 2 0 17 0;
#X connect 5 0 1 0;
#X connect 8 0 1 0;
#X connect 10 0 14 0;
#X connect 11 0 15 0;
#X connect 12 0 17 1;
#X connect 12 1 16 0;
#X connect 12 2 7 0;
#X connect 13 0 1 0;
#X connect 14 0 5 0;
#X connect 14 1 11 0;
#X connect 14 2 1 0;
#X connect 14 3 13 0;
#X connect 14 4 4 0;
#X connect 16 0 6 0;
