#N canvas 343 97 836 610 10;
#X obj 176 359 dac~;
#X obj 225 334 hsl 128 15 0 1 0 0 empty empty empty -2 -6 0 8 -262144
-1 -1 4400 1;
#X obj 180 333 *~;
#X obj 143 34 bng 15 250 50 0 empty empty empty 0 -6 0 8 -262144 -1
-1;
#X obj 147 197 osc~;
#X floatatom 146 96 5 0 0 0 - - -;
#X msg 237 128 0;
#X obj 211 86 delay 200;
#X obj 89 120 pack 0 0;
#X msg 88 141 \$2;
#X floatatom 254 58 5 0 0 0 - - -;
#X obj 350 225 delread~ dl 1000;
#X obj 298 304 delwrite~ dl 2000;
#X floatatom 353 193 5 0 0 0 - - -;
#X floatatom 53 409 5 0 0 0 - - -;
#X obj 230 276 *~ 0.8;
#X floatatom 164 152 5 0 0 0 - - -;
#X obj 54 361 snapshot~;
#X obj 22 274 bng 15 250 50 0 empty empty empty 0 -6 0 8 -262144 -1
-1;
#X obj 116 283 hip~ 5;
#X obj 22 309 metro 250;
#X obj 368 100 noise~;
#X msg 431 98 0;
#X obj 405 56 delay 200;
#X floatatom 448 28 5 0 0 0 - - -;
#X obj 377 151 sig~;
#X obj 341 157 *~;
#X floatatom 389 129 5 0 0 0 - - -;
#X floatatom 285 276 5 0 1 0 - - -;
#X obj 332 274 hsl 128 15 0 1 0 0 empty empty empty -2 -6 0 8 -262144
-1 -1 12700 1;
#X connect 1 0 2 1;
#X connect 2 0 0 0;
#X connect 2 0 0 1;
#X connect 3 0 8 0;
#X connect 3 0 7 0;
#X connect 4 0 19 0;
#X connect 5 0 8 1;
#X connect 6 0 16 0;
#X connect 7 0 6 0;
#X connect 8 0 9 0;
#X connect 9 0 4 0;
#X connect 10 0 7 1;
#X connect 11 0 19 0;
#X connect 13 0 11 0;
#X connect 15 0 12 0;
#X connect 16 0 4 0;
#X connect 17 0 14 0;
#X connect 18 0 20 0;
#X connect 19 0 17 0;
#X connect 19 0 2 0;
#X connect 19 0 15 0;
#X connect 20 0 17 0;
#X connect 21 0 26 0;
#X connect 23 0 22 0;
#X connect 24 0 23 1;
#X connect 25 0 26 1;
#X connect 26 0 19 0;
#X connect 27 0 25 0;
#X connect 28 0 15 1;
#X connect 29 0 28 0;
