#N canvas 21 44 521 525 10;
#X obj 25 378 mout~;
#X obj 27 16 adc~;
#X obj 143 191 hsl 250 15 0 1 0 0 empty empty empty -2 -6 0 8 -261681
-1 -1 0 1;
#X floatatom 151 221 5 0 0 0 - - -;
#X obj 95 128 hsl 250 15 25 1500 0 0 empty empty empty -2 -6 0 8 -228992
-1 -1 0 1;
#X floatatom 102 150 5 0 0 0 - - -;
#N canvas 552 128 687 513 dline2work 0;
#X obj 26 24 inlet~;
#X obj 69 306 delread~ \$0_dl 50;
#X obj 26 486 outlet~;
#X obj 26 370 hip~ 5;
#X floatatom 172 48 5 0 1 0 - - -;
#X obj 60 424 *~ 0.5;
#X obj 105 25 inlet;
#X obj 166 24 inlet;
#X obj 27 395 /~ 2;
#X text 28 8 audio;
#X text 90 9 delay(ms);
#X text 168 10 feedback;
#X obj 61 447 delwrite~ \$0_dl 60000;
#X obj 250 307 delread~ \$0_dl 50;
#X floatatom 115 48 5 0 0 0 - - -;
#X obj 227 102 toggler;
#X obj 197 80 t f b;
#X obj 227 123 moses 1;
#X obj 197 189 spigot;
#X obj 250 189 spigot;
#X msg 223 158 0;
#X msg 253 158 1;
#X msg 287 157 0;
#X msg 317 157 1;
#X floatatom 200 212 5 0 0 0 - - -;
#X floatatom 257 215 5 0 0 0 - - -;
#X obj 166 275 delay;
#X obj 151 241 t b f f;
#X connect 0 0 3 0;
#X connect 1 0 3 0;
#X connect 3 0 8 0;
#X connect 3 0 5 0;
#X connect 5 0 12 0;
#X connect 6 0 14 0;
#X connect 6 0 16 0;
#X connect 7 0 4 0;
#X connect 7 0 5 1;
#X connect 8 0 2 0;
#X connect 15 0 17 0;
#X connect 16 0 18 0;
#X connect 16 0 19 0;
#X connect 16 1 15 0;
#X connect 17 0 21 0;
#X connect 17 0 22 0;
#X connect 17 1 20 0;
#X connect 17 1 23 0;
#X connect 18 0 24 0;
#X connect 18 0 27 0;
#X connect 19 0 13 0;
#X connect 19 0 25 0;
#X connect 20 0 18 1;
#X connect 21 0 18 1;
#X connect 22 0 19 1;
#X connect 23 0 19 1;
#X connect 27 0 26 0;
#X connect 27 1 26 1;
#X connect 27 2 1 0;
#X restore 26 198 pd dline2work;
#X obj 109 20 loadbang;
#X obj 171 19 bng 15 250 50 0 empty empty empty 0 -6 0 8 -262144 -1
-1;
#X obj 39 99 *~;
#X obj 39 50 osc~ 220;
#X obj 113 42 metro 500;
#X obj 113 84 adsr~ 20 0.8 20 20 20;
#X msg 194 17 stop;
#X msg 192 60 bang;
#N canvas 608 208 491 509 dline2work_with_vd 1;
#X obj 25 481 outlet~;
#X obj 25 365 hip~ 5;
#X obj 59 419 *~ 0.5;
#X obj 26 390 /~ 2;
#X obj 16 23 inlet~;
#X floatatom 162 47 5 0 1 0 - - -;
#X obj 95 24 inlet;
#X obj 156 23 inlet;
#X text 18 7 audio;
#X text 80 8 delay(ms);
#X text 158 9 feedback;
#X floatatom 105 47 5 0 0 0 - - -;
#X obj 60 442 delwrite~ \$0_dlx 60000;
#X obj 72 233 vd~ \$0_dlx 50;
#X obj 70 202 sig~;
#X obj 177 232 vd~ \$0_dlx 50;
#X obj 177 208 sig~;
#X obj 299 334 hsl 128 15 0 100 0 0 empty empty empty -2 -8 0 10 -262144
-1 -1 0 1;
#X floatatom 300 364 5 0 0 0 - - -;
#X obj 130 309 wetdry2~;
#X obj 342 251 vline~;
#N canvas 141 130 450 300 alterno 0;
#X obj 70 20 inlet;
#X text 113 18 number;
#X obj 54 267 outlet;
#X obj 124 267 outlet;
#X obj 54 246 spigot;
#X obj 124 245 spigot;
#X obj 182 117 select 0;
#X obj 75 48 t f f b;
#X obj 198 79 f;
#X obj 235 35 loadbang;
#X obj 234 56 0;
#X obj 172 140 t b b b;
#X obj 236 142 t b b b;
#X obj 162 189 1;
#X obj 190 189 0;
#X obj 247 189 1;
#X obj 275 189 0;
#X floatatom 261 104 5 0 0 0 - - -;
#X obj 212 165 1;
#X obj 282 165 0;
#X connect 0 0 7 0;
#X connect 4 0 2 0;
#X connect 5 0 3 0;
#X connect 6 0 11 0;
#X connect 6 1 12 0;
#X connect 7 0 4 0;
#X connect 7 1 5 0;
#X connect 7 2 8 0;
#X connect 8 0 6 0;
#X connect 8 0 17 0;
#X connect 9 0 10 0;
#X connect 10 0 8 1;
#X connect 11 0 13 0;
#X connect 11 1 14 0;
#X connect 11 2 18 0;
#X connect 12 0 15 0;
#X connect 12 1 16 0;
#X connect 12 2 19 0;
#X connect 13 0 4 1;
#X connect 14 0 5 1;
#X connect 15 0 5 1;
#X connect 16 0 4 1;
#X connect 18 0 8 1;
#X connect 19 0 8 1;
#X restore 262 74 pd alterno;
#X floatatom 262 102 5 0 0 0 - - -;
#X floatatom 326 103 5 0 0 0 - - -;
#X obj 210 124 t b f f;
#X obj 312 123 t f f f;
#X obj 278 169 delay;
#X obj 341 170 delay;
#X msg 291 204 0 \$0;
#X msg 340 205 100 \$0;
#X obj 260 195 tgl 15 0 empty empty empty 17 7 0 10 -262144 -1 -1 0
1;
#X obj 407 191 tgl 15 0 empty empty empty 17 7 0 10 -262144 -1 -1 1
1;
#N canvas 0 0 455 484 delays_mix 0;
#X obj 56 351 vd~ \$0_dlx 50;
#X obj 169 353 vd~ \$0_dlx 50;
#X obj 124 392 wetdry2~;
#X obj 124 428 outlet~;
#X obj 320 53 inlet;
#X obj 180 44 inlet;
#X text 330 75 mix;
#X obj 169 311 vline~;
#X msg 169 266 \$0 25;
#X obj 54 305 vline~;
#X msg 54 260 \$0 25;
#X obj 74 44 inlet;
#X connect 0 0 2 0;
#X connect 1 0 2 1;
#X connect 2 0 3 0;
#X connect 5 0 8 0;
#X connect 7 0 1 0;
#X connect 8 0 7 0;
#X connect 9 0 0 0;
#X connect 10 0 9 0;
#X connect 11 0 10 0;
#X restore 163 360 pd delays_mix;
#X connect 1 0 3 0;
#X connect 1 0 2 0;
#X connect 2 0 12 0;
#X connect 3 0 0 0;
#X connect 4 0 1 0;
#X connect 6 0 11 0;
#X connect 6 0 21 0;
#X connect 7 0 5 0;
#X connect 7 0 2 1;
#X connect 13 0 19 0;
#X connect 14 0 13 0;
#X connect 15 0 19 1;
#X connect 16 0 15 0;
#X connect 17 0 18 0;
#X connect 19 0 1 0;
#X connect 20 0 19 2;
#X connect 21 0 22 0;
#X connect 21 0 24 0;
#X connect 21 1 23 0;
#X connect 21 1 25 0;
#X connect 24 0 27 0;
#X connect 24 1 27 1;
#X connect 24 2 16 0;
#X connect 25 0 26 0;
#X connect 25 1 26 1;
#X connect 25 2 14 0;
#X connect 26 0 28 0;
#X connect 26 0 30 0;
#X connect 27 0 29 0;
#X connect 27 0 31 0;
#X connect 28 0 20 0;
#X connect 29 0 20 0;
#X restore 220 306 pd dline2work_with_vd;
#X obj 254 236 hsl 250 15 25 1500 0 0 empty empty empty -2 -6 0 8 -228992
-1 -1 3600 1;
#X floatatom 261 258 5 0 0 0 - - -;
#X obj 319 256 hsl 250 15 0 1 0 0 empty empty empty -2 -6 0 8 -261681
-1 -1 22100 1;
#X floatatom 338 277 5 0 0 0 - - -;
#X msg 425 203 150;
#X msg 467 203 950;
#X obj 32 332 *~;
#X obj 59 309 tgl 15 0 empty empty empty 17 7 0 10 -262144 -1 -1 0
1;
#X obj 118 333 *~;
#X obj 145 310 tgl 15 0 empty empty empty 17 7 0 10 -262144 -1 -1 0
1;
#X obj 270 478 *~;
#X obj 297 455 tgl 15 0 empty empty empty 17 7 0 10 -262144 -1 -1 1
1;
#N canvas 726 11 450 530 andmore 1;
#X obj 26 15 inlet~;
#X obj 25 481 outlet~;
#X obj 25 365 hip~ 5;
#X obj 59 419 *~ 0.5;
#X obj 26 390 /~ 2;
#X obj 60 442 delwrite~ \$0_dlxa 60000;
#X obj 91 268 vline~;
#X obj 106 19 inlet;
#X obj 200 19 inlet;
#X floatatom 111 49 5 0 0 0 - - -;
#X obj 91 306 vd~ \$0_dlxa 50;
#X msg 105 234 \$1 525;
#X text 123 214 what's a good number here?;
#X text 152 88 this is nice \, but transposes/doppler;
#X connect 0 0 2 0;
#X connect 2 0 4 0;
#X connect 2 0 3 0;
#X connect 3 0 5 0;
#X connect 4 0 1 0;
#X connect 6 0 10 0;
#X connect 7 0 9 0;
#X connect 7 0 11 0;
#X connect 8 0 3 1;
#X connect 10 0 2 0;
#X connect 11 0 6 0;
#X restore 244 417 pd andmore;
#X obj 245 352 hsl 250 15 25 1500 0 0 empty empty empty -2 -6 0 8 -228992
-1 -1 19915 1;
#X floatatom 252 374 5 0 0 0 - - -;
#X obj 310 372 hsl 250 15 0 1 0 0 empty empty empty -2 -6 0 8 -261681
-1 -1 22900 1;
#X floatatom 329 393 5 0 0 0 - - -;
#X msg 406 321 150;
#X msg 448 321 950;
#X connect 1 0 6 0;
#X connect 2 0 3 0;
#X connect 2 0 6 2;
#X connect 4 0 5 0;
#X connect 4 0 6 1;
#X connect 6 0 22 0;
#X connect 7 0 11 0;
#X connect 8 0 11 0;
#X connect 9 0 6 0;
#X connect 9 0 15 0;
#X connect 9 0 28 0;
#X connect 10 0 9 0;
#X connect 11 0 12 0;
#X connect 12 0 9 1;
#X connect 13 0 11 0;
#X connect 14 0 12 0;
#X connect 15 0 24 0;
#X connect 16 0 17 0;
#X connect 16 0 15 1;
#X connect 18 0 19 0;
#X connect 18 0 15 2;
#X connect 20 0 16 0;
#X connect 21 0 16 0;
#X connect 22 0 0 0;
#X connect 23 0 22 1;
#X connect 24 0 0 0;
#X connect 25 0 24 1;
#X connect 26 0 0 0;
#X connect 27 0 26 1;
#X connect 28 0 26 0;
#X connect 29 0 30 0;
#X connect 29 0 28 1;
#X connect 31 0 32 0;
#X connect 31 0 28 2;
#X connect 33 0 29 0;
#X connect 34 0 29 0;
