#N canvas 13 41 482 579 10;
#X obj 45 400 mout~;
#X obj 82 92 adsr~ 25 0.8 25 25 25;
#X msg 113 10 bang;
#X obj 13 93 osc~ 440;
#X obj 41 140 *~;
#X obj 48 373 dline~ 300 0.8;
#X floatatom 106 315 5 0 0 0 - - -;
#X obj 97 295 hsl 200 15 0 500 0 0 empty empty empty -2 -8 0 10 -262144
-1 -1 8398 1;
#X obj 131 36 t b b b;
#X msg 262 124 300;
#X obj 325 163 line;
#X obj 311 65 delay 1000;
#X obj 305 92 t b b;
#X msg 371 133 300;
#X floatatom 334 192 5 0 0 0 - - -;
#X msg 300 135 211 250;
#X connect 1 0 4 1;
#X connect 2 0 8 0;
#X connect 3 0 4 0;
#X connect 4 0 5 0;
#X connect 5 0 0 0;
#X connect 7 0 6 0;
#X connect 7 0 5 1;
#X connect 8 0 1 0;
#X connect 8 1 9 0;
#X connect 8 2 11 0;
#X connect 9 0 7 0;
#X connect 10 0 14 0;
#X connect 10 0 7 0;
#X connect 11 0 12 0;
#X connect 12 0 15 0;
#X connect 12 1 13 0;
#X connect 13 0 10 0;
#X connect 15 0 10 0;
