#N canvas 130 14 556 411 10;
#X obj 74 265 sout~;
#X obj 57 98 metro 1000;
#X obj 58 55 loadbang;
#X obj 67 77 bng 15 250 50 0 empty empty empty 17 7 0 10 -262144 -1
-1;
#X obj 74 237 *~;
#N canvas 0 0 450 300 enveloper 0;
#X obj 225 249 outlet~;
#X obj 154 11 inlet;
#X msg 154 33 bang;
#X obj 227 207 line~;
#X msg 226 170 1 \$0;
#X msg 271 171 0 \$0;
#X obj 227 142 f;
#X obj 270 141 f;
#X obj 158 55 t b b;
#X obj 156 92 delay;
#X floatatom 256 62 5 0 0 0 - - -;
#X text 153 110 freq;
#X text 295 62 length;
#X obj 259 20 loadbang 50;
#X obj 205 12 inlet;
#X obj 20 27 hsl 110 15 5 250 0 0 empty empty empty -2 -8 0 10 -262144
-1 -1 900 1;
#X connect 1 0 2 0;
#X connect 2 0 8 0;
#X connect 3 0 0 0;
#X connect 4 0 3 0;
#X connect 5 0 3 0;
#X connect 6 0 4 0;
#X connect 7 0 5 0;
#X connect 8 0 9 0;
#X connect 8 1 6 0;
#X connect 9 0 7 0;
#X connect 10 0 6 1;
#X connect 10 0 7 1;
#X connect 10 0 9 1;
#X connect 13 0 10 0;
#X connect 14 0 10 0;
#X connect 15 0 10 0;
#X coords 0 -1 1 1 130 60 1 10 10;
#X restore 59 143 pd enveloper;
#N canvas 628 40 450 300 sounder 0;
#X obj 69 11 inlet;
#X obj 138 264 outlet~;
#X obj 209 137 noise~;
#X obj 208 177 lop~ 80 5;
#X floatatom 141 119 5 0 0 0 - - -;
#X floatatom 227 203 5 0 0 0 - - -;
#X obj 199 226 *~ 6;
#X obj 139 140 osc~ 125;
#X connect 2 0 3 0;
#X connect 3 0 6 0;
#X connect 4 0 7 0;
#X connect 5 0 6 1;
#X connect 6 0 1 0;
#X connect 7 0 1 0;
#X restore 213 191 pd sounder;
#X floatatom 135 76 5 0 0 0 - - -;
#X obj 138 44 hsl 128 15 0 1000 0 0 empty empty empty -2 -8 0 10 -261234
-1 -1 5200 1;
#X connect 1 0 5 0;
#X connect 2 0 1 0;
#X connect 3 0 1 0;
#X connect 4 0 0 0;
#X connect 4 0 0 1;
#X connect 5 0 4 0;
#X connect 6 0 4 1;
#X connect 7 0 1 1;
#X connect 8 0 7 0;
