#N canvas 98 67 466 536 10;
#X obj 65 381 sout~;
#X obj 132 313 loadbang;
#X obj 132 337 1;
#N canvas 488 235 627 569 left 0;
#X obj 69 516 outlet~;
#X obj 27 192 osc~ 40;
#X obj 136 191 oscsq~ 40;
#N canvas 0 0 549 300 selektor 0;
#X obj 31 18 inlet~;
#X obj 120 21 inlet~;
#X obj 223 17 inlet~;
#X obj 214 269 outlet~;
#X obj 379 14 inlet;
#X obj 53 218 *~;
#X obj 148 220 *~;
#X obj 240 218 *~;
#X floatatom 91 211 5 0 0 0 - - -;
#X floatatom 185 218 5 0 0 0 - - -;
#X floatatom 285 211 5 0 0 0 - - -;
#X obj 381 67 t f f f f;
#X obj 61 150 select 0;
#X obj 381 43 clip 0 3;
#X obj 341 220 *~;
#X floatatom 383 215 5 0 0 0 - - -;
#X obj 149 148 select 1;
#X obj 250 145 select 2;
#X obj 351 146 select 3;
#X msg 60 178 1;
#X msg 150 176 1;
#X msg 256 179 1;
#X msg 357 181 1;
#X msg 91 178 0;
#X msg 181 176 0;
#X msg 287 179 0;
#X msg 388 181 0;
#X obj 299 19 inlet~;
#X connect 0 0 5 0;
#X connect 1 0 6 0;
#X connect 2 0 7 0;
#X connect 4 0 13 0;
#X connect 5 0 3 0;
#X connect 6 0 3 0;
#X connect 7 0 3 0;
#X connect 11 0 12 0;
#X connect 11 1 16 0;
#X connect 11 2 17 0;
#X connect 11 3 18 0;
#X connect 12 0 19 0;
#X connect 12 1 23 0;
#X connect 13 0 11 0;
#X connect 14 0 3 0;
#X connect 16 0 20 0;
#X connect 16 1 24 0;
#X connect 17 0 21 0;
#X connect 17 1 25 0;
#X connect 18 0 22 0;
#X connect 18 1 26 0;
#X connect 19 0 5 1;
#X connect 19 0 8 0;
#X connect 20 0 6 1;
#X connect 20 0 9 0;
#X connect 21 0 7 1;
#X connect 21 0 10 0;
#X connect 22 0 14 1;
#X connect 22 0 15 0;
#X connect 23 0 5 1;
#X connect 23 0 8 0;
#X connect 24 0 6 1;
#X connect 24 0 9 0;
#X connect 25 0 7 1;
#X connect 25 0 10 0;
#X connect 26 0 14 1;
#X connect 26 0 15 0;
#X connect 27 0 14 0;
#X restore 69 361 pd selektor;
#X floatatom 207 310 5 0 3 0 - - -;
#X floatatom 58 61 5 0 0 0 - - -;
#X obj 89 191 tri~;
#X obj 88 214 *~ 2;
#X obj 88 243 -~ 1;
#X obj 57 26 nrpn_in 80;
#X text 211 326 select;
#X floatatom 146 74 5 0 0 0 - - -;
#X obj 140 27 ctlin 88;
#X obj 138 51 range 0 100 0 1;
#X obj 92 112 ++;
#X floatatom 131 140 5 0 0 0 - - -;
#X obj 187 262 ctlin 0;
#X obj 68 474 *~;
#X obj 115 404 ctlin 96;
#X obj 116 429 range 0 100 0 1;
#X floatatom 121 465 5 0 0 0 - - -;
#X obj 277 25 inlet~;
#X connect 1 0 3 0;
#X connect 2 0 3 2;
#X connect 3 0 17 0;
#X connect 6 0 7 0;
#X connect 7 0 8 0;
#X connect 8 0 3 1;
#X connect 9 0 5 0;
#X connect 9 0 14 0;
#X connect 12 0 13 0;
#X connect 13 0 11 0;
#X connect 13 0 14 1;
#X connect 14 0 1 0;
#X connect 14 0 6 0;
#X connect 14 0 2 0;
#X connect 14 0 15 0;
#X connect 16 0 3 4;
#X connect 16 0 4 0;
#X connect 17 0 0 0;
#X connect 18 0 19 0;
#X connect 19 0 17 1;
#X connect 19 0 20 0;
#X connect 21 0 3 3;
#X restore 64 117 pd left;
#X obj 163 337 ctlin 103;
#X obj 164 357 range 0 50 0 1;
#X obj 65 37 adc~;
#N canvas 660 130 418 560 right 0;
#X obj 69 516 outlet~;
#X obj 27 192 osc~ 40;
#X obj 136 191 oscsq~ 40;
#N canvas 0 0 549 300 selektor 0;
#X obj 31 18 inlet~;
#X obj 120 21 inlet~;
#X obj 223 17 inlet~;
#X obj 214 269 outlet~;
#X obj 379 14 inlet;
#X obj 53 218 *~;
#X obj 148 220 *~;
#X obj 240 218 *~;
#X floatatom 91 211 5 0 0 0 - - -;
#X floatatom 185 218 5 0 0 0 - - -;
#X floatatom 285 211 5 0 0 0 - - -;
#X obj 381 67 t f f f f;
#X obj 61 150 select 0;
#X obj 381 43 clip 0 3;
#X obj 341 220 *~;
#X floatatom 383 215 5 0 0 0 - - -;
#X obj 149 148 select 1;
#X obj 250 145 select 2;
#X obj 351 146 select 3;
#X msg 60 178 1;
#X msg 150 176 1;
#X msg 256 179 1;
#X msg 357 181 1;
#X msg 91 178 0;
#X msg 181 176 0;
#X msg 287 179 0;
#X msg 388 181 0;
#X obj 299 19 inlet~;
#X connect 0 0 5 0;
#X connect 1 0 6 0;
#X connect 2 0 7 0;
#X connect 4 0 13 0;
#X connect 5 0 3 0;
#X connect 6 0 3 0;
#X connect 7 0 3 0;
#X connect 11 0 12 0;
#X connect 11 1 16 0;
#X connect 11 2 17 0;
#X connect 11 3 18 0;
#X connect 12 0 19 0;
#X connect 12 1 23 0;
#X connect 13 0 11 0;
#X connect 14 0 3 0;
#X connect 16 0 20 0;
#X connect 16 1 24 0;
#X connect 17 0 21 0;
#X connect 17 1 25 0;
#X connect 18 0 22 0;
#X connect 18 1 26 0;
#X connect 19 0 5 1;
#X connect 19 0 8 0;
#X connect 20 0 6 1;
#X connect 20 0 9 0;
#X connect 21 0 7 1;
#X connect 21 0 10 0;
#X connect 22 0 14 1;
#X connect 22 0 15 0;
#X connect 23 0 5 1;
#X connect 23 0 8 0;
#X connect 24 0 6 1;
#X connect 24 0 9 0;
#X connect 25 0 7 1;
#X connect 25 0 10 0;
#X connect 26 0 14 1;
#X connect 26 0 15 0;
#X connect 27 0 14 0;
#X restore 69 361 pd selektor;
#X floatatom 212 311 5 0 3 0 - - -;
#X floatatom 58 61 5 0 0 0 - - -;
#X obj 89 191 tri~;
#X obj 88 214 *~ 2;
#X obj 88 243 -~ 1;
#X text 216 327 select;
#X floatatom 146 74 5 0 0 0 - - -;
#X obj 138 51 range 0 100 0 1;
#X obj 92 112 ++;
#X floatatom 131 140 5 0 0 0 - - -;
#X obj 68 474 *~;
#X obj 116 429 range 0 100 0 1;
#X floatatom 121 465 5 0 0 0 - - -;
#X obj 340 24 inlet;
#X obj 192 263 ctlin 4;
#X obj 58 26 nrpn_in 84;
#X obj 140 27 ctlin 92;
#X obj 115 404 ctlin 100;
#X connect 1 0 3 0;
#X connect 2 0 3 2;
#X connect 3 0 14 0;
#X connect 6 0 7 0;
#X connect 7 0 8 0;
#X connect 8 0 3 1;
#X connect 11 0 10 0;
#X connect 11 0 12 1;
#X connect 12 0 1 0;
#X connect 12 0 6 0;
#X connect 12 0 2 0;
#X connect 12 0 13 0;
#X connect 14 0 0 0;
#X connect 15 0 14 1;
#X connect 15 0 16 0;
#X connect 18 0 3 4;
#X connect 18 0 4 0;
#X connect 19 0 5 0;
#X connect 19 0 12 0;
#X connect 20 0 11 0;
#X connect 21 0 15 0;
#X restore 161 119 pd right;
#N canvas 392 65 395 368 munger 0;
#X obj 50 14 inlet~;
#X obj 52 326 outlet~;
#X obj 84 219 dline~ 15000 0.9;
#X obj 50 295 wetdry~;
#X obj 49 84 *~ 1;
#X obj 104 41 ctlin 1;
#X floatatom 106 86 5 0 0 0 - - -;
#X floatatom 135 295 5 0 0 0 - - -;
#X obj 103 62 range 0 127 0 25;
#X floatatom 142 161 5 0 0 0 - - -;
#X floatatom 277 207 5 0 0 0 - - -;
#X obj 126 270 ctlin 89;
#X obj 118 111 nrpn_in 89;
#X obj 130 134 range 0 1000 25 20000;
#X obj 239 161 ctlin 90;
#X obj 240 184 range 0 100 0 1;
#X text 128 252 wetdry;
#X text 303 159 feedback;
#X text 193 107 delay time;
#X text 165 36 input gain;
#X connect 0 0 4 0;
#X connect 2 0 3 1;
#X connect 3 0 1 0;
#X connect 4 0 2 0;
#X connect 4 0 3 0;
#X connect 5 0 8 0;
#X connect 8 0 4 1;
#X connect 8 0 6 0;
#X connect 11 0 3 2;
#X connect 11 0 7 0;
#X connect 12 0 13 0;
#X connect 13 0 9 0;
#X connect 13 0 2 1;
#X connect 14 0 15 0;
#X connect 15 0 10 0;
#X connect 15 0 2 2;
#X restore 63 75 pd munger;
#X connect 1 0 2 0;
#X connect 2 0 0 2;
#X connect 3 0 0 0;
#X connect 4 0 5 0;
#X connect 5 0 0 2;
#X connect 6 0 8 0;
#X connect 7 0 0 1;
#X connect 8 0 3 0;
