#N canvas 14 7 909 694 10;
#X obj 325 637 dac~;
#X obj 318 432 *~;
#X obj 388 431 hsl 128 15 0 1 0 0 empty empty empty -2 -6 0 8 -262144
-1 -1 2900 1;
#X obj 352 431 *~;
#X obj 288 189 osc~;
#X obj 326 189 osc~;
#X obj 397 233 osc~;
#X obj 440 234 osc~;
#X obj 219 190 osc~ 120;
#X obj 277 46 hsl 128 15 20 120 0 0 empty empty empty -2 -6 0 8 -262144
-1 -1 5200 1;
#X obj 264 148 + 30;
#X obj 301 149 - 30;
#X obj 399 151 oscsq~;
#X obj 391 203 /~ 4;
#X floatatom 196 80 5 0 0 0 - - -;
#X floatatom 468 95 5 0 0 0 - - -;
#X obj 420 92 * 5;
#X floatatom 455 204 5 0 0 0 - - -;
#X msg 548 62 1;
#X floatatom 578 120 5 0 0 0 - - -;
#X obj 540 90 metro 500;
#X msg 817 11 1;
#X obj 859 11 bng 15 250 50 0 empty empty empty 0 -6 0 8 -262144 -1
-1;
#X msg 525 145 1;
#X obj 450 184 line 0 500;
#X obj 827 125 pack 0 500;
#X obj 820 166 line 0 500;
#X floatatom 817 204 5 0 0 0 - - -;
#X obj 817 53 metro 500;
#X obj 844 86 50;
#X obj 595 238 osc~ 0.5;
#X obj 594 337 snapshot~;
#X floatatom 594 364 5 0 0 0 - - -;
#X obj 596 278 *~ 40;
#X obj 597 311 +~;
#X obj 714 281 bng 15 250 50 0 empty empty empty 0 -6 0 8 -262144 -1
-1;
#X obj 511 330 osc~;
#X text 383 444 volume;
#X obj 325 233 osc~ 0.6;
#X obj 309 293 *~;
#X obj 325 261 +~;
#X obj 130 343 noise~;
#X obj 144 383 bp~ 500 15;
#X obj 193 337 * 7;
#X obj 254 509 panning~;
#X obj 385 510 panning~;
#X obj 437 491 hsl 128 15 -1 1 0 0 empty empty empty -2 -6 0 8 -262144
-1 -1 4600 1;
#X obj 119 475 hsl 128 15 -1 1 0 0 empty empty empty -2 -6 0 8 -262144
-1 -1 8943 1;
#X obj 271 600 hip~ 20;
#X obj 393 612 hip~ 20;
#X obj 714 310 metro 25;
#X obj 37 364 metro 100;
#X obj 55 448 snapshot~;
#X obj 40 328 bng 15 250 50 0 empty empty empty 0 -6 0 8 -262144 -1
-1;
#X floatatom 56 499 5 0 0 0 - - -;
#X obj 64 390 osc~ 0.1;
#X obj 61 420 *~ 0.5;
#X connect 1 0 44 0;
#X connect 2 0 3 1;
#X connect 2 0 1 1;
#X connect 3 0 45 0;
#X connect 4 0 39 0;
#X connect 5 0 3 0;
#X connect 6 0 3 0;
#X connect 8 0 1 0;
#X connect 9 0 8 0;
#X connect 9 0 10 0;
#X connect 9 0 11 0;
#X connect 9 0 12 0;
#X connect 9 0 14 0;
#X connect 9 0 16 0;
#X connect 9 0 34 1;
#X connect 10 0 4 0;
#X connect 11 0 5 0;
#X connect 12 0 13 0;
#X connect 13 0 6 0;
#X connect 14 0 43 0;
#X connect 15 0 24 1;
#X connect 16 0 15 0;
#X connect 18 0 20 0;
#X connect 20 0 19 0;
#X connect 20 0 23 0;
#X connect 21 0 28 0;
#X connect 22 0 28 0;
#X connect 23 0 24 0;
#X connect 24 0 7 0;
#X connect 24 0 17 0;
#X connect 25 0 26 0;
#X connect 26 0 27 0;
#X connect 28 0 29 0;
#X connect 29 0 25 0;
#X connect 30 0 33 0;
#X connect 31 0 32 0;
#X connect 33 0 34 0;
#X connect 34 0 31 0;
#X connect 34 0 36 0;
#X connect 35 0 50 0;
#X connect 36 0 1 0;
#X connect 38 0 40 0;
#X connect 39 0 1 0;
#X connect 40 0 39 1;
#X connect 41 0 42 0;
#X connect 42 0 1 0;
#X connect 43 0 42 1;
#X connect 44 0 48 0;
#X connect 44 1 49 0;
#X connect 45 0 48 0;
#X connect 45 1 49 0;
#X connect 46 0 45 1;
#X connect 47 0 44 1;
#X connect 48 0 0 0;
#X connect 49 0 0 1;
#X connect 50 0 31 0;
#X connect 51 0 52 0;
#X connect 52 0 47 0;
#X connect 52 0 54 0;
#X connect 53 0 51 0;
#X connect 55 0 56 0;
#X connect 56 0 52 0;
