#N canvas 267 321 732 504 10;
#X obj 144 400 dac~;
#X obj 143 366 *~;
#X obj 181 375 hsl 128 15 0 1 0 0 empty empty empty -2 -6 0 8 -261681
-1 -1 4900 1;
#X obj 103 89 osc~;
#X obj 138 89 oscsq~;
#X floatatom 134 40 5 0 0 0 - - -;
#X floatatom 615 108 5 0 0 0 - - -;
#X obj 609 86 snapshot~;
#X floatatom 217 35 5 0 0 0 - - -;
#X obj 42 127 phasor~;
#X obj 649 48 loadbang;
#X obj 704 11 bng 15 250 50 0 empty empty empty 0 -6 0 8 -262144 -1
-1;
#X obj 143 256 *~;
#X obj 649 67 metro 200;
#X obj 143 287 hip~ 10 10;
#X obj 155 320 lop~ 200 10;
#X obj 217 54 phasor~ 2;
#X obj 41 91 * 1.5;
#X obj 349 69 phasor~ 2;
#X obj 283 257 *~;
#X obj 349 49 * 2;
#X obj 284 285 *~ 0.2;
#X obj 379 341 *~;
#X floatatom 444 286 5 0 0 0 - - -;
#X obj 378 278 line~;
#X obj 374 382 *~ 0.3;
#X obj 396 362 hsl 128 15 0 0.4 0 0 empty empty empty -2 -6 0 8 -262144
-1 -1 8385 1;
#X floatatom 422 381 5 0 0 0 - - -;
#X msg 406 257 0;
#X msg 376 188 1;
#X obj 393 220 bng 15 250 50 0 empty empty empty 0 -6 0 8 -262144 -1
-1;
#X obj 406 237 delay 100;
#X floatatom 436 220 5 0 0 0 - - -;
#X floatatom 314 266 5 0 0 0 - - -;
#X obj 406 308 osc~ 100;
#X obj 471 118 oscsq~;
#X obj 472 93 / 4;
#X floatatom 514 96 5 0 0 0 - - -;
#X obj 560 174 bng 15 250 50 0 empty empty empty 0 -6 0 8 -262144 -1
-1;
#X obj 494 167 spigot;
#X obj 476 141 clip~ 0 1;
#X obj 560 150 moses 1;
#X obj 493 192 bng 15 250 50 0 empty empty empty 0 -6 0 8 -262144 -1
-1;
#X floatatom 487 69 5 0 0 0 - - -;
#X obj 614 341 loadbang;
#X obj 681 349 bng 15 250 50 0 empty empty empty 0 -6 0 8 -225280 -1
-1;
#X obj 135 15 r drn2fq1;
#X obj 218 13 r drn2fq2;
#X obj 487 48 r drn2fq3;
#X obj 415 200 r drn2fq4;
#X obj 444 263 r drn2fq5;
#X obj 410 341 r drn2fq6;
#X obj 347 426 dline~ 85 0.8;
#X msg 614 373 \; drn2fq1 69 \; drn2fq2 0.7 \; drn2fq3 4 \; drn2fq4
50 \; drn2fq5 192 \; drn2fq6 0.22 \;;
#X connect 1 0 0 0;
#X connect 1 0 0 1;
#X connect 2 0 1 1;
#X connect 3 0 12 0;
#X connect 5 0 4 0;
#X connect 5 0 3 0;
#X connect 5 0 17 0;
#X connect 6 0 41 0;
#X connect 6 0 39 1;
#X connect 7 0 6 0;
#X connect 8 0 16 0;
#X connect 8 0 20 0;
#X connect 8 0 36 0;
#X connect 9 0 19 0;
#X connect 10 0 13 0;
#X connect 11 0 13 0;
#X connect 12 0 14 0;
#X connect 13 0 7 0;
#X connect 14 0 15 0;
#X connect 15 0 1 0;
#X connect 16 0 12 1;
#X connect 17 0 9 0;
#X connect 18 0 19 1;
#X connect 19 0 21 0;
#X connect 20 0 18 0;
#X connect 21 0 14 0;
#X connect 22 0 25 0;
#X connect 23 0 34 0;
#X connect 24 0 22 0;
#X connect 25 0 52 0;
#X connect 26 0 25 1;
#X connect 26 0 27 0;
#X connect 28 0 24 0;
#X connect 29 0 24 0;
#X connect 29 0 30 0;
#X connect 30 0 31 0;
#X connect 31 0 28 0;
#X connect 32 0 31 1;
#X connect 33 0 21 1;
#X connect 34 0 22 1;
#X connect 35 0 40 0;
#X connect 36 0 35 0;
#X connect 36 0 37 0;
#X connect 38 0 39 0;
#X connect 39 0 42 0;
#X connect 40 0 7 0;
#X connect 41 0 38 0;
#X connect 42 0 29 0;
#X connect 43 0 36 1;
#X connect 44 0 53 0;
#X connect 45 0 53 0;
#X connect 46 0 5 0;
#X connect 47 0 8 0;
#X connect 48 0 43 0;
#X connect 49 0 32 0;
#X connect 50 0 23 0;
#X connect 51 0 26 0;
#X connect 52 0 14 0;
