#N canvas 5 191 749 704 10;
#X obj 155 636 dac~;
#X obj 153 604 *~;
#X obj 214 598 hsl 200 15 0 1 0 0 empty empty empty -2 -6 0 8 -171818
-1 -1 6885 0;
#X floatatom 207 621 5 0 0 0 - - -;
#X obj 31 133 osc~ 440;
#X obj 79 227 *~ 1;
#X obj 95 105 *~ 45;
#X floatatom 142 119 5 0 0 0 - - -;
#X obj 145 94 env~;
#X floatatom 137 48 5 0 0 0 - - -;
#X obj 82 281 /~ 90;
#X obj 184 191 clip~ 0.8 1;
#X obj 184 154 osc~ 0.2;
#X floatatom 203 277 5 0 0 0 - - -;
#X obj 203 255 env~;
#X obj 203 296 clip 71 81;
#X floatatom 201 315 5 0 0 0 - - -;
#X obj 143 239 osc~;
#X obj 439 316 mtof;
#X obj 102 69 oscsq~ 2;
#X obj 116 162 env~;
#X floatatom 115 183 5 0 0 0 - - -;
#X obj 158 16 hsl 128 15 0 127 0 0 empty empty empty -2 -6 0 8 -262144
-1 -1 0 1;
#X obj 258 385 phasor~;
#X obj 178 375 metro 50;
#X obj 22 354 snapshot~;
#X floatatom 25 380 5 0 0 0 - - -;
#X obj 399 493 tabosc4~ \$0_d04;
#X floatatom 406 443 5 0 0 0 - - -;
#X obj 406 465 sig~ 100;
#X obj 510 493 table \$0_d04 515;
#X msg 507 399 \$0_d04 sinesum 512 0.5 0.5 0.5;
#X floatatom 279 417 5 0 0 0 - - -;
#X obj 248 448 *~;
#X obj 214 474 clip~ -1 1;
#X floatatom 297 362 5 0 0 0 - - -;
#X obj 443 87 osc~;
#X obj 477 86 osc~;
#X obj 511 86 osc~;
#X obj 545 86 osc~;
#X obj 592 87 osc~;
#X obj 641 87 osc~;
#X floatatom 447 13 5 0 0 0 - - -;
#X floatatom 477 67 5 0 0 0 - - -;
#X obj 477 47 * 2;
#X obj 518 45 +;
#X floatatom 515 67 5 0 0 0 - - -;
#X obj 558 44 +;
#X floatatom 555 66 5 0 0 0 - - -;
#X obj 603 42 +;
#X floatatom 599 67 5 0 0 0 - - -;
#X obj 647 42 +;
#X floatatom 643 67 5 0 0 0 - - -;
#X obj 446 161 +~;
#X obj 447 183 /~ 6;
#X obj 344 106 noise~;
#X obj 440 234 cos~;
#X connect 1 0 0 0;
#X connect 1 0 0 1;
#X connect 2 0 1 1;
#X connect 2 0 3 0;
#X connect 4 0 5 0;
#X connect 5 0 10 0;
#X connect 6 0 4 0;
#X connect 8 0 7 0;
#X connect 9 0 19 0;
#X connect 10 0 1 0;
#X connect 12 0 11 0;
#X connect 13 0 15 0;
#X connect 14 0 13 0;
#X connect 15 0 16 0;
#X connect 17 0 10 0;
#X connect 19 0 6 0;
#X connect 19 0 8 0;
#X connect 19 0 20 0;
#X connect 20 0 21 0;
#X connect 22 0 9 0;
#X connect 23 0 33 0;
#X connect 25 0 26 0;
#X connect 27 0 1 0;
#X connect 28 0 29 0;
#X connect 29 0 27 0;
#X connect 32 0 33 1;
#X connect 33 0 34 0;
#X connect 34 0 1 0;
#X connect 35 0 23 0;
#X connect 36 0 53 0;
#X connect 37 0 53 0;
#X connect 38 0 53 0;
#X connect 39 0 53 0;
#X connect 40 0 53 0;
#X connect 41 0 53 0;
#X connect 42 0 36 0;
#X connect 42 0 44 0;
#X connect 42 0 45 0;
#X connect 42 0 47 0;
#X connect 42 0 49 0;
#X connect 42 0 51 0;
#X connect 43 0 37 0;
#X connect 43 0 45 1;
#X connect 44 0 43 0;
#X connect 45 0 46 0;
#X connect 46 0 38 0;
#X connect 46 0 47 1;
#X connect 47 0 48 0;
#X connect 48 0 39 0;
#X connect 48 0 49 1;
#X connect 49 0 50 0;
#X connect 50 0 40 0;
#X connect 50 0 51 1;
#X connect 51 0 52 0;
#X connect 52 0 41 0;
#X connect 53 0 54 0;
#X connect 54 0 1 0;
