#N canvas 240 41 926 685 10;
#X obj 255 500 mout~;
#X obj 266 80 osc~ 1209;
#X obj 374 78 osc~ 1336;
#X obj 481 79 osc~ 1477;
#X obj 617 75 osc~ 1633;
#X obj 31 210 osc~ 697;
#X obj 29 257 osc~ 770;
#X obj 30 294 osc~ 852;
#X obj 30 329 osc~ 941;
#X obj 254 451 /~ 2;
#X obj 285 100 r \$0-col1;
#X obj 267 120 *~;
#X obj 373 121 *~;
#X obj 480 120 *~;
#X obj 616 115 *~;
#X obj 391 101 r \$0-col2;
#X obj 498 100 r \$0-col3;
#X obj 635 95 r \$0-col4;
#X obj 113 226 *~;
#X obj 131 206 r \$0-row1;
#X obj 107 271 *~;
#X obj 113 313 *~;
#X obj 111 353 *~;
#X obj 129 333 r \$0-row4;
#X obj 126 251 r \$0-row2;
#X obj 131 293 r \$0-row3;
#X connect 1 0 11 0;
#X connect 2 0 12 0;
#X connect 3 0 13 0;
#X connect 4 0 14 0;
#X connect 5 0 18 0;
#X connect 6 0 20 0;
#X connect 7 0 21 0;
#X connect 8 0 22 0;
#X connect 9 0 0 0;
#X connect 10 0 11 1;
#X connect 11 0 9 0;
#X connect 12 0 9 0;
#X connect 13 0 9 0;
#X connect 14 0 9 0;
#X connect 15 0 12 1;
#X connect 16 0 13 1;
#X connect 17 0 14 1;
#X connect 18 0 9 0;
#X connect 19 0 18 1;
#X connect 20 0 9 0;
#X connect 21 0 9 0;
#X connect 22 0 9 0;
#X connect 23 0 22 1;
#X connect 24 0 20 1;
#X connect 25 0 21 1;
