#N canvas 240 41 920 795 10;
#X obj 106 538 mout~;
#X obj 105 489 /~ 2;
#X obj 23 402 osc~;
#X obj 106 402 osc~;
#X text 116 384 cols;
#X text 32 384 row;
#X obj 23 363 r \$0_row_f;
#X obj 106 363 r \$0_col_f;
#X obj 144 436 vline~;
#X obj 105 466 *~;
#N canvas 0 0 365 477 selrow 0;
#X obj 26 8 inlet;
#X obj 23 436 outlet;
#X obj 97 275 f 1;
#X obj 151 321 f 2;
#X obj 200 360 f 3;
#X obj 249 393 f 4;
#X obj 97 251 select 1 2 3;
#X obj 150 293 select 4 5 6;
#X obj 204 326 select 7 8 9;
#X obj 253 369 select 0;
#X obj 28 146 1;
#X obj 59 146 2;
#X obj 90 147 3;
#X obj 120 147 4;
#X obj 26 117 route A a B b C c D d # *;
#X connect 0 0 14 0;
#X connect 2 0 1 0;
#X connect 3 0 1 0;
#X connect 4 0 1 0;
#X connect 5 0 1 0;
#X connect 6 0 2 0;
#X connect 6 1 2 0;
#X connect 6 2 2 0;
#X connect 6 3 7 0;
#X connect 7 0 3 0;
#X connect 7 1 3 0;
#X connect 7 2 3 0;
#X connect 7 3 8 0;
#X connect 8 0 4 0;
#X connect 8 1 4 0;
#X connect 8 2 4 0;
#X connect 8 3 9 0;
#X connect 9 0 5 0;
#X connect 10 0 1 0;
#X connect 11 0 1 0;
#X connect 12 0 1 0;
#X connect 13 0 1 0;
#X connect 14 0 10 0;
#X connect 14 1 10 0;
#X connect 14 2 11 0;
#X connect 14 3 11 0;
#X connect 14 4 12 0;
#X connect 14 5 12 0;
#X connect 14 6 13 0;
#X connect 14 7 13 0;
#X connect 14 8 13 0;
#X connect 14 9 13 0;
#X connect 14 10 6 0;
#X restore 102 140 pd selrow;
#X floatatom 118 165 5 0 0 0 - - -;
#N canvas 0 0 365 477 selcol 0;
#X obj 26 8 inlet;
#X obj 23 436 outlet;
#X obj 97 275 f 1;
#X obj 151 321 f 2;
#X obj 200 360 f 3;
#X obj 253 370 select 0;
#X obj 97 251 select 1 4 7;
#X obj 150 293 select 2 5 8;
#X obj 204 326 select 3 6 9;
#X obj 249 393 f 2;
#X obj 119 108 route A a B b C c D d;
#X obj 73 67 route #;
#X obj 191 144 4;
#X obj 73 89 3;
#X obj 21 37 route *;
#X obj 27 64 1;
#X connect 0 0 14 0;
#X connect 2 0 1 0;
#X connect 3 0 1 0;
#X connect 4 0 1 0;
#X connect 5 0 9 0;
#X connect 6 0 2 0;
#X connect 6 1 2 0;
#X connect 6 2 2 0;
#X connect 6 3 7 0;
#X connect 7 0 3 0;
#X connect 7 1 3 0;
#X connect 7 2 3 0;
#X connect 7 3 8 0;
#X connect 8 0 4 0;
#X connect 8 1 4 0;
#X connect 8 2 4 0;
#X connect 8 3 5 0;
#X connect 9 0 1 0;
#X connect 10 0 12 0;
#X connect 10 1 12 0;
#X connect 10 2 12 0;
#X connect 10 3 12 0;
#X connect 10 4 12 0;
#X connect 10 5 12 0;
#X connect 10 6 12 0;
#X connect 10 7 12 0;
#X connect 10 8 6 0;
#X connect 11 0 13 0;
#X connect 11 1 10 0;
#X connect 12 0 1 0;
#X connect 13 0 1 0;
#X connect 14 0 15 0;
#X connect 14 1 11 0;
#X connect 15 0 1 0;
#X restore 275 138 pd selcol;
#X floatatom 286 161 5 0 0 0 - - -;
#X obj 98 188 select 1 2 3 4;
#X obj 274 188 select 1 2 3 4;
#X obj 119 280 s \$0_row_f;
#X msg 82 222 697;
#X msg 119 220 770;
#X msg 155 219 852;
#X msg 192 217 941;
#X obj 302 282 s \$0_col_f;
#X msg 262 221 1209;
#X msg 302 222 1336;
#X msg 346 224 1477;
#X msg 388 225 1633;
#X msg 205 374 0 1;
#X msg 206 400 1 1;
#X msg 250 402 1 1 \, 0 1 \$1;
#X msg 250 377 50;
#X floatatom 121 41 5 0 0 0 - - -;
#X msg 188 13 a;
#X obj 111 71 t b a a;
#X floatatom 322 450 5 0 0 0 - - -;
#X msg 368 445 A;
#X msg 420 422 #;
#X obj 595 192 list split 1;
#X obj 639 221 list append;
#X obj 321 474 dtmf~ 250;
#X obj 582 324 delay 285;
#X obj 565 294 list;
#X msg 515 307 \$1;
#X obj 481 245 route symbol float;
#X obj 546 268 t b f;
#X obj 482 267 t b s;
#X msg 595 157 1 2 3 a 4 5 6 b 7 8 9 c * 0 # d;
#X msg 308 637 1 2 3 a 4 5 6 b 7 8 9 c * 0 # d;
#X floatatom 368 667 5 0 0 0 - - -;
#X floatatom 447 665 5 0 0 0 - - -;
#X obj 323 609 spigot;
#X obj 367 580 tgl 15 0 empty empty empty 17 7 0 10 -262144 -1 -1 0
1;
#X obj 430 725 bng 15 250 50 0 empty empty empty 17 7 0 10 -262144
-1 -1;
#X msg 572 638 1 2 3 a 4 5 6 b 7 8 9 c * 0 # d;
#X floatatom 632 668 5 0 0 0 - - -;
#X floatatom 711 666 5 0 0 0 - - -;
#X obj 574 695 dtmf_dialer~;
#X obj 313 695 dtmf_dialer~ 30 10;
#X obj 635 564 dtmf_dialer~;
#X msg 635 381 bang;
#X floatatom 683 539 5 0 0 0 - - -;
#X floatatom 731 539 5 0 0 0 - - -;
#X obj 635 404 random 12;
#X msg 731 480 #;
#X msg 685 480 *;
#X obj 634 430 moses 10;
#X obj 686 455 select 10 11;
#X floatatom 460 454 5 0 0 0 - - -;
#X connect 1 0 0 0;
#X connect 2 0 9 0;
#X connect 3 0 9 0;
#X connect 6 0 2 0;
#X connect 7 0 3 0;
#X connect 8 0 9 1;
#X connect 9 0 1 0;
#X connect 10 0 11 0;
#X connect 10 0 14 0;
#X connect 12 0 13 0;
#X connect 12 0 15 0;
#X connect 14 0 17 0;
#X connect 14 1 18 0;
#X connect 14 2 19 0;
#X connect 14 3 20 0;
#X connect 15 0 22 0;
#X connect 15 1 23 0;
#X connect 15 2 24 0;
#X connect 15 3 25 0;
#X connect 17 0 16 0;
#X connect 18 0 16 0;
#X connect 19 0 16 0;
#X connect 20 0 16 0;
#X connect 22 0 21 0;
#X connect 23 0 21 0;
#X connect 24 0 21 0;
#X connect 25 0 21 0;
#X connect 26 0 8 0;
#X connect 27 0 8 0;
#X connect 28 0 8 0;
#X connect 29 0 28 0;
#X connect 30 0 32 0;
#X connect 31 0 32 0;
#X connect 32 0 29 0;
#X connect 32 1 10 0;
#X connect 32 2 12 0;
#X connect 33 0 38 0;
#X connect 34 0 38 0;
#X connect 35 0 38 0;
#X connect 36 0 42 0;
#X connect 36 1 37 1;
#X connect 37 0 36 0;
#X connect 38 0 0 0;
#X connect 39 0 37 0;
#X connect 40 0 38 0;
#X connect 41 0 38 0;
#X connect 42 0 44 0;
#X connect 42 1 43 0;
#X connect 43 0 40 0;
#X connect 43 0 39 0;
#X connect 43 1 40 1;
#X connect 44 0 39 0;
#X connect 44 1 41 0;
#X connect 45 0 36 0;
#X connect 46 0 56 0;
#X connect 47 0 56 1;
#X connect 48 0 56 2;
#X connect 49 0 46 0;
#X connect 50 0 49 1;
#X connect 52 0 55 0;
#X connect 53 0 55 1;
#X connect 54 0 55 2;
#X connect 55 0 0 0;
#X connect 56 0 0 0;
#X connect 56 1 49 0;
#X connect 56 1 51 0;
#X connect 57 0 0 0;
#X connect 57 1 58 0;
#X connect 58 0 61 0;
#X connect 59 0 57 1;
#X connect 60 0 57 2;
#X connect 61 0 64 0;
#X connect 62 0 57 0;
#X connect 63 0 57 0;
#X connect 64 0 57 0;
#X connect 64 1 65 0;
#X connect 65 0 63 0;
#X connect 65 1 62 0;
#X connect 66 0 38 1;
