#N canvas 240 41 926 685 10;
#X obj 106 538 mout~;
#X obj 105 489 /~ 2;
#X obj 23 402 osc~;
#X obj 106 402 osc~;
#X text 116 384 cols;
#X text 32 384 row;
#X obj 23 363 r \$0_row_f;
#X obj 106 363 r \$0_col_f;
#X obj 144 436 vline~;
#X obj 105 466 *~;
#N canvas 0 0 365 477 selrow 0;
#X obj 26 8 inlet;
#X obj 23 436 outlet;
#X obj 97 275 f 1;
#X obj 151 321 f 2;
#X obj 200 360 f 3;
#X obj 249 393 f 4;
#X obj 97 251 select 1 2 3;
#X obj 150 293 select 4 5 6;
#X obj 204 326 select 7 8 9;
#X obj 253 369 select 0;
#X obj 28 146 1;
#X obj 59 146 2;
#X obj 90 147 3;
#X obj 120 147 4;
#X obj 26 117 route A a B b C c D d # *;
#X connect 0 0 14 0;
#X connect 2 0 1 0;
#X connect 3 0 1 0;
#X connect 4 0 1 0;
#X connect 5 0 1 0;
#X connect 6 0 2 0;
#X connect 6 1 2 0;
#X connect 6 2 2 0;
#X connect 6 3 7 0;
#X connect 7 0 3 0;
#X connect 7 1 3 0;
#X connect 7 2 3 0;
#X connect 7 3 8 0;
#X connect 8 0 4 0;
#X connect 8 1 4 0;
#X connect 8 2 4 0;
#X connect 8 3 9 0;
#X connect 9 0 5 0;
#X connect 10 0 1 0;
#X connect 11 0 1 0;
#X connect 12 0 1 0;
#X connect 13 0 1 0;
#X connect 14 0 10 0;
#X connect 14 1 10 0;
#X connect 14 2 11 0;
#X connect 14 3 11 0;
#X connect 14 4 12 0;
#X connect 14 5 12 0;
#X connect 14 6 13 0;
#X connect 14 7 13 0;
#X connect 14 8 13 0;
#X connect 14 9 13 0;
#X connect 14 10 6 0;
#X restore 463 205 pd selrow;
#X floatatom 479 230 5 0 0 0 - - -;
#N canvas 0 0 365 477 selcol 0;
#X obj 26 8 inlet;
#X obj 23 436 outlet;
#X obj 97 275 f 1;
#X obj 151 321 f 2;
#X obj 200 360 f 3;
#X obj 253 370 select 0;
#X obj 97 251 select 1 4 7;
#X obj 150 293 select 2 5 8;
#X obj 204 326 select 3 6 9;
#X obj 249 393 f 2;
#X obj 119 108 route A a B b C c D d;
#X obj 73 67 route #;
#X obj 191 144 4;
#X obj 73 89 3;
#X obj 21 37 route *;
#X obj 27 64 1;
#X connect 0 0 14 0;
#X connect 2 0 1 0;
#X connect 3 0 1 0;
#X connect 4 0 1 0;
#X connect 5 0 9 0;
#X connect 6 0 2 0;
#X connect 6 1 2 0;
#X connect 6 2 2 0;
#X connect 6 3 7 0;
#X connect 7 0 3 0;
#X connect 7 1 3 0;
#X connect 7 2 3 0;
#X connect 7 3 8 0;
#X connect 8 0 4 0;
#X connect 8 1 4 0;
#X connect 8 2 4 0;
#X connect 8 3 5 0;
#X connect 9 0 1 0;
#X connect 10 0 12 0;
#X connect 10 1 12 0;
#X connect 10 2 12 0;
#X connect 10 3 12 0;
#X connect 10 4 12 0;
#X connect 10 5 12 0;
#X connect 10 6 12 0;
#X connect 10 7 12 0;
#X connect 10 8 6 0;
#X connect 11 0 13 0;
#X connect 11 1 10 0;
#X connect 12 0 1 0;
#X connect 13 0 1 0;
#X connect 14 0 15 0;
#X connect 14 1 11 0;
#X connect 15 0 1 0;
#X restore 636 203 pd selcol;
#X floatatom 647 226 5 0 0 0 - - -;
#X obj 459 253 select 1 2 3 4;
#X obj 635 253 select 1 2 3 4;
#X obj 480 345 s \$0_row_f;
#X msg 443 287 697;
#X msg 480 285 770;
#X msg 516 284 852;
#X msg 553 282 941;
#X obj 663 347 s \$0_col_f;
#X msg 623 286 1209;
#X msg 663 287 1336;
#X msg 707 289 1477;
#X msg 747 290 1633;
#X msg 205 374 0 1;
#X msg 206 400 1 1;
#X msg 250 402 1 1 \, 0 1 \$1;
#X msg 250 377 50;
#X floatatom 482 106 5 0 0 0 - - -;
#X msg 549 78 a;
#X obj 472 136 t b a a;
#X obj 321 474 dtmf~ 500;
#X floatatom 322 450 5 0 0 0 - - -;
#X msg 368 445 A;
#X msg 420 422 #;
#X connect 1 0 0 0;
#X connect 2 0 9 0;
#X connect 3 0 9 0;
#X connect 6 0 2 0;
#X connect 7 0 3 0;
#X connect 8 0 9 1;
#X connect 9 0 1 0;
#X connect 10 0 11 0;
#X connect 10 0 14 0;
#X connect 12 0 13 0;
#X connect 12 0 15 0;
#X connect 14 0 17 0;
#X connect 14 1 18 0;
#X connect 14 2 19 0;
#X connect 14 3 20 0;
#X connect 15 0 22 0;
#X connect 15 1 23 0;
#X connect 15 2 24 0;
#X connect 15 3 25 0;
#X connect 17 0 16 0;
#X connect 18 0 16 0;
#X connect 19 0 16 0;
#X connect 20 0 16 0;
#X connect 22 0 21 0;
#X connect 23 0 21 0;
#X connect 24 0 21 0;
#X connect 25 0 21 0;
#X connect 26 0 8 0;
#X connect 27 0 8 0;
#X connect 28 0 8 0;
#X connect 29 0 28 0;
#X connect 30 0 32 0;
#X connect 31 0 32 0;
#X connect 32 0 29 0;
#X connect 32 1 10 0;
#X connect 32 2 12 0;
#X connect 33 0 0 0;
#X connect 34 0 33 0;
#X connect 35 0 33 0;
#X connect 36 0 33 0;
