#N canvas 108 35 767 599 10;
#N canvas 511 115 627 446 dtmf~ 0;
#X obj 140 319 vline~;
#X obj 101 349 *~;
#N canvas 0 0 365 477 selrow 0;
#X obj 26 8 inlet;
#X obj 23 436 outlet;
#X obj 97 275 f 1;
#X obj 151 321 f 2;
#X obj 200 360 f 3;
#X obj 249 393 f 4;
#X obj 97 251 select 1 2 3;
#X obj 150 293 select 4 5 6;
#X obj 204 326 select 7 8 9;
#X obj 253 369 select 0;
#X obj 28 146 1;
#X obj 59 146 2;
#X obj 90 147 3;
#X obj 120 147 4;
#X obj 26 117 route A a B b C c D d # *;
#X connect 0 0 14 0;
#X connect 2 0 1 0;
#X connect 3 0 1 0;
#X connect 4 0 1 0;
#X connect 5 0 1 0;
#X connect 6 0 2 0;
#X connect 6 1 2 0;
#X connect 6 2 2 0;
#X connect 6 3 7 0;
#X connect 7 0 3 0;
#X connect 7 1 3 0;
#X connect 7 2 3 0;
#X connect 7 3 8 0;
#X connect 8 0 4 0;
#X connect 8 1 4 0;
#X connect 8 2 4 0;
#X connect 8 3 9 0;
#X connect 9 0 5 0;
#X connect 10 0 1 0;
#X connect 11 0 1 0;
#X connect 12 0 1 0;
#X connect 13 0 1 0;
#X connect 14 0 10 0;
#X connect 14 1 10 0;
#X connect 14 2 11 0;
#X connect 14 3 11 0;
#X connect 14 4 12 0;
#X connect 14 5 12 0;
#X connect 14 6 13 0;
#X connect 14 7 13 0;
#X connect 14 8 13 0;
#X connect 14 9 13 0;
#X connect 14 10 6 0;
#X restore 365 105 pd selrow;
#X floatatom 381 130 5 0 0 0 - - -;
#N canvas 0 0 365 477 selcol 0;
#X obj 26 8 inlet;
#X obj 23 436 outlet;
#X obj 97 275 f 1;
#X obj 151 321 f 2;
#X obj 200 360 f 3;
#X obj 253 370 select 0;
#X obj 97 251 select 1 4 7;
#X obj 150 293 select 2 5 8;
#X obj 204 326 select 3 6 9;
#X obj 249 393 f 2;
#X obj 119 108 route A a B b C c D d;
#X obj 73 67 route #;
#X obj 191 144 4;
#X obj 73 89 3;
#X obj 21 37 route *;
#X obj 27 64 1;
#X connect 0 0 14 0;
#X connect 2 0 1 0;
#X connect 3 0 1 0;
#X connect 4 0 1 0;
#X connect 5 0 9 0;
#X connect 6 0 2 0;
#X connect 6 1 2 0;
#X connect 6 2 2 0;
#X connect 6 3 7 0;
#X connect 7 0 3 0;
#X connect 7 1 3 0;
#X connect 7 2 3 0;
#X connect 7 3 8 0;
#X connect 8 0 4 0;
#X connect 8 1 4 0;
#X connect 8 2 4 0;
#X connect 8 3 5 0;
#X connect 9 0 1 0;
#X connect 10 0 12 0;
#X connect 10 1 12 0;
#X connect 10 2 12 0;
#X connect 10 3 12 0;
#X connect 10 4 12 0;
#X connect 10 5 12 0;
#X connect 10 6 12 0;
#X connect 10 7 12 0;
#X connect 10 8 6 0;
#X connect 11 0 13 0;
#X connect 11 1 10 0;
#X connect 12 0 1 0;
#X connect 13 0 1 0;
#X connect 14 0 15 0;
#X connect 14 1 11 0;
#X connect 15 0 1 0;
#X restore 525 103 pd selcol;
#X floatatom 536 126 5 0 0 0 - - -;
#X obj 361 153 select 1 2 3 4;
#X obj 524 153 select 1 2 3 4;
#X obj 382 245 s \$0_row_f;
#X msg 350 186 697;
#X msg 382 185 770;
#X msg 418 184 852;
#X msg 455 182 941;
#X obj 552 247 s \$0_col_f;
#X msg 512 186 1209;
#X msg 552 187 1336;
#X msg 593 187 1477;
#X msg 634 187 1633;
#X msg 201 257 0 1;
#X msg 202 283 1 1;
#X msg 246 285 1 1 \, 0 1 \$1;
#X obj 322 49 t b a a;
#X obj 100 396 outlet~;
#X obj 322 24 inlet;
#X obj 280 208 loadbang;
#X obj 279 230 \$1;
#X obj 246 253 f 50;
#X text 173 396 jason plumb :: noisybox.net;
#X obj 395 23 inlet;
#X text 173 353 dtmf (touch-tone) generator;
#X text 173 366 creation arg is duration in ms;
#X text 173 382 inlet is 0-9 \, a-d \, A-D \, # \, or *;
#N canvas 0 0 299 156 fundamental 0;
#X text 112 34 cols;
#X text 43 34 row;
#X obj 19 13 r \$0_row_f;
#X obj 102 13 r \$0_col_f;
#X obj 34 70 osc~;
#X obj 110 62 osc~;
#X obj 74 115 outlet~;
#X connect 2 0 4 0;
#X connect 3 0 5 0;
#X connect 4 0 6 0;
#X connect 5 0 6 0;
#X restore 43 46 pd fundamental;
#N canvas 0 0 450 300 eighth 0;
#X text 137 36 cols;
#X text 66 36 row;
#X obj 42 15 r \$0_row_f;
#X obj 127 15 r \$0_col_f;
#X obj 129 65 / 8;
#X obj 39 66 / 8;
#X obj 86 139 osc~;
#X obj 138 139 osc~;
#X obj 163 181 *~;
#X obj 211 16 inlet;
#X obj 162 213 outlet~;
#X connect 2 0 5 0;
#X connect 3 0 4 0;
#X connect 4 0 7 0;
#X connect 5 0 6 0;
#X connect 6 0 8 0;
#X connect 7 0 8 0;
#X connect 8 0 10 0;
#X connect 9 0 8 1;
#X restore 96 92 pd eighth;
#N canvas 0 0 450 300 sixteenth 0;
#X text 137 36 cols;
#X text 66 36 row;
#X obj 42 15 r \$0_row_f;
#X obj 127 15 r \$0_col_f;
#X obj 86 139 osc~;
#X obj 138 139 osc~;
#X obj 163 181 *~;
#X obj 211 16 inlet;
#X obj 162 213 outlet~;
#X obj 129 65 / 16;
#X obj 41 65 / 16;
#X connect 2 0 10 0;
#X connect 3 0 9 0;
#X connect 4 0 6 0;
#X connect 5 0 6 0;
#X connect 6 0 8 0;
#X connect 7 0 6 1;
#X connect 9 0 5 0;
#X connect 10 0 4 0;
#X restore 112 147 pd sixteenth;
#X floatatom 154 71 5 0 0 0 - - -;
#X floatatom 156 120 5 0 0 0 - - -;
#N canvas 0 0 450 300 twelfth 0;
#X text 137 36 cols;
#X text 66 36 row;
#X obj 42 15 r \$0_row_f;
#X obj 127 15 r \$0_col_f;
#X obj 86 139 osc~;
#X obj 138 139 osc~;
#X obj 163 181 *~;
#X obj 211 16 inlet;
#X obj 162 213 outlet~;
#X obj 130 65 / 32;
#X obj 41 65 / 32;
#X floatatom 147 96 5 0 0 0 - - -;
#X floatatom 71 90 5 0 0 0 - - -;
#X connect 2 0 10 0;
#X connect 3 0 9 0;
#X connect 4 0 6 0;
#X connect 5 0 6 0;
#X connect 6 0 8 0;
#X connect 7 0 6 1;
#X connect 9 0 5 0;
#X connect 9 0 11 0;
#X connect 10 0 4 0;
#X connect 10 0 12 0;
#X restore 145 200 pd twelfth;
#X floatatom 161 174 5 0 0 0 - - -;
#X obj 101 372 /~ 8.1;
#X connect 0 0 1 1;
#X connect 1 0 39 0;
#X connect 2 0 3 0;
#X connect 2 0 6 0;
#X connect 4 0 5 0;
#X connect 4 0 7 0;
#X connect 6 0 9 0;
#X connect 6 1 10 0;
#X connect 6 2 11 0;
#X connect 6 3 12 0;
#X connect 7 0 14 0;
#X connect 7 1 15 0;
#X connect 7 2 16 0;
#X connect 7 3 17 0;
#X connect 9 0 8 0;
#X connect 10 0 8 0;
#X connect 11 0 8 0;
#X connect 12 0 8 0;
#X connect 14 0 13 0;
#X connect 15 0 13 0;
#X connect 16 0 13 0;
#X connect 17 0 13 0;
#X connect 18 0 0 0;
#X connect 19 0 0 0;
#X connect 20 0 0 0;
#X connect 21 0 26 0;
#X connect 21 1 2 0;
#X connect 21 2 4 0;
#X connect 23 0 21 0;
#X connect 24 0 25 0;
#X connect 25 0 26 1;
#X connect 26 0 20 0;
#X connect 28 0 26 1;
#X connect 32 0 1 0;
#X connect 33 0 1 0;
#X connect 34 0 1 0;
#X connect 35 0 33 0;
#X connect 36 0 34 0;
#X connect 37 0 1 0;
#X connect 38 0 37 0;
#X connect 39 0 22 0;
#X restore 145 209 pd dtmf~;
#X msg 155 94 #;
#X msg 228 96 *;
#X floatatom 224 142 5 0 0 0 - - -;
#X obj 136 434 mout~;
#X obj 163 238 delwrite~ tones 60000;
#X obj 151 317 delread~ tones 2500;
#X obj 295 317 delread~ tones 500;
#X obj 433 317 delread~ tones 1500;
#X obj 223 386 dline~ 1650 0.9;
#X floatatom 221 169 5 0 0 0 - - -;
#X msg 154 40 1;
#X msg 188 36 2;
#X msg 193 79 0;
#X msg 229 34 3;
#X msg 266 34 A;
#X msg 268 76 D;
#X obj 170 365 /~ 4;
#X obj 574 316 delread~ tones 890;
#X connect 0 0 4 0;
#X connect 0 0 5 0;
#X connect 1 0 0 0;
#X connect 2 0 0 0;
#X connect 3 0 0 0;
#X connect 6 0 17 0;
#X connect 7 0 17 0;
#X connect 8 0 17 0;
#X connect 9 0 4 0;
#X connect 10 0 0 1;
#X connect 11 0 0 0;
#X connect 12 0 0 0;
#X connect 13 0 0 0;
#X connect 14 0 0 0;
#X connect 15 0 0 0;
#X connect 16 0 0 0;
#X connect 17 0 9 0;
#X connect 17 0 4 0;
#X connect 18 0 17 0;
