#N canvas 158 30 729 518 10;
#X obj 110 351 sout~;
#X obj 124 85 adc~;
#X obj 164 166 dline~ 50 0.9;
#X obj 155 284 *~ -1;
#X obj 160 248 /~ 1;
#X floatatom 206 242 5 0 0 0 - - -;
#X obj 264 166 dline~ 52 0.91;
#X obj 374 166 dline~ 55 0.83;
#X obj 480 168 dline~ 75 0.9;
#X connect 1 0 2 0;
#X connect 1 0 6 0;
#X connect 1 0 7 0;
#X connect 1 0 8 0;
#X connect 2 0 4 0;
#X connect 3 0 0 1;
#X connect 4 0 3 0;
#X connect 4 0 0 0;
#X connect 5 0 4 1;
#X connect 6 0 4 0;
#X connect 7 0 4 0;
#X connect 8 0 4 0;
