#N canvas 83 126 610 475 10;
#X obj 38 195 mout~;
#N canvas 681 49 524 364 eq 1;
#X obj 10 10 inlet~;
#X obj 11 335 outlet~;
#X obj 112 16 cnv 15 100 60 empty empty empty 20 12 0 14 -233017 -66577
0;
#X obj 311 311 bp~ 500 10;
#X obj 201 127 hip~ 5000;
#X obj 202 271 *~ 1;
#X obj 160 271 *~ 1;
#X obj 120 270 *~ 1;
#X obj 37 128 lop~ 500;
#X obj 12 310 /~ 1;
#X obj 302 116 vsl 10 85 0 1 0 0 empty empty empty 0 -8 0 8 -233017
-1 -1 8400 1;
#X obj 316 116 vsl 10 85 0 1 0 0 empty empty empty 0 -8 0 8 -233017
-1 -1 0 1;
#X obj 330 116 vsl 10 85 0 1 0 0 empty empty empty 0 -8 0 8 -233017
-1 -1 0 1;
#X obj 128 172 hip~ 400;
#X obj 129 193 lop~ 5500;
#X connect 0 0 4 0;
#X connect 0 0 8 0;
#X connect 0 0 13 0;
#X connect 4 0 5 0;
#X connect 5 0 9 0;
#X connect 6 0 9 0;
#X connect 7 0 9 0;
#X connect 8 0 7 0;
#X connect 9 0 1 0;
#X connect 10 0 7 1;
#X connect 11 0 6 1;
#X connect 12 0 5 1;
#X connect 13 0 14 0;
#X connect 14 0 6 0;
#X restore 38 -16 pd eq;
#X obj 56 -79 noise~;
#X obj 141 39 rfft~;
#X obj 141 72 *~;
#X obj 172 72 *~;
#X obj 141 102 sqrt~;
#X obj 141 183 tabwrite~ freq;
#X msg 215 144 bang;
#N canvas 0 0 450 300 graph1 0;
#X array freq 128 float 0;
#X coords 0 30 127 0 200 85 1;
#X restore 317 53 graph;
#X obj 215 54 metro 200;
#X obj 215 17 bng 15 250 50 0 empty empty empty 0 -6 0 8 -262144 -1
-1;
#X obj 320 139 hsl 195 8 0 11800 0 0 measfreq empty empty -2 -6 0 8
-262144 -258699 -1 800 1;
#X floatatom 443 55 10 0 0 0 marker: measfreq -;
#X obj 142 143 *~ 1.5;
#X msg 237 16 stop;
#X connect 1 0 0 0;
#X connect 1 0 3 0;
#X connect 2 0 1 0;
#X connect 3 0 4 0;
#X connect 3 0 4 1;
#X connect 3 1 5 0;
#X connect 3 1 5 1;
#X connect 4 0 6 0;
#X connect 5 0 6 0;
#X connect 6 0 14 0;
#X connect 8 0 7 0;
#X connect 10 0 8 0;
#X connect 11 0 10 0;
#X connect 14 0 7 0;
#X connect 15 0 10 0;
