#N canvas 16 323 611 563 10;
#X obj 10 421 sout~;
#X obj 57 389 tgl 15 0 empty empty empty 0 -6 0 8 -262144 -1 -1 1 1
;
#X obj 22 391 *~ 1;
#N canvas 0 0 460 423 flipudder 0;
#X obj 130 210 random 200;
#X obj 192 17 tgl 15 0 empty empty empty 0 -6 0 8 -262144 -1 -1 1 1
;
#X obj 148 145 delay 25;
#X obj 172 119 clip 25 5000;
#X obj 134 95 t b f;
#X obj 133 9 bng 15 250 50 0 empty empty empty 0 -6 0 8 -262144 -1
-1;
#X floatatom 203 50 5 0 0 0 - - -;
#X floatatom 205 188 5 0 0 0 - - -;
#X obj 233 341 osc~;
#X floatatom 235 225 5 0 0 0 - - -;
#X obj 233 292 +~ 1;
#X obj 233 269 *~ 0.5;
#X floatatom 277 298 5 0 0 0 - - -;
#X obj 234 247 osc~ 2;
#X obj 134 70 random 666;
#X obj 234 319 *~ 82;
#X obj 228 377 outlet~;
#X obj 134 37 spigot 1;
#X obj 64 8 loadbang;
#X connect 0 0 13 0;
#X connect 1 0 17 1;
#X connect 2 0 17 0;
#X connect 3 0 2 1;
#X connect 4 0 2 0;
#X connect 4 0 0 0;
#X connect 4 1 3 0;
#X connect 5 0 17 0;
#X connect 6 0 14 1;
#X connect 7 0 0 1;
#X connect 8 0 16 0;
#X connect 9 0 13 0;
#X connect 10 0 15 0;
#X connect 11 0 10 0;
#X connect 12 0 15 1;
#X connect 13 0 11 0;
#X connect 14 0 4 0;
#X connect 15 0 8 0;
#X connect 17 0 14 0;
#X connect 18 0 17 0;
#X restore 23 137 pd flipudder;
#X obj 48 157 tgl 15 0 empty empty empty 0 -6 0 8 -262144 -1 -1 1 1
;
#X obj 23 176 *~ 1;
#X obj 258 90 spigot;
#X obj 300 67 tgl 15 0 empty empty empty 0 -6 0 8 -262144 -1 -1 1 1
;
#X obj 283 185 delay 25;
#X obj 311 160 clip 25 5000;
#X obj 128 324 *~;
#X obj 128 344 clip~ -1 1;
#X floatatom 310 97 5 0 0 0 - - -;
#X obj 262 144 t b f;
#X obj 262 208 random 100;
#X obj 261 231 moses 50;
#X obj 259 114 random 500;
#X obj 255 52 bng 15 250 50 0 empty empty empty 0 -6 0 8 -262144 -1
-1;
#X obj 263 307 + 1;
#X msg 262 252 bang;
#X obj 129 372 *~;
#X obj 262 328 t f b;
#X msg 292 355 0.4;
#X floatatom 302 268 5 0 0 0 - - -;
#X obj 263 287 random 4;
#X obj 313 422 line;
#X msg 334 397 1 20;
#X floatatom 316 455 5 0 0 0 - - -;
#X obj 392 202 line;
#X msg 421 122 bang;
#X msg 476 179 25;
#X obj 421 142 t b b;
#X msg 406 177 85 25000;
#X obj 402 227 moses 85;
#X msg 453 247 bang;
#X obj 453 269 delay 4000;
#X obj 421 101 loadbang;
#X connect 1 0 2 1;
#X connect 2 0 0 1;
#X connect 2 0 0 0;
#X connect 3 0 5 0;
#X connect 4 0 5 1;
#X connect 5 0 10 0;
#X connect 6 0 16 0;
#X connect 7 0 6 1;
#X connect 8 0 6 0;
#X connect 9 0 8 1;
#X connect 10 0 11 0;
#X connect 11 0 20 0;
#X connect 12 0 16 1;
#X connect 13 0 8 0;
#X connect 13 0 14 0;
#X connect 13 1 9 0;
#X connect 14 0 15 0;
#X connect 15 0 19 0;
#X connect 15 1 26 0;
#X connect 16 0 13 0;
#X connect 17 0 6 0;
#X connect 18 0 21 0;
#X connect 19 0 24 0;
#X connect 20 0 2 0;
#X connect 21 0 25 0;
#X connect 21 1 22 0;
#X connect 22 0 20 1;
#X connect 23 0 24 1;
#X connect 24 0 18 0;
#X connect 25 0 10 1;
#X connect 25 0 27 0;
#X connect 26 0 25 0;
#X connect 28 0 15 1;
#X connect 28 0 33 0;
#X connect 29 0 31 0;
#X connect 30 0 28 0;
#X connect 31 0 32 0;
#X connect 31 1 30 0;
#X connect 32 0 28 0;
#X connect 33 1 34 0;
#X connect 34 0 35 0;
#X connect 35 0 31 0;
#X connect 36 0 29 0;
