#N canvas 609 119 527 559 10;
#X obj 53 367 sout~;
#X obj 85 340 *~ -1;
#X obj 67 101 rfft~;
#X obj 68 271 rifft~;
#X obj 68 44 osc~ 440;
#X floatatom 84 21 5 0 0 0 - - -;
#X obj 74 301 /~ 64;
#X floatatom 196 43 5 0 0 0 - - -;
#X obj 112 184 +~;
#X obj 70 191 +~;
#X obj 194 207 freq_graph_work;
#X obj 13 171 print~;
#X msg 14 98 bang;
#X obj 187 84 / 1000;
#X floatatom 189 109 5 0 0 0 - - -;
#X obj 194 297 freq_graph_work;
#X obj 65 -3 hsl 128 15 0 3000 0 0 empty empty empty -2 -8 0 10 -262144
-1 -1 1700 1;
#X connect 1 0 0 1;
#X connect 2 0 9 0;
#X connect 2 0 11 0;
#X connect 2 1 8 0;
#X connect 3 0 6 0;
#X connect 4 0 2 0;
#X connect 4 0 10 0;
#X connect 5 0 4 0;
#X connect 6 0 1 0;
#X connect 6 0 0 0;
#X connect 6 0 15 0;
#X connect 7 0 13 0;
#X connect 8 0 3 1;
#X connect 9 0 3 0;
#X connect 12 0 11 0;
#X connect 13 0 14 0;
#X connect 13 0 9 1;
#X connect 16 0 5 0;
