#N canvas 294 164 895 683 10;
#X obj 107 122 fiddle~ 1024 1 20 3;
#X obj 92 58 adc~;
#X obj 161 616 hsl 128 15 0 1 0 0 empty empty empty -2 -6 0 8 -225271
-1 -1 11800 1;
#X floatatom 157 634 5 0 0 0 - - -;
#X obj 40 527 vu 15 120 empty empty -1 -8 0 8 -66577 -1 1 0;
#N canvas 0 0 413 230 out 0;
#X obj 254 15 inlet;
#X obj 108 131 dac~;
#X obj 105 103 *~;
#X obj 135 103 *~;
#X obj 13 137 env~ 10000;
#X obj 14 157 - 97;
#X obj 163 9 inlet~;
#X obj 13 178 outlet;
#X obj 177 137 env~ 10000;
#X obj 178 157 - 97;
#X obj 177 178 outlet;
#X obj 86 10 inlet~;
#X obj 73 45 clip~ -1 1;
#X obj 162 45 clip~ -1 1;
#X connect 0 0 3 1;
#X connect 0 0 2 1;
#X connect 2 0 1 0;
#X connect 2 0 4 0;
#X connect 3 0 1 1;
#X connect 3 0 8 0;
#X connect 4 0 5 0;
#X connect 5 0 7 0;
#X connect 6 0 13 0;
#X connect 8 0 9 0;
#X connect 9 0 10 0;
#X connect 11 0 12 0;
#X connect 12 0 2 0;
#X connect 13 0 3 0;
#X restore 105 634 pd out;
#X obj 59 527 vu 15 120 empty empty -1 -8 0 8 -66577 -1 1 0;
#X obj 157 578 loadbang;
#X msg 157 597 0.9;
#X floatatom 96 172 5 0 0 0 - - -;
#X msg 181 57 auto 1;
#X msg 181 79 auto 0;
#X floatatom 145 168 5 0 0 0 - - -;
#X obj 107 244 osc~ 0;
#X obj 318 227 unpack;
#X obj 346 192 route 1 2 3 4;
#X obj 429 232 unpack;
#X obj 610 248 unpack;
#X floatatom 160 225 5 0 0 0 - - -;
#X obj 119 201 mtof;
#X obj 267 293 osc~;
#X obj 546 317 osc~;
#X obj 275 417 *~;
#X obj 393 368 *~;
#X obj 557 369 *~;
#X msg 246 91 amp-range 70 90;
#X obj 391 328 osc~;
#X obj 309 299 moses 0.05;
#X floatatom 323 390 5 0 0 0 - - -;
#X text 459 177;
#X obj 448 312 moses 0.05;
#X floatatom 499 342 5 0 0 0 - - -;
#X msg 434 334 0;
#X obj 628 323 moses 0.05;
#X floatatom 657 371 5 0 0 0 - - -;
#X msg 632 349 0;
#X obj 294 458 +~;
#X obj 273 37 metro 100;
#X obj 275 10 bng 15 250 50 0 empty empty empty 0 -6 0 8 -262144 -1
-1;
#X obj 544 533 osc~;
#X obj 583 533 line;
#X msg 547 489 200 \, 0 150;
#X floatatom 313 425 5 0 0 0 - - -;
#X msg 305 323 0;
#X obj 315 346 bng 15 250 50 0 empty empty empty 0 -6 0 8 -262144 -1
-1;
#X connect 0 0 9 0;
#X connect 0 0 19 0;
#X connect 0 1 12 0;
#X connect 0 4 15 0;
#X connect 1 0 0 0;
#X connect 2 0 3 0;
#X connect 2 0 5 2;
#X connect 5 0 4 0;
#X connect 5 1 6 0;
#X connect 7 0 8 0;
#X connect 8 0 2 0;
#X connect 10 0 0 0;
#X connect 11 0 0 0;
#X connect 14 0 20 0;
#X connect 14 1 27 0;
#X connect 15 0 14 0;
#X connect 15 1 16 0;
#X connect 15 2 17 0;
#X connect 16 0 26 0;
#X connect 16 1 30 0;
#X connect 17 0 21 0;
#X connect 17 1 33 0;
#X connect 19 0 18 0;
#X connect 19 0 13 0;
#X connect 20 0 22 0;
#X connect 21 0 24 0;
#X connect 22 0 36 0;
#X connect 23 0 36 0;
#X connect 24 0 36 0;
#X connect 25 0 0 0;
#X connect 26 0 23 0;
#X connect 27 0 43 0;
#X connect 27 1 28 0;
#X connect 27 1 22 1;
#X connect 30 0 32 0;
#X connect 30 1 31 0;
#X connect 30 1 23 1;
#X connect 32 0 23 1;
#X connect 33 0 35 0;
#X connect 33 1 34 0;
#X connect 34 0 24 1;
#X connect 35 0 24 1;
#X connect 36 0 5 0;
#X connect 36 0 5 1;
#X connect 39 0 5 1;
#X connect 40 0 39 0;
#X connect 41 0 40 0;
#X connect 43 0 22 1;
#X connect 43 0 44 0;
