#N canvas 89 87 685 520 10;
#X obj 42 367 sout~;
#X obj 24 73 soundfiler;
#X floatatom 25 103 5 0 0 0 - - -;
#X obj 112 70 table sndbuff_l;
#X obj 113 90 table sndbuff_r;
#X obj 31 278 tabplay~ sndbuff_l;
#X obj 167 278 tabplay~ sndbuff_r;
#X msg 34 223 bang;
#X obj 34 243 t b b;
#X msg 95 220 stop;
#X obj 92 242 t a a;
#X obj 507 227 vline~;
#X obj 507 253 tabread4~ sndbuff_l;
#X msg 497 139 0;
#X obj 507 294 *~;
#X floatatom 545 291 5 0 0 0 - - -;
#X msg 514 175 123000 10000;
#X msg 528 196 0 10000;
#X msg 23 15 read -resize /home/jason/field_audio/20080125_field_audio/STE-010.wav
sndbuff_l sndbuff_r;
#N canvas 0 0 396 444 one 0;
#X obj 15 309 tabplay~ sndbuff_l;
#X msg 18 263 1400 5000;
#X obj 187 213 f;
#X floatatom 194 172 5 0 0 0 - - -;
#X floatatom 241 178 5 0 0 0 - - -;
#X obj 239 213 f;
#X obj 235 253 +;
#X floatatom 247 280 5 0 0 0 - - -;
#X obj 171 281 pack f f;
#X obj 185 248 t f f;
#X obj 222 318 print;
#X obj 181 141 line;
#X msg 226 73 3000 1500;
#X obj 237 123 print;
#X msg 184 26 set 1500 \, 3000 1500;
#X obj 15 353 outlet~;
#X connect 0 0 15 0;
#X connect 1 0 0 0;
#X connect 2 0 9 0;
#X connect 3 0 2 0;
#X connect 4 0 5 0;
#X connect 5 0 6 1;
#X connect 6 0 7 0;
#X connect 6 0 8 1;
#X connect 8 0 0 0;
#X connect 8 0 10 0;
#X connect 9 0 8 0;
#X connect 9 1 6 0;
#X connect 11 0 2 0;
#X connect 12 0 11 0;
#X connect 14 0 11 0;
#X connect 14 0 13 0;
#X restore 328 245 pd one wrong way;
#X connect 1 0 2 0;
#X connect 5 0 0 0;
#X connect 6 0 0 1;
#X connect 7 0 8 0;
#X connect 8 0 5 0;
#X connect 8 1 6 0;
#X connect 9 0 10 0;
#X connect 10 0 5 0;
#X connect 10 1 6 0;
#X connect 11 0 12 0;
#X connect 12 0 14 0;
#X connect 13 0 11 0;
#X connect 14 0 0 0;
#X connect 15 0 14 1;
#X connect 16 0 11 0;
#X connect 17 0 11 0;
#X connect 18 0 1 0;
