#N canvas 330 301 638 489 10;
#X obj 225 147 filetolist;
#X obj 234 209 print JR;
#X obj 422 123 print gg;
#X msg 421 87 read \$1;
#X msg 421 56 symbol /tmp/in1;
#X msg 193 45 symbol /tmp/in1;
#X msg 297 86 symbol /tmp/in2;
#X connect 0 0 1 0;
#X connect 3 0 2 0;
#X connect 4 0 3 0;
#X connect 5 0 0 0;
#X connect 6 0 0 0;
