#N canvas 421 493 450 418 10;
#X obj 21 274 sout~;
#X obj 22 238 fluid~;
#X msg 47 212 load /home/jason/media/soundfonts/Unison.sf2;
#X floatatom 69 51 5 0 0 0 - - -;
#X floatatom 127 34 5 0 0 0 - - -;
#X obj 232 265 notein;
#X obj 237 12 bng 15 250 50 0 empty empty empty 0 -6 0 8 -262144 -1
-1;
#X obj 238 41 metro 1500;
#X msg 237 107 prog 1 \$1;
#X floatatom 236 83 5 0 0 0 - - -;
#X msg 265 11 stop;
#X msg 331 108 bank 1 \$1;
#X floatatom 329 84 5 0 0 0 - - -;
#X text 76 69 pitch;
#X text 130 50 vol;
#X text 240 123 prog;
#X obj 358 265 ctlin;
#X obj 356 290 pack 0 0 0;
#X obj 357 313 print cc;
#X obj 233 345 print n;
#X msg 233 314 note 1 \$1 \$2;
#X obj 233 291 pack f f;
#X obj 179 44 pgmin;
#X floatatom 182 85 5 0 0 0 - - -;
#X obj 180 64 - 1;
#X obj 23 168 pack f f;
#X msg 24 189 note 1 \$1 \$2;
#X obj 73 26 bng 15 250 50 0 empty empty empty 0 -6 0 8 -262144 -1
-1;
#X obj 217 145 print;
#X connect 1 0 0 0;
#X connect 1 1 0 1;
#X connect 2 0 1 0;
#X connect 3 0 25 0;
#X connect 4 0 25 1;
#X connect 5 0 21 0;
#X connect 5 1 21 1;
#X connect 6 0 7 0;
#X connect 8 0 1 0;
#X connect 8 0 28 0;
#X connect 9 0 8 0;
#X connect 10 0 7 0;
#X connect 11 0 1 0;
#X connect 12 0 11 0;
#X connect 16 0 17 0;
#X connect 16 1 17 1;
#X connect 16 2 17 2;
#X connect 20 0 1 0;
#X connect 20 0 19 0;
#X connect 21 0 20 0;
#X connect 22 0 24 0;
#X connect 24 0 23 0;
#X connect 24 0 8 0;
#X connect 25 0 26 0;
#X connect 26 0 1 0;
#X connect 27 0 3 0;
