#N canvas 15 136 613 478 10;
#X obj 60 264 fluid~;
#X msg 177 198 load /home/jason/media/soundfonts/Calliope_Music_Man.sf2
;
#X obj 63 309 sout~;
#X floatatom 231 254 5 0 0 0 - - -;
#X obj 227 349 delay 1000;
#X msg 241 401 note 1 \$0 0;
#X msg 229 327 bang;
#X obj 229 302 t b f;
#X obj 266 377 f;
#X msg 278 279 note 1 \$0 90;
#X floatatom 51 107 5 0 0 0 - - -;
#X floatatom 105 106 5 0 0 0 - - -;
#X text 58 125 pitch;
#X text 108 122 vol;
#X obj 54 159 pack f f;
#X msg 55 180 note 1 \$1 \$2;
#X obj 55 82 bng 15 250 50 0 empty empty empty 0 -6 0 8 -262144 -1
-1;
#X msg 179 171 load /home/jason/media/soundfonts/Calliope.sf2;
#N canvas 375 559 461 260 fn 0;
#X obj 68 22 inlet;
#X obj 77 175 outlet;
#X obj 67 108 makefilename /home/jason/media/soundfonts/%s;
#X obj 68 65 symbol;
#X msg 69 131 load \$1;
#X connect 0 0 3 0;
#X connect 2 0 4 0;
#X connect 3 0 2 0;
#X connect 4 0 1 0;
#X restore 360 56 pd fn;
#X obj 362 102 print;
#X msg 360 34 Calliope.sf2;
#X connect 0 0 2 0;
#X connect 0 1 2 1;
#X connect 1 0 0 0;
#X connect 3 0 9 0;
#X connect 3 0 7 0;
#X connect 4 0 8 0;
#X connect 5 0 0 0;
#X connect 6 0 4 0;
#X connect 7 0 6 0;
#X connect 7 1 8 1;
#X connect 8 0 5 0;
#X connect 9 0 0 0;
#X connect 10 0 14 0;
#X connect 11 0 14 1;
#X connect 14 0 15 0;
#X connect 15 0 0 0;
#X connect 16 0 10 0;
#X connect 17 0 0 0;
#X connect 18 0 19 0;
#X connect 20 0 18 0;
