#N canvas 33 108 523 314 10;
#X obj 11 11 cnv 15 250 80 empty empty empty 20 12 0 14 -233145 -123526
0;
#N canvas 0 0 450 300 (subpatch) 0;
#X array \$0-graph 252 float 0;
#X coords 0 0.51 251 -0.0008 252 80 1;
#X restore 11 11 graph;
#X obj 305 53 *~;
#X obj 337 52 *~;
#X obj 310 96 sqrt~;
#X obj 375 -16 loadbang;
#X obj 452 -33 inlet;
#X obj 304 -33 inlet~;
#X obj 414 96 clip 10 2000;
#X obj 375 8 t b b;
#X obj 404 41 \$1;
#X obj 404 62 select 0;
#X obj 373 125 metro 150;
#X obj 268 216 tabwrite~ \$0-graph;
#X obj 15 112 block~ 4096 1;
#X obj 268 131 /~ 4096;
#X obj 307 1 fft~;
#X connect 2 0 4 0;
#X connect 3 0 4 0;
#X connect 4 0 15 0;
#X connect 5 0 9 0;
#X connect 6 0 8 0;
#X connect 7 0 16 0;
#X connect 8 0 12 1;
#X connect 9 0 12 0;
#X connect 9 1 10 0;
#X connect 10 0 11 0;
#X connect 11 1 8 0;
#X connect 12 0 13 0;
#X connect 15 0 13 0;
#X connect 16 0 2 0;
#X connect 16 0 2 1;
#X connect 16 1 3 0;
#X connect 16 1 3 1;
#X coords 0 -1 1 1 252 82 2 10 10;
