#N canvas 170 373 507 267 10;
#N canvas 0 0 450 300 (subpatch) 0;
#X array \$0-graph 75 float 0;
#X coords 0 0.51 74 -0.0008 256 80 1;
#X restore 14 17 graph;
#X obj 278 94 *~;
#X obj 310 94 *~;
#X obj 286 119 sqrt~;
#X obj 287 182 tabwrite~ \$0-graph;
#X obj 283 63 fft~;
#X obj 373 152 metro 250;
#X obj 372 131 loadbang;
#X obj 283 36 osc~ 500;
#X floatatom 288 14 5 0 0 0 - - -;
#X obj 90 -23 hsl 400 15 0 1000 0 0 empty empty empty -2 -8 0 10 -262144
-1 -1 30300 1;
#X obj 16 108 block~ 512 1;
#X obj 287 145 /~ 512;
#X connect 1 0 3 0;
#X connect 2 0 3 0;
#X connect 3 0 12 0;
#X connect 5 0 1 0;
#X connect 5 0 1 1;
#X connect 5 1 2 0;
#X connect 5 1 2 1;
#X connect 6 0 4 0;
#X connect 7 0 6 0;
#X connect 8 0 5 0;
#X connect 9 0 8 0;
#X connect 10 0 9 0;
#X connect 12 0 4 0;
