#N canvas 95 42 553 451 10;
#X obj 74 56 r gdpad1;
#X obj 86 78 bng 15 250 50 0 empty empty empty 0 -6 0 8 -262144 -1
-1;
#X text 102 6 /dev/ttyS1;
#X obj 5 7 gdrum 1 0 0 0;
#X obj 137 76 bng 15 250 50 0 empty empty empty 0 -6 0 8 -262144 -1
-1;
#X obj 199 76 bng 15 250 50 0 empty empty empty 0 -6 0 8 -262144 -1
-1;
#X obj 261 76 bng 15 250 50 0 empty empty empty 0 -6 0 8 -262144 -1
-1;
#X obj 137 56 r gdpad2;
#X obj 199 56 r gdpad3;
#X obj 261 56 r gdpad4;
#X obj 44 289 mout~;
#N canvas 407 316 450 300 boop1 0;
#X obj 28 182 adsr~ 100 0.8 10 30 15;
#X obj 58 155 oscsq~ 50;
#X obj 27 204 *~;
#X obj 57 132 line;
#X obj 28 56 t b b;
#X msg 58 96 30 \, 90 100;
#X obj 27 14 inlet;
#X obj 27 241 outlet~;
#X connect 0 0 2 0;
#X connect 1 0 2 1;
#X connect 2 0 7 0;
#X connect 3 0 1 0;
#X connect 4 0 0 0;
#X connect 4 1 5 0;
#X connect 5 0 3 0;
#X connect 6 0 4 0;
#X restore 74 125 pd boop1;
#N canvas 407 316 450 300 boop2 0;
#X obj 58 155 oscsq~ 50;
#X obj 27 204 *~;
#X obj 57 132 line;
#X obj 28 56 t b b;
#X obj 27 14 inlet;
#X obj 27 241 outlet~;
#X obj 28 182 adsr~ 100 0.5 10 20 5;
#X msg 58 96 30 \, 690 100;
#X connect 0 0 1 1;
#X connect 1 0 5 0;
#X connect 2 0 0 0;
#X connect 3 0 6 0;
#X connect 3 1 7 0;
#X connect 4 0 3 0;
#X connect 6 0 1 0;
#X connect 7 0 2 0;
#X restore 137 125 pd boop2;
#X obj 257 152 bng 15 250 50 0 empty empty empty 0 -6 0 8 -262144 -1
-1;
#X obj 257 132 r gdpad8;
#X obj 240 184 toggler;
#X floatatom 245 207 5 0 0 0 - - -;
#X obj 135 222 dline~ 3000 0;
#X floatatom 364 276 5 0 0 0 - - -;
#X obj 362 216 bng 15 250 50 0 empty empty empty 0 -6 0 8 -262144 -1
-1;
#X obj 353 177 delay 50;
#X msg 385 215 reset;
#X obj 337 248 bangct;
#X connect 0 0 1 0;
#X connect 0 0 11 0;
#X connect 7 0 4 0;
#X connect 7 0 12 0;
#X connect 8 0 5 0;
#X connect 9 0 6 0;
#X connect 11 0 17 0;
#X connect 12 0 17 0;
#X connect 14 0 13 0;
#X connect 14 0 15 0;
#X connect 14 0 20 0;
#X connect 14 0 22 0;
#X connect 15 0 16 0;
#X connect 15 0 17 2;
#X connect 17 0 10 0;
#X connect 19 0 22 0;
#X connect 21 0 22 0;
#X connect 22 0 18 0;
