#N canvas 61 321 680 579 10;
#X obj 37 6 comport 0 38400;
#X obj 66 51 print;
#X obj 77 507 dac~;
#X obj 88 131 bng 15 250 50 0 empty empty empty 0 -6 0 8 -262144 -1
-1;
#X obj 41 132 bng 15 250 50 0 empty empty empty 0 -6 0 8 -262144 -1
-1;
#X obj 143 112 s tpad3;
#X obj 144 132 bng 15 250 50 0 empty empty empty 0 -6 0 8 -262144 -1
-1;
#X obj 199 131 bng 15 250 50 0 empty empty empty 0 -6 0 8 -262144 -1
-1;
#X obj 198 111 s tpad4;
#X obj 77 478 *~ 1;
#X msg 117 477 1;
#X msg 146 477 0;
#X obj 120 500 tgl 15 0 empty empty empty 0 -6 0 8 -262144 -1 -1 1
1;
#X obj 66 31 spigot 0;
#X obj 131 32 tgl 15 0 empty empty empty 0 -6 0 8 -262144 -1 -1 0 1
;
#X obj 255 130 bng 15 250 50 0 empty empty empty 0 -6 0 8 -262144 -1
-1;
#X obj 254 110 s tpad5;
#N canvas 187 66 384 132 pad2snd 0;
#X obj 9 6 r tpad2;
#X obj 7 27 sample~ /home/jason/media/samples/777_808_kick.wav;
#X obj 15 74 outlet~;
#X connect 0 0 1 0;
#X connect 1 0 2 0;
#X restore 38 310 pd pad2snd;
#N canvas 8 4 335 236 pad3snd 0;
#X obj 18 34 noise~;
#X obj 10 87 *~;
#X obj 37 66 line~;
#X msg 69 33 1 \, 0 50;
#X obj 10 110 lop~ 400;
#X obj 11 130 *~ 3;
#X obj 68 9 r tpad3;
#X obj 11 185 outlet~;
#X obj 15 154 dline~ 25 0.9;
#X connect 0 0 1 0;
#X connect 1 0 4 0;
#X connect 2 0 1 1;
#X connect 3 0 2 0;
#X connect 4 0 5 0;
#X connect 5 0 8 0;
#X connect 6 0 3 0;
#X connect 8 0 7 0;
#X restore 54 334 pd pad3snd;
#N canvas 0 0 303 258 pad5snd 0;
#X obj 27 111 osc~ 50;
#X obj 26 89 line~;
#X msg 77 70 0 4;
#X obj 31 32 delay 150;
#X msg 13 53 100 \, 40 50;
#X obj 19 156 outlet~;
#X obj 85 140 *~;
#X obj 132 124 line~;
#X msg 118 103 1 5;
#X msg 149 103 0 5;
#X obj 7 8 r tpad5;
#X connect 0 0 6 0;
#X connect 1 0 0 0;
#X connect 2 0 1 0;
#X connect 2 0 9 0;
#X connect 3 0 2 0;
#X connect 4 0 1 0;
#X connect 6 0 5 0;
#X connect 7 0 6 1;
#X connect 8 0 7 0;
#X connect 9 0 7 0;
#X connect 10 0 4 0;
#X connect 10 0 3 0;
#X connect 10 0 8 0;
#X restore 159 354 pd pad5snd;
#X obj 85 112 s tpad2;
#X obj 31 112 s tpad1;
#N canvas 0 0 312 241 pad1snd 0;
#X obj 13 82 line~;
#X obj 90 37 delay 100;
#X obj 15 104 osc~ 50;
#X msg 13 61 300 \, 80 75;
#X msg 90 84 0 4;
#X obj 16 14 r tpad1;
#X obj 15 203 outlet~;
#X obj 77 181 *~;
#X obj 124 165 line~;
#X msg 110 144 1 5;
#X msg 141 144 0 5;
#X connect 0 0 2 0;
#X connect 1 0 4 0;
#X connect 2 0 7 0;
#X connect 3 0 0 0;
#X connect 4 0 0 0;
#X connect 4 0 10 0;
#X connect 5 0 1 0;
#X connect 5 0 3 0;
#X connect 5 0 9 0;
#X connect 7 0 6 0;
#X connect 8 0 7 1;
#X connect 9 0 8 0;
#X connect 10 0 8 0;
#X restore 23 288 pd pad1snd;
#N canvas 0 0 304 228 pad4snd 0;
#X obj 19 86 noise~;
#X msg 66 58 0 \, 1 100;
#X obj 65 83 line~;
#X obj 47 111 *~;
#X msg 112 84 0 50;
#X obj 115 35 delay 100;
#X obj 27 152 hip~ 7800;
#X obj 25 132 *~;
#X obj 48 38 osc~ 20;
#X obj 78 15 r tpad4;
#X obj 24 182 outlet~;
#X connect 0 0 7 0;
#X connect 1 0 2 0;
#X connect 2 0 3 1;
#X connect 3 0 7 1;
#X connect 4 0 2 0;
#X connect 5 0 4 0;
#X connect 6 0 10 0;
#X connect 7 0 6 0;
#X connect 8 0 3 0;
#X connect 9 0 1 0;
#X connect 9 0 5 0;
#X restore 65 357 pd pad4snd;
#N canvas 0 0 433 134 pad6snd 0;
#X obj 125 13 bng 15 250 50 0 empty empty empty 0 -6 0 8 -262144 -1
-1;
#X obj 25 15 r tpad6;
#X obj 27 76 outlet~;
#X obj 25 46 sample~ /home/jason/media/samples/701_xp_ec4_chord.wav
;
#X connect 0 0 3 0;
#X connect 1 0 3 0;
#X connect 3 0 2 0;
#X restore 165 375 pd pad6snd;
#X obj 310 130 bng 15 250 50 0 empty empty empty 0 -6 0 8 -262144 -1
-1;
#X obj 309 110 s tpad6;
#X obj 367 130 bng 15 250 50 0 empty empty empty 0 -6 0 8 -262144 -1
-1;
#X obj 366 110 s tpad7;
#N canvas 173 50 450 300 pad7snd 0;
#X obj 34 184 osc~;
#X obj 129 175 osc~;
#X obj 34 279 outlet~;
#X obj 25 24 r tpad7;
#X msg 86 116 0 15;
#X obj 129 149 line;
#X obj 18 132 line;
#X obj 86 94 delay 80;
#X msg 163 63 0 \, 40 10;
#X msg 18 68 0 \, 175 80;
#X obj 103 27 bng 15 250 50 0 empty empty empty 0 -6 0 8 -262144 -1
-1;
#X obj 61 255 *~;
#X obj 135 239 line~;
#X msg 121 218 1 5;
#X msg 152 218 0 5;
#X obj 175 196 delay 15;
#X connect 0 0 11 0;
#X connect 1 0 11 0;
#X connect 3 0 9 0;
#X connect 3 0 8 0;
#X connect 3 0 13 0;
#X connect 4 0 6 0;
#X connect 4 0 5 0;
#X connect 4 0 15 0;
#X connect 5 0 1 0;
#X connect 6 0 0 0;
#X connect 7 0 4 0;
#X connect 8 0 5 0;
#X connect 9 0 6 0;
#X connect 9 0 7 0;
#X connect 10 0 9 0;
#X connect 10 0 8 0;
#X connect 11 0 2 0;
#X connect 12 0 11 1;
#X connect 13 0 12 0;
#X connect 14 0 12 0;
#X connect 15 0 14 0;
#X restore 172 397 pd pad7snd;
#X obj 423 129 bng 15 250 50 0 empty empty empty 0 -6 0 8 -262144 -1
-1;
#X obj 422 109 s tpad8;
#X obj 38 74 select 54 53 52 51 48 55 50 49;
#N canvas 0 0 450 300 pad8snd 0;
#X obj 59 281 outlet~;
#X obj 20 8 r tpad8;
#X obj 63 31 bng 15 250 50 0 empty empty empty 0 -6 0 8 -262144 -1
-1;
#X obj 51 127 metro 10;
#X msg 66 97 stop;
#X obj 61 156 random 500 3000;
#X obj 14 158 line;
#X msg 9 134 0 10;
#X obj 83 62 delay 100;
#X obj 87 189 delay 10;
#X obj 60 259 *~;
#X obj 37 189 osc~ 0;
#X obj 107 243 line~;
#X msg 93 222 1 5;
#X msg 124 222 0 5;
#X connect 1 0 8 0;
#X connect 1 0 3 0;
#X connect 1 0 13 0;
#X connect 2 0 3 0;
#X connect 2 0 8 0;
#X connect 2 0 13 0;
#X connect 3 0 5 0;
#X connect 4 0 3 0;
#X connect 5 0 11 0;
#X connect 6 0 11 0;
#X connect 7 0 6 0;
#X connect 7 0 9 0;
#X connect 8 0 4 0;
#X connect 8 0 7 0;
#X connect 9 0 14 0;
#X connect 10 0 0 0;
#X connect 11 0 10 0;
#X connect 12 0 10 1;
#X connect 13 0 12 0;
#X connect 14 0 12 0;
#X restore 179 419 pd pad8snd;
#X obj 49 533 snapshot~;
#X floatatom 78 553 5 0 0 0 - - -;
#X obj 25 507 bng 15 250 50 0 empty empty empty 0 -6 0 8 -262144 -1
-1;
#X connect 0 0 13 0;
#X connect 0 0 32 0;
#X connect 9 0 2 0;
#X connect 9 0 2 1;
#X connect 9 0 34 0;
#X connect 10 0 9 1;
#X connect 10 0 12 0;
#X connect 11 0 9 1;
#X connect 11 0 12 0;
#X connect 13 0 1 0;
#X connect 14 0 13 1;
#X connect 17 0 9 0;
#X connect 18 0 9 0;
#X connect 19 0 9 0;
#X connect 22 0 9 0;
#X connect 23 0 9 0;
#X connect 24 0 9 0;
#X connect 29 0 9 0;
#X connect 32 0 4 0;
#X connect 32 0 21 0;
#X connect 32 1 3 0;
#X connect 32 1 20 0;
#X connect 32 2 5 0;
#X connect 32 2 6 0;
#X connect 32 3 8 0;
#X connect 32 3 7 0;
#X connect 32 4 16 0;
#X connect 32 4 15 0;
#X connect 32 5 25 0;
#X connect 32 5 26 0;
#X connect 32 6 27 0;
#X connect 32 6 28 0;
#X connect 32 7 30 0;
#X connect 32 7 31 0;
#X connect 33 0 9 0;
#X connect 34 0 35 0;
#X connect 36 0 34 0;
