#N canvas 38 467 677 504 10;
#X obj 67 421 gemwin;
#X msg 62 381 create;
#X obj 81 402 tgl 15 0 empty empty empty 17 7 0 10 -262144 -1 -1 1
1;
#X msg 90 359 dimen 720 480;
#X obj 42 313 loadbang;
#X obj 43 337 t b b b;
#X obj 217 56 openpanel;
#X obj 192 134 pix_film;
#X obj 228 179 unpack f f f;
#X floatatom 221 212 5 0 0 0 - - -;
#X floatatom 264 212 5 0 0 0 - - -;
#X floatatom 308 212 5 0 0 0 - - -;
#X msg 218 81 open \$1;
#X obj 219 38 bng 15 250 50 0 empty empty empty 17 7 0 10 -262144 -1
-1;
#X obj 135 73 gemhead 2;
#X obj 249 321 pix_mix 0;
#X msg 64 100 auto \$1;
#X obj 65 62 tgl 15 0 empty empty empty 17 7 0 10 -262144 -1 -1 1 1
;
#X obj 249 346 pix_texture;
#X obj 475 45 openpanel;
#X obj 450 123 pix_film;
#X obj 486 168 unpack f f f;
#X floatatom 479 201 5 0 0 0 - - -;
#X floatatom 522 201 5 0 0 0 - - -;
#X floatatom 566 201 5 0 0 0 - - -;
#X msg 476 70 open \$1;
#X obj 477 27 bng 15 250 50 0 empty empty empty 17 7 0 10 -262144 -1
-1;
#X msg 322 89 auto \$1;
#X obj 323 51 tgl 15 0 empty empty empty 17 7 0 10 -262144 -1 -1 0
1;
#X obj 393 62 gemhead 3;
#X obj 274 259 hsl 128 15 0 1 0 0 empty empty empty -2 -8 0 10 -262144
-1 -1 0 1;
#X floatatom 356 340 5 0 0 0 - - -;
#X floatatom 403 339 5 0 0 0 - - -;
#X obj 249 373 rectangle;
#X msg 145 7 open /home/jason/Oregon_Painting_Society_2011-04-08.avi
;
#X connect 1 0 0 0;
#X connect 2 0 0 0;
#X connect 3 0 0 0;
#X connect 4 0 5 0;
#X connect 5 0 2 0;
#X connect 5 1 1 0;
#X connect 5 2 3 0;
#X connect 6 0 12 0;
#X connect 7 0 15 0;
#X connect 7 1 8 0;
#X connect 8 0 9 0;
#X connect 8 1 10 0;
#X connect 8 2 11 0;
#X connect 12 0 7 0;
#X connect 13 0 6 0;
#X connect 14 0 7 0;
#X connect 15 0 18 0;
#X connect 16 0 7 0;
#X connect 17 0 16 0;
#X connect 18 0 33 0;
#X connect 19 0 25 0;
#X connect 20 0 15 1;
#X connect 20 1 21 0;
#X connect 21 0 22 0;
#X connect 21 1 23 0;
#X connect 21 2 24 0;
#X connect 25 0 20 0;
#X connect 26 0 19 0;
#X connect 27 0 20 0;
#X connect 28 0 27 0;
#X connect 29 0 20 0;
#X connect 30 0 15 2;
#X connect 31 0 33 1;
#X connect 32 0 33 2;
#X connect 34 0 12 0;
