#N canvas 588 328 651 469 10;
#X obj 41 419 gemwin;
#X msg 35 311 create;
#X msg 45 333 destroy;
#X obj 55 400 tgl 15 0 empty empty empty 17 7 0 10 -262144 -1 -1 1
1;
#X obj 14 37 gemhead;
#X obj 30 86 color;
#X obj 30 118 square;
#X obj 100 55 pack f f f;
#X floatatom 79 27 5 0 0 0 - - -;
#X floatatom 122 12 5 0 0 0 - - -;
#X floatatom 154 32 5 0 0 0 - - -;
#X obj 312 61 gemhead;
#X obj 257 122 pix_image /home/jason/infiltrationlab/fliegendeholle/house_sparrow_m_i_img_7881.jpg
;
#X obj 279 396 pix_draw;
#X msg 56 361 dimen 720 480;
#X msg 117 310 border 1;
#X msg 44 58 1 0 0;
#X obj 356 232 translateXYZ;
#X floatatom 370 194 5 0 0 0 - - -;
#X floatatom 411 194 5 0 0 0 - - -;
#X floatatom 453 196 5 0 0 0 - - -;
#X floatatom 436 319 5 0 0 0 - - -;
#X obj 401 352 rotate 45 1 0 0;
#X msg 474 265 1 0 0;
#X msg 495 289 0 1 1;
#X text 249 414 TBD: pix_texture?;
#X obj 267 343 pix_invert;
#X obj 273 325 tgl 15 0 empty empty empty 17 7 0 10 -262144 -1 -1 1
1;
#X connect 1 0 0 0;
#X connect 2 0 0 0;
#X connect 3 0 0 0;
#X connect 4 0 5 0;
#X connect 7 0 5 1;
#X connect 8 0 7 0;
#X connect 9 0 7 1;
#X connect 10 0 7 2;
#X connect 11 0 12 0;
#X connect 12 0 22 0;
#X connect 12 0 17 0;
#X connect 12 0 26 0;
#X connect 14 0 0 0;
#X connect 15 0 0 0;
#X connect 16 0 5 1;
#X connect 17 0 13 0;
#X connect 18 0 17 1;
#X connect 19 0 17 2;
#X connect 20 0 17 3;
#X connect 21 0 22 1;
#X connect 22 0 13 0;
#X connect 23 0 22 2;
#X connect 24 0 22 2;
#X connect 26 0 13 0;
#X connect 27 0 26 0;
