#N canvas 430 19 789 598 10;
#X obj 23 565 gemwin;
#X msg 17 457 create;
#X msg 27 479 destroy;
#X obj 37 546 tgl 15 0 empty empty empty 17 7 0 10 -262144 -1 -1 1
1;
#X obj 319 14 gemhead;
#X msg 38 507 dimen 720 480;
#X msg 99 456 border 1;
#X obj 319 102 translateXYZ;
#X floatatom 333 64 5 0 0 0 - - -;
#X floatatom 374 64 5 0 0 0 - - -;
#X floatatom 416 66 5 0 0 0 - - -;
#X floatatom 458 186 5 0 0 0 - - -;
#X obj 334 152 pix_invert;
#X obj 340 134 tgl 15 0 empty empty empty 17 7 0 10 -262144 -1 -1 0
1;
#X obj 395 354 tgl 15 0 empty empty empty 17 7 0 10 -262144 -1 -1 1
1;
#X obj 387 378 pix_texture;
#X floatatom 416 411 5 0 0 0 - - -;
#X text 417 394 size;
#X obj 386 439 rectangle;
#X floatatom 457 410 5 0 0 0 - - -;
#X text 458 393 size;
#X obj 386 217 rotate 45 0 0 1;
#X obj 627 279 +~ 1;
#X obj 628 301 *~ 15;
#X obj 628 345 snapshot~;
#X obj 690 305 metro 50;
#X obj 627 323 +~ 15;
#X obj 690 281 tgl 15 0 empty empty empty 17 7 0 10 -262144 -1 -1 1
1;
#X obj 480 278 +~ 1;
#X obj 481 300 *~ 15;
#X obj 481 344 snapshot~;
#X obj 543 304 metro 50;
#X obj 480 322 +~ 15;
#X obj 543 285 tgl 15 0 empty empty empty 17 7 0 10 -262144 -1 -1 1
1;
#X obj 26 385 loadbang;
#X obj 27 409 t b b b;
#X obj 480 250 osc~ 0.02;
#X obj 626 251 osc~ 0.05;
#X obj 462 151 snapshot~;
#X obj 551 264 loadbang;
#X obj 707 254 loadbang;
#X obj 396 330 loadbang;
#X obj 470 98 +~ 0;
#X obj 469 126 *~ 360;
#X obj 30 16 gemhead;
#N canvas 0 0 450 300 pixit 0;
#X obj 25 72 pix_image /home/jason/infiltrationlab/fliegendeholle/house_sparrow_m_i_img_7881.jpg
;
#X obj 30 19 inlet;
#X obj 24 156 outlet;
#X connect 0 0 2 0;
#X connect 1 0 0 0;
#X restore 30 40 pd pixit brd2;
#N canvas 0 0 450 300 pixit 0;
#X obj 25 52 pix_image /home/jason/infiltrationlab/fliegendeholle/house_sparrow_m_i_img_7881.jpg
;
#X obj 27 20 inlet;
#X obj 27 116 outlet;
#X connect 0 0 2 0;
#X connect 1 0 0 0;
#X restore 319 34 pd pixit sparrow;
#X obj 32 226 pix_texture;
#X floatatom 88 329 5 0 0 0 - - -;
#X floatatom 132 329 5 0 0 0 - - -;
#X obj 223 492 pix_composite;
#X obj 48 206 tgl 15 0 empty empty empty 17 7 0 10 -262144 -1 -1 0
1;
#X obj 32 64 translateXYZ 3.33 0 0;
#X obj 29 352 rectangle 2.37 3.61;
#X obj 32 185 pix_duotone;
#X msg 74 147 1 0 0;
#X msg 135 159 0 0 1;
#X msg 48 118 0.2 0.1 0.2;
#X obj 171 125 pack f f f;
#X floatatom 174 88 5 0 0 0 - - -;
#X floatatom 215 86 5 0 0 0 - - -;
#X floatatom 255 88 5 0 0 0 - - -;
#X obj 468 78 phasor~ 0.005;
#X obj 231 521 pix_alpha;
#X obj 226 544 pix_sig2pix;
#X text 169 559 don't forget me I'm awesome;
#X obj 34 260 alpha;
#X obj 235 418 pix_gain;
#X obj 228 455 color;
#X text 200 473 use me (color) to colorize output geo!?;
#X obj 34 299 color 1 1 1 0.5;
#X floatatom 135 260 5 0 0 0 - - -;
#X msg 136 277 1 1 1 \$1;
#X connect 1 0 0 0;
#X connect 2 0 0 0;
#X connect 3 0 0 0;
#X connect 4 0 46 0;
#X connect 5 0 0 0;
#X connect 6 0 0 0;
#X connect 7 0 12 0;
#X connect 8 0 7 1;
#X connect 9 0 7 2;
#X connect 10 0 7 3;
#X connect 11 0 21 1;
#X connect 12 0 21 0;
#X connect 13 0 12 0;
#X connect 14 0 15 0;
#X connect 15 0 18 0;
#X connect 16 0 18 1;
#X connect 19 0 18 2;
#X connect 21 0 15 0;
#X connect 22 0 23 0;
#X connect 23 0 26 0;
#X connect 24 0 19 0;
#X connect 25 0 24 0;
#X connect 25 0 38 0;
#X connect 26 0 24 0;
#X connect 27 0 25 0;
#X connect 28 0 29 0;
#X connect 29 0 32 0;
#X connect 30 0 16 0;
#X connect 31 0 30 0;
#X connect 32 0 30 0;
#X connect 33 0 31 0;
#X connect 34 0 35 0;
#X connect 35 0 3 0;
#X connect 35 1 1 0;
#X connect 35 2 5 0;
#X connect 36 0 28 0;
#X connect 37 0 22 0;
#X connect 38 0 11 0;
#X connect 39 0 33 0;
#X connect 40 0 27 0;
#X connect 41 0 14 0;
#X connect 42 0 43 0;
#X connect 43 0 38 0;
#X connect 44 0 45 0;
#X connect 45 0 52 0;
#X connect 46 0 7 0;
#X connect 47 0 66 0;
#X connect 48 0 53 1;
#X connect 49 0 53 2;
#X connect 51 0 47 0;
#X connect 52 0 54 0;
#X connect 54 0 47 0;
#X connect 55 0 54 2;
#X connect 56 0 54 3;
#X connect 57 0 54 1;
#X connect 58 0 54 1;
#X connect 59 0 58 0;
#X connect 60 0 58 1;
#X connect 61 0 58 2;
#X connect 62 0 42 0;
#X connect 66 0 70 0;
#X connect 70 0 53 0;
#X connect 71 0 72 0;
#X connect 72 0 70 1;
