#N canvas 437 25 698 598 10;
#X obj 41 419 gemwin;
#X msg 35 311 create;
#X msg 45 333 destroy;
#X obj 55 400 tgl 15 0 empty empty empty 17 7 0 10 -262144 -1 -1 1
1;
#X obj 14 37 gemhead;
#X obj 30 86 color;
#X obj 30 118 square;
#X obj 100 55 pack f f f;
#X floatatom 79 27 5 0 0 0 - - -;
#X floatatom 122 12 5 0 0 0 - - -;
#X floatatom 154 32 5 0 0 0 - - -;
#X obj 312 61 gemhead;
#X obj 257 122 pix_image /home/jason/infiltrationlab/fliegendeholle/house_sparrow_m_i_img_7881.jpg
;
#X msg 56 361 dimen 720 480;
#X msg 117 310 border 1;
#X msg 44 58 1 0 0;
#X obj 356 232 translateXYZ;
#X floatatom 370 194 5 0 0 0 - - -;
#X floatatom 411 194 5 0 0 0 - - -;
#X floatatom 453 196 5 0 0 0 - - -;
#X floatatom 452 288 5 0 0 0 - - -;
#X msg 490 234 1 0 0;
#X msg 511 258 0 1 1;
#X text 249 414 TBD: pix_texture?;
#X obj 254 232 pix_invert;
#X obj 260 214 tgl 15 0 empty empty empty 17 7 0 10 -262144 -1 -1 0
1;
#X obj 228 243 tgl 15 0 empty empty empty 17 7 0 10 -262144 -1 -1 0
1;
#X obj 240 274 pix_texture;
#X floatatom 299 348 5 0 0 0 - - -;
#X text 300 331 size;
#X obj 269 376 rectangle;
#X floatatom 340 347 5 0 0 0 - - -;
#X text 341 330 size;
#X msg 539 197 0 1 0;
#X msg 556 225 0 0 1;
#X obj 417 321 rotate 45 0 0 1;
#X obj 460 372 osc~ 0.5;
#X obj 460 400 +~ 1;
#X obj 461 422 *~ 15;
#X obj 461 466 snapshot~;
#X obj 523 426 metro 50;
#X obj 460 444 +~ 15;
#X obj 523 402 tgl 15 0 empty empty empty 17 7 0 10 -262144 -1 -1 1
1;
#X obj 341 483 +~ 1;
#X obj 342 505 *~ 15;
#X obj 342 549 snapshot~;
#X obj 404 509 metro 50;
#X obj 341 527 +~ 15;
#X obj 404 485 tgl 15 0 empty empty empty 17 7 0 10 -262144 -1 -1 1
1;
#X obj 341 455 osc~ 0.2;
#X obj 44 239 loadbang;
#X obj 45 263 t b b b;
#X connect 1 0 0 0;
#X connect 2 0 0 0;
#X connect 3 0 0 0;
#X connect 4 0 5 0;
#X connect 7 0 5 1;
#X connect 8 0 7 0;
#X connect 9 0 7 1;
#X connect 10 0 7 2;
#X connect 11 0 12 0;
#X connect 12 0 16 0;
#X connect 13 0 0 0;
#X connect 14 0 0 0;
#X connect 15 0 5 1;
#X connect 16 0 24 0;
#X connect 17 0 16 1;
#X connect 18 0 16 2;
#X connect 19 0 16 3;
#X connect 20 0 35 1;
#X connect 21 0 35 2;
#X connect 22 0 35 2;
#X connect 24 0 27 0;
#X connect 25 0 24 0;
#X connect 26 0 27 0;
#X connect 27 0 35 0;
#X connect 28 0 30 1;
#X connect 31 0 30 2;
#X connect 33 0 35 2;
#X connect 34 0 35 2;
#X connect 35 0 30 0;
#X connect 36 0 37 0;
#X connect 37 0 38 0;
#X connect 38 0 41 0;
#X connect 39 0 31 0;
#X connect 40 0 39 0;
#X connect 41 0 39 0;
#X connect 42 0 40 0;
#X connect 43 0 44 0;
#X connect 44 0 47 0;
#X connect 45 0 28 0;
#X connect 46 0 45 0;
#X connect 47 0 45 0;
#X connect 48 0 46 0;
#X connect 49 0 43 0;
#X connect 50 0 51 0;
#X connect 51 0 3 0;
#X connect 51 1 1 0;
#X connect 51 2 13 0;
