#N canvas 430 19 789 598 10;
#X obj 23 565 gemwin;
#X msg 17 457 create;
#X msg 27 479 destroy;
#X obj 37 546 tgl 15 0 empty empty empty 17 7 0 10 -262144 -1 -1 1
1;
#X msg 38 507 dimen 720 480;
#X msg 99 456 border 1;
#X obj 26 385 loadbang;
#X obj 27 409 t b b b;
#N canvas 0 0 450 300 pixit 0;
#X obj 25 72 pix_image /home/jason/infiltrationlab/fliegendeholle/house_sparrow_m_i_img_7881.jpg
;
#X obj 30 19 inlet;
#X obj 24 156 outlet;
#X connect 0 0 2 0;
#X connect 1 0 0 0;
#X restore 405 74 pd pixit brd2;
#X obj 407 260 pix_texture;
#X floatatom 475 356 5 0 0 0 - - -;
#X floatatom 537 357 5 0 0 0 - - -;
#X obj 223 492 pix_composite;
#X obj 423 240 tgl 15 0 empty empty empty 17 7 0 10 -262144 -1 -1 0
1;
#X obj 409 376 rectangle 2.37 3.61;
#X obj 407 219 pix_duotone;
#X msg 449 181 1 0 0;
#X msg 510 193 0 0 1;
#X msg 423 152 0.2 0.1 0.2;
#X obj 546 159 pack f f f;
#X floatatom 549 122 5 0 0 0 - - -;
#X floatatom 590 120 5 0 0 0 - - -;
#X floatatom 630 122 5 0 0 0 - - -;
#X obj 231 521 pix_alpha;
#X obj 226 544 pix_sig2pix;
#X text 169 559 don't forget me I'm awesome;
#X obj 409 294 alpha;
#X obj 229 421 pix_gain;
#X obj 228 455 color;
#X text 200 473 use me (color) to colorize output geo!?;
#X obj 409 333 color 1 1 1 0.5;
#X floatatom 510 294 5 0 0 0 - - -;
#X msg 511 311 1 1 1 \$1;
#N canvas 63 187 565 520 sparrow1 0;
#X floatatom 195 84 5 0 0 0 - - -;
#X floatatom 236 84 5 0 0 0 - - -;
#X floatatom 278 86 5 0 0 0 - - -;
#X obj 173 157 pix_invert;
#X obj 179 139 tgl 15 0 empty empty empty 17 7 0 10 -262144 -1 -1 0
1;
#N canvas 0 0 450 300 pixit 0;
#X obj 25 52 pix_image /home/jason/infiltrationlab/fliegendeholle/house_sparrow_m_i_img_7881.jpg
;
#X obj 27 20 inlet;
#X obj 27 116 outlet;
#X connect 0 0 2 0;
#X connect 1 0 0 0;
#X restore 158 57 pd pixit sparrow;
#X obj 158 107 translateXYZ 0 0 0;
#X obj 158 37 gemhead 1;
#X floatatom 312 196 5 0 0 0 - - -;
#X obj 183 372 tgl 15 0 empty empty empty 17 7 0 10 -262144 -1 -1 1
1;
#X obj 175 396 pix_texture;
#X floatatom 204 429 5 0 0 0 - - -;
#X text 205 412 size;
#X obj 174 457 rectangle;
#X floatatom 245 428 5 0 0 0 - - -;
#X text 246 411 size;
#X obj 240 227 rotate 45 0 0 1;
#X obj 415 297 +~ 1;
#X obj 416 319 *~ 15;
#X obj 416 363 snapshot~;
#X obj 478 323 metro 50;
#X obj 415 341 +~ 15;
#X obj 478 299 tgl 15 0 empty empty empty 17 7 0 10 -262144 -1 -1 1
1;
#X obj 268 296 +~ 1;
#X obj 269 318 *~ 15;
#X obj 269 362 snapshot~;
#X obj 331 322 metro 50;
#X obj 268 340 +~ 15;
#X obj 331 303 tgl 15 0 empty empty empty 17 7 0 10 -262144 -1 -1 1
1;
#X obj 316 161 snapshot~;
#X obj 339 282 loadbang;
#X obj 495 272 loadbang;
#X obj 184 348 loadbang;
#X obj 324 108 +~ 0;
#X obj 323 136 *~ 360;
#X obj 322 88 phasor~ 0.005;
#X obj 268 268 osc~ 0.002;
#X obj 414 269 osc~ 0.005;
#X obj 6 6 cnv 15 83 58 empty empty empty 20 12 0 14 -233017 -66577
0;
#X obj 14 42 tgl 15 0 empty empty empty 17 7 0 10 -262144 -1 -1 1 1
;
#X text 34 41 enable;
#X text 12 24 background;
#X obj 101 8 loadbang;
#X msg 101 31 1;
#X connect 0 0 6 1;
#X connect 1 0 6 2;
#X connect 2 0 6 3;
#X connect 3 0 16 0;
#X connect 4 0 3 0;
#X connect 5 0 6 0;
#X connect 6 0 3 0;
#X connect 7 0 5 0;
#X connect 8 0 16 1;
#X connect 9 0 10 0;
#X connect 10 0 13 0;
#X connect 11 0 13 1;
#X connect 14 0 13 2;
#X connect 16 0 10 0;
#X connect 17 0 18 0;
#X connect 18 0 21 0;
#X connect 19 0 14 0;
#X connect 20 0 19 0;
#X connect 20 0 29 0;
#X connect 21 0 19 0;
#X connect 22 0 20 0;
#X connect 23 0 24 0;
#X connect 24 0 27 0;
#X connect 25 0 11 0;
#X connect 26 0 25 0;
#X connect 27 0 25 0;
#X connect 28 0 26 0;
#X connect 29 0 8 0;
#X connect 30 0 28 0;
#X connect 31 0 22 0;
#X connect 32 0 9 0;
#X connect 33 0 34 0;
#X connect 34 0 29 0;
#X connect 35 0 33 0;
#X connect 36 0 23 0;
#X connect 37 0 17 0;
#X connect 39 0 7 0;
#X connect 42 0 43 0;
#X connect 43 0 39 0;
#X coords 0 -1 1 1 85 60 1 5 5;
#X restore 15 58 pd sparrow1;
#X floatatom 523 64 5 0 0 0 - - -;
#X floatatom 498 41 5 0 0 0 - - -;
#X obj 407 98 translateXYZ 3.33 0 0;
#X msg 361 44 0;
#X msg 360 63 1;
#X obj 228 394 pix_draw;
#X obj 398 51 gemhead 2;
#X obj 228 359 pix_buf;
#X obj 226 335 pix_buffer;
#X obj 225 300 pix_snap2tex;
#X obj 225 273 gemframebuffer;
#X connect 1 0 0 0;
#X connect 2 0 0 0;
#X connect 3 0 0 0;
#X connect 4 0 0 0;
#X connect 5 0 0 0;
#X connect 6 0 7 0;
#X connect 7 0 3 0;
#X connect 7 1 1 0;
#X connect 7 2 4 0;
#X connect 8 0 36 0;
#X connect 9 0 26 0;
#X connect 10 0 14 1;
#X connect 11 0 14 2;
#X connect 13 0 9 0;
#X connect 15 0 9 0;
#X connect 16 0 15 2;
#X connect 17 0 15 3;
#X connect 18 0 15 1;
#X connect 19 0 15 1;
#X connect 20 0 19 0;
#X connect 21 0 19 1;
#X connect 22 0 19 2;
#X connect 26 0 30 0;
#X connect 30 0 14 0;
#X connect 31 0 32 0;
#X connect 32 0 30 1;
#X connect 34 0 36 2;
#X connect 35 0 36 1;
#X connect 36 0 15 0;
#X connect 37 0 40 0;
#X connect 38 0 40 0;
#X connect 40 0 8 0;
