#N canvas 299 294 762 605 10;
#X obj 36 453 sout~;
#X msg 11 84 bang;
#X floatatom 63 164 5 0 0 0 - - -;
#X obj 12 190 *~ 1500;
#X obj 11 113 adsr~ 250 1 0 50 100;
#N canvas 0 0 475 483 mbanger 0;
#X obj 76 195 random 100;
#X obj 155 196 random 100;
#X obj 240 196 random 100;
#X obj 319 197 random 100;
#X obj 76 246 moses 50;
#X obj 84 170 bng 15 250 50 0 empty empty empty 0 -6 0 8 -262144 -1
-1;
#X obj 163 167 bng 15 250 50 0 empty empty empty 0 -6 0 8 -262144 -1
-1;
#X obj 248 166 bng 15 250 50 0 empty empty empty 0 -6 0 8 -262144 -1
-1;
#X obj 326 165 bng 15 250 50 0 empty empty empty 0 -6 0 8 -262144 -1
-1;
#X obj 172 238 moses 25;
#X msg 152 103 bang;
#X msg 86 110 bang;
#X msg 239 104 bang;
#X msg 318 106 bang;
#X obj 156 145 delay 1500;
#X obj 76 145 delay 500;
#X obj 240 144 delay 150;
#X obj 318 142 delay 50;
#X obj 319 232 moses 75;
#X obj 32 332 outlet;
#X obj 246 233 moses 30;
#X obj 86 34 loadbang;
#X obj 177 292 moses 80;
#X connect 0 0 4 0;
#X connect 1 0 9 0;
#X connect 2 0 20 0;
#X connect 3 0 18 0;
#X connect 4 0 11 0;
#X connect 4 1 10 0;
#X connect 9 0 10 0;
#X connect 9 1 22 0;
#X connect 10 0 14 0;
#X connect 11 0 15 0;
#X connect 12 0 16 0;
#X connect 13 0 17 0;
#X connect 14 0 1 0;
#X connect 14 0 6 0;
#X connect 14 0 19 0;
#X connect 15 0 0 0;
#X connect 15 0 5 0;
#X connect 15 0 19 0;
#X connect 16 0 2 0;
#X connect 16 0 7 0;
#X connect 16 0 19 0;
#X connect 17 0 3 0;
#X connect 17 0 8 0;
#X connect 17 0 19 0;
#X connect 18 0 13 0;
#X connect 18 1 11 0;
#X connect 20 0 12 0;
#X connect 20 1 13 0;
#X connect 21 0 11 0;
#X connect 22 0 11 0;
#X connect 22 1 12 0;
#X restore 12 9 pd mbanger;
#X obj 101 435 loadbang;
#X obj 101 464 0.75;
#N canvas 0 0 450 300 ng1 0;
#X obj 94 50 osc~;
#X obj 71 106 dline~ 20 0.8;
#X obj 182 109 dline~ 22 0.8;
#X obj 95 22 inlet~;
#X obj 68 159 outlet~;
#X obj 184 159 outlet~;
#X connect 0 0 1 0;
#X connect 0 0 2 0;
#X connect 1 0 4 0;
#X connect 2 0 5 0;
#X connect 3 0 0 0;
#X restore 12 221 pd ng1;
#N canvas 0 0 450 300 ng2 0;
#X obj 71 106 dline~ 20 0.8;
#X obj 182 109 dline~ 22 0.8;
#X obj 95 22 inlet~;
#X obj 68 159 outlet~;
#X obj 184 159 outlet~;
#X obj 95 49 phasor~;
#X connect 0 0 3 0;
#X connect 1 0 4 0;
#X connect 2 0 5 0;
#X connect 5 0 0 0;
#X connect 5 0 1 0;
#X restore 68 221 pd ng2;
#X obj 41 52 spigot;
#X obj 88 28 tgl 15 0 empty empty empty 0 -6 0 8 -262144 -1 -1 0 1
;
#N canvas 0 0 450 300 mixtwo 0;
#X obj 57 161 *~;
#X obj 168 121 - 1;
#X obj 171 142 * -1;
#X obj 136 161 *~;
#X obj 176 32 inlet;
#X obj 36 32 inlet~;
#X obj 86 32 inlet~;
#X obj 173 66 clip 0 1;
#X obj 57 200 outlet~;
#X connect 0 0 8 0;
#X connect 1 0 2 0;
#X connect 2 0 3 1;
#X connect 3 0 8 0;
#X connect 4 0 7 0;
#X connect 5 0 0 0;
#X connect 6 0 3 0;
#X connect 7 0 1 0;
#X connect 7 0 0 1;
#X restore 28 299 pd mixtwo;
#N canvas 0 0 450 300 mixtwo 0;
#X obj 57 161 *~;
#X obj 168 121 - 1;
#X obj 171 142 * -1;
#X obj 136 161 *~;
#X obj 176 32 inlet;
#X obj 36 32 inlet~;
#X obj 86 32 inlet~;
#X obj 173 66 clip 0 1;
#X obj 57 200 outlet~;
#X connect 0 0 8 0;
#X connect 1 0 2 0;
#X connect 2 0 3 1;
#X connect 3 0 8 0;
#X connect 4 0 7 0;
#X connect 5 0 0 0;
#X connect 6 0 3 0;
#X connect 7 0 1 0;
#X connect 7 0 0 1;
#X restore 63 328 pd mixtwo;
#X obj 447 176 noise~;
#X obj 447 202 bp~ 100 10;
#X obj 121 305 wander 0 1 2000 4000;
#X obj 86 276 wander 0 1 2000 4000;
#X floatatom 541 180 5 0 0 0 - - -;
#X msg 551 95 bang;
#X obj 551 156 * 1000;
#X obj 548 130 adsr 100 1 0 50 10;
#X floatatom 582 246 5 0 0 0 - - -;
#X obj 472 278 dline~ 200 0.5;
#X obj 475 234 *~ 5;
#X obj 56 141 wander 40 150 500 5000;
#X connect 1 0 4 0;
#X connect 3 0 8 0;
#X connect 3 0 9 0;
#X connect 4 0 3 0;
#X connect 5 0 10 0;
#X connect 6 0 7 0;
#X connect 7 0 0 2;
#X connect 8 0 12 0;
#X connect 8 1 13 0;
#X connect 9 0 12 1;
#X connect 9 1 13 1;
#X connect 10 0 1 0;
#X connect 10 0 19 0;
#X connect 11 0 10 1;
#X connect 12 0 0 0;
#X connect 13 0 0 1;
#X connect 14 0 15 0;
#X connect 15 0 24 0;
#X connect 16 0 13 2;
#X connect 17 0 12 2;
#X connect 18 0 15 1;
#X connect 19 0 21 0;
#X connect 20 0 18 0;
#X connect 21 0 20 0;
#X connect 22 0 23 2;
#X connect 23 0 0 1;
#X connect 23 0 0 0;
#X connect 24 0 23 0;
#X connect 25 0 3 1;
#X connect 25 0 2 0;
