#N canvas 130 65 662 491 10;
#X obj 92 265 loadbang;
#X obj 95 290 1;
#N canvas 104 146 339 352 snare1 0;
#X obj 41 139 soundfiler;
#X obj 40 14 r dsdir;
#X obj 183 140 table snare1;
#X obj 41 323 outlet~;
#X obj 40 299 tabplay~ snare1;
#X msg 40 277 bang;
#X obj 68 105 print myopensays;
#X obj 41 41 l2s;
#X text 69 37 list to symbol from zexy;
#X msg 41 65 read -resize \$1/SNARES/Snare9.wav snare1;
#X obj 91 206 notein;
#X obj 92 233 select 7;
#X connect 1 0 7 0;
#X connect 4 0 3 0;
#X connect 5 0 4 0;
#X connect 7 0 9 0;
#X connect 9 0 0 0;
#X connect 9 0 6 0;
#X connect 10 0 11 0;
#X connect 11 0 5 0;
#X restore 46 123 pd snare1;
#X obj 168 17 loadbang;
#X obj 154 61 s dsdir;
#X obj 147 16 bng 15 250 50 0 empty empty empty 17 7 0 10 -262144 -1
-1;
#X msg 154 37 /home/jason/media/sounds/drum_samples/Yamaha RY-30;
#X obj 45 319 mout~;
#N canvas 495 0 758 507 kit-manager 0;
#X obj 102 41 symbol /home/jason/pd/drum_db/out;
#X msg 105 12 bang;
#X obj 152 12 loadbang;
#X obj 269 186 pack s s;
#X floatatom 42 157 5 0 0 0 - - -;
#X msg 101 116 \$1/master.txt;
#X obj 100 139 symbol;
#X obj 265 342 listitem;
#X floatatom 225 297 5 0 0 0 - - -;
#X text 20 142 which kit;
#X text 131 296 which soundfile;
#N canvas 28 131 463 437 preset 0;
#X obj 218 11 inlet;
#X obj 218 150 t b l;
#X obj 212 208 list-pad;
#X obj 212 179 8;
#X text 239 178 pad preset to length 8;
#X obj 46 313 list-itemset;
#X obj 196 237 t l l;
#X obj 57 26 inlet;
#X msg 48 78 \$1;
#X obj 137 147 \$0;
#X obj 51 58 unpack s f;
#X obj 167 147 + 1;
#X obj 97 253 print sex;
#X obj 106 79 t f b f;
#X obj 45 111 t a a;
#X obj 110 172 pack s f f;
#X msg 110 196 \; \$2-pre\$3 \$1;
#N canvas 504 446 502 404 autosaves 0;
#X obj 77 352 textfile;
#X obj 132 108 until;
#X msg 109 294 add \$1;
#X obj 57 17 inlet;
#X text 146 28 take a list \, write it to a file;
#X msg 185 111 reset;
#X msg 66 106 clear;
#X obj 101 54 t b l b b;
#X msg 131 82 9;
#X obj 345 26 inlet;
#X obj 87 266 listitem;
#X msg 126 326 write \$1 cr;
#X msg 175 216 bang;
#X obj 228 331 print addout:::;
#X obj 228 354 print savout:::;
#X obj 211 215 bng 15 250 50 0 empty empty empty 17 7 0 10 -262144
-1 -1;
#X obj 328 205 print SETTIN;
#X obj 214 242 list;
#X obj 363 73 print reggin;
#X obj 133 138 bangct;
#X obj 135 186 moses 9;
#X obj 16 175 print cleartxt;
#X obj 137 162 moses 1;
#X obj 88 235 - 1;
#X connect 1 0 19 0;
#X connect 2 0 0 0;
#X connect 2 0 13 0;
#X connect 3 0 7 0;
#X connect 5 0 19 0;
#X connect 6 0 0 0;
#X connect 6 0 21 0;
#X connect 7 0 8 0;
#X connect 7 1 10 1;
#X connect 7 2 6 0;
#X connect 7 3 5 0;
#X connect 8 0 1 0;
#X connect 9 0 17 1;
#X connect 9 0 18 0;
#X connect 10 0 2 0;
#X connect 11 0 14 0;
#X connect 11 0 0 0;
#X connect 12 0 17 0;
#X connect 17 0 11 0;
#X connect 17 0 16 0;
#X connect 19 0 22 0;
#X connect 20 0 23 0;
#X connect 20 1 12 0;
#X connect 20 1 15 0;
#X connect 22 1 20 0;
#X connect 23 0 10 0;
#X restore 97 388 pd autosaves;
#X obj 70 358 t l l;
#X obj 44 336 list append;
#X obj 222 102 t a a;
#X obj 219 80 makefilename %s.in;
#X obj 221 46 pack s;
#X obj 267 273 print justread;
#X obj 333 216 print inpre;
#N canvas 532 542 452 338 dispatch 0;
#X obj 62 11 inlet;
#X obj 66 157 listitem;
#X obj 43 89 until;
#X msg 43 70 8;
#X msg 143 275 \; \$2-pre\$3 \$1;
#X obj 142 250 pack s f f;
#X obj 167 228 \$0;
#X obj 157 158 + 1;
#X obj 139 113 bangct;
#X msg 136 92 reset;
#X obj 63 47 t b b l;
#X obj 157 183 t b f;
#X obj 134 136 t f f;
#X text 158 31 feeds symbols back to display when a preset is loaded
from disk;
#X msg 66 233 x;
#X text 15 236 fixme:;
#X text 10 252 this doesn't work;
#X obj 67 206 select 0;
#X connect 0 0 10 0;
#X connect 1 0 17 0;
#X connect 2 0 8 0;
#X connect 3 0 2 0;
#X connect 5 0 4 0;
#X connect 6 0 5 1;
#X connect 7 0 11 0;
#X connect 8 0 12 0;
#X connect 9 0 8 0;
#X connect 10 0 3 0;
#X connect 10 1 9 0;
#X connect 10 2 1 1;
#X connect 11 0 6 0;
#X connect 11 1 5 2;
#X connect 12 0 1 0;
#X connect 12 1 7 0;
#X connect 14 0 5 0;
#X connect 17 0 14 0;
#X connect 17 1 5 0;
#X restore 223 327 pd dispatch;
#X obj 218 130 filetolist;
#X connect 0 0 22 0;
#X connect 1 0 3 0;
#X connect 1 1 2 1;
#X connect 1 1 24 0;
#X connect 2 0 6 0;
#X connect 3 0 2 0;
#X connect 5 0 19 0;
#X connect 6 0 5 2;
#X connect 6 1 23 0;
#X connect 6 1 25 0;
#X connect 7 0 10 0;
#X connect 8 0 14 0;
#X connect 9 0 15 1;
#X connect 10 0 8 0;
#X connect 10 1 13 0;
#X connect 11 0 15 2;
#X connect 13 0 5 1;
#X connect 13 1 9 0;
#X connect 13 2 11 0;
#X connect 14 0 5 0;
#X connect 14 1 15 0;
#X connect 15 0 16 0;
#X connect 16 0 12 0;
#X connect 18 0 5 2;
#X connect 18 1 17 0;
#X connect 19 0 18 0;
#X connect 20 0 26 0;
#X connect 20 1 17 1;
#X connect 21 0 20 0;
#X connect 22 0 21 0;
#X connect 26 0 1 0;
#X restore 125 449 pd preset;
#X obj 122 407 pack s f;
#X floatatom 150 376 5 0 7 0 - - -;
#X text 79 375 preset slot;
#X obj 55 184 listitem;
#X obj 481 11 cnv 15 200 200 empty empty empty 20 12 0 14 -253754 -66577
0;
#X symbolatom 487 25 25 0 0 0 - #0-kitname -;
#X obj 55 210 s \$0-kitname;
#X text 325 185 basedir;
#X text 308 41 basedir;
#X floatatom 644 25 5 0 0 0 - #0-kitsize -;
#X obj 344 337 list length;
#X obj 344 356 s \$0-kitsize;
#X obj 101 95 r \$0-basedir;
#X obj 312 159 r \$0-basedir;
#X obj 103 63 s \$0-basedir;
#X obj 487 53 cnv 15 190 150 empty empty empty 20 12 0 14 -233278 -66577
0;
#X symbolatom 518 61 25 0 0 0 - - -;
#X symbolatom 518 78 25 0 0 0 - - -;
#X symbolatom 518 95 25 0 0 0 - - -;
#X symbolatom 518 112 25 0 0 0 - - -;
#X symbolatom 518 130 25 0 0 0 - - -;
#X symbolatom 518 147 25 0 0 0 - - -;
#X symbolatom 518 164 25 0 0 0 - - -;
#X symbolatom 518 181 25 0 0 0 - - -;
#X msg 283 213 \$2/\$1.txt;
#X obj 268 139 r \$0-kitname;
#X obj 130 326 loadbang;
#N canvas 720 463 511 362 sui 0;
#X obj 45 26 r \$0_boop;
#X obj 28 314 dac~;
#X msg 47 134 bang;
#X obj 32 215 *~;
#X obj 29 183 oscsq~ 50;
#X obj 46 157 adsr~ 5 0.8 25 25 5;
#X connect 0 0 2 0;
#X connect 2 0 5 0;
#X connect 3 0 1 0;
#X connect 3 0 1 1;
#X connect 4 0 3 0;
#X connect 5 0 3 1;
#X restore 553 277 pd sui;
#X obj 310 392 s \$0_boop;
#X msg 164 350 0;
#X text 533 262 beeps + clicks;
#N canvas 0 0 498 273 slot-sym 0;
#X obj 27 79 r \$0-pre1;
#X obj 27 99 l2s;
#X obj 25 215 outlet;
#X obj 72 215 outlet;
#X obj 118 215 outlet;
#X obj 164 216 outlet;
#X obj 208 215 outlet;
#X obj 255 215 outlet;
#X obj 301 215 outlet;
#X obj 347 216 outlet;
#X text 33 20 Grrrr...sending a message with spaces causes it to be
;
#X text 36 32 re-parsed or something \, so we have to reconvert here.
;
#X text 38 50 So lame.;
#X obj 92 101 l2s;
#X obj 158 97 l2s;
#X obj 223 97 l2s;
#X obj 169 156 l2s;
#X obj 234 158 l2s;
#X obj 300 154 l2s;
#X obj 365 154 l2s;
#X obj 92 81 r \$0-pre2;
#X obj 224 77 r \$0-pre4;
#X obj 158 77 r \$0-pre3;
#X obj 169 136 r \$0-pre5;
#X obj 235 138 r \$0-pre6;
#X obj 300 134 r \$0-pre7;
#X obj 366 133 r \$0-pre8;
#X obj 410 216 outlet;
#X obj 428 154 l2s;
#X obj 429 133 r \$0-pre9;
#X connect 0 0 1 0;
#X connect 1 0 2 0;
#X connect 13 0 3 0;
#X connect 14 0 4 0;
#X connect 15 0 5 0;
#X connect 16 0 6 0;
#X connect 17 0 7 0;
#X connect 18 0 8 0;
#X connect 19 0 9 0;
#X connect 20 0 13 0;
#X connect 21 0 15 0;
#X connect 22 0 14 0;
#X connect 23 0 16 0;
#X connect 24 0 17 0;
#X connect 25 0 18 0;
#X connect 26 0 19 0;
#X connect 28 0 27 0;
#X connect 29 0 28 0;
#X restore 405 31 pd slot-sym;
#X obj 283 254 t a a;
#X obj 308 279 list;
#X obj 42 480 hradio 10 1 0 50 \$0-kit empty empty 0 -8 0 10 -204800
-1 -1 0;
#X obj 35 103 r \$0-kit;
#X obj 310 313 filetolist;
#X obj 101 161 filetolist;
#X connect 0 0 26 0;
#X connect 1 0 0 0;
#X connect 2 0 0 0;
#X connect 3 0 36 0;
#X connect 4 0 15 0;
#X connect 5 0 6 0;
#X connect 6 0 49 0;
#X connect 7 0 12 0;
#X connect 7 1 40 0;
#X connect 8 0 7 0;
#X connect 12 0 11 0;
#X connect 13 0 12 1;
#X connect 15 0 18 0;
#X connect 22 0 23 0;
#X connect 24 0 5 0;
#X connect 25 0 3 1;
#X connect 36 0 44 0;
#X connect 37 0 3 0;
#X connect 38 0 41 0;
#X connect 41 0 12 1;
#X connect 43 0 28 0;
#X connect 43 1 29 0;
#X connect 43 2 30 0;
#X connect 43 3 31 0;
#X connect 43 4 32 0;
#X connect 43 5 33 0;
#X connect 43 6 34 0;
#X connect 43 7 35 0;
#X connect 44 0 11 1;
#X connect 44 1 45 0;
#X connect 45 0 48 0;
#X connect 47 0 4 0;
#X connect 48 0 7 1;
#X connect 48 0 22 0;
#X connect 49 0 15 1;
#X coords 0 -1 1 1 202 202 1 480 10;
#X restore 175 110 pd kit-manager;
#N canvas 574 25 493 338 vispad 0;
#X obj 21 21 cnv 15 180 100 empty empty empty 20 12 0 14 -99865 -66577
0;
#X obj 33 34 tgl 35 0 empty \$0-vp1 empty 17 7 0 10 -128992 -262144
-262144 0 1;
#X obj 73 34 tgl 35 0 empty \$0-vp2 empty 17 7 0 10 -128992 -262144
-262144 0 1;
#X obj 113 34 tgl 35 0 empty \$0-vp3 empty 17 7 0 10 -128992 -262144
-262144 0 1;
#X obj 153 34 tgl 35 0 empty \$0-vp4 empty 17 7 0 10 -128992 -262144
-262144 0 1;
#X obj 33 74 tgl 35 0 empty \$0-vp5 empty 17 7 0 10 -128992 -262144
-262144 0 1;
#X obj 73 74 tgl 35 0 empty \$0-vp6 empty 17 7 0 10 -128992 -262144
-262144 0 1;
#X obj 113 74 tgl 35 0 empty \$0-vp7 empty 17 7 0 10 -128992 -262144
-262144 0 1;
#X obj 153 74 tgl 35 0 empty \$0-vp8 empty 17 7 0 10 -128992 -262144
-262144 0 1;
#N canvas 276 286 671 505 hit 0;
#X msg 35 202 \; \$1-vp1 color \$2 \$3 \$4;
#X obj 33 85 pack f 20 0 0;
#X obj 33 65 \$0;
#X msg 33 45 bang;
#X obj 35 235 print isays;
#X obj 65 158 \$0;
#X obj 65 178 pack f 11 0 0;
#X obj 33 113 t b l;
#X obj 65 138 delay 80;
#X obj 178 84 pack f 20 0 0;
#X obj 178 64 \$0;
#X msg 178 44 bang;
#X obj 180 234 print isays;
#X obj 210 157 \$0;
#X obj 210 177 pack f 11 0 0;
#X obj 178 112 t b l;
#X obj 210 137 delay 80;
#X msg 180 201 \; \$1-vp2 color \$2 \$3 \$4;
#X obj 326 84 pack f 20 0 0;
#X obj 326 64 \$0;
#X msg 326 44 bang;
#X obj 328 234 print isays;
#X obj 358 157 \$0;
#X obj 358 177 pack f 11 0 0;
#X obj 326 112 t b l;
#X obj 358 137 delay 80;
#X msg 328 201 \; \$1-vp3 color \$2 \$3 \$4;
#X obj 472 82 pack f 20 0 0;
#X obj 472 62 \$0;
#X msg 472 42 bang;
#X obj 474 232 print isays;
#X obj 504 155 \$0;
#X obj 504 175 pack f 11 0 0;
#X obj 472 110 t b l;
#X obj 504 135 delay 80;
#X msg 474 199 \; \$1-vp4 color \$2 \$3 \$4;
#X obj 38 308 pack f 20 0 0;
#X obj 38 288 \$0;
#X msg 38 268 bang;
#X obj 40 458 print isays;
#X obj 70 381 \$0;
#X obj 70 401 pack f 11 0 0;
#X obj 38 336 t b l;
#X obj 70 361 delay 80;
#X obj 183 307 pack f 20 0 0;
#X obj 183 287 \$0;
#X msg 183 267 bang;
#X obj 185 457 print isays;
#X obj 215 380 \$0;
#X obj 215 400 pack f 11 0 0;
#X obj 183 335 t b l;
#X obj 215 360 delay 80;
#X obj 331 307 pack f 20 0 0;
#X obj 331 287 \$0;
#X msg 331 267 bang;
#X obj 333 457 print isays;
#X obj 363 380 \$0;
#X obj 363 400 pack f 11 0 0;
#X obj 331 335 t b l;
#X obj 363 360 delay 80;
#X obj 477 305 pack f 20 0 0;
#X obj 477 285 \$0;
#X msg 477 265 bang;
#X obj 479 455 print isays;
#X obj 509 378 \$0;
#X obj 509 398 pack f 11 0 0;
#X obj 477 333 t b l;
#X obj 509 358 delay 80;
#X msg 38 425 \; \$1-vp5 color \$2 \$3 \$4;
#X msg 185 424 \; \$1-vp6 color \$2 \$3 \$4;
#X msg 333 424 \; \$1-vp7 color \$2 \$3 \$4;
#X msg 479 422 \; \$1-vp8 color \$2 \$3 \$4;
#X obj 378 262 notein 1;
#X obj 517 264 notein 1;
#X obj 80 37 notein 1;
#X obj 80 55 select 0;
#X obj 228 43 notein 1;
#X obj 228 61 select 1;
#X obj 371 40 notein 1;
#X obj 371 58 select 2;
#X obj 517 40 notein 1;
#X obj 517 58 select 3;
#X obj 80 266 notein 1;
#X obj 80 284 select 4;
#X obj 225 267 notein 1;
#X obj 227 285 select 5;
#X obj 378 280 select 6;
#X obj 517 282 select 7;
#X connect 0 0 4 0;
#X connect 1 0 7 0;
#X connect 2 0 1 0;
#X connect 3 0 2 0;
#X connect 5 0 6 0;
#X connect 6 0 0 0;
#X connect 7 0 8 0;
#X connect 7 1 0 0;
#X connect 8 0 5 0;
#X connect 9 0 15 0;
#X connect 10 0 9 0;
#X connect 11 0 10 0;
#X connect 13 0 14 0;
#X connect 14 0 17 0;
#X connect 15 0 16 0;
#X connect 15 1 17 0;
#X connect 16 0 13 0;
#X connect 17 0 12 0;
#X connect 18 0 24 0;
#X connect 19 0 18 0;
#X connect 20 0 19 0;
#X connect 22 0 23 0;
#X connect 23 0 26 0;
#X connect 24 0 25 0;
#X connect 24 1 26 0;
#X connect 25 0 22 0;
#X connect 26 0 21 0;
#X connect 27 0 33 0;
#X connect 28 0 27 0;
#X connect 29 0 28 0;
#X connect 31 0 32 0;
#X connect 32 0 35 0;
#X connect 33 0 34 0;
#X connect 33 1 35 0;
#X connect 34 0 31 0;
#X connect 35 0 30 0;
#X connect 36 0 42 0;
#X connect 37 0 36 0;
#X connect 38 0 37 0;
#X connect 40 0 41 0;
#X connect 41 0 68 0;
#X connect 42 0 43 0;
#X connect 42 1 68 0;
#X connect 43 0 40 0;
#X connect 44 0 50 0;
#X connect 45 0 44 0;
#X connect 46 0 45 0;
#X connect 48 0 49 0;
#X connect 49 0 69 0;
#X connect 50 0 51 0;
#X connect 50 1 69 0;
#X connect 51 0 48 0;
#X connect 52 0 58 0;
#X connect 53 0 52 0;
#X connect 54 0 53 0;
#X connect 56 0 57 0;
#X connect 57 0 70 0;
#X connect 58 0 59 0;
#X connect 58 1 70 0;
#X connect 59 0 56 0;
#X connect 60 0 66 0;
#X connect 61 0 60 0;
#X connect 62 0 61 0;
#X connect 64 0 65 0;
#X connect 65 0 71 0;
#X connect 66 0 67 0;
#X connect 66 1 71 0;
#X connect 67 0 64 0;
#X connect 68 0 39 0;
#X connect 69 0 47 0;
#X connect 70 0 55 0;
#X connect 71 0 63 0;
#X connect 72 0 86 0;
#X connect 73 0 87 0;
#X connect 74 0 75 0;
#X connect 75 0 3 0;
#X connect 76 0 77 0;
#X connect 77 0 11 0;
#X connect 78 0 79 0;
#X connect 79 0 20 0;
#X connect 80 0 81 0;
#X connect 81 0 29 0;
#X connect 82 0 83 0;
#X connect 83 0 38 0;
#X connect 84 0 85 0;
#X connect 85 0 46 0;
#X connect 86 0 54 0;
#X connect 87 0 62 0;
#X restore 273 55 pd hit my xex color party;
#X coords 0 -1 1 1 182 102 1 20 20;
#X restore 391 111 pd vispad;
#X connect 0 0 1 0;
#X connect 1 0 7 1;
#X connect 2 0 7 0;
#X connect 3 0 6 0;
#X connect 5 0 6 0;
#X connect 6 0 4 0;
