#N canvas 130 247 662 535 10;
#X obj 168 271 loadbang;
#X obj 171 296 1;
#N canvas 133 138 339 352 snare1 0;
#X obj 41 139 soundfiler;
#X obj 40 14 r dsdir;
#X obj 183 140 table snare1;
#X obj 41 323 outlet~;
#X obj 40 299 tabplay~ snare1;
#X msg 40 277 bang;
#X obj 68 105 print myopensays;
#X obj 41 41 l2s;
#X text 69 37 list to symbol from zexy;
#X msg 41 65 read -resize \$1/SNARES/Snare9.wav snare1;
#X obj 91 206 notein;
#X obj 92 233 select 7;
#X connect 1 0 7 0;
#X connect 4 0 3 0;
#X connect 5 0 4 0;
#X connect 7 0 9 0;
#X connect 9 0 0 0;
#X connect 9 0 6 0;
#X connect 10 0 11 0;
#X connect 11 0 5 0;
#X restore 44 129 pd snare1;
#X obj 337 36 loadbang;
#X obj 323 80 s dsdir;
#X obj 316 35 bng 15 250 50 0 empty empty empty 17 7 0 10 -262144 -1
-1;
#X msg 323 56 /home/jason/media/sounds/drum_samples/Yamaha RY-30;
#X obj 121 325 mout~;
#N canvas 106 101 339 352 snare2 0;
#X obj 41 139 soundfiler;
#X obj 40 14 r dsdir;
#X obj 41 323 outlet~;
#X msg 40 277 bang;
#X obj 68 105 print myopensays;
#X obj 41 41 l2s;
#X text 69 37 list to symbol from zexy;
#X obj 91 206 notein;
#X obj 183 140 table snare2;
#X obj 92 233 select 5;
#X obj 38 300 tabplay~ snare2;
#X msg 41 65 read -resize \$1/SNARES/Snare11.wav snare2;
#X connect 1 0 5 0;
#X connect 3 0 10 0;
#X connect 5 0 11 0;
#X connect 7 0 9 0;
#X connect 9 0 3 0;
#X connect 10 0 2 0;
#X connect 11 0 0 0;
#X connect 11 0 4 0;
#X restore 106 129 pd snare2;
#N canvas 106 101 339 352 crash1 0;
#X obj 41 139 soundfiler;
#X obj 40 14 r dsdir;
#X obj 41 323 outlet~;
#X msg 40 277 bang;
#X obj 68 105 print myopensays;
#X obj 41 41 l2s;
#X text 69 37 list to symbol from zexy;
#X obj 91 206 notein;
#X obj 185 140 table crash1;
#X obj 38 300 tabplay~ crash1;
#X obj 91 232 select 6;
#X msg 40 64 read -resize \$1/CYMBALS/Crash1.wav crash1;
#X connect 1 0 5 0;
#X connect 3 0 9 0;
#X connect 5 0 11 0;
#X connect 7 0 10 0;
#X connect 9 0 2 0;
#X connect 10 0 3 0;
#X connect 11 0 0 0;
#X connect 11 0 4 0;
#X restore 217 129 pd crash1;
#N canvas 106 101 339 352 hat1 0;
#X obj 41 195 soundfiler;
#X obj 40 14 r dsdir;
#X obj 41 323 outlet~;
#X msg 40 277 bang;
#X obj 52 172 print myopensays;
#X obj 41 41 l2s;
#X text 69 37 list to symbol from zexy;
#X obj 39 226 notein;
#X obj 221 313 table hat1;
#X obj 38 300 tabplay~ hat1;
#X obj 40 252 select 0;
#X msg 41 80 \$1/CYMBALS/Hat Pedal-01.wav;
#X obj 46 118 l2s;
#X msg 43 146 read -resize \$1 hat1;
#X connect 1 0 5 0;
#X connect 3 0 9 0;
#X connect 5 0 11 0;
#X connect 7 0 10 0;
#X connect 9 0 2 0;
#X connect 10 0 3 0;
#X connect 11 0 12 0;
#X connect 12 0 13 0;
#X connect 13 0 0 0;
#X connect 13 0 4 0;
#X restore 167 130 pd hat1;
#N canvas 106 101 339 352 bass1 0;
#X obj 38 185 soundfiler;
#X obj 40 14 r dsdir;
#X obj 41 323 outlet~;
#X msg 40 277 bang;
#X obj 49 162 print myopensays;
#X obj 41 41 l2s;
#X text 69 37 list to symbol from zexy;
#X obj 39 226 notein;
#X obj 39 106 l2s;
#X obj 221 313 table bass1;
#X msg 40 136 read -resize \$1 bass1;
#X obj 38 300 tabplay~ bass1;
#X obj 40 252 select 3;
#X msg 41 79 \$1/BASSDRUM/Bassdrum-01.wav;
#X connect 1 0 5 0;
#X connect 3 0 11 0;
#X connect 5 0 13 0;
#X connect 7 0 12 0;
#X connect 8 0 10 0;
#X connect 10 0 0 0;
#X connect 10 0 4 0;
#X connect 11 0 2 0;
#X connect 12 0 3 0;
#X connect 13 0 8 0;
#X restore 236 181 pd bass1;
#N canvas 148 112 339 352 bass2 0;
#X obj 38 185 soundfiler;
#X obj 40 14 r dsdir;
#X obj 41 323 outlet~;
#X msg 40 277 bang;
#X obj 49 162 print myopensays;
#X obj 41 41 l2s;
#X text 69 37 list to symbol from zexy;
#X obj 39 226 notein;
#X obj 39 106 l2s;
#X msg 42 79 \$1/BASSDRUM/Bassdrum-02.wav;
#X obj 223 313 table bass2;
#X msg 40 136 read -resize \$1 bass2;
#X obj 38 300 tabplay~ bass2;
#X obj 40 252 select 1;
#X connect 1 0 5 0;
#X connect 3 0 12 0;
#X connect 5 0 9 0;
#X connect 7 0 13 0;
#X connect 8 0 11 0;
#X connect 9 0 8 0;
#X connect 11 0 0 0;
#X connect 11 0 4 0;
#X connect 12 0 2 0;
#X connect 13 0 3 0;
#X restore 293 182 pd bass2;
#N canvas 148 112 339 352 misc1 0;
#X obj 38 185 soundfiler;
#X obj 40 14 r dsdir;
#X obj 41 323 outlet~;
#X msg 40 277 bang;
#X obj 49 162 print myopensays;
#X obj 41 41 l2s;
#X text 69 37 list to symbol from zexy;
#X obj 39 226 notein;
#X obj 39 106 l2s;
#X msg 42 79 \$1/Misc/Pipe.wav;
#X obj 223 313 table misc1;
#X obj 38 300 tabplay~ misc1;
#X msg 40 136 read -resize \$1 misc1;
#X obj 40 252 select 4;
#X connect 1 0 5 0;
#X connect 3 0 11 0;
#X connect 5 0 9 0;
#X connect 7 0 13 0;
#X connect 8 0 12 0;
#X connect 9 0 8 0;
#X connect 11 0 2 0;
#X connect 12 0 0 0;
#X connect 12 0 4 0;
#X connect 13 0 3 0;
#X restore 349 183 pd misc1;
#N canvas 148 112 339 352 misc2 0;
#X obj 38 185 soundfiler;
#X obj 40 14 r dsdir;
#X obj 41 323 outlet~;
#X msg 40 277 bang;
#X obj 49 162 print myopensays;
#X obj 41 41 l2s;
#X text 69 37 list to symbol from zexy;
#X obj 39 226 notein;
#X obj 39 106 l2s;
#X obj 38 300 tabplay~ misc2;
#X obj 40 252 select 2;
#X obj 223 313 table misc2;
#X msg 40 136 read -resize \$1 misc2;
#X msg 42 79 \$1/Percussion/Cowbell-01.wav;
#X connect 1 0 5 0;
#X connect 3 0 9 0;
#X connect 5 0 13 0;
#X connect 7 0 10 0;
#X connect 8 0 12 0;
#X connect 9 0 2 0;
#X connect 10 0 3 0;
#X connect 12 0 0 0;
#X connect 12 0 4 0;
#X connect 13 0 8 0;
#X restore 407 182 pd misc2;
#X connect 0 0 1 0;
#X connect 1 0 7 1;
#X connect 2 0 7 0;
#X connect 3 0 6 0;
#X connect 5 0 6 0;
#X connect 6 0 4 0;
#X connect 8 0 7 0;
#X connect 9 0 7 0;
#X connect 10 0 7 0;
#X connect 11 0 7 0;
#X connect 12 0 7 0;
#X connect 13 0 7 0;
#X connect 14 0 7 0;
