#N canvas 130 65 662 491 10;
#X obj 168 271 loadbang;
#X obj 171 296 1;
#N canvas 133 138 339 352 snare1 0;
#X obj 41 139 soundfiler;
#X obj 40 14 r dsdir;
#X obj 183 140 table snare1;
#X obj 41 323 outlet~;
#X obj 40 299 tabplay~ snare1;
#X msg 40 277 bang;
#X obj 68 105 print myopensays;
#X obj 41 41 l2s;
#X text 69 37 list to symbol from zexy;
#X msg 41 65 read -resize \$1/SNARES/Snare9.wav snare1;
#X obj 91 206 notein;
#X obj 92 233 select 7;
#X connect 1 0 7 0;
#X connect 4 0 3 0;
#X connect 5 0 4 0;
#X connect 7 0 9 0;
#X connect 9 0 0 0;
#X connect 9 0 6 0;
#X connect 10 0 11 0;
#X connect 11 0 5 0;
#X restore 122 129 pd snare1;
#X obj 337 36 loadbang;
#X obj 323 80 s dsdir;
#X obj 316 35 bng 15 250 50 0 empty empty empty 17 7 0 10 -262144 -1
-1;
#X msg 323 56 /home/jason/media/sounds/drum_samples/Yamaha RY-30;
#X obj 121 325 mout~;
#N canvas 495 0 758 507 kit-manager 0;
#X obj 102 41 symbol /home/jason/pd/drum_db/out;
#X msg 105 12 bang;
#X obj 152 12 loadbang;
#X obj 269 219 pack s s;
#X obj 103 64 t s s;
#X floatatom 50 128 5 0 0 0 - - -;
#X msg 103 85 \$1/master.txt;
#X obj 102 108 symbol;
#X obj 310 313 filetolist;
#X obj 265 342 listitem;
#X floatatom 225 297 5 0 0 0 - - -;
#X obj 265 442 print file;
#X msg 283 246 \$2/\$1;
#X obj 283 266 symbol;
#X obj 103 130 filetolist;
#X obj 283 287 t s s;
#X text 22 111 which kit;
#X text 131 296 which soundfile;
#N canvas 0 0 463 437 preset 0;
#X obj 218 28 inlet;
#X msg 218 53 \$1.in;
#X obj 218 96 filetolist;
#X obj 218 74 symbol;
#X obj 223 265 list;
#X obj 220 125 t b l;
#X obj 212 183 list-pad;
#X obj 212 154 8;
#X obj 73 357 textfile;
#X text 239 153 pad preset to length 8;
#X obj 105 265 list-itemset;
#X obj 196 212 t l l;
#X obj 57 26 inlet;
#X obj 52 59 unpack s f;
#X obj 97 312 print PURDY;
#X connect 0 0 1 0;
#X connect 1 0 3 0;
#X connect 2 0 5 0;
#X connect 3 0 2 0;
#X connect 5 0 7 0;
#X connect 5 1 6 1;
#X connect 6 0 11 0;
#X connect 7 0 6 0;
#X connect 10 0 14 0;
#X connect 11 0 10 2;
#X connect 11 1 4 1;
#X connect 12 0 13 0;
#X connect 13 0 10 0;
#X connect 13 1 10 1;
#X restore 125 449 pd preset;
#X obj 145 370 pack s f;
#X floatatom 173 339 5 0 0 0 - - -;
#X text 102 338 preset slot;
#X obj 57 153 listitem;
#X obj 316 374 bng 15 250 50 0 empty empty empty 17 7 0 10 -262144
-1 -1;
#X obj 481 11 cnv 15 200 200 empty empty empty 20 12 0 14 -253754 -66577
0;
#X symbolatom 518 27 25 0 0 0 - #0-kitname -;
#X obj 57 179 s \$0-kitname;
#X symbolatom 518 50 25 0 0 0 - #0-pre1 -;
#X symbolatom 518 67 25 0 0 0 - #0-pre2 -;
#X symbolatom 518 84 25 0 0 0 - #0-pre3 -;
#X symbolatom 518 101 25 0 0 0 - #0-pre4 -;
#X symbolatom 518 119 25 0 0 0 - #0-pre5 -;
#X symbolatom 518 136 25 0 0 0 - #0-pre6 -;
#X symbolatom 518 153 25 0 0 0 - #0-pre7 -;
#X symbolatom 518 170 25 0 0 0 - #0-pre8 -;
#X text 325 218 basedir;
#X text 308 41 basedir;
#X connect 0 0 4 0;
#X connect 1 0 0 0;
#X connect 2 0 0 0;
#X connect 3 0 12 0;
#X connect 4 0 6 0;
#X connect 4 1 3 1;
#X connect 5 0 22 0;
#X connect 6 0 7 0;
#X connect 7 0 14 0;
#X connect 8 0 9 1;
#X connect 9 0 11 0;
#X connect 9 0 19 0;
#X connect 9 1 23 0;
#X connect 10 0 9 0;
#X connect 12 0 13 0;
#X connect 13 0 15 0;
#X connect 14 0 22 1;
#X connect 15 0 18 1;
#X connect 15 1 8 0;
#X connect 19 0 18 0;
#X connect 20 0 19 1;
#X connect 22 0 3 0;
#X connect 22 0 26 0;
#X coords 0 -1 1 1 202 202 1 480 10;
#X restore 318 142 pd kit-manager;
#X connect 0 0 1 0;
#X connect 1 0 7 1;
#X connect 2 0 7 0;
#X connect 3 0 6 0;
#X connect 5 0 6 0;
#X connect 6 0 4 0;
