#N canvas 6 406 648 514 10;
#X obj 58 14 adc~;
#X obj 201 485 dac~;
#X obj 102 303 tabplay~;
#X obj 106 256 pack s;
#X msg 106 276 set \$1;
#X obj 25 294 bng 15 250 50 0 empty empty empty 0 -6 0 8 -262144 -1
-1;
#X obj 144 325 bng 15 250 50 0 empty empty empty 0 -6 0 8 -262144 -1
-1;
#X floatatom 37 223 5 0 0 0 - - -;
#X obj 7 230 bng 15 250 50 0 empty empty empty 0 -6 0 8 -262144 -1
-1;
#X msg 8 200 stop;
#X obj 69 385 *~;
#X obj 104 385 *~;
#X obj 9 348 line~;
#X msg 10 323 0 \, 1 5;
#N canvas 472 123 523 640 playgrainstain 0;
#X obj 54 29 inlet;
#X obj 97 30 inlet;
#X obj 153 29 inlet;
#X obj 17 142 symbol;
#X obj 66 142 symbol;
#X text 51 14 sym1;
#X text 99 12 sym2;
#X text 164 14 t;
#X obj 229 34 inlet;
#X text 228 16 phase sync;
#X obj 352 31 inlet;
#X text 350 14 start/stop;
#X msg 16 122 bang;
#X msg 65 121 bang;
#X obj 187 83 delay;
#X obj 17 235 pack s;
#X msg 17 258 set \$1;
#X obj 18 601 outlet~;
#X text 22 275 choose which tbl;
#N canvas 150 218 343 469 asr_play 0;
#X obj 27 208 tabplay~;
#X msg 93 58 bang;
#X obj 92 378 line~;
#X obj 26 401 *~;
#X msg 92 359 0 \, 1 \$1;
#X floatatom 234 60 5 0 0 0 - - -;
#X obj 92 339 f;
#X msg 151 360 0 \$1;
#X obj 152 339 f;
#X obj 152 285 delay;
#X floatatom 221 272 5 0 0 0 - - -;
#X obj 210 249 -;
#X obj 227 223 f;
#X obj 200 223 f;
#X obj 60 98 bng 15 250 50 0 empty empty empty 0 -6 0 8 -262144 -1
-1;
#X obj 179 307 bng 15 250 50 0 empty empty empty 0 -6 0 8 -262144 -1
-1;
#X obj 92 33 inlet;
#X obj 27 33 inlet;
#X obj 27 424 outlet~;
#X text 91 14 start;
#X obj 148 29 inlet;
#X text 23 18 tbl set;
#X obj 211 36 inlet;
#X text 158 13 t;
#X floatatom 168 56 5 0 0 0 - - -;
#X text 207 19 rise/fall time;
#X text 238 257 comment;
#X obj 243 196 * 2;
#X connect 0 0 3 0;
#X connect 1 0 0 0;
#X connect 1 0 6 0;
#X connect 1 0 13 0;
#X connect 1 0 12 0;
#X connect 1 0 9 0;
#X connect 1 0 14 0;
#X connect 2 0 3 1;
#X connect 3 0 18 0;
#X connect 4 0 2 0;
#X connect 6 0 4 0;
#X connect 7 0 2 0;
#X connect 8 0 7 0;
#X connect 9 0 15 0;
#X connect 9 0 8 0;
#X connect 11 0 10 0;
#X connect 11 0 9 1;
#X connect 12 0 11 1;
#X connect 13 0 11 0;
#X connect 16 0 1 0;
#X connect 17 0 0 0;
#X connect 20 0 24 0;
#X connect 20 0 13 1;
#X connect 22 0 6 1;
#X connect 22 0 8 1;
#X connect 22 0 5 0;
#X connect 22 0 27 0;
#X connect 27 0 12 1;
#X restore 17 534 pd asr_play;
#X floatatom 147 447 5 0 0 0 - - -;
#X msg 206 316 bang;
#X obj 218 426 delay;
#X obj 223 452 bng 15 250 50 0 empty empty empty 0 -6 0 8 -262144 -1
-1;
#X obj 270 313 f;
#X floatatom 352 290 5 0 0 0 - - -;
#X text 349 275 overlappage;
#X obj 271 351 -;
#X floatatom 288 379 5 0 0 0 - - -;
#X obj 276 452 delay;
#X obj 276 474 bng 15 250 50 0 empty empty empty 0 -6 0 8 -262144 -1
-1;
#X msg 325 165 bang;
#X obj 206 244 spigot;
#X msg 250 176 1;
#X msg 283 176 0;
#N canvas 150 218 343 469 asr_play 0;
#X obj 27 208 tabplay~;
#X msg 93 58 bang;
#X obj 92 378 line~;
#X obj 26 401 *~;
#X msg 92 359 0 \, 1 \$1;
#X floatatom 234 60 5 0 0 0 - - -;
#X obj 92 339 f;
#X msg 151 360 0 \$1;
#X obj 152 339 f;
#X obj 152 285 delay;
#X floatatom 221 272 5 0 0 0 - - -;
#X obj 210 249 -;
#X obj 227 223 f;
#X obj 200 223 f;
#X obj 60 98 bng 15 250 50 0 empty empty empty 0 -6 0 8 -262144 -1
-1;
#X obj 179 307 bng 15 250 50 0 empty empty empty 0 -6 0 8 -262144 -1
-1;
#X obj 92 33 inlet;
#X obj 27 33 inlet;
#X obj 27 424 outlet~;
#X text 91 14 start;
#X obj 148 29 inlet;
#X text 23 18 tbl set;
#X obj 211 36 inlet;
#X text 158 13 t;
#X floatatom 168 56 5 0 0 0 - - -;
#X text 207 19 rise/fall time;
#X text 238 257 comment;
#X obj 243 196 * 2;
#X obj 147 426 print;
#X connect 0 0 3 0;
#X connect 1 0 0 0;
#X connect 1 0 6 0;
#X connect 1 0 13 0;
#X connect 1 0 12 0;
#X connect 1 0 9 0;
#X connect 1 0 14 0;
#X connect 2 0 3 1;
#X connect 3 0 18 0;
#X connect 4 0 2 0;
#X connect 6 0 4 0;
#X connect 7 0 2 0;
#X connect 8 0 7 0;
#X connect 9 0 15 0;
#X connect 9 0 8 0;
#X connect 11 0 10 0;
#X connect 11 0 9 1;
#X connect 12 0 11 1;
#X connect 13 0 11 0;
#X connect 16 0 1 0;
#X connect 17 0 0 0;
#X connect 20 0 24 0;
#X connect 20 0 13 1;
#X connect 22 0 6 1;
#X connect 22 0 8 1;
#X connect 22 0 5 0;
#X connect 22 0 27 0;
#X connect 27 0 12 1;
#X restore 159 539 pd asr_play;
#X connect 0 0 3 1;
#X connect 1 0 4 1;
#X connect 2 0 14 1;
#X connect 2 0 19 2;
#X connect 2 0 24 1;
#X connect 2 0 35 2;
#X connect 3 0 15 0;
#X connect 4 0 15 0;
#X connect 8 0 14 0;
#X connect 8 0 13 0;
#X connect 10 0 31 0;
#X connect 12 0 3 0;
#X connect 13 0 4 0;
#X connect 14 0 12 0;
#X connect 15 0 16 0;
#X connect 16 0 19 0;
#X connect 16 0 35 0;
#X connect 19 0 17 0;
#X connect 20 0 19 3;
#X connect 20 0 35 3;
#X connect 21 0 19 1;
#X connect 21 0 22 0;
#X connect 21 0 24 0;
#X connect 21 0 33 0;
#X connect 22 0 23 0;
#X connect 22 0 29 0;
#X connect 22 0 35 1;
#X connect 24 0 27 0;
#X connect 25 0 27 1;
#X connect 27 0 22 1;
#X connect 27 0 28 0;
#X connect 27 0 29 1;
#X connect 29 0 30 0;
#X connect 29 0 32 0;
#X connect 31 0 21 0;
#X connect 32 0 21 0;
#X connect 33 0 32 1;
#X connect 34 0 32 1;
#X connect 35 0 17 0;
#X restore 147 211 pd playgrainstain;
#X obj 195 148 bng 15 250 50 0 empty empty empty 0 -6 0 8 -262144 -1
-1;
#X obj 177 101 bng 15 250 50 0 empty empty empty 0 -6 0 8 -262144 -1
-1;
#X msg 197 101 0;
#X msg 229 101 1;
#X floatatom 144 72 5 0 0 0 - - -;
#X obj 289 10 keybang n;
#X obj 17 254 metro 150;
#X obj 112 134 ctable 300;
#X obj 190 443 *~;
#X obj 217 444 *~;
#X obj 231 418 hsl 128 15 0 1 0 0 empty empty empty -2 -6 0 8 -262144
-1 -1 3900 1;
#X floatatom 250 443 5 0 0 0 - - -;
#X connect 0 0 22 0;
#X connect 2 0 10 0;
#X connect 2 0 11 0;
#X connect 2 1 6 0;
#X connect 3 0 4 0;
#X connect 4 0 2 0;
#X connect 7 0 21 1;
#X connect 8 0 21 0;
#X connect 9 0 21 0;
#X connect 10 0 23 0;
#X connect 11 0 24 0;
#X connect 12 0 10 1;
#X connect 12 0 11 1;
#X connect 13 0 12 0;
#X connect 14 0 24 0;
#X connect 14 0 23 0;
#X connect 16 0 22 2;
#X connect 17 0 22 2;
#X connect 18 0 22 2;
#X connect 19 0 14 2;
#X connect 19 0 22 1;
#X connect 20 0 16 0;
#X connect 20 0 14 4;
#X connect 21 0 2 0;
#X connect 21 0 13 0;
#X connect 22 0 3 0;
#X connect 22 0 14 0;
#X connect 22 1 14 1;
#X connect 22 2 15 0;
#X connect 22 2 14 3;
#X connect 23 0 1 0;
#X connect 24 0 1 1;
#X connect 25 0 24 1;
#X connect 25 0 23 1;
#X connect 25 0 26 0;
