#N struct awf-template-$0 float x float y float h;
#N canvas 17 22 558 598 10;
#X obj -364 424 sout~;
#X msg -364 110 midibase 40;
#X msg -153 113 midibase 80;
#X msg -323 78 loadfile \$1;
#X obj -323 56 openpanel;
#X msg -323 35 bang;
#X obj -364 138 granubench~;
#X msg -244 44 savefile /tmp/test.wav;
#X obj -153 139 granubench~;
#X connect 1 0 6 0;
#X connect 2 0 8 0;
#X connect 3 0 6 0;
#X connect 4 0 3 0;
#X connect 5 0 4 0;
#X connect 6 0 0 0;
#X connect 6 1 0 1;
#X connect 7 0 6 0;
#X connect 8 0 0 0;
#X connect 8 1 0 1;
