#N struct awf-template-$0 float x float y float h;
#N canvas 108 30 682 733 12;
#X obj 349 36 soundfiler;
#N canvas 0 0 450 300 graph1 0;
#X array snd 4e+006 float 2;
#X coords 0 1 4e+006 -1 600 140 1;
#X restore 40 90 graph;
#X msg 348 11 read -resize /temp/mittageisen.wav snd;
#X obj 49 556 mout~;
#X obj 432 351 f;
#X floatatom 355 60 5 0 0 0 - - -;
#X floatatom 456 261 5 0 0 0 - - -;
#X floatatom 485 339 5 0 0 0 - - -;
#X obj 456 311 *;
#X msg 408 302 bang;
#X obj 429 385 tabplay~ snd;
#X obj 563 273 samplerate~;
#X obj 512 244 loadbang;
#X msg 588 243 bang;
#X msg 359 275 stop;
#X obj 31 239 granubench~;
#X obj 263 497 bng 15 250 50 0 empty empty empty 0 -6 0 8 -262144 -1
-1;
#X obj 415 499 bng 15 250 50 0 empty empty empty 0 -6 0 8 -262144 -1
-1;
#X floatatom 278 552 5 0 0 0 - - -;
#X obj 465 497 bng 15 250 50 0 empty empty empty 0 -6 0 8 -262144 -1
-1;
#X obj 579 494 bng 15 250 50 0 empty empty empty 0 -6 0 8 -262144 -1
-1;
#X floatatom 477 549 5 0 0 0 - - -;
#X obj 425 617 delay;
#X obj 262 649 pack f f;
#X obj 432 575 t b f f;
#X obj 356 613 +;
#X obj 278 598 t f f;
#X obj 273 424 *~;
#X obj 283 383 hsl 128 15 0 1 0 0 empty empty empty -2 -6 0 8 -233017
-1 -1 9800 1;
#X obj 262 525 rndseq 5 0 4.41e+006;
#X obj 465 524 rndseq 5 20 500;
#X obj 262 470 loadbang;
#X msg 405 457 bang;
#X obj 442 665 spigot;
#X obj 496 644 tgl 15 0 empty empty empty 0 -6 0 8 -262144 -1 -1 1
1;
#X connect 0 0 5 0;
#X connect 2 0 0 0;
#X connect 4 0 10 0;
#X connect 6 0 8 0;
#X connect 8 0 7 0;
#X connect 8 0 4 1;
#X connect 9 0 4 0;
#X connect 10 0 27 0;
#X connect 11 0 8 1;
#X connect 12 0 11 0;
#X connect 13 0 11 0;
#X connect 14 0 10 0;
#X connect 15 0 3 0;
#X connect 16 0 29 0;
#X connect 17 0 29 4;
#X connect 19 0 30 0;
#X connect 20 0 30 4;
#X connect 22 0 33 0;
#X connect 23 0 10 0;
#X connect 24 0 22 0;
#X connect 24 1 22 1;
#X connect 24 2 25 1;
#X connect 25 0 23 1;
#X connect 26 0 23 0;
#X connect 26 1 25 0;
#X connect 27 0 3 0;
#X connect 28 0 27 1;
#X connect 29 0 26 0;
#X connect 29 0 18 0;
#X connect 30 0 21 0;
#X connect 30 0 24 0;
#X connect 31 0 16 0;
#X connect 31 0 19 0;
#X connect 32 0 29 0;
#X connect 32 0 30 0;
#X connect 33 0 30 4;
#X connect 33 0 29 4;
#X connect 34 0 33 1;
