#N canvas 32 146 513 594 10;
#X obj 23 412 sout~;
#X obj 83 411 loadbang;
#X obj 83 431 1;
#N canvas 485 334 675 460 west 0;
#X obj 11 11 cnv 15 215 130 empty empty empty 20 12 0 14 -233150 -66577
0;
#X obj 71 33 bng 15 250 50 0 empty empty empty 0 -6 0 8 -262144 -1
-1;
#X text 89 32 init;
#X obj 243 388 fluid~;
#X msg 287 339 load /home/jason/media/soundfonts/Unison.sf2;
#X msg 243 292 note 1 \$1 127;
#X floatatom 16 51 5 0 0 0 - - -;
#X msg 249 363 prog 1 127;
#X obj 16 33 bng 15 250 50 0 empty empty empty 0 -6 0 8 -262144 -1
-1;
#X obj 256 317 t b b;
#N canvas 551 0 345 291 offense 0;
#X obj 27 137 bangs 5 250;
#X obj 26 9 bng 15 250 50 0 empty empty empty 0 -6 0 8 -262144 -1 -1
;
#X obj 62 91 + 3;
#X obj 60 70 random 7;
#X obj 92 166 f;
#X obj 149 93 + 1;
#X obj 149 72 random 60;
#X obj 27 38 t b b b b;
#X obj 221 93 + 50;
#X obj 60 9 inlet;
#X obj 35 248 outlet;
#X obj 114 249 outlet;
#X obj 221 72 random 350;
#X connect 0 0 4 0;
#X connect 0 1 11 0;
#X connect 1 0 7 0;
#X connect 2 0 0 1;
#X connect 3 0 2 0;
#X connect 4 0 10 0;
#X connect 5 0 4 1;
#X connect 6 0 5 0;
#X connect 7 0 0 0;
#X connect 7 1 3 0;
#X connect 7 2 6 0;
#X connect 7 3 12 0;
#X connect 8 0 0 2;
#X connect 9 0 7 0;
#X connect 12 0 8 0;
#X restore 272 177 pd offense;
#N canvas 587 4 345 291 defense 0;
#X obj 27 137 bangs 5 250;
#X obj 26 9 bng 15 250 50 0 empty empty empty 0 -6 0 8 -262144 -1 -1
;
#X obj 62 91 + 3;
#X obj 60 70 random 7;
#X obj 92 166 f;
#X obj 149 93 + 1;
#X obj 149 72 random 60;
#X obj 27 38 t b b b b;
#X obj 221 93 + 50;
#X obj 60 9 inlet;
#X obj 35 248 outlet;
#X obj 114 249 outlet;
#X obj 221 72 random 350;
#X connect 0 0 4 0;
#X connect 0 1 11 0;
#X connect 1 0 7 0;
#X connect 2 0 0 1;
#X connect 3 0 2 0;
#X connect 4 0 10 0;
#X connect 5 0 4 1;
#X connect 6 0 5 0;
#X connect 7 0 0 0;
#X connect 7 1 3 0;
#X connect 7 2 6 0;
#X connect 7 3 12 0;
#X connect 8 0 0 2;
#X connect 9 0 7 0;
#X connect 12 0 8 0;
#X restore 362 177 pd defense;
#X obj 427 202 t b b;
#X obj 428 257 delay;
#X obj 280 212 t b b;
#X obj 281 267 delay;
#X obj 311 240 random 3000;
#X obj 458 230 random 3000;
#X obj 234 418 outlet~;
#X obj 294 419 outlet~;
#X text 35 32 test;
#X obj 16 73 cnv 15 100 60 empty empty empty 20 12 0 14 -225271 -66577
0;
#X obj 23 76 bng 15 250 50 0 empty empty empty 0 -6 0 8 -262144 -1
-1;
#X obj 120 74 cnv 15 100 60 empty empty empty 20 12 0 14 -261689 -66577
0;
#X obj 126 78 bng 15 250 50 0 empty empty empty 0 -6 0 8 -262144 -1
-1;
#X text 146 78 defense;
#X text 15 12 W E S T;
#X text 43 76 offense;
#X obj 23 156 spigot;
#X obj 24 98 tgl 15 0 empty empty empty 0 -6 0 8 -262144 -1 -1 0 1
;
#X text 43 97 enable;
#X obj 135 153 spigot;
#X obj 126 100 tgl 15 0 empty empty empty 0 -6 0 8 -262144 -1 -1 0
1;
#X text 145 99 enable;
#X obj 236 17 loadbang;
#X obj 236 42 1;
#X connect 1 0 9 0;
#X connect 3 0 18 0;
#X connect 3 1 19 0;
#X connect 4 0 3 0;
#X connect 5 0 3 0;
#X connect 6 0 5 0;
#X connect 7 0 3 0;
#X connect 8 0 6 0;
#X connect 9 0 7 0;
#X connect 9 1 4 0;
#X connect 10 0 5 0;
#X connect 10 1 14 0;
#X connect 11 0 5 0;
#X connect 11 1 12 0;
#X connect 12 0 13 0;
#X connect 12 1 17 0;
#X connect 13 0 24 0;
#X connect 14 0 15 0;
#X connect 14 1 16 0;
#X connect 15 0 22 0;
#X connect 16 0 15 1;
#X connect 17 0 13 1;
#X connect 22 0 28 0;
#X connect 24 0 31 0;
#X connect 28 0 10 0;
#X connect 29 0 28 1;
#X connect 31 0 11 0;
#X connect 32 0 31 1;
#X connect 34 0 35 0;
#X connect 34 0 29 0;
#X connect 35 0 32 0;
#X coords 0 -1 1 1 217 132 1 10 10;
#X restore 23 134 pd west;
#N canvas 485 334 675 460 west 0;
#X obj 11 11 cnv 15 215 130 empty empty empty 20 12 0 14 -233150 -66577
0;
#X obj 71 33 bng 15 250 50 0 empty empty empty 0 -6 0 8 -262144 -1
-1;
#X text 89 32 init;
#X obj 243 388 fluid~;
#X msg 243 292 note 1 \$1 127;
#X floatatom 16 51 5 0 0 0 - - -;
#X msg 249 363 prog 1 127;
#X obj 16 33 bng 15 250 50 0 empty empty empty 0 -6 0 8 -262144 -1
-1;
#X obj 256 317 t b b;
#N canvas 551 0 345 291 offense 0;
#X obj 27 137 bangs 5 250;
#X obj 26 9 bng 15 250 50 0 empty empty empty 0 -6 0 8 -262144 -1 -1
;
#X obj 62 91 + 3;
#X obj 60 70 random 7;
#X obj 92 166 f;
#X obj 149 93 + 1;
#X obj 149 72 random 60;
#X obj 27 38 t b b b b;
#X obj 221 93 + 50;
#X obj 60 9 inlet;
#X obj 35 248 outlet;
#X obj 114 249 outlet;
#X obj 221 72 random 350;
#X connect 0 0 4 0;
#X connect 0 1 11 0;
#X connect 1 0 7 0;
#X connect 2 0 0 1;
#X connect 3 0 2 0;
#X connect 4 0 10 0;
#X connect 5 0 4 1;
#X connect 6 0 5 0;
#X connect 7 0 0 0;
#X connect 7 1 3 0;
#X connect 7 2 6 0;
#X connect 7 3 12 0;
#X connect 8 0 0 2;
#X connect 9 0 7 0;
#X connect 12 0 8 0;
#X restore 272 177 pd offense;
#N canvas 587 4 345 291 defense 0;
#X obj 27 137 bangs 5 250;
#X obj 26 9 bng 15 250 50 0 empty empty empty 0 -6 0 8 -262144 -1 -1
;
#X obj 62 91 + 3;
#X obj 60 70 random 7;
#X obj 92 166 f;
#X obj 149 93 + 1;
#X obj 149 72 random 60;
#X obj 27 38 t b b b b;
#X obj 221 93 + 50;
#X obj 60 9 inlet;
#X obj 35 248 outlet;
#X obj 114 249 outlet;
#X obj 221 72 random 350;
#X connect 0 0 4 0;
#X connect 0 1 11 0;
#X connect 1 0 7 0;
#X connect 2 0 0 1;
#X connect 3 0 2 0;
#X connect 4 0 10 0;
#X connect 5 0 4 1;
#X connect 6 0 5 0;
#X connect 7 0 0 0;
#X connect 7 1 3 0;
#X connect 7 2 6 0;
#X connect 7 3 12 0;
#X connect 8 0 0 2;
#X connect 9 0 7 0;
#X connect 12 0 8 0;
#X restore 362 177 pd defense;
#X obj 427 202 t b b;
#X obj 428 257 delay;
#X obj 280 212 t b b;
#X obj 281 267 delay;
#X obj 311 240 random 3000;
#X obj 458 230 random 3000;
#X obj 234 418 outlet~;
#X obj 294 419 outlet~;
#X text 35 32 test;
#X obj 16 73 cnv 15 100 60 empty empty empty 20 12 0 14 -225271 -66577
0;
#X obj 23 76 bng 15 250 50 0 empty empty empty 0 -6 0 8 -262144 -1
-1;
#X obj 120 74 cnv 15 100 60 empty empty empty 20 12 0 14 -261689 -66577
0;
#X obj 126 78 bng 15 250 50 0 empty empty empty 0 -6 0 8 -262144 -1
-1;
#X text 146 78 defense;
#X text 43 76 offense;
#X obj 23 156 spigot;
#X obj 24 98 tgl 15 0 empty empty empty 0 -6 0 8 -262144 -1 -1 0 1
;
#X text 43 97 enable;
#X obj 135 153 spigot;
#X obj 126 100 tgl 15 0 empty empty empty 0 -6 0 8 -262144 -1 -1 0
1;
#X text 145 99 enable;
#X text 15 12 E A S T;
#X msg 287 339 load /home/jason/media/soundfonts/PC51f.sf2;
#X obj 245 22 loadbang;
#X obj 246 44 1;
#X connect 1 0 8 0;
#X connect 3 0 17 0;
#X connect 3 1 18 0;
#X connect 4 0 3 0;
#X connect 5 0 4 0;
#X connect 6 0 3 0;
#X connect 7 0 5 0;
#X connect 8 0 6 0;
#X connect 8 1 33 0;
#X connect 9 0 4 0;
#X connect 9 1 13 0;
#X connect 10 0 4 0;
#X connect 10 1 11 0;
#X connect 11 0 12 0;
#X connect 11 1 16 0;
#X connect 12 0 23 0;
#X connect 13 0 14 0;
#X connect 13 1 15 0;
#X connect 14 0 21 0;
#X connect 15 0 14 1;
#X connect 16 0 12 1;
#X connect 21 0 26 0;
#X connect 23 0 29 0;
#X connect 26 0 9 0;
#X connect 27 0 26 1;
#X connect 29 0 10 0;
#X connect 30 0 29 1;
#X connect 33 0 3 0;
#X connect 34 0 35 0;
#X connect 35 0 30 0;
#X connect 35 0 27 0;
#X coords 0 -1 1 1 217 132 1 10 10;
#X restore 254 136 pd west;
#X text 274 102 todo: east is too low/quiet;
#X text 28 30 todo: less random \, fix gunfire more;
#X connect 1 0 2 0;
#X connect 2 0 0 2;
#X connect 3 0 0 0;
#X connect 3 1 0 1;
#X connect 4 0 0 0;
#X connect 4 1 0 1;
