#N canvas 112 304 795 628 10;
#X obj 33 -243 f;
#X obj 33 -197 + 1;
#X obj 79 -194 t b f;
#X floatatom 186 -194 5 0 0 0 - - -;
#X obj 189 -253 bng 15 250 50 0 empty empty empty 0 -6 0 8 -262144
-1 -1;
#X floatatom 63 -73 15 0 0 0 - - -;
#X obj 186 -225 expr cos(2);
#X obj 66 -133 bng 15 250 50 0 empty empty empty 0 -6 0 8 -262144 -1
-1;
#X obj 29 -22 print;
#X obj 33 -164 t f f;
#X msg 33 -273 0;
#X obj 39 -50 tabwrite hanning;
#N canvas 0 0 450 300 graph8 0;
#X array hanning 512 float 2;
#X coords 0 0 514 1 200 140 1;
#X restore 479 -85 graph;
#X obj 92 -158 print;
#X obj 33 -222 moses 515;
#X obj 31 -106 expr 0.5*(1 - cos(2 * 3.1415 * $f1/515));
#X obj 238 108 osc~;
#X obj 328 190 tabwrite~ hanning;
#X obj 238 74 t f b;
#X msg 285 93 0;
#X floatatom 238 54 5 0 0 0 - - -;
#X obj 269 140 /~ 2;
#X obj 270 161 +~ 0.5;
#X floatatom 65 72 5 0 0 0 - - -;
#X obj 95 129 samplerate~;
#X obj 65 97 t f b;
#X text 63 54 window size (ms);
#X obj 96 151 / 1000;
#X floatatom 96 178 5 0 0 0 - - -;
#X obj 61 224 *;
#X connect 0 0 14 0;
#X connect 1 0 2 0;
#X connect 1 0 9 0;
#X connect 1 0 13 0;
#X connect 2 0 0 0;
#X connect 2 1 0 1;
#X connect 4 0 6 0;
#X connect 6 0 3 0;
#X connect 7 0 15 0;
#X connect 9 0 15 0;
#X connect 9 1 11 1;
#X connect 10 0 0 0;
#X connect 14 0 1 0;
#X connect 15 0 5 0;
#X connect 15 0 11 0;
#X connect 16 0 21 0;
#X connect 18 0 16 0;
#X connect 18 1 19 0;
#X connect 18 1 17 0;
#X connect 19 0 16 1;
#X connect 20 0 18 0;
#X connect 21 0 22 0;
#X connect 22 0 17 0;
#X connect 23 0 25 0;
#X connect 24 0 27 0;
#X connect 25 1 24 0;
#X connect 27 0 28 0;
