#N canvas 532 63 565 757 10;
#X obj 205 13 dumpOSC 6155;
#X obj 277 83 print aaa;
#X obj 203 46 OSCroute /convulv;
#X obj 178 84 OSCroute /accel;
#X obj 178 106 unpack f f f;
#X floatatom 330 211 5 0 0 0 - - -;
#X floatatom 373 210 5 0 0 0 - - -;
#X floatatom 103 207 5 0 0 0 - - -;
#X floatatom 146 206 5 0 0 0 - - -;
#X obj 100 175 lohi;
#X floatatom 213 204 5 0 0 0 - - -;
#X floatatom 256 203 5 0 0 0 - - -;
#X obj 327 179 lohi;
#X obj 210 172 lohi;
#X obj 376 133 bng 15 250 50 0 empty empty empty 17 7 0 10 -262144
-1 -1;
#X obj 190 247 hilo_range;
#X floatatom 199 272 5 0 0 0 - - -;
#X obj 193 298 hsl 128 15 0 1 0 0 empty empty empty -2 -8 0 10 -261234
-1 -1 5753 1;
#X obj 351 246 hilo_range;
#X floatatom 360 271 5 0 0 0 - - -;
#X obj 354 297 hsl 128 15 0 1 0 0 empty empty empty -2 -8 0 10 -261234
-1 -1 2418 1;
#X obj 46 250 hilo_range;
#X floatatom 55 275 5 0 0 0 - - -;
#X obj 49 301 hsl 128 15 0 1 0 0 empty empty empty -2 -8 0 10 -261234
-1 -1 9140 1;
#X floatatom 174 135 5 0 0 0 - - -;
#X obj 65 608 sout~;
#X obj 216 482 noise~;
#X obj 131 570 *~;
#X obj 142 520 vline~;
#X obj 189 331 t f f;
#X msg 143 491 \$1 \, 0 222;
#X floatatom 280 463 5 0 0 0 - - -;
#X obj 216 529 dline~ 150 0.26;
#X obj 215 505 clipper~ 25;
#X obj 40 386 noise~;
#X floatatom 116 396 5 0 0 0 - - -;
#X obj 37 420 bp~ 50 4;
#X connect 0 0 2 0;
#X connect 2 0 3 0;
#X connect 2 1 1 0;
#X connect 3 0 4 0;
#X connect 4 0 9 0;
#X connect 4 0 21 0;
#X connect 4 0 24 0;
#X connect 4 1 13 0;
#X connect 4 1 15 0;
#X connect 4 2 12 0;
#X connect 4 2 18 0;
#X connect 9 0 7 0;
#X connect 9 1 8 0;
#X connect 12 0 5 0;
#X connect 12 1 6 0;
#X connect 13 0 10 0;
#X connect 13 1 11 0;
#X connect 14 0 12 1;
#X connect 15 0 16 0;
#X connect 15 0 17 0;
#X connect 15 0 29 0;
#X connect 18 0 19 0;
#X connect 18 0 20 0;
#X connect 21 0 22 0;
#X connect 21 0 23 0;
#X connect 26 0 33 0;
#X connect 27 0 25 0;
#X connect 27 0 25 1;
#X connect 28 0 27 0;
#X connect 29 0 30 0;
#X connect 30 0 28 0;
#X connect 31 0 33 1;
#X connect 32 0 27 1;
#X connect 33 0 32 0;
#X connect 34 0 36 0;
#X connect 35 0 36 1;
#X connect 36 0 25 0;
