#N canvas 0 0 450 300 10;
#X obj 191 98 hid;
#X msg 223 69 info;
#X obj 128 190 print L;
#X obj 261 165 print R;
#X msg 72 11 open /dev/infinity-footpedal;
#X msg 84 86 55;
#X msg 181 37 open 0x05f3 0x00ff;
#X connect 0 0 2 0;
#X connect 0 1 3 0;
#X connect 1 0 0 0;
#X connect 4 0 0 0;
#X connect 5 0 0 0;
#X connect 6 0 0 0;
