#N canvas 289 304 769 503 10;
#X obj 47 343 sout~;
#X obj 63 315 *~ 1;
#X obj 143 34 textfiletolist;
#X floatatom 154 82 5 0 0 0 - - -;
#X obj 154 60 list length;
#X floatatom 43 70 5 0 0 0 - - -;
#X obj 54 135 hradio 15 1 0 21 empty empty empty 0 -8 0 10 -262144
-1 -1 0;
#X obj 74 91 listitem;
#X obj 61 263 pack f s;
#X obj 69 213 t b s;
#N canvas 1287 410 484 360 slotmgr 0;
#X obj 60 14 inlet;
#X obj 254 14 inlet;
#X text 103 13 <- hit me for next item;
#X text 295 14 <- add back to me;
#X obj 192 130 list append;
#X obj 228 95 list;
#X obj 199 69 t l b;
#X obj 193 158 t l l;
#X obj 260 189 list length;
#X floatatom 261 209 5 0 0 0 - - -;
#X obj 162 242 list split 1;
#X obj 164 217 list;
#X obj 244 268 bng 15 250 50 0 empty empty empty 17 7 0 10 -262144
-1 -1;
#X text 256 256 empty list;
#X msg 163 192 bang;
#X obj 184 279 t l l;
#X obj 166 308 outlet;
#X obj 259 43 print adding_back;
#X msg 257 70 0;
#X connect 0 0 14 0;
#X connect 1 0 6 0;
#X connect 4 0 7 0;
#X connect 5 0 4 1;
#X connect 6 0 4 0;
#X connect 6 1 5 0;
#X connect 7 0 8 0;
#X connect 7 0 11 1;
#X connect 7 1 5 1;
#X connect 8 0 9 0;
#X connect 10 0 16 0;
#X connect 10 1 15 0;
#X connect 10 2 12 0;
#X connect 11 0 10 0;
#X connect 14 0 11 0;
#X connect 15 0 11 1;
#X connect 15 1 5 1;
#X connect 18 0 5 1;
#X restore 65 240 pd slotmgr;
#X obj 130 213 r additback;
#N canvas 5 109 260 193 bootstrap_slots 0;
#X obj 29 79 until;
#X obj 38 103 f;
#X obj 69 103 + 1;
#X obj 39 55 t f b;
#X msg 84 78 0;
#X obj 36 15 loadbang;
#X msg 36 35 32;
#X obj 36 134 outlet;
#X text 67 36 todo: make me more reusable;
#X connect 0 0 1 0;
#X connect 1 0 2 0;
#X connect 1 0 7 0;
#X connect 2 0 1 1;
#X connect 3 0 0 0;
#X connect 3 1 4 0;
#X connect 4 0 1 1;
#X connect 5 0 6 0;
#X connect 6 0 3 0;
#X restore 121 193 pd bootstrap_slots;
#N canvas 1288 53 450 300 samplebanks 0;
#X obj 70 195 *~ 1;
#N canvas 316 123 589 303 bank0-3 0;
#X obj 117 204 readsf~;
#X obj 182 204 readsf~;
#X obj 246 205 readsf~;
#X obj 311 206 readsf~;
#X obj 49 60 route 0 1 2 3;
#X obj 51 108 bng 15 250 50 0 empty empty empty 17 7 0 10 -262144 -1
-1;
#X msg 78 167 open \$1;
#X obj 46 127 symbol;
#X obj 46 146 t b s;
#X msg 46 166 1;
#X obj 147 109 bng 15 250 50 0 empty empty empty 17 7 0 10 -262144
-1 -1;
#X msg 174 168 open \$1;
#X obj 142 128 symbol;
#X obj 142 147 t b s;
#X msg 142 167 1;
#X obj 242 112 bng 15 250 50 0 empty empty empty 17 7 0 10 -262144
-1 -1;
#X msg 269 171 open \$1;
#X obj 237 131 symbol;
#X obj 237 150 t b s;
#X msg 237 170 1;
#X obj 338 113 bng 15 250 50 0 empty empty empty 17 7 0 10 -262144
-1 -1;
#X msg 366 172 open \$1;
#X obj 333 132 symbol;
#X obj 333 151 t b s;
#X msg 333 171 1;
#X obj 208 275 outlet~;
#X obj 46 19 inlet;
#X obj 267 276 outlet;
#X obj 330 273 outlet;
#X msg 158 235 0;
#X msg 224 231 1;
#X msg 292 236 2;
#X msg 353 231 3;
#X connect 0 0 25 0;
#X connect 0 1 29 0;
#X connect 1 0 25 0;
#X connect 1 1 30 0;
#X connect 2 0 25 0;
#X connect 2 1 31 0;
#X connect 3 0 25 0;
#X connect 3 1 32 0;
#X connect 4 0 7 0;
#X connect 4 0 5 0;
#X connect 4 1 10 0;
#X connect 4 1 12 0;
#X connect 4 2 15 0;
#X connect 4 2 17 0;
#X connect 4 3 20 0;
#X connect 4 3 22 0;
#X connect 4 4 27 0;
#X connect 6 0 0 0;
#X connect 7 0 8 0;
#X connect 8 0 9 0;
#X connect 8 1 6 0;
#X connect 9 0 0 0;
#X connect 11 0 1 0;
#X connect 12 0 13 0;
#X connect 13 0 14 0;
#X connect 13 1 11 0;
#X connect 14 0 1 0;
#X connect 16 0 2 0;
#X connect 17 0 18 0;
#X connect 18 0 19 0;
#X connect 18 1 16 0;
#X connect 19 0 2 0;
#X connect 21 0 3 0;
#X connect 22 0 23 0;
#X connect 23 0 24 0;
#X connect 23 1 21 0;
#X connect 24 0 3 0;
#X connect 26 0 4 0;
#X connect 29 0 28 0;
#X connect 30 0 28 0;
#X connect 31 0 28 0;
#X connect 32 0 28 0;
#X restore 60 82 pd bank0-3;
#N canvas 630 121 589 303 bank4-7 0;
#X obj 117 204 readsf~;
#X obj 182 204 readsf~;
#X obj 246 205 readsf~;
#X obj 311 206 readsf~;
#X obj 51 108 bng 15 250 50 0 empty empty empty 17 7 0 10 -262144 -1
-1;
#X msg 78 167 open \$1;
#X obj 46 127 symbol;
#X obj 46 146 t b s;
#X msg 46 166 1;
#X obj 147 109 bng 15 250 50 0 empty empty empty 17 7 0 10 -262144
-1 -1;
#X msg 174 168 open \$1;
#X obj 142 128 symbol;
#X obj 142 147 t b s;
#X msg 142 167 1;
#X obj 242 112 bng 15 250 50 0 empty empty empty 17 7 0 10 -262144
-1 -1;
#X msg 269 171 open \$1;
#X obj 237 131 symbol;
#X obj 237 150 t b s;
#X msg 237 170 1;
#X obj 338 113 bng 15 250 50 0 empty empty empty 17 7 0 10 -262144
-1 -1;
#X msg 366 172 open \$1;
#X obj 333 132 symbol;
#X obj 333 151 t b s;
#X msg 333 171 1;
#X obj 208 275 outlet~;
#X obj 46 19 inlet;
#X obj 267 276 outlet;
#X obj 330 273 outlet;
#X obj 49 61 route 4 5 6 7;
#X msg 158 235 4;
#X msg 225 231 5;
#X msg 298 237 6;
#X msg 353 231 7;
#X connect 0 0 24 0;
#X connect 0 1 29 0;
#X connect 1 0 24 0;
#X connect 1 1 30 0;
#X connect 2 0 24 0;
#X connect 2 1 31 0;
#X connect 3 0 24 0;
#X connect 3 1 32 0;
#X connect 5 0 0 0;
#X connect 6 0 7 0;
#X connect 7 0 8 0;
#X connect 7 1 5 0;
#X connect 8 0 0 0;
#X connect 10 0 1 0;
#X connect 11 0 12 0;
#X connect 12 0 13 0;
#X connect 12 1 10 0;
#X connect 13 0 1 0;
#X connect 15 0 2 0;
#X connect 16 0 17 0;
#X connect 17 0 18 0;
#X connect 17 1 15 0;
#X connect 18 0 2 0;
#X connect 20 0 3 0;
#X connect 21 0 22 0;
#X connect 22 0 23 0;
#X connect 22 1 20 0;
#X connect 23 0 3 0;
#X connect 25 0 28 0;
#X connect 28 0 6 0;
#X connect 28 0 4 0;
#X connect 28 1 9 0;
#X connect 28 1 11 0;
#X connect 28 2 14 0;
#X connect 28 2 16 0;
#X connect 28 3 19 0;
#X connect 28 3 21 0;
#X connect 28 4 26 0;
#X connect 29 0 27 0;
#X connect 30 0 27 0;
#X connect 31 0 27 0;
#X connect 32 0 27 0;
#X restore 92 105 pd bank4-7;
#N canvas 0 0 589 303 bank8-11 0;
#X obj 117 204 readsf~;
#X obj 182 204 readsf~;
#X obj 246 205 readsf~;
#X obj 311 206 readsf~;
#X obj 51 108 bng 15 250 50 0 empty empty empty 17 7 0 10 -262144 -1
-1;
#X msg 78 167 open \$1;
#X obj 46 127 symbol;
#X obj 46 146 t b s;
#X msg 46 166 1;
#X obj 147 109 bng 15 250 50 0 empty empty empty 17 7 0 10 -262144
-1 -1;
#X msg 174 168 open \$1;
#X obj 142 128 symbol;
#X obj 142 147 t b s;
#X msg 142 167 1;
#X obj 242 112 bng 15 250 50 0 empty empty empty 17 7 0 10 -262144
-1 -1;
#X msg 269 171 open \$1;
#X obj 237 131 symbol;
#X obj 237 150 t b s;
#X msg 237 170 1;
#X obj 338 113 bng 15 250 50 0 empty empty empty 17 7 0 10 -262144
-1 -1;
#X msg 366 172 open \$1;
#X obj 333 132 symbol;
#X obj 333 151 t b s;
#X msg 333 171 1;
#X obj 208 275 outlet~;
#X obj 46 19 inlet;
#X obj 267 276 outlet;
#X obj 330 273 outlet;
#X obj 49 61 route 8 9 10 11;
#X msg 158 235 8;
#X msg 226 231 9;
#X msg 298 236 10;
#X msg 353 231 11;
#X connect 0 0 24 0;
#X connect 0 1 29 0;
#X connect 1 0 24 0;
#X connect 1 1 30 0;
#X connect 2 0 24 0;
#X connect 2 1 31 0;
#X connect 3 0 24 0;
#X connect 3 1 32 0;
#X connect 5 0 0 0;
#X connect 6 0 7 0;
#X connect 7 0 8 0;
#X connect 7 1 5 0;
#X connect 8 0 0 0;
#X connect 10 0 1 0;
#X connect 11 0 12 0;
#X connect 12 0 13 0;
#X connect 12 1 10 0;
#X connect 13 0 1 0;
#X connect 15 0 2 0;
#X connect 16 0 17 0;
#X connect 17 0 18 0;
#X connect 17 1 15 0;
#X connect 18 0 2 0;
#X connect 20 0 3 0;
#X connect 21 0 22 0;
#X connect 22 0 23 0;
#X connect 22 1 20 0;
#X connect 23 0 3 0;
#X connect 25 0 28 0;
#X connect 28 0 6 0;
#X connect 28 0 4 0;
#X connect 28 1 9 0;
#X connect 28 1 11 0;
#X connect 28 2 14 0;
#X connect 28 2 16 0;
#X connect 28 3 19 0;
#X connect 28 3 21 0;
#X connect 28 4 26 0;
#X connect 29 0 27 0;
#X connect 30 0 27 0;
#X connect 31 0 27 0;
#X connect 32 0 27 0;
#X restore 124 127 pd bank8-11;
#N canvas 0 0 589 303 bank12-15 0;
#X obj 117 204 readsf~;
#X obj 182 204 readsf~;
#X obj 246 205 readsf~;
#X obj 311 206 readsf~;
#X obj 51 108 bng 15 250 50 0 empty empty empty 17 7 0 10 -262144 -1
-1;
#X msg 78 167 open \$1;
#X obj 46 127 symbol;
#X obj 46 146 t b s;
#X msg 46 166 1;
#X obj 147 109 bng 15 250 50 0 empty empty empty 17 7 0 10 -262144
-1 -1;
#X msg 174 168 open \$1;
#X obj 142 128 symbol;
#X obj 142 147 t b s;
#X msg 142 167 1;
#X obj 242 112 bng 15 250 50 0 empty empty empty 17 7 0 10 -262144
-1 -1;
#X msg 269 171 open \$1;
#X obj 237 131 symbol;
#X obj 237 150 t b s;
#X msg 237 170 1;
#X obj 338 113 bng 15 250 50 0 empty empty empty 17 7 0 10 -262144
-1 -1;
#X msg 366 172 open \$1;
#X obj 333 132 symbol;
#X obj 333 151 t b s;
#X msg 333 171 1;
#X obj 208 275 outlet~;
#X obj 46 19 inlet;
#X obj 267 276 outlet;
#X obj 330 273 outlet;
#X obj 49 61 route 12 13 14 15;
#X msg 158 235 12;
#X msg 227 231 13;
#X msg 298 236 14;
#X msg 354 230 15;
#X connect 0 0 24 0;
#X connect 0 1 29 0;
#X connect 1 0 24 0;
#X connect 1 1 30 0;
#X connect 2 0 24 0;
#X connect 2 1 31 0;
#X connect 3 0 24 0;
#X connect 3 1 32 0;
#X connect 5 0 0 0;
#X connect 6 0 7 0;
#X connect 7 0 8 0;
#X connect 7 1 5 0;
#X connect 8 0 0 0;
#X connect 10 0 1 0;
#X connect 11 0 12 0;
#X connect 12 0 13 0;
#X connect 12 1 10 0;
#X connect 13 0 1 0;
#X connect 15 0 2 0;
#X connect 16 0 17 0;
#X connect 17 0 18 0;
#X connect 17 1 15 0;
#X connect 18 0 2 0;
#X connect 20 0 3 0;
#X connect 21 0 22 0;
#X connect 22 0 23 0;
#X connect 22 1 20 0;
#X connect 23 0 3 0;
#X connect 25 0 28 0;
#X connect 28 0 6 0;
#X connect 28 0 4 0;
#X connect 28 1 9 0;
#X connect 28 1 11 0;
#X connect 28 2 14 0;
#X connect 28 2 16 0;
#X connect 28 3 19 0;
#X connect 28 3 21 0;
#X connect 28 4 26 0;
#X connect 29 0 27 0;
#X connect 30 0 27 0;
#X connect 31 0 27 0;
#X connect 32 0 27 0;
#X restore 162 150 pd bank12-15;
#X obj 184 234 s additback;
#N canvas 1285 53 589 329 bank16-19 0;
#X obj 117 204 readsf~;
#X obj 182 204 readsf~;
#X obj 246 205 readsf~;
#X obj 311 206 readsf~;
#X obj 51 108 bng 15 250 50 0 empty empty empty 17 7 0 10 -262144 -1
-1;
#X msg 78 167 open \$1;
#X obj 46 127 symbol;
#X obj 46 146 t b s;
#X msg 46 166 1;
#X obj 147 109 bng 15 250 50 0 empty empty empty 17 7 0 10 -262144
-1 -1;
#X msg 174 168 open \$1;
#X obj 142 128 symbol;
#X obj 142 147 t b s;
#X msg 142 167 1;
#X obj 242 112 bng 15 250 50 0 empty empty empty 17 7 0 10 -262144
-1 -1;
#X msg 269 171 open \$1;
#X obj 237 131 symbol;
#X obj 237 150 t b s;
#X msg 237 170 1;
#X obj 338 113 bng 15 250 50 0 empty empty empty 17 7 0 10 -262144
-1 -1;
#X msg 366 172 open \$1;
#X obj 333 132 symbol;
#X obj 333 151 t b s;
#X msg 333 171 1;
#X obj 208 275 outlet~;
#X obj 46 19 inlet;
#X obj 267 276 outlet;
#X obj 330 273 outlet;
#X obj 49 60 route 16 17 18 19;
#X msg 158 235 16;
#X msg 225 230 17;
#X msg 296 236 18;
#X msg 353 231 19;
#X connect 0 0 24 0;
#X connect 0 1 29 0;
#X connect 1 0 24 0;
#X connect 1 1 30 0;
#X connect 2 0 24 0;
#X connect 2 1 31 0;
#X connect 3 0 24 0;
#X connect 3 1 32 0;
#X connect 5 0 0 0;
#X connect 6 0 7 0;
#X connect 7 0 8 0;
#X connect 7 1 5 0;
#X connect 8 0 0 0;
#X connect 10 0 1 0;
#X connect 11 0 12 0;
#X connect 12 0 13 0;
#X connect 12 1 10 0;
#X connect 13 0 1 0;
#X connect 15 0 2 0;
#X connect 16 0 17 0;
#X connect 17 0 18 0;
#X connect 17 1 15 0;
#X connect 18 0 2 0;
#X connect 20 0 3 0;
#X connect 21 0 22 0;
#X connect 22 0 23 0;
#X connect 22 1 20 0;
#X connect 23 0 3 0;
#X connect 25 0 28 0;
#X connect 28 0 6 0;
#X connect 28 0 4 0;
#X connect 28 1 9 0;
#X connect 28 1 11 0;
#X connect 28 2 14 0;
#X connect 28 2 16 0;
#X connect 28 3 19 0;
#X connect 28 3 21 0;
#X connect 28 4 26 0;
#X connect 29 0 27 0;
#X connect 30 0 27 0;
#X connect 31 0 27 0;
#X connect 32 0 27 0;
#X restore 209 88 pd bank16-19;
#N canvas 0 0 589 303 bank20-23 0;
#X obj 117 204 readsf~;
#X obj 182 204 readsf~;
#X obj 246 205 readsf~;
#X obj 311 206 readsf~;
#X obj 51 108 bng 15 250 50 0 empty empty empty 17 7 0 10 -262144 -1
-1;
#X msg 78 167 open \$1;
#X obj 46 127 symbol;
#X obj 46 146 t b s;
#X msg 46 166 1;
#X obj 147 109 bng 15 250 50 0 empty empty empty 17 7 0 10 -262144
-1 -1;
#X msg 174 168 open \$1;
#X obj 142 128 symbol;
#X obj 142 147 t b s;
#X msg 142 167 1;
#X obj 242 112 bng 15 250 50 0 empty empty empty 17 7 0 10 -262144
-1 -1;
#X msg 269 171 open \$1;
#X obj 237 131 symbol;
#X obj 237 150 t b s;
#X msg 237 170 1;
#X obj 338 113 bng 15 250 50 0 empty empty empty 17 7 0 10 -262144
-1 -1;
#X msg 366 172 open \$1;
#X obj 333 132 symbol;
#X obj 333 151 t b s;
#X msg 333 171 1;
#X obj 208 275 outlet~;
#X obj 46 19 inlet;
#X obj 267 276 outlet;
#X obj 330 273 outlet;
#X obj 49 60 route 20 21 22 23;
#X msg 158 235 20;
#X msg 292 236 22;
#X msg 353 231 23;
#X msg 224 231 21;
#X connect 0 0 24 0;
#X connect 0 1 29 0;
#X connect 1 0 24 0;
#X connect 1 1 32 0;
#X connect 2 0 24 0;
#X connect 2 1 30 0;
#X connect 3 0 24 0;
#X connect 3 1 31 0;
#X connect 5 0 0 0;
#X connect 6 0 7 0;
#X connect 7 0 8 0;
#X connect 7 1 5 0;
#X connect 8 0 0 0;
#X connect 10 0 1 0;
#X connect 11 0 12 0;
#X connect 12 0 13 0;
#X connect 12 1 10 0;
#X connect 13 0 1 0;
#X connect 15 0 2 0;
#X connect 16 0 17 0;
#X connect 17 0 18 0;
#X connect 17 1 15 0;
#X connect 18 0 2 0;
#X connect 20 0 3 0;
#X connect 21 0 22 0;
#X connect 22 0 23 0;
#X connect 22 1 20 0;
#X connect 23 0 3 0;
#X connect 25 0 28 0;
#X connect 28 0 6 0;
#X connect 28 0 4 0;
#X connect 28 1 9 0;
#X connect 28 1 11 0;
#X connect 28 2 14 0;
#X connect 28 2 16 0;
#X connect 28 3 19 0;
#X connect 28 3 21 0;
#X connect 28 4 26 0;
#X connect 29 0 27 0;
#X connect 30 0 27 0;
#X connect 31 0 27 0;
#X connect 32 0 27 0;
#X restore 248 109 pd bank20-23;
#N canvas 0 0 589 303 bank24-27 0;
#X obj 117 204 readsf~;
#X obj 182 204 readsf~;
#X obj 246 205 readsf~;
#X obj 311 206 readsf~;
#X obj 51 108 bng 15 250 50 0 empty empty empty 17 7 0 10 -262144 -1
-1;
#X msg 78 167 open \$1;
#X obj 46 127 symbol;
#X obj 46 146 t b s;
#X msg 46 166 1;
#X obj 147 109 bng 15 250 50 0 empty empty empty 17 7 0 10 -262144
-1 -1;
#X msg 174 168 open \$1;
#X obj 142 128 symbol;
#X obj 142 147 t b s;
#X msg 142 167 1;
#X obj 242 112 bng 15 250 50 0 empty empty empty 17 7 0 10 -262144
-1 -1;
#X msg 269 171 open \$1;
#X obj 237 131 symbol;
#X obj 237 150 t b s;
#X msg 237 170 1;
#X obj 338 113 bng 15 250 50 0 empty empty empty 17 7 0 10 -262144
-1 -1;
#X msg 366 172 open \$1;
#X obj 333 132 symbol;
#X obj 333 151 t b s;
#X msg 333 171 1;
#X obj 208 275 outlet~;
#X obj 46 19 inlet;
#X obj 267 276 outlet;
#X obj 330 273 outlet;
#X obj 49 60 route 24 25 26 27;
#X msg 158 235 24;
#X msg 224 231 25;
#X msg 292 236 26;
#X msg 353 231 27;
#X connect 0 0 24 0;
#X connect 0 1 29 0;
#X connect 1 0 24 0;
#X connect 1 1 30 0;
#X connect 2 0 24 0;
#X connect 2 1 31 0;
#X connect 3 0 24 0;
#X connect 3 1 32 0;
#X connect 5 0 0 0;
#X connect 6 0 7 0;
#X connect 7 0 8 0;
#X connect 7 1 5 0;
#X connect 8 0 0 0;
#X connect 10 0 1 0;
#X connect 11 0 12 0;
#X connect 12 0 13 0;
#X connect 12 1 10 0;
#X connect 13 0 1 0;
#X connect 15 0 2 0;
#X connect 16 0 17 0;
#X connect 17 0 18 0;
#X connect 17 1 15 0;
#X connect 18 0 2 0;
#X connect 20 0 3 0;
#X connect 21 0 22 0;
#X connect 22 0 23 0;
#X connect 22 1 20 0;
#X connect 23 0 3 0;
#X connect 25 0 28 0;
#X connect 28 0 6 0;
#X connect 28 0 4 0;
#X connect 28 1 9 0;
#X connect 28 1 11 0;
#X connect 28 2 14 0;
#X connect 28 2 16 0;
#X connect 28 3 19 0;
#X connect 28 3 21 0;
#X connect 28 4 26 0;
#X connect 29 0 27 0;
#X connect 30 0 27 0;
#X connect 31 0 27 0;
#X connect 32 0 27 0;
#X restore 285 130 pd bank24-27;
#N canvas 0 0 589 303 bank28-31 0;
#X obj 117 204 readsf~;
#X obj 182 204 readsf~;
#X obj 246 205 readsf~;
#X obj 311 206 readsf~;
#X obj 51 108 bng 15 250 50 0 empty empty empty 17 7 0 10 -262144 -1
-1;
#X msg 78 167 open \$1;
#X obj 46 127 symbol;
#X obj 46 146 t b s;
#X msg 46 166 1;
#X obj 147 109 bng 15 250 50 0 empty empty empty 17 7 0 10 -262144
-1 -1;
#X msg 174 168 open \$1;
#X obj 142 128 symbol;
#X obj 142 147 t b s;
#X msg 142 167 1;
#X obj 242 112 bng 15 250 50 0 empty empty empty 17 7 0 10 -262144
-1 -1;
#X msg 269 171 open \$1;
#X obj 237 131 symbol;
#X obj 237 150 t b s;
#X msg 237 170 1;
#X obj 338 113 bng 15 250 50 0 empty empty empty 17 7 0 10 -262144
-1 -1;
#X msg 366 172 open \$1;
#X obj 333 132 symbol;
#X obj 333 151 t b s;
#X msg 333 171 1;
#X obj 208 275 outlet~;
#X obj 46 19 inlet;
#X obj 267 276 outlet;
#X obj 330 273 outlet;
#X obj 49 60 route 28 29 30 31;
#X msg 158 235 28;
#X msg 224 231 29;
#X msg 292 236 30;
#X msg 353 230 31;
#X connect 0 0 24 0;
#X connect 0 1 29 0;
#X connect 1 0 24 0;
#X connect 1 1 30 0;
#X connect 2 0 24 0;
#X connect 2 1 31 0;
#X connect 3 0 24 0;
#X connect 3 1 32 0;
#X connect 5 0 0 0;
#X connect 6 0 7 0;
#X connect 7 0 8 0;
#X connect 7 1 5 0;
#X connect 8 0 0 0;
#X connect 10 0 1 0;
#X connect 11 0 12 0;
#X connect 12 0 13 0;
#X connect 12 1 10 0;
#X connect 13 0 1 0;
#X connect 15 0 2 0;
#X connect 16 0 17 0;
#X connect 17 0 18 0;
#X connect 17 1 15 0;
#X connect 18 0 2 0;
#X connect 20 0 3 0;
#X connect 21 0 22 0;
#X connect 22 0 23 0;
#X connect 22 1 20 0;
#X connect 23 0 3 0;
#X connect 25 0 28 0;
#X connect 28 0 6 0;
#X connect 28 0 4 0;
#X connect 28 1 9 0;
#X connect 28 1 11 0;
#X connect 28 2 14 0;
#X connect 28 2 16 0;
#X connect 28 3 19 0;
#X connect 28 3 21 0;
#X connect 28 4 26 0;
#X connect 29 0 27 0;
#X connect 30 0 27 0;
#X connect 31 0 27 0;
#X connect 32 0 27 0;
#X restore 323 154 pd bank28-31;
#X obj 69 254 outlet~;
#X obj 57 30 inlet;
#X connect 0 0 10 0;
#X connect 1 0 0 0;
#X connect 1 1 2 0;
#X connect 1 2 5 0;
#X connect 2 0 0 0;
#X connect 2 1 3 0;
#X connect 2 2 5 0;
#X connect 3 0 0 0;
#X connect 3 1 4 0;
#X connect 3 2 5 0;
#X connect 4 0 0 0;
#X connect 4 1 6 0;
#X connect 4 2 5 0;
#X connect 6 0 0 0;
#X connect 6 1 7 0;
#X connect 6 2 5 0;
#X connect 7 0 0 0;
#X connect 7 1 8 0;
#X connect 7 2 5 0;
#X connect 8 0 0 0;
#X connect 8 1 9 0;
#X connect 8 2 5 0;
#X connect 9 0 0 0;
#X connect 9 2 5 0;
#X connect 11 0 1 0;
#X restore 61 285 pd samplebanks;
#X msg 143 14 /home/jason/media/house_sounds/files.txt;
#X obj 71 161 makefilename /home/jason/media/house_sounds/%s;
#N canvas 0 0 450 300 (subpatch) 0;
#X array array1 100 float 3;
#A 0 20.9538 20.9538 20.7372 20.9538 19.9538 23.3872 19.9538 20.9538
20.1566 20.3594 20.5622 20.765 20.9677 21.1705 21.9816 22.7927 23.6039
23.6039 24.8205 26.0372 27.2539 28.4706 30.2956 32.1206 32.7289 33.3373
33.9456 35.1623 12.6538 13.2621 13.8705 14.4788 82.7647 82.7647 68.9757
70.1923 70.1923 71.409 24.567 24.567 25.7837 26.3921 26.3921 10.1697
10.5753 11.1836 11.792 12.4003 14.2253 14.8336 122.635 122.331 122.027
121.723 121.419 118.985 55.0528 121.795 123.881 129.095 99.7009 94.4866
88.2296 80.9296 77.8011 80.9296 85.101 90.3152 92.4009 97.6152 101.787
102.829 98.658 93.4438 90.3152 84.0582 79.8868 81.9725 85.101 93.4367
93.4367 93.4367 93.4367 93.4367 93.4367 93.4367 93.4367 92.3938 91.351
90.3081 90.3081 89.2653 89.2653 88.2224 87.1796 86.1367 85.0939 84.051
81.9653 80.9225;
#X coords 0 147 32 1 400 240 1 0 0;
#X restore 275 211 graph;
#X obj 176 365 tabread array1;
#X obj 175 388 int;
#X obj 180 255 tgl 15 0 empty empty empty 17 7 0 10 -262144 -1 -1 1
1;
#X floatatom 222 253 5 0 0 0 - - -;
#X obj 194 235 nbx 5 14 5 1000 0 0 empty empty empty 0 -8 0 10 -262144
-1 -1 6.52272 256;
#X obj 108 339 loadbang;
#X obj 111 365 1;
#X obj 180 283 metro 15;
#X obj 177 308 bangloop 8;
#X obj 77 14 loadbang;
#X floatatom 212 333 5 0 0 0 - - -;
#X floatatom 416 87 5 0 0 0 - - -;
#X obj 414 58 wander 5 20 50000 100000;
#X obj 613 12 tgl 15 0 empty empty empty 17 7 0 10 -262144 -1 -1 0
1;
#X obj 612 51 random 8;
#X floatatom 613 117 5 0 0 0 - - -;
#X obj 612 96 tabread array1;
#X obj 614 135 + 1;
#X obj 614 70 t f f;
#X floatatom 721 139 5 0 0 0 - - -;
#X obj 613 160 tabwrite array1;
#X obj 613 31 metro 5000;
#X connect 1 0 0 0;
#X connect 1 0 0 1;
#X connect 2 0 4 0;
#X connect 2 0 7 1;
#X connect 4 0 3 0;
#X connect 5 0 7 0;
#X connect 6 0 5 0;
#X connect 7 0 15 0;
#X connect 8 0 13 0;
#X connect 9 0 10 0;
#X connect 9 1 8 1;
#X connect 10 0 8 0;
#X connect 11 0 10 1;
#X connect 12 0 10 1;
#X connect 13 0 1 0;
#X connect 14 0 2 0;
#X connect 15 0 9 0;
#X connect 17 0 18 0;
#X connect 18 0 7 0;
#X connect 19 0 24 0;
#X connect 20 0 24 1;
#X connect 21 0 24 1;
#X connect 22 0 23 0;
#X connect 23 0 0 2;
#X connect 24 0 25 0;
#X connect 25 0 17 0;
#X connect 26 0 14 0;
#X connect 27 0 25 1;
#X connect 29 0 21 0;
#X connect 29 0 28 0;
#X connect 30 0 38 0;
#X connect 31 0 35 0;
#X connect 32 0 34 0;
#X connect 33 0 32 0;
#X connect 34 0 37 0;
#X connect 35 0 33 0;
#X connect 35 1 36 0;
#X connect 35 1 37 1;
#X connect 38 0 31 0;
