#N canvas 197 124 713 688 10;
#X obj 83 523 sout~;
#X obj 116 495 *~ -1;
#X obj 90 419 wetdry2~;
#X obj 139 325 osc~;
#X obj 208 371 /~ 4;
#X obj 200 294 osc~ 0.6;
#X obj 221 325 osc~ 2;
#X obj 293 319 osc~ 0.8;
#X obj 296 350 osc~ 0.3;
#X floatatom 28 70 5 0 0 0 - - -;
#X floatatom 175 212 5 0 0 0 - - -;
#X floatatom 166 274 5 0 0 0 - - -;
#X obj 29 90 osc~ 129;
#X floatatom 115 188 5 0 0 0 - - -;
#X obj 99 138 osc~ 0.3;
#X obj 46 160 wetdry2~;
#X obj 95 113 osc~ 131;
#X obj 106 84 line;
#X obj 106 42 metro 3000;
#X msg 104 14 bang;
#X msg 106 63 131 \, 33 3000;
#X obj 146 18 loadbang;
#X text 173 259 65;
#X text 180 196 36;
#X text 116 172 57;
#X obj 124 248 *~ 36;
#X obj 133 297 +~ 65;
#X obj 115 215 osc~ 57;
#X obj 168 565 1;
#X obj 167 541 loadbang;
#X connect 1 0 0 1;
#X connect 2 0 1 0;
#X connect 2 0 0 0;
#X connect 3 0 2 1;
#X connect 4 0 2 2;
#X connect 5 0 4 0;
#X connect 6 0 4 0;
#X connect 7 0 4 0;
#X connect 8 0 4 0;
#X connect 9 0 12 0;
#X connect 10 0 25 1;
#X connect 11 0 26 1;
#X connect 12 0 15 0;
#X connect 13 0 27 0;
#X connect 14 0 15 2;
#X connect 15 0 2 0;
#X connect 16 0 15 1;
#X connect 17 0 16 0;
#X connect 18 0 20 0;
#X connect 19 0 18 0;
#X connect 20 0 17 0;
#X connect 21 0 18 0;
#X connect 25 0 26 0;
#X connect 26 0 3 0;
#X connect 27 0 25 0;
#X connect 28 0 0 2;
#X connect 29 0 28 0;
