#N canvas 406 129 436 534 10;
#X obj 43 388 sout~;
#X obj 114 411 1;
#X obj 20 13 infinity_pedal /dev/infinity-footpedal;
#X obj 19 44 select 1;
#X obj 132 44 select 1;
#X obj 53 363 *~ 1;
#N canvas 0 0 450 300 noisegen 0;
#X obj 96 164 + 50;
#X obj 109 22 loadbang;
#X obj 176 24 bng 15 250 50 0 empty empty empty 17 7 0 10 -262144 -1
-1;
#X obj 96 183 osc~;
#X obj 97 246 outlet~;
#X obj 97 68 metro 5;
#X obj 209 24 inlet;
#X obj 97 214 lop~ 1000;
#X obj 101 92 random 200;
#X obj 180 132 random 400;
#X obj 27 169 + 50;
#X obj 27 188 osc~;
#X obj 32 97 random 50;
#X connect 0 0 3 0;
#X connect 1 0 5 0;
#X connect 2 0 5 0;
#X connect 3 0 7 0;
#X connect 5 0 8 0;
#X connect 5 0 12 0;
#X connect 6 0 9 0;
#X connect 7 0 4 0;
#X connect 8 0 0 0;
#X connect 9 0 0 1;
#X connect 10 0 11 0;
#X connect 11 0 7 0;
#X connect 12 0 10 0;
#X restore 20 106 pd noisegen;
#X obj 29 65 bng 15 250 50 0 empty empty empty 17 7 0 10 -262144 -1
-1;
#X obj 20 84 t b b;
#X obj 23 152 dline~ 300 0.2;
#X obj 135 251 bp~ 100 2;
#X floatatom 159 199 5 0 0 0 - - -;
#X floatatom 191 235 5 0 0 0 - - -;
#X obj 154 117 random 5000;
#X obj 204 211 noise~;
#X obj 135 279 clipper~ 0.4;
#X floatatom 228 265 5 0 0 0 - - -;
#X obj 160 175 + 50;
#X obj 276 252 bp~ 100 2;
#X floatatom 357 231 5 0 0 0 - - -;
#X floatatom 369 266 5 0 0 0 - - -;
#X obj 241 182 / 2;
#X obj 200 334 *~ 0.2;
#X obj 276 280 clipper~ 0.4;
#X obj 23 128 *~ 1;
#X obj 27 176 *~ 0.5;
#X obj 247 39 select 1;
#X obj 235 137 line;
#X obj 158 144 t f f;
#X obj 243 82 f;
#X msg 242 109 \$1 \, 50 1000;
#X msg 248 61 bang;
#X obj 131 304 dline~ 300 0.55;
#X obj 269 302 dline~ 400 0.55;
#X obj 114 369 r onit;
#X msg 114 390 bang;
#X obj 255 370 adc~;
#X obj 251 459 dline~ 2000 0.65;
#X floatatom 325 380 5 0 0 0 - - -;
#X floatatom 308 427 5 0 0 0 - - -;
#X obj 255 400 clipper~ 51;
#X obj 258 430 *~ 0.65;
#X connect 1 0 0 2;
#X connect 2 0 3 0;
#X connect 2 1 4 0;
#X connect 2 2 26 0;
#X connect 3 0 7 0;
#X connect 3 0 8 0;
#X connect 4 0 13 0;
#X connect 5 0 0 0;
#X connect 5 0 0 1;
#X connect 6 0 24 0;
#X connect 8 0 6 0;
#X connect 9 0 25 0;
#X connect 10 0 15 0;
#X connect 11 0 10 1;
#X connect 11 0 21 0;
#X connect 12 0 10 2;
#X connect 13 0 28 0;
#X connect 14 0 10 0;
#X connect 14 0 18 0;
#X connect 15 0 32 0;
#X connect 16 0 15 1;
#X connect 17 0 11 0;
#X connect 18 0 23 0;
#X connect 19 0 18 2;
#X connect 20 0 23 1;
#X connect 21 0 18 1;
#X connect 22 0 5 0;
#X connect 23 0 33 0;
#X connect 24 0 9 0;
#X connect 25 0 5 0;
#X connect 26 0 31 0;
#X connect 27 0 17 0;
#X connect 28 0 17 0;
#X connect 28 1 29 1;
#X connect 29 0 30 0;
#X connect 30 0 27 0;
#X connect 31 0 29 0;
#X connect 32 0 22 0;
#X connect 33 0 22 0;
#X connect 34 0 35 0;
#X connect 35 0 1 0;
#X connect 36 0 40 0;
#X connect 37 0 5 0;
#X connect 38 0 40 1;
#X connect 39 0 41 1;
#X connect 40 0 41 0;
#X connect 41 0 37 0;
