#N canvas 326 104 757 538 10;
#X obj 184 418 hsl 128 15 0 1 0 0 empty empty empty -2 -6 0 8 -225271
-1 -1 12500 1;
#X obj 163 93 adc~;
#X floatatom 180 437 5 0 0 0 - - -;
#X obj 378 17 joystick 0 0 0;
#X obj 183 219 *~;
#X obj 72 368 vu 15 120 empty empty -1 -8 0 8 -66577 -1 1 0;
#N canvas 0 0 413 230 out 0;
#X obj 254 15 inlet;
#X obj 108 131 dac~;
#X obj 105 103 *~;
#X obj 135 103 *~;
#X obj 13 137 env~ 10000;
#X obj 14 157 - 97;
#X obj 163 9 inlet~;
#X obj 13 178 outlet;
#X obj 177 137 env~ 10000;
#X obj 178 157 - 97;
#X obj 177 178 outlet;
#X obj 86 10 inlet~;
#X obj 73 45 clip~ -1 1;
#X obj 162 45 clip~ -1 1;
#X connect 0 0 3 1;
#X connect 0 0 2 1;
#X connect 2 0 1 0;
#X connect 2 0 4 0;
#X connect 3 0 1 1;
#X connect 3 0 8 0;
#X connect 4 0 5 0;
#X connect 5 0 7 0;
#X connect 6 0 13 0;
#X connect 8 0 9 0;
#X connect 9 0 10 0;
#X connect 11 0 12 0;
#X connect 12 0 2 0;
#X connect 13 0 3 0;
#X restore 131 426 pd out;
#X obj 91 368 vu 15 120 empty empty -1 -8 0 8 -66577 -1 1 0;
#X floatatom 194 137 5 0 100 0 - - -;
#X floatatom 236 137 5 0 100 0 - - -;
#X floatatom 275 138 5 0 100 0 - - -;
#X obj 204 198 tgl 15 0 empty empty empty 0 -6 0 8 -262144 -1 -1 1
1;
#X obj 185 158 l_reverb~ 100 45 98;
#X text 383 37 todo....heh :);
#X floatatom 372 115 9 0 0 0 - - -;
#X floatatom 525 132 9 0 0 0 - - -;
#X floatatom 449 129 9 0 0 0 - - -;
#X floatatom 525 154 9 0 0 0 - - -;
#N canvas 0 0 450 300 graph3 0;
#X array a1 35 float 1;
#A 0 -0 -6756 11824 -13512 -15201 20269 13513 25337 -21957 20269 25337
-16890 -28714 28715 -32767 25337 28715 -0 27026 28715 -32092 -5067
-32092 -32767 25337 25337 -27025 -3378 20269 15202 18580 16891 6757
10135 -0;
#X coords 0 32000 34 -32000 320 140 1;
#X restore 384 273 graph;
#X obj 429 211 tabwrite a1;
#X obj 310 57 / 64000;
#X obj 311 77 + 0.5;
#X obj 450 100 * -1;
#X msg 365 151 bang;
#X obj 410 483 tabosc4~ a1;
#X floatatom 412 444 4 0 0 0 - - -;
#X obj 412 461 sig~ 10;
#X obj 309 101 * 35;
#X obj 178 280 dline~ 3000 0.9;
#X connect 0 0 2 0;
#X connect 0 0 6 2;
#X connect 1 0 12 0;
#X connect 3 0 20 0;
#X connect 3 1 15 0;
#X connect 3 2 22 0;
#X connect 3 4 17 0;
#X connect 4 0 28 0;
#X connect 6 0 5 0;
#X connect 6 1 7 0;
#X connect 8 0 12 2;
#X connect 9 0 12 3;
#X connect 10 0 12 4;
#X connect 11 0 4 1;
#X connect 12 0 4 0;
#X connect 14 0 19 1;
#X connect 14 0 23 0;
#X connect 16 0 19 0;
#X connect 20 0 21 0;
#X connect 21 0 27 0;
#X connect 22 0 16 0;
#X connect 23 0 16 0;
#X connect 25 0 26 0;
#X connect 26 0 24 0;
#X connect 27 0 14 0;
#X connect 28 0 6 0;
#X connect 28 0 6 1;
