#N canvas 85 0 796 639 10;
#X obj 69 89 joystick 0 0 0 0;
#X floatatom 48 177 10 0 0 0 - - -;
#X floatatom 127 178 10 0 0 0 - - -;
#X floatatom 209 180 10 0 0 0 - - -;
#X floatatom 194 151 5 0 0 0 - - -;
#X floatatom 238 152 5 0 0 0 - - -;
#X floatatom 285 153 5 0 0 0 - - -;
#X floatatom 329 153 5 0 0 0 - - -;
#X floatatom 372 153 5 0 0 0 - - -;
#X obj 44 595 dac~;
#X obj 43 432 panning~;
#X obj 124 533 hsl 128 15 0 1 0 0 empty empty empty -2 -6 0 8 -262144
-1 -1 6350 1;
#X obj 78 514 *~;
#X obj 34 516 *~;
#X text 121 551 volume;
#X obj 48 204 + 32093;
#X floatatom 48 232 10 0 0 0 - - -;
#X obj 48 294 osc~ 440;
#X obj 48 269 / 160;
#X floatatom 129 234 10 0 0 0 - - -;
#X obj 110 340 osc~ 440;
#X obj 129 271 / 160;
#X obj 18 564 hip~ 20;
#X obj 74 562 hip~ 20;
#X obj 129 206 + 32093;
#X obj 186 205 * -1;
#X floatatom 237 266 5 0 0 0 - - -;
#X obj 236 209 / -64000;
#X obj 236 237 + 0.5;
#X floatatom 300 269 5 0 0 0 - - -;
#X obj 302 211 / 32000;
#X obj 241 423 +~;
#X obj 241 451 osc~;
#X obj 266 395 *~ 75;
#X connect 0 0 1 0;
#X connect 0 1 2 0;
#X connect 0 2 3 0;
#X connect 0 3 4 0;
#X connect 0 4 5 0;
#X connect 0 5 6 0;
#X connect 0 6 7 0;
#X connect 0 7 8 0;
#X connect 1 0 15 0;
#X connect 2 0 25 0;
#X connect 3 0 27 0;
#X connect 5 0 30 0;
#X connect 10 0 13 0;
#X connect 10 1 12 0;
#X connect 11 0 12 1;
#X connect 11 0 13 1;
#X connect 12 0 23 0;
#X connect 13 0 22 0;
#X connect 15 0 16 0;
#X connect 16 0 18 0;
#X connect 18 0 17 0;
#X connect 18 0 31 0;
#X connect 19 0 21 0;
#X connect 20 0 33 0;
#X connect 21 0 20 0;
#X connect 22 0 9 0;
#X connect 23 0 9 1;
#X connect 24 0 19 0;
#X connect 25 0 24 0;
#X connect 27 0 28 0;
#X connect 28 0 26 0;
#X connect 28 0 11 0;
#X connect 30 0 29 0;
#X connect 30 0 10 1;
#X connect 31 0 32 0;
#X connect 32 0 10 0;
#X connect 33 0 31 1;
