#N canvas 156 12 688 551 10;
#N canvas 77 91 582 542 dayrkweys 0;
#X floatatom 101 355 5 0 0 0 - - -;
#X obj 100 333 hsl 128 15 50 2500 0 0 empty empty empty -2 -8 0 10
-262144 -1 -1 0 1;
#X obj 31 382 piano~ 150;
#X floatatom 339 351 5 0 0 0 - - -;
#X obj 340 331 hsl 128 15 50 2500 0 0 empty empty empty -2 -8 0 10
-262144 -1 -1 0 1;
#X obj 271 380 piano~ 150;
#X obj 31 416 *~ 1;
#X obj 269 215 *~ 1;
#X obj 32 438 outlet~;
#X obj 95 275 nrpn_in 88;
#X obj 29 223 *~ 1;
#X obj 326 279 nrpn_in 89;
#X obj 329 303 range 0 500 25 300;
#X obj 97 300 range 0 500 25 300;
#X obj 291 115 nrpn_in 81;
#X obj 51 90 nrpn_in 80;
#X floatatom 308 161 5 0 0 0 - - -;
#X floatatom 57 149 5 0 0 0 - - -;
#X obj 48 121 range 0 500 0 3;
#X obj 292 136 range 0 500 0 3;
#N canvas 0 0 450 300 adcin~ 0;
#X obj 32 270 outlet~;
#X obj 57 221 line~;
#X obj 141 159 select 0;
#X msg 105 186 0 75;
#X msg 177 188 1 75;
#X obj 167 125 ctlin 64;
#X obj 32 14 inlet~;
#X obj 31 243 *~;
#X obj 118 24 loadbang;
#X obj 116 51 t b b;
#X obj 165 82 ctlout 64;
#X obj 166 60 0;
#X connect 1 0 7 1;
#X connect 2 0 3 0;
#X connect 2 1 4 0;
#X connect 3 0 1 0;
#X connect 4 0 1 0;
#X connect 5 0 2 0;
#X connect 6 0 7 0;
#X connect 7 0 0 0;
#X connect 8 0 9 0;
#X connect 9 0 3 0;
#X connect 9 1 11 0;
#X connect 11 0 10 0;
#X restore 29 41 pd adcin~;
#X obj 30 16 adc~;
#X obj 418 158 nrpn_out 81;
#X obj 418 94 loadbang;
#X obj 418 136 range 0 3 0 500;
#X obj 419 115 1;
#X obj 164 98 loadbang;
#X obj 164 140 range 0 3 0 500;
#X obj 165 119 1;
#X obj 164 162 nrpn_out 80;
#X obj 140 429 loadbang;
#X obj 141 450 150;
#X obj 142 493 nrpn_out 88;
#X obj 143 471 range 25 300 0 500;
#X obj 296 431 loadbang;
#X obj 297 452 150;
#X obj 299 473 range 25 300 0 500;
#X obj 298 495 nrpn_out 89;
#X obj 268 193 pitcher~ 25 1;
#X obj 28 203 pitcher~ 25 1;
#X connect 0 0 2 1;
#X connect 1 0 0 0;
#X connect 2 0 6 0;
#X connect 3 0 5 1;
#X connect 4 0 3 0;
#X connect 5 0 6 0;
#X connect 6 0 8 0;
#X connect 7 0 5 0;
#X connect 9 0 13 0;
#X connect 10 0 2 0;
#X connect 11 0 12 0;
#X connect 12 0 3 0;
#X connect 13 0 0 0;
#X connect 14 0 19 0;
#X connect 15 0 18 0;
#X connect 18 0 17 0;
#X connect 18 0 39 1;
#X connect 19 0 16 0;
#X connect 19 0 38 1;
#X connect 20 0 38 0;
#X connect 20 0 39 0;
#X connect 21 0 20 0;
#X connect 23 0 25 0;
#X connect 24 0 22 0;
#X connect 25 0 24 0;
#X connect 25 0 38 1;
#X connect 26 0 28 0;
#X connect 27 0 29 0;
#X connect 28 0 27 0;
#X connect 28 0 39 1;
#X connect 30 0 31 0;
#X connect 31 0 33 0;
#X connect 33 0 32 0;
#X connect 34 0 35 0;
#X connect 35 0 36 0;
#X connect 36 0 37 0;
#X connect 38 0 7 0;
#X connect 39 0 10 0;
#X restore 27 89 pd dayrkweys;
#X text 238 19 k b o o f m m a y 1 2 0 0 8;
#X text 315 6 infiltration lab;
#X text 15 31 a language specification for the formal refusal of servitude
;
#X text 127 57 b u ~ b u * b u <null> begin minus minus end e o m e
o f;
#N canvas 0 0 530 421 vocality 0;
#X obj 101 17 adc~;
#X obj 200 274 /~ 4;
#X msg 146 83 0.3;
#X msg 335 69 0.4;
#X msg 365 175 1.6;
#X obj 103 116 pitcher~ 256 0;
#X obj 299 119 pitcher~ 256 0;
#X obj 337 204 pitcher~ 256 0;
#X obj 38 199 pitcher~ 256 0;
#X msg 76 167 2.5;
#X obj 196 360 outlet~;
#X obj 218 19 loadbang;
#X connect 0 0 5 0;
#X connect 0 0 6 0;
#X connect 0 0 7 0;
#X connect 0 0 8 0;
#X connect 1 0 10 0;
#X connect 2 0 5 1;
#X connect 3 0 6 1;
#X connect 4 0 7 1;
#X connect 5 0 1 0;
#X connect 6 0 1 0;
#X connect 7 0 1 0;
#X connect 8 0 1 0;
#X connect 9 0 8 1;
#X connect 11 0 2 0;
#X connect 11 0 3 0;
#X connect 11 0 4 0;
#X connect 11 0 9 0;
#X restore 196 127 pd vocality;
#N canvas 6 9 625 412 indol0per 0;
#X floatatom 133 228 5 0 0 0 - - -;
#X obj 134 206 hsl 128 15 0 1 0 0 empty empty empty -2 -8 0 10 -262144
-1 -1 0 1;
#X obj 101 88 dline~ 121 0.85;
#X obj 230 88 dline~ 222 0.85;
#X obj 231 128 dline~ 121 0.85;
#X obj 102 133 dline~ 222 0.85;
#X obj 232 327 dlloop~ 3550 0.9;
#X obj 102 327 dlloop~ 3552 0.9;
#X obj 103 356 outlet~;
#X obj 233 353 outlet~;
#N canvas 0 0 450 300 adcin~ 0;
#X obj 32 270 outlet~;
#X obj 57 221 line~;
#X obj 141 159 select 0;
#X msg 105 186 0 75;
#X msg 177 188 1 75;
#X obj 32 14 inlet~;
#X obj 31 243 *~;
#X obj 118 24 loadbang;
#X obj 116 51 t b b;
#X obj 166 60 0;
#X obj 165 82 ctlout 66;
#X obj 167 125 ctlin 66;
#X connect 1 0 6 1;
#X connect 2 0 3 0;
#X connect 2 1 4 0;
#X connect 3 0 1 0;
#X connect 4 0 1 0;
#X connect 5 0 6 0;
#X connect 6 0 0 0;
#X connect 7 0 8 0;
#X connect 8 0 3 0;
#X connect 8 1 9 0;
#X connect 9 0 10 0;
#X connect 11 0 2 0;
#X restore 168 46 pd adcin~;
#X obj 167 14 adc~;
#X obj 285 205 ctlin 82;
#X floatatom 297 253 5 0 0 0 - - -;
#X obj 284 230 range 0 50 0 1;
#X obj 412 170 ctlin 74;
#X floatatom 428 194 5 0 0 0 - - -;
#X obj 414 218 select 0;
#X obj 410 285 line;
#X msg 414 250 0 150;
#X msg 471 249 1 150;
#X connect 0 0 6 2;
#X connect 0 0 7 2;
#X connect 1 0 0 0;
#X connect 2 0 5 0;
#X connect 3 0 4 0;
#X connect 4 0 6 0;
#X connect 5 0 7 0;
#X connect 6 0 9 0;
#X connect 7 0 8 0;
#X connect 10 0 2 0;
#X connect 10 0 3 0;
#X connect 11 0 10 0;
#X connect 12 0 14 0;
#X connect 14 0 13 0;
#X connect 14 0 7 2;
#X connect 14 0 6 2;
#X connect 15 0 16 0;
#X connect 15 0 17 0;
#X connect 17 0 19 0;
#X connect 17 1 20 0;
#X connect 18 0 6 2;
#X connect 18 0 7 2;
#X connect 19 0 18 0;
#X connect 20 0 18 0;
#X restore 97 127 pd indol0per;
#N canvas 671 0 341 297 volctl 0;
#X obj 92 211 *~ -1;
#X obj 33 232 outlet~;
#X obj 92 232 outlet~;
#X obj 32 158 *~ 1;
#X obj 31 28 inlet~;
#X obj 176 36 nrpn_in 96;
#X floatatom 189 68 5 0 0 0 - - -;
#X obj 157 97 range 0 500 0 1.5;
#X obj 200 149 loadbang;
#X obj 197 199 nrpn_out 96;
#X obj 198 176 0;
#X connect 0 0 2 0;
#X connect 3 0 1 0;
#X connect 3 0 0 0;
#X connect 4 0 3 0;
#X connect 5 0 6 0;
#X connect 5 0 7 0;
#X connect 7 0 3 1;
#X connect 8 0 10 0;
#X connect 10 0 9 0;
#X connect 10 0 3 1;
#X restore 25 249 pd volctl;
#N canvas 494 8 450 300 volctl 0;
#X obj 181 215 *~ -1;
#X obj 73 232 outlet~;
#X obj 181 236 outlet~;
#X obj 71 28 inlet~;
#X obj 140 30 inlet~;
#X obj 170 113 t f f;
#X obj 168 57 nrpn_in 98;
#X floatatom 222 114 5 0 0 0 - - -;
#X obj 313 166 loadbang;
#X obj 313 199 0;
#X obj 314 232 nrpn_out 98;
#X obj 138 159 *~ 0;
#X obj 72 158 *~ 0;
#X obj 171 84 range 0 500 0 8;
#X connect 0 0 2 0;
#X connect 3 0 12 0;
#X connect 4 0 11 0;
#X connect 5 0 12 1;
#X connect 5 1 11 1;
#X connect 6 0 13 0;
#X connect 8 0 9 0;
#X connect 9 0 10 0;
#X connect 11 0 0 0;
#X connect 12 0 1 0;
#X connect 13 0 5 0;
#X connect 13 0 7 0;
#X restore 107 247 pd volctl;
#N canvas 324 42 450 300 volctl 0;
#X obj 181 215 *~ -1;
#X obj 73 232 outlet~;
#X obj 181 236 outlet~;
#X obj 72 158 *~ 1;
#X obj 71 28 inlet~;
#X floatatom 147 129 5 0 0 0 - - -;
#X obj 143 100 range 0 500 0 15;
#X obj 143 39 nrpn_in 100;
#X obj 256 142 loadbang;
#X obj 255 168 0;
#X obj 255 193 nrpn_out 100;
#X connect 0 0 2 0;
#X connect 3 0 1 0;
#X connect 3 0 0 0;
#X connect 4 0 3 0;
#X connect 6 0 3 1;
#X connect 6 0 5 0;
#X connect 7 0 6 0;
#X connect 8 0 9 0;
#X connect 9 0 10 0;
#X connect 9 0 3 1;
#X restore 194 249 pd volctl;
#X text 217 44 psychic harpoon parry maelstrom;
#X text 448 120 preset 20 on bcr2000;
#N canvas 0 0 450 300 output 0;
#X obj 73 21 inlet~;
#X obj 141 20 inlet~;
#X obj 96 266 dac~;
#X obj 93 225 *~;
#X obj 126 224 *~;
#X obj 164 70 range 0 100 0 1;
#X obj 165 49 ctlin 103;
#X obj 191 102 loadbang;
#X obj 192 124 0.8;
#X obj 230 191 range 0 1 0 100;
#X obj 230 211 ctlout 103;
#X obj 185 158 t f f f;
#X floatatom 272 107 5 0 0 0 - - -;
#X floatatom 205 236 5 0 0 0 - - -;
#X connect 0 0 3 0;
#X connect 1 0 4 0;
#X connect 3 0 2 0;
#X connect 4 0 2 1;
#X connect 5 0 4 1;
#X connect 5 0 3 1;
#X connect 5 0 12 0;
#X connect 6 0 5 0;
#X connect 7 0 8 0;
#X connect 8 0 11 0;
#X connect 9 0 10 0;
#X connect 9 0 13 0;
#X connect 11 0 3 1;
#X connect 11 1 4 1;
#X connect 11 2 9 0;
#X restore 73 391 pd output;
#N canvas 603 76 450 300 volctl 0;
#X obj 181 215 *~ -1;
#X obj 73 232 outlet~;
#X obj 181 236 outlet~;
#X obj 72 158 *~ 1;
#X obj 71 28 inlet~;
#X floatatom 147 129 5 0 0 0 - - -;
#X obj 256 142 loadbang;
#X obj 255 168 0;
#X obj 143 39 nrpn_in 101;
#X obj 253 195 nrpn_out 101;
#X obj 142 101 range 0 500 0 1.1;
#X connect 0 0 2 0;
#X connect 3 0 1 0;
#X connect 3 0 0 0;
#X connect 4 0 3 0;
#X connect 6 0 7 0;
#X connect 7 0 3 1;
#X connect 7 0 9 0;
#X connect 8 0 10 0;
#X connect 10 0 3 1;
#X connect 10 0 5 0;
#X restore 284 250 pd volctl;
#N canvas 599 242 376 441 piezopan 1;
#X obj 92 11 adc~;
#X obj 52 246 piano~ 15;
#X obj 197 242 dline~ 80 0.95;
#X obj 92 143 pitcher~ 0.05;
#X obj 95 212 *~ 3;
#X floatatom 121 117 5 0 0 0 - - -;
#X obj 94 165 lop~ 606;
#X obj 42 286 lop~ 166;
#X obj 115 285 *~ 0.3;
#X obj 43 309 *~ 3;
#X obj 128 367 outlet~;
#N canvas 0 0 450 300 adcin~ 0;
#X obj 32 270 outlet~;
#X obj 57 221 line~;
#X obj 141 159 select 0;
#X msg 105 186 0 75;
#X msg 177 188 1 75;
#X obj 32 14 inlet~;
#X obj 31 243 *~;
#X obj 118 24 loadbang;
#X obj 116 51 t b b;
#X obj 166 60 0;
#X obj 165 82 ctlout 69;
#X obj 167 125 ctlin 69;
#X connect 1 0 6 1;
#X connect 2 0 3 0;
#X connect 2 1 4 0;
#X connect 3 0 1 0;
#X connect 4 0 1 0;
#X connect 5 0 6 0;
#X connect 6 0 0 0;
#X connect 7 0 8 0;
#X connect 8 0 3 0;
#X connect 8 1 9 0;
#X connect 9 0 10 0;
#X connect 11 0 2 0;
#X restore 93 42 pd adcin~;
#X connect 0 0 11 0;
#X connect 1 0 7 0;
#X connect 1 0 8 0;
#X connect 2 0 10 0;
#X connect 3 0 6 0;
#X connect 4 0 2 0;
#X connect 4 0 1 0;
#X connect 5 0 3 1;
#X connect 6 0 4 0;
#X connect 7 0 9 0;
#X connect 8 0 10 0;
#X connect 9 0 10 0;
#X connect 11 0 3 0;
#X restore 284 128 pd piezopan;
#N canvas 603 76 450 300 volctl 0;
#X obj 181 215 *~ -1;
#X obj 73 232 outlet~;
#X obj 181 236 outlet~;
#X obj 72 158 *~ 1;
#X obj 71 28 inlet~;
#X floatatom 147 129 5 0 0 0 - - -;
#X obj 256 142 loadbang;
#X obj 255 168 0;
#X obj 142 101 range 0 500 0 1.1;
#X obj 253 196 nrpn_out 102;
#X obj 145 53 nrpn_in 102;
#X connect 0 0 2 0;
#X connect 3 0 1 0;
#X connect 3 0 0 0;
#X connect 4 0 3 0;
#X connect 6 0 7 0;
#X connect 7 0 3 1;
#X connect 7 0 9 0;
#X connect 8 0 3 1;
#X connect 8 0 5 0;
#X connect 10 0 8 0;
#X restore 367 249 pd volctl;
#X connect 0 0 7 0;
#X connect 5 0 9 0;
#X connect 6 0 8 0;
#X connect 6 1 8 1;
#X connect 7 0 12 0;
#X connect 7 1 12 1;
#X connect 8 0 12 0;
#X connect 8 1 12 1;
#X connect 9 0 12 0;
#X connect 9 1 12 1;
#X connect 13 0 12 0;
#X connect 13 1 12 1;
#X connect 14 0 13 0;
