#N struct awf-template-1020 float x float y float h;
#N canvas 43 145 688 551 10;
#N canvas 0 0 536 380 dayrkweys 0;
#X floatatom 96 111 5 0 0 0 - - -;
#X obj 95 89 hsl 128 15 50 2500 0 0 empty empty empty -2 -8 0 10 -262144
-1 -1 600 1;
#X obj 29 141 piano~ 150;
#X obj 277 54 pitcher~ 0.3;
#X floatatom 343 116 5 0 0 0 - - -;
#X obj 342 94 hsl 128 15 50 2500 0 0 empty empty empty -2 -8 0 10 -262144
-1 -1 0 1;
#X obj 276 146 piano~ 150;
#X obj 28 211 *~ 1;
#X obj 278 90 *~ 1;
#X obj 39 26 adc~;
#X obj 24 350 outlet~;
#X connect 0 0 2 1;
#X connect 1 0 0 0;
#X connect 2 0 7 0;
#X connect 3 0 8 0;
#X connect 4 0 6 1;
#X connect 5 0 4 0;
#X connect 6 0 7 0;
#X connect 7 0 10 0;
#X connect 8 0 6 0;
#X connect 9 0 2 0;
#X connect 9 0 8 0;
#X restore 55 101 pd dayrkweys;
#X text 238 19 k b o o f m m a y 1 2 0 0 8;
#X text 315 6 infiltration lab;
#X obj 467 272 granubench~;
#X text 15 31 a language specification for the formal refusal of servitude
;
#X text 127 57 b u ~ b u * b u <null> begin minus minus end e o m e
o f;
#N canvas 0 0 530 421 vocality 0;
#X obj 101 17 adc~;
#X obj 200 274 /~ 4;
#X msg 146 83 0.3;
#X msg 335 69 0.4;
#X msg 365 175 1.6;
#X obj 103 116 pitcher~ 256 0;
#X obj 299 119 pitcher~ 256 0;
#X obj 337 204 pitcher~ 256 0;
#X obj 38 199 pitcher~ 256 0;
#X msg 76 167 2.5;
#X obj 196 360 outlet~;
#X obj 218 19 loadbang;
#X connect 0 0 5 0;
#X connect 0 0 6 0;
#X connect 0 0 7 0;
#X connect 0 0 8 0;
#X connect 1 0 10 0;
#X connect 2 0 5 1;
#X connect 3 0 6 1;
#X connect 4 0 7 1;
#X connect 5 0 1 0;
#X connect 6 0 1 0;
#X connect 7 0 1 0;
#X connect 8 0 1 0;
#X connect 9 0 8 1;
#X connect 11 0 2 0;
#X connect 11 0 3 0;
#X connect 11 0 4 0;
#X connect 11 0 9 0;
#X restore 281 104 pd vocality;
#N canvas 0 0 450 412 indol0per 1;
#X obj 156 33 adc~;
#X floatatom 281 200 5 0 0 0 - - -;
#X obj 282 178 hsl 128 15 0 1 0 0 empty empty empty -2 -8 0 10 -262144
-1 -1 12700 1;
#X obj 112 89 dline~ 121 0.85;
#X obj 236 90 dline~ 222 0.85;
#X obj 231 128 dline~ 121 0.85;
#X obj 104 132 dline~ 222 0.85;
#X obj 202 244 dlloop~ 3550 0.9;
#X obj 44 240 dlloop~ 3552 0.9;
#X obj 108 313 outlet~;
#X obj 213 313 outlet~;
#X connect 0 0 3 0;
#X connect 0 0 4 0;
#X connect 1 0 7 2;
#X connect 1 0 8 2;
#X connect 2 0 1 0;
#X connect 3 0 6 0;
#X connect 4 0 5 0;
#X connect 5 0 7 0;
#X connect 6 0 8 0;
#X connect 7 0 10 0;
#X connect 8 0 9 0;
#X restore 168 104 pd indol0per;
#N canvas 671 0 341 297 volctl 0;
#X obj 181 215 *~ -1;
#X obj 73 232 outlet~;
#X obj 181 236 outlet~;
#X obj 72 158 *~ 1;
#X obj 71 28 inlet~;
#X obj 176 36 nrpn_in 96;
#X floatatom 189 68 5 0 0 0 - - -;
#X obj 157 97 range 0 500 0 1.5;
#X connect 0 0 2 0;
#X connect 3 0 1 0;
#X connect 3 0 0 0;
#X connect 4 0 3 0;
#X connect 5 0 6 0;
#X connect 5 0 7 0;
#X connect 7 0 3 1;
#X restore 54 241 pd volctl;
#N canvas 24 4 450 300 volctl 1;
#X obj 181 215 *~ -1;
#X obj 73 232 outlet~;
#X obj 181 236 outlet~;
#X obj 72 158 *~ 1;
#X obj 71 28 inlet~;
#X obj 140 30 inlet~;
#X obj 138 159 *~ 1;
#X obj 196 118 t f f;
#X floatatom 224 67 5 0 0 0 - - -;
#X obj 192 96 range 0 500 0 2;
#X obj 216 35 nrpn_in 97;
#X connect 0 0 2 0;
#X connect 3 0 1 0;
#X connect 4 0 3 0;
#X connect 5 0 6 0;
#X connect 6 0 0 0;
#X connect 7 0 3 1;
#X connect 7 1 6 1;
#X connect 9 0 7 0;
#X connect 10 0 8 0;
#X connect 10 0 9 0;
#X restore 158 239 pd volctl;
#N canvas 324 42 450 300 volctl 0;
#X obj 181 215 *~ -1;
#X obj 73 232 outlet~;
#X obj 181 236 outlet~;
#X obj 72 158 *~ 1;
#X obj 71 28 inlet~;
#X floatatom 151 71 5 0 0 0 - - -;
#X obj 143 39 nrpn_in 98;
#X obj 143 100 range 0 500 0 15;
#X connect 0 0 2 0;
#X connect 3 0 1 0;
#X connect 3 0 0 0;
#X connect 4 0 3 0;
#X connect 6 0 5 0;
#X connect 6 0 7 0;
#X connect 7 0 3 1;
#X restore 268 243 pd volctl;
#X text 217 44 psychic harpoon parry maelstrom;
#X text 443 131 preset 20 on bcr2000;
#N canvas 0 0 450 300 output 0;
#X obj 73 21 inlet~;
#X obj 141 20 inlet~;
#X obj 96 266 dac~;
#X obj 93 225 *~;
#X obj 126 224 *~;
#X obj 164 70 range 0 100 0 1;
#X obj 165 49 ctlin 103;
#X obj 191 102 loadbang;
#X obj 192 124 0.8;
#X obj 190 148 range 0 1 0 100;
#X obj 237 200 ctlout 103;
#X obj 191 177 t f f f;
#X connect 0 0 3 0;
#X connect 1 0 4 0;
#X connect 3 0 2 0;
#X connect 4 0 2 1;
#X connect 5 0 4 1;
#X connect 5 0 3 1;
#X connect 6 0 5 0;
#X connect 7 0 8 0;
#X connect 8 0 9 0;
#X connect 9 0 11 0;
#X connect 11 0 3 1;
#X connect 11 1 4 1;
#X connect 11 2 10 0;
#X restore 132 380 pd output;
#X connect 0 0 8 0;
#X connect 0 0 3 1;
#X connect 6 0 10 0;
#X connect 7 0 9 0;
#X connect 7 1 9 1;
#X connect 8 0 13 0;
#X connect 8 1 13 1;
#X connect 9 0 13 0;
#X connect 9 1 13 1;
#X connect 10 0 13 0;
#X connect 10 1 13 1;
