#N struct awf-template-1023 float x float y float h;
#N canvas 108 69 688 551 10;
#X obj 56 389 sout~;
#N canvas 0 0 536 380 dayrkweys 0;
#X floatatom 96 111 5 0 0 0 - - -;
#X obj 95 89 hsl 128 15 50 2500 0 0 empty empty empty -2 -8 0 10 -262144
-1 -1 0 1;
#X obj 29 141 piano~ 150;
#X obj 277 54 pitcher~ 0.3;
#X floatatom 343 116 5 0 0 0 - - -;
#X obj 342 94 hsl 128 15 50 2500 0 0 empty empty empty -2 -8 0 10 -262144
-1 -1 0 1;
#X obj 276 146 piano~ 150;
#X obj 28 211 *~ 1;
#X obj 278 90 *~ 1;
#X obj 39 26 adc~;
#X obj 24 350 outlet~;
#X connect 0 0 2 1;
#X connect 1 0 0 0;
#X connect 2 0 7 0;
#X connect 3 0 8 0;
#X connect 4 0 6 1;
#X connect 5 0 4 0;
#X connect 6 0 7 0;
#X connect 7 0 10 0;
#X connect 8 0 6 0;
#X connect 9 0 2 0;
#X connect 9 0 8 0;
#X restore 55 106 pd dayrkweys;
#X text 238 19 k b o o f m m a y 1 2 0 0 8;
#X text 315 6 infiltration lab;
#X obj 467 272 granubench~;
#X text 15 31 a language specification for the formal refusal of servitude
;
#X text 525 50 b u ~ b u * b u <null> begin minus minus end e o m e
o f;
#N canvas 0 0 530 421 vocality 0;
#X obj 101 17 adc~;
#X obj 200 274 /~ 4;
#X msg 146 83 0.3;
#X msg 335 69 0.4;
#X msg 365 175 1.6;
#X obj 103 116 pitcher~ 256 0;
#X obj 299 119 pitcher~ 256 0;
#X obj 337 204 pitcher~ 256 0;
#X obj 38 199 pitcher~ 256 0;
#X msg 76 167 2.5;
#X obj 196 360 outlet~;
#X obj 218 19 loadbang;
#X connect 0 0 5 0;
#X connect 0 0 6 0;
#X connect 0 0 7 0;
#X connect 0 0 8 0;
#X connect 1 0 10 0;
#X connect 2 0 5 1;
#X connect 3 0 6 1;
#X connect 4 0 7 1;
#X connect 5 0 1 0;
#X connect 6 0 1 0;
#X connect 7 0 1 0;
#X connect 8 0 1 0;
#X connect 9 0 8 1;
#X connect 11 0 2 0;
#X connect 11 0 3 0;
#X connect 11 0 4 0;
#X connect 11 0 9 0;
#X restore 281 104 pd vocality;
#N canvas 0 0 450 412 indol0per 0;
#X obj 156 33 adc~;
#X floatatom 281 200 5 0 0 0 - - -;
#X obj 282 178 hsl 128 15 0 1 0 0 empty empty empty -2 -8 0 10 -262144
-1 -1 12700 1;
#X obj 112 89 dline~ 121 0.85;
#X obj 236 90 dline~ 222 0.85;
#X obj 231 128 dline~ 121 0.85;
#X obj 104 132 dline~ 222 0.85;
#X obj 202 244 dlloop~ 3550 0.9;
#X obj 44 240 dlloop~ 3552 0.9;
#X obj 108 313 outlet~;
#X obj 213 313 outlet~;
#X connect 0 0 3 0;
#X connect 0 0 4 0;
#X connect 1 0 7 2;
#X connect 1 0 8 2;
#X connect 2 0 1 0;
#X connect 3 0 6 0;
#X connect 4 0 5 0;
#X connect 5 0 7 0;
#X connect 6 0 8 0;
#X connect 7 0 10 0;
#X connect 8 0 9 0;
#X restore 168 104 pd indol0per;
#N canvas 671 0 450 300 volctl 0;
#X obj 181 215 *~ -1;
#X obj 73 232 outlet~;
#X obj 181 236 outlet~;
#X obj 72 158 *~ 1;
#X obj 71 28 inlet~;
#X obj 175 74 inlet;
#X floatatom 177 123 5 0 0 0 - - -;
#X connect 0 0 2 0;
#X connect 3 0 1 0;
#X connect 3 0 0 0;
#X connect 4 0 3 0;
#X connect 5 0 6 0;
#X connect 6 0 3 1;
#X restore 54 241 pd volctl;
#N canvas 0 0 450 300 volctl 0;
#X obj 181 215 *~ -1;
#X obj 73 232 outlet~;
#X obj 181 236 outlet~;
#X obj 72 158 *~ 1;
#X obj 71 28 inlet~;
#X obj 231 30 inlet;
#X floatatom 184 61 5 0 0 0 - - -;
#X obj 140 30 inlet~;
#X obj 138 159 *~ 1;
#X obj 161 83 t f f;
#X connect 0 0 2 0;
#X connect 3 0 1 0;
#X connect 4 0 3 0;
#X connect 5 0 6 0;
#X connect 6 0 9 0;
#X connect 7 0 8 0;
#X connect 8 0 0 0;
#X connect 9 0 3 1;
#X connect 9 1 8 1;
#X restore 147 243 pd volctl;
#N canvas 557 6 450 300 volctl 1;
#X obj 181 215 *~ -1;
#X obj 73 232 outlet~;
#X obj 181 236 outlet~;
#X obj 72 158 *~ 1;
#X obj 71 28 inlet~;
#X obj 175 74 inlet;
#X floatatom 177 123 5 0 0 0 - - -;
#X connect 0 0 2 0;
#X connect 3 0 1 0;
#X connect 3 0 0 0;
#X connect 4 0 3 0;
#X connect 5 0 6 0;
#X connect 6 0 3 1;
#X restore 268 243 pd volctl;
#X text 119 49 psychic harpoon parry maelstrom;
#X connect 1 0 9 0;
#X connect 1 0 4 1;
#X connect 7 0 11 0;
#X connect 8 0 10 0;
#X connect 8 1 10 1;
#X connect 9 0 0 0;
#X connect 9 1 0 1;
#X connect 10 0 0 0;
#X connect 10 1 0 1;
#X connect 11 0 0 0;
#X connect 11 1 0 1;
