#N struct awf-template-1067 float x float y float h;
#N canvas 71 95 688 551 10;
#X obj 56 389 sout~;
#X obj 80 363 *~ -1;
#X obj 56 304 *~ 1;
#N canvas 0 0 536 380 dayrkweys 0;
#X floatatom 96 111 5 0 0 0 - - -;
#X obj 95 89 hsl 128 15 50 2500 0 0 empty empty empty -2 -8 0 10 -262144
-1 -1 0 1;
#X obj 29 141 piano~ 150;
#X obj 277 54 pitcher~ 0.3;
#X floatatom 343 116 5 0 0 0 - - -;
#X obj 342 94 hsl 128 15 50 2500 0 0 empty empty empty -2 -8 0 10 -262144
-1 -1 0 1;
#X obj 276 146 piano~ 150;
#X obj 28 211 *~ 1;
#X obj 278 90 *~ 1;
#X obj 39 26 adc~;
#X obj 24 350 outlet~;
#X connect 0 0 2 1;
#X connect 1 0 0 0;
#X connect 2 0 7 0;
#X connect 3 0 8 0;
#X connect 4 0 6 1;
#X connect 5 0 4 0;
#X connect 6 0 7 0;
#X connect 7 0 10 0;
#X connect 8 0 6 0;
#X connect 9 0 2 0;
#X connect 9 0 8 0;
#X restore 57 125 pd dayrkweys;
#X text 238 19 k b o o f m m a y 1 2 0 0 8;
#X text 315 6 infiltration lab;
#X obj 232 193 granubench~;
#X text 15 31 a language specification for the formal refusal of servitude
;
#X text 525 50 b u ~ b u * b u <null> begin minus minus end e o m e
o f;
#N canvas 0 0 450 300 vocality 0;
#X restore 245 95 pd vocality;
#N canvas 0 0 450 412 indol0per 0;
#X obj 156 33 adc~;
#X floatatom 281 200 5 0 0 0 - - -;
#X obj 282 178 hsl 128 15 0 1 0 0 empty empty empty -2 -8 0 10 -262144
-1 -1 0 1;
#X obj 112 89 dline~ 121 0.85;
#X obj 236 90 dline~ 222 0.85;
#X obj 231 128 dline~ 121 0.85;
#X obj 104 132 dline~ 222 0.85;
#X obj 202 244 dlloop~ 3550 0.9;
#X obj 44 240 dlloop~ 3552 0.9;
#X obj 108 313 outlet~;
#X obj 213 313 outlet~;
#X connect 0 0 3 0;
#X connect 0 0 4 0;
#X connect 1 0 7 2;
#X connect 1 0 8 2;
#X connect 2 0 1 0;
#X connect 3 0 6 0;
#X connect 4 0 5 0;
#X connect 5 0 7 0;
#X connect 6 0 8 0;
#X connect 7 0 10 0;
#X connect 8 0 9 0;
#X restore 394 124 pd indol0per;
#X connect 1 0 0 1;
#X connect 2 0 1 0;
#X connect 2 0 0 0;
#X connect 3 0 2 0;
#X connect 3 0 6 1;
#X connect 6 0 2 0;
