#N canvas 402 42 669 508 10;
#X obj 44 432 noteout;
#X floatatom 21 175 5 0 0 0 - - -;
#X obj 15 -8 hsl 300 65 0 15 0 0 empty empty empty -2 -8 0 10 -260097
-1 -1 27600 1;
#X obj 12 122 int;
#X obj 12 150 change;
#X msg 330 82 bang;
#X floatatom 338 143 5 0 0 0 - - -;
#X msg 393 83 bang;
#X msg 356 20 bang;
#X obj 25 398 makenote 1 325;
#X obj 328 119 rndseq 8 0 9;
#X obj 350 47 metro 200;
#X msg 398 19 stop;
#X msg 348 316 bang;
#X msg 390 315 stop;
#X floatatom 345 411 5 0 0 0 - - -;
#X obj 342 343 metro 500;
#X obj 339 377 bangloop 12;
#X floatatom 435 318 5 0 0 0 - - -;
#X floatatom 447 22 5 0 0 0 - - -;
#X floatatom 129 361 5 0 0 0 - - -;
#N canvas 15 5 450 300 keyboard 0;
#X obj 31 51 cnv 15 170 89 empty empty empty 20 12 0 14 -195958 -66577
0;
#X text 44 67 q;
#X text 64 67 w;
#X text 82 67 e;
#X text 101 67 r;
#X text 117 67 a;
#X text 136 67 s;
#X text 155 67 d;
#X text 172 67 f;
#X obj 40 265 outlet;
#N canvas 518 81 391 339 dispatch 0;
#X obj 61 27 keyname;
#X obj 221 286 send;
#X obj 44 157 pack 0 s 0;
#X obj 45 179 route 0;
#X obj 50 102 t b b f;
#X obj 74 133 symbol;
#X text 102 177 hack because pack outputs list wtf.;
#X obj 251 245 r \$0_ksts;
#X obj 185 246 r \$0_kfv;
#N canvas 200 459 657 338 row1 0;
#X obj 188 49 route q w e r;
#X obj 32 104 t f b;
#X obj 184 101 t f b;
#X obj 302 107 t f b;
#X obj 449 106 t f b;
#X obj 507 162 s \$0_ksts;
#X obj 442 162 s \$0_kfv;
#X obj 488 140 symbol kk_r;
#X obj 356 129 symbol kk_e;
#X obj 212 129 symbol kk_w;
#X obj 65 125 symbol kk_q;
#X obj 366 159 s \$0_ksts;
#X obj 302 159 s \$0_kfv;
#X obj 74 157 s \$0_ksts;
#X obj 12 157 s \$0_kfv;
#X obj 218 158 s \$0_ksts;
#X obj 156 158 s \$0_kfv;
#X obj 188 21 inlet;
#X obj 225 296 outlet;
#X connect 0 0 1 0;
#X connect 0 1 2 0;
#X connect 0 2 3 0;
#X connect 0 3 4 0;
#X connect 0 4 18 0;
#X connect 1 0 14 0;
#X connect 1 1 10 0;
#X connect 2 0 16 0;
#X connect 2 1 9 0;
#X connect 3 0 12 0;
#X connect 3 1 8 0;
#X connect 4 0 6 0;
#X connect 4 1 7 0;
#X connect 7 0 5 0;
#X connect 8 0 11 0;
#X connect 9 0 15 0;
#X connect 10 0 13 0;
#X connect 17 0 0 0;
#X restore 54 207 pd row1;
#N canvas 200 459 657 338 row3 0;
#X obj 32 104 t f b;
#X obj 184 101 t f b;
#X obj 302 107 t f b;
#X obj 449 106 t f b;
#X obj 507 162 s \$0_ksts;
#X obj 442 162 s \$0_kfv;
#X obj 366 159 s \$0_ksts;
#X obj 302 159 s \$0_kfv;
#X obj 74 157 s \$0_ksts;
#X obj 12 157 s \$0_kfv;
#X obj 218 158 s \$0_ksts;
#X obj 156 158 s \$0_kfv;
#X obj 188 21 inlet;
#X obj 348 56 outlet;
#X obj 190 50 route u i o p;
#X obj 65 125 symbol kk_u;
#X obj 213 130 symbol kk_i;
#X obj 357 129 symbol kk_o;
#X obj 488 140 symbol kk_p;
#X connect 0 0 9 0;
#X connect 0 1 15 0;
#X connect 1 0 11 0;
#X connect 1 1 16 0;
#X connect 2 0 7 0;
#X connect 2 1 17 0;
#X connect 3 0 5 0;
#X connect 3 1 18 0;
#X connect 12 0 14 0;
#X connect 14 0 0 0;
#X connect 14 1 1 0;
#X connect 14 2 2 0;
#X connect 14 3 3 0;
#X connect 14 4 13 0;
#X connect 15 0 8 0;
#X connect 16 0 10 0;
#X connect 17 0 6 0;
#X connect 18 0 4 0;
#X restore 59 259 pd row3;
#N canvas 200 459 603 242 row2 0;
#X obj 32 104 t f b;
#X obj 184 101 t f b;
#X obj 302 107 t f b;
#X obj 449 106 t f b;
#X obj 507 162 s \$0_ksts;
#X obj 442 162 s \$0_kfv;
#X obj 366 159 s \$0_ksts;
#X obj 302 159 s \$0_kfv;
#X obj 74 157 s \$0_ksts;
#X obj 12 157 s \$0_kfv;
#X obj 218 158 s \$0_ksts;
#X obj 156 158 s \$0_kfv;
#X obj 188 21 inlet;
#X obj 375 62 outlet;
#X obj 189 49 route a s d f;
#X obj 65 125 symbol kk_a;
#X obj 209 130 symbol kk_s;
#X obj 356 129 symbol kk_d;
#X obj 491 136 symbol kk_f;
#X connect 0 0 9 0;
#X connect 0 1 15 0;
#X connect 1 0 11 0;
#X connect 1 1 16 0;
#X connect 2 0 7 0;
#X connect 2 1 17 0;
#X connect 3 0 5 0;
#X connect 3 1 18 0;
#X connect 12 0 14 0;
#X connect 14 0 0 0;
#X connect 14 1 1 0;
#X connect 14 2 2 0;
#X connect 14 3 3 0;
#X connect 14 4 13 0;
#X connect 15 0 8 0;
#X connect 16 0 10 0;
#X connect 17 0 6 0;
#X connect 18 0 4 0;
#X restore 57 234 pd row2;
#N canvas 200 459 657 338 row4 0;
#X obj 32 104 t f b;
#X obj 184 101 t f b;
#X obj 302 107 t f b;
#X obj 449 106 t f b;
#X obj 507 162 s \$0_ksts;
#X obj 442 162 s \$0_kfv;
#X obj 366 159 s \$0_ksts;
#X obj 302 159 s \$0_kfv;
#X obj 74 157 s \$0_ksts;
#X obj 12 157 s \$0_kfv;
#X obj 218 158 s \$0_ksts;
#X obj 156 158 s \$0_kfv;
#X obj 188 21 inlet;
#X obj 348 56 outlet;
#X obj 190 50 route j k l x;
#X obj 65 125 symbol kk_j;
#X obj 213 130 symbol kk_k;
#X obj 357 129 symbol kk_l;
#X obj 488 140 symbol kk_x;
#X connect 0 0 9 0;
#X connect 0 1 15 0;
#X connect 1 0 11 0;
#X connect 1 1 16 0;
#X connect 2 0 7 0;
#X connect 2 1 17 0;
#X connect 3 0 5 0;
#X connect 3 1 18 0;
#X connect 12 0 14 0;
#X connect 14 0 0 0;
#X connect 14 1 1 0;
#X connect 14 2 2 0;
#X connect 14 3 3 0;
#X connect 14 4 13 0;
#X connect 15 0 8 0;
#X connect 16 0 10 0;
#X connect 17 0 6 0;
#X connect 18 0 4 0;
#X restore 59 282 pd row4;
#X obj 141 28 inlet;
#X obj 53 76 spigot;
#X obj 190 30 loadbang;
#X msg 191 52 1;
#X connect 0 0 14 0;
#X connect 0 1 5 1;
#X connect 2 0 3 0;
#X connect 3 0 9 0;
#X connect 4 0 2 0;
#X connect 4 1 5 0;
#X connect 4 2 2 2;
#X connect 5 0 2 1;
#X connect 7 0 1 1;
#X connect 8 0 1 0;
#X connect 9 0 11 0;
#X connect 10 0 12 0;
#X connect 11 0 10 0;
#X connect 13 0 14 1;
#X connect 14 0 4 0;
#X connect 15 0 16 0;
#X connect 16 0 14 1;
#X restore 239 85 pd dispatch;
#X obj 42 86 tgl 15 0 empty kk_q empty 17 7 0 10 -262144 -1 -1 0 1
;
#X obj 61 86 tgl 15 0 empty kk_w empty 17 7 0 10 -262144 -1 -1 0 1
;
#X obj 80 86 tgl 15 0 empty kk_e empty 17 7 0 10 -262144 -1 -1 0 1
;
#X obj 98 86 tgl 15 0 empty kk_r empty 17 7 0 10 -262144 -1 -1 0 1
;
#X obj 116 86 tgl 15 0 empty kk_a empty 17 7 0 10 -262144 -1 -1 0 1
;
#X obj 134 86 tgl 15 0 empty kk_s empty 17 7 0 10 -262144 -1 -1 0 1
;
#X obj 153 86 tgl 15 0 empty kk_d empty 17 7 0 10 -262144 -1 -1 0 1
;
#X obj 171 86 tgl 15 0 empty kk_f empty 17 7 0 10 -262144 -1 -1 0 1
;
#X text 44 104 u;
#X text 64 104 i;
#X text 82 104 o;
#X text 101 104 p;
#X text 117 104 j;
#X text 136 104 k;
#X text 155 104 l;
#X text 172 104 x;
#X obj 42 121 tgl 15 0 empty kk_u empty 17 7 0 10 -262144 -1 -1 0 1
;
#X obj 61 121 tgl 15 0 empty kk_i empty 17 7 0 10 -262144 -1 -1 0 1
;
#X obj 80 121 tgl 15 0 empty kk_o empty 17 7 0 10 -262144 -1 -1 0 1
;
#X obj 98 121 tgl 15 0 empty kk_p empty 17 7 0 10 -262144 -1 -1 0 1
;
#X obj 116 121 tgl 15 0 empty kk_j empty 17 7 0 10 -262144 -1 -1 0
1;
#X obj 134 121 tgl 15 0 empty kk_k empty 17 7 0 10 -262144 -1 -1 0
1;
#X obj 153 121 tgl 15 0 empty kk_l empty 17 7 0 10 -262144 -1 -1 0
1;
#X obj 171 121 tgl 15 0 empty kk_x empty 17 7 0 10 -262144 -1 -1 0
1;
#X obj 186 51 tgl 15 0 empty empty empty 17 7 0 10 -4034 -1 -1 1 1
;
#X obj 208 21 loadbang;
#X obj 217 44 1;
#X msg 41 178 0;
#X msg 76 178 1;
#X msg 113 178 2;
#X msg 148 178 3;
#X msg 185 179 4;
#X msg 220 179 5;
#X msg 257 179 6;
#X msg 291 180 7;
#X msg 52 211 8;
#X msg 88 211 9;
#X msg 125 211 10;
#X msg 160 211 11;
#X msg 196 212 12;
#X msg 232 212 13;
#X msg 270 212 14;
#X msg 303 213 15;
#X connect 11 0 38 0;
#X connect 12 0 39 0;
#X connect 13 0 40 0;
#X connect 14 0 41 0;
#X connect 15 0 42 0;
#X connect 16 0 43 0;
#X connect 17 0 44 0;
#X connect 18 0 45 0;
#X connect 27 0 46 0;
#X connect 28 0 47 0;
#X connect 29 0 48 0;
#X connect 30 0 49 0;
#X connect 31 0 50 0;
#X connect 32 0 51 0;
#X connect 33 0 52 0;
#X connect 34 0 53 0;
#X connect 35 0 10 0;
#X connect 36 0 37 0;
#X connect 37 0 35 0;
#X connect 38 0 9 0;
#X connect 39 0 9 0;
#X connect 40 0 9 0;
#X connect 41 0 9 0;
#X connect 42 0 9 0;
#X connect 43 0 9 0;
#X connect 44 0 9 0;
#X connect 45 0 9 0;
#X connect 46 0 9 0;
#X connect 47 0 9 0;
#X connect 48 0 9 0;
#X connect 49 0 9 0;
#X connect 50 0 9 0;
#X connect 51 0 9 0;
#X connect 52 0 9 0;
#X connect 53 0 9 0;
#X coords 0 -1 1 1 172 92 1 30 50;
#X restore 121 76 pd keyboard;
#X obj 229 404 noteout;
#X obj 258 340 tgl 15 0 empty empty empty 17 7 0 10 -262144 -1 -1 0
1;
#X obj 207 340 tgl 15 0 empty empty empty 17 7 0 10 -262144 -1 -1 0
1;
#X msg 205 368 15 \$1;
#X msg 256 368 14 \$1;
#X obj 338 429 s \$0_mainnote;
#X obj 19 360 r \$0_mainnote;
#X obj 326 161 s \$0_mainnote;
#X obj 123 175 s \$0_mainnote;
#X obj 12 207 s \$0_mainnote;
#X obj 495 274 s \$0_mainnote;
#X msg 474 170 bang;
#X msg 516 169 stop;
#X floatatom 565 172 5 0 0 0 - - -;
#X floatatom 468 249 5 0 0 0 - - -;
#X obj 468 197 metro 66;
#X obj 466 225 random 16;
#X floatatom 24 95 5 0 0 0 - - -;
#X floatatom 547 206 5 0 0 0 - - -;
#X connect 2 0 3 0;
#X connect 3 0 4 0;
#X connect 4 0 1 0;
#X connect 4 0 31 0;
#X connect 5 0 10 0;
#X connect 7 0 10 4;
#X connect 8 0 11 0;
#X connect 9 0 0 0;
#X connect 9 1 0 1;
#X connect 10 0 6 0;
#X connect 10 0 29 0;
#X connect 11 0 7 0;
#X connect 12 0 11 0;
#X connect 13 0 16 0;
#X connect 14 0 16 0;
#X connect 16 0 17 0;
#X connect 17 0 15 0;
#X connect 17 0 27 0;
#X connect 18 0 16 1;
#X connect 19 0 11 1;
#X connect 20 0 9 2;
#X connect 21 0 30 0;
#X connect 23 0 26 0;
#X connect 24 0 25 0;
#X connect 25 0 22 0;
#X connect 26 0 22 0;
#X connect 28 0 9 0;
#X connect 33 0 37 0;
#X connect 34 0 37 0;
#X connect 35 0 37 1;
#X connect 37 0 38 0;
#X connect 38 0 36 0;
#X connect 38 0 32 0;
#X connect 39 0 3 0;
#X connect 40 0 38 1;
