#N canvas 56 186 450 300 10;
#X obj 170 214 dac~;
#X obj 170 193 *~;
#X obj 196 169 hsl 128 15 0 1 0 1 empty empty empty -2 -6 0 8 -257472
-1 -1 10600 1;
#X obj 167 72 *~;
#X floatatom 172 15 5 0 0 0 - - -;
#X floatatom 238 34 5 0 0 0 - - -;
#X floatatom 280 34 5 0 0 0 - - -;
#X floatatom 190 100 5 0 0 0 - - -;
#X floatatom 202 195 5 0 0 0 - - -;
#X floatatom 237 113 5 0 0 0 - - -;
#X floatatom 282 113 5 0 0 0 - - -;
#X obj 170 143 l_reverb~ 100 100 30 0 0;
#X obj 165 38 osc~ 106;
#X obj 229 55 pwm~ 0.2 10;
#X connect 1 0 0 0;
#X connect 1 0 0 1;
#X connect 2 0 1 1;
#X connect 2 0 8 0;
#X connect 3 0 11 0;
#X connect 4 0 12 0;
#X connect 5 0 13 0;
#X connect 6 0 13 1;
#X connect 7 0 11 2;
#X connect 9 0 11 3;
#X connect 10 0 11 4;
#X connect 11 0 1 0;
#X connect 12 0 3 0;
#X connect 13 0 3 1;
