#N canvas 0 0 668 571 10;
#X obj 150 128 plugin~ lpf;
#X msg 99 12 print;
#X obj 128 493 dac~;
#X obj 130 471 *~;
#X floatatom 171 496 5 0 0 0 - - -;
#X obj 172 473 hsl 128 15 0 1 0 0 empty empty empty -2 -6 0 8 -241291
-1 -1 600 1;
#X obj 497 279 osc~;
#X floatatom 451 245 5 0 0 0 - - -;
#X floatatom 39 69 5 0 0 0 - - -;
#X msg 39 91 control #1 \$1;
#X obj 173 82 noise~;
#X obj 309 306 plugin~ freeverb3;
#X floatatom 270 224 5 0 0 0 - - -;
#X msg 297 243 control #1 \$1;
#X msg 248 296 print;
#X floatatom 269 184 5 0 0 0 - - -;
#X floatatom 275 143 5 0 0 0 - - -;
#X msg 296 202 control #2 \$1;
#X msg 296 161 control #3 \$1;
#X floatatom 270 104 5 0 0 0 - - -;
#X floatatom 268 64 5 0 0 0 - - -;
#X floatatom 266 25 5 0 0 0 - - -;
#X msg 296 124 control #4 \$1;
#X msg 293 84 control #5 \$1;
#X msg 292 45 control #6 \$1;
#X obj 487 211 +~ 1;
#X obj 512 252 *~ 100;
#X text 242 64 dry;
#X text 243 101 wet;
#X floatatom 517 129 5 0 0 0 - - -;
#X obj 514 150 oscsq~ 0.5;
#X text 237 175 room size;
#X obj 466 91 ptrain~ 3 33;
#X obj 486 179 *~;
#X floatatom 544 72 5 0 0 0 - - -;
#X floatatom 466 71 5 0 0 0 - - -;
#X connect 1 0 0 0;
#X connect 3 0 2 0;
#X connect 3 0 2 1;
#X connect 5 0 4 0;
#X connect 5 0 3 1;
#X connect 6 0 11 2;
#X connect 6 0 11 1;
#X connect 7 0 6 0;
#X connect 8 0 9 0;
#X connect 9 0 0 0;
#X connect 10 0 0 1;
#X connect 11 1 3 0;
#X connect 11 2 3 0;
#X connect 12 0 13 0;
#X connect 13 0 11 0;
#X connect 14 0 11 0;
#X connect 15 0 17 0;
#X connect 16 0 18 0;
#X connect 17 0 11 0;
#X connect 18 0 11 0;
#X connect 19 0 22 0;
#X connect 20 0 23 0;
#X connect 21 0 24 0;
#X connect 22 0 11 0;
#X connect 23 0 11 0;
#X connect 24 0 11 0;
#X connect 25 0 26 0;
#X connect 26 0 6 0;
#X connect 29 0 30 0;
#X connect 30 0 33 1;
#X connect 32 0 33 0;
#X connect 33 0 25 0;
#X connect 34 0 32 1;
#X connect 35 0 32 0;
