#N canvas 732 295 318 416 10;
#X obj 56 11 inlet;
#X obj 46 373 outlet;
#X obj 110 158 list length;
#X obj 79 276 spigot;
#X obj 81 312 list split 1;
#X text 167 17 list based ring buffer;
#X obj 60 139 t l l l;
#X obj 19 278 spigot;
#X obj 86 186 t f f;
#X msg 7 233 1;
#X msg 41 233 0;
#X msg 136 234 0;
#X msg 164 235 1;
#X obj 56 105 list prepend;
#X obj 18 209 moses 6;
#X obj 140 207 moses 6;
#X obj 218 127 loadbang;
#X obj 218 146 \$1;
#X obj 123 10 inlet;
#X msg 125 37 bang;
#X text 170 32 first arg is size;
#X text 169 47 band 2nd inlet to reset;
#X connect 0 0 13 0;
#X connect 2 0 8 0;
#X connect 3 0 4 0;
#X connect 4 1 13 1;
#X connect 4 1 1 0;
#X connect 6 0 7 0;
#X connect 6 1 3 0;
#X connect 6 2 2 0;
#X connect 7 0 13 1;
#X connect 7 0 1 0;
#X connect 8 0 14 0;
#X connect 8 1 15 0;
#X connect 9 0 7 1;
#X connect 10 0 7 1;
#X connect 11 0 3 1;
#X connect 12 0 3 1;
#X connect 13 0 6 0;
#X connect 14 0 9 0;
#X connect 14 1 10 0;
#X connect 15 0 11 0;
#X connect 15 1 12 0;
#X connect 16 0 17 0;
#X connect 17 0 15 1;
#X connect 17 0 14 1;
#X connect 18 0 19 0;
#X connect 19 0 13 1;
