#N canvas 341 287 638 447 10;
#X obj 153 100 list;
#X obj 153 194 list length;
#X obj 111 46 inlet;
#X obj 212 43 inlet;
#X floatatom 175 253 5 0 0 0 - - -;
#X text 266 43 pad a list to a given length (with zeros);
#X text 212 25 list;
#X text 108 29 length;
#X obj 73 270 moses;
#X obj 153 130 t l l;
#X obj 157 297 list;
#X obj 109 181 max;
#X obj 111 74 t b b f;
#X obj 108 159 0;
#X text 41 270 trim;
#X text 109 271 expand;
#X obj 38 339 list split;
#X obj 68 301 t b f;
#X obj 119 388 outlet;
#X obj 337 246 until;
#X obj 333 289 print sex;
#X text 269 56 or trim to length if longer;
#X obj 129 221 t f f;
#X obj 149 251 -;
#X connect 0 0 9 0;
#X connect 1 0 22 0;
#X connect 2 0 12 0;
#X connect 3 0 0 1;
#X connect 8 0 17 0;
#X connect 8 1 23 1;
#X connect 9 0 1 0;
#X connect 9 1 10 1;
#X connect 10 0 16 0;
#X connect 11 0 8 1;
#X connect 12 0 0 0;
#X connect 12 1 13 0;
#X connect 12 2 11 1;
#X connect 13 0 11 0;
#X connect 16 0 18 0;
#X connect 17 0 10 0;
#X connect 17 1 16 1;
#X connect 19 0 20 0;
#X connect 22 0 23 0;
#X connect 22 1 8 0;
#X connect 23 0 4 0;
