#N canvas 56 40 600 544 10;
#X obj 367 406 list append;
#X floatatom 359 372 5 0 0 0 - - -;
#X obj 375 460 list split;
#X obj 384 431 t l l;
#X floatatom 455 425 5 0 0 0 - - -;
#X obj 307 507 print left;
#X msg 435 363 1 2 3 4 5;
#X obj 517 511 print right;
#X obj 410 505 print middle;
#X msg 82 201 sandwich;
#X floatatom 163 89 5 0 0 0 - - -;
#X obj 123 306 print tit;
#X msg 199 216 0 1 2 3 4 5 6 7 8 9 10;
#X floatatom 52 224 5 0 0 0 - - -;
#X obj 123 261 list-itemset;
#X obj 179 130 t b f;
#X floatatom 49 106 5 0 0 0 - - -;
#X obj 50 126 t b f;
#X obj 431 144 list split;
#X msg 492 89 one two three;
#X floatatom 408 74 5 0 0 0 - - -;
#X obj 429 177 print suk;
#X obj 497 177 print fucko;
#X msg 223 176 flounder upside walrus;
#X obj 142 61 hradio 15 1 0 8 empty empty empty 0 -8 0 10 -262144 -1
-1 2;
#X connect 0 0 3 0;
#X connect 1 0 0 0;
#X connect 2 0 5 0;
#X connect 2 1 8 0;
#X connect 2 2 7 0;
#X connect 3 0 0 1;
#X connect 3 0 2 0;
#X connect 4 0 2 1;
#X connect 6 0 0 1;
#X connect 9 0 14 0;
#X connect 10 0 15 0;
#X connect 12 0 14 2;
#X connect 13 0 14 0;
#X connect 14 0 11 0;
#X connect 15 0 9 0;
#X connect 15 1 14 1;
#X connect 16 0 17 0;
#X connect 17 0 13 0;
#X connect 17 1 14 1;
#X connect 18 0 21 0;
#X connect 18 1 22 0;
#X connect 19 0 18 0;
#X connect 20 0 18 1;
#X connect 23 0 14 2;
#X connect 24 0 10 0;
