#N canvas 14 354 241 312 10;
#X obj 45 13 inlet;
#X obj 74 275 outlet;
#X obj 45 204 -;
#X obj 45 37 t f f;
#X obj 108 78 lohi;
#X obj 75 253 /;
#X obj 130 18 inlet;
#X obj 89 109 change;
#X obj 148 108 change;
#X obj 151 137 t b f;
#X obj 126 206 -;
#X obj 156 181 f;
#X obj 87 134 t b f f;
#X msg 129 41 bang;
#X connect 0 0 3 0;
#X connect 2 0 5 0;
#X connect 3 0 2 0;
#X connect 3 1 4 0;
#X connect 4 0 7 0;
#X connect 4 1 8 0;
#X connect 5 0 1 0;
#X connect 6 0 13 0;
#X connect 7 0 12 0;
#X connect 8 0 9 0;
#X connect 9 0 11 0;
#X connect 9 1 11 1;
#X connect 10 0 5 1;
#X connect 11 0 10 0;
#X connect 12 0 11 0;
#X connect 12 1 2 1;
#X connect 12 2 10 1;
#X connect 13 0 4 1;
