#N canvas 276 47 713 491 10;
#X obj 16 26 ctlin 6;
#X floatatom 15 63 5 0 0 0 - - -;
#X obj 77 26 nrpn_in 13;
#X floatatom 77 60 5 0 0 0 - - -;
#X obj 450 10 ctlin;
#X obj 465 37 select 99;
#X obj 471 58 bng 15 250 50 0 empty empty empty 0 -6 0 8 -262144 -1
-1;
#X obj 529 58 bng 15 250 50 0 empty empty empty 0 -6 0 8 -262144 -1
-1;
#X obj 556 354 f;
#X obj 586 353 f;
#X obj 615 352 f;
#X obj 646 352 f;
#X obj 557 327 t f b b b;
#X obj 294 65 ctlin 6;
#X floatatom 294 87 5 0 0 0 - - -;
#X obj 268 268 bangct;
#X msg 280 238 reset;
#X floatatom 272 315 5 0 0 0 - - -;
#X obj 321 431 print fakeout;
#X obj 354 402 spigot;
#X msg 416 379 1;
#X msg 386 379 0;
#X obj 560 384 toggler;
#X obj 286 289 select 3;
#X obj 429 212 spigot;
#X msg 465 79 0;
#X obj 465 170 select 0;
#X msg 465 191 0;
#X msg 496 191 1;
#X obj 596 125 f;
#X obj 624 124 -;
#X msg 523 93 3;
#X obj 607 56 t;
#X obj 93 116 nrpn_out;
#X text 67 232 99 98 6 38;
#N canvas 259 93 786 600 try2 0;
#X obj 44 42 ctlin;
#X obj 166 108 f;
#X obj 195 107 f;
#X obj 224 106 f;
#X obj 255 106 f;
#X obj 166 81 t f b b b;
#X obj 43 110 f;
#X obj 73 109 f;
#X obj 102 108 f;
#X obj 133 108 f;
#X obj 44 83 t f b b b;
#X obj 455 180 select 98;
#X obj 526 181 select 99;
#X msg 455 200 1;
#X msg 494 200 0;
#X msg 526 201 1;
#X msg 565 201 0;
#X obj 436 248 *;
#X obj 103 420 << 7;
#X msg 102 181 1;
#X msg 140 182 0;
#X obj 102 399 spigot;
#X obj 43 399 spigot;
#X obj 43 441 +;
#X obj 109 255 *;
#X text 120 146 midi cc;
#X obj 507 100 f;
#X obj 535 100 f;
#X obj 564 99 f;
#X obj 595 99 f;
#X obj 506 74 t f b b b;
#X text 509 55 channel;
#X obj 43 466 outlet;
#X obj 102 162 select \$1;
#X text 601 182 nrpn codes;
#X obj 115 362 *;
#X obj 485 266 tgl 15 0 empty empty empty 0 -6 0 8 -262144 -1 -1 1
1;
#X obj 546 264 tgl 15 0 empty empty empty 0 -6 0 8 -262144 -1 -1 1
1;
#X msg 314 200 1;
#X msg 353 200 0;
#X msg 386 200 1;
#X msg 425 200 0;
#X obj 314 180 select 38;
#X obj 386 180 select 6;
#X obj 397 264 tgl 15 0 empty empty empty 0 -6 0 8 -262144 -1 -1 1
1;
#X obj 327 262 tgl 15 0 empty empty empty 0 -6 0 8 -262144 -1 -1 1
1;
#X obj 497 327 *;
#X floatatom 504 354 5 0 0 0 - - -;
#X floatatom 168 24 5 0 0 0 - - -;
#X obj 208 291 select 99;
#X msg 208 311 1;
#X msg 247 311 0;
#X obj 228 374 tgl 15 0 empty empty empty 0 -6 0 8 -262144 -1 -1 0
1;
#X obj 392 494 pack f f f;
#X obj 392 374 ctlin;
#X obj 392 524 print dbg;
#X obj 576 470 route s;
#X obj 470 429 t b f;
#X obj 120 526 ctlin 99;
#X floatatom 122 550 5 0 0 0 - - -;
#X connect 0 0 10 0;
#X connect 0 1 5 0;
#X connect 0 2 30 0;
#X connect 1 0 2 1;
#X connect 1 0 42 0;
#X connect 1 0 49 0;
#X connect 2 0 3 1;
#X connect 2 0 43 0;
#X connect 3 0 4 1;
#X connect 3 0 11 0;
#X connect 4 0 12 0;
#X connect 5 0 1 0;
#X connect 5 1 2 0;
#X connect 5 2 3 0;
#X connect 5 3 4 0;
#X connect 6 0 7 1;
#X connect 6 0 22 0;
#X connect 7 0 8 1;
#X connect 7 0 21 0;
#X connect 8 0 9 1;
#X connect 8 0 33 0;
#X connect 10 0 6 0;
#X connect 10 1 7 0;
#X connect 10 2 8 0;
#X connect 10 3 9 0;
#X connect 11 0 13 0;
#X connect 11 1 14 0;
#X connect 12 0 15 0;
#X connect 12 1 16 0;
#X connect 13 0 17 0;
#X connect 13 0 36 0;
#X connect 14 0 17 0;
#X connect 14 0 36 0;
#X connect 15 0 17 1;
#X connect 15 0 37 0;
#X connect 16 0 17 1;
#X connect 16 0 37 0;
#X connect 18 0 23 1;
#X connect 19 0 24 0;
#X connect 20 0 24 0;
#X connect 21 0 18 0;
#X connect 22 0 23 0;
#X connect 23 0 32 0;
#X connect 24 0 35 0;
#X connect 26 0 27 1;
#X connect 27 0 28 1;
#X connect 28 0 29 1;
#X connect 30 0 26 0;
#X connect 30 1 27 0;
#X connect 30 2 28 0;
#X connect 30 3 29 0;
#X connect 33 0 19 0;
#X connect 33 1 20 0;
#X connect 35 0 21 1;
#X connect 35 0 22 1;
#X connect 38 0 45 0;
#X connect 39 0 45 0;
#X connect 40 0 44 0;
#X connect 41 0 44 0;
#X connect 42 0 38 0;
#X connect 42 1 39 0;
#X connect 43 0 40 0;
#X connect 43 1 41 0;
#X connect 46 0 47 0;
#X connect 48 0 5 0;
#X connect 49 0 50 0;
#X connect 49 1 51 0;
#X connect 50 0 52 0;
#X connect 51 0 52 0;
#X connect 53 0 55 0;
#X connect 54 0 53 0;
#X connect 54 1 53 1;
#X connect 54 2 53 2;
#X connect 58 0 59 0;
#X restore 77 261 pd try2;
#X connect 0 0 1 0;
#X connect 2 0 3 0;
#X connect 4 0 24 0;
#X connect 4 1 5 0;
#X connect 5 0 6 0;
#X connect 5 0 25 0;
#X connect 5 1 7 0;
#X connect 5 1 31 0;
#X connect 8 0 9 1;
#X connect 9 0 10 1;
#X connect 10 0 11 1;
#X connect 12 0 8 0;
#X connect 12 1 9 0;
#X connect 12 2 10 0;
#X connect 12 3 11 0;
#X connect 13 0 14 0;
#X connect 15 0 17 0;
#X connect 15 0 23 0;
#X connect 16 0 15 0;
#X connect 19 0 18 0;
#X connect 20 0 19 1;
#X connect 21 0 19 1;
#X connect 23 0 16 0;
#X connect 25 0 26 0;
#X connect 26 0 27 0;
#X connect 26 1 28 0;
#X connect 27 0 24 1;
#X connect 28 0 24 1;
#X connect 31 0 29 0;
#X connect 35 0 18 0;
