#N canvas 71 19 938 804 10;
#X obj 282 615 sout~;
#X obj 283 548 dline~ 65 0.7;
#X obj 307 584 *~ -1;
#X obj 92 110 osc~;
#X obj 126 130 osc~;
#X obj 94 178 *~;
#X obj 123 153 +~;
#X floatatom 168 137 5 0 0 0 - - -;
#X floatatom 130 110 5 0 0 0 - - -;
#X floatatom 92 88 5 0 0 0 - - -;
#X obj 96 58 r p1;
#X obj 489 403 osc~;
#X obj 523 423 osc~;
#X obj 491 471 *~;
#X obj 520 446 +~;
#X floatatom 565 430 5 0 0 0 - - -;
#X floatatom 527 403 5 0 0 0 - - -;
#X floatatom 489 381 5 0 0 0 - - -;
#X obj 230 206 osc~;
#X obj 264 226 osc~;
#X obj 232 274 *~;
#X obj 261 249 +~;
#X floatatom 306 233 5 0 0 0 - - -;
#X floatatom 268 206 5 0 0 0 - - -;
#X floatatom 230 184 5 0 0 0 - - -;
#X obj 364 309 osc~;
#X obj 398 329 osc~;
#X obj 366 377 *~;
#X obj 395 352 +~;
#X floatatom 440 336 5 0 0 0 - - -;
#X floatatom 402 309 5 0 0 0 - - -;
#X floatatom 364 287 5 0 0 0 - - -;
#X obj 124 335 +~;
#X obj 107 362 *~;
#X obj 235 155 r p2;
#X obj 138 84 r m1;
#X obj 175 111 r i1;
#X obj 277 181 r m2;
#X obj 403 456 +~;
#X obj 386 483 *~;
#X obj 368 257 r p3;
#X obj 410 284 r m3;
#X obj 448 310 r i3;
#X obj 493 351 r p4;
#X obj 535 379 r m4;
#X obj 575 403 r i4;
#N canvas 366 151 870 571 rando 0;
#X obj 127 20 inlet;
#X msg 128 45 bang;
#X obj 93 213 random 666;
#X obj 68 309 s p1;
#X obj 104 309 s p2;
#X obj 140 310 s p3;
#X obj 177 310 s p4;
#X obj 111 234 random 666;
#X obj 128 254 random 666;
#X obj 154 274 random 666;
#X obj 166 88 t b b b b;
#X obj 92 178 t b b b b;
#X obj 255 214 random 666;
#X obj 273 235 random 666;
#X obj 290 255 random 666;
#X obj 316 275 random 666;
#X obj 254 179 t b b b b;
#X obj 433 164 t b b b b;
#X obj 229 311 s m1;
#X obj 266 310 s m2;
#X obj 339 311 s m4;
#X obj 302 311 s m3;
#X obj 495 369 s i3;
#X obj 424 368 s i1;
#X obj 460 368 s i2;
#X obj 535 370 s i4;
#X obj 449 246 random 6;
#X obj 480 291 random 6;
#X obj 539 324 random 6;
#X obj 434 199 random 666;
#X obj 433 221 / 100;
#X obj 451 264 / 100;
#X obj 480 310 / 100;
#X obj 540 344 / 100;
#X connect 0 0 1 0;
#X connect 1 0 10 0;
#X connect 2 0 3 0;
#X connect 7 0 4 0;
#X connect 8 0 5 0;
#X connect 9 0 6 0;
#X connect 10 0 11 0;
#X connect 10 1 16 0;
#X connect 10 2 17 0;
#X connect 11 0 2 0;
#X connect 11 1 7 0;
#X connect 11 2 8 0;
#X connect 11 3 9 0;
#X connect 12 0 18 0;
#X connect 13 0 19 0;
#X connect 14 0 21 0;
#X connect 15 0 20 0;
#X connect 16 0 12 0;
#X connect 16 1 13 0;
#X connect 16 2 14 0;
#X connect 16 3 15 0;
#X connect 17 0 29 0;
#X connect 17 1 26 0;
#X connect 17 2 27 0;
#X connect 17 3 28 0;
#X connect 26 0 31 0;
#X connect 27 0 32 0;
#X connect 28 0 33 0;
#X connect 29 0 30 0;
#X connect 30 0 23 0;
#X connect 31 0 24 0;
#X connect 32 0 22 0;
#X connect 33 0 25 0;
#X restore 502 117 pd rando;
#X floatatom 387 521 5 0 0 0 - - -;
#X obj 498 44 bng 55 250 50 0 empty empty empty 17 7 0 10 -261234 -1
-1;
#X obj 646 141 keybang n;
#X obj 319 205 r i2;
#X obj 461 622 delread~ kombak 1100;
#X obj 500 646 delread~ kombak 1600;
#X obj 533 670 delread~ kombak 2200;
#X obj 440 590 delwrite~ kombak 150000;
#X floatatom 646 461 5 0 0 0 - - -;
#X obj 647 493 oscsq~;
#X obj 651 525 lop~ 200;
#X obj 443 702 *~ 0.5;
#X connect 1 0 54 0;
#X connect 1 0 0 0;
#X connect 1 0 2 0;
#X connect 2 0 0 1;
#X connect 3 0 5 0;
#X connect 4 0 6 0;
#X connect 5 0 33 0;
#X connect 6 0 5 1;
#X connect 7 0 6 1;
#X connect 8 0 4 0;
#X connect 9 0 3 0;
#X connect 10 0 9 0;
#X connect 11 0 13 0;
#X connect 12 0 14 0;
#X connect 13 0 38 1;
#X connect 14 0 13 1;
#X connect 15 0 14 1;
#X connect 16 0 12 0;
#X connect 17 0 11 0;
#X connect 18 0 20 0;
#X connect 19 0 21 0;
#X connect 20 0 32 1;
#X connect 21 0 20 1;
#X connect 22 0 21 1;
#X connect 23 0 19 0;
#X connect 24 0 18 0;
#X connect 25 0 27 0;
#X connect 26 0 28 0;
#X connect 27 0 39 0;
#X connect 28 0 27 1;
#X connect 29 0 28 1;
#X connect 30 0 26 0;
#X connect 31 0 25 0;
#X connect 32 0 33 1;
#X connect 33 0 1 0;
#X connect 34 0 24 0;
#X connect 35 0 8 0;
#X connect 36 0 7 0;
#X connect 37 0 23 0;
#X connect 38 0 39 1;
#X connect 39 0 1 0;
#X connect 40 0 31 0;
#X connect 41 0 30 0;
#X connect 42 0 29 0;
#X connect 43 0 17 0;
#X connect 44 0 16 0;
#X connect 45 0 15 0;
#X connect 47 0 1 1;
#X connect 48 0 46 0;
#X connect 49 0 48 0;
#X connect 50 0 22 0;
#X connect 51 0 58 0;
#X connect 52 0 58 0;
#X connect 53 0 58 0;
#X connect 55 0 56 0;
#X connect 56 0 57 0;
#X connect 57 0 54 0;
#X connect 58 0 2 0;
#X connect 58 0 0 0;
