#N canvas 16 227 644 499 12;
#N canvas 347 3 635 713 morse 1;
#X obj 64 642 *~;
#X obj 64 670 outlet~;
#X msg 111 409 bang;
#X obj 146 515 delay 100;
#X msg 111 573 1;
#X msg 146 573 0;
#X obj 111 452 t b b;
#X obj 36 545 osc~ 500;
#X msg 225 573 0;
#X text 156 452 dit;
#X obj 225 515 delay 300;
#X obj 190 452 t b b;
#X text 235 452 dah;
#X msg 190 409 bang;
#X obj 29 20 inlet;
#X obj 181 625 delay 100;
#X obj 146 544 t b b;
#X obj 225 543 t b b;
#X obj 189 652 bng 15 250 50 0 empty empty empty 0 -6 0 8 -262144 -1
-1;
#X obj 113 275 list;
#X msg 285 146 dit dah dah;
#X obj 113 306 list split 1;
#X obj 111 360 route dit dah;
#X obj 117 385 bng 15 250 50 0 empty empty empty 0 -6 0 8 -262144 -1
-1;
#X obj 188 386 bng 15 250 50 0 empty empty empty 0 -6 0 8 -262144 -1
-1;
#X msg 113 332 \$1;
#X obj 116 247 t b a;
#X obj 34 204 r \$0_next_sym;
#X obj 216 656 s \$0_next_sym;
#X obj 24 510 r \$0_freq;
#X obj 204 486 r \$0_len;
#X obj 290 465 r \$0_len;
#X obj 248 602 r \$0_len;
#X obj 290 490 * 3;
#X obj 33 86 s \$0_freq;
#X floatatom 29 59 5 0 0 0 - - -;
#X floatatom 113 58 5 0 0 0 - - -;
#X obj 116 85 s \$0_len;
#X obj 374 670 outlet;
#N canvas 216 190 850 712 letters-mappings 0;
#X obj 21 673 outlet;
#X obj 53 29 inlet;
#X obj 23 641 r \$0_mp;
#X obj 53 133 s \$0_mp;
#X msg 51 106 dit dah;
#X msg 121 107 dah dit dit dit;
#X msg 256 109 dah dit dah dit;
#X msg 390 108 dah dit dit;
#X obj 49 60 route a b c d e;
#X msg 491 109 dit;
#X obj 48 162 route f g h i j;
#X obj 273 224 s \$0_mp;
#X msg 49 197 dit dit dah dit;
#X msg 178 198 dah dah dit;
#X msg 279 197 dit dit dit dit;
#X msg 413 197 dit dit;
#X msg 483 197 dit dah dah dah;
#X obj 253 303 s \$0_mp;
#X obj 42 230 route k l m n o;
#X msg 43 265 dah dit dah;
#X msg 144 269 dit dah dit dit;
#X msg 278 270 dah dah;
#X msg 347 269 dah dit;
#X msg 416 269 dah dah dah;
#X obj 41 372 s \$0_mp;
#X obj 40 309 route p q r s t;
#X obj 47 474 s \$0_mp;
#X obj 39 403 route u v w x y z;
#X msg 41 344 dit dah dah dit;
#X msg 174 344 dah dah dit dah;
#X msg 305 343 dit dah dit;
#X msg 406 344 dit dit dit;
#X msg 505 344 dah;
#X msg 40 436 dit dit dah;
#X msg 140 437 dit dit dit dah;
#X msg 271 437 dit dah dah;
#X msg 369 438 dah dit dit dah;
#X msg 504 439 dah dit dah dah;
#X msg 636 439 dah dah dit dit;
#X obj 39 506 route 1 2 3 4 5;
#X obj 162 585 route 6 7 8 9 0;
#X obj 39 573 s \$0_mp;
#X msg 45 540 dit dah dah dah dah;
#X msg 209 539 dit dit dah dah dah;
#X msg 376 534 dit dit dit dah dah;
#X msg 546 533 dit dit dit dit dah;
#X msg 714 534 dit dit dit dit dit;
#X text 182 22 zoinks! here's the mapping...;
#X obj 166 652 s \$0_mp;
#X msg 186 622 dah dit dit dit dit;
#X msg 348 620 dah dah dit dit dit;
#X msg 511 619 dah dah dah dit dit;
#X msg 679 620 dah dah dah dah dit;
#X msg 609 655 dah dah dah dah dah;
#N canvas 0 0 462 312 symbols 0;
#X obj 19 13 inlet;
#X obj 29 98 s \$0_mp;
#X text 51 59 TODO: add symbols;
#X restore 347 580 pd symbols;
#X connect 1 0 8 0;
#X connect 2 0 0 0;
#X connect 4 0 3 0;
#X connect 5 0 3 0;
#X connect 6 0 3 0;
#X connect 7 0 3 0;
#X connect 8 0 4 0;
#X connect 8 1 5 0;
#X connect 8 2 6 0;
#X connect 8 3 7 0;
#X connect 8 4 9 0;
#X connect 8 5 10 0;
#X connect 9 0 3 0;
#X connect 10 0 12 0;
#X connect 10 1 13 0;
#X connect 10 2 14 0;
#X connect 10 3 15 0;
#X connect 10 4 16 0;
#X connect 10 5 18 0;
#X connect 12 0 11 0;
#X connect 13 0 11 0;
#X connect 14 0 11 0;
#X connect 15 0 11 0;
#X connect 16 0 11 0;
#X connect 18 0 19 0;
#X connect 18 1 20 0;
#X connect 18 2 21 0;
#X connect 18 3 22 0;
#X connect 18 4 23 0;
#X connect 18 5 25 0;
#X connect 19 0 17 0;
#X connect 20 0 17 0;
#X connect 21 0 17 0;
#X connect 22 0 17 0;
#X connect 23 0 17 0;
#X connect 25 0 28 0;
#X connect 25 1 29 0;
#X connect 25 2 30 0;
#X connect 25 3 31 0;
#X connect 25 4 32 0;
#X connect 25 5 27 0;
#X connect 27 0 33 0;
#X connect 27 1 34 0;
#X connect 27 2 35 0;
#X connect 27 3 36 0;
#X connect 27 4 37 0;
#X connect 27 5 38 0;
#X connect 27 6 39 0;
#X connect 28 0 24 0;
#X connect 29 0 24 0;
#X connect 30 0 24 0;
#X connect 31 0 24 0;
#X connect 32 0 24 0;
#X connect 33 0 26 0;
#X connect 34 0 26 0;
#X connect 35 0 26 0;
#X connect 36 0 26 0;
#X connect 37 0 26 0;
#X connect 38 0 26 0;
#X connect 39 0 42 0;
#X connect 39 1 43 0;
#X connect 39 2 44 0;
#X connect 39 3 45 0;
#X connect 39 4 46 0;
#X connect 39 5 40 0;
#X connect 40 0 49 0;
#X connect 40 1 50 0;
#X connect 40 2 51 0;
#X connect 40 3 52 0;
#X connect 40 4 53 0;
#X connect 42 0 41 0;
#X connect 43 0 41 0;
#X connect 44 0 41 0;
#X connect 45 0 41 0;
#X connect 46 0 41 0;
#X connect 49 0 48 0;
#X connect 50 0 48 0;
#X connect 51 0 48 0;
#X connect 52 0 48 0;
#X connect 53 0 48 0;
#X restore 245 98 pd letters-mappings;
#X msg 239 51 j;
#X connect 0 0 1 0;
#X connect 2 0 6 0;
#X connect 3 0 16 0;
#X connect 4 0 0 1;
#X connect 5 0 0 1;
#X connect 6 0 4 0;
#X connect 6 1 3 0;
#X connect 7 0 0 0;
#X connect 8 0 0 1;
#X connect 10 0 17 0;
#X connect 11 0 4 0;
#X connect 11 1 10 0;
#X connect 13 0 11 0;
#X connect 15 0 18 0;
#X connect 15 0 28 0;
#X connect 16 0 5 0;
#X connect 16 1 15 0;
#X connect 17 0 8 0;
#X connect 17 1 15 0;
#X connect 19 0 21 0;
#X connect 20 0 26 0;
#X connect 21 0 25 0;
#X connect 21 1 19 1;
#X connect 21 2 38 0;
#X connect 22 0 2 0;
#X connect 22 0 23 0;
#X connect 22 1 13 0;
#X connect 22 1 24 0;
#X connect 25 0 22 0;
#X connect 26 0 19 0;
#X connect 26 1 19 1;
#X connect 27 0 19 0;
#X connect 29 0 7 0;
#X connect 30 0 3 1;
#X connect 31 0 33 0;
#X connect 32 0 15 1;
#X connect 33 0 10 1;
#X connect 35 0 34 0;
#X connect 36 0 37 0;
#X connect 39 0 26 0;
#X connect 40 0 39 0;
#X restore 230 275 pd morse;
#X obj 218 319 mout~;
#X connect 0 0 1 0;
