#N canvas 61 256 588 619 10;
#X obj 31 582 dac~;
#X obj 33 16 adc~;
#X obj 37 547 *~;
#X obj 60 527 hsl 128 15 0 1 0 0 empty empty empty -2 -6 0 8 -262144
-1 -1 9398 1;
#X floatatom 65 545 5 0 0 0 - - -;
#X obj 36 474 dline~ 500 0.9;
#X obj 175 86 bng 15 250 50 0 empty empty empty 0 -6 0 8 -262144 -1
-1;
#X obj 175 124 metro 500;
#X obj 34 242 pitcher~ 2 50 0;
#X floatatom 151 453 5 0 0 0 - - -;
#X obj 141 433 hsl 128 15 0 1 0 0 empty empty empty -2 -6 0 8 -262131
-1 -1 12700 1;
#X floatatom 175 212 5 0 0 0 - - -;
#X msg 213 86 stop;
#X floatatom 261 85 5 0 0 0 - - -;
#X obj 34 281 l_foldover~ 50 50;
#X floatatom 90 264 5 0 100 0 - - -;
#X floatatom 147 263 5 0 100 0 - - -;
#X floatatom 83 453 5 0 0 0 - - -;
#X obj 86 365 hsl 250 15 0 5000 0 0 empty empty empty -2 -6 0 8 -257472
-1 -1 24508 1;
#X obj 481 14 ctlin;
#X floatatom 474 58 5 0 0 0 - - -;
#X floatatom 522 56 5 0 0 0 - - -;
#X obj 200 481 ctlin 104;
#X obj 202 501 / 50;
#X obj 140 389 ctlin 96;
#X obj 140 410 / 5;
#X obj 236 298 ctlin 95;
#X obj 236 319 / 127;
#X obj 236 341 * 5000;
#X obj 175 57 loadbang;
#X obj 34 221 *~;
#X obj 175 168 random 50;
#X obj 175 189 - 35;
#N canvas 562 446 363 305 lowpass 0;
#X obj 40 120 lop~;
#X floatatom 63 98 5 0 0 0 - - -;
#X obj 116 128 ctlin 74;
#X obj 116 154 select 0 127;
#X obj 27 251 *~;
#X obj 63 251 *~;
#X msg 155 177 1;
#X msg 111 178 0;
#X msg 79 178 1;
#X msg 190 178 0;
#X obj 26 18 inlet~;
#X obj 28 279 outlet~;
#X obj 96 27 ctlin 2;
#X floatatom 105 50 5 0 0 0 - - -;
#X obj 88 72 * 5;
#X obj 215 87 loadbang;
#X obj 101 276 outlet;
#X connect 0 0 5 0;
#X connect 1 0 0 1;
#X connect 2 0 3 0;
#X connect 3 0 8 0;
#X connect 3 0 7 0;
#X connect 3 1 6 0;
#X connect 3 1 9 0;
#X connect 4 0 11 0;
#X connect 5 0 11 0;
#X connect 6 0 5 1;
#X connect 6 0 16 0;
#X connect 7 0 5 1;
#X connect 7 0 16 0;
#X connect 8 0 4 1;
#X connect 9 0 4 1;
#X connect 10 0 4 0;
#X connect 10 0 0 0;
#X connect 12 0 13 0;
#X connect 12 0 14 0;
#X connect 14 0 1 0;
#X connect 15 0 8 0;
#X connect 15 0 9 0;
#X restore 35 310 pd lowpass;
#X obj 155 550 * 50;
#X obj 154 571 ctlout 104 17;
#X obj 100 333 tgl 15 0 empty empty empty 0 -6 0 8 -262144 -1 -1 0
1;
#N canvas 699 68 374 422 togvol 0;
#X floatatom 67 62 5 0 0 0 - - -;
#X obj 130 101 ctlin 33;
#X obj 59 22 ctlin 1;
#X obj 59 42 / 127;
#X obj 130 121 / 127;
#X floatatom 139 149 5 0 0 0 - - -;
#X obj 43 372 outlet;
#X obj 130 298 select 0;
#X msg 130 317 0;
#X obj 43 300 f;
#X obj 212 152 select 1;
#X msg 213 172 bang;
#X obj 82 229 spigot;
#X connect 1 0 4 0;
#X connect 2 0 3 0;
#X connect 3 0 0 0;
#X connect 3 0 9 1;
#X connect 3 0 12 0;
#X connect 4 0 5 0;
#X connect 4 0 7 0;
#X connect 4 0 10 0;
#X connect 4 0 12 1;
#X connect 7 0 8 0;
#X connect 8 0 6 0;
#X connect 9 0 6 0;
#X connect 10 0 11 0;
#X connect 11 0 9 0;
#X connect 12 0 6 0;
#X restore 50 147 pd togvol;
#X obj 61 176 tgl 15 0 empty empty empty 0 -6 0 8 -262144 -1 -1 0 0.748031
;
#X floatatom 83 177 5 0 0 0 - - -;
#X connect 1 0 30 0;
#X connect 2 0 0 0;
#X connect 2 0 0 1;
#X connect 3 0 4 0;
#X connect 3 0 2 1;
#X connect 3 0 34 0;
#X connect 5 0 2 0;
#X connect 6 0 7 0;
#X connect 7 0 31 0;
#X connect 8 0 14 0;
#X connect 10 0 9 0;
#X connect 10 0 5 2;
#X connect 12 0 7 0;
#X connect 13 0 7 1;
#X connect 14 0 33 0;
#X connect 15 0 14 1;
#X connect 16 0 14 2;
#X connect 17 0 5 1;
#X connect 18 0 17 0;
#X connect 19 0 20 0;
#X connect 19 1 21 0;
#X connect 22 0 23 0;
#X connect 23 0 3 0;
#X connect 24 0 25 0;
#X connect 25 0 10 0;
#X connect 26 0 27 0;
#X connect 27 0 28 0;
#X connect 28 0 18 0;
#X connect 29 0 6 0;
#X connect 30 0 8 0;
#X connect 31 0 32 0;
#X connect 32 0 11 0;
#X connect 32 0 8 1;
#X connect 33 0 5 0;
#X connect 33 1 36 0;
#X connect 34 0 35 0;
#X connect 37 0 38 0;
#X connect 37 0 39 0;
#X connect 37 0 30 1;
