#N canvas 0 0 493 383 10;
#X obj 402 25 ctlin;
#X obj 384 56 pack f f f;
#X obj 383 94 print RAW;
#X obj 14 215 select 6;
#X obj 34 57 select 99;
#X obj 19 26 ctlin;
#X text 91 1 99 is nrpn_in;
#X obj 19 149 spigot;
#X msg 34 81 1;
#X msg 67 81 0;
#X floatatom 21 180 5 0 0 0 - - -;
#X msg 126 111 1;
#X msg 159 111 0;
#X obj 126 87 select 98;
#X obj 122 182 spigot;
#X floatatom 112 217 5 0 0 0 - - -;
#X obj 8 127 f;
#X obj 37 104 t b f;
#X obj 109 160 f;
#X obj 128 135 t b f;
#N canvas 44 264 665 602 test 0;
#X obj 26 53 ctlin;
#X obj 202 121 f;
#X obj 232 120 f;
#X obj 261 119 f;
#X obj 292 119 f;
#X obj 203 94 t f b b b;
#X floatatom 191 144 5 0 0 0 - - -;
#X floatatom 231 143 5 0 0 0 - - -;
#X floatatom 272 143 5 0 0 0 - - -;
#X floatatom 313 143 5 0 0 0 - - -;
#X obj 25 121 f;
#X obj 55 120 f;
#X obj 84 119 f;
#X obj 115 119 f;
#X obj 26 94 t f b b b;
#X floatatom 14 144 5 0 0 0 - - -;
#X floatatom 54 143 5 0 0 0 - - -;
#X floatatom 95 143 5 0 0 0 - - -;
#X floatatom 136 143 5 0 0 0 - - -;
#X obj 241 236 select 98;
#X obj 312 237 select 99;
#X msg 241 256 1;
#X msg 280 256 0;
#X msg 312 257 1;
#X msg 351 257 0;
#X obj 243 295 *;
#X obj 70 508 << 7;
#X obj 92 241 select 49;
#X msg 92 260 1;
#X msg 130 261 0;
#X obj 69 487 spigot;
#X obj 16 487 spigot;
#X obj 42 534 +;
#X floatatom 40 561 5 0 0 0 - - -;
#X obj 147 329 *;
#X text 110 225 midi cc;
#X obj 383 120 f;
#X obj 413 119 f;
#X obj 442 118 f;
#X obj 473 118 f;
#X obj 384 93 t f b b b;
#X floatatom 372 143 5 0 0 0 - - -;
#X floatatom 412 142 5 0 0 0 - - -;
#X floatatom 453 142 5 0 0 0 - - -;
#X floatatom 494 142 5 0 0 0 - - -;
#X text 387 74 channel;
#X text 521 167 ch;
#X msg 445 273 1;
#X msg 484 273 0;
#X obj 445 253 select 1;
#X connect 0 0 14 0;
#X connect 0 1 5 0;
#X connect 0 2 40 0;
#X connect 1 0 2 1;
#X connect 1 0 6 0;
#X connect 2 0 3 1;
#X connect 2 0 7 0;
#X connect 3 0 4 1;
#X connect 3 0 8 0;
#X connect 3 0 19 0;
#X connect 4 0 9 0;
#X connect 4 0 20 0;
#X connect 5 0 1 0;
#X connect 5 1 2 0;
#X connect 5 2 3 0;
#X connect 5 3 4 0;
#X connect 10 0 11 1;
#X connect 10 0 15 0;
#X connect 10 0 31 0;
#X connect 11 0 12 1;
#X connect 11 0 16 0;
#X connect 11 0 30 0;
#X connect 12 0 13 1;
#X connect 12 0 17 0;
#X connect 12 0 27 0;
#X connect 13 0 18 0;
#X connect 14 0 10 0;
#X connect 14 1 11 0;
#X connect 14 2 12 0;
#X connect 14 3 13 0;
#X connect 19 0 21 0;
#X connect 19 1 22 0;
#X connect 20 0 23 0;
#X connect 20 1 24 0;
#X connect 21 0 25 0;
#X connect 22 0 25 0;
#X connect 23 0 25 1;
#X connect 24 0 25 1;
#X connect 25 0 34 1;
#X connect 26 0 32 1;
#X connect 27 0 28 0;
#X connect 27 1 29 0;
#X connect 28 0 34 0;
#X connect 29 0 34 0;
#X connect 30 0 26 0;
#X connect 31 0 32 0;
#X connect 32 0 33 0;
#X connect 34 0 30 1;
#X connect 34 0 31 1;
#X connect 36 0 37 1;
#X connect 36 0 41 0;
#X connect 37 0 38 1;
#X connect 37 0 42 0;
#X connect 38 0 39 1;
#X connect 38 0 43 0;
#X connect 39 0 44 0;
#X connect 40 0 36 0;
#X connect 40 1 37 0;
#X connect 40 2 38 0;
#X connect 40 3 39 0;
#X connect 49 0 47 0;
#X connect 49 1 48 0;
#X restore 260 180 pd test;
#X connect 0 0 1 0;
#X connect 0 1 1 1;
#X connect 0 2 1 2;
#X connect 4 0 8 0;
#X connect 4 1 9 0;
#X connect 5 0 16 1;
#X connect 5 0 18 1;
#X connect 5 1 4 0;
#X connect 5 1 13 0;
#X connect 7 0 10 0;
#X connect 8 0 17 0;
#X connect 9 0 17 0;
#X connect 11 0 19 0;
#X connect 12 0 19 0;
#X connect 13 0 11 0;
#X connect 13 1 12 0;
#X connect 14 0 15 0;
#X connect 16 0 7 0;
#X connect 17 0 16 0;
#X connect 17 1 7 1;
#X connect 18 0 14 0;
#X connect 19 0 18 0;
#X connect 19 1 14 1;
