#N canvas 11 15 609 433 10;
#X obj 20 23 nrpn_in 13;
#X floatatom 21 50 5 0 0 0 - - -;
#X obj 81 39 ctlin;
#X obj 89 76 print a;
#X obj 72 98 print b;
#X obj 64 124 print c;
#X msg 133 8 xxxxxxxxxxxxxxxxxxxxxxxxxxxxxxxxxxxxxxxxx;
#X obj 133 408 ctlout;
#X floatatom 255 38 5 0 0 0 - - -;
#X msg 250 169 99;
#X obj 207 356 print A;
#X obj 318 357 print C;
#X obj 263 357 print B;
#X msg 210 166 0;
#X obj 223 138 t b b b;
#X obj 342 143 t b b b;
#X msg 340 181 98;
#X text 309 198 ctrller;
#X obj 305 183 f;
#X floatatom 307 163 5 0 0 0 - - -;
#X obj 338 324 f;
#X floatatom 365 306 5 0 0 0 - - -;
#X msg 447 195 6;
#X obj 444 264 >> 7;
#X obj 415 132 t f b b;
#X text 477 196 ??;
#X obj 513 135 t f b b;
#X obj 255 86 t f f b b;
#X obj 444 287 << 7;
#X obj 473 322 -;
#X msg 517 192 38;
#X text 543 194 ??;
#X obj 257 60 clip 0 16384;
#X connect 0 0 1 0;
#X connect 2 0 3 0;
#X connect 2 1 4 0;
#X connect 2 2 5 0;
#X connect 6 0 3 0;
#X connect 8 0 32 0;
#X connect 9 0 12 0;
#X connect 9 0 7 1;
#X connect 13 0 10 0;
#X connect 13 0 7 0;
#X connect 14 0 13 0;
#X connect 14 1 9 0;
#X connect 14 2 20 0;
#X connect 15 0 18 0;
#X connect 15 1 16 0;
#X connect 15 2 20 0;
#X connect 16 0 12 0;
#X connect 16 0 7 1;
#X connect 18 0 10 0;
#X connect 18 0 7 0;
#X connect 19 0 18 1;
#X connect 20 0 11 0;
#X connect 20 0 7 2;
#X connect 21 0 20 1;
#X connect 22 0 12 0;
#X connect 22 0 7 1;
#X connect 23 0 10 0;
#X connect 23 0 28 0;
#X connect 23 0 7 0;
#X connect 24 0 23 0;
#X connect 24 1 22 0;
#X connect 24 2 20 0;
#X connect 26 0 29 0;
#X connect 26 1 30 0;
#X connect 26 2 20 0;
#X connect 27 0 26 0;
#X connect 27 1 24 0;
#X connect 27 2 15 0;
#X connect 27 3 14 0;
#X connect 28 0 29 1;
#X connect 29 0 10 0;
#X connect 29 0 7 0;
#X connect 30 0 12 0;
#X connect 30 0 7 1;
#X connect 32 0 27 0;
