#N canvas 780 317 644 488 10;
#X obj 137 66 unpackOSC;
#X obj 178 98 pipelist;
#X obj 139 41 udpreceive 9998;
#X obj 136 128 routeOSC /4;
#X obj 136 150 routeOSC /multitoggle;
#X obj 133 216 unpack s f;
#X floatatom 199 254 5 0 0 0 - - -;
#X obj 72 329 print yyy;
#N canvas 110 303 622 494 routeto8 1;
#X obj 92 26 inlet;
#X obj 108 321 outlet;
#X obj 101 72 routeOSC /1 /2 /3 /4 /5 /6 /7 /8;
#X msg 102 203 1;
#X msg 146 205 2;
#X msg 187 203 3;
#X msg 224 204 4;
#X msg 211 240 5;
#X msg 246 241 6;
#X msg 287 239 7;
#X msg 324 240 8;
#X obj 87 115 t b a;
#X obj 131 114 t b a;
#X obj 177 114 t b a;
#X obj 222 115 t b a;
#X obj 216 159 t b a;
#X obj 261 159 t b a;
#X obj 307 158 t b a;
#X obj 351 159 t b a;
#X obj 449 151 routeOSC;
#X obj 312 449 outlet;
#X obj 385 190 routeOSC /1 /2 /3 /4 /5 /6 /7 /8;
#X msg 352 290 1;
#X msg 396 292 2;
#X msg 433 286 3;
#X msg 474 291 4;
#X msg 461 334 5;
#X msg 496 328 6;
#X msg 533 327 7;
#X msg 574 327 8;
#X connect 0 0 2 0;
#X connect 2 0 11 0;
#X connect 2 1 12 0;
#X connect 2 2 13 0;
#X connect 2 3 14 0;
#X connect 2 4 15 0;
#X connect 2 5 16 0;
#X connect 2 6 17 0;
#X connect 2 7 18 0;
#X connect 3 0 1 0;
#X connect 4 0 1 0;
#X connect 5 0 1 0;
#X connect 6 0 1 0;
#X connect 7 0 1 0;
#X connect 8 0 1 0;
#X connect 9 0 1 0;
#X connect 10 0 1 0;
#X connect 11 0 3 0;
#X connect 11 1 19 0;
#X connect 12 0 4 0;
#X connect 12 1 19 0;
#X connect 13 0 5 0;
#X connect 13 1 19 0;
#X connect 14 0 6 0;
#X connect 14 1 19 0;
#X connect 15 0 7 0;
#X connect 15 1 19 0;
#X connect 16 0 8 0;
#X connect 16 1 19 0;
#X connect 17 0 9 0;
#X connect 17 1 19 0;
#X connect 18 0 10 0;
#X connect 18 1 19 0;
#X connect 19 0 21 0;
#X connect 21 0 22 0;
#X connect 21 1 23 0;
#X connect 21 2 24 0;
#X connect 21 3 25 0;
#X connect 21 4 26 0;
#X connect 21 5 27 0;
#X connect 21 6 28 0;
#X connect 21 7 29 0;
#X connect 22 0 20 0;
#X connect 23 0 20 0;
#X connect 24 0 20 0;
#X connect 25 0 20 0;
#X connect 26 0 20 0;
#X connect 27 0 20 0;
#X connect 28 0 20 0;
#X connect 29 0 20 0;
#X restore 175 279 pd routeto8;
#X floatatom 187 305 5 0 0 0 - - -;
#X floatatom 253 305 5 0 0 0 - - -;
#X obj 179 344 *;
#X floatatom 176 373 5 0 0 0 - - -;
#X connect 0 0 1 0;
#X connect 0 1 1 1;
#X connect 1 0 3 0;
#X connect 2 0 0 0;
#X connect 3 0 4 0;
#X connect 4 0 5 0;
#X connect 5 0 7 0;
#X connect 5 0 8 0;
#X connect 5 1 6 0;
#X connect 8 0 9 0;
#X connect 8 0 11 0;
#X connect 8 1 10 0;
#X connect 8 1 11 1;
#X connect 11 0 12 0;
