#N canvas 9 21 632 590 10;
#X floatatom 184 186 5 0 0 0 - - -;
#X obj 21 20 bng 15 250 50 0 empty empty empty 0 -6 0 8 -262144 -1
-1;
#X msg 42 18 stop;
#X floatatom 93 164 5 0 0 0 - - -;
#X floatatom 115 183 5 0 0 0 - - -;
#X floatatom 134 205 5 0 0 0 - - -;
#X floatatom 226 185 5 0 0 0 - - -;
#X floatatom 268 186 5 0 0 0 - - -;
#X floatatom 309 186 5 0 0 0 - - -;
#X floatatom 352 187 5 0 0 0 - - -;
#X obj 166 477 hsl 128 15 0 1 0 0 empty empty empty -2 -6 0 8 -225271
-1 -1 5430 1;
#X floatatom 160 499 5 0 0 0 - - -;
#X obj 52 430 vu 15 120 empty empty -1 -8 0 8 -66577 -1 1 0;
#N canvas 0 0 413 230 out 0;
#X obj 254 15 inlet;
#X obj 108 131 dac~;
#X obj 105 103 *~;
#X obj 135 103 *~;
#X obj 13 137 env~ 10000;
#X obj 14 157 - 97;
#X obj 163 9 inlet~;
#X obj 13 178 outlet;
#X obj 177 137 env~ 10000;
#X obj 178 157 - 97;
#X obj 177 178 outlet;
#X obj 86 10 inlet~;
#X obj 73 45 clip~ -1 1;
#X obj 162 45 clip~ -1 1;
#X connect 0 0 3 1;
#X connect 0 0 2 1;
#X connect 2 0 1 0;
#X connect 2 0 4 0;
#X connect 3 0 1 1;
#X connect 3 0 8 0;
#X connect 4 0 5 0;
#X connect 5 0 7 0;
#X connect 6 0 13 0;
#X connect 8 0 9 0;
#X connect 9 0 10 0;
#X connect 11 0 12 0;
#X connect 12 0 2 0;
#X connect 13 0 3 0;
#X restore 111 488 pd out;
#X obj 71 430 vu 15 120 empty empty -1 -8 0 8 -66577 -1 1 0;
#X obj 35 50 metro 25;
#X floatatom 416 103 5 0 0 0 - - -;
#X floatatom 460 103 5 0 0 0 - - -;
#X floatatom 506 103 5 0 0 0 - - -;
#X floatatom 132 31 5 0 0 0 - - -;
#X msg 125 10 10;
#X obj 415 184 hsl 128 8 -0.3 0.3 0 0 empty empty empty -2 -6 0 8 -262131
-1 -1 8930 1;
#X obj 416 199 hsl 128 8 -0.3 0.3 0 0 empty empty empty -2 -6 0 8 -228992
-1 -1 4593 1;
#X floatatom 446 312 5 0 0 0 - - -;
#X floatatom 570 314 5 0 0 0 - - -;
#X obj 396 342 pack f f;
#X msg 317 341 goto \$1 \$2;
#X msg 459 282 bang;
#X text 472 300 X;
#X text 324 348 Y;
#X text 582 298 Y;
#X obj 338 375 grid grid2 200 0 199 200 0 199 1 1 1 10 10 478.623 553.224
;
#X obj 352 259 + 0.3;
#X obj 352 279 / 0.6;
#X obj 352 301 * 200;
#X obj 395 301 * 200;
#X obj 396 259 - 0.3;
#X obj 396 279 / -0.6;
#N canvas 0 0 529 370 modulat0r 0;
#X obj 282 141 *~;
#X floatatom 282 84 0 0 0 0 - - -;
#X obj 363 121 line~;
#X floatatom 194 104 0 0 0 0 - - -;
#X obj 194 218 cos~;
#X obj 194 151 +~;
#X obj 282 109 osc~ 0;
#X obj 363 95 pack 0 50;
#X floatatom 363 42 0 0 0 0 - - -;
#X obj 363 69 / 100;
#X text 194 69 carrier;
#X text 190 79 frequency;
#X text 267 60 frequency;
#X text 268 43 modulation;
#X obj 194 131 phasor~;
#X msg 45 74 250;
#X obj 45 52 loadbang;
#X text 23 101 3-dimensional control;
#X text 22 113 would be nice :-);
#X text 399 34 modulation index;
#X text 399 49 in hundredths;
#X obj 73 15 inlet;
#X obj 178 21 inlet;
#X obj 195 241 outlet~;
#X connect 0 0 5 1;
#X connect 1 0 6 0;
#X connect 2 0 0 1;
#X connect 3 0 14 0;
#X connect 4 0 23 0;
#X connect 5 0 4 0;
#X connect 6 0 0 0;
#X connect 7 0 2 0;
#X connect 8 0 9 0;
#X connect 9 0 7 0;
#X connect 14 0 5 0;
#X connect 15 0 3 0;
#X connect 16 0 15 0;
#X connect 21 0 1 0;
#X connect 22 0 8 0;
#X restore 238 565 pd modulat0r;
#X obj 162 448 loadbang;
#X msg 225 447 0.9;
#X obj 125 59 p5 50 0 0 0 0 0 0 0;
#X obj 474 129 vsl 8 128 -0.3 0.3 0 0 empty empty empty 0 -8 0 8 -225271
-1 -1 1383 1;
#X connect 1 0 15 0;
#X connect 2 0 15 0;
#X connect 10 0 11 0;
#X connect 10 0 13 2;
#X connect 13 0 12 0;
#X connect 13 1 14 0;
#X connect 19 0 41 0;
#X connect 20 0 41 0;
#X connect 23 0 25 0;
#X connect 24 0 25 1;
#X connect 24 0 27 0;
#X connect 25 0 26 0;
#X connect 26 0 31 0;
#X connect 27 0 23 0;
#X connect 31 0 38 0;
#X connect 31 1 38 1;
#X connect 32 0 33 0;
#X connect 33 0 34 0;
#X connect 34 0 23 0;
#X connect 35 0 24 0;
#X connect 36 0 37 0;
#X connect 37 0 35 0;
#X connect 38 0 13 1;
#X connect 38 0 13 0;
#X connect 39 0 40 0;
#X connect 40 0 10 0;
#X connect 41 0 3 0;
#X connect 41 1 4 0;
#X connect 41 2 5 0;
#X connect 41 3 0 0;
#X connect 41 4 6 0;
#X connect 41 5 7 0;
#X connect 41 6 8 0;
#X connect 41 7 9 0;
#X connect 41 8 16 0;
#X connect 41 8 32 0;
#X connect 41 8 21 0;
#X connect 41 9 17 0;
#X connect 41 9 36 0;
#X connect 41 9 42 0;
#X connect 41 10 18 0;
#X connect 41 10 22 0;
