#N canvas 43 253 592 645 10;
#X obj 192 71 grid grid2 200 0 199 200 0 199 1 1 1 10 10 348.689 247.454
;
#X obj 158 577 hsl 128 15 0 1 0 0 empty empty empty -2 -6 0 8 -225271
-1 -1 11430 1;
#X floatatom 154 595 5 0 0 0 - - -;
#X obj 37 488 vu 15 120 empty empty -1 -8 0 8 -66577 -1 1 0;
#N canvas 0 0 413 230 out 0;
#X obj 254 15 inlet;
#X obj 108 131 dac~;
#X obj 105 103 *~;
#X obj 135 103 *~;
#X obj 13 137 env~ 10000;
#X obj 14 157 - 97;
#X obj 163 9 inlet~;
#X obj 13 178 outlet;
#X obj 177 137 env~ 10000;
#X obj 178 157 - 97;
#X obj 177 178 outlet;
#X obj 86 10 inlet~;
#X obj 73 45 clip~ -1 1;
#X obj 162 45 clip~ -1 1;
#X connect 0 0 3 1;
#X connect 0 0 2 1;
#X connect 2 0 1 0;
#X connect 2 0 4 0;
#X connect 3 0 1 1;
#X connect 3 0 8 0;
#X connect 4 0 5 0;
#X connect 5 0 7 0;
#X connect 6 0 13 0;
#X connect 8 0 9 0;
#X connect 9 0 10 0;
#X connect 11 0 12 0;
#X connect 12 0 2 0;
#X connect 13 0 3 0;
#X restore 102 595 pd out;
#X obj 56 488 vu 15 120 empty empty -1 -8 0 8 -66577 -1 1 0;
#N canvas 525 115 529 370 modulat0r 0;
#X obj 282 141 *~;
#X floatatom 293 80 0 0 0 0 - - -;
#X obj 363 121 line~;
#X floatatom 208 55 0 0 0 0 - - -;
#X obj 194 218 cos~;
#X obj 194 151 +~;
#X obj 282 109 osc~ 0;
#X obj 363 95 pack 0 50;
#X floatatom 369 41 0 0 0 0 - - -;
#X obj 363 69 / 100;
#X text 194 69 carrier;
#X text 190 79 frequency;
#X text 267 60 frequency;
#X text 268 43 modulation;
#X obj 194 131 phasor~;
#X msg 45 74 250;
#X obj 45 52 loadbang;
#X text 23 101 3-dimensional control;
#X text 22 113 would be nice :-);
#X text 394 23 modulation index;
#X text 422 39 in hundredths;
#X obj 282 6 inlet;
#X obj 363 8 inlet;
#X obj 195 241 outlet~;
#X obj 194 7 inlet;
#X connect 0 0 5 1;
#X connect 1 0 6 0;
#X connect 2 0 0 1;
#X connect 4 0 23 0;
#X connect 5 0 4 0;
#X connect 6 0 0 0;
#X connect 7 0 2 0;
#X connect 9 0 7 0;
#X connect 14 0 5 0;
#X connect 15 0 14 0;
#X connect 16 0 15 0;
#X connect 21 0 6 0;
#X connect 22 0 8 0;
#X connect 22 0 9 0;
#X connect 24 0 3 0;
#X connect 24 0 14 0;
#X restore 85 264 pd modulat0r;
#X obj 154 539 loadbang;
#X msg 154 558 0.9;
#X obj 366 454 osc~;
#X floatatom 225 432 5 0 0 0 - - -;
#X obj 377 514 clip~ 0 1;
#X obj 447 514 clip~ -1 0;
#X obj 387 582 *~;
#X obj 431 573 *~;
#X obj 346 545 sig~ 1;
#X obj 349 585 -~;
#X obj 475 593 -~;
#X obj 472 553 sig~ -1;
#X obj 107 467 pingpong2~;
#X text 433 476 pingpong redundancy;
#X obj 224 320 r p5_index;
#X obj 224 383 * -1;
#X obj 233 409 + 0.1;
#X obj 224 340 * 20;
#X obj 224 361 - 20;
#X obj 114 19 p5glove 9998;
#X floatatom 264 341 5 0 0 0 - - -;
#X obj 231 19 r p5_fistbang;
#X obj 232 43 bng 15 250 50 0 empty empty empty 0 -6 0 8 -262144 -1
-1;
#X obj 330 18 r p5_mfist;
#X floatatom 331 40 5 0 0 0 - - -;
#N canvas 658 355 450 300 xytracker 0;
#X floatatom 193 181 5 0 0 0 - - -;
#X floatatom 242 178 5 0 0 0 - - -;
#X obj 191 213 pack f f;
#X msg 190 238 goto \$1 \$2;
#X msg 201 155 bang;
#X text 219 169 X;
#X obj 190 83 + 0.3;
#X obj 190 103 / 0.6;
#X obj 190 125 * 200;
#X obj 233 125 * 200;
#X obj 234 83 - 0.3;
#X obj 234 103 / -0.6;
#X obj 190 36 r p5_x;
#X obj 234 56 r p5_y;
#X text 254 162 Y;
#X obj 190 263 outlet;
#X obj 83 253 outlet;
#X obj 31 253 outlet;
#X obj 332 39 r p5_z;
#X floatatom 353 62 5 0 0 0 - - -;
#X obj 333 78 + 0.3;
#X obj 333 98 / 0.6;
#X floatatom 327 151 5 0 0 0 - - -;
#X obj 333 120 * 1200;
#X obj 136 251 outlet;
#X connect 0 0 2 0;
#X connect 0 0 17 0;
#X connect 1 0 2 1;
#X connect 1 0 4 0;
#X connect 1 0 16 0;
#X connect 2 0 3 0;
#X connect 3 0 15 0;
#X connect 4 0 0 0;
#X connect 6 0 7 0;
#X connect 7 0 8 0;
#X connect 8 0 0 0;
#X connect 9 0 1 0;
#X connect 10 0 11 0;
#X connect 11 0 9 0;
#X connect 12 0 6 0;
#X connect 13 0 10 0;
#X connect 18 0 19 0;
#X connect 18 0 20 0;
#X connect 20 0 21 0;
#X connect 21 0 23 0;
#X connect 23 0 22 0;
#X connect 23 0 24 0;
#X restore 113 47 pd xytracker;
#X obj 174 72 vsl 15 200 100 1200 0 0 empty empty empty 0 -8 0 8 -233017
-1 -1 3659 1;
#N canvas 680 378 450 300 mymemory 0;
#X obj 39 28 inlet~;
#X obj 92 27 inlet~;
#X obj 206 28 r p5_mfist;
#X floatatom 252 53 5 0 0 0 - - -;
#X obj 47 243 outlet~;
#X obj 165 244 outlet~;
#X obj 208 77 select 0;
#X obj 268 77 select 1;
#X obj 217 98 bng 15 250 50 0 empty empty empty 0 -6 0 8 -262144 -1
-1;
#X obj 272 101 bng 15 250 50 0 empty empty empty 0 -6 0 8 -262144 -1
-1;
#X obj 163 153 loopback~ 5;
#X obj 51 152 loopback~ 5;
#X connect 0 0 11 0;
#X connect 1 0 10 0;
#X connect 2 0 3 0;
#X connect 2 0 6 0;
#X connect 2 0 7 0;
#X connect 6 0 8 0;
#X connect 6 0 10 1;
#X connect 6 0 11 1;
#X connect 7 0 9 0;
#X connect 7 0 10 2;
#X connect 7 0 11 2;
#X connect 10 0 5 0;
#X connect 11 0 4 0;
#X restore 106 496 pd mymemory;
#N canvas 601 370 354 366 noisebutton 0;
#X obj 57 46 inlet~;
#X obj 26 330 outlet~;
#X obj 119 184 line~;
#X obj 112 216 *~;
#X obj 43 239 *~;
#X obj 60 210 line~;
#X msg 95 128 0 5;
#X msg 137 130 1 5;
#X msg 137 153 0 5;
#X msg 94 150 1 5;
#X obj 111 257 l_disintegrator~ 75 10;
#X text 62 21 press button 3 for noisy mode;
#X obj 209 186 loadbang;
#X obj 117 282 pitcher~ 30 0;
#X floatatom 246 214 5 0 0 0 - - -;
#X msg 210 211 -6;
#X obj 117 306 *~ 2;
#X obj 194 90 route 0 1;
#X obj 194 41 r p5_mbtn1;
#X obj 128 46 loadbang;
#X msg 128 67 0;
#X connect 0 0 4 0;
#X connect 0 0 3 0;
#X connect 2 0 3 1;
#X connect 3 0 10 0;
#X connect 4 0 1 0;
#X connect 5 0 4 1;
#X connect 6 0 5 0;
#X connect 7 0 2 0;
#X connect 8 0 2 0;
#X connect 9 0 5 0;
#X connect 10 0 13 0;
#X connect 12 0 15 0;
#X connect 13 0 16 0;
#X connect 14 0 13 1;
#X connect 15 0 13 1;
#X connect 16 0 1 0;
#X connect 17 0 7 0;
#X connect 17 0 6 0;
#X connect 17 1 8 0;
#X connect 17 1 9 0;
#X connect 18 0 17 0;
#X connect 19 0 20 0;
#X connect 20 0 17 0;
#X restore 85 419 pd noisebutton 1;
#X connect 1 0 2 0;
#X connect 1 0 4 2;
#X connect 4 0 3 0;
#X connect 4 1 5 0;
#X connect 6 0 35 0;
#X connect 7 0 8 0;
#X connect 8 0 1 0;
#X connect 9 0 11 0;
#X connect 9 0 12 0;
#X connect 10 0 19 1;
#X connect 11 0 16 1;
#X connect 12 0 17 1;
#X connect 15 0 16 0;
#X connect 16 0 13 1;
#X connect 17 0 14 1;
#X connect 18 0 17 0;
#X connect 19 0 34 0;
#X connect 19 1 34 1;
#X connect 21 0 24 0;
#X connect 21 0 27 0;
#X connect 22 0 23 0;
#X connect 23 0 10 0;
#X connect 24 0 25 0;
#X connect 25 0 22 0;
#X connect 28 0 29 0;
#X connect 30 0 31 0;
#X connect 32 0 6 1;
#X connect 32 1 6 2;
#X connect 32 2 33 0;
#X connect 32 2 6 0;
#X connect 32 3 0 0;
#X connect 34 0 4 0;
#X connect 34 1 4 1;
#X connect 35 0 19 0;
