#N canvas 167 254 958 720 10;
#X obj 62 171 slapscrotch~;
#X obj 69 564 mout~;
#X obj 63 116 adc~;
#X floatatom 179 72 5 0 0 0 - - -, f 5;
#X msg 179 90 gran_pos \$1;
#X floatatom 74 32 5 0 2 0 - - -, f 5;
#X msg 74 50 speed \$1;
#X obj 195 117 adc~;
#N canvas 118 172 450 300 thresh_ctl 1;
#X floatatom 191 53 5 0 0 0 - - -, f 5;
#X floatatom 296 55 5 0 0 0 - - -, f 5;
#X obj 166 27 ctlin 125;
#X obj 275 28 ctlin 126;
#X obj 96 95 attack_detect 102 104;
#X obj 49 26 inlet~;
#X obj 99 227 ctlout 124;
#X obj 99 150 127;
#X obj 110 180 delay 400;
#X obj 116 204 0;
#X obj 110 124 bng 15 250 50 0 empty empty empty 17 7 0 10 -262144
-1 -1;
#X msg 200 139 a_low \$1;
#X obj 200 159 send a_low;
#X msg 290 139 a_high \$1;
#X obj 290 159 send a_high;
#X connect 2 0 0 0;
#X connect 2 0 4 1;
#X connect 2 0 11 0;
#X connect 3 0 1 0;
#X connect 3 0 4 2;
#X connect 3 0 13 0;
#X connect 4 0 7 0;
#X connect 4 0 10 0;
#X connect 5 0 4 0;
#X connect 7 0 8 0;
#X connect 7 0 6 0;
#X connect 8 0 9 0;
#X connect 9 0 6 0;
#X connect 11 0 12 0;
#X connect 13 0 14 0;
#X restore 179 498 pd thresh_ctl;
#X obj 179 471 adc~;
#X obj 152 11 r a_low;
#X obj 164 36 r a_high;
#X msg 294 69 onoff \$1;
#X obj 300 42 tgl 15 0 empty empty empty 17 7 0 10 -262144 -1 -1 0
1;
#N canvas 1141 272 488 585 ctl 1;
#X obj 34 343 select 0, f 9;
#X obj 30 369 0;
#X obj 83 368 1;
#X obj 51 395 tgl 15 0 empty empty empty 17 7 0 10 -262144 -1 -1 127
1;
#X obj 36 495 outlet;
#X msg 36 419 onoff \$1;
#X obj 43 15 inlet;
#X obj 46 37 route onoff;
#X obj 45 59 select 1;
#X obj 96 83 0;
#X obj 42 110 ctlout 16;
#X obj 34 318 ctlin 16;
#X obj 137 343 range 0 500 0 2;
#X msg 138 416 speed \$1;
#X floatatom 158 370 5 0 0 0 - - -, f 5;
#X obj 135 317 nrpn_in 0;
#X obj 45 81 127;
#X connect 0 0 1 0;
#X connect 0 1 2 0;
#X connect 1 0 3 0;
#X connect 1 0 5 0;
#X connect 2 0 3 0;
#X connect 2 0 5 0;
#X connect 5 0 4 0;
#X connect 6 0 7 0;
#X connect 7 0 8 0;
#X connect 8 0 16 0;
#X connect 8 1 9 0;
#X connect 9 0 10 0;
#X connect 11 0 0 0;
#X connect 12 0 13 0;
#X connect 12 0 14 0;
#X connect 13 0 4 0;
#X connect 15 0 12 0;
#X connect 16 0 10 0;
#X restore 107 132 pd ctl;
#X obj 194 172 slapscrotch~;
#X connect 0 0 1 0;
#X connect 0 1 1 0;
#X connect 0 2 14 0;
#X connect 2 0 0 0;
#X connect 3 0 4 0;
#X connect 4 0 0 1;
#X connect 5 0 6 0;
#X connect 6 0 0 1;
#X connect 7 0 15 0;
#X connect 9 0 8 0;
#X connect 10 0 0 1;
#X connect 11 0 0 1;
#X connect 12 0 0 1;
#X connect 13 0 12 0;
#X connect 14 0 0 1;
