#N canvas 170 257 730 732 10;
#X obj 70 139 slapscrotch~;
#X obj 69 564 mout~;
#X obj 71 84 adc~;
#X msg 220 60 a_low \$1;
#X floatatom 220 42 5 0 0 0 - - -, f 5;
#X floatatom 296 40 5 0 0 0 - - -, f 5;
#X msg 296 58 a_high \$1;
#X floatatom 297 85 5 0 0 0 - - -, f 5;
#X msg 297 103 gran_pos \$1;
#X floatatom 151 43 5 0 2 0 - - -, f 5;
#X msg 151 61 speed \$1;
#X connect 0 0 1 0;
#X connect 0 1 1 0;
#X connect 2 0 0 0;
#X connect 3 0 0 1;
#X connect 4 0 3 0;
#X connect 5 0 6 0;
#X connect 6 0 0 1;
#X connect 7 0 8 0;
#X connect 8 0 0 1;
#X connect 9 0 10 0;
#X connect 10 0 0 1;
