#N canvas 84 233 1120 720 10;
#X obj 190 461 mout~;
#X obj 23 142 adc~;
#X obj 155 143 adc~;
#N canvas 114 168 450 300 thresh_ctl 0;
#X floatatom 191 53 5 0 0 0 - - -, f 5;
#X floatatom 296 55 5 0 0 0 - - -, f 5;
#X obj 166 27 ctlin 125;
#X obj 275 28 ctlin 126;
#X obj 96 95 attack_detect 102 104;
#X obj 94 21 inlet~;
#X obj 99 227 ctlout 124;
#X obj 99 150 127;
#X obj 110 180 delay 400;
#X obj 116 204 0;
#X obj 110 124 bng 15 250 50 0 empty empty empty 17 7 0 10 -262144
-1 -1;
#X msg 200 139 a_low \$1;
#X obj 200 159 send a_low;
#X msg 290 139 a_high \$1;
#X obj 290 159 send a_high;
#X obj 179 226 ctlout 123;
#X obj 101 249 ctlout 122;
#X obj 181 248 ctlout 121;
#X connect 2 0 0 0;
#X connect 2 0 4 1;
#X connect 2 0 11 0;
#X connect 3 0 1 0;
#X connect 3 0 4 2;
#X connect 3 0 13 0;
#X connect 4 0 7 0;
#X connect 4 0 10 0;
#X connect 5 0 4 0;
#X connect 7 0 8 0;
#X connect 7 0 6 0;
#X connect 7 0 16 0;
#X connect 7 0 15 0;
#X connect 7 0 17 0;
#X connect 8 0 9 0;
#X connect 9 0 6 0;
#X connect 9 0 16 0;
#X connect 9 0 15 0;
#X connect 9 0 17 0;
#X connect 11 0 12 0;
#X connect 13 0 14 0;
#X restore 608 517 pd thresh_ctl;
#X obj 608 493 adc~;
#N canvas 553 297 488 585 ctl 0;
#X obj 36 185 select 0, f 9;
#X obj 44 208 0;
#X obj 85 210 1;
#X obj 53 237 tgl 15 0 empty empty empty 17 7 0 10 -262144 -1 -1 127
1;
#X obj 147 492 outlet;
#X msg 38 261 onoff \$1;
#X obj 43 15 inlet;
#X obj 45 59 select 1;
#X obj 96 83 0;
#X obj 42 110 ctlout 16;
#X obj 36 160 ctlin 16;
#X obj 139 185 range 0 500 0 2;
#X msg 140 258 speed \$1;
#X floatatom 160 212 5 0 0 0 - - -, f 5;
#X obj 137 159 nrpn_in 0;
#X obj 45 81 127;
#X obj 46 36 route onoff speed;
#X obj 133 100 nrpn_out 0;
#X obj 133 79 range 0 2 0 500;
#X obj 267 171 nrpn_in 32;
#X obj 267 193 range 0 500 0 88200;
#X msg 267 218 gran_pos \$1;
#X obj 227 392 ctlin 40;
#X obj 227 417 range 0 127 0 1;
#X msg 228 442 vol1 \$1;
#X obj 343 413 range 0 127 0 1;
#X obj 343 388 ctlin 48;
#X msg 344 438 vol2 \$1;
#X obj 21 408 r a_low;
#X obj 33 433 r a_high;
#X obj 290 263 r mute;
#X obj 289 306 line;
#X msg 290 285 0 150;
#X obj 319 337 ctlout 40;
#X obj 345 356 ctlout 48;
#X connect 0 0 1 0;
#X connect 0 1 2 0;
#X connect 1 0 3 0;
#X connect 1 0 5 0;
#X connect 2 0 3 0;
#X connect 2 0 5 0;
#X connect 5 0 4 0;
#X connect 6 0 16 0;
#X connect 7 0 15 0;
#X connect 7 1 8 0;
#X connect 8 0 9 0;
#X connect 10 0 0 0;
#X connect 11 0 12 0;
#X connect 11 0 13 0;
#X connect 12 0 4 0;
#X connect 14 0 11 0;
#X connect 15 0 9 0;
#X connect 16 0 7 0;
#X connect 16 1 18 0;
#X connect 18 0 17 0;
#X connect 19 0 20 0;
#X connect 20 0 21 0;
#X connect 21 0 4 0;
#X connect 22 0 23 0;
#X connect 23 0 24 0;
#X connect 24 0 4 0;
#X connect 25 0 27 0;
#X connect 26 0 25 0;
#X connect 27 0 4 0;
#X connect 28 0 4 0;
#X connect 29 0 4 0;
#X connect 30 0 32 0;
#X connect 31 0 24 0;
#X connect 31 0 27 0;
#X connect 31 0 33 0;
#X connect 31 0 34 0;
#X connect 32 0 31 0;
#X restore 93 171 pd ctl;
#X obj 154 197 slapscrotch~;
#N canvas 1131 262 488 585 ctl 0;
#X obj 34 167 select 0, f 9;
#X obj 42 190 0;
#X obj 83 192 1;
#X obj 51 219 tgl 15 0 empty empty empty 17 7 0 10 -262144 -1 -1 127
1;
#X obj 147 492 outlet;
#X msg 36 243 onoff \$1;
#X obj 43 15 inlet;
#X obj 45 59 select 1;
#X obj 96 83 0;
#X obj 137 167 range 0 500 0 2;
#X msg 138 240 speed \$1;
#X floatatom 158 194 5 0 0 0 - - -, f 5;
#X obj 45 81 127;
#X obj 46 36 route onoff speed;
#X obj 133 79 range 0 2 0 500;
#X obj 265 175 range 0 500 0 88200;
#X msg 265 200 gran_pos \$1;
#X obj 227 417 range 0 127 0 1;
#X msg 228 442 vol1 \$1;
#X obj 343 413 range 0 127 0 1;
#X msg 344 438 vol2 \$1;
#X obj 21 408 r a_low;
#X obj 33 433 r a_high;
#X obj 42 110 ctlout 17;
#X obj 133 100 nrpn_out 1;
#X obj 34 142 ctlin 17;
#X obj 135 141 nrpn_in 1;
#X obj 265 153 nrpn_in 33;
#X obj 227 392 ctlin 41;
#X obj 343 388 ctlin 49;
#X obj 290 263 r mute;
#X obj 289 306 line;
#X msg 290 285 0 150;
#X obj 319 337 ctlout 41;
#X obj 345 356 ctlout 49;
#X connect 0 0 1 0;
#X connect 0 1 2 0;
#X connect 1 0 3 0;
#X connect 1 0 5 0;
#X connect 2 0 3 0;
#X connect 2 0 5 0;
#X connect 5 0 4 0;
#X connect 6 0 13 0;
#X connect 7 0 12 0;
#X connect 7 1 8 0;
#X connect 8 0 23 0;
#X connect 9 0 10 0;
#X connect 9 0 11 0;
#X connect 10 0 4 0;
#X connect 12 0 23 0;
#X connect 13 0 7 0;
#X connect 13 1 14 0;
#X connect 14 0 24 0;
#X connect 15 0 16 0;
#X connect 16 0 4 0;
#X connect 17 0 18 0;
#X connect 18 0 4 0;
#X connect 19 0 20 0;
#X connect 20 0 4 0;
#X connect 21 0 4 0;
#X connect 22 0 4 0;
#X connect 25 0 0 0;
#X connect 26 0 9 0;
#X connect 27 0 15 0;
#X connect 28 0 17 0;
#X connect 29 0 19 0;
#X connect 30 0 32 0;
#X connect 31 0 33 0;
#X connect 31 0 34 0;
#X connect 31 0 18 0;
#X connect 31 0 20 0;
#X connect 32 0 31 0;
#X restore 229 166 pd ctl;
#X obj 22 197 slapscrotch~;
#X obj 286 144 adc~;
#X obj 285 198 slapscrotch~;
#N canvas 1129 260 488 585 ctl 0;
#X obj 36 187 select 0, f 9;
#X obj 44 210 0;
#X obj 85 212 1;
#X obj 53 239 tgl 15 0 empty empty empty 17 7 0 10 -262144 -1 -1 127
1;
#X obj 147 492 outlet;
#X msg 38 263 onoff \$1;
#X obj 43 15 inlet;
#X obj 45 59 select 1;
#X obj 96 83 0;
#X obj 139 187 range 0 500 0 2;
#X msg 140 260 speed \$1;
#X floatatom 160 214 5 0 0 0 - - -, f 5;
#X obj 45 81 127;
#X obj 46 36 route onoff speed;
#X obj 133 79 range 0 2 0 500;
#X obj 267 195 range 0 500 0 88200;
#X msg 267 220 gran_pos \$1;
#X obj 227 417 range 0 127 0 1;
#X msg 228 442 vol1 \$1;
#X obj 343 413 range 0 127 0 1;
#X msg 344 438 vol2 \$1;
#X obj 21 408 r a_low;
#X obj 33 433 r a_high;
#X obj 133 100 nrpn_out 2;
#X obj 42 110 ctlout 18;
#X obj 36 162 ctlin 18;
#X obj 267 173 nrpn_in 34;
#X obj 137 161 nrpn_in 2;
#X obj 227 392 ctlin 42;
#X obj 343 388 ctlin 50;
#X obj 298 259 r mute;
#X obj 297 302 line;
#X msg 298 281 0 150;
#X obj 327 333 ctlout 42;
#X obj 353 352 ctlout 50;
#X connect 0 0 1 0;
#X connect 0 1 2 0;
#X connect 1 0 3 0;
#X connect 1 0 5 0;
#X connect 2 0 3 0;
#X connect 2 0 5 0;
#X connect 5 0 4 0;
#X connect 6 0 13 0;
#X connect 7 0 12 0;
#X connect 7 1 8 0;
#X connect 8 0 24 0;
#X connect 9 0 10 0;
#X connect 9 0 11 0;
#X connect 10 0 4 0;
#X connect 12 0 24 0;
#X connect 13 0 7 0;
#X connect 13 1 14 0;
#X connect 14 0 23 0;
#X connect 15 0 16 0;
#X connect 16 0 4 0;
#X connect 17 0 18 0;
#X connect 18 0 4 0;
#X connect 19 0 20 0;
#X connect 20 0 4 0;
#X connect 21 0 4 0;
#X connect 22 0 4 0;
#X connect 25 0 0 0;
#X connect 26 0 15 0;
#X connect 27 0 9 0;
#X connect 28 0 17 0;
#X connect 29 0 19 0;
#X connect 30 0 32 0;
#X connect 31 0 18 0;
#X connect 31 0 20 0;
#X connect 31 0 33 0;
#X connect 31 0 34 0;
#X connect 32 0 31 0;
#X restore 360 171 pd ctl;
#X obj 417 143 adc~;
#X obj 416 197 slapscrotch~;
#N canvas 1219 237 488 585 ctl 0;
#X obj 36 182 select 0, f 9;
#X obj 44 205 0;
#X obj 85 207 1;
#X obj 53 234 tgl 15 0 empty empty empty 17 7 0 10 -262144 -1 -1 127
1;
#X obj 147 492 outlet;
#X msg 38 258 onoff \$1;
#X obj 43 15 inlet;
#X obj 45 59 select 1;
#X obj 96 83 0;
#X obj 139 182 range 0 500 0 2;
#X msg 140 255 speed \$1;
#X floatatom 160 209 5 0 0 0 - - -, f 5;
#X obj 45 81 127;
#X obj 46 36 route onoff speed;
#X obj 133 79 range 0 2 0 500;
#X obj 267 190 range 0 500 0 88200;
#X msg 267 215 gran_pos \$1;
#X obj 227 417 range 0 127 0 1;
#X msg 228 442 vol1 \$1;
#X obj 343 413 range 0 127 0 1;
#X msg 344 438 vol2 \$1;
#X obj 21 408 r a_low;
#X obj 33 433 r a_high;
#X obj 42 110 ctlout 19;
#X obj 133 100 nrpn_out 3;
#X obj 137 156 nrpn_in 3;
#X obj 267 168 nrpn_in 35;
#X obj 36 157 ctlin 19;
#X obj 227 392 ctlin 43;
#X obj 343 388 ctlin 51;
#X obj 290 253 r mute;
#X obj 289 296 line;
#X msg 290 275 0 150;
#X obj 319 327 ctlout 43;
#X obj 345 346 ctlout 51;
#X connect 0 0 1 0;
#X connect 0 1 2 0;
#X connect 1 0 3 0;
#X connect 1 0 5 0;
#X connect 2 0 3 0;
#X connect 2 0 5 0;
#X connect 5 0 4 0;
#X connect 6 0 13 0;
#X connect 7 0 12 0;
#X connect 7 1 8 0;
#X connect 8 0 23 0;
#X connect 9 0 10 0;
#X connect 9 0 11 0;
#X connect 10 0 4 0;
#X connect 12 0 23 0;
#X connect 13 0 7 0;
#X connect 13 1 14 0;
#X connect 14 0 24 0;
#X connect 15 0 16 0;
#X connect 16 0 4 0;
#X connect 17 0 18 0;
#X connect 18 0 4 0;
#X connect 19 0 20 0;
#X connect 20 0 4 0;
#X connect 21 0 4 0;
#X connect 22 0 4 0;
#X connect 25 0 9 0;
#X connect 26 0 15 0;
#X connect 27 0 0 0;
#X connect 28 0 17 0;
#X connect 29 0 19 0;
#X connect 30 0 32 0;
#X connect 31 0 18 0;
#X connect 31 0 20 0;
#X connect 31 0 33 0;
#X connect 31 0 34 0;
#X connect 32 0 31 0;
#X restore 491 174 pd ctl;
#X obj 548 143 adc~;
#X obj 547 197 slapscrotch~;
#N canvas 1218 236 488 585 ctl 0;
#X obj 40 181 select 0, f 9;
#X obj 48 204 0;
#X obj 89 206 1;
#X obj 57 233 tgl 15 0 empty empty empty 17 7 0 10 -262144 -1 -1 127
1;
#X obj 147 492 outlet;
#X msg 42 257 onoff \$1;
#X obj 43 15 inlet;
#X obj 45 59 select 1;
#X obj 96 83 0;
#X obj 143 181 range 0 500 0 2;
#X msg 144 254 speed \$1;
#X floatatom 164 208 5 0 0 0 - - -, f 5;
#X obj 45 81 127;
#X obj 46 36 route onoff speed;
#X obj 133 79 range 0 2 0 500;
#X obj 271 189 range 0 500 0 88200;
#X msg 271 214 gran_pos \$1;
#X obj 227 417 range 0 127 0 1;
#X msg 228 442 vol1 \$1;
#X obj 343 413 range 0 127 0 1;
#X msg 344 438 vol2 \$1;
#X obj 21 408 r a_low;
#X obj 33 433 r a_high;
#X obj 42 110 ctlout 20;
#X obj 134 100 nrpn_out 4;
#X obj 40 156 ctlin 20;
#X obj 141 155 nrpn_in 4;
#X obj 271 167 nrpn_in 36;
#X obj 227 392 ctlin 44;
#X obj 343 388 ctlin 52;
#X obj 302 258 r mute;
#X obj 301 301 line;
#X msg 302 280 0 150;
#X obj 331 332 ctlout 44;
#X obj 357 351 ctlout 52;
#X connect 0 0 1 0;
#X connect 0 1 2 0;
#X connect 1 0 3 0;
#X connect 1 0 5 0;
#X connect 2 0 3 0;
#X connect 2 0 5 0;
#X connect 5 0 4 0;
#X connect 6 0 13 0;
#X connect 7 0 12 0;
#X connect 7 1 8 0;
#X connect 8 0 23 0;
#X connect 9 0 10 0;
#X connect 9 0 11 0;
#X connect 10 0 4 0;
#X connect 12 0 23 0;
#X connect 13 0 7 0;
#X connect 13 1 14 0;
#X connect 14 0 24 0;
#X connect 15 0 16 0;
#X connect 16 0 4 0;
#X connect 17 0 18 0;
#X connect 18 0 4 0;
#X connect 19 0 20 0;
#X connect 20 0 4 0;
#X connect 21 0 4 0;
#X connect 22 0 4 0;
#X connect 25 0 0 0;
#X connect 26 0 9 0;
#X connect 27 0 15 0;
#X connect 28 0 17 0;
#X connect 29 0 19 0;
#X connect 30 0 32 0;
#X connect 31 0 33 0;
#X connect 31 0 34 0;
#X connect 31 0 18 0;
#X connect 31 0 20 0;
#X connect 32 0 31 0;
#X restore 622 174 pd ctl;
#X obj 677 142 adc~;
#X obj 676 196 slapscrotch~;
#N canvas 1215 233 488 585 ctl 0;
#X obj 34 188 select 0, f 9;
#X obj 42 211 0;
#X obj 83 213 1;
#X obj 51 240 tgl 15 0 empty empty empty 17 7 0 10 -262144 -1 -1 127
1;
#X obj 147 492 outlet;
#X msg 36 264 onoff \$1;
#X obj 43 15 inlet;
#X obj 45 59 select 1;
#X obj 96 83 0;
#X obj 137 188 range 0 500 0 2;
#X msg 138 261 speed \$1;
#X floatatom 158 215 5 0 0 0 - - -, f 5;
#X obj 45 81 127;
#X obj 46 36 route onoff speed;
#X obj 133 79 range 0 2 0 500;
#X obj 265 196 range 0 500 0 88200;
#X msg 265 221 gran_pos \$1;
#X obj 227 417 range 0 127 0 1;
#X msg 228 442 vol1 \$1;
#X obj 343 413 range 0 127 0 1;
#X msg 344 438 vol2 \$1;
#X obj 21 408 r a_low;
#X obj 33 433 r a_high;
#X obj 42 110 ctlout 21;
#X obj 134 100 nrpn_out 5;
#X obj 34 163 ctlin 21;
#X obj 135 162 nrpn_in 5;
#X obj 265 174 nrpn_in 37;
#X obj 227 392 ctlin 45;
#X obj 343 388 ctlin 53;
#X obj 290 263 r mute;
#X obj 289 306 line;
#X msg 290 285 0 150;
#X obj 319 337 ctlout 45;
#X obj 345 356 ctlout 53;
#X connect 0 0 1 0;
#X connect 0 1 2 0;
#X connect 1 0 3 0;
#X connect 1 0 5 0;
#X connect 2 0 3 0;
#X connect 2 0 5 0;
#X connect 5 0 4 0;
#X connect 6 0 13 0;
#X connect 7 0 12 0;
#X connect 7 1 8 0;
#X connect 8 0 23 0;
#X connect 9 0 10 0;
#X connect 9 0 11 0;
#X connect 10 0 4 0;
#X connect 12 0 23 0;
#X connect 13 0 7 0;
#X connect 13 1 14 0;
#X connect 14 0 24 0;
#X connect 15 0 16 0;
#X connect 16 0 4 0;
#X connect 17 0 18 0;
#X connect 18 0 4 0;
#X connect 19 0 20 0;
#X connect 20 0 4 0;
#X connect 21 0 4 0;
#X connect 22 0 4 0;
#X connect 25 0 0 0;
#X connect 26 0 9 0;
#X connect 27 0 15 0;
#X connect 28 0 17 0;
#X connect 29 0 19 0;
#X connect 30 0 32 0;
#X connect 31 0 18 0;
#X connect 31 0 20 0;
#X connect 31 0 33 0;
#X connect 31 0 34 0;
#X connect 32 0 31 0;
#X restore 751 173 pd ctl;
#X obj 806 141 adc~;
#X obj 805 195 slapscrotch~;
#N canvas 723 249 488 585 ctl 0;
#X obj 36 184 select 0, f 9;
#X obj 44 207 0;
#X obj 85 209 1;
#X obj 53 236 tgl 15 0 empty empty empty 17 7 0 10 -262144 -1 -1 127
1;
#X obj 147 492 outlet;
#X msg 38 260 onoff \$1;
#X obj 43 15 inlet;
#X obj 45 59 select 1;
#X obj 96 83 0;
#X obj 139 184 range 0 500 0 2;
#X msg 140 257 speed \$1;
#X floatatom 160 211 5 0 0 0 - - -, f 5;
#X obj 45 81 127;
#X obj 46 36 route onoff speed;
#X obj 133 79 range 0 2 0 500;
#X obj 267 192 range 0 500 0 88200;
#X msg 267 217 gran_pos \$1;
#X obj 227 417 range 0 127 0 1;
#X msg 228 442 vol1 \$1;
#X obj 343 413 range 0 127 0 1;
#X msg 344 438 vol2 \$1;
#X obj 21 408 r a_low;
#X obj 33 433 r a_high;
#X obj 42 110 ctlout 22;
#X obj 134 100 nrpn_out 6;
#X obj 36 159 ctlin 22;
#X obj 137 158 nrpn_in 6;
#X obj 267 170 nrpn_in 38;
#X obj 227 392 ctlin 46;
#X obj 343 388 ctlin 54;
#X obj 302 261 r mute;
#X obj 301 304 line;
#X msg 302 283 0 150;
#X obj 331 335 ctlout 46;
#X obj 357 354 ctlout 54;
#X connect 0 0 1 0;
#X connect 0 1 2 0;
#X connect 1 0 3 0;
#X connect 1 0 5 0;
#X connect 2 0 3 0;
#X connect 2 0 5 0;
#X connect 5 0 4 0;
#X connect 6 0 13 0;
#X connect 7 0 12 0;
#X connect 7 1 8 0;
#X connect 8 0 23 0;
#X connect 9 0 10 0;
#X connect 9 0 11 0;
#X connect 10 0 4 0;
#X connect 12 0 23 0;
#X connect 13 0 7 0;
#X connect 13 1 14 0;
#X connect 14 0 24 0;
#X connect 15 0 16 0;
#X connect 16 0 4 0;
#X connect 17 0 18 0;
#X connect 18 0 4 0;
#X connect 19 0 20 0;
#X connect 20 0 4 0;
#X connect 21 0 4 0;
#X connect 22 0 4 0;
#X connect 25 0 0 0;
#X connect 26 0 9 0;
#X connect 27 0 15 0;
#X connect 28 0 17 0;
#X connect 29 0 19 0;
#X connect 30 0 32 0;
#X connect 31 0 18 0;
#X connect 31 0 20 0;
#X connect 31 0 33 0;
#X connect 31 0 34 0;
#X connect 32 0 31 0;
#X restore 880 172 pd ctl;
#X obj 935 142 adc~;
#X obj 934 196 slapscrotch~;
#N canvas 1215 233 488 585 ctl 0;
#X obj 36 187 select 0, f 9;
#X obj 44 210 0;
#X obj 85 212 1;
#X obj 53 239 tgl 15 0 empty empty empty 17 7 0 10 -262144 -1 -1 127
1;
#X obj 147 492 outlet;
#X msg 38 263 onoff \$1;
#X obj 43 15 inlet;
#X obj 45 59 select 1;
#X obj 96 83 0;
#X obj 139 187 range 0 500 0 2;
#X msg 140 260 speed \$1;
#X floatatom 160 214 5 0 0 0 - - -, f 5;
#X obj 45 81 127;
#X obj 46 36 route onoff speed;
#X obj 133 79 range 0 2 0 500;
#X obj 267 195 range 0 500 0 88200;
#X msg 267 220 gran_pos \$1;
#X obj 227 417 range 0 127 0 1;
#X msg 228 442 vol1 \$1;
#X obj 343 413 range 0 127 0 1;
#X msg 344 438 vol2 \$1;
#X obj 21 408 r a_low;
#X obj 33 433 r a_high;
#X obj 42 110 ctlout 23;
#X obj 134 100 nrpn_out 7;
#X obj 36 162 ctlin 23;
#X obj 137 161 nrpn_in 7;
#X obj 267 173 nrpn_in 39;
#X obj 227 392 ctlin 47;
#X obj 343 388 ctlin 55;
#X obj 294 259 r mute;
#X obj 293 302 line;
#X msg 294 281 0 150;
#X obj 323 333 ctlout 47;
#X obj 349 352 ctlout 55;
#X connect 0 0 1 0;
#X connect 0 1 2 0;
#X connect 1 0 3 0;
#X connect 1 0 5 0;
#X connect 2 0 3 0;
#X connect 2 0 5 0;
#X connect 5 0 4 0;
#X connect 6 0 13 0;
#X connect 7 0 12 0;
#X connect 7 1 8 0;
#X connect 8 0 23 0;
#X connect 9 0 10 0;
#X connect 9 0 11 0;
#X connect 10 0 4 0;
#X connect 12 0 23 0;
#X connect 13 0 7 0;
#X connect 13 1 14 0;
#X connect 14 0 24 0;
#X connect 15 0 16 0;
#X connect 16 0 4 0;
#X connect 17 0 18 0;
#X connect 18 0 4 0;
#X connect 19 0 20 0;
#X connect 20 0 4 0;
#X connect 21 0 4 0;
#X connect 22 0 4 0;
#X connect 25 0 0 0;
#X connect 26 0 9 0;
#X connect 27 0 15 0;
#X connect 28 0 17 0;
#X connect 29 0 19 0;
#X connect 30 0 32 0;
#X connect 31 0 18 0;
#X connect 31 0 20 0;
#X connect 31 0 33 0;
#X connect 31 0 34 0;
#X connect 32 0 31 0;
#X restore 1009 173 pd ctl;
#X obj 68 42 select 127;
#X obj 69 65 s mute;
#X obj 68 18 ctlin 119;
#X connect 1 0 8 0;
#X connect 2 0 6 0;
#X connect 4 0 3 0;
#X connect 5 0 8 1;
#X connect 6 0 0 0;
#X connect 6 1 0 0;
#X connect 6 2 7 0;
#X connect 7 0 6 1;
#X connect 8 0 0 0;
#X connect 8 1 0 0;
#X connect 8 2 5 0;
#X connect 9 0 10 0;
#X connect 10 0 0 0;
#X connect 10 1 0 0;
#X connect 10 2 11 0;
#X connect 11 0 10 1;
#X connect 12 0 13 0;
#X connect 13 0 0 0;
#X connect 13 1 0 0;
#X connect 13 2 14 0;
#X connect 14 0 13 1;
#X connect 15 0 16 0;
#X connect 16 0 0 0;
#X connect 16 1 0 0;
#X connect 16 2 17 0;
#X connect 17 0 16 1;
#X connect 18 0 19 0;
#X connect 19 0 0 0;
#X connect 19 1 0 0;
#X connect 19 2 20 0;
#X connect 20 0 19 1;
#X connect 21 0 22 0;
#X connect 22 0 0 0;
#X connect 22 1 0 0;
#X connect 22 2 23 0;
#X connect 23 0 22 1;
#X connect 24 0 25 0;
#X connect 25 0 0 0;
#X connect 25 1 0 0;
#X connect 25 2 26 0;
#X connect 26 0 25 1;
#X connect 27 0 28 0;
#X connect 29 0 27 0;
