#N canvas 20 614 450 300 10;
#X obj 133 243 dac~;
#X obj 170 195 hsl 128 15 0 1.25 0 0 empty empty empty -2 -6 0 8 -262144
-1 -1 11528 1;
#X obj 131 199 *~;
#X floatatom 175 217 5 0 0 0 - - -;
#X floatatom 227 89 5 0 0 0 - - -;
#X obj 193 21 bng 25 250 50 0 empty empty empty 0 -6 0 8 -261689 -1
-1;
#X floatatom 237 30 5 0 0 0 - - -;
#X floatatom 282 30 5 0 0 0 - - -;
#X obj 186 169 0.8;
#X obj 186 146 loadbang;
#X obj 145 46 adc~;
#N canvas 0 0 449 365 tone 0;
#X obj 107 208 osc~;
#X obj 186 263 line~;
#X msg 174 137 bang;
#X floatatom 107 185 0 0 0 0 - - -;
#X obj 107 284 *~;
#X obj 175 212 pack 1 0;
#X obj 220 239 pack 0 0;
#X obj 205 185 del;
#X floatatom 245 49 0 0 0 0 - - -;
#X obj 107 162 mtof;
#X floatatom 110 48 0 0 0 0 - - -;
#X obj 107 233 cos~;
#X obj 107 257 hip~ 20;
#X text 88 11 test pitch;
#X text 171 118 trigger;
#X text 232 5 duration;
#X obj 103 27 inlet;
#X obj 228 25 inlet;
#X obj 102 310 outlet~;
#X obj 45 38 inlet;
#X obj 144 28 \$1;
#X obj 269 25 \$2;
#X connect 0 0 11 0;
#X connect 1 0 4 1;
#X connect 2 0 5 0;
#X connect 2 0 7 0;
#X connect 3 0 0 0;
#X connect 4 0 18 0;
#X connect 5 0 1 0;
#X connect 6 0 1 0;
#X connect 7 0 6 0;
#X connect 9 0 3 0;
#X connect 11 0 12 0;
#X connect 12 0 4 0;
#X connect 16 0 10 0;
#X connect 16 0 9 0;
#X connect 17 0 7 1;
#X connect 17 0 5 1;
#X connect 17 0 6 1;
#X connect 17 0 8 0;
#X connect 19 0 2 0;
#X connect 20 0 10 0;
#X connect 20 0 9 0;
#X connect 21 0 8 0;
#X connect 21 0 7 1;
#X connect 21 0 5 1;
#X connect 21 0 6 1;
#X restore 194 55 pd tone 20 15;
#X obj 326 65 / 127;
#X obj 326 84 * 50;
#X obj 144 115 piano~ 35;
#X obj 326 104 nbx 5 25 -1e+37 1e+37 0 0 empty empty empty 0 -6 0 10
-262131 -1 -1 42.126 256;
#X obj 326 45 ctlin 88;
#X connect 1 0 3 0;
#X connect 1 0 2 1;
#X connect 2 0 0 0;
#X connect 2 0 0 1;
#X connect 4 0 14 1;
#X connect 5 0 11 0;
#X connect 6 0 11 1;
#X connect 7 0 11 2;
#X connect 8 0 1 0;
#X connect 9 0 8 0;
#X connect 10 0 14 0;
#X connect 11 0 14 0;
#X connect 12 0 13 0;
#X connect 13 0 14 1;
#X connect 13 0 15 0;
#X connect 14 0 2 0;
#X connect 16 0 12 0;
