#N canvas 0 0 492 344 10;
#X obj 59 44 adc~;
#X obj 57 161 mout~;
#X floatatom 108 46 5 0 0 0 - - -;
#X obj 151 45 bng 15 250 50 0 empty empty empty 0 -6 0 8 -262144 -1
-1;
#X floatatom 181 49 5 0 0 0 - - -;
#X obj 224 48 bng 15 250 50 0 empty empty empty 0 -6 0 8 -262144 -1
-1;
#N canvas 484 108 547 462 bank2 0;
#X obj 32 12 inlet~;
#X obj 21 436 outlet~;
#X obj 93 11 inlet;
#X obj 206 15 inlet;
#X obj 151 139 * 1.1;
#X obj 250 144 * 1.2;
#X obj 347 138 * 1.3;
#X obj 55 291 * 1.4;
#X obj 136 287 * 1.5;
#X obj 221 287 * 1.6;
#X obj 317 285 * 1.7;
#X obj 235 349 * 1.8;
#X obj 347 346 * 1.9;
#X obj 22 415 /~ 10;
#N canvas 661 545 450 300 sndp 0;
#X obj 20 17 inlet~;
#N canvas 118 439 309 153 randr 0;
#X obj 13 92 + 0.1;
#X obj 12 73 / 100;
#X obj 12 53 random 86;
#X msg 11 29 bang;
#X obj 13 113 outlet;
#X obj 11 8 inlet;
#X connect 0 0 4 0;
#X connect 1 0 0 0;
#X connect 2 0 1 0;
#X connect 3 0 2 0;
#X connect 5 0 3 0;
#X restore 108 66 pd randr;
#X obj 76 17 inlet;
#X obj 124 17 inlet;
#N canvas 118 439 320 220 randp 0;
#X obj 13 189 outlet;
#X obj 11 8 inlet;
#X obj 101 65 random 2;
#X obj 102 85 moses 1;
#X obj 146 154 / 100;
#X msg 40 39 bang;
#X obj 146 134 random 100;
#X msg 159 107 bang;
#X msg 10 102 bang;
#X obj 11 122 random 10;
#X connect 1 0 5 0;
#X connect 2 0 3 0;
#X connect 3 0 8 0;
#X connect 3 1 7 0;
#X connect 4 0 0 0;
#X connect 5 0 2 0;
#X connect 6 0 4 0;
#X connect 7 0 6 0;
#X connect 8 0 9 0;
#X connect 9 0 0 0;
#X restore 195 69 pd randp;
#X obj 25 171 pitcher~ 0 20 0;
#X obj 22 116 dline~ 25 0.5;
#X obj 26 235 outlet~;
#X connect 0 0 6 0;
#X connect 1 0 6 2;
#X connect 2 0 6 1;
#X connect 3 0 1 0;
#X connect 3 0 4 0;
#X connect 4 0 5 1;
#X connect 5 0 7 0;
#X connect 6 0 5 0;
#X restore 328 163 pd sndp;
#N canvas 661 545 450 300 sndp 0;
#X obj 20 17 inlet~;
#N canvas 118 439 309 153 randr 0;
#X obj 13 92 + 0.1;
#X obj 12 73 / 100;
#X obj 12 53 random 86;
#X msg 11 29 bang;
#X obj 13 113 outlet;
#X obj 11 8 inlet;
#X connect 0 0 4 0;
#X connect 1 0 0 0;
#X connect 2 0 1 0;
#X connect 3 0 2 0;
#X connect 5 0 3 0;
#X restore 108 66 pd randr;
#X obj 76 17 inlet;
#X obj 124 17 inlet;
#N canvas 118 439 320 220 randp 0;
#X obj 13 189 outlet;
#X obj 11 8 inlet;
#X obj 101 65 random 2;
#X obj 102 85 moses 1;
#X obj 146 154 / 100;
#X msg 40 39 bang;
#X obj 146 134 random 100;
#X msg 159 107 bang;
#X msg 10 102 bang;
#X obj 11 122 random 10;
#X connect 1 0 5 0;
#X connect 2 0 3 0;
#X connect 3 0 8 0;
#X connect 3 1 7 0;
#X connect 4 0 0 0;
#X connect 5 0 2 0;
#X connect 6 0 4 0;
#X connect 7 0 6 0;
#X connect 8 0 9 0;
#X connect 9 0 0 0;
#X restore 195 69 pd randp;
#X obj 25 171 pitcher~ 0 20 0;
#X obj 22 116 dline~ 25 0.5;
#X obj 26 235 outlet~;
#X connect 0 0 6 0;
#X connect 1 0 6 2;
#X connect 2 0 6 1;
#X connect 3 0 1 0;
#X connect 3 0 4 0;
#X connect 4 0 5 1;
#X connect 5 0 7 0;
#X connect 6 0 5 0;
#X restore 239 166 pd sndp;
#N canvas 661 545 450 300 sndp 0;
#X obj 20 17 inlet~;
#N canvas 118 439 309 153 randr 0;
#X obj 13 92 + 0.1;
#X obj 12 73 / 100;
#X obj 12 53 random 86;
#X msg 11 29 bang;
#X obj 13 113 outlet;
#X obj 11 8 inlet;
#X connect 0 0 4 0;
#X connect 1 0 0 0;
#X connect 2 0 1 0;
#X connect 3 0 2 0;
#X connect 5 0 3 0;
#X restore 108 66 pd randr;
#X obj 76 17 inlet;
#X obj 124 17 inlet;
#N canvas 118 439 320 220 randp 0;
#X obj 13 189 outlet;
#X obj 11 8 inlet;
#X obj 101 65 random 2;
#X obj 102 85 moses 1;
#X obj 146 154 / 100;
#X msg 40 39 bang;
#X obj 146 134 random 100;
#X msg 159 107 bang;
#X msg 10 102 bang;
#X obj 11 122 random 10;
#X connect 1 0 5 0;
#X connect 2 0 3 0;
#X connect 3 0 8 0;
#X connect 3 1 7 0;
#X connect 4 0 0 0;
#X connect 5 0 2 0;
#X connect 6 0 4 0;
#X connect 7 0 6 0;
#X connect 8 0 9 0;
#X connect 9 0 0 0;
#X restore 195 69 pd randp;
#X obj 25 171 pitcher~ 0 20 0;
#X obj 22 116 dline~ 25 0.5;
#X obj 26 235 outlet~;
#X connect 0 0 6 0;
#X connect 1 0 6 2;
#X connect 2 0 6 1;
#X connect 3 0 1 0;
#X connect 3 0 4 0;
#X connect 4 0 5 1;
#X connect 5 0 7 0;
#X connect 6 0 5 0;
#X restore 124 160 pd sndp;
#N canvas 661 545 450 300 sndp 0;
#X obj 20 17 inlet~;
#N canvas 118 439 309 153 randr 0;
#X obj 13 92 + 0.1;
#X obj 12 73 / 100;
#X obj 12 53 random 86;
#X msg 11 29 bang;
#X obj 13 113 outlet;
#X obj 11 8 inlet;
#X connect 0 0 4 0;
#X connect 1 0 0 0;
#X connect 2 0 1 0;
#X connect 3 0 2 0;
#X connect 5 0 3 0;
#X restore 108 66 pd randr;
#X obj 76 17 inlet;
#X obj 124 17 inlet;
#N canvas 118 439 320 220 randp 0;
#X obj 13 189 outlet;
#X obj 11 8 inlet;
#X obj 101 65 random 2;
#X obj 102 85 moses 1;
#X obj 146 154 / 100;
#X msg 40 39 bang;
#X obj 146 134 random 100;
#X msg 159 107 bang;
#X msg 10 102 bang;
#X obj 11 122 random 10;
#X connect 1 0 5 0;
#X connect 2 0 3 0;
#X connect 3 0 8 0;
#X connect 3 1 7 0;
#X connect 4 0 0 0;
#X connect 5 0 2 0;
#X connect 6 0 4 0;
#X connect 7 0 6 0;
#X connect 8 0 9 0;
#X connect 9 0 0 0;
#X restore 195 69 pd randp;
#X obj 25 171 pitcher~ 0 20 0;
#X obj 22 116 dline~ 25 0.5;
#X obj 26 235 outlet~;
#X connect 0 0 6 0;
#X connect 1 0 6 2;
#X connect 2 0 6 1;
#X connect 3 0 1 0;
#X connect 3 0 4 0;
#X connect 4 0 5 1;
#X connect 5 0 7 0;
#X connect 6 0 5 0;
#X restore 40 316 pd sndp;
#N canvas 661 545 450 300 sndp 0;
#X obj 20 17 inlet~;
#N canvas 118 439 309 153 randr 0;
#X obj 13 92 + 0.1;
#X obj 12 73 / 100;
#X obj 12 53 random 86;
#X msg 11 29 bang;
#X obj 13 113 outlet;
#X obj 11 8 inlet;
#X connect 0 0 4 0;
#X connect 1 0 0 0;
#X connect 2 0 1 0;
#X connect 3 0 2 0;
#X connect 5 0 3 0;
#X restore 108 66 pd randr;
#X obj 76 17 inlet;
#X obj 124 17 inlet;
#N canvas 118 439 320 220 randp 0;
#X obj 13 189 outlet;
#X obj 11 8 inlet;
#X obj 101 65 random 2;
#X obj 102 85 moses 1;
#X obj 146 154 / 100;
#X msg 40 39 bang;
#X obj 146 134 random 100;
#X msg 159 107 bang;
#X msg 10 102 bang;
#X obj 11 122 random 10;
#X connect 1 0 5 0;
#X connect 2 0 3 0;
#X connect 3 0 8 0;
#X connect 3 1 7 0;
#X connect 4 0 0 0;
#X connect 5 0 2 0;
#X connect 6 0 4 0;
#X connect 7 0 6 0;
#X connect 8 0 9 0;
#X connect 9 0 0 0;
#X restore 195 69 pd randp;
#X obj 25 171 pitcher~ 0 20 0;
#X obj 22 116 dline~ 25 0.5;
#X obj 26 235 outlet~;
#X connect 0 0 6 0;
#X connect 1 0 6 2;
#X connect 2 0 6 1;
#X connect 3 0 1 0;
#X connect 3 0 4 0;
#X connect 4 0 5 1;
#X connect 5 0 7 0;
#X connect 6 0 5 0;
#X restore 123 314 pd sndp;
#N canvas 661 545 450 300 sndp 0;
#X obj 20 17 inlet~;
#N canvas 118 439 309 153 randr 0;
#X obj 13 92 + 0.1;
#X obj 12 73 / 100;
#X obj 12 53 random 86;
#X msg 11 29 bang;
#X obj 13 113 outlet;
#X obj 11 8 inlet;
#X connect 0 0 4 0;
#X connect 1 0 0 0;
#X connect 2 0 1 0;
#X connect 3 0 2 0;
#X connect 5 0 3 0;
#X restore 108 66 pd randr;
#X obj 76 17 inlet;
#X obj 124 17 inlet;
#N canvas 118 439 320 220 randp 0;
#X obj 13 189 outlet;
#X obj 11 8 inlet;
#X obj 101 65 random 2;
#X obj 102 85 moses 1;
#X obj 146 154 / 100;
#X msg 40 39 bang;
#X obj 146 134 random 100;
#X msg 159 107 bang;
#X msg 10 102 bang;
#X obj 11 122 random 10;
#X connect 1 0 5 0;
#X connect 2 0 3 0;
#X connect 3 0 8 0;
#X connect 3 1 7 0;
#X connect 4 0 0 0;
#X connect 5 0 2 0;
#X connect 6 0 4 0;
#X connect 7 0 6 0;
#X connect 8 0 9 0;
#X connect 9 0 0 0;
#X restore 195 69 pd randp;
#X obj 25 171 pitcher~ 0 20 0;
#X obj 22 116 dline~ 25 0.5;
#X obj 26 235 outlet~;
#X connect 0 0 6 0;
#X connect 1 0 6 2;
#X connect 2 0 6 1;
#X connect 3 0 1 0;
#X connect 3 0 4 0;
#X connect 4 0 5 1;
#X connect 5 0 7 0;
#X connect 6 0 5 0;
#X restore 203 311 pd sndp;
#N canvas 661 545 450 300 sndp 0;
#X obj 20 17 inlet~;
#N canvas 118 439 309 153 randr 0;
#X obj 13 92 + 0.1;
#X obj 12 73 / 100;
#X obj 12 53 random 86;
#X msg 11 29 bang;
#X obj 13 113 outlet;
#X obj 11 8 inlet;
#X connect 0 0 4 0;
#X connect 1 0 0 0;
#X connect 2 0 1 0;
#X connect 3 0 2 0;
#X connect 5 0 3 0;
#X restore 108 66 pd randr;
#X obj 76 17 inlet;
#X obj 124 17 inlet;
#N canvas 118 439 320 220 randp 0;
#X obj 13 189 outlet;
#X obj 11 8 inlet;
#X obj 101 65 random 2;
#X obj 102 85 moses 1;
#X obj 146 154 / 100;
#X msg 40 39 bang;
#X obj 146 134 random 100;
#X msg 159 107 bang;
#X msg 10 102 bang;
#X obj 11 122 random 10;
#X connect 1 0 5 0;
#X connect 2 0 3 0;
#X connect 3 0 8 0;
#X connect 3 1 7 0;
#X connect 4 0 0 0;
#X connect 5 0 2 0;
#X connect 6 0 4 0;
#X connect 7 0 6 0;
#X connect 8 0 9 0;
#X connect 9 0 0 0;
#X restore 195 69 pd randp;
#X obj 25 171 pitcher~ 0 20 0;
#X obj 22 116 dline~ 25 0.5;
#X obj 26 235 outlet~;
#X connect 0 0 6 0;
#X connect 1 0 6 2;
#X connect 2 0 6 1;
#X connect 3 0 1 0;
#X connect 3 0 4 0;
#X connect 4 0 5 1;
#X connect 5 0 7 0;
#X connect 6 0 5 0;
#X restore 298 309 pd sndp;
#N canvas 661 545 450 300 sndp 0;
#X obj 20 17 inlet~;
#N canvas 118 439 309 153 randr 0;
#X obj 13 92 + 0.1;
#X obj 12 73 / 100;
#X obj 12 53 random 86;
#X msg 11 29 bang;
#X obj 13 113 outlet;
#X obj 11 8 inlet;
#X connect 0 0 4 0;
#X connect 1 0 0 0;
#X connect 2 0 1 0;
#X connect 3 0 2 0;
#X connect 5 0 3 0;
#X restore 108 66 pd randr;
#X obj 76 17 inlet;
#X obj 124 17 inlet;
#N canvas 118 439 320 220 randp 0;
#X obj 13 189 outlet;
#X obj 11 8 inlet;
#X obj 101 65 random 2;
#X obj 102 85 moses 1;
#X obj 146 154 / 100;
#X msg 40 39 bang;
#X obj 146 134 random 100;
#X msg 159 107 bang;
#X msg 10 102 bang;
#X obj 11 122 random 10;
#X connect 1 0 5 0;
#X connect 2 0 3 0;
#X connect 3 0 8 0;
#X connect 3 1 7 0;
#X connect 4 0 0 0;
#X connect 5 0 2 0;
#X connect 6 0 4 0;
#X connect 7 0 6 0;
#X connect 8 0 9 0;
#X connect 9 0 0 0;
#X restore 195 69 pd randp;
#X obj 25 171 pitcher~ 0 20 0;
#X obj 22 116 dline~ 25 0.5;
#X obj 26 235 outlet~;
#X connect 0 0 6 0;
#X connect 1 0 6 2;
#X connect 2 0 6 1;
#X connect 3 0 1 0;
#X connect 3 0 4 0;
#X connect 4 0 5 1;
#X connect 5 0 7 0;
#X connect 6 0 5 0;
#X restore 223 375 pd sndp;
#N canvas 661 545 450 300 sndp 0;
#X obj 20 17 inlet~;
#N canvas 118 439 309 153 randr 0;
#X obj 13 92 + 0.1;
#X obj 12 73 / 100;
#X obj 12 53 random 86;
#X msg 11 29 bang;
#X obj 13 113 outlet;
#X obj 11 8 inlet;
#X connect 0 0 4 0;
#X connect 1 0 0 0;
#X connect 2 0 1 0;
#X connect 3 0 2 0;
#X connect 5 0 3 0;
#X restore 108 66 pd randr;
#X obj 76 17 inlet;
#X obj 124 17 inlet;
#N canvas 118 439 320 220 randp 0;
#X obj 13 189 outlet;
#X obj 11 8 inlet;
#X obj 101 65 random 2;
#X obj 102 85 moses 1;
#X obj 146 154 / 100;
#X msg 40 39 bang;
#X obj 146 134 random 100;
#X msg 159 107 bang;
#X msg 10 102 bang;
#X obj 11 122 random 10;
#X connect 1 0 5 0;
#X connect 2 0 3 0;
#X connect 3 0 8 0;
#X connect 3 1 7 0;
#X connect 4 0 0 0;
#X connect 5 0 2 0;
#X connect 6 0 4 0;
#X connect 7 0 6 0;
#X connect 8 0 9 0;
#X connect 9 0 0 0;
#X restore 195 69 pd randp;
#X obj 25 171 pitcher~ 0 20 0;
#X obj 22 116 dline~ 25 0.5;
#X obj 26 235 outlet~;
#X connect 0 0 6 0;
#X connect 1 0 6 2;
#X connect 2 0 6 1;
#X connect 3 0 1 0;
#X connect 3 0 4 0;
#X connect 4 0 5 1;
#X connect 5 0 7 0;
#X connect 6 0 5 0;
#X restore 322 371 pd sndp;
#N canvas 661 545 450 300 sndp 0;
#X obj 20 17 inlet~;
#N canvas 118 439 309 153 randr 0;
#X obj 13 92 + 0.1;
#X obj 12 73 / 100;
#X obj 12 53 random 86;
#X msg 11 29 bang;
#X obj 13 113 outlet;
#X obj 11 8 inlet;
#X connect 0 0 4 0;
#X connect 1 0 0 0;
#X connect 2 0 1 0;
#X connect 3 0 2 0;
#X connect 5 0 3 0;
#X restore 108 66 pd randr;
#X obj 76 17 inlet;
#X obj 124 17 inlet;
#N canvas 118 439 320 220 randp 0;
#X obj 13 189 outlet;
#X obj 11 8 inlet;
#X obj 101 65 random 2;
#X obj 102 85 moses 1;
#X obj 146 154 / 100;
#X msg 40 39 bang;
#X obj 146 134 random 100;
#X msg 159 107 bang;
#X msg 10 102 bang;
#X obj 11 122 random 10;
#X connect 1 0 5 0;
#X connect 2 0 3 0;
#X connect 3 0 8 0;
#X connect 3 1 7 0;
#X connect 4 0 0 0;
#X connect 5 0 2 0;
#X connect 6 0 4 0;
#X connect 7 0 6 0;
#X connect 8 0 9 0;
#X connect 9 0 0 0;
#X restore 195 69 pd randp;
#X obj 25 171 pitcher~ 0 20 0;
#X obj 22 116 dline~ 25 0.5;
#X obj 26 235 outlet~;
#X connect 0 0 6 0;
#X connect 1 0 6 2;
#X connect 2 0 6 1;
#X connect 3 0 1 0;
#X connect 3 0 4 0;
#X connect 4 0 5 1;
#X connect 5 0 7 0;
#X connect 6 0 5 0;
#X restore 50 158 pd sndp;
#X connect 0 0 14 0;
#X connect 0 0 16 0;
#X connect 0 0 15 0;
#X connect 0 0 17 0;
#X connect 0 0 18 0;
#X connect 0 0 19 0;
#X connect 0 0 20 0;
#X connect 0 0 21 0;
#X connect 0 0 22 0;
#X connect 0 0 23 0;
#X connect 2 0 4 0;
#X connect 2 0 5 0;
#X connect 2 0 6 0;
#X connect 2 0 7 0;
#X connect 2 0 8 0;
#X connect 2 0 11 0;
#X connect 2 0 12 0;
#X connect 2 0 9 0;
#X connect 2 0 10 0;
#X connect 2 0 23 1;
#X connect 3 0 14 2;
#X connect 3 0 15 2;
#X connect 3 0 16 2;
#X connect 3 0 23 2;
#X connect 3 0 17 2;
#X connect 3 0 18 2;
#X connect 3 0 19 2;
#X connect 3 0 20 2;
#X connect 3 0 22 2;
#X connect 3 0 21 2;
#X connect 4 0 16 1;
#X connect 5 0 15 1;
#X connect 6 0 14 1;
#X connect 7 0 17 1;
#X connect 8 0 18 1;
#X connect 9 0 19 1;
#X connect 10 0 20 1;
#X connect 11 0 21 1;
#X connect 12 0 22 1;
#X connect 13 0 1 0;
#X connect 14 0 13 0;
#X connect 15 0 13 0;
#X connect 16 0 13 0;
#X connect 17 0 13 0;
#X connect 18 0 13 0;
#X connect 19 0 13 0;
#X connect 20 0 13 0;
#X connect 21 0 13 0;
#X connect 22 0 13 0;
#X connect 23 0 13 0;
#X restore 145 100 pd bank2;
#N canvas 484 108 547 462 bank1 0;
#X obj 32 12 inlet~;
#X obj 21 436 outlet~;
#X obj 93 11 inlet;
#X obj 206 15 inlet;
#X obj 151 139 * 1.1;
#X obj 250 144 * 1.2;
#X obj 347 138 * 1.3;
#X obj 55 291 * 1.4;
#X obj 136 287 * 1.5;
#X obj 221 287 * 1.6;
#X obj 317 285 * 1.7;
#X obj 235 349 * 1.8;
#X obj 347 346 * 1.9;
#X obj 22 415 /~ 10;
#N canvas 661 545 450 300 sndp 0;
#X obj 20 17 inlet~;
#N canvas 118 439 309 153 randr 0;
#X obj 13 92 + 0.1;
#X obj 12 73 / 100;
#X obj 12 53 random 86;
#X msg 11 29 bang;
#X obj 13 113 outlet;
#X obj 11 8 inlet;
#X connect 0 0 4 0;
#X connect 1 0 0 0;
#X connect 2 0 1 0;
#X connect 3 0 2 0;
#X connect 5 0 3 0;
#X restore 108 66 pd randr;
#X obj 76 17 inlet;
#X obj 124 17 inlet;
#N canvas 118 439 320 220 randp 0;
#X obj 13 189 outlet;
#X obj 11 8 inlet;
#X obj 101 65 random 2;
#X obj 102 85 moses 1;
#X obj 146 154 / 100;
#X msg 40 39 bang;
#X obj 146 134 random 100;
#X msg 159 107 bang;
#X msg 10 102 bang;
#X obj 11 122 random 10;
#X connect 1 0 5 0;
#X connect 2 0 3 0;
#X connect 3 0 8 0;
#X connect 3 1 7 0;
#X connect 4 0 0 0;
#X connect 5 0 2 0;
#X connect 6 0 4 0;
#X connect 7 0 6 0;
#X connect 8 0 9 0;
#X connect 9 0 0 0;
#X restore 195 69 pd randp;
#X obj 25 171 pitcher~ 0 20 0;
#X obj 22 116 dline~ 25 0.5;
#X obj 26 235 outlet~;
#X connect 0 0 6 0;
#X connect 1 0 6 2;
#X connect 2 0 6 1;
#X connect 3 0 1 0;
#X connect 3 0 4 0;
#X connect 4 0 5 1;
#X connect 5 0 7 0;
#X connect 6 0 5 0;
#X restore 328 163 pd sndp;
#N canvas 661 545 450 300 sndp 0;
#X obj 20 17 inlet~;
#N canvas 118 439 309 153 randr 0;
#X obj 13 92 + 0.1;
#X obj 12 73 / 100;
#X obj 12 53 random 86;
#X msg 11 29 bang;
#X obj 13 113 outlet;
#X obj 11 8 inlet;
#X connect 0 0 4 0;
#X connect 1 0 0 0;
#X connect 2 0 1 0;
#X connect 3 0 2 0;
#X connect 5 0 3 0;
#X restore 108 66 pd randr;
#X obj 76 17 inlet;
#X obj 124 17 inlet;
#N canvas 118 439 320 220 randp 0;
#X obj 13 189 outlet;
#X obj 11 8 inlet;
#X obj 101 65 random 2;
#X obj 102 85 moses 1;
#X obj 146 154 / 100;
#X msg 40 39 bang;
#X obj 146 134 random 100;
#X msg 159 107 bang;
#X msg 10 102 bang;
#X obj 11 122 random 10;
#X connect 1 0 5 0;
#X connect 2 0 3 0;
#X connect 3 0 8 0;
#X connect 3 1 7 0;
#X connect 4 0 0 0;
#X connect 5 0 2 0;
#X connect 6 0 4 0;
#X connect 7 0 6 0;
#X connect 8 0 9 0;
#X connect 9 0 0 0;
#X restore 195 69 pd randp;
#X obj 25 171 pitcher~ 0 20 0;
#X obj 22 116 dline~ 25 0.5;
#X obj 26 235 outlet~;
#X connect 0 0 6 0;
#X connect 1 0 6 2;
#X connect 2 0 6 1;
#X connect 3 0 1 0;
#X connect 3 0 4 0;
#X connect 4 0 5 1;
#X connect 5 0 7 0;
#X connect 6 0 5 0;
#X restore 239 166 pd sndp;
#N canvas 661 545 450 300 sndp 0;
#X obj 20 17 inlet~;
#N canvas 118 439 309 153 randr 0;
#X obj 13 92 + 0.1;
#X obj 12 73 / 100;
#X obj 12 53 random 86;
#X msg 11 29 bang;
#X obj 13 113 outlet;
#X obj 11 8 inlet;
#X connect 0 0 4 0;
#X connect 1 0 0 0;
#X connect 2 0 1 0;
#X connect 3 0 2 0;
#X connect 5 0 3 0;
#X restore 108 66 pd randr;
#X obj 76 17 inlet;
#X obj 124 17 inlet;
#N canvas 118 439 320 220 randp 0;
#X obj 13 189 outlet;
#X obj 11 8 inlet;
#X obj 101 65 random 2;
#X obj 102 85 moses 1;
#X obj 146 154 / 100;
#X msg 40 39 bang;
#X obj 146 134 random 100;
#X msg 159 107 bang;
#X msg 10 102 bang;
#X obj 11 122 random 10;
#X connect 1 0 5 0;
#X connect 2 0 3 0;
#X connect 3 0 8 0;
#X connect 3 1 7 0;
#X connect 4 0 0 0;
#X connect 5 0 2 0;
#X connect 6 0 4 0;
#X connect 7 0 6 0;
#X connect 8 0 9 0;
#X connect 9 0 0 0;
#X restore 195 69 pd randp;
#X obj 25 171 pitcher~ 0 20 0;
#X obj 22 116 dline~ 25 0.5;
#X obj 26 235 outlet~;
#X connect 0 0 6 0;
#X connect 1 0 6 2;
#X connect 2 0 6 1;
#X connect 3 0 1 0;
#X connect 3 0 4 0;
#X connect 4 0 5 1;
#X connect 5 0 7 0;
#X connect 6 0 5 0;
#X restore 124 160 pd sndp;
#N canvas 661 545 450 300 sndp 0;
#X obj 20 17 inlet~;
#N canvas 118 439 309 153 randr 0;
#X obj 13 92 + 0.1;
#X obj 12 73 / 100;
#X obj 12 53 random 86;
#X msg 11 29 bang;
#X obj 13 113 outlet;
#X obj 11 8 inlet;
#X connect 0 0 4 0;
#X connect 1 0 0 0;
#X connect 2 0 1 0;
#X connect 3 0 2 0;
#X connect 5 0 3 0;
#X restore 108 66 pd randr;
#X obj 76 17 inlet;
#X obj 124 17 inlet;
#N canvas 118 439 320 220 randp 0;
#X obj 13 189 outlet;
#X obj 11 8 inlet;
#X obj 101 65 random 2;
#X obj 102 85 moses 1;
#X obj 146 154 / 100;
#X msg 40 39 bang;
#X obj 146 134 random 100;
#X msg 159 107 bang;
#X msg 10 102 bang;
#X obj 11 122 random 10;
#X connect 1 0 5 0;
#X connect 2 0 3 0;
#X connect 3 0 8 0;
#X connect 3 1 7 0;
#X connect 4 0 0 0;
#X connect 5 0 2 0;
#X connect 6 0 4 0;
#X connect 7 0 6 0;
#X connect 8 0 9 0;
#X connect 9 0 0 0;
#X restore 195 69 pd randp;
#X obj 25 171 pitcher~ 0 20 0;
#X obj 22 116 dline~ 25 0.5;
#X obj 26 235 outlet~;
#X connect 0 0 6 0;
#X connect 1 0 6 2;
#X connect 2 0 6 1;
#X connect 3 0 1 0;
#X connect 3 0 4 0;
#X connect 4 0 5 1;
#X connect 5 0 7 0;
#X connect 6 0 5 0;
#X restore 40 316 pd sndp;
#N canvas 661 545 450 300 sndp 0;
#X obj 20 17 inlet~;
#N canvas 118 439 309 153 randr 0;
#X obj 13 92 + 0.1;
#X obj 12 73 / 100;
#X obj 12 53 random 86;
#X msg 11 29 bang;
#X obj 13 113 outlet;
#X obj 11 8 inlet;
#X connect 0 0 4 0;
#X connect 1 0 0 0;
#X connect 2 0 1 0;
#X connect 3 0 2 0;
#X connect 5 0 3 0;
#X restore 108 66 pd randr;
#X obj 76 17 inlet;
#X obj 124 17 inlet;
#N canvas 118 439 320 220 randp 0;
#X obj 13 189 outlet;
#X obj 11 8 inlet;
#X obj 101 65 random 2;
#X obj 102 85 moses 1;
#X obj 146 154 / 100;
#X msg 40 39 bang;
#X obj 146 134 random 100;
#X msg 159 107 bang;
#X msg 10 102 bang;
#X obj 11 122 random 10;
#X connect 1 0 5 0;
#X connect 2 0 3 0;
#X connect 3 0 8 0;
#X connect 3 1 7 0;
#X connect 4 0 0 0;
#X connect 5 0 2 0;
#X connect 6 0 4 0;
#X connect 7 0 6 0;
#X connect 8 0 9 0;
#X connect 9 0 0 0;
#X restore 195 69 pd randp;
#X obj 25 171 pitcher~ 0 20 0;
#X obj 22 116 dline~ 25 0.5;
#X obj 26 235 outlet~;
#X connect 0 0 6 0;
#X connect 1 0 6 2;
#X connect 2 0 6 1;
#X connect 3 0 1 0;
#X connect 3 0 4 0;
#X connect 4 0 5 1;
#X connect 5 0 7 0;
#X connect 6 0 5 0;
#X restore 123 314 pd sndp;
#N canvas 661 545 450 300 sndp 0;
#X obj 20 17 inlet~;
#N canvas 118 439 309 153 randr 0;
#X obj 13 92 + 0.1;
#X obj 12 73 / 100;
#X obj 12 53 random 86;
#X msg 11 29 bang;
#X obj 13 113 outlet;
#X obj 11 8 inlet;
#X connect 0 0 4 0;
#X connect 1 0 0 0;
#X connect 2 0 1 0;
#X connect 3 0 2 0;
#X connect 5 0 3 0;
#X restore 108 66 pd randr;
#X obj 76 17 inlet;
#X obj 124 17 inlet;
#N canvas 118 439 320 220 randp 0;
#X obj 13 189 outlet;
#X obj 11 8 inlet;
#X obj 101 65 random 2;
#X obj 102 85 moses 1;
#X obj 146 154 / 100;
#X msg 40 39 bang;
#X obj 146 134 random 100;
#X msg 159 107 bang;
#X msg 10 102 bang;
#X obj 11 122 random 10;
#X connect 1 0 5 0;
#X connect 2 0 3 0;
#X connect 3 0 8 0;
#X connect 3 1 7 0;
#X connect 4 0 0 0;
#X connect 5 0 2 0;
#X connect 6 0 4 0;
#X connect 7 0 6 0;
#X connect 8 0 9 0;
#X connect 9 0 0 0;
#X restore 195 69 pd randp;
#X obj 25 171 pitcher~ 0 20 0;
#X obj 22 116 dline~ 25 0.5;
#X obj 26 235 outlet~;
#X connect 0 0 6 0;
#X connect 1 0 6 2;
#X connect 2 0 6 1;
#X connect 3 0 1 0;
#X connect 3 0 4 0;
#X connect 4 0 5 1;
#X connect 5 0 7 0;
#X connect 6 0 5 0;
#X restore 203 311 pd sndp;
#N canvas 661 545 450 300 sndp 0;
#X obj 20 17 inlet~;
#N canvas 118 439 309 153 randr 0;
#X obj 13 92 + 0.1;
#X obj 12 73 / 100;
#X obj 12 53 random 86;
#X msg 11 29 bang;
#X obj 13 113 outlet;
#X obj 11 8 inlet;
#X connect 0 0 4 0;
#X connect 1 0 0 0;
#X connect 2 0 1 0;
#X connect 3 0 2 0;
#X connect 5 0 3 0;
#X restore 108 66 pd randr;
#X obj 76 17 inlet;
#X obj 124 17 inlet;
#N canvas 118 439 320 220 randp 0;
#X obj 13 189 outlet;
#X obj 11 8 inlet;
#X obj 101 65 random 2;
#X obj 102 85 moses 1;
#X obj 146 154 / 100;
#X msg 40 39 bang;
#X obj 146 134 random 100;
#X msg 159 107 bang;
#X msg 10 102 bang;
#X obj 11 122 random 10;
#X connect 1 0 5 0;
#X connect 2 0 3 0;
#X connect 3 0 8 0;
#X connect 3 1 7 0;
#X connect 4 0 0 0;
#X connect 5 0 2 0;
#X connect 6 0 4 0;
#X connect 7 0 6 0;
#X connect 8 0 9 0;
#X connect 9 0 0 0;
#X restore 195 69 pd randp;
#X obj 25 171 pitcher~ 0 20 0;
#X obj 22 116 dline~ 25 0.5;
#X obj 26 235 outlet~;
#X connect 0 0 6 0;
#X connect 1 0 6 2;
#X connect 2 0 6 1;
#X connect 3 0 1 0;
#X connect 3 0 4 0;
#X connect 4 0 5 1;
#X connect 5 0 7 0;
#X connect 6 0 5 0;
#X restore 298 309 pd sndp;
#N canvas 661 545 450 300 sndp 0;
#X obj 20 17 inlet~;
#N canvas 118 439 309 153 randr 0;
#X obj 13 92 + 0.1;
#X obj 12 73 / 100;
#X obj 12 53 random 86;
#X msg 11 29 bang;
#X obj 13 113 outlet;
#X obj 11 8 inlet;
#X connect 0 0 4 0;
#X connect 1 0 0 0;
#X connect 2 0 1 0;
#X connect 3 0 2 0;
#X connect 5 0 3 0;
#X restore 108 66 pd randr;
#X obj 76 17 inlet;
#X obj 124 17 inlet;
#N canvas 118 439 320 220 randp 0;
#X obj 13 189 outlet;
#X obj 11 8 inlet;
#X obj 101 65 random 2;
#X obj 102 85 moses 1;
#X obj 146 154 / 100;
#X msg 40 39 bang;
#X obj 146 134 random 100;
#X msg 159 107 bang;
#X msg 10 102 bang;
#X obj 11 122 random 10;
#X connect 1 0 5 0;
#X connect 2 0 3 0;
#X connect 3 0 8 0;
#X connect 3 1 7 0;
#X connect 4 0 0 0;
#X connect 5 0 2 0;
#X connect 6 0 4 0;
#X connect 7 0 6 0;
#X connect 8 0 9 0;
#X connect 9 0 0 0;
#X restore 195 69 pd randp;
#X obj 25 171 pitcher~ 0 20 0;
#X obj 22 116 dline~ 25 0.5;
#X obj 26 235 outlet~;
#X connect 0 0 6 0;
#X connect 1 0 6 2;
#X connect 2 0 6 1;
#X connect 3 0 1 0;
#X connect 3 0 4 0;
#X connect 4 0 5 1;
#X connect 5 0 7 0;
#X connect 6 0 5 0;
#X restore 223 375 pd sndp;
#N canvas 661 545 450 300 sndp 0;
#X obj 20 17 inlet~;
#N canvas 118 439 309 153 randr 0;
#X obj 13 92 + 0.1;
#X obj 12 73 / 100;
#X obj 12 53 random 86;
#X msg 11 29 bang;
#X obj 13 113 outlet;
#X obj 11 8 inlet;
#X connect 0 0 4 0;
#X connect 1 0 0 0;
#X connect 2 0 1 0;
#X connect 3 0 2 0;
#X connect 5 0 3 0;
#X restore 108 66 pd randr;
#X obj 76 17 inlet;
#X obj 124 17 inlet;
#N canvas 118 439 320 220 randp 0;
#X obj 13 189 outlet;
#X obj 11 8 inlet;
#X obj 101 65 random 2;
#X obj 102 85 moses 1;
#X obj 146 154 / 100;
#X msg 40 39 bang;
#X obj 146 134 random 100;
#X msg 159 107 bang;
#X msg 10 102 bang;
#X obj 11 122 random 10;
#X connect 1 0 5 0;
#X connect 2 0 3 0;
#X connect 3 0 8 0;
#X connect 3 1 7 0;
#X connect 4 0 0 0;
#X connect 5 0 2 0;
#X connect 6 0 4 0;
#X connect 7 0 6 0;
#X connect 8 0 9 0;
#X connect 9 0 0 0;
#X restore 195 69 pd randp;
#X obj 25 171 pitcher~ 0 20 0;
#X obj 22 116 dline~ 25 0.5;
#X obj 26 235 outlet~;
#X connect 0 0 6 0;
#X connect 1 0 6 2;
#X connect 2 0 6 1;
#X connect 3 0 1 0;
#X connect 3 0 4 0;
#X connect 4 0 5 1;
#X connect 5 0 7 0;
#X connect 6 0 5 0;
#X restore 322 371 pd sndp;
#N canvas 661 545 450 300 sndp 0;
#X obj 20 17 inlet~;
#N canvas 118 439 309 153 randr 0;
#X obj 13 92 + 0.1;
#X obj 12 73 / 100;
#X obj 12 53 random 86;
#X msg 11 29 bang;
#X obj 13 113 outlet;
#X obj 11 8 inlet;
#X connect 0 0 4 0;
#X connect 1 0 0 0;
#X connect 2 0 1 0;
#X connect 3 0 2 0;
#X connect 5 0 3 0;
#X restore 108 66 pd randr;
#X obj 76 17 inlet;
#X obj 124 17 inlet;
#N canvas 118 439 320 220 randp 0;
#X obj 13 189 outlet;
#X obj 11 8 inlet;
#X obj 101 65 random 2;
#X obj 102 85 moses 1;
#X obj 146 154 / 100;
#X msg 40 39 bang;
#X obj 146 134 random 100;
#X msg 159 107 bang;
#X msg 10 102 bang;
#X obj 11 122 random 10;
#X connect 1 0 5 0;
#X connect 2 0 3 0;
#X connect 3 0 8 0;
#X connect 3 1 7 0;
#X connect 4 0 0 0;
#X connect 5 0 2 0;
#X connect 6 0 4 0;
#X connect 7 0 6 0;
#X connect 8 0 9 0;
#X connect 9 0 0 0;
#X restore 195 69 pd randp;
#X obj 25 171 pitcher~ 0 20 0;
#X obj 22 116 dline~ 25 0.5;
#X obj 26 235 outlet~;
#X connect 0 0 6 0;
#X connect 1 0 6 2;
#X connect 2 0 6 1;
#X connect 3 0 1 0;
#X connect 3 0 4 0;
#X connect 4 0 5 1;
#X connect 5 0 7 0;
#X connect 6 0 5 0;
#X restore 50 158 pd sndp;
#X connect 0 0 14 0;
#X connect 0 0 16 0;
#X connect 0 0 15 0;
#X connect 0 0 17 0;
#X connect 0 0 18 0;
#X connect 0 0 19 0;
#X connect 0 0 20 0;
#X connect 0 0 21 0;
#X connect 0 0 22 0;
#X connect 0 0 23 0;
#X connect 2 0 4 0;
#X connect 2 0 5 0;
#X connect 2 0 6 0;
#X connect 2 0 7 0;
#X connect 2 0 8 0;
#X connect 2 0 11 0;
#X connect 2 0 12 0;
#X connect 2 0 9 0;
#X connect 2 0 10 0;
#X connect 2 0 23 1;
#X connect 3 0 14 2;
#X connect 3 0 15 2;
#X connect 3 0 16 2;
#X connect 3 0 23 2;
#X connect 3 0 17 2;
#X connect 3 0 18 2;
#X connect 3 0 19 2;
#X connect 3 0 20 2;
#X connect 3 0 22 2;
#X connect 3 0 21 2;
#X connect 4 0 16 1;
#X connect 5 0 15 1;
#X connect 6 0 14 1;
#X connect 7 0 17 1;
#X connect 8 0 18 1;
#X connect 9 0 19 1;
#X connect 10 0 20 1;
#X connect 11 0 21 1;
#X connect 12 0 22 1;
#X connect 13 0 1 0;
#X connect 14 0 13 0;
#X connect 15 0 13 0;
#X connect 16 0 13 0;
#X connect 17 0 13 0;
#X connect 18 0 13 0;
#X connect 19 0 13 0;
#X connect 20 0 13 0;
#X connect 21 0 13 0;
#X connect 22 0 13 0;
#X connect 23 0 13 0;
#X restore 64 100 pd bank1;
#N canvas 484 108 547 462 bank3 0;
#X obj 32 12 inlet~;
#X obj 21 436 outlet~;
#X obj 93 11 inlet;
#X obj 206 15 inlet;
#X obj 151 139 * 1.1;
#X obj 250 144 * 1.2;
#X obj 347 138 * 1.3;
#X obj 55 291 * 1.4;
#X obj 136 287 * 1.5;
#X obj 221 287 * 1.6;
#X obj 317 285 * 1.7;
#X obj 235 349 * 1.8;
#X obj 347 346 * 1.9;
#X obj 22 415 /~ 10;
#N canvas 661 545 450 300 sndp 0;
#X obj 20 17 inlet~;
#N canvas 118 439 309 153 randr 0;
#X obj 13 92 + 0.1;
#X obj 12 73 / 100;
#X obj 12 53 random 86;
#X msg 11 29 bang;
#X obj 13 113 outlet;
#X obj 11 8 inlet;
#X connect 0 0 4 0;
#X connect 1 0 0 0;
#X connect 2 0 1 0;
#X connect 3 0 2 0;
#X connect 5 0 3 0;
#X restore 108 66 pd randr;
#X obj 76 17 inlet;
#X obj 124 17 inlet;
#N canvas 118 439 320 220 randp 0;
#X obj 13 189 outlet;
#X obj 11 8 inlet;
#X obj 101 65 random 2;
#X obj 102 85 moses 1;
#X obj 146 154 / 100;
#X msg 40 39 bang;
#X obj 146 134 random 100;
#X msg 159 107 bang;
#X msg 10 102 bang;
#X obj 11 122 random 10;
#X connect 1 0 5 0;
#X connect 2 0 3 0;
#X connect 3 0 8 0;
#X connect 3 1 7 0;
#X connect 4 0 0 0;
#X connect 5 0 2 0;
#X connect 6 0 4 0;
#X connect 7 0 6 0;
#X connect 8 0 9 0;
#X connect 9 0 0 0;
#X restore 195 69 pd randp;
#X obj 25 171 pitcher~ 0 20 0;
#X obj 22 116 dline~ 25 0.5;
#X obj 26 235 outlet~;
#X connect 0 0 6 0;
#X connect 1 0 6 2;
#X connect 2 0 6 1;
#X connect 3 0 1 0;
#X connect 3 0 4 0;
#X connect 4 0 5 1;
#X connect 5 0 7 0;
#X connect 6 0 5 0;
#X restore 328 163 pd sndp;
#N canvas 661 545 450 300 sndp 0;
#X obj 20 17 inlet~;
#N canvas 118 439 309 153 randr 0;
#X obj 13 92 + 0.1;
#X obj 12 73 / 100;
#X obj 12 53 random 86;
#X msg 11 29 bang;
#X obj 13 113 outlet;
#X obj 11 8 inlet;
#X connect 0 0 4 0;
#X connect 1 0 0 0;
#X connect 2 0 1 0;
#X connect 3 0 2 0;
#X connect 5 0 3 0;
#X restore 108 66 pd randr;
#X obj 76 17 inlet;
#X obj 124 17 inlet;
#N canvas 118 439 320 220 randp 0;
#X obj 13 189 outlet;
#X obj 11 8 inlet;
#X obj 101 65 random 2;
#X obj 102 85 moses 1;
#X obj 146 154 / 100;
#X msg 40 39 bang;
#X obj 146 134 random 100;
#X msg 159 107 bang;
#X msg 10 102 bang;
#X obj 11 122 random 10;
#X connect 1 0 5 0;
#X connect 2 0 3 0;
#X connect 3 0 8 0;
#X connect 3 1 7 0;
#X connect 4 0 0 0;
#X connect 5 0 2 0;
#X connect 6 0 4 0;
#X connect 7 0 6 0;
#X connect 8 0 9 0;
#X connect 9 0 0 0;
#X restore 195 69 pd randp;
#X obj 25 171 pitcher~ 0 20 0;
#X obj 22 116 dline~ 25 0.5;
#X obj 26 235 outlet~;
#X connect 0 0 6 0;
#X connect 1 0 6 2;
#X connect 2 0 6 1;
#X connect 3 0 1 0;
#X connect 3 0 4 0;
#X connect 4 0 5 1;
#X connect 5 0 7 0;
#X connect 6 0 5 0;
#X restore 239 166 pd sndp;
#N canvas 661 545 450 300 sndp 0;
#X obj 20 17 inlet~;
#N canvas 118 439 309 153 randr 0;
#X obj 13 92 + 0.1;
#X obj 12 73 / 100;
#X obj 12 53 random 86;
#X msg 11 29 bang;
#X obj 13 113 outlet;
#X obj 11 8 inlet;
#X connect 0 0 4 0;
#X connect 1 0 0 0;
#X connect 2 0 1 0;
#X connect 3 0 2 0;
#X connect 5 0 3 0;
#X restore 108 66 pd randr;
#X obj 76 17 inlet;
#X obj 124 17 inlet;
#N canvas 118 439 320 220 randp 0;
#X obj 13 189 outlet;
#X obj 11 8 inlet;
#X obj 101 65 random 2;
#X obj 102 85 moses 1;
#X obj 146 154 / 100;
#X msg 40 39 bang;
#X obj 146 134 random 100;
#X msg 159 107 bang;
#X msg 10 102 bang;
#X obj 11 122 random 10;
#X connect 1 0 5 0;
#X connect 2 0 3 0;
#X connect 3 0 8 0;
#X connect 3 1 7 0;
#X connect 4 0 0 0;
#X connect 5 0 2 0;
#X connect 6 0 4 0;
#X connect 7 0 6 0;
#X connect 8 0 9 0;
#X connect 9 0 0 0;
#X restore 195 69 pd randp;
#X obj 25 171 pitcher~ 0 20 0;
#X obj 22 116 dline~ 25 0.5;
#X obj 26 235 outlet~;
#X connect 0 0 6 0;
#X connect 1 0 6 2;
#X connect 2 0 6 1;
#X connect 3 0 1 0;
#X connect 3 0 4 0;
#X connect 4 0 5 1;
#X connect 5 0 7 0;
#X connect 6 0 5 0;
#X restore 124 160 pd sndp;
#N canvas 661 545 450 300 sndp 0;
#X obj 20 17 inlet~;
#N canvas 118 439 309 153 randr 0;
#X obj 13 92 + 0.1;
#X obj 12 73 / 100;
#X obj 12 53 random 86;
#X msg 11 29 bang;
#X obj 13 113 outlet;
#X obj 11 8 inlet;
#X connect 0 0 4 0;
#X connect 1 0 0 0;
#X connect 2 0 1 0;
#X connect 3 0 2 0;
#X connect 5 0 3 0;
#X restore 108 66 pd randr;
#X obj 76 17 inlet;
#X obj 124 17 inlet;
#N canvas 118 439 320 220 randp 0;
#X obj 13 189 outlet;
#X obj 11 8 inlet;
#X obj 101 65 random 2;
#X obj 102 85 moses 1;
#X obj 146 154 / 100;
#X msg 40 39 bang;
#X obj 146 134 random 100;
#X msg 159 107 bang;
#X msg 10 102 bang;
#X obj 11 122 random 10;
#X connect 1 0 5 0;
#X connect 2 0 3 0;
#X connect 3 0 8 0;
#X connect 3 1 7 0;
#X connect 4 0 0 0;
#X connect 5 0 2 0;
#X connect 6 0 4 0;
#X connect 7 0 6 0;
#X connect 8 0 9 0;
#X connect 9 0 0 0;
#X restore 195 69 pd randp;
#X obj 25 171 pitcher~ 0 20 0;
#X obj 22 116 dline~ 25 0.5;
#X obj 26 235 outlet~;
#X connect 0 0 6 0;
#X connect 1 0 6 2;
#X connect 2 0 6 1;
#X connect 3 0 1 0;
#X connect 3 0 4 0;
#X connect 4 0 5 1;
#X connect 5 0 7 0;
#X connect 6 0 5 0;
#X restore 40 316 pd sndp;
#N canvas 661 545 450 300 sndp 0;
#X obj 20 17 inlet~;
#N canvas 118 439 309 153 randr 0;
#X obj 13 92 + 0.1;
#X obj 12 73 / 100;
#X obj 12 53 random 86;
#X msg 11 29 bang;
#X obj 13 113 outlet;
#X obj 11 8 inlet;
#X connect 0 0 4 0;
#X connect 1 0 0 0;
#X connect 2 0 1 0;
#X connect 3 0 2 0;
#X connect 5 0 3 0;
#X restore 108 66 pd randr;
#X obj 76 17 inlet;
#X obj 124 17 inlet;
#N canvas 118 439 320 220 randp 0;
#X obj 13 189 outlet;
#X obj 11 8 inlet;
#X obj 101 65 random 2;
#X obj 102 85 moses 1;
#X obj 146 154 / 100;
#X msg 40 39 bang;
#X obj 146 134 random 100;
#X msg 159 107 bang;
#X msg 10 102 bang;
#X obj 11 122 random 10;
#X connect 1 0 5 0;
#X connect 2 0 3 0;
#X connect 3 0 8 0;
#X connect 3 1 7 0;
#X connect 4 0 0 0;
#X connect 5 0 2 0;
#X connect 6 0 4 0;
#X connect 7 0 6 0;
#X connect 8 0 9 0;
#X connect 9 0 0 0;
#X restore 195 69 pd randp;
#X obj 25 171 pitcher~ 0 20 0;
#X obj 22 116 dline~ 25 0.5;
#X obj 26 235 outlet~;
#X connect 0 0 6 0;
#X connect 1 0 6 2;
#X connect 2 0 6 1;
#X connect 3 0 1 0;
#X connect 3 0 4 0;
#X connect 4 0 5 1;
#X connect 5 0 7 0;
#X connect 6 0 5 0;
#X restore 123 314 pd sndp;
#N canvas 661 545 450 300 sndp 0;
#X obj 20 17 inlet~;
#N canvas 118 439 309 153 randr 0;
#X obj 13 92 + 0.1;
#X obj 12 73 / 100;
#X obj 12 53 random 86;
#X msg 11 29 bang;
#X obj 13 113 outlet;
#X obj 11 8 inlet;
#X connect 0 0 4 0;
#X connect 1 0 0 0;
#X connect 2 0 1 0;
#X connect 3 0 2 0;
#X connect 5 0 3 0;
#X restore 108 66 pd randr;
#X obj 76 17 inlet;
#X obj 124 17 inlet;
#N canvas 118 439 320 220 randp 0;
#X obj 13 189 outlet;
#X obj 11 8 inlet;
#X obj 101 65 random 2;
#X obj 102 85 moses 1;
#X obj 146 154 / 100;
#X msg 40 39 bang;
#X obj 146 134 random 100;
#X msg 159 107 bang;
#X msg 10 102 bang;
#X obj 11 122 random 10;
#X connect 1 0 5 0;
#X connect 2 0 3 0;
#X connect 3 0 8 0;
#X connect 3 1 7 0;
#X connect 4 0 0 0;
#X connect 5 0 2 0;
#X connect 6 0 4 0;
#X connect 7 0 6 0;
#X connect 8 0 9 0;
#X connect 9 0 0 0;
#X restore 195 69 pd randp;
#X obj 25 171 pitcher~ 0 20 0;
#X obj 22 116 dline~ 25 0.5;
#X obj 26 235 outlet~;
#X connect 0 0 6 0;
#X connect 1 0 6 2;
#X connect 2 0 6 1;
#X connect 3 0 1 0;
#X connect 3 0 4 0;
#X connect 4 0 5 1;
#X connect 5 0 7 0;
#X connect 6 0 5 0;
#X restore 203 311 pd sndp;
#N canvas 661 545 450 300 sndp 0;
#X obj 20 17 inlet~;
#N canvas 118 439 309 153 randr 0;
#X obj 13 92 + 0.1;
#X obj 12 73 / 100;
#X obj 12 53 random 86;
#X msg 11 29 bang;
#X obj 13 113 outlet;
#X obj 11 8 inlet;
#X connect 0 0 4 0;
#X connect 1 0 0 0;
#X connect 2 0 1 0;
#X connect 3 0 2 0;
#X connect 5 0 3 0;
#X restore 108 66 pd randr;
#X obj 76 17 inlet;
#X obj 124 17 inlet;
#N canvas 118 439 320 220 randp 0;
#X obj 13 189 outlet;
#X obj 11 8 inlet;
#X obj 101 65 random 2;
#X obj 102 85 moses 1;
#X obj 146 154 / 100;
#X msg 40 39 bang;
#X obj 146 134 random 100;
#X msg 159 107 bang;
#X msg 10 102 bang;
#X obj 11 122 random 10;
#X connect 1 0 5 0;
#X connect 2 0 3 0;
#X connect 3 0 8 0;
#X connect 3 1 7 0;
#X connect 4 0 0 0;
#X connect 5 0 2 0;
#X connect 6 0 4 0;
#X connect 7 0 6 0;
#X connect 8 0 9 0;
#X connect 9 0 0 0;
#X restore 195 69 pd randp;
#X obj 25 171 pitcher~ 0 20 0;
#X obj 22 116 dline~ 25 0.5;
#X obj 26 235 outlet~;
#X connect 0 0 6 0;
#X connect 1 0 6 2;
#X connect 2 0 6 1;
#X connect 3 0 1 0;
#X connect 3 0 4 0;
#X connect 4 0 5 1;
#X connect 5 0 7 0;
#X connect 6 0 5 0;
#X restore 298 309 pd sndp;
#N canvas 661 545 450 300 sndp 0;
#X obj 20 17 inlet~;
#N canvas 118 439 309 153 randr 0;
#X obj 13 92 + 0.1;
#X obj 12 73 / 100;
#X obj 12 53 random 86;
#X msg 11 29 bang;
#X obj 13 113 outlet;
#X obj 11 8 inlet;
#X connect 0 0 4 0;
#X connect 1 0 0 0;
#X connect 2 0 1 0;
#X connect 3 0 2 0;
#X connect 5 0 3 0;
#X restore 108 66 pd randr;
#X obj 76 17 inlet;
#X obj 124 17 inlet;
#N canvas 118 439 320 220 randp 0;
#X obj 13 189 outlet;
#X obj 11 8 inlet;
#X obj 101 65 random 2;
#X obj 102 85 moses 1;
#X obj 146 154 / 100;
#X msg 40 39 bang;
#X obj 146 134 random 100;
#X msg 159 107 bang;
#X msg 10 102 bang;
#X obj 11 122 random 10;
#X connect 1 0 5 0;
#X connect 2 0 3 0;
#X connect 3 0 8 0;
#X connect 3 1 7 0;
#X connect 4 0 0 0;
#X connect 5 0 2 0;
#X connect 6 0 4 0;
#X connect 7 0 6 0;
#X connect 8 0 9 0;
#X connect 9 0 0 0;
#X restore 195 69 pd randp;
#X obj 25 171 pitcher~ 0 20 0;
#X obj 22 116 dline~ 25 0.5;
#X obj 26 235 outlet~;
#X connect 0 0 6 0;
#X connect 1 0 6 2;
#X connect 2 0 6 1;
#X connect 3 0 1 0;
#X connect 3 0 4 0;
#X connect 4 0 5 1;
#X connect 5 0 7 0;
#X connect 6 0 5 0;
#X restore 223 375 pd sndp;
#N canvas 661 545 450 300 sndp 0;
#X obj 20 17 inlet~;
#N canvas 118 439 309 153 randr 0;
#X obj 13 92 + 0.1;
#X obj 12 73 / 100;
#X obj 12 53 random 86;
#X msg 11 29 bang;
#X obj 13 113 outlet;
#X obj 11 8 inlet;
#X connect 0 0 4 0;
#X connect 1 0 0 0;
#X connect 2 0 1 0;
#X connect 3 0 2 0;
#X connect 5 0 3 0;
#X restore 108 66 pd randr;
#X obj 76 17 inlet;
#X obj 124 17 inlet;
#N canvas 118 439 320 220 randp 0;
#X obj 13 189 outlet;
#X obj 11 8 inlet;
#X obj 101 65 random 2;
#X obj 102 85 moses 1;
#X obj 146 154 / 100;
#X msg 40 39 bang;
#X obj 146 134 random 100;
#X msg 159 107 bang;
#X msg 10 102 bang;
#X obj 11 122 random 10;
#X connect 1 0 5 0;
#X connect 2 0 3 0;
#X connect 3 0 8 0;
#X connect 3 1 7 0;
#X connect 4 0 0 0;
#X connect 5 0 2 0;
#X connect 6 0 4 0;
#X connect 7 0 6 0;
#X connect 8 0 9 0;
#X connect 9 0 0 0;
#X restore 195 69 pd randp;
#X obj 25 171 pitcher~ 0 20 0;
#X obj 22 116 dline~ 25 0.5;
#X obj 26 235 outlet~;
#X connect 0 0 6 0;
#X connect 1 0 6 2;
#X connect 2 0 6 1;
#X connect 3 0 1 0;
#X connect 3 0 4 0;
#X connect 4 0 5 1;
#X connect 5 0 7 0;
#X connect 6 0 5 0;
#X restore 322 371 pd sndp;
#N canvas 661 545 450 300 sndp 0;
#X obj 20 17 inlet~;
#N canvas 118 439 309 153 randr 0;
#X obj 13 92 + 0.1;
#X obj 12 73 / 100;
#X obj 12 53 random 86;
#X msg 11 29 bang;
#X obj 13 113 outlet;
#X obj 11 8 inlet;
#X connect 0 0 4 0;
#X connect 1 0 0 0;
#X connect 2 0 1 0;
#X connect 3 0 2 0;
#X connect 5 0 3 0;
#X restore 108 66 pd randr;
#X obj 76 17 inlet;
#X obj 124 17 inlet;
#N canvas 118 439 320 220 randp 0;
#X obj 13 189 outlet;
#X obj 11 8 inlet;
#X obj 101 65 random 2;
#X obj 102 85 moses 1;
#X obj 146 154 / 100;
#X msg 40 39 bang;
#X obj 146 134 random 100;
#X msg 159 107 bang;
#X msg 10 102 bang;
#X obj 11 122 random 10;
#X connect 1 0 5 0;
#X connect 2 0 3 0;
#X connect 3 0 8 0;
#X connect 3 1 7 0;
#X connect 4 0 0 0;
#X connect 5 0 2 0;
#X connect 6 0 4 0;
#X connect 7 0 6 0;
#X connect 8 0 9 0;
#X connect 9 0 0 0;
#X restore 195 69 pd randp;
#X obj 25 171 pitcher~ 0 20 0;
#X obj 22 116 dline~ 25 0.5;
#X obj 26 235 outlet~;
#X connect 0 0 6 0;
#X connect 1 0 6 2;
#X connect 2 0 6 1;
#X connect 3 0 1 0;
#X connect 3 0 4 0;
#X connect 4 0 5 1;
#X connect 5 0 7 0;
#X connect 6 0 5 0;
#X restore 50 158 pd sndp;
#X connect 0 0 14 0;
#X connect 0 0 16 0;
#X connect 0 0 15 0;
#X connect 0 0 17 0;
#X connect 0 0 18 0;
#X connect 0 0 19 0;
#X connect 0 0 20 0;
#X connect 0 0 21 0;
#X connect 0 0 22 0;
#X connect 0 0 23 0;
#X connect 2 0 4 0;
#X connect 2 0 5 0;
#X connect 2 0 6 0;
#X connect 2 0 7 0;
#X connect 2 0 8 0;
#X connect 2 0 11 0;
#X connect 2 0 12 0;
#X connect 2 0 9 0;
#X connect 2 0 10 0;
#X connect 2 0 23 1;
#X connect 3 0 14 2;
#X connect 3 0 15 2;
#X connect 3 0 16 2;
#X connect 3 0 23 2;
#X connect 3 0 17 2;
#X connect 3 0 18 2;
#X connect 3 0 19 2;
#X connect 3 0 20 2;
#X connect 3 0 22 2;
#X connect 3 0 21 2;
#X connect 4 0 16 1;
#X connect 5 0 15 1;
#X connect 6 0 14 1;
#X connect 7 0 17 1;
#X connect 8 0 18 1;
#X connect 9 0 19 1;
#X connect 10 0 20 1;
#X connect 11 0 21 1;
#X connect 12 0 22 1;
#X connect 13 0 1 0;
#X connect 14 0 13 0;
#X connect 15 0 13 0;
#X connect 16 0 13 0;
#X connect 17 0 13 0;
#X connect 18 0 13 0;
#X connect 19 0 13 0;
#X connect 20 0 13 0;
#X connect 21 0 13 0;
#X connect 22 0 13 0;
#X connect 23 0 13 0;
#X restore 226 98 pd bank3;
#N canvas 484 108 547 462 bank3 0;
#X obj 32 12 inlet~;
#X obj 21 436 outlet~;
#X obj 93 11 inlet;
#X obj 206 15 inlet;
#X obj 151 139 * 1.1;
#X obj 250 144 * 1.2;
#X obj 347 138 * 1.3;
#X obj 55 291 * 1.4;
#X obj 136 287 * 1.5;
#X obj 221 287 * 1.6;
#X obj 317 285 * 1.7;
#X obj 235 349 * 1.8;
#X obj 347 346 * 1.9;
#X obj 22 415 /~ 10;
#N canvas 661 545 450 300 sndp 0;
#X obj 20 17 inlet~;
#N canvas 118 439 309 153 randr 0;
#X obj 13 92 + 0.1;
#X obj 12 73 / 100;
#X obj 12 53 random 86;
#X msg 11 29 bang;
#X obj 13 113 outlet;
#X obj 11 8 inlet;
#X connect 0 0 4 0;
#X connect 1 0 0 0;
#X connect 2 0 1 0;
#X connect 3 0 2 0;
#X connect 5 0 3 0;
#X restore 108 66 pd randr;
#X obj 76 17 inlet;
#X obj 124 17 inlet;
#N canvas 118 439 320 220 randp 0;
#X obj 13 189 outlet;
#X obj 11 8 inlet;
#X obj 101 65 random 2;
#X obj 102 85 moses 1;
#X obj 146 154 / 100;
#X msg 40 39 bang;
#X obj 146 134 random 100;
#X msg 159 107 bang;
#X msg 10 102 bang;
#X obj 11 122 random 10;
#X connect 1 0 5 0;
#X connect 2 0 3 0;
#X connect 3 0 8 0;
#X connect 3 1 7 0;
#X connect 4 0 0 0;
#X connect 5 0 2 0;
#X connect 6 0 4 0;
#X connect 7 0 6 0;
#X connect 8 0 9 0;
#X connect 9 0 0 0;
#X restore 195 69 pd randp;
#X obj 25 171 pitcher~ 0 20 0;
#X obj 22 116 dline~ 25 0.5;
#X obj 26 235 outlet~;
#X connect 0 0 6 0;
#X connect 1 0 6 2;
#X connect 2 0 6 1;
#X connect 3 0 1 0;
#X connect 3 0 4 0;
#X connect 4 0 5 1;
#X connect 5 0 7 0;
#X connect 6 0 5 0;
#X restore 328 163 pd sndp;
#N canvas 661 545 450 300 sndp 0;
#X obj 20 17 inlet~;
#N canvas 118 439 309 153 randr 0;
#X obj 13 92 + 0.1;
#X obj 12 73 / 100;
#X obj 12 53 random 86;
#X msg 11 29 bang;
#X obj 13 113 outlet;
#X obj 11 8 inlet;
#X connect 0 0 4 0;
#X connect 1 0 0 0;
#X connect 2 0 1 0;
#X connect 3 0 2 0;
#X connect 5 0 3 0;
#X restore 108 66 pd randr;
#X obj 76 17 inlet;
#X obj 124 17 inlet;
#N canvas 118 439 320 220 randp 0;
#X obj 13 189 outlet;
#X obj 11 8 inlet;
#X obj 101 65 random 2;
#X obj 102 85 moses 1;
#X obj 146 154 / 100;
#X msg 40 39 bang;
#X obj 146 134 random 100;
#X msg 159 107 bang;
#X msg 10 102 bang;
#X obj 11 122 random 10;
#X connect 1 0 5 0;
#X connect 2 0 3 0;
#X connect 3 0 8 0;
#X connect 3 1 7 0;
#X connect 4 0 0 0;
#X connect 5 0 2 0;
#X connect 6 0 4 0;
#X connect 7 0 6 0;
#X connect 8 0 9 0;
#X connect 9 0 0 0;
#X restore 195 69 pd randp;
#X obj 25 171 pitcher~ 0 20 0;
#X obj 22 116 dline~ 25 0.5;
#X obj 26 235 outlet~;
#X connect 0 0 6 0;
#X connect 1 0 6 2;
#X connect 2 0 6 1;
#X connect 3 0 1 0;
#X connect 3 0 4 0;
#X connect 4 0 5 1;
#X connect 5 0 7 0;
#X connect 6 0 5 0;
#X restore 239 166 pd sndp;
#N canvas 661 545 450 300 sndp 0;
#X obj 20 17 inlet~;
#N canvas 118 439 309 153 randr 0;
#X obj 13 92 + 0.1;
#X obj 12 73 / 100;
#X obj 12 53 random 86;
#X msg 11 29 bang;
#X obj 13 113 outlet;
#X obj 11 8 inlet;
#X connect 0 0 4 0;
#X connect 1 0 0 0;
#X connect 2 0 1 0;
#X connect 3 0 2 0;
#X connect 5 0 3 0;
#X restore 108 66 pd randr;
#X obj 76 17 inlet;
#X obj 124 17 inlet;
#N canvas 118 439 320 220 randp 0;
#X obj 13 189 outlet;
#X obj 11 8 inlet;
#X obj 101 65 random 2;
#X obj 102 85 moses 1;
#X obj 146 154 / 100;
#X msg 40 39 bang;
#X obj 146 134 random 100;
#X msg 159 107 bang;
#X msg 10 102 bang;
#X obj 11 122 random 10;
#X connect 1 0 5 0;
#X connect 2 0 3 0;
#X connect 3 0 8 0;
#X connect 3 1 7 0;
#X connect 4 0 0 0;
#X connect 5 0 2 0;
#X connect 6 0 4 0;
#X connect 7 0 6 0;
#X connect 8 0 9 0;
#X connect 9 0 0 0;
#X restore 195 69 pd randp;
#X obj 25 171 pitcher~ 0 20 0;
#X obj 22 116 dline~ 25 0.5;
#X obj 26 235 outlet~;
#X connect 0 0 6 0;
#X connect 1 0 6 2;
#X connect 2 0 6 1;
#X connect 3 0 1 0;
#X connect 3 0 4 0;
#X connect 4 0 5 1;
#X connect 5 0 7 0;
#X connect 6 0 5 0;
#X restore 124 160 pd sndp;
#N canvas 661 545 450 300 sndp 0;
#X obj 20 17 inlet~;
#N canvas 118 439 309 153 randr 0;
#X obj 13 92 + 0.1;
#X obj 12 73 / 100;
#X obj 12 53 random 86;
#X msg 11 29 bang;
#X obj 13 113 outlet;
#X obj 11 8 inlet;
#X connect 0 0 4 0;
#X connect 1 0 0 0;
#X connect 2 0 1 0;
#X connect 3 0 2 0;
#X connect 5 0 3 0;
#X restore 108 66 pd randr;
#X obj 76 17 inlet;
#X obj 124 17 inlet;
#N canvas 118 439 320 220 randp 0;
#X obj 13 189 outlet;
#X obj 11 8 inlet;
#X obj 101 65 random 2;
#X obj 102 85 moses 1;
#X obj 146 154 / 100;
#X msg 40 39 bang;
#X obj 146 134 random 100;
#X msg 159 107 bang;
#X msg 10 102 bang;
#X obj 11 122 random 10;
#X connect 1 0 5 0;
#X connect 2 0 3 0;
#X connect 3 0 8 0;
#X connect 3 1 7 0;
#X connect 4 0 0 0;
#X connect 5 0 2 0;
#X connect 6 0 4 0;
#X connect 7 0 6 0;
#X connect 8 0 9 0;
#X connect 9 0 0 0;
#X restore 195 69 pd randp;
#X obj 25 171 pitcher~ 0 20 0;
#X obj 22 116 dline~ 25 0.5;
#X obj 26 235 outlet~;
#X connect 0 0 6 0;
#X connect 1 0 6 2;
#X connect 2 0 6 1;
#X connect 3 0 1 0;
#X connect 3 0 4 0;
#X connect 4 0 5 1;
#X connect 5 0 7 0;
#X connect 6 0 5 0;
#X restore 40 316 pd sndp;
#N canvas 661 545 450 300 sndp 0;
#X obj 20 17 inlet~;
#N canvas 118 439 309 153 randr 0;
#X obj 13 92 + 0.1;
#X obj 12 73 / 100;
#X obj 12 53 random 86;
#X msg 11 29 bang;
#X obj 13 113 outlet;
#X obj 11 8 inlet;
#X connect 0 0 4 0;
#X connect 1 0 0 0;
#X connect 2 0 1 0;
#X connect 3 0 2 0;
#X connect 5 0 3 0;
#X restore 108 66 pd randr;
#X obj 76 17 inlet;
#X obj 124 17 inlet;
#N canvas 118 439 320 220 randp 0;
#X obj 13 189 outlet;
#X obj 11 8 inlet;
#X obj 101 65 random 2;
#X obj 102 85 moses 1;
#X obj 146 154 / 100;
#X msg 40 39 bang;
#X obj 146 134 random 100;
#X msg 159 107 bang;
#X msg 10 102 bang;
#X obj 11 122 random 10;
#X connect 1 0 5 0;
#X connect 2 0 3 0;
#X connect 3 0 8 0;
#X connect 3 1 7 0;
#X connect 4 0 0 0;
#X connect 5 0 2 0;
#X connect 6 0 4 0;
#X connect 7 0 6 0;
#X connect 8 0 9 0;
#X connect 9 0 0 0;
#X restore 195 69 pd randp;
#X obj 25 171 pitcher~ 0 20 0;
#X obj 22 116 dline~ 25 0.5;
#X obj 26 235 outlet~;
#X connect 0 0 6 0;
#X connect 1 0 6 2;
#X connect 2 0 6 1;
#X connect 3 0 1 0;
#X connect 3 0 4 0;
#X connect 4 0 5 1;
#X connect 5 0 7 0;
#X connect 6 0 5 0;
#X restore 123 314 pd sndp;
#N canvas 661 545 450 300 sndp 0;
#X obj 20 17 inlet~;
#N canvas 118 439 309 153 randr 0;
#X obj 13 92 + 0.1;
#X obj 12 73 / 100;
#X obj 12 53 random 86;
#X msg 11 29 bang;
#X obj 13 113 outlet;
#X obj 11 8 inlet;
#X connect 0 0 4 0;
#X connect 1 0 0 0;
#X connect 2 0 1 0;
#X connect 3 0 2 0;
#X connect 5 0 3 0;
#X restore 108 66 pd randr;
#X obj 76 17 inlet;
#X obj 124 17 inlet;
#N canvas 118 439 320 220 randp 0;
#X obj 13 189 outlet;
#X obj 11 8 inlet;
#X obj 101 65 random 2;
#X obj 102 85 moses 1;
#X obj 146 154 / 100;
#X msg 40 39 bang;
#X obj 146 134 random 100;
#X msg 159 107 bang;
#X msg 10 102 bang;
#X obj 11 122 random 10;
#X connect 1 0 5 0;
#X connect 2 0 3 0;
#X connect 3 0 8 0;
#X connect 3 1 7 0;
#X connect 4 0 0 0;
#X connect 5 0 2 0;
#X connect 6 0 4 0;
#X connect 7 0 6 0;
#X connect 8 0 9 0;
#X connect 9 0 0 0;
#X restore 195 69 pd randp;
#X obj 25 171 pitcher~ 0 20 0;
#X obj 22 116 dline~ 25 0.5;
#X obj 26 235 outlet~;
#X connect 0 0 6 0;
#X connect 1 0 6 2;
#X connect 2 0 6 1;
#X connect 3 0 1 0;
#X connect 3 0 4 0;
#X connect 4 0 5 1;
#X connect 5 0 7 0;
#X connect 6 0 5 0;
#X restore 203 311 pd sndp;
#N canvas 661 545 450 300 sndp 0;
#X obj 20 17 inlet~;
#N canvas 118 439 309 153 randr 0;
#X obj 13 92 + 0.1;
#X obj 12 73 / 100;
#X obj 12 53 random 86;
#X msg 11 29 bang;
#X obj 13 113 outlet;
#X obj 11 8 inlet;
#X connect 0 0 4 0;
#X connect 1 0 0 0;
#X connect 2 0 1 0;
#X connect 3 0 2 0;
#X connect 5 0 3 0;
#X restore 108 66 pd randr;
#X obj 76 17 inlet;
#X obj 124 17 inlet;
#N canvas 118 439 320 220 randp 0;
#X obj 13 189 outlet;
#X obj 11 8 inlet;
#X obj 101 65 random 2;
#X obj 102 85 moses 1;
#X obj 146 154 / 100;
#X msg 40 39 bang;
#X obj 146 134 random 100;
#X msg 159 107 bang;
#X msg 10 102 bang;
#X obj 11 122 random 10;
#X connect 1 0 5 0;
#X connect 2 0 3 0;
#X connect 3 0 8 0;
#X connect 3 1 7 0;
#X connect 4 0 0 0;
#X connect 5 0 2 0;
#X connect 6 0 4 0;
#X connect 7 0 6 0;
#X connect 8 0 9 0;
#X connect 9 0 0 0;
#X restore 195 69 pd randp;
#X obj 25 171 pitcher~ 0 20 0;
#X obj 22 116 dline~ 25 0.5;
#X obj 26 235 outlet~;
#X connect 0 0 6 0;
#X connect 1 0 6 2;
#X connect 2 0 6 1;
#X connect 3 0 1 0;
#X connect 3 0 4 0;
#X connect 4 0 5 1;
#X connect 5 0 7 0;
#X connect 6 0 5 0;
#X restore 298 309 pd sndp;
#N canvas 661 545 450 300 sndp 0;
#X obj 20 17 inlet~;
#N canvas 118 439 309 153 randr 0;
#X obj 13 92 + 0.1;
#X obj 12 73 / 100;
#X obj 12 53 random 86;
#X msg 11 29 bang;
#X obj 13 113 outlet;
#X obj 11 8 inlet;
#X connect 0 0 4 0;
#X connect 1 0 0 0;
#X connect 2 0 1 0;
#X connect 3 0 2 0;
#X connect 5 0 3 0;
#X restore 108 66 pd randr;
#X obj 76 17 inlet;
#X obj 124 17 inlet;
#N canvas 118 439 320 220 randp 0;
#X obj 13 189 outlet;
#X obj 11 8 inlet;
#X obj 101 65 random 2;
#X obj 102 85 moses 1;
#X obj 146 154 / 100;
#X msg 40 39 bang;
#X obj 146 134 random 100;
#X msg 159 107 bang;
#X msg 10 102 bang;
#X obj 11 122 random 10;
#X connect 1 0 5 0;
#X connect 2 0 3 0;
#X connect 3 0 8 0;
#X connect 3 1 7 0;
#X connect 4 0 0 0;
#X connect 5 0 2 0;
#X connect 6 0 4 0;
#X connect 7 0 6 0;
#X connect 8 0 9 0;
#X connect 9 0 0 0;
#X restore 195 69 pd randp;
#X obj 25 171 pitcher~ 0 20 0;
#X obj 22 116 dline~ 25 0.5;
#X obj 26 235 outlet~;
#X connect 0 0 6 0;
#X connect 1 0 6 2;
#X connect 2 0 6 1;
#X connect 3 0 1 0;
#X connect 3 0 4 0;
#X connect 4 0 5 1;
#X connect 5 0 7 0;
#X connect 6 0 5 0;
#X restore 223 375 pd sndp;
#N canvas 661 545 450 300 sndp 0;
#X obj 20 17 inlet~;
#N canvas 118 439 309 153 randr 0;
#X obj 13 92 + 0.1;
#X obj 12 73 / 100;
#X obj 12 53 random 86;
#X msg 11 29 bang;
#X obj 13 113 outlet;
#X obj 11 8 inlet;
#X connect 0 0 4 0;
#X connect 1 0 0 0;
#X connect 2 0 1 0;
#X connect 3 0 2 0;
#X connect 5 0 3 0;
#X restore 108 66 pd randr;
#X obj 76 17 inlet;
#X obj 124 17 inlet;
#N canvas 118 439 320 220 randp 0;
#X obj 13 189 outlet;
#X obj 11 8 inlet;
#X obj 101 65 random 2;
#X obj 102 85 moses 1;
#X obj 146 154 / 100;
#X msg 40 39 bang;
#X obj 146 134 random 100;
#X msg 159 107 bang;
#X msg 10 102 bang;
#X obj 11 122 random 10;
#X connect 1 0 5 0;
#X connect 2 0 3 0;
#X connect 3 0 8 0;
#X connect 3 1 7 0;
#X connect 4 0 0 0;
#X connect 5 0 2 0;
#X connect 6 0 4 0;
#X connect 7 0 6 0;
#X connect 8 0 9 0;
#X connect 9 0 0 0;
#X restore 195 69 pd randp;
#X obj 25 171 pitcher~ 0 20 0;
#X obj 22 116 dline~ 25 0.5;
#X obj 26 235 outlet~;
#X connect 0 0 6 0;
#X connect 1 0 6 2;
#X connect 2 0 6 1;
#X connect 3 0 1 0;
#X connect 3 0 4 0;
#X connect 4 0 5 1;
#X connect 5 0 7 0;
#X connect 6 0 5 0;
#X restore 322 371 pd sndp;
#N canvas 661 545 450 300 sndp 0;
#X obj 20 17 inlet~;
#N canvas 118 439 309 153 randr 0;
#X obj 13 92 + 0.1;
#X obj 12 73 / 100;
#X obj 12 53 random 86;
#X msg 11 29 bang;
#X obj 13 113 outlet;
#X obj 11 8 inlet;
#X connect 0 0 4 0;
#X connect 1 0 0 0;
#X connect 2 0 1 0;
#X connect 3 0 2 0;
#X connect 5 0 3 0;
#X restore 108 66 pd randr;
#X obj 76 17 inlet;
#X obj 124 17 inlet;
#N canvas 118 439 320 220 randp 0;
#X obj 13 189 outlet;
#X obj 11 8 inlet;
#X obj 101 65 random 2;
#X obj 102 85 moses 1;
#X obj 146 154 / 100;
#X msg 40 39 bang;
#X obj 146 134 random 100;
#X msg 159 107 bang;
#X msg 10 102 bang;
#X obj 11 122 random 10;
#X connect 1 0 5 0;
#X connect 2 0 3 0;
#X connect 3 0 8 0;
#X connect 3 1 7 0;
#X connect 4 0 0 0;
#X connect 5 0 2 0;
#X connect 6 0 4 0;
#X connect 7 0 6 0;
#X connect 8 0 9 0;
#X connect 9 0 0 0;
#X restore 195 69 pd randp;
#X obj 25 171 pitcher~ 0 20 0;
#X obj 22 116 dline~ 25 0.5;
#X obj 26 235 outlet~;
#X connect 0 0 6 0;
#X connect 1 0 6 2;
#X connect 2 0 6 1;
#X connect 3 0 1 0;
#X connect 3 0 4 0;
#X connect 4 0 5 1;
#X connect 5 0 7 0;
#X connect 6 0 5 0;
#X restore 50 158 pd sndp;
#X connect 0 0 14 0;
#X connect 0 0 16 0;
#X connect 0 0 15 0;
#X connect 0 0 17 0;
#X connect 0 0 18 0;
#X connect 0 0 19 0;
#X connect 0 0 20 0;
#X connect 0 0 21 0;
#X connect 0 0 22 0;
#X connect 0 0 23 0;
#X connect 2 0 4 0;
#X connect 2 0 5 0;
#X connect 2 0 6 0;
#X connect 2 0 7 0;
#X connect 2 0 8 0;
#X connect 2 0 11 0;
#X connect 2 0 12 0;
#X connect 2 0 9 0;
#X connect 2 0 10 0;
#X connect 2 0 23 1;
#X connect 3 0 14 2;
#X connect 3 0 15 2;
#X connect 3 0 16 2;
#X connect 3 0 23 2;
#X connect 3 0 17 2;
#X connect 3 0 18 2;
#X connect 3 0 19 2;
#X connect 3 0 20 2;
#X connect 3 0 22 2;
#X connect 3 0 21 2;
#X connect 4 0 16 1;
#X connect 5 0 15 1;
#X connect 6 0 14 1;
#X connect 7 0 17 1;
#X connect 8 0 18 1;
#X connect 9 0 19 1;
#X connect 10 0 20 1;
#X connect 11 0 21 1;
#X connect 12 0 22 1;
#X connect 13 0 1 0;
#X connect 14 0 13 0;
#X connect 15 0 13 0;
#X connect 16 0 13 0;
#X connect 17 0 13 0;
#X connect 18 0 13 0;
#X connect 19 0 13 0;
#X connect 20 0 13 0;
#X connect 21 0 13 0;
#X connect 22 0 13 0;
#X connect 23 0 13 0;
#X restore 314 96 pd bank3;
#X floatatom 249 50 5 0 0 0 - - -;
#X obj 292 49 bng 15 250 50 0 empty empty empty 0 -6 0 8 -262144 -1
-1;
#X floatatom 318 51 5 0 0 0 - - -;
#X obj 362 52 bng 15 250 50 0 empty empty empty 0 -6 0 8 -262144 -1
-1;
#X obj 62 132 /~ 4;
#X connect 0 0 6 0;
#X connect 0 0 7 0;
#X connect 0 0 8 0;
#X connect 0 0 9 0;
#X connect 2 0 7 1;
#X connect 3 0 7 2;
#X connect 4 0 6 1;
#X connect 5 0 6 2;
#X connect 6 0 14 0;
#X connect 7 0 14 0;
#X connect 8 0 14 0;
#X connect 9 0 14 0;
#X connect 10 0 8 1;
#X connect 11 0 8 2;
#X connect 12 0 9 1;
#X connect 13 0 9 2;
#X connect 14 0 1 0;
