#N canvas 98 22 720 802 10;
#X obj 169 630 sout~;
#X obj 192 605 *~ -1;
#X obj 95 16 adc~;
#X obj 241 32 table vo 1.44e+06;
#X obj 81 323 tabwrite~ vo;
#X msg 31 271 bang;
#X msg 75 271 stop;
#X obj 145 176 bng 15 250 50 0 empty empty empty 17 7 0 10 -262144
-1 -1;
#X obj 93 187 bng 15 250 50 0 empty empty empty 17 7 0 10 -262144 -1
-1;
#N canvas 420 63 523 536 over 0;
#X obj 52 22 inlet~;
#X obj 54 65 env~;
#X floatatom 84 95 5 0 0 0 - - -;
#X obj 153 47 sig~;
#X floatatom 156 22 5 0 0 0 - - -;
#X obj 154 3 hradio 15 1 0 2 empty empty empty 0 -8 0 10 -262144 -1
-1 0;
#X obj 89 178 sig~;
#X obj 97 224 bng 15 250 50 0 empty empty empty 17 7 0 10 -262144 -1
-1;
#X obj 251 222 bng 15 250 50 0 empty empty empty 17 7 0 10 -262144
-1 -1;
#X obj 197 357 bng 15 250 50 0 empty empty empty 17 7 0 10 -262144
-1 -1;
#X obj 72 396 spigot;
#X msg 138 365 1;
#X msg 105 364 0;
#X obj 80 420 bng 15 250 50 0 empty empty empty 17 7 0 10 -262144 -1
-1;
#X msg 114 282 stop;
#X obj 68 258 t b b b;
#X obj 186 327 delay 500;
#X obj 77 480 outlet;
#X obj 192 478 outlet;
#X obj 89 200 threshold~ 70 50 42 0;
#X connect 0 0 1 0;
#X connect 1 0 2 0;
#X connect 1 0 6 0;
#X connect 3 0 1 0;
#X connect 4 0 3 0;
#X connect 5 0 4 0;
#X connect 6 0 19 0;
#X connect 10 0 13 0;
#X connect 10 0 17 0;
#X connect 11 0 10 1;
#X connect 12 0 10 1;
#X connect 14 0 16 0;
#X connect 15 0 12 0;
#X connect 15 1 10 0;
#X connect 15 2 14 0;
#X connect 16 0 9 0;
#X connect 16 0 11 0;
#X connect 16 0 18 0;
#X connect 19 0 7 0;
#X connect 19 0 15 0;
#X connect 19 1 8 0;
#X connect 19 1 16 0;
#X restore 94 140 pd over;
#N canvas 0 0 429 426 delay 0;
#X obj 74 67 hsl 150 15 0 1 0 0 empty empty empty -2 -8 0 10 -262131
-1 -1 2350 1;
#X obj 324 389 outlet~;
#X obj 74 47 hsl 150 15 0 1 0 0 empty empty empty -2 -8 0 10 -228992
-1 -1 13430 1;
#X floatatom 338 92 5 0 0 0 - - -;
#X obj 325 330 *~;
#X obj 179 306 *~;
#X obj 221 252 -;
#X obj 200 226 1;
#X floatatom 227 275 5 0 0 0 - - -;
#X text 14 66 wet/dry;
#X obj 198 178 t b f f;
#X floatatom 337 274 5 0 0 0 - - -;
#X obj 24 138 loadbang;
#X obj 263 25 inlet~;
#X obj 302 130 dline~ 50 0.7;
#X floatatom 373 64 5 0 0 0 - - -;
#X obj 74 28 hsl 150 15 5 500 0 0 empty empty empty -2 -8 0 10 -229047
-1 -1 1755 1;
#X text 28 30 delay;
#X text 13 48 feedback;
#X obj 26 190 50;
#X obj 58 191 0.7;
#X obj 97 194 0.5;
#X connect 0 0 10 0;
#X connect 2 0 15 0;
#X connect 3 0 14 1;
#X connect 4 0 1 0;
#X connect 5 0 1 0;
#X connect 6 0 8 0;
#X connect 6 0 5 1;
#X connect 7 0 6 0;
#X connect 10 0 7 0;
#X connect 10 1 6 1;
#X connect 10 2 4 1;
#X connect 10 2 11 0;
#X connect 12 0 19 0;
#X connect 12 0 20 0;
#X connect 12 0 21 0;
#X connect 13 0 4 0;
#X connect 13 0 14 0;
#X connect 14 0 5 0;
#X connect 15 0 14 2;
#X connect 16 0 3 0;
#X connect 19 0 16 0;
#X connect 20 0 2 0;
#X connect 21 0 0 0;
#X coords 0 -1 1 1 225 80 1 10 10;
#X restore 203 147 pd delay;
#N canvas 0 0 429 426 distortion 0;
#X obj 74 45 hsl 150 15 0 1 0 0 empty empty empty -2 -8 0 10 -262131
-1 -1 200 1;
#X obj 324 389 outlet~;
#X obj 183 196 clipper~ 25;
#X obj 74 27 hsl 150 15 0 5 0 0 empty empty empty -2 -8 0 10 -249403
-1 -1 13720 1;
#X floatatom 251 173 5 0 0 0 - - -;
#X obj 326 360 *~;
#X obj 180 353 *~;
#X obj 222 282 -;
#X obj 201 256 1;
#X floatatom 228 305 5 0 0 0 - - -;
#X text 14 44 wet/dry;
#X text 27 25 drive;
#X obj 199 225 t b f f;
#X floatatom 338 304 5 0 0 0 - - -;
#X obj 58 179 loadbang;
#X obj 263 25 inlet~;
#X obj 341 50 t b f;
#X obj 328 117 -;
#X obj 327 78 5;
#X obj 253 148 scale 0 5 0 100;
#X obj 82 212 0.5;
#X floatatom 285 60 5 0 0 0 - - -;
#X obj 39 212 4;
#X connect 0 0 12 0;
#X connect 2 0 6 0;
#X connect 3 0 16 0;
#X connect 3 0 21 0;
#X connect 4 0 2 1;
#X connect 5 0 1 0;
#X connect 6 0 1 0;
#X connect 7 0 9 0;
#X connect 7 0 6 1;
#X connect 8 0 7 0;
#X connect 12 0 8 0;
#X connect 12 1 7 1;
#X connect 12 2 5 1;
#X connect 12 2 13 0;
#X connect 14 0 20 0;
#X connect 14 0 22 0;
#X connect 15 0 2 0;
#X connect 15 0 5 0;
#X connect 16 0 18 0;
#X connect 16 1 17 1;
#X connect 17 0 19 0;
#X connect 18 0 17 0;
#X connect 19 0 4 0;
#X connect 20 0 0 0;
#X connect 22 0 3 0;
#X coords 0 -1 1 1 225 60 1 10 10;
#X restore 202 74 pd distortion;
#X obj 131 211 t b b b;
#X obj 180 285 timer;
#X floatatom 203 309 5 0 0 0 - - -;
#X obj 30 242 t b b;
#X msg 241 258 \; vo normalize;
#X obj 214 376 / 16;
#X obj 235 431 rndseq 16 0 0;
#X obj 184 341 t b b f f;
#X floatatom 250 467 5 0 0 0 - - -;
#X obj 182 399 metro;
#X obj 170 579 tabplay~ vo;
#X obj 301 497 samplerate~;
#X obj 306 464 bng 15 250 50 0 empty empty empty 17 7 0 10 -262144
-1 -1;
#X obj 332 463 loadbang;
#X obj 249 532 *;
#X floatatom 248 556 15 0 0 0 - - -;
#X obj 305 531 / 1000;
#X connect 1 0 0 1;
#X connect 2 0 9 0;
#X connect 2 0 11 0;
#X connect 5 0 4 0;
#X connect 6 0 4 0;
#X connect 9 0 8 0;
#X connect 9 0 15 0;
#X connect 9 1 7 0;
#X connect 9 1 12 0;
#X connect 10 0 4 0;
#X connect 11 0 10 0;
#X connect 12 0 16 0;
#X connect 12 1 13 1;
#X connect 12 2 6 0;
#X connect 13 0 14 0;
#X connect 13 0 19 0;
#X connect 15 0 5 0;
#X connect 15 1 13 0;
#X connect 17 0 21 1;
#X connect 18 0 20 0;
#X connect 18 0 26 0;
#X connect 19 0 21 0;
#X connect 19 1 18 0;
#X connect 19 2 17 0;
#X connect 19 3 18 3;
#X connect 21 0 18 4;
#X connect 22 0 1 0;
#X connect 22 0 0 0;
#X connect 23 0 28 0;
#X connect 24 0 23 0;
#X connect 25 0 23 0;
#X connect 26 0 22 0;
#X connect 26 0 27 0;
#X connect 28 0 26 1;
