#N canvas 489 4 450 300 10;
#X floatatom 198 119 5 0 50 0 - val/r val/s;
#X obj 316 218 print mout;
#X obj 306 151 r val/s;
#X obj 25 130 print min;
#X obj 318 239 nrpn_out 43;
#X obj 25 19 nrpn_in 43;
#X obj 46 84 s val/r;
#X obj 26 226 r val/s;
#X obj 26 252 print action;
#X obj 261 187 change;
#X floatatom 249 224 5 0 0 0 - - -;
#X obj 48 45 t f f;
#X msg 107 63 set \$1;
#X connect 2 0 9 0;
#X connect 5 0 3 0;
#X connect 5 0 11 0;
#X connect 7 0 8 0;
#X connect 9 0 10 0;
#X connect 9 0 4 0;
#X connect 9 0 1 0;
#X connect 11 0 6 0;
#X connect 11 1 12 0;
#X connect 12 0 9 0;
