#N canvas 637 179 554 415 10;
#X obj 146 219 quadmix;
#X obj 94 10 adc~;
#X floatatom 260 191 5 0 0 0 - - -;
#X floatatom 303 192 5 0 0 0 - - -;
#X obj 24 273 mout~;
#X obj 262 80 dline~ 2750 0.95;
#X obj 17 81 dline~ 750 0.95;
#X obj 137 82 dline~ 1750 0.95;
#X obj 382 81 dline~ 3750 0.95;
#X msg 352 155 0.5;
#X obj 352 136 loadbang;
#X obj 90 302 0.4;
#X obj 90 280 loadbang;
#X connect 0 0 4 0;
#X connect 0 1 4 0;
#X connect 0 2 4 0;
#X connect 0 3 4 0;
#X connect 1 0 5 0;
#X connect 1 0 6 0;
#X connect 1 0 7 0;
#X connect 1 0 8 0;
#X connect 2 0 0 4;
#X connect 3 0 0 5;
#X connect 5 0 0 2;
#X connect 6 0 0 0;
#X connect 7 0 0 1;
#X connect 8 0 0 3;
#X connect 9 0 3 0;
#X connect 9 0 2 0;
#X connect 10 0 9 0;
#X connect 11 0 4 1;
#X connect 12 0 11 0;
