#N canvas 0 0 569 615 10;
#X obj 34 267 fluid~;
#X msg 81 231 load /home/jason/media/soundfonts/1105-Haris Best Drum
Set.SF2;
#X obj 39 170 openpanel;
#X obj 39 147 bng 15 250 50 0 empty empty empty 0 -6 0 8 -262144 -1
-1;
#X msg 39 197 load \$1;
#X obj 83 446 sout~;
#X obj 53 344 l_foldover~ 50 50;
#X floatatom 99 297 5 0 0 0 - - -;
#X floatatom 145 298 5 0 0 0 - - -;
#X obj 93 366 l_foldover~ 50 50;
#X floatatom 321 -4 5 0 0 0 - - -;
#X obj 509 56 tgl 15 0 empty empty empty 0 -6 0 8 -262144 -1 -1 0 1
;
#X obj 362 54 tgl 15 0 empty empty empty 0 -6 0 8 -262144 -1 -1 0 1
;
#X obj 255 52 bng 15 250 50 0 empty empty empty 0 -6 0 8 -262144 -1
-1;
#X obj 392 56 bng 15 250 50 0 empty empty empty 0 -6 0 8 -262144 -1
-1;
#X floatatom 468 56 5 0 0 0 - - -;
#X obj 255 81 randdrum 16 333;
#X obj 347 322 fluid~;
#X obj 362 -5 tgl 15 0 empty empty empty 0 -6 0 8 -262144 -1 -1 0 1
;
#X obj 437 160 openpanel;
#X obj 437 137 bng 15 250 50 0 empty empty empty 0 -6 0 8 -262144 -1
-1;
#X msg 431 187 load \$1;
#X floatatom 358 365 5 0 0 0 - - -;
#X floatatom 437 363 5 0 0 0 - - -;
#X obj 401 403 clip~ -0.9 0.9;
#X obj 295 403 clip~ -0.9 0.9;
#X obj 468 30 / 2;
#X obj 321 381 *~ 123;
#X obj 401 381 *~ 123;
#X obj 392 84 randdrum 16 166.5;
#X connect 0 0 6 0;
#X connect 0 1 9 0;
#X connect 1 0 0 0;
#X connect 1 0 17 0;
#X connect 2 0 4 0;
#X connect 3 0 2 0;
#X connect 4 0 0 0;
#X connect 6 0 5 0;
#X connect 7 0 6 1;
#X connect 7 0 9 1;
#X connect 8 0 6 2;
#X connect 8 0 9 2;
#X connect 9 0 5 1;
#X connect 10 0 16 2;
#X connect 10 0 26 0;
#X connect 11 0 29 3;
#X connect 12 0 16 3;
#X connect 13 0 16 0;
#X connect 14 0 29 0;
#X connect 15 0 29 2;
#X connect 16 0 0 0;
#X connect 17 0 27 0;
#X connect 17 1 28 0;
#X connect 18 0 12 0;
#X connect 18 0 11 0;
#X connect 19 0 21 0;
#X connect 20 0 19 0;
#X connect 21 0 17 0;
#X connect 22 0 27 1;
#X connect 23 0 28 1;
#X connect 24 0 5 0;
#X connect 25 0 5 1;
#X connect 26 0 15 0;
#X connect 27 0 25 0;
#X connect 28 0 24 0;
#X connect 29 0 17 0;
