#N canvas 101 63 546 428 10;
#X floatatom 86 60 5 0 0 0 - - -;
#X floatatom 86 125 5 0 0 0 - - -;
#X floatatom 212 58 5 0 0 0 - - -;
#X floatatom 212 125 5 0 0 0 - - -;
#X obj 212 92 relrange -16 0;
#X obj 86 93 relrange 0 360;
#X connect 0 0 5 0;
#X connect 2 0 4 0;
#X connect 4 0 3 0;
#X connect 5 0 1 0;
