#N canvas 567 34 314 426 10;
#X obj 70 367 dac~;
#X obj 81 342 *~;
#X obj 113 323 hsl 128 15 0.015 1.5 0 1 empty empty empty -2 -6 0 8
-261689 -1 -1 10500 0;
#X floatatom 109 344 5 0 0 0 - - -;
#N canvas 14 294 297 260 clicker 0;
#X floatatom 51 120 5 0 0 0 - - -;
#X obj 52 27 bng 15 250 50 0 empty empty empty 0 -6 0 8 -262144 -1
-1;
#X obj 50 186 clip~ -1 1;
#X text 91 119 freq;
#X obj 50 140 phasor~;
#X obj 50 162 *~ 8;
#X obj 50 94 + 0.5;
#X obj 51 210 outlet~;
#X obj 52 49 random 500;
#X obj 51 71 / 100;
#X obj 84 25 loadbang;
#X obj 63 4 inlet;
#X connect 0 0 4 0;
#X connect 1 0 8 0;
#X connect 2 0 7 0;
#X connect 4 0 5 0;
#X connect 5 0 2 0;
#X connect 6 0 0 0;
#X connect 8 0 9 0;
#X connect 9 0 6 0;
#X connect 10 0 8 0;
#X connect 11 0 1 0;
#X restore 49 267 pd clicker;
#X floatatom 79 289 5 0 1 0 - - -;
#X obj 50 312 *~;
#X text 148 344 vol;
#X obj 79 187 toggler;
#X floatatom 80 212 5 0 0 0 - - -;
#X obj 77 156 bng 15 250 50 0 empty empty empty 0 -6 0 8 -262144 -1
-1;
#X obj 104 46 bng 15 250 50 0 empty empty empty 0 -6 0 8 -262144 -1
-1;
#X msg 155 25 stop;
#X floatatom 172 52 5 0 0 0 - - -;
#X obj 95 132 delay 250;
#X obj 87 106 bng 15 250 50 0 empty empty empty 0 -6 0 8 -262144 -1
-1;
#X floatatom 153 108 5 0 0 0 - - -;
#X obj 100 70 metro 1801;
#X text 16 5 1.801 seconds per rev at 33 1/3 rpm;
#X obj 92 25 loadbang;
#X obj 37 237 bng 15 250 50 0 empty empty empty 0 -6 0 8 -262144 -1
-1;
#X text 25 222 reseed;
#X connect 1 0 0 1;
#X connect 1 0 0 0;
#X connect 2 0 1 1;
#X connect 2 0 3 0;
#X connect 4 0 6 0;
#X connect 5 0 6 1;
#X connect 6 0 1 0;
#X connect 8 0 9 0;
#X connect 9 0 5 0;
#X connect 10 0 8 0;
#X connect 11 0 17 0;
#X connect 12 0 17 0;
#X connect 13 0 17 1;
#X connect 14 0 10 0;
#X connect 15 0 14 0;
#X connect 15 0 10 0;
#X connect 16 0 14 1;
#X connect 17 0 15 0;
#X connect 19 0 17 0;
#X connect 20 0 4 0;
