#N canvas 19 225 578 402 10;
#X obj 93 254 hsl 128 15 0 2 0 0 empty empty empty -2 -6 0 8 -262144
-1 -1 7700 1;
#X floatatom 90 272 5 0 0 0 - - -;
#X obj 19 142 readanysf~;
#X msg 19 92 play;
#X msg 19 114 stop;
#X obj 61 51 bng 15 250 50 0 empty empty empty 0 -6 0 8 -262144 -1
-1;
#X obj 63 71 openpanel;
#X msg 64 118 open \$1;
#X obj 64 95 symbol;
#X obj 25 276 dac~;
#X obj 52 252 *~;
#X obj 19 252 *~;
#X msg 209 125 time_seek \$1;
#X floatatom 209 103 5 0 0 0 - - -;
#X obj 84 170 route float length rate;
#X floatatom 84 207 5 0 0 0 - - -;
#X floatatom 136 204 5 0 0 0 - - -;
#X floatatom 188 204 5 0 0 0 - - -;
#X text 129 269 vol;
#X floatatom 133 89 5 0 0 0 - - -;
#X msg 134 117 speed \$1;
#X obj 261 62 bng 15 250 50 0 empty empty empty 0 -6 0 8 -250395 -1
-1;
#X obj 354 61 bng 15 250 50 0 empty empty empty 0 -6 0 8 -228992 -1
-1;
#X floatatom 259 107 5 0 0 0 - - -;
#X obj 261 85 rndseq 4 0 180;
#X floatatom 284 64 5 0 0 0 - - -;
#X obj 355 40 metro 1000;
#X obj 355 13 bng 15 250 50 0 empty empty empty 0 -6 0 8 -262144 -1
-1;
#X floatatom 420 11 5 0 0 0 - - -;
#X msg 374 11 stop;
#X obj 455 324 bangct 4;
#X floatatom 506 302 5 0 0 0 - - -;
#X obj 506 272 * 2;
#X connect 0 0 1 0;
#X connect 0 0 10 1;
#X connect 0 0 11 1;
#X connect 2 0 11 0;
#X connect 2 1 10 0;
#X connect 2 2 14 0;
#X connect 3 0 2 0;
#X connect 4 0 2 0;
#X connect 5 0 6 0;
#X connect 6 0 8 0;
#X connect 7 0 2 0;
#X connect 8 0 7 0;
#X connect 10 0 9 1;
#X connect 11 0 9 0;
#X connect 12 0 2 0;
#X connect 13 0 12 0;
#X connect 14 0 15 0;
#X connect 14 1 16 0;
#X connect 14 2 17 0;
#X connect 16 0 24 3;
#X connect 19 0 20 0;
#X connect 20 0 2 0;
#X connect 21 0 24 0;
#X connect 22 0 24 4;
#X connect 22 0 30 0;
#X connect 23 0 12 0;
#X connect 24 0 23 0;
#X connect 25 0 24 1;
#X connect 25 0 32 0;
#X connect 26 0 22 0;
#X connect 27 0 26 0;
#X connect 28 0 26 1;
#X connect 29 0 26 0;
#X connect 30 0 21 0;
#X connect 31 0 30 1;
#X connect 32 0 31 0;
