#N canvas 32 90 446 353 10;
#N canvas 245 293 475 383 sendrgb 0;
#X text 65 13 red;
#X text 161 11 green;
#X text 257 17 blue;
#X obj 219 79 t b f;
#X obj 129 124 +;
#X obj 129 149 t b f;
#X obj 129 170 +;
#X obj 22 66 * -65536;
#X obj 120 55 * -256;
#X obj 219 57 * -1;
#X obj 129 191 - 1;
#X obj 129 237 \$0;
#X msg 128 283 \; \$1_tg color \$2;
#X obj 129 260 pack f f;
#X obj 129 212 t b f;
#X obj 218 37 clip 0 255;
#X obj 217 16 inlet;
#X obj 22 44 clip 0 255;
#X obj 21 13 inlet;
#X obj 121 33 clip 0 255;
#X obj 120 12 inlet;
#X connect 3 0 4 0;
#X connect 3 1 4 1;
#X connect 4 0 5 0;
#X connect 5 0 6 0;
#X connect 5 1 6 1;
#X connect 6 0 10 0;
#X connect 7 0 6 0;
#X connect 8 0 4 0;
#X connect 9 0 3 0;
#X connect 10 0 14 0;
#X connect 11 0 13 0;
#X connect 13 0 12 0;
#X connect 14 0 11 0;
#X connect 14 1 13 1;
#X connect 15 0 9 0;
#X connect 16 0 15 0;
#X connect 17 0 7 0;
#X connect 18 0 17 0;
#X connect 19 0 8 0;
#X connect 20 0 19 0;
#X restore 244 199 pd sendrgb;
#X obj 174 160 255;
#X obj 199 160 0;
#X obj 224 160 0;
#X msg 174 137 bang;
#X obj 251 160 255;
#X obj 303 159 0;
#X msg 251 137 bang;
#X obj 277 160 255;
#X obj 382 158 0;
#X msg 330 136 bang;
#X obj 356 159 255;
#X obj 330 159 0;
#X obj 14 11 cnv 15 98 40 empty empty empty 20 12 0 14 -249525 -66577
0;
#X obj 20 16 bng 30 250 50 0 empty \$0_tg empty 17 7 0 10 -258049 -40
-262144;
#X obj 56 16 bng 15 250 50 0 empty empty start 17 7 0 10 -134464 -1
-90881;
#X obj 56 31 bng 15 250 50 0 empty empty stop 17 7 0 10 -134464 -90881
-90881;
#X obj 143 267 samplerloop~;
#X obj 142 12 inlet~;
#X obj 142 297 outlet~;
#X obj 222 298 outlet;
#X obj 229 70 toggler;
#X obj 193 12 inlet;
#X obj 238 12 inlet;
#X obj 229 97 select 1 0;
#X obj 166 97 loadbang;
#X connect 1 0 0 0;
#X connect 2 0 0 1;
#X connect 3 0 0 2;
#X connect 4 0 1 0;
#X connect 4 0 2 0;
#X connect 4 0 3 0;
#X connect 5 0 0 0;
#X connect 6 0 0 2;
#X connect 7 0 5 0;
#X connect 7 0 6 0;
#X connect 7 0 8 0;
#X connect 8 0 0 1;
#X connect 9 0 0 2;
#X connect 10 0 9 0;
#X connect 10 0 11 0;
#X connect 10 0 12 0;
#X connect 11 0 0 1;
#X connect 12 0 0 0;
#X connect 15 0 21 0;
#X connect 15 0 17 1;
#X connect 16 0 4 0;
#X connect 16 0 17 2;
#X connect 17 0 19 0;
#X connect 17 1 20 0;
#X connect 18 0 17 0;
#X connect 21 0 24 0;
#X connect 22 0 15 0;
#X connect 23 0 16 0;
#X connect 24 0 7 0;
#X connect 24 1 10 0;
#X connect 25 0 4 0;
#X coords 0 -1 1 1 100 42 1 13 10;
