#N canvas 59 91 772 379 10;
#X text 92 31 the basics -- for seangly;
#X obj 205 307 dac~;
#X text 241 310 this makes sound come out;
#X obj 86 165 *~;
#N canvas 0 0 450 300 osc 0;
#X obj 137 42 inlet;
#X obj 144 258 outlet~;
#X text 184 39 this is data coming in;
#X text 122 2 this is a sub-patch;
#X text 194 259 audio data is going out!;
#X obj 130 129 osc~ 440;
#X text 195 130 this is an oscillator \, defaults to 440Hz;
#X text 156 82 the input changes the frequency;
#X connect 0 0 5 0;
#X connect 5 0 1 0;
#X restore 85 122 pd osc;
#X obj 110 143 tgl 15 0 empty empty empty 17 7 0 10 -262144 -1 -1 0
1;
#X floatatom 85 99 5 0 0 0 - - -;
#X text 60 83 number box feeds data to the subpatch;
#X text 129 142 on/off toggle;
#X text 114 166 uses audio multiplication;
#X text 13 99 move me -->;
#N canvas 0 0 415 276 am-synth 0;
#X obj 12 36 inlet;
#X obj 131 237 outlet~;
#X obj 181 29 inlet;
#X text 80 5 this subpatch has two inputs;
#X obj 9 147 osc~ 100;
#X obj 134 207 *~;
#X text 131 127 this triangle wave controls the amplitude;
#X obj 186 149 phasor~ 0.2;
#X connect 0 0 4 0;
#X connect 2 0 7 0;
#X connect 4 0 5 0;
#X connect 5 0 1 0;
#X connect 7 0 5 1;
#X restore 317 121 pd am-synth;
#X obj 324 176 *~;
#X obj 348 154 tgl 15 0 empty empty empty 17 7 0 10 -262144 -1 -1 0
1;
#X text 367 153 on/off toggle;
#X floatatom 306 95 5 0 0 0 - - -;
#X floatatom 381 98 5 0 0 0 - - -;
#X text 304 79 freq;
#X text 387 79 modulation-freq;
#X obj 361 62 hsl 128 15 0.2 25 0 0 empty empty empty -2 -8 0 10 -257985
-1 -1 0 1;
#X text 331 47 gui objects help for controlling;
#X text 126 124 <- click for details;
#X text 392 121 <- click for details;
#N canvas 0 0 364 299 fm-synth 0;
#X obj 260 24 inlet;
#X obj 103 27 inlet;
#X obj 102 231 osc~ 440;
#X obj 45 79 osc~ 1;
#X obj 103 255 outlet~;
#X obj 47 102 +~ 1;
#X text 84 112 level shifting;
#X obj 48 124 /~ 2;
#X obj 49 145 *~ 1500;
#X obj 99 188 +~ 0;
#X text 268 40 base freq;
#X text 140 27 sweep range;
#X connect 0 0 9 1;
#X connect 1 0 8 1;
#X connect 2 0 4 0;
#X connect 3 0 5 0;
#X connect 5 0 7 0;
#X connect 7 0 8 0;
#X connect 8 0 9 0;
#X connect 9 0 2 0;
#X restore 555 126 pd fm-synth;
#X obj 559 173 *~;
#X obj 583 151 tgl 15 0 empty empty empty 17 7 0 10 -262144 -1 -1 1
1;
#X text 602 150 on/off toggle;
#X floatatom 627 91 5 0 0 0 - - -;
#X floatatom 551 90 5 0 0 0 - - -;
#X obj 550 61 hsl 66 15 40 2000 0 0 empty empty empty -2 -8 0 10 -204800
-1 -1 5100 1;
#X obj 629 60 hsl 66 15 0 1500 0 0 empty empty empty -2 -8 0 10 -204800
-1 -1 1200 1;
#X text 627 128 <- click for details;
#X connect 3 0 1 0;
#X connect 3 0 1 1;
#X connect 4 0 3 0;
#X connect 5 0 3 1;
#X connect 6 0 4 0;
#X connect 11 0 12 0;
#X connect 12 0 1 0;
#X connect 12 0 1 1;
#X connect 13 0 12 1;
#X connect 15 0 11 0;
#X connect 16 0 11 1;
#X connect 19 0 16 0;
#X connect 23 0 24 0;
#X connect 24 0 1 1;
#X connect 24 0 1 0;
#X connect 25 0 24 1;
#X connect 27 0 23 1;
#X connect 28 0 23 0;
#X connect 29 0 28 0;
#X connect 30 0 27 0;
