#N canvas 75 177 779 711 10;
#X obj 76 674 dac~;
#X obj 85 641 *~;
#X obj 131 641 hsl 128 15 0 1 0 0 empty empty empty -2 -6 0 8 -262144
-1 -1 5300 1;
#X obj 32 264 osc~ 400;
#X obj 191 20 metro 200;
#X obj 29 59 bng 15 250 50 0 empty empty empty 0 -6 0 8 -262144 -1
-1;
#X floatatom 47 29 5 0 0 0 - - -;
#X obj 28 128 spigot;
#X obj 27 158 pack 0 140 13 110;
#X obj 34 234 line;
#X obj 186 -3 bng 15 250 50 0 empty empty empty 0 -6 0 8 -262144 -1
-1;
#X msg 216 -6 stop;
#X msg 43 186 \$2 \, \$3 \$4;
#X floatatom 276 0 5 0 0 0 - - -;
#X msg 141 238 0;
#X obj 156 207 delay 115;
#X obj 487 18 bng 15 250 50 0 empty empty empty 0 -6 0 8 -262144 -1
-1;
#X floatatom 513 21 5 0 0 0 - - -;
#X obj 494 120 spigot;
#X obj 493 150 pack 0 140 13 110;
#X obj 500 226 line;
#X msg 509 178 \$2 \, \$3 \$4;
#X msg 607 230 0;
#X obj 622 199 delay 115;
#X floatatom 552 117 5 0 0 0 - - -;
#X floatatom 632 117 5 0 0 0 - - -;
#X obj 489 363 *~;
#X obj 525 364 hsl 128 15 0 1 0 0 empty empty empty -2 -6 0 8 -262144
-1 -1 5000 1;
#X floatatom 591 128 5 0 0 0 - - -;
#X obj 663 157 + 1;
#X obj 99 346 env~;
#X floatatom 102 378 5 0 0 0 - - -;
#X floatatom 591 348 5 0 0 0 - - -;
#X obj 208 103 bng 15 250 50 0 empty empty empty 0 -6 0 8 -262144 -1
-1;
#X floatatom 170 127 5 0 0 0 - - -;
#X obj 485 331 bng 15 250 50 0 empty empty empty 0 -6 0 8 -262144 -1
-1;
#X obj 13 265 bng 15 250 50 0 empty empty empty 0 -6 0 8 -262144 -1
-1;
#X floatatom 126 127 5 0 0 0 - - -;
#X floatatom 84 125 5 0 0 0 - - -;
#X obj 247 351 osc~ 400;
#X obj 242 245 pack 0 140 13 110;
#X obj 249 321 line;
#X msg 258 273 \$2 \, \$3 \$4;
#X msg 356 325 0;
#X obj 371 294 delay 115;
#X obj 228 352 bng 15 250 50 0 empty empty empty 0 -6 0 8 -262144 -1
-1;
#X floatatom 341 204 5 0 0 0 - - -;
#X floatatom 297 204 5 0 0 0 - - -;
#X floatatom 255 202 5 0 0 0 - - -;
#X obj 403 243 + 1;
#X obj 209 168 + 1;
#X floatatom 641 44 5 0 0 0 - - -;
#X floatatom 688 42 5 0 0 0 - - -;
#X obj 610 79 rndseq 8 30 250;
#X obj 488 79 rndseq 8 0 2;
#X obj 82 577 hip~ 5;
#X obj 111 299 print;
#X obj 502 331 phasor~ 400;
#X obj 36 86 rndseq 16 0 2;
#X obj 616 311 snapshot~;
#X obj 616 290 bng 15 250 50 0 empty empty empty 0 -6 0 8 -262144 -1
-1;
#X connect 1 0 0 0;
#X connect 1 0 0 1;
#X connect 2 0 1 1;
#X connect 3 0 30 0;
#X connect 3 0 55 0;
#X connect 4 0 7 0;
#X connect 4 0 15 0;
#X connect 4 0 18 0;
#X connect 4 0 23 0;
#X connect 4 0 33 0;
#X connect 4 0 44 0;
#X connect 4 0 53 4;
#X connect 4 0 54 4;
#X connect 4 0 58 4;
#X connect 5 0 58 0;
#X connect 6 0 58 1;
#X connect 7 0 8 0;
#X connect 7 0 40 0;
#X connect 8 0 12 0;
#X connect 9 0 3 0;
#X connect 9 0 36 0;
#X connect 10 0 4 0;
#X connect 11 0 4 0;
#X connect 12 0 9 0;
#X connect 13 0 4 1;
#X connect 14 0 3 0;
#X connect 15 0 14 0;
#X connect 16 0 53 0;
#X connect 16 0 54 0;
#X connect 17 0 53 1;
#X connect 17 0 54 1;
#X connect 18 0 19 0;
#X connect 19 0 21 0;
#X connect 20 0 35 0;
#X connect 20 0 57 0;
#X connect 20 0 60 0;
#X connect 21 0 20 0;
#X connect 22 0 57 0;
#X connect 23 0 22 0;
#X connect 24 0 19 1;
#X connect 25 0 19 3;
#X connect 25 0 29 0;
#X connect 26 0 55 0;
#X connect 27 0 26 1;
#X connect 28 0 19 2;
#X connect 29 0 23 1;
#X connect 30 0 31 0;
#X connect 34 0 8 3;
#X connect 34 0 50 0;
#X connect 37 0 8 2;
#X connect 38 0 8 1;
#X connect 39 0 55 0;
#X connect 40 0 42 0;
#X connect 41 0 39 0;
#X connect 41 0 45 0;
#X connect 42 0 41 0;
#X connect 43 0 39 0;
#X connect 44 0 43 0;
#X connect 46 0 40 3;
#X connect 46 0 49 0;
#X connect 47 0 40 2;
#X connect 48 0 40 1;
#X connect 49 0 44 1;
#X connect 50 0 15 1;
#X connect 51 0 53 2;
#X connect 52 0 53 3;
#X connect 53 0 25 0;
#X connect 54 0 18 1;
#X connect 55 0 1 0;
#X connect 57 0 26 0;
#X connect 57 0 59 0;
#X connect 58 0 7 1;
#X connect 59 0 32 0;
#X connect 60 0 59 0;
