#N canvas 138 176 820 663 10;
#X obj 351 59 adc~;
#X obj 114 292 dline~ 2500 0.75;
#X obj 220 293 dline~ 500 0.85;
#X obj 322 293 dline~ 900 0.85;
#X obj 324 497 mout~;
#X obj 456 132 *~;
#X obj 250 70 select 1;
#X obj 485 66 select 0;
#X obj 321 23 tgl 15 0 empty empty empty 17 7 0 10 -262144 -1 -1 1
1;
#X msg 249 94 1;
#X msg 284 92 0;
#X msg 480 93 1;
#X msg 515 91 0;
#X obj 464 193 dline~ 1200 1;
#X msg 516 139 1;
#X msg 552 141 1200;
#X obj 270 250 *~;
#X floatatom 349 176 5 0 0 0 - - -;
#X obj 312 207 pitcher~ 1 100;
#X obj 490 371 osc~;
#X floatatom 489 350 5 0 0 0 - - -;
#X obj 465 429 *~;
#X obj 499 407 tgl 15 0 empty empty empty 17 7 0 10 -262144 -1 -1 1
1;
#X obj 573 326 osc~ 0.2;
#X obj 572 348 *~ 0.5;
#X obj 572 368 +~ 1;
#X obj 572 395 *~ 200;
#X obj 572 419 +~ 50;
#X floatatom 499 429 5 0 0 0 - - -;
#X floatatom 626 296 5 0 0 0 - - -;
#X obj 582 269 hsl 128 15 0 15 0 0 empty empty empty -2 -8 0 10 -262144
-1 -1 700 1;
#X connect 0 0 5 0;
#X connect 0 0 18 0;
#X connect 1 0 4 0;
#X connect 2 0 4 0;
#X connect 3 0 4 0;
#X connect 6 0 9 0;
#X connect 6 1 10 0;
#X connect 7 0 11 0;
#X connect 7 1 12 0;
#X connect 8 0 6 0;
#X connect 8 0 7 0;
#X connect 9 0 16 1;
#X connect 10 0 16 1;
#X connect 11 0 5 1;
#X connect 12 0 5 1;
#X connect 14 0 13 1;
#X connect 15 0 13 1;
#X connect 16 0 3 0;
#X connect 16 0 2 0;
#X connect 16 0 1 0;
#X connect 17 0 18 1;
#X connect 18 0 16 0;
#X connect 19 0 21 0;
#X connect 20 0 19 0;
#X connect 21 0 4 0;
#X connect 22 0 21 1;
#X connect 23 0 24 0;
#X connect 24 0 25 0;
#X connect 25 0 26 0;
#X connect 26 0 27 0;
#X connect 27 0 19 0;
#X connect 28 0 21 1;
#X connect 29 0 23 0;
#X connect 30 0 29 0;
