#N canvas 286 159 563 606 10;
#X obj 225 365 outlet;
#X obj 212 209 f;
#X obj 152 210 +;
#X obj 137 52 hradio 15 1 0 8 empty empty empty 0 -8 0 10 -262144 -1
-1 2;
#X floatatom 152 77 5 0 0 0 - - -;
#X obj 230 124 bangct;
#X floatatom 242 145 5 0 0 0 - - -;
#X obj 316 22 inlet;
#X text 356 21 num pts;
#X obj 249 184 moses \$1;
#X msg 245 93 reset;
#X floatatom 122 306 5 0 0 0 - - -;
#X msg 186 186 0;
#X floatatom 318 143 5 0 0 0 - - -;
#X msg 296 213 bang;
#X obj 210 297 f;
#X text 238 297 last added;
#X obj 136 260 t f f f;
#X floatatom 220 320 5 0 0 0 - - -;
#X obj 173 101 t f f b;
#X obj 263 323 print subtracting \$1;
#X obj 363 515 bangloop 8;
#X obj 363 493 bng 15 250 50 0 empty empty empty 17 7 0 10 -262144
-1 -1;
#X floatatom 364 537 5 0 0 0 - - -;
#X connect 1 0 2 1;
#X connect 2 0 17 0;
#X connect 3 0 4 0;
#X connect 4 0 19 0;
#X connect 5 0 6 0;
#X connect 6 0 9 0;
#X connect 7 0 9 1;
#X connect 9 1 14 0;
#X connect 10 0 5 0;
#X connect 10 0 12 0;
#X connect 12 0 2 1;
#X connect 13 0 9 1;
#X connect 14 0 15 0;
#X connect 15 0 18 0;
#X connect 15 0 20 0;
#X connect 17 0 1 0;
#X connect 17 2 11 0;
#X connect 19 0 2 0;
#X connect 19 1 15 1;
#X connect 19 2 5 0;
#X connect 21 0 23 0;
#X connect 22 0 21 0;
