#N canvas 595 466 516 406 10;
#X obj 43 -111 rfft~;
#X obj 43 -78 *~;
#X obj 74 -78 *~;
#X obj 43 -48 sqrt~;
#X obj 43 33 tabwrite~ freq;
#X msg 117 -6 bang;
#N canvas 0 0 450 300 graph1 0;
#X array freq 128 float 0;
#X coords 0 500 127 0 200 85 1;
#X restore 219 -97 graph;
#X floatatom 87 -248 5 0 0 0 - - -;
#X floatatom 144 -245 5 0 0 0 - - -;
#X floatatom 197 -243 5 0 0 0 - - -;
#X obj 44 -220 osc~ 92;
#X obj 101 -217 osc~ 1100;
#X obj 182 -217 osc~ 782;
#X obj 117 -96 metro 200;
#X obj 117 -133 bng 15 250 50 0 empty empty empty 0 -6 0 8 -262144
-1 -1;
#X obj 289 -194 block~ 512 1;
#X obj 222 -11 hsl 195 8 0 11800 0 0 measfreq empty empty -2 -6 0 8
-262144 -258699 -1 4300 1;
#X floatatom 345 -95 10 0 0 0 marker: measfreq -;
#X obj 44 -7 *~ 1.5;
#X connect 0 0 1 0;
#X connect 0 0 1 1;
#X connect 0 1 2 0;
#X connect 0 1 2 1;
#X connect 1 0 3 0;
#X connect 2 0 3 0;
#X connect 3 0 18 0;
#X connect 5 0 4 0;
#X connect 7 0 10 0;
#X connect 8 0 11 0;
#X connect 9 0 12 0;
#X connect 10 0 0 0;
#X connect 11 0 0 0;
#X connect 12 0 0 0;
#X connect 13 0 5 0;
#X connect 14 0 13 0;
#X connect 18 0 4 0;
