#N canvas 2 470 458 350 10;
#X obj 88 103 readanysf~;
#X obj 20 287 *~;
#X obj 20 322 dac~;
#X obj 49 285 *~;
#X floatatom 85 312 5 0 0 0 - - -;
#X obj 88 286 hsl 128 15 0 1 0 0 empty empty empty -2 -6 0 8 -261681
-1 -1 11500 1;
#X msg 11 7 open http://212.23.57.33:8010;
#X msg 49 29 play;
#X msg 88 30 stop;
#N canvas 152 354 609 524 stallout 1;
#X obj 501 7 table stbl1;
#X obj 19 16 inlet~;
#X obj 20 498 outlet~;
#X obj 20 351 tabplay~ stbl1;
#X obj 84 89 tabwrite~ stbl1;
#X msg 86 52 bang;
#X msg 127 52 stop;
#X msg 442 30 \; stbl1 resize 480003;
#X msg 20 159 bang;
#X obj 130 351 tabplay~ stbl1;
#X obj 56 464 *~;
#X obj 102 412 bng 15 250 50 0 empty empty empty 0 -6 0 8 -262144 -1
-1;
#X floatatom 342 33 5 0 0 0 - - -;
#X text 339 17 tbl size ms;
#X obj 342 74 + 3;
#X obj 342 52 * 48;
#X obj 342 96 pack f;
#X msg 342 117 \; stbl1 resize \$1;
#X floatatom 241 178 5 0 0 0 - - -;
#X text 243 161 rise/fall;
#X obj 136 432 line~;
#X obj 214 255 pack f;
#X obj 214 234 f;
#X msg 154 172 bang;
#X obj 270 308 bng 15 250 50 0 empty empty empty 0 -6 0 8 -262144 -1
-1;
#X obj 361 474 f;
#X obj 361 451 -;
#X obj 429 239 f;
#X floatatom 445 216 5 0 0 0 - - -;
#X text 440 199 duration;
#X obj 273 356 delay;
#X obj 429 271 +;
#X obj 274 382 bng 15 250 50 0 empty empty empty 0 -6 0 8 -262144 -1
-1;
#X floatatom 436 298 5 0 0 0 - - -;
#X msg 270 334 bang;
#X msg 214 276 1 \$1;
#X obj 319 258 pack f;
#X obj 319 237 f;
#X msg 319 279 0 \$1;
#X obj 403 353 delay;
#X obj 404 379 bng 15 250 50 0 empty empty empty 0 -6 0 8 -262144 -1
-1;
#X msg 400 331 bang;
#X connect 1 0 4 0;
#X connect 3 0 10 0;
#X connect 3 1 11 0;
#X connect 5 0 4 0;
#X connect 6 0 4 0;
#X connect 10 0 2 0;
#X connect 12 0 15 0;
#X connect 14 0 16 0;
#X connect 15 0 14 0;
#X connect 16 0 17 0;
#X connect 18 0 22 1;
#X connect 18 0 31 1;
#X connect 18 0 37 1;
#X connect 20 0 10 1;
#X connect 21 0 35 0;
#X connect 22 0 21 0;
#X connect 23 0 22 0;
#X connect 23 0 3 0;
#X connect 23 0 27 0;
#X connect 26 0 25 0;
#X connect 27 0 31 0;
#X connect 28 0 27 1;
#X connect 30 0 32 0;
#X connect 31 0 30 1;
#X connect 31 0 33 0;
#X connect 32 0 37 0;
#X connect 34 0 30 0;
#X connect 35 0 20 0;
#X connect 35 0 24 0;
#X connect 35 0 34 0;
#X connect 36 0 38 0;
#X connect 37 0 36 0;
#X connect 38 0 20 0;
#X connect 39 0 40 0;
#X connect 41 0 39 0;
#X restore 219 182 pd stallout;
#X connect 0 1 9 0;
#X connect 1 0 2 0;
#X connect 3 0 2 1;
#X connect 5 0 4 0;
#X connect 5 0 3 1;
#X connect 5 0 1 1;
#X connect 6 0 0 0;
#X connect 7 0 0 0;
#X connect 8 0 0 0;
#X connect 9 0 3 0;
