#N canvas 349 222 588 554 10;
#X obj 11 11 cnv 15 50 250 empty empty empty 20 12 0 14 -233017 -66577
0;
#X obj 140 511 outlet~;
#X obj 138 141 noise~;
#X obj 157 259 bng 15 250 50 0 empty \$0_trig empty 17 7 0 10 -262144
-1 -1;
#X obj 139 300 *~;
#X obj 156 278 adsr~ 17 0.75 10 10 10;
#X floatatom 173 209 5 0 0 0 - #0_v_s -, f 5;
#X obj 139 232 *~ 17;
#X floatatom 161 163 5 0 0 0 - #0_f_s -, f 5;
#X floatatom 201 166 5 0 0 0 - #0_q_s -, f 5;
#X obj 140 347 dline~ 30 0.85;
#X obj 139 186 bp~ 64 3;
#X obj 139 399 dline~ 18 0.85;
#X obj 14 36 nbx 4 14 -1e+37 1e+37 0 0 \$0_f_s \$0_f_r empty 0 -8 0
10 -261682 -1 -1 1141.92 256;
#X obj 15 63 nbx 4 14 0 8 0 0 \$0_q_s \$0_q_r empty 0 -8 0 10 -261682
-1 -1 6 256;
#X obj 15 92 nbx 4 14 -1e+37 1e+37 0 0 \$0_v_s \$0_v_r empty 0 -8 0
10 -262144 -1 -1 20 256;
#X obj 14 124 nbx 4 14 1 350 0 0 \$0_dt1_s \$0_dt1_r empty 0 -8 0 10
-204800 -1 -1 336 256;
#X obj 69 12 inlet;
#X obj 14 150 nbx 4 14 0 1 0 0 \$0_df1_s \$0_df1_r empty 0 -8 0 10
-204800 -1 -1 0.0264103 256;
#X obj 14 180 nbx 4 14 1 350 0 0 \$0_dt2_s \$0_dt2_r empty 0 -8 0 10
-232576 -1 -1 336.987 256;
#X obj 14 209 nbx 4 14 0 1 0 0 \$0_df2_s \$0_df2_r empty 0 -8 0 10
-232576 -1 -1 0.184872 256;
#X obj 140 488 *~;
#X obj 15 14 tgl 15 0 empty empty empty 17 7 0 10 -262144 -1 -1 0 1
;
#X obj 42 14 bng 15 250 50 0 \$0_trig empty empty 17 7 0 10 -262144
-1 -1;
#X obj 168 469 vline~;
#X msg 168 449 \$1 50;
#X msg 143 56 \$1;
#X obj 17 225 hsl 40 8 0 1 0 0 empty empty empty -2 -8 0 10 -232576
-1 -1 721 1;
#X obj 17 196 hsl 40 8 0 350 0 0 empty empty empty -2 -8 0 10 -232576
-1 -1 3755 1;
#X obj 66 214 change;
#X obj 237 377 r \$0_df2_s;
#X obj 160 376 r \$0_dt2_s;
#X obj 66 185 change;
#X obj 168 428 r \$0_on_s;
#X obj 17 166 hsl 40 8 0 1 0 0 empty empty empty -2 -8 0 10 -204800
-1 -1 103 1;
#X obj 66 155 change;
#X obj 165 319 r \$0_dt1_s;
#X obj 242 320 r \$0_df1_s;
#X obj 17 140 hsl 40 8 0 350 0 0 empty empty empty -2 -8 0 10 -204800
-1 -1 3744 1;
#X obj 66 128 change;
#X obj 18 108 hsl 40 8 0 25 0 0 empty empty empty -2 -8 0 10 -262144
-1 -1 3120 1;
#X obj 67 97 change;
#X obj 18 79 hsl 40 8 0 8 0 0 empty empty empty -2 -8 0 10 -261682
-1 -1 2925 1;
#X obj 66 68 change;
#X obj 17 52 hsl 40 8 0 1500 0 0 empty empty empty -2 -8 0 10 -261682
-1 -1 2969 1;
#X obj 66 41 change;
#X obj 330 135 bng 15 250 50 0 empty empty empty 17 7 0 10 -262144
-1 -1;
#N canvas 988 503 343 474 sav-a-lot 0;
#X obj 38 405 outlet;
#X obj 77 102 tgl 15 0 empty empty empty 17 7 0 10 -262144 -1 -1 0
1;
#X obj 49 106 f;
#X obj 55 159 f;
#X floatatom 85 157 5 0 0 0 - - -, f 5;
#X obj 132 159 f;
#X floatatom 162 157 5 0 0 0 - - -, f 5;
#X obj 67 81 r \$0_on_s;
#X obj 73 134 r \$0_f_s;
#X obj 150 134 r \$0_q_s;
#X obj 59 208 f;
#X floatatom 89 206 5 0 0 0 - - -, f 5;
#X obj 77 183 r \$0_v_s;
#X obj 54 260 f;
#X floatatom 84 258 5 0 0 0 - - -, f 5;
#X obj 131 260 f;
#X floatatom 161 258 5 0 0 0 - - -, f 5;
#X obj 72 235 r \$0_dt1_s;
#X obj 149 235 r \$0_df1_s;
#X obj 52 313 f;
#X floatatom 82 311 5 0 0 0 - - -, f 5;
#X obj 129 313 f;
#X floatatom 159 311 5 0 0 0 - - -, f 5;
#X obj 147 288 r \$0_df2_s;
#X obj 67 289 r \$0_dt2_s;
#X obj 39 365 pack f f f f f f f f;
#X obj 40 53 t b b b b b b b b;
#X obj 43 21 inlet;
#X connect 2 0 25 0;
#X connect 3 0 25 1;
#X connect 5 0 25 2;
#X connect 7 0 1 0;
#X connect 7 0 2 1;
#X connect 8 0 3 1;
#X connect 8 0 4 0;
#X connect 9 0 5 1;
#X connect 9 0 6 0;
#X connect 10 0 25 3;
#X connect 12 0 10 1;
#X connect 12 0 11 0;
#X connect 13 0 25 4;
#X connect 15 0 25 5;
#X connect 17 0 13 1;
#X connect 17 0 14 0;
#X connect 18 0 15 1;
#X connect 18 0 16 0;
#X connect 19 0 25 6;
#X connect 21 0 25 7;
#X connect 23 0 21 1;
#X connect 23 0 22 0;
#X connect 24 0 19 1;
#X connect 24 0 20 0;
#X connect 25 0 0 0;
#X connect 26 0 2 0;
#X connect 26 1 3 0;
#X connect 26 2 5 0;
#X connect 26 3 10 0;
#X connect 26 4 13 0;
#X connect 26 5 15 0;
#X connect 26 6 19 0;
#X connect 26 7 21 0;
#X connect 27 0 26 0;
#X restore 330 154 pd sav-a-lot;
#N canvas 853 453 338 335 load-a-lot 0;
#X obj 38 17 inlet;
#X obj 38 71 unpack f f f f f f f f;
#X obj 40 116 s \$0_on_r;
#X obj 54 152 s \$0_f_r;
#X obj 132 152 s \$0_q_r;
#X obj 53 185 s \$0_v_r;
#X obj 52 219 s \$0_dt1_r;
#X obj 129 219 s \$0_df1_r;
#X obj 129 252 s \$0_df2_r;
#X obj 51 252 s \$0_dt2_r;
#X connect 0 0 1 0;
#X connect 1 0 2 0;
#X connect 1 1 3 0;
#X connect 1 2 4 0;
#X connect 1 3 5 0;
#X connect 1 4 6 0;
#X connect 1 5 7 0;
#X connect 1 6 9 0;
#X connect 1 7 8 0;
#X restore 426 155 pd load-a-lot;
#X obj 330 179 outlet;
#X obj 143 76 s \$0_on_s;
#X obj 143 97 r \$0_on_r;
#X obj 426 123 bng 15 250 50 0 empty empty empty 17 7 0 10 -262144
-1 -1;
#X obj 159 15 route bang list;
#X obj 461 121 bng 15 250 50 0 empty empty empty 17 7 0 10 -262144
-1 -1;
#N canvas 471 589 675 496 randomize 0;
#X obj 16 16 inlet;
#X obj 6 152 s \$0_on_r;
#X obj 77 153 s \$0_f_r;
#X obj 162 156 s \$0_q_r;
#X obj 230 155 s \$0_v_r;
#X obj 305 159 s \$0_dt1_r;
#X obj 388 159 s \$0_df1_r;
#X obj 585 164 s \$0_df2_r;
#X obj 494 165 s \$0_dt2_r;
#X obj 8 98 random 2;
#X obj 16 42 t b b b b b b b b, f 64;
#X obj 77 98 random 1501;
#X obj 162 99 random 9;
#X obj 307 99 random 351;
#X obj 230 100 random 26;
#X obj 389 98 random 10000;
#X obj 391 121 / 10000;
#X obj 494 99 random 351;
#X obj 576 98 random 10000;
#X obj 578 121 / 10000;
#X connect 0 0 10 0;
#X connect 9 0 1 0;
#X connect 10 0 9 0;
#X connect 10 1 11 0;
#X connect 10 2 12 0;
#X connect 10 3 14 0;
#X connect 10 4 13 0;
#X connect 10 5 15 0;
#X connect 10 6 17 0;
#X connect 10 7 18 0;
#X connect 11 0 2 0;
#X connect 12 0 3 0;
#X connect 13 0 5 0;
#X connect 14 0 4 0;
#X connect 15 0 16 0;
#X connect 16 0 6 0;
#X connect 17 0 8 0;
#X connect 18 0 19 0;
#X connect 19 0 7 0;
#X restore 461 230 pd randomize;
#X obj 351 85 route save load rand;
#X connect 2 0 11 0;
#X connect 3 0 5 0;
#X connect 4 0 10 0;
#X connect 5 0 4 1;
#X connect 6 0 7 1;
#X connect 7 0 4 0;
#X connect 8 0 11 1;
#X connect 9 0 11 2;
#X connect 10 0 12 0;
#X connect 11 0 7 0;
#X connect 12 0 21 0;
#X connect 13 0 44 0;
#X connect 14 0 42 0;
#X connect 15 0 40 0;
#X connect 16 0 38 0;
#X connect 17 0 53 0;
#X connect 18 0 34 0;
#X connect 19 0 28 0;
#X connect 20 0 27 0;
#X connect 21 0 1 0;
#X connect 22 0 26 0;
#X connect 24 0 21 1;
#X connect 25 0 24 0;
#X connect 26 0 50 0;
#X connect 27 0 29 0;
#X connect 28 0 32 0;
#X connect 29 0 20 0;
#X connect 30 0 12 2;
#X connect 31 0 12 1;
#X connect 32 0 19 0;
#X connect 33 0 25 0;
#X connect 34 0 35 0;
#X connect 35 0 18 0;
#X connect 36 0 10 1;
#X connect 37 0 10 2;
#X connect 38 0 39 0;
#X connect 39 0 16 0;
#X connect 40 0 41 0;
#X connect 41 0 15 0;
#X connect 42 0 43 0;
#X connect 43 0 14 0;
#X connect 44 0 45 0;
#X connect 45 0 13 0;
#X connect 46 0 47 0;
#X connect 47 0 49 0;
#X connect 51 0 22 0;
#X connect 53 0 23 0;
#X connect 53 2 56 0;
#X connect 54 0 55 0;
#X connect 56 0 46 0;
#X connect 56 1 52 0;
#X connect 56 1 48 0;
#X connect 56 2 54 0;
#X coords 0 -1 1 1 52 252 1 10 10;
