#N canvas 214 231 682 640 10;
#X obj 75 477 sout~;
#X obj 155 475 loadbang;
#X obj 158 496 1;
#X obj 127 431 r vol;
#N canvas 431 103 563 427 osc_controls 0;
#X obj 46 18 udpreceive 9997;
#X obj 45 42 unpackOSC;
#X obj 49 68 pipelist;
#X obj 50 92 routeOSC /1 /2 /3;
#N canvas 185 126 652 457 page1 0;
#X obj 32 62 s vol;
#X obj 32 38 route /fader1 /toggle1;
#X obj 105 62 tgl 15 0 empty empty empty 17 7 0 10 -262144 -1 -1 1
1;
#X obj 104 83 s mute;
#X obj 184 68 route /toggle2 /fader2 /toggle3 /fader3;
#X obj 31 11 inlet;
#X obj 251 133 range 0 1 0 1;
#X obj 181 151 s c1_m;
#X obj 184 131 tgl 15 0 empty empty empty 17 7 0 10 -262144 -1 -1 1
1;
#X obj 250 153 s c1_v;
#X obj 388 181 range 0 1 0 1;
#X obj 336 177 tgl 15 0 empty empty empty 17 7 0 10 -262144 -1 -1 1
1;
#X obj 387 201 s c2_v;
#X obj 333 197 s c2_m;
#X obj 214 300 print unk1;
#X obj 96 276 route /fader4 /xy;
#X obj 154 326 unpack f f;
#X floatatom 244 360 5 0 0 0 - - -;
#X floatatom 108 357 5 0 0 0 - - -;
#X obj 101 414 s drums_v;
#X obj 118 386 * 4;
#X obj 220 381 range 0 1 0 2;
#X obj 224 414 s drums_spd;
#X connect 1 0 0 0;
#X connect 1 1 2 0;
#X connect 1 2 4 0;
#X connect 2 0 3 0;
#X connect 4 0 8 0;
#X connect 4 1 6 0;
#X connect 4 2 11 0;
#X connect 4 3 10 0;
#X connect 4 4 15 0;
#X connect 5 0 1 0;
#X connect 6 0 9 0;
#X connect 8 0 7 0;
#X connect 10 0 12 0;
#X connect 11 0 13 0;
#X connect 15 1 16 0;
#X connect 15 2 14 0;
#X connect 16 0 18 0;
#X connect 16 1 17 0;
#X connect 17 0 21 0;
#X connect 18 0 20 0;
#X connect 20 0 19 0;
#X connect 21 0 22 0;
#X restore 48 119 pd page1;
#N canvas 425 292 684 495 page2 0;
#X obj 91 112 range 0 1 0 200;
#X obj 32 63 route /toggle1 /fader1 /toggle2 /fader2;
#X obj 229 110 range 0 1 0 55;
#X obj 32 14 inlet;
#X obj 311 414 print unk2;
#X obj 399 251 route /toggle5 /fader5;
#X obj 278 211 route /toggle4 /fader4;
#X obj 152 169 route /toggle3 /fader3;
#X obj 162 192 tgl 15 0 empty empty empty 17 7 0 10 -262144 -1 -1 1
1;
#X obj 166 89 tgl 15 0 empty empty empty 17 7 0 10 -262144 -1 -1 1
1;
#X obj 258 230 tgl 15 0 empty empty empty 17 7 0 10 -262144 -1 -1 1
1;
#X obj 417 271 tgl 15 0 empty empty empty 17 7 0 10 -262144 -1 -1 1
1;
#X obj 40 364 route /toggle6 /fader6 /toggle7 /fader7;
#X obj 178 400 range 0 1 0 1;
#X obj 177 420 s c1_f;
#X obj 57 398 range 0 1 0 333;
#X obj 90 137 s c1_sp1;
#N canvas 3 52 450 300 c_ch1 0;
#X obj 99 90 tgl 15 0 empty empty empty 17 7 0 10 -262144 -1 -1 1 1
;
#X obj 101 115 route 0 1;
#X msg 103 142 stop;
#X msg 146 150 start;
#X floatatom 219 138 5 0 0 0 - - -;
#X obj 97 31 inlet;
#X obj 178 33 inlet;
#X obj 96 234 outlet;
#X obj 203 233 outlet;
#X obj 201 116 range 0 1 0 333;
#X connect 0 0 1 0;
#X connect 1 0 2 0;
#X connect 1 1 3 0;
#X connect 2 0 7 0;
#X connect 3 0 7 0;
#X connect 5 0 0 0;
#X connect 6 0 9 0;
#X connect 9 0 4 0;
#X connect 9 0 8 0;
#X restore 406 305 pd c_ch1;
#N canvas 3 52 450 300 c_ch1 0;
#X obj 99 90 tgl 15 0 empty empty empty 17 7 0 10 -262144 -1 -1 1 1
;
#X obj 101 115 route 0 1;
#X msg 103 142 stop;
#X msg 146 150 start;
#X floatatom 219 138 5 0 0 0 - - -;
#X obj 97 31 inlet;
#X obj 178 33 inlet;
#X obj 96 234 outlet;
#X obj 203 233 outlet;
#X obj 201 116 range 0 1 0 333;
#X connect 0 0 1 0;
#X connect 1 0 2 0;
#X connect 1 1 3 0;
#X connect 2 0 7 0;
#X connect 3 0 7 0;
#X connect 5 0 0 0;
#X connect 6 0 9 0;
#X connect 9 0 4 0;
#X connect 9 0 8 0;
#X restore 277 234 pd c_ch1;
#N canvas 3 52 450 300 c_ch1 0;
#X obj 99 90 tgl 15 0 empty empty empty 17 7 0 10 -262144 -1 -1 1 1
;
#X obj 101 115 route 0 1;
#X msg 103 142 stop;
#X msg 146 150 start;
#X floatatom 219 138 5 0 0 0 - - -;
#X obj 97 31 inlet;
#X obj 178 33 inlet;
#X obj 96 234 outlet;
#X obj 203 233 outlet;
#X obj 201 116 range 0 1 0 333;
#X connect 0 0 1 0;
#X connect 1 0 2 0;
#X connect 1 1 3 0;
#X connect 2 0 7 0;
#X connect 3 0 7 0;
#X connect 5 0 0 0;
#X connect 6 0 9 0;
#X connect 9 0 4 0;
#X connect 9 0 8 0;
#X restore 148 242 pd c_ch1;
#X obj 148 287 s c1_pinprick;
#X obj 170 266 s c1_pinprick_v;
#X obj 298 258 s c1_linnea_v;
#X obj 276 279 s c1_linnea;
#X obj 427 329 s c1_sinner_v;
#X obj 406 349 s c1_sinner;
#X obj 230 131 s c1_sp2;
#X obj 57 418 s c1_t;
#X connect 0 0 16 0;
#X connect 1 1 0 0;
#X connect 1 2 9 0;
#X connect 1 3 2 0;
#X connect 1 4 7 0;
#X connect 2 0 26 0;
#X connect 3 0 1 0;
#X connect 5 0 11 0;
#X connect 5 0 17 0;
#X connect 5 1 17 1;
#X connect 5 2 12 0;
#X connect 6 0 18 0;
#X connect 6 0 10 0;
#X connect 6 1 18 1;
#X connect 6 2 5 0;
#X connect 7 0 19 0;
#X connect 7 0 8 0;
#X connect 7 1 19 1;
#X connect 7 2 6 0;
#X connect 12 1 15 0;
#X connect 12 3 13 0;
#X connect 12 4 4 0;
#X connect 13 0 14 0;
#X connect 15 0 27 0;
#X connect 17 0 25 0;
#X connect 17 1 24 0;
#X connect 18 0 23 0;
#X connect 18 1 22 0;
#X connect 19 0 20 0;
#X connect 19 1 21 0;
#X restore 86 142 pd page2;
#N canvas 425 290 684 495 page3 0;
#X obj 91 112 range 0 1 0 200;
#X obj 32 63 route /toggle1 /fader1 /toggle2 /fader2;
#X obj 229 110 range 0 1 0 55;
#X obj 32 14 inlet;
#X obj 399 251 route /toggle5 /fader5;
#X obj 278 211 route /toggle4 /fader4;
#X obj 152 169 route /toggle3 /fader3;
#X obj 162 192 tgl 15 0 empty empty empty 17 7 0 10 -262144 -1 -1 1
1;
#X obj 166 89 tgl 15 0 empty empty empty 17 7 0 10 -262144 -1 -1 1
1;
#X obj 258 230 tgl 15 0 empty empty empty 17 7 0 10 -262144 -1 -1 1
1;
#X obj 417 271 tgl 15 0 empty empty empty 17 7 0 10 -262144 -1 -1 1
1;
#X obj 40 364 route /toggle6 /fader6 /toggle7 /fader7;
#X obj 178 400 range 0 1 0 1;
#X obj 57 398 range 0 1 0 333;
#N canvas 3 52 450 300 c_ch1 0;
#X obj 99 90 tgl 15 0 empty empty empty 17 7 0 10 -262144 -1 -1 1 1
;
#X obj 101 115 route 0 1;
#X msg 103 142 stop;
#X msg 146 150 start;
#X floatatom 219 138 5 0 0 0 - - -;
#X obj 97 31 inlet;
#X obj 178 33 inlet;
#X obj 96 234 outlet;
#X obj 203 233 outlet;
#X obj 201 116 range 0 1 0 333;
#X connect 0 0 1 0;
#X connect 1 0 2 0;
#X connect 1 1 3 0;
#X connect 2 0 7 0;
#X connect 3 0 7 0;
#X connect 5 0 0 0;
#X connect 6 0 9 0;
#X connect 9 0 4 0;
#X connect 9 0 8 0;
#X restore 406 305 pd c_ch1;
#N canvas 3 52 450 300 c_ch1 0;
#X obj 99 90 tgl 15 0 empty empty empty 17 7 0 10 -262144 -1 -1 1 1
;
#X obj 101 115 route 0 1;
#X msg 103 142 stop;
#X msg 146 150 start;
#X floatatom 219 138 5 0 0 0 - - -;
#X obj 97 31 inlet;
#X obj 178 33 inlet;
#X obj 96 234 outlet;
#X obj 203 233 outlet;
#X obj 201 116 range 0 1 0 333;
#X connect 0 0 1 0;
#X connect 1 0 2 0;
#X connect 1 1 3 0;
#X connect 2 0 7 0;
#X connect 3 0 7 0;
#X connect 5 0 0 0;
#X connect 6 0 9 0;
#X connect 9 0 4 0;
#X connect 9 0 8 0;
#X restore 277 234 pd c_ch1;
#N canvas 3 52 450 300 c_ch1 0;
#X obj 99 90 tgl 15 0 empty empty empty 17 7 0 10 -262144 -1 -1 1 1
;
#X obj 101 115 route 0 1;
#X msg 103 142 stop;
#X msg 146 150 start;
#X floatatom 219 138 5 0 0 0 - - -;
#X obj 97 31 inlet;
#X obj 178 33 inlet;
#X obj 96 234 outlet;
#X obj 203 233 outlet;
#X obj 201 116 range 0 1 0 333;
#X connect 0 0 1 0;
#X connect 1 0 2 0;
#X connect 1 1 3 0;
#X connect 2 0 7 0;
#X connect 3 0 7 0;
#X connect 5 0 0 0;
#X connect 6 0 9 0;
#X connect 9 0 4 0;
#X connect 9 0 8 0;
#X restore 148 242 pd c_ch1;
#X obj 90 137 s c2_sp1;
#X obj 230 131 s c2_sp2;
#X obj 170 266 s c2_pinprick_v;
#X obj 148 287 s c2_pinprick;
#X obj 298 258 s c2_linnea_v;
#X obj 276 279 s c2_linnea;
#X obj 427 329 s c2_sinner_v;
#X obj 406 349 s c2_sinner;
#X obj 307 394 print unk3;
#X obj 177 420 s c2_f;
#X obj 57 418 s c2_t;
#X connect 0 0 17 0;
#X connect 1 1 0 0;
#X connect 1 2 8 0;
#X connect 1 3 2 0;
#X connect 1 4 6 0;
#X connect 2 0 18 0;
#X connect 3 0 1 0;
#X connect 4 0 10 0;
#X connect 4 0 14 0;
#X connect 4 1 14 1;
#X connect 4 2 11 0;
#X connect 5 0 15 0;
#X connect 5 0 9 0;
#X connect 5 1 15 1;
#X connect 5 2 4 0;
#X connect 6 0 16 0;
#X connect 6 0 7 0;
#X connect 6 1 16 1;
#X connect 6 2 5 0;
#X connect 11 1 13 0;
#X connect 11 3 12 0;
#X connect 11 4 25 0;
#X connect 12 0 26 0;
#X connect 13 0 27 0;
#X connect 14 0 24 0;
#X connect 14 1 23 0;
#X connect 15 0 22 0;
#X connect 15 1 21 0;
#X connect 16 0 20 0;
#X connect 16 1 19 0;
#X restore 127 171 pd page3;
#X connect 0 0 1 0;
#X connect 1 0 2 0;
#X connect 1 1 2 1;
#X connect 2 0 3 0;
#X connect 3 0 4 0;
#X connect 3 1 5 0;
#X connect 3 2 6 0;
#X restore 280 80 pd osc_controls;
#N canvas 3 52 450 300 mutes 0;
#X obj 75 8 inlet~;
#X obj 146 8 inlet~;
#X obj 83 260 outlet~;
#X obj 150 260 outlet~;
#X obj 259 139 vline~;
#X obj 247 59 route 0 1;
#X msg 264 104 0 100;
#X msg 316 104 1 100;
#X obj 152 221 *~;
#X obj 83 224 *~;
#X obj 326 54 loadbang;
#X obj 245 23 r mute;
#X connect 0 0 9 0;
#X connect 1 0 8 0;
#X connect 4 0 8 1;
#X connect 4 0 9 1;
#X connect 5 0 6 0;
#X connect 5 1 7 0;
#X connect 6 0 4 0;
#X connect 7 0 4 0;
#X connect 8 0 3 0;
#X connect 9 0 2 0;
#X connect 10 0 7 0;
#X connect 11 0 5 0;
#X restore 58 438 pd mutes;
#N canvas 23 528 509 428 caradisio_ch1 0;
#X obj 90 240 caradisio~ 200 0.3;
#X floatatom 243 207 5 0 0 0 - c1_t -;
#X floatatom 297 205 5 0 0 0 - c1_f -;
#X floatatom 56 150 5 0 0 0 - c1_sp1 -;
#X floatatom 107 82 5 0 0 0 - c1_sp2 -;
#X floatatom 175 139 5 0 0 0 - c1_pinprick_v -;
#X floatatom 233 134 5 0 0 0 - c1_linnea_v -;
#X floatatom 294 132 5 0 0 0 - c1_sinner_v -;
#X msg 173 87 start;
#X msg 174 109 stop;
#X msg 233 84 start;
#X msg 235 107 stop;
#X msg 290 84 start;
#X msg 291 106 stop;
#X obj 87 318 outlet~;
#X obj 88 287 *~;
#N canvas 201 268 450 300 c1_vol_ctl 0;
#X obj 246 227 vline~;
#X obj 149 22 r c1_m;
#X msg 245 206 \$1 250;
#X obj 337 12 r c1_v;
#X floatatom 367 33 5 0 0 0 - - -;
#X obj 246 251 outlet~;
#X obj 294 179 f;
#X obj 166 58 t b f;
#X obj 234 112 f;
#X obj 347 72 t b f;
#X obj 224 26 loadbang;
#X obj 228 48 0;
#X obj 237 140 route 0 1;
#X obj 197 175 0;
#X obj 288 158 bng 15 250 50 0 empty empty empty 17 7 0 10 -262144
-1 -1;
#X connect 0 0 5 0;
#X connect 1 0 7 0;
#X connect 2 0 0 0;
#X connect 3 0 4 0;
#X connect 3 0 9 0;
#X connect 6 0 2 0;
#X connect 7 0 8 0;
#X connect 7 1 8 1;
#X connect 8 0 12 0;
#X connect 9 0 8 0;
#X connect 9 1 6 1;
#X connect 10 0 11 0;
#X connect 11 0 8 1;
#X connect 12 0 13 0;
#X connect 12 1 14 0;
#X connect 13 0 2 0;
#X connect 14 0 6 0;
#X restore 131 269 pd c1_vol_ctl;
#X obj 166 25 r c1_pinprick;
#X obj 230 49 r c1_linnea;
#X obj 317 50 r c1_sinner;
#X connect 0 0 15 0;
#X connect 1 0 0 5;
#X connect 2 0 0 6;
#X connect 3 0 0 0;
#X connect 4 0 0 1;
#X connect 5 0 0 2;
#X connect 6 0 0 3;
#X connect 7 0 0 4;
#X connect 8 0 0 2;
#X connect 9 0 0 2;
#X connect 10 0 0 3;
#X connect 11 0 0 3;
#X connect 12 0 0 4;
#X connect 13 0 0 4;
#X connect 15 0 14 0;
#X connect 16 0 15 1;
#X connect 17 0 0 2;
#X connect 18 0 0 3;
#X connect 19 0 0 4;
#X restore 66 246 pd caradisio_ch1;
#N canvas 23 522 509 428 caradisio_ch2 0;
#X obj 90 240 caradisio~ 200 0.3;
#X floatatom 243 207 5 0 0 0 - c2_t -;
#X floatatom 297 205 5 0 0 0 - c2_f -;
#X floatatom 56 150 5 0 0 0 - c2_sp1 -;
#X floatatom 107 82 5 0 0 0 - c2_sp2 -;
#X floatatom 175 139 5 0 0 0 - c2_pinprick_v -;
#X floatatom 233 134 5 0 0 0 - c2_linnea_v -;
#X floatatom 294 132 5 0 0 0 - c2_sinner_v -;
#X msg 173 87 start;
#X msg 174 109 stop;
#X msg 233 84 start;
#X msg 235 107 stop;
#X msg 290 84 start;
#X msg 291 106 stop;
#X obj 87 318 outlet~;
#X obj 88 287 *~;
#X obj 166 25 r c2_pinprick;
#X obj 230 49 r c2_linnea;
#X obj 317 50 r c2_sinner;
#N canvas 201 267 450 300 c2_vol_ctl 0;
#X obj 246 227 vline~;
#X msg 245 206 \$1 250;
#X floatatom 367 33 5 0 0 0 - - -;
#X obj 246 251 outlet~;
#X obj 294 179 f;
#X obj 166 58 t b f;
#X obj 234 112 f;
#X obj 347 72 t b f;
#X obj 224 26 loadbang;
#X obj 228 48 0;
#X obj 237 140 route 0 1;
#X obj 197 175 0;
#X obj 288 158 bng 15 250 50 0 empty empty empty 17 7 0 10 -262144
-1 -1;
#X obj 150 22 r c2_m;
#X obj 337 12 r c2_v;
#X connect 0 0 3 0;
#X connect 1 0 0 0;
#X connect 4 0 1 0;
#X connect 5 0 6 0;
#X connect 5 1 6 1;
#X connect 6 0 10 0;
#X connect 7 0 6 0;
#X connect 7 1 4 1;
#X connect 8 0 9 0;
#X connect 9 0 6 1;
#X connect 10 0 11 0;
#X connect 10 1 12 0;
#X connect 11 0 1 0;
#X connect 12 0 4 0;
#X connect 13 0 5 0;
#X connect 14 0 2 0;
#X connect 14 0 7 0;
#X restore 131 269 pd c2_vol_ctl;
#X connect 0 0 15 0;
#X connect 1 0 0 5;
#X connect 2 0 0 6;
#X connect 3 0 0 0;
#X connect 4 0 0 1;
#X connect 5 0 0 2;
#X connect 6 0 0 3;
#X connect 7 0 0 4;
#X connect 8 0 0 2;
#X connect 9 0 0 2;
#X connect 10 0 0 3;
#X connect 11 0 0 3;
#X connect 12 0 0 4;
#X connect 13 0 0 4;
#X connect 15 0 14 0;
#X connect 16 0 0 2;
#X connect 17 0 0 3;
#X connect 18 0 0 4;
#X connect 19 0 15 1;
#X restore 194 246 pd caradisio_ch2;
#N canvas 650 137 561 534 drumloop 0;
#X obj 47 421 outlet~;
#X obj 182 421 outlet~;
#X obj 114 86 soundfiler x;
#X obj 319 184 table drums1_r;
#X obj 317 159 table drums1_l;
#X msg 113 52 read -resize /home/jason/pd/patches/cure_drum_loop2.wav
drums1_l drums1_r;
#X obj 47 241 phasor~;
#X obj 32 323 tabread4~ drums1_l;
#X obj 142 196 bng 15 250 50 0 empty empty empty 17 7 0 10 -262144
-1 -1;
#X obj 164 196 loadbang;
#X obj 145 244 * 8.83;
#X floatatom 48 126 5 0 0 0 - - -;
#X msg 27 74 1;
#X obj 44 277 *~;
#X obj 36 97 / 8.83;
#X obj 184 321 tabread4~ drums1_r;
#X msg 143 221 44100;
#X obj 26 55 loadbang;
#X obj 114 26 loadbang;
#X obj 49 397 *~;
#X obj 185 396 *~;
#X obj 106 356 r drums_v;
#X obj 34 161 *~ 1;
#X floatatom 94 152 5 0 0 0 - - -;
#X obj 120 125 r drums_spd;
#X connect 5 0 2 0;
#X connect 6 0 13 0;
#X connect 7 0 19 0;
#X connect 8 0 16 0;
#X connect 9 0 16 0;
#X connect 10 0 13 1;
#X connect 12 0 14 0;
#X connect 13 0 7 0;
#X connect 13 0 15 0;
#X connect 14 0 11 0;
#X connect 14 0 22 0;
#X connect 15 0 20 0;
#X connect 16 0 10 0;
#X connect 17 0 12 0;
#X connect 18 0 5 0;
#X connect 19 0 0 0;
#X connect 20 0 1 0;
#X connect 21 0 19 1;
#X connect 21 0 20 1;
#X connect 22 0 6 0;
#X connect 23 0 22 1;
#X connect 24 0 23 0;
#X restore 215 287 pd drumloop;
#X connect 1 0 2 0;
#X connect 2 0 0 2;
#X connect 3 0 0 2;
#X connect 5 0 0 0;
#X connect 5 1 0 1;
#X connect 6 0 5 0;
#X connect 6 0 5 1;
#X connect 7 0 5 0;
#X connect 7 0 5 1;
#X connect 8 0 5 0;
#X connect 8 1 5 1;
