#N canvas 73 134 641 642 10;
#X obj 83 475 sout~;
#X obj 43 89 nrpn_in 52;
#X floatatom 63 113 5 0 0 0 - - -;
#X obj 97 209 +~;
#X obj 97 243 osc~;
#X floatatom 160 83 5 0 0 0 - - -;
#X floatatom 210 186 5 0 0 0 - - -;
#X obj 245 94 osc~ 0.2;
#X obj 206 137 *~;
#X floatatom 337 117 5 0 0 0 - - -;
#X obj 167 154 +~;
#X obj 140 59 nrpn_in 53;
#X obj 206 166 nrpn_in 55;
#X obj 168 188 *~;
#X obj 146 104 osc~;
#X obj 355 187 adc~;
#X obj 155 466 nrpn_in 113;
#X obj 155 486 range 0 25 0 1;
#X obj 244 30 nrpn_in 57;
#X floatatom 253 69 5 0 0 0 - - -;
#X obj 336 77 nrpn_in 59;
#X obj 336 97 range 0 500 0 0.1;
#X obj 244 50 range 0 500 0 0.4;
#X obj 115 430 *~ -1;
#N canvas 0 0 450 300 dverb 0;
#X obj 121 125 dline~ 51 0.9;
#X obj 229 124 dline~ 53 0.9;
#X obj 18 124 dline~ 50 0.9;
#X obj 338 123 dline~ 58 0.9;
#X obj 50 175 /~ 2;
#X floatatom 90 173 5 0 0 0 - - -;
#X obj 48 223 outlet~;
#X obj 25 20 inlet~;
#X connect 0 0 4 0;
#X connect 1 0 4 0;
#X connect 2 0 4 0;
#X connect 3 0 4 0;
#X connect 4 0 6 0;
#X connect 5 0 4 1;
#X connect 7 0 2 0;
#X connect 7 0 0 0;
#X connect 7 0 1 0;
#X connect 7 0 3 0;
#X restore 89 350 pd dverb;
#X obj 130 391 clip~ -1 1;
#X obj 43 391 clip~ -1 1;
#X connect 1 0 2 0;
#X connect 1 0 3 0;
#X connect 3 0 4 0;
#X connect 4 0 24 0;
#X connect 7 0 8 0;
#X connect 8 0 10 1;
#X connect 10 0 13 0;
#X connect 11 0 5 0;
#X connect 11 0 14 0;
#X connect 12 0 6 0;
#X connect 12 0 13 1;
#X connect 13 0 3 1;
#X connect 14 0 10 0;
#X connect 15 0 24 0;
#X connect 16 0 17 0;
#X connect 17 0 0 2;
#X connect 18 0 22 0;
#X connect 20 0 21 0;
#X connect 21 0 9 0;
#X connect 21 0 8 1;
#X connect 22 0 19 0;
#X connect 22 0 7 0;
#X connect 23 0 0 1;
#X connect 24 0 25 0;
#X connect 24 0 26 0;
#X connect 25 0 23 0;
#X connect 26 0 0 0;
