#N canvas 280 213 670 642 10;
#X obj 60 481 sout~;
#X obj 128 484 nrpn_in 113;
#X obj 128 504 range 0 25 0 1;
#X obj 128 409 *~ -1;
#X msg 315 109 bang;
#X msg 358 109 stop;
#X obj 307 187 osc~;
#X floatatom 382 143 5 0 0 0 - - -;
#X obj 231 194 bng 15 250 50 0 empty empty empty 17 7 0 10 -262144
-1 -1;
#X obj 307 137 metro 100;
#X obj 264 195 bng 15 250 50 0 empty empty empty 17 7 0 10 -262144
-1 -1;
#X obj 192 249 samplerloop~;
#X obj 307 88 loadbang;
#X obj 307 165 random 250;
#X obj 353 275 samplerloop~;
#X obj 398 226 adc~;
#X obj 407 249 bng 15 250 50 0 empty empty empty 17 7 0 10 -262144
-1 -1;
#X obj 434 247 bng 15 250 50 0 empty empty empty 17 7 0 10 -262144
-1 -1;
#N canvas 336 435 636 421 samplebank 0;
#X obj 17 98 samplerloop2~;
#X obj 12 393 outlet~;
#X obj 71 394 outlet~;
#X obj 71 365 *~ -1;
#X obj 120 99 samplerloop2~;
#X obj 17 206 *~;
#X obj 134 210 *~;
#X obj 107 161 bng 15 250 50 0 empty empty empty 17 7 0 10 -262144
-1 -1;
#X obj 222 161 bng 15 250 50 0 empty empty empty 17 7 0 10 -262144
-1 -1;
#X msg 57 28 midibase 9;
#X obj 88 1 loadbang;
#X obj 5 25 adc~;
#X obj 34 163 nrpn_in 1;
#X obj 149 163 nrpn_in 2;
#X msg 142 28 midibase 11;
#X obj 223 99 samplerloop2~;
#X obj 326 99 samplerloop2~;
#X obj 262 208 *~;
#X obj 379 212 *~;
#X obj 352 163 bng 15 250 50 0 empty empty empty 17 7 0 10 -262144
-1 -1;
#X obj 467 163 bng 15 250 50 0 empty empty empty 17 7 0 10 -262144
-1 -1;
#X obj 34 302 /~ 4;
#X obj 279 165 nrpn_in 3;
#X obj 36 182 range 0 500 0 4;
#X obj 150 182 range 0 500 0 4;
#X obj 279 185 range 0 500 0 4;
#X obj 394 185 range 0 500 0 4;
#X msg 232 29 midibase 13;
#X msg 317 29 midibase 15;
#X obj 394 165 nrpn_in 4;
#X connect 0 0 5 0;
#X connect 0 1 7 0;
#X connect 3 0 2 0;
#X connect 4 0 6 0;
#X connect 4 1 8 0;
#X connect 5 0 21 0;
#X connect 6 0 21 0;
#X connect 9 0 0 1;
#X connect 10 0 9 0;
#X connect 10 0 14 0;
#X connect 10 0 27 0;
#X connect 10 0 28 0;
#X connect 11 0 0 0;
#X connect 11 0 4 0;
#X connect 11 0 15 0;
#X connect 11 0 16 0;
#X connect 12 0 23 0;
#X connect 13 0 24 0;
#X connect 14 0 4 1;
#X connect 15 0 17 0;
#X connect 15 1 19 0;
#X connect 16 0 18 0;
#X connect 16 1 20 0;
#X connect 17 0 21 0;
#X connect 18 0 21 0;
#X connect 21 0 1 0;
#X connect 21 0 3 0;
#X connect 22 0 25 0;
#X connect 23 0 5 1;
#X connect 24 0 6 1;
#X connect 25 0 17 1;
#X connect 26 0 18 1;
#X connect 27 0 15 1;
#X connect 28 0 16 1;
#X connect 29 0 26 0;
#X coords 0 -1 1 1 250 60 1 5 90;
#X restore 261 368 pd samplebank;
#X text 210 22 bank 19 on bcr2000;
#X obj 434 299 bng 15 250 50 0 empty empty empty 17 7 0 10 -262144
-1 -1;
#X obj 271 269 bng 15 250 50 0 empty empty empty 17 7 0 10 -262144
-1 -1;
#N canvas 615 416 460 457 loopnoisebed 0;
#X obj 6 6 cnv 15 200 100 empty empty empty 20 12 0 14 -237309 -66577
0;
#X obj 270 419 outlet~;
#X obj 338 69 noise~;
#X obj 338 128 bp~ 100 5;
#X floatatom 147 63 5 0 0 0 - - -;
#X floatatom 148 44 5 0 0 0 - - -;
#X obj 351 256 bng 15 250 50 0 empty empty empty 17 7 0 10 -262144
-1 -1;
#X obj 391 256 bng 15 250 50 0 empty empty empty 17 7 0 10 -262144
-1 -1;
#X obj 337 172 *~;
#X floatatom 148 26 5 0 0 0 - - -;
#X obj 339 196 clip~ -1 1;
#X obj 312 283 samplerloop~;
#X obj 150 81 bng 15 250 50 0 empty empty empty 17 7 0 10 -64357 -1
-1;
#X obj 14 43 hsl 128 15 0 500 0 0 empty empty empty -2 -8 0 10 -262144
-1 -1 7442 1;
#X obj 14 62 hsl 128 15 0 500 0 0 empty empty empty -2 -8 0 10 -262144
-1 -1 3429 1;
#X obj 217 16 nrpn_sync 1 500;
#X obj 14 25 hsl 128 15 0 500 0 0 empty empty empty -2 -8 0 10 -262144
-1 -1 2438 1;
#X obj 231 37 route set;
#X obj 219 61 range 0 500 0 25;
#X obj 32 142 route set;
#X obj 162 143 route set;
#X obj 162 166 range 0 500 0 25;
#X obj 18 121 nrpn_sync 80 500;
#X obj 20 166 range 0 500 0 2500;
#X obj 148 122 nrpn_sync 88 500;
#X obj 270 398 *~;
#X obj 324 319 nrpn_sync 96 500;
#X obj 325 341 route set;
#X obj 325 363 range 0 500 0 1;
#X obj 14 81 hsl 128 15 0 500 0 0 empty empty empty -2 -8 0 10 -140177
-262081 -1 0 1;
#X floatatom 341 385 5 0 0 0 - - -;
#X obj 49 246 ctlin 64;
#X obj 49 274 select 127;
#X text 14 7 gah of the torrent baleel;
#X connect 2 0 3 0;
#X connect 3 0 8 0;
#X connect 4 0 3 2;
#X connect 5 0 3 1;
#X connect 6 0 11 1;
#X connect 7 0 11 2;
#X connect 8 0 10 0;
#X connect 9 0 8 1;
#X connect 10 0 11 0;
#X connect 11 0 25 0;
#X connect 11 1 12 0;
#X connect 13 0 22 0;
#X connect 14 0 24 0;
#X connect 15 0 16 0;
#X connect 15 0 17 0;
#X connect 16 0 15 0;
#X connect 16 0 18 0;
#X connect 17 0 18 0;
#X connect 18 0 9 0;
#X connect 19 0 23 0;
#X connect 20 0 21 0;
#X connect 21 0 4 0;
#X connect 22 0 19 0;
#X connect 22 0 13 0;
#X connect 23 0 5 0;
#X connect 24 0 20 0;
#X connect 24 0 14 0;
#X connect 25 0 1 0;
#X connect 26 0 27 0;
#X connect 26 0 29 0;
#X connect 27 0 28 0;
#X connect 28 0 25 1;
#X connect 28 0 30 0;
#X connect 29 0 26 0;
#X connect 29 0 28 0;
#X connect 31 0 32 0;
#X connect 31 0 6 0;
#X coords 0 -1 1 1 202 103 1 5 5;
#X restore 22 53 pd loopnoisebed;
#X connect 1 0 2 0;
#X connect 2 0 0 2;
#X connect 3 0 0 1;
#X connect 4 0 9 0;
#X connect 5 0 9 0;
#X connect 6 0 11 0;
#X connect 7 0 13 1;
#X connect 8 0 11 1;
#X connect 9 0 13 0;
#X connect 10 0 11 2;
#X connect 11 0 3 0;
#X connect 11 0 0 0;
#X connect 11 1 21 0;
#X connect 12 0 9 0;
#X connect 13 0 6 0;
#X connect 14 0 3 0;
#X connect 14 0 0 0;
#X connect 14 1 20 0;
#X connect 15 0 14 0;
#X connect 16 0 14 1;
#X connect 17 0 14 2;
#X connect 18 0 0 0;
#X connect 18 1 0 1;
#X connect 22 0 0 0;
#X connect 22 0 3 0;
