#N canvas 189 33 624 557 10;
#X obj 41 395 mout~;
#X obj 169 63 table rndt;
#X obj 39 187 tabosc4~ rndt;
#X floatatom 39 68 5 0 0 0 - - -;
#X obj 207 359 tabwrite rndt;
#X obj 211 291 random 20000;
#X obj 211 313 / 10000;
#X obj 213 335 - 1;
#X obj 219 260 t b f;
#X obj 221 206 metro 100;
#X floatatom 279 188 5 0 0 0 - - -;
#X obj 208 173 bng 15 250 50 0 empty empty empty 0 -6 0 8 -262144 -1
-1;
#X msg 229 157 stop;
#X msg 169 29 \; rndt resize 515;
#X obj 221 232 random 515;
#X obj 327 274 metro 100;
#X floatatom 385 248 5 0 0 0 - - -;
#X obj 315 242 bng 15 250 50 0 empty empty empty 0 -6 0 8 -262144 -1
-1;
#X msg 334 217 stop;
#X obj 324 360 tabwrite rndt;
#N canvas 0 0 566 522 cntgen 0;
#X msg 124 26 bang;
#X obj 123 4 inlet;
#X obj 126 51 random 515;
#X floatatom 136 73 5 0 0 0 - - -;
#X obj 179 134 - 515;
#X obj 179 156 * -1;
#X obj 134 187 random;
#X floatatom 164 242 5 0 0 0 - - -;
#X obj 138 215 +;
#X obj 134 255 -;
#X floatatom 150 285 5 0 0 0 - - -;
#X obj 50 318 until;
#X obj 50 339 f;
#X obj 84 338 + 1;
#X obj 137 467 outlet;
#X obj 96 367 +;
#X msg 89 300 0;
#X obj 91 103 t b f f f f;
#X obj 330 98 / 10000;
#X floatatom 341 122 5 0 0 0 - - -;
#X obj 404 206 / 10000;
#X obj 303 297 -;
#X floatatom 325 341 5 0 0 0 - - -;
#X obj 340 412 /;
#X obj 54 278 t f b b f;
#X obj 108 424 t b f;
#X obj 288 461 f;
#X obj 322 460 +;
#X obj 289 485 outlet;
#X floatatom 149 326 5 0 0 0 - - -;
#X floatatom 347 434 5 0 0 0 - - -;
#X obj 303 319 * -1;
#X obj 329 76 random 20000;
#X obj 406 184 random 20000;
#X obj 369 186 - 1;
#X floatatom 347 212 5 0 0 0 - - -;
#X obj 410 232 - 1;
#X floatatom 414 254 5 0 0 0 - - -;
#X text 378 288 bug in this?;
#X obj 336 160 t f f b;
#X connect 0 0 2 0;
#X connect 1 0 0 0;
#X connect 2 0 3 0;
#X connect 2 0 17 0;
#X connect 4 0 5 0;
#X connect 5 0 6 1;
#X connect 6 0 8 0;
#X connect 8 0 7 0;
#X connect 8 0 9 0;
#X connect 9 0 10 0;
#X connect 9 0 24 0;
#X connect 11 0 12 0;
#X connect 12 0 13 0;
#X connect 12 0 15 0;
#X connect 13 0 12 1;
#X connect 15 0 25 0;
#X connect 16 0 12 1;
#X connect 17 0 6 0;
#X connect 17 1 15 1;
#X connect 17 2 9 1;
#X connect 17 3 8 1;
#X connect 17 4 4 0;
#X connect 18 0 19 0;
#X connect 18 0 39 0;
#X connect 20 0 36 0;
#X connect 20 0 21 1;
#X connect 21 0 31 0;
#X connect 23 0 30 0;
#X connect 23 0 27 1;
#X connect 24 0 11 0;
#X connect 24 1 16 0;
#X connect 24 2 32 0;
#X connect 24 3 23 1;
#X connect 24 3 29 0;
#X connect 25 0 26 0;
#X connect 25 1 14 0;
#X connect 26 0 27 0;
#X connect 26 0 28 0;
#X connect 27 0 26 1;
#X connect 31 0 23 0;
#X connect 31 0 22 0;
#X connect 32 0 18 0;
#X connect 33 0 20 0;
#X connect 34 0 26 1;
#X connect 34 0 35 0;
#X connect 36 0 37 0;
#X connect 39 0 21 0;
#X connect 39 1 34 0;
#X connect 39 2 33 0;
#X restore 327 333 pd cntgen;
#X msg 343 299 bang;
#X obj 40 283 dline~ 500 0.8;
#X obj 68 112 osc~ 1;
#X obj 39 154 +~;
#X text 65 156 vib;
#X floatatom 86 85 5 0 0 0 - - -;
#X obj 169 8 loadbang;
#X obj 453 275 metro 100;
#X floatatom 511 249 5 0 0 0 - - -;
#X obj 435 243 bng 15 250 50 0 empty empty empty 0 -6 0 8 -262144 -1
-1;
#X msg 460 218 stop;
#X obj 450 361 tabwrite rndt;
#X msg 469 300 bang;
#N canvas 510 363 566 522 curvgen 0;
#X obj 51 19 inlet;
#X obj 58 485 outlet;
#X obj 256 492 outlet;
#X obj 342 56 table ssref;
#X obj 343 14 loadbang;
#N canvas 304 517 342 193 setup 0;
#X obj 33 18 inlet;
#X msg 78 61 \; ssref resize 515;
#X msg 32 133 \; ssref normalize;
#X obj 33 40 t b b b;
#X msg 55 97 \; ssref sinesum 512 0 1;
#X connect 0 0 3 0;
#X connect 3 0 2 0;
#X connect 3 1 4 0;
#X connect 3 2 1 0;
#X restore 343 36 pd setup;
#X msg 81 52 bang;
#N canvas 142 204 295 431 randrange 0;
#X obj 80 69 random 512;
#X text 91 50 start;
#X obj 94 145 512;
#X obj 116 175 -;
#X floatatom 97 93 5 0 0 0 - - -;
#X obj 117 226 t b f;
#X obj 127 262 random;
#X obj 132 323 +;
#X obj 80 116 t f b f f;
#X obj 41 23 inlet;
#X obj 73 391 outlet;
#X obj 150 394 outlet;
#X text 156 145 <- hard coded :(;
#X connect 0 0 4 0;
#X connect 0 0 8 0;
#X connect 2 0 3 0;
#X connect 3 0 5 0;
#X connect 5 0 6 0;
#X connect 5 1 6 1;
#X connect 6 0 7 0;
#X connect 7 0 11 0;
#X connect 8 0 10 0;
#X connect 8 1 2 0;
#X connect 8 2 3 1;
#X connect 8 3 7 1;
#X connect 9 0 0 0;
#X restore 123 119 pd randrange;
#X floatatom 132 141 5 0 0 0 - - -;
#X floatatom 207 146 5 0 0 0 - - -;
#N canvas 142 204 295 431 randrange 0;
#X obj 80 69 random 512;
#X text 91 50 start;
#X obj 94 145 512;
#X obj 116 175 -;
#X floatatom 97 93 5 0 0 0 - - -;
#X obj 117 226 t b f;
#X obj 127 262 random;
#X obj 132 323 +;
#X obj 80 116 t f b f f;
#X obj 41 23 inlet;
#X obj 73 391 outlet;
#X obj 150 394 outlet;
#X text 156 145 <- hard coded :(;
#X connect 0 0 4 0;
#X connect 0 0 8 0;
#X connect 2 0 3 0;
#X connect 3 0 5 0;
#X connect 5 0 6 0;
#X connect 5 1 6 1;
#X connect 6 0 7 0;
#X connect 7 0 11 0;
#X connect 8 0 10 0;
#X connect 8 1 2 0;
#X connect 8 2 3 1;
#X connect 8 3 7 1;
#X connect 9 0 0 0;
#X restore 253 124 pd randrange;
#X floatatom 264 147 5 0 0 0 - - -;
#X floatatom 342 151 5 0 0 0 - - -;
#X obj 81 76 t b b b;
#X obj 92 254 until;
#X obj 96 190 -;
#X floatatom 111 234 5 0 0 0 - - -;
#X obj 96 211 * -1;
#X obj 191 164 t f f;
#X floatatom 212 371 5 0 0 0 - - -;
#X obj 192 347 range 0 100 0 100;
#X obj 93 285 f;
#X obj 111 160 t f f f;
#X obj 124 285 + 1;
#X obj 186 400 tabread4 ssref;
#X obj 67 314 t f f;
#X text 135 103 to;
#X text 278 110 from;
#X connect 0 0 13 0;
#X connect 4 0 5 0;
#X connect 6 0 13 0;
#X connect 7 0 8 0;
#X connect 7 0 22 0;
#X connect 7 1 9 0;
#X connect 7 1 18 0;
#X connect 10 0 11 0;
#X connect 10 0 20 3;
#X connect 10 1 12 0;
#X connect 10 1 20 4;
#X connect 13 1 7 0;
#X connect 13 2 10 0;
#X connect 14 0 21 0;
#X connect 15 0 17 0;
#X connect 17 0 16 0;
#X connect 17 0 14 0;
#X connect 18 0 15 1;
#X connect 18 1 20 2;
#X connect 20 0 19 0;
#X connect 20 0 24 0;
#X connect 21 0 23 0;
#X connect 21 0 25 0;
#X connect 22 0 15 0;
#X connect 22 1 21 1;
#X connect 22 2 20 1;
#X connect 23 0 21 1;
#X connect 24 0 1 0;
#X connect 25 0 2 0;
#X connect 25 1 20 0;
#X restore 453 335 pd curvgen;
#X connect 2 0 22 0;
#X connect 3 0 24 0;
#X connect 5 0 6 0;
#X connect 6 0 7 0;
#X connect 7 0 4 0;
#X connect 8 0 5 0;
#X connect 8 1 4 1;
#X connect 9 0 14 0;
#X connect 10 0 9 1;
#X connect 11 0 9 0;
#X connect 12 0 9 0;
#X connect 14 0 8 0;
#X connect 15 0 20 0;
#X connect 16 0 15 1;
#X connect 17 0 15 0;
#X connect 18 0 15 0;
#X connect 20 0 19 1;
#X connect 20 1 19 0;
#X connect 21 0 20 0;
#X connect 22 0 0 0;
#X connect 23 0 24 1;
#X connect 24 0 2 0;
#X connect 26 0 23 0;
#X connect 27 0 13 0;
#X connect 28 0 34 0;
#X connect 29 0 28 1;
#X connect 30 0 28 0;
#X connect 31 0 28 0;
#X connect 33 0 34 0;
#X connect 34 0 32 0;
#X connect 34 1 32 1;
