#N canvas 115 585 689 538 10;
#X obj 125 355 sout~;
#X obj 191 453 tgl 15 0 empty empty empty 17 7 0 10 -262144 -1 -1 1
1;
#X obj 129 322 *~ 1;
#X obj 193 430 loadbang;
#N canvas 1119 111 769 753 synthy01 1;
#X obj 64 36 bng 15 250 50 0 empty empty empty 17 7 0 10 -262144 -1
-1;
#X obj 90 81 bng 15 250 50 0 empty empty empty 17 7 0 10 -262144 -1
-1;
#X obj 65 137 hradio 15 1 0 16 empty empty empty 0 -8 0 10 -86853 -257985
-1 12;
#X obj 65 118 % 16;
#X obj 66 96 f;
#X obj 96 95 + 1;
#X obj 65 59 metro 500;
#X floatatom 90 160 5 0 0 0 - - -, f 5;
#X floatatom 125 33 5 0 0 0 - - -, f 5;
#X text 331 66 need persistance;
#X obj 111 732 outlet~;
#X obj 114 649 *~ 1;
#X text 335 81 memento? textfile?;
#X obj 66 209 route 0 1 2 3 4 5 6 7, f 63;
#X obj 63 11 loadbang;
#X text 412 590 save;
#X obj 394 588 bng 15 250 50 0 empty empty empty 17 7 0 10 -262144
-1 -1;
#X obj 119 182 r sind;
#X obj 66 277 stripe;
#N canvas 23 577 633 562 saveload 0;
#X obj 53 447 list;
#X obj 53 405 bng 15 250 50 0 empty empty empty 17 7 0 10 -262144 -1
-1;
#X obj 53 423 t b b;
#X obj 231 482 textfile;
#X obj 231 507 print texty;
#X obj 53 468 list prepend;
#X msg 125 442 add;
#X obj 53 489 route list;
#X msg 226 164 clear;
#X obj 46 383 t b a;
#X msg 386 170 rewind;
#X obj 170 212 until;
#X msg 169 169 8;
#X obj 170 259 bangct;
#X floatatom 178 280 5 0 0 0 - - -, f 5;
#X msg 182 235 reset;
#X obj 169 190 t f b;
#X msg 169 301 \$1 save;
#X obj 169 324 s sind;
#X obj 399 339 textfile;
#X obj 489 353 bng 15 250 50 0 empty empty empty 17 7 0 10 -262144
-1 -1;
#X obj 406 377 print readly;
#X obj 311 201 until;
#X obj 333 251 bangct;
#X msg 352 226 reset;
#X obj 334 388 list;
#X obj 355 365 list;
#X obj 334 304 t f b b;
#X msg 356 337 load;
#X obj 365 410 s sind;
#X obj 50 29 inlet;
#X obj 159 16 inlet;
#X obj 342 24 inlet;
#X obj 345 85 makefilename /home/jason/toorcamp/tc-savestate%d.txt
;
#X floatatom 346 63 5 0 0 0 - - -, f 5;
#X msg 347 117 read \$1;
#X obj 165 430 makefilename /home/jason/toorcamp/tc-savestate%d.txt
;
#X msg 165 452 write \$1;
#X text 386 27 load;
#X text 204 14 save;
#X obj 140 79 t f b b b;
#X obj 88 166 r v_vol_s;
#X obj 88 196 f;
#X obj 536 397 spigot;
#X obj 346 143 t b b b b a b;
#X msg 524 280 0;
#X obj 453 251 t b b;
#X msg 486 280 1;
#X msg 311 179 7;
#X obj 552 424 s v_vol_r;
#X connect 0 0 5 0;
#X connect 1 0 2 0;
#X connect 2 0 0 0;
#X connect 2 1 6 0;
#X connect 3 0 4 0;
#X connect 5 0 7 0;
#X connect 6 0 5 1;
#X connect 7 0 3 0;
#X connect 8 0 3 0;
#X connect 9 0 1 0;
#X connect 9 1 0 1;
#X connect 10 0 19 0;
#X connect 11 0 13 0;
#X connect 12 0 16 0;
#X connect 13 0 14 0;
#X connect 13 0 17 0;
#X connect 15 0 13 0;
#X connect 16 0 11 0;
#X connect 16 1 15 0;
#X connect 17 0 18 0;
#X connect 19 0 21 0;
#X connect 19 0 26 1;
#X connect 19 0 43 0;
#X connect 19 1 20 0;
#X connect 22 0 23 0;
#X connect 23 0 27 0;
#X connect 24 0 23 0;
#X connect 25 0 29 0;
#X connect 26 0 25 1;
#X connect 27 0 25 0;
#X connect 27 1 28 0;
#X connect 27 2 19 0;
#X connect 28 0 26 0;
#X connect 30 0 9 0;
#X connect 31 0 40 0;
#X connect 32 0 34 0;
#X connect 33 0 35 0;
#X connect 34 0 33 0;
#X connect 35 0 44 0;
#X connect 36 0 37 0;
#X connect 37 0 3 0;
#X connect 40 0 36 0;
#X connect 40 1 42 0;
#X connect 40 2 12 0;
#X connect 40 3 8 0;
#X connect 41 0 42 1;
#X connect 42 0 9 0;
#X connect 43 0 49 0;
#X connect 44 0 46 0;
#X connect 44 1 48 0;
#X connect 44 2 24 0;
#X connect 44 3 10 0;
#X connect 44 4 19 0;
#X connect 44 5 45 0;
#X connect 45 0 43 1;
#X connect 46 0 19 0;
#X connect 46 1 47 0;
#X connect 47 0 43 1;
#X connect 48 0 22 0;
#X restore 270 686 pd saveload;
#X floatatom 136 101 5 0 0 0 - - -, f 5;
#X msg 128 9 stop;
#X obj 395 653 f;
#X floatatom 414 633 5 0 0 0 - - -, f 5;
#X obj 564 664 hradio 15 1 0 8 empty empty empty 0 -8 0 10 -262144
-1 -1 3;
#X floatatom 574 687 5 0 0 0 - - -, f 5;
#X text 564 646 load;
#X obj 418 615 hradio 15 1 0 8 empty empty empty 0 -8 0 10 -262144
-1 -1 0;
#N canvas 208 247 454 376 randomize 0;
#X obj 36 17 inlet;
#X msg 209 33 rewind;
#X msg 136 78 8;
#X obj 136 100 until;
#X obj 155 147 bangct;
#X msg 174 122 reset;
#X obj 157 251 list;
#X obj 178 228 list;
#X obj 164 308 s sind;
#X obj 293 286 print;
#X obj 157 167 t f b;
#X msg 179 200 rand;
#X obj 111 42 t b b;
#X connect 0 0 12 0;
#X connect 2 0 3 0;
#X connect 3 0 4 0;
#X connect 4 0 10 0;
#X connect 5 0 4 0;
#X connect 6 0 9 0;
#X connect 6 0 8 0;
#X connect 7 0 6 1;
#X connect 10 0 6 0;
#X connect 10 1 11 0;
#X connect 11 0 7 0;
#X connect 12 0 2 0;
#X connect 12 1 5 0;
#X restore 556 311 pd randomize;
#X obj 555 290 bng 15 250 50 0 empty empty empty 17 7 0 10 -262144
-1 -1;
#X obj 231 277 stripe;
#X obj 176 277 stripe;
#X obj 451 277 stripe;
#X obj 286 277 stripe;
#X obj 396 277 stripe;
#X obj 341 277 stripe;
#X obj 121 277 stripe;
#X obj 113 706 *~;
#X obj 137 688 hsl 128 15 0 5 0 0 v_vol_s v_vol_r empty -2 -8 0 10
-262144 -1 -1 100 1;
#X floatatom 150 710 5 0 0 0 - - -, f 5;
#X connect 0 0 6 0;
#X connect 2 0 7 0;
#X connect 2 0 13 0;
#X connect 3 0 2 0;
#X connect 4 0 3 0;
#X connect 4 0 5 0;
#X connect 5 0 4 1;
#X connect 6 0 1 0;
#X connect 6 0 4 0;
#X connect 8 0 6 1;
#X connect 11 0 37 0;
#X connect 13 0 18 0;
#X connect 13 1 36 0;
#X connect 13 2 31 0;
#X connect 13 3 30 0;
#X connect 13 4 33 0;
#X connect 13 5 35 0;
#X connect 13 6 34 0;
#X connect 13 7 32 0;
#X connect 14 0 0 0;
#X connect 16 0 22 0;
#X connect 17 0 13 0;
#X connect 18 0 11 0;
#X connect 18 1 19 0;
#X connect 20 0 3 1;
#X connect 21 0 6 0;
#X connect 22 0 19 1;
#X connect 23 0 22 1;
#X connect 24 0 25 0;
#X connect 24 0 19 2;
#X connect 27 0 23 0;
#X connect 29 0 28 0;
#X connect 30 0 11 0;
#X connect 30 1 19 0;
#X connect 31 0 11 0;
#X connect 31 1 19 0;
#X connect 32 0 11 0;
#X connect 32 1 19 0;
#X connect 33 0 11 0;
#X connect 33 1 19 0;
#X connect 34 0 11 0;
#X connect 34 1 19 0;
#X connect 35 0 11 0;
#X connect 35 1 19 0;
#X connect 36 0 11 0;
#X connect 36 1 19 0;
#X connect 37 0 10 0;
#X connect 38 0 39 0;
#X connect 38 0 37 1;
#X restore 338 74 pd synthy01;
#X obj 337 139 *~;
#X obj 361 121 hsl 128 15 0 5 0 0 empty empty empty -2 -8 0 10 -262144
-1 -1 11100 1;
#X floatatom 374 143 5 0 0 0 - - -, f 5;
#X obj 359 103 tgl 15 0 empty empty empty 17 7 0 10 -262144 -1 -1 0
1;
#X obj 191 386 ctlin 103;
#X obj 191 407 range 0 100 0 1;
#N canvas 119 160 632 768 mic-in 0;
#X obj 32 31 adc~;
#X obj 31 170 *~;
#X obj 55 152 hsl 128 15 0 1 0 0 empty empty empty -2 -8 0 10 -262144
-1 -1 0 1;
#X floatatom 68 174 5 0 0 0 - - -, f 5;
#N canvas 686 482 654 292 dseg 0;
#X obj 21 51 hsl 128 15 10 1600 0 0 empty empty empty -2 -8 0 10 -262144
-1 -1 11191 1;
#X floatatom 161 52 5 0 0 0 - - -, f 5;
#X obj 298 218 dline2~ 0.85;
#X floatatom 160 68 5 0 1 0 - - -, f 5;
#X obj 21 13 hsl 128 15 10 500 0 0 empty empty empty -2 -8 0 10 -262144
-1 -1 2700 1;
#X floatatom 159 15 5 0 0 0 - - -, f 5;
#X obj 300 147 dline2~ 0.85;
#X floatatom 160 32 5 0 1 0 - - -, f 5;
#X obj 347 114 sig~ 17;
#X obj 334 188 sig~ 42;
#X obj 298 256 outlet~;
#X obj 299 24 inlet~;
#X obj 21 30 hsl 128 15 0 1 0 0 empty empty empty -2 -8 0 10 -262144
-1 -1 6900 1;
#X obj 21 69 hsl 128 15 0 1 0 0 empty empty empty -2 -8 0 10 -262144
-1 -1 12700 1;
#X obj 436 125 \$1;
#X obj 436 98 loadbang;
#X text 438 150 todo....;
#X text 208 13 pre-t;
#X text 208 29 pre-f;
#X text 208 50 post-t;
#X text 208 67 post-f;
#X obj 399 16 inlet;
#X obj 442 17 inlet;
#X obj 488 17 inlet;
#X obj 534 18 inlet;
#X obj 95 240 change;
#X obj 116 215 change;
#X obj 129 190 change;
#X obj 150 165 change;
#X connect 0 0 1 0;
#X connect 1 0 9 0;
#X connect 1 0 26 0;
#X connect 2 0 10 0;
#X connect 3 0 2 2;
#X connect 3 0 25 0;
#X connect 4 0 5 0;
#X connect 5 0 8 0;
#X connect 5 0 28 0;
#X connect 6 0 2 0;
#X connect 7 0 6 2;
#X connect 7 0 27 0;
#X connect 8 0 6 1;
#X connect 9 0 2 1;
#X connect 11 0 6 0;
#X connect 12 0 7 0;
#X connect 13 0 3 0;
#X connect 15 0 14 0;
#X connect 21 0 5 0;
#X connect 22 0 7 0;
#X connect 23 0 1 0;
#X connect 24 0 3 0;
#X connect 25 0 13 0;
#X connect 26 0 0 0;
#X connect 27 0 12 0;
#X connect 28 0 4 0;
#X coords 0 -1 1 1 260 77 1 10 10;
#X restore 30 536 pd dseg;
#X obj 53 134 tgl 15 0 empty empty empty 17 7 0 10 -262144 -1 -1 0
1;
#X obj 36 700 *~;
#X obj 60 682 hsl 128 15 0 1 0 0 empty empty empty -2 -8 0 10 -262144
-1 -1 0 1;
#X floatatom 73 704 5 0 0 0 - - -, f 5;
#X obj 58 664 tgl 15 0 empty empty empty 17 7 0 10 -262144 -1 -1 0
1;
#X obj 85 636 ctlin 96;
#X floatatom 62 81 5 0 0 0 - - -, f 5;
#X obj 36 725 outlet~;
#X obj 227 136 select 127;
#X obj 93 430 ctlin 80;
#X obj 225 111 ctlin 25;
#X obj 375 221 bng 15 250 50 0 empty empty empty 17 7 0 10 -262144
-1 -1;
#X obj 332 224 bng 15 250 50 0 empty empty empty 17 7 0 10 -262144
-1 -1;
#X obj 199 228 bng 15 250 50 0 empty empty empty 17 7 0 10 -262144
-1 -1;
#X obj 156 231 bng 15 250 50 0 empty empty empty 17 7 0 10 -262144
-1 -1;
#X obj 93 453 range 0 127 0 500;
#X obj 110 504 range 0 127 0 1;
#X obj 285 506 range 0 127 0 1;
#X msg 231 186 0;
#X msg 269 185 1;
#X msg 304 185 1;
#X msg 340 185 0;
#X obj 51 100 range 0 100 0 1;
#X floatatom 132 54 5 0 0 0 - - -, f 5;
#X obj 121 33 ctlin 0;
#X obj 52 60 ctlin 8;
#X obj 192 28 select 127;
#X obj 168 75 line;
#X msg 194 49 1 100;
#X msg 243 49 0 100;
#X obj 224 461 range 0 127 0 1600;
#X obj 285 485 ctlin 89;
#X obj 109 483 ctlin 88;
#X obj 224 439 ctlin 81;
#X obj 87 656 range 0 50 0 1;
#X connect 0 0 1 0;
#X connect 1 0 4 0;
#X connect 2 0 3 0;
#X connect 2 0 1 1;
#X connect 4 0 6 0;
#X connect 5 0 2 0;
#X connect 6 0 12 0;
#X connect 7 0 8 0;
#X connect 7 0 6 1;
#X connect 9 0 7 0;
#X connect 10 0 39 0;
#X connect 13 0 23 0;
#X connect 13 0 25 0;
#X connect 13 1 24 0;
#X connect 13 1 26 0;
#X connect 14 0 20 0;
#X connect 15 0 13 0;
#X connect 20 0 4 1;
#X connect 21 0 4 2;
#X connect 22 0 4 4;
#X connect 23 0 19 0;
#X connect 24 0 18 0;
#X connect 25 0 17 0;
#X connect 26 0 16 0;
#X connect 27 0 2 0;
#X connect 29 0 28 0;
#X connect 29 0 31 0;
#X connect 30 0 11 0;
#X connect 30 0 27 0;
#X connect 31 0 33 0;
#X connect 31 1 34 0;
#X connect 32 0 2 0;
#X connect 33 0 32 0;
#X connect 34 0 32 0;
#X connect 35 0 4 3;
#X connect 36 0 22 0;
#X connect 37 0 21 0;
#X connect 38 0 35 0;
#X connect 39 0 7 0;
#X restore 53 48 pd mic-in;
#N canvas 105 246 642 798 grinder 0;
#X obj 111 213 noise~;
#X obj 176 165 hsl 128 15 20 2000 0 0 empty empty empty -2 -8 0 10
-262144 -1 -1 8296 1;
#X obj 169 58 env~;
#X obj 168 79 dbtorms;
#X floatatom 204 210 5 0 0 0 - - -, f 5;
#X obj 111 235 bp~ 1000 2;
#X floatatom 202 147 5 0 0 0 - - -, f 5;
#X obj 169 125 + 500;
#X obj 169 103 * 1000;
#X obj 167 34 tri~ 0.02;
#X obj 207 191 hsl 128 15 0 20 0 0 empty empty empty -2 -8 0 10 -262144
-1 -1 3436 1;
#X obj 136 284 hsl 128 15 0 3 0 0 empty empty empty -2 -8 0 10 -262144
-1 -1 10608 1;
#X floatatom 149 306 5 0 0 0 - - -, f 5;
#N canvas 1202 334 595 303 dseg 0;
#X obj 21 51 hsl 128 15 10 500 0 0 empty empty empty -2 -8 0 10 -262144
-1 -1 2088 1;
#X floatatom 161 52 5 0 0 0 - - -, f 5;
#X floatatom 160 68 5 0 1 0 - - -, f 5;
#X obj 21 13 hsl 128 15 10 500 0 0 empty empty empty -2 -8 0 10 -262144
-1 -1 1986 1;
#X floatatom 159 15 5 0 0 0 - - -, f 5;
#X floatatom 160 32 5 0 1 0 - - -, f 5;
#X obj 298 256 outlet~;
#X obj 299 24 inlet~;
#X obj 21 30 hsl 128 15 0 1 0 0 empty empty empty -2 -8 0 10 -262144
-1 -1 8000 1;
#X obj 21 69 hsl 128 15 0 1 0 0 empty empty empty -2 -8 0 10 -262144
-1 -1 8700 1;
#X obj 490 151 \$1;
#X obj 490 124 loadbang;
#X text 492 176 todo....;
#X text 208 13 pre-t;
#X text 208 29 pre-f;
#X text 208 50 post-t;
#X text 208 67 post-f;
#X obj 347 114 sig~ 33;
#X obj 300 147 dline2~ 0.57;
#X obj 298 218 dline2~ 0.72;
#X obj 334 188 sig~ 49;
#X obj 360 24 inlet;
#X obj 402 23 inlet;
#X obj 447 21 inlet;
#X obj 489 20 inlet;
#X obj 124 129 change;
#X obj 157 160 change;
#X obj 178 192 change;
#X obj 211 223 change;
#X connect 0 0 1 0;
#X connect 1 0 20 0;
#X connect 1 0 27 0;
#X connect 2 0 19 2;
#X connect 2 0 28 0;
#X connect 3 0 4 0;
#X connect 4 0 17 0;
#X connect 4 0 25 0;
#X connect 5 0 18 2;
#X connect 5 0 26 0;
#X connect 7 0 18 0;
#X connect 8 0 5 0;
#X connect 9 0 2 0;
#X connect 11 0 10 0;
#X connect 17 0 18 1;
#X connect 18 0 19 0;
#X connect 19 0 6 0;
#X connect 20 0 19 1;
#X connect 21 0 4 0;
#X connect 22 0 5 0;
#X connect 23 0 1 0;
#X connect 24 0 2 0;
#X connect 25 0 3 0;
#X connect 26 0 8 0;
#X connect 27 0 0 0;
#X connect 28 0 9 0;
#X coords 0 -1 1 1 260 77 1 10 10;
#X restore 107 578 pd dseg;
#X obj 134 266 tgl 15 0 empty empty empty 17 7 0 10 -262144 -1 -1 0
1;
#X obj 108 725 *~;
#X obj 132 707 hsl 128 15 0 1 0 0 empty empty empty -2 -8 0 10 -262144
-1 -1 0 1;
#X floatatom 145 729 5 0 0 0 - - -, f 5;
#X obj 130 689 tgl 15 0 empty empty empty 17 7 0 10 -262144 -1 -1 0
1;
#X obj 108 750 outlet~;
#X obj 159 681 range 0 100 0 1;
#X obj 112 302 *~;
#X obj 165 474 range 0 127 0 500;
#X obj 182 525 range 0 127 0 1;
#X obj 357 527 range 0 127 0 1;
#X obj 165 451 ctlin 82;
#X obj 296 460 ctlin 83;
#X obj 181 504 ctlin 90;
#X obj 357 506 ctlin 91;
#X obj 296 482 range 0 127 0 500;
#X obj 158 659 ctlin 98;
#X obj 270 255 range 0 85 0 3;
#X obj 270 233 ctlin 10;
#X obj 342 138 ctlin 9;
#X obj 344 161 range 0 85 20 0;
#X obj 292 30 ctlin 97;
#X floatatom 300 80 5 0 0 0 - - -, f 5;
#X obj 293 55 range 0 50 0.005 0.03;
#X connect 0 0 5 0;
#X connect 1 0 5 1;
#X connect 2 0 3 0;
#X connect 3 0 8 0;
#X connect 4 0 5 2;
#X connect 5 0 21 0;
#X connect 7 0 6 0;
#X connect 7 0 1 0;
#X connect 8 0 7 0;
#X connect 9 0 2 0;
#X connect 10 0 4 0;
#X connect 11 0 12 0;
#X connect 11 0 21 1;
#X connect 13 0 15 0;
#X connect 14 0 11 0;
#X connect 15 0 19 0;
#X connect 16 0 17 0;
#X connect 16 0 15 1;
#X connect 18 0 16 0;
#X connect 20 0 16 0;
#X connect 21 0 13 0;
#X connect 22 0 13 1;
#X connect 23 0 13 2;
#X connect 24 0 13 4;
#X connect 25 0 22 0;
#X connect 26 0 29 0;
#X connect 27 0 23 0;
#X connect 28 0 24 0;
#X connect 29 0 13 3;
#X connect 30 0 20 0;
#X connect 31 0 11 0;
#X connect 32 0 31 0;
#X connect 33 0 34 0;
#X connect 34 0 10 0;
#X connect 35 0 37 0;
#X connect 37 0 9 0;
#X connect 37 0 36 0;
#X restore 157 47 pd grinder;
#N canvas 806 154 641 586 fiasco 0;
#X obj 53 545 outlet~;
#N canvas 140 218 608 397 gh2 0;
#X obj 118 111 soundfiler;
#X obj 116 58 loadbang;
#X msg 118 79 read -resize /home/jason/toorcamp/gonghit02.wav gh2;
#N canvas 0 50 450 250 (subpatch) 0;
#X array gh2 493056 float 2;
#X coords 0 1 493056 -1 200 140 1;
#X restore 249 121 graph;
#X obj 38 182 bng 15 250 50 0 empty empty empty 17 7 0 10 -262144 -1
-1;
#X text 57 181 play;
#X floatatom 173 235 5 0 0 0 - - -, f 5;
#N canvas 69 137 569 569 bankplayer 0;
#X obj 221 493 outlet~;
#X obj 190 22 inlet;
#X obj 68 21 inlet;
#X obj 348 18 inlet;
#X obj 77 74 bangloop 10;
#X obj 38 50 bng 15 250 50 0 empty empty empty 17 7 0 10 -262144 -1
-1;
#X obj 64 152 route 0 1 2 3 4 5 6 7 8 9, f 65;
#X floatatom 83 96 5 0 0 0 - - -, f 5;
#X obj 191 51 s gh2samp;
#X obj 343 48 s gh2speed;
#N canvas 2 52 326 248 bit 0;
#X obj 35 116 vline~;
#X obj 35 139 tabread4~ gh2;
#N canvas 1114 431 523 497 rangecompute 0;
#X obj 197 194 samplerate~;
#X obj 225 170 bng 15 250 50 0 empty empty empty 17 7 0 10 -262144
-1 -1;
#X floatatom 225 219 5 0 0 0 - - -, f 5;
#X msg 330 225 0;
#X msg 175 390 \$1 \$2;
#X obj 138 204 f;
#X obj 175 82 t b b b;
#X obj 182 274 /;
#X floatatom 222 305 8 0 0 0 - - -, f 8;
#X obj 144 360 pack f f;
#X obj 138 246 t f f;
#X obj 117 38 inlet;
#X text 156 38 play;
#X text 335 30 samples;
#X obj 291 27 inlet;
#X obj 257 449 outlet;
#X text 310 449 feeds a vline;
#X obj 425 32 inlet;
#X text 437 55 speed ctl;
#X obj 217 247 / 1000;
#X obj 201 330 * 1;
#X connect 0 0 2 0;
#X connect 0 0 19 0;
#X connect 1 0 0 0;
#X connect 3 0 15 0;
#X connect 4 0 15 0;
#X connect 5 0 10 0;
#X connect 6 0 5 0;
#X connect 6 1 0 0;
#X connect 6 2 3 0;
#X connect 7 0 8 0;
#X connect 7 0 20 0;
#X connect 9 0 4 0;
#X connect 10 0 9 0;
#X connect 10 1 7 0;
#X connect 11 0 6 0;
#X connect 14 0 5 1;
#X connect 17 0 20 1;
#X connect 19 0 7 1;
#X connect 20 0 9 1;
#X restore 36 95 pd rangecompute;
#X obj 79 62 r gh2samp;
#X obj 155 63 r gh2speed;
#X obj 30 28 inlet;
#X obj 34 167 outlet~;
#X connect 0 0 1 0;
#X connect 1 0 6 0;
#X connect 2 0 0 0;
#X connect 3 0 2 1;
#X connect 4 0 2 2;
#X connect 5 0 2 0;
#X restore 67 282 pd bit;
#N canvas 2 52 326 248 bit 0;
#X obj 35 116 vline~;
#X obj 35 139 tabread4~ gh2;
#N canvas 1114 431 523 497 rangecompute 0;
#X obj 197 194 samplerate~;
#X obj 225 170 bng 15 250 50 0 empty empty empty 17 7 0 10 -262144
-1 -1;
#X floatatom 225 219 5 0 0 0 - - -, f 5;
#X msg 330 225 0;
#X msg 175 390 \$1 \$2;
#X obj 138 204 f;
#X obj 175 82 t b b b;
#X obj 182 274 /;
#X floatatom 222 305 8 0 0 0 - - -, f 8;
#X obj 144 360 pack f f;
#X obj 138 246 t f f;
#X obj 117 38 inlet;
#X text 156 38 play;
#X text 335 30 samples;
#X obj 291 27 inlet;
#X obj 257 449 outlet;
#X text 310 449 feeds a vline;
#X obj 425 32 inlet;
#X text 437 55 speed ctl;
#X obj 217 247 / 1000;
#X obj 201 330 * 1;
#X connect 0 0 2 0;
#X connect 0 0 19 0;
#X connect 1 0 0 0;
#X connect 3 0 15 0;
#X connect 4 0 15 0;
#X connect 5 0 10 0;
#X connect 6 0 5 0;
#X connect 6 1 0 0;
#X connect 6 2 3 0;
#X connect 7 0 8 0;
#X connect 7 0 20 0;
#X connect 9 0 4 0;
#X connect 10 0 9 0;
#X connect 10 1 7 0;
#X connect 11 0 6 0;
#X connect 14 0 5 1;
#X connect 17 0 20 1;
#X connect 19 0 7 1;
#X connect 20 0 9 1;
#X restore 36 95 pd rangecompute;
#X obj 79 62 r gh2samp;
#X obj 155 63 r gh2speed;
#X obj 30 28 inlet;
#X obj 34 167 outlet~;
#X connect 0 0 1 0;
#X connect 1 0 6 0;
#X connect 2 0 0 0;
#X connect 3 0 2 1;
#X connect 4 0 2 2;
#X connect 5 0 2 0;
#X restore 115 282 pd bit;
#N canvas 2 52 326 248 bit 0;
#X obj 35 116 vline~;
#X obj 35 139 tabread4~ gh2;
#N canvas 1113 430 523 497 rangecompute 0;
#X obj 197 194 samplerate~;
#X obj 225 170 bng 15 250 50 0 empty empty empty 17 7 0 10 -262144
-1 -1;
#X floatatom 225 219 5 0 0 0 - - -, f 5;
#X msg 330 225 0;
#X msg 175 390 \$1 \$2;
#X obj 138 204 f;
#X obj 175 82 t b b b;
#X obj 182 274 /;
#X floatatom 222 305 8 0 0 0 - - -, f 8;
#X obj 144 360 pack f f;
#X obj 138 246 t f f;
#X obj 117 38 inlet;
#X text 156 38 play;
#X text 335 30 samples;
#X obj 291 27 inlet;
#X obj 257 449 outlet;
#X text 310 449 feeds a vline;
#X obj 425 32 inlet;
#X text 437 55 speed ctl;
#X obj 217 247 / 1000;
#X obj 201 330 * 1;
#X connect 0 0 2 0;
#X connect 0 0 19 0;
#X connect 1 0 0 0;
#X connect 3 0 15 0;
#X connect 4 0 15 0;
#X connect 5 0 10 0;
#X connect 6 0 5 0;
#X connect 6 1 0 0;
#X connect 6 2 3 0;
#X connect 7 0 8 0;
#X connect 7 0 20 0;
#X connect 9 0 4 0;
#X connect 10 0 9 0;
#X connect 10 1 7 0;
#X connect 11 0 6 0;
#X connect 14 0 5 1;
#X connect 17 0 20 1;
#X connect 19 0 7 1;
#X connect 20 0 9 1;
#X restore 36 95 pd rangecompute;
#X obj 79 62 r gh2samp;
#X obj 155 63 r gh2speed;
#X obj 30 28 inlet;
#X obj 34 167 outlet~;
#X connect 0 0 1 0;
#X connect 1 0 6 0;
#X connect 2 0 0 0;
#X connect 3 0 2 1;
#X connect 4 0 2 2;
#X connect 5 0 2 0;
#X restore 164 281 pd bit;
#N canvas 2 52 326 248 bit 0;
#X obj 35 116 vline~;
#X obj 35 139 tabread4~ gh2;
#N canvas 1114 431 523 497 rangecompute 0;
#X obj 197 194 samplerate~;
#X obj 225 170 bng 15 250 50 0 empty empty empty 17 7 0 10 -262144
-1 -1;
#X floatatom 225 219 5 0 0 0 - - -, f 5;
#X msg 330 225 0;
#X msg 175 390 \$1 \$2;
#X obj 138 204 f;
#X obj 175 82 t b b b;
#X obj 182 274 /;
#X floatatom 222 305 8 0 0 0 - - -, f 8;
#X obj 144 360 pack f f;
#X obj 138 246 t f f;
#X obj 117 38 inlet;
#X text 156 38 play;
#X text 335 30 samples;
#X obj 291 27 inlet;
#X obj 257 449 outlet;
#X text 310 449 feeds a vline;
#X obj 425 32 inlet;
#X text 437 55 speed ctl;
#X obj 217 247 / 1000;
#X obj 201 330 * 1;
#X connect 0 0 2 0;
#X connect 0 0 19 0;
#X connect 1 0 0 0;
#X connect 3 0 15 0;
#X connect 4 0 15 0;
#X connect 5 0 10 0;
#X connect 6 0 5 0;
#X connect 6 1 0 0;
#X connect 6 2 3 0;
#X connect 7 0 8 0;
#X connect 7 0 20 0;
#X connect 9 0 4 0;
#X connect 10 0 9 0;
#X connect 10 1 7 0;
#X connect 11 0 6 0;
#X connect 14 0 5 1;
#X connect 17 0 20 1;
#X connect 19 0 7 1;
#X connect 20 0 9 1;
#X restore 36 95 pd rangecompute;
#X obj 79 62 r gh2samp;
#X obj 155 63 r gh2speed;
#X obj 30 28 inlet;
#X obj 34 167 outlet~;
#X connect 0 0 1 0;
#X connect 1 0 6 0;
#X connect 2 0 0 0;
#X connect 3 0 2 1;
#X connect 4 0 2 2;
#X connect 5 0 2 0;
#X restore 212 281 pd bit;
#N canvas 2 52 326 248 bit 0;
#X obj 35 116 vline~;
#X obj 35 139 tabread4~ gh2;
#N canvas 1115 432 523 497 rangecompute 0;
#X obj 197 194 samplerate~;
#X obj 225 170 bng 15 250 50 0 empty empty empty 17 7 0 10 -262144
-1 -1;
#X floatatom 225 219 5 0 0 0 - - -, f 5;
#X msg 330 225 0;
#X msg 175 390 \$1 \$2;
#X obj 138 204 f;
#X obj 175 82 t b b b;
#X obj 182 274 /;
#X floatatom 222 305 8 0 0 0 - - -, f 8;
#X obj 144 360 pack f f;
#X obj 138 246 t f f;
#X obj 117 38 inlet;
#X text 156 38 play;
#X text 335 30 samples;
#X obj 291 27 inlet;
#X obj 257 449 outlet;
#X text 310 449 feeds a vline;
#X obj 425 32 inlet;
#X text 437 55 speed ctl;
#X obj 217 247 / 1000;
#X obj 201 330 * 1;
#X obj 86 422 print halbard;
#X connect 0 0 2 0;
#X connect 0 0 19 0;
#X connect 1 0 0 0;
#X connect 3 0 15 0;
#X connect 4 0 15 0;
#X connect 5 0 10 0;
#X connect 6 0 5 0;
#X connect 6 1 0 0;
#X connect 6 2 3 0;
#X connect 7 0 8 0;
#X connect 7 0 20 0;
#X connect 9 0 4 0;
#X connect 9 0 21 0;
#X connect 10 0 9 0;
#X connect 10 1 7 0;
#X connect 11 0 6 0;
#X connect 14 0 5 1;
#X connect 17 0 20 1;
#X connect 19 0 7 1;
#X connect 20 0 9 1;
#X restore 36 95 pd rangecompute;
#X obj 79 62 r gh2samp;
#X obj 155 63 r gh2speed;
#X obj 30 28 inlet;
#X obj 34 167 outlet~;
#X connect 0 0 1 0;
#X connect 1 0 6 0;
#X connect 2 0 0 0;
#X connect 3 0 2 1;
#X connect 4 0 2 2;
#X connect 5 0 2 0;
#X restore 262 280 pd bit;
#N canvas 2 52 326 248 bit 0;
#X obj 35 116 vline~;
#X obj 35 139 tabread4~ gh2;
#N canvas 1114 431 523 497 rangecompute 0;
#X obj 197 194 samplerate~;
#X obj 225 170 bng 15 250 50 0 empty empty empty 17 7 0 10 -262144
-1 -1;
#X floatatom 225 219 5 0 0 0 - - -, f 5;
#X msg 330 225 0;
#X msg 175 390 \$1 \$2;
#X obj 138 204 f;
#X obj 175 82 t b b b;
#X obj 182 274 /;
#X floatatom 222 305 8 0 0 0 - - -, f 8;
#X obj 144 360 pack f f;
#X obj 138 246 t f f;
#X obj 117 38 inlet;
#X text 156 38 play;
#X text 335 30 samples;
#X obj 291 27 inlet;
#X obj 257 449 outlet;
#X text 310 449 feeds a vline;
#X obj 425 32 inlet;
#X text 437 55 speed ctl;
#X obj 217 247 / 1000;
#X obj 201 330 * 1;
#X connect 0 0 2 0;
#X connect 0 0 19 0;
#X connect 1 0 0 0;
#X connect 3 0 15 0;
#X connect 4 0 15 0;
#X connect 5 0 10 0;
#X connect 6 0 5 0;
#X connect 6 1 0 0;
#X connect 6 2 3 0;
#X connect 7 0 8 0;
#X connect 7 0 20 0;
#X connect 9 0 4 0;
#X connect 10 0 9 0;
#X connect 10 1 7 0;
#X connect 11 0 6 0;
#X connect 14 0 5 1;
#X connect 17 0 20 1;
#X connect 19 0 7 1;
#X connect 20 0 9 1;
#X restore 36 95 pd rangecompute;
#X obj 79 62 r gh2samp;
#X obj 155 63 r gh2speed;
#X obj 30 28 inlet;
#X obj 34 167 outlet~;
#X connect 0 0 1 0;
#X connect 1 0 6 0;
#X connect 2 0 0 0;
#X connect 3 0 2 1;
#X connect 4 0 2 2;
#X connect 5 0 2 0;
#X restore 310 280 pd bit;
#N canvas 2 52 326 248 bit 0;
#X obj 35 116 vline~;
#X obj 35 139 tabread4~ gh2;
#N canvas 1113 430 523 497 rangecompute 0;
#X obj 197 194 samplerate~;
#X obj 225 170 bng 15 250 50 0 empty empty empty 17 7 0 10 -262144
-1 -1;
#X floatatom 225 219 5 0 0 0 - - -, f 5;
#X msg 330 225 0;
#X msg 175 390 \$1 \$2;
#X obj 138 204 f;
#X obj 175 82 t b b b;
#X obj 182 274 /;
#X floatatom 222 305 8 0 0 0 - - -, f 8;
#X obj 144 360 pack f f;
#X obj 138 246 t f f;
#X obj 117 38 inlet;
#X text 156 38 play;
#X text 335 30 samples;
#X obj 291 27 inlet;
#X obj 257 449 outlet;
#X text 310 449 feeds a vline;
#X obj 425 32 inlet;
#X text 437 55 speed ctl;
#X obj 217 247 / 1000;
#X obj 201 330 * 1;
#X connect 0 0 2 0;
#X connect 0 0 19 0;
#X connect 1 0 0 0;
#X connect 3 0 15 0;
#X connect 4 0 15 0;
#X connect 5 0 10 0;
#X connect 6 0 5 0;
#X connect 6 1 0 0;
#X connect 6 2 3 0;
#X connect 7 0 8 0;
#X connect 7 0 20 0;
#X connect 9 0 4 0;
#X connect 10 0 9 0;
#X connect 10 1 7 0;
#X connect 11 0 6 0;
#X connect 14 0 5 1;
#X connect 17 0 20 1;
#X connect 19 0 7 1;
#X connect 20 0 9 1;
#X restore 36 95 pd rangecompute;
#X obj 79 62 r gh2samp;
#X obj 155 63 r gh2speed;
#X obj 30 28 inlet;
#X obj 34 167 outlet~;
#X connect 0 0 1 0;
#X connect 1 0 6 0;
#X connect 2 0 0 0;
#X connect 3 0 2 1;
#X connect 4 0 2 2;
#X connect 5 0 2 0;
#X restore 359 279 pd bit;
#N canvas 2 52 326 248 bit 0;
#X obj 35 116 vline~;
#X obj 35 139 tabread4~ gh2;
#N canvas 1115 432 523 497 rangecompute 0;
#X obj 197 194 samplerate~;
#X obj 225 170 bng 15 250 50 0 empty empty empty 17 7 0 10 -262144
-1 -1;
#X floatatom 225 219 5 0 0 0 - - -, f 5;
#X msg 330 225 0;
#X msg 175 390 \$1 \$2;
#X obj 138 204 f;
#X obj 175 82 t b b b;
#X obj 182 274 /;
#X floatatom 222 305 8 0 0 0 - - -, f 8;
#X obj 144 360 pack f f;
#X obj 138 246 t f f;
#X obj 117 38 inlet;
#X text 156 38 play;
#X text 335 30 samples;
#X obj 291 27 inlet;
#X obj 257 449 outlet;
#X text 310 449 feeds a vline;
#X obj 425 32 inlet;
#X text 437 55 speed ctl;
#X obj 217 247 / 1000;
#X obj 201 330 * 1;
#X obj 86 422 print halbard;
#X connect 0 0 2 0;
#X connect 0 0 19 0;
#X connect 1 0 0 0;
#X connect 3 0 15 0;
#X connect 4 0 15 0;
#X connect 5 0 10 0;
#X connect 6 0 5 0;
#X connect 6 1 0 0;
#X connect 6 2 3 0;
#X connect 7 0 8 0;
#X connect 7 0 20 0;
#X connect 9 0 4 0;
#X connect 9 0 21 0;
#X connect 10 0 9 0;
#X connect 10 1 7 0;
#X connect 11 0 6 0;
#X connect 14 0 5 1;
#X connect 17 0 20 1;
#X connect 19 0 7 1;
#X connect 20 0 9 1;
#X restore 36 95 pd rangecompute;
#X obj 79 62 r gh2samp;
#X obj 155 63 r gh2speed;
#X obj 30 28 inlet;
#X obj 34 167 outlet~;
#X connect 0 0 1 0;
#X connect 1 0 6 0;
#X connect 2 0 0 0;
#X connect 3 0 2 1;
#X connect 4 0 2 2;
#X connect 5 0 2 0;
#X restore 407 279 pd bit;
#N canvas 2 52 326 248 bit 0;
#X obj 35 116 vline~;
#X obj 35 139 tabread4~ gh2;
#N canvas 1114 431 523 497 rangecompute 0;
#X obj 197 194 samplerate~;
#X obj 225 170 bng 15 250 50 0 empty empty empty 17 7 0 10 -262144
-1 -1;
#X floatatom 225 219 5 0 0 0 - - -, f 5;
#X msg 330 225 0;
#X msg 175 390 \$1 \$2;
#X obj 138 204 f;
#X obj 175 82 t b b b;
#X obj 182 274 /;
#X floatatom 222 305 8 0 0 0 - - -, f 8;
#X obj 144 360 pack f f;
#X obj 138 246 t f f;
#X obj 117 38 inlet;
#X text 156 38 play;
#X text 335 30 samples;
#X obj 291 27 inlet;
#X obj 257 449 outlet;
#X text 310 449 feeds a vline;
#X obj 425 32 inlet;
#X text 437 55 speed ctl;
#X obj 217 247 / 1000;
#X obj 201 330 * 1;
#X connect 0 0 2 0;
#X connect 0 0 19 0;
#X connect 1 0 0 0;
#X connect 3 0 15 0;
#X connect 4 0 15 0;
#X connect 5 0 10 0;
#X connect 6 0 5 0;
#X connect 6 1 0 0;
#X connect 6 2 3 0;
#X connect 7 0 8 0;
#X connect 7 0 20 0;
#X connect 9 0 4 0;
#X connect 10 0 9 0;
#X connect 10 1 7 0;
#X connect 11 0 6 0;
#X connect 14 0 5 1;
#X connect 17 0 20 1;
#X connect 19 0 7 1;
#X connect 20 0 9 1;
#X restore 36 95 pd rangecompute;
#X obj 79 62 r gh2samp;
#X obj 155 63 r gh2speed;
#X obj 30 28 inlet;
#X obj 34 167 outlet~;
#X connect 0 0 1 0;
#X connect 1 0 6 0;
#X connect 2 0 0 0;
#X connect 3 0 2 1;
#X connect 4 0 2 2;
#X connect 5 0 2 0;
#X restore 457 279 pd bit;
#N canvas 2 52 326 248 bit 0;
#X obj 35 116 vline~;
#X obj 35 139 tabread4~ gh2;
#N canvas 1114 431 523 497 rangecompute 0;
#X obj 197 194 samplerate~;
#X obj 225 170 bng 15 250 50 0 empty empty empty 17 7 0 10 -262144
-1 -1;
#X floatatom 225 219 5 0 0 0 - - -, f 5;
#X msg 330 225 0;
#X msg 175 390 \$1 \$2;
#X obj 138 204 f;
#X obj 175 82 t b b b;
#X obj 182 274 /;
#X floatatom 222 305 8 0 0 0 - - -, f 8;
#X obj 144 360 pack f f;
#X obj 138 246 t f f;
#X obj 117 38 inlet;
#X text 156 38 play;
#X text 335 30 samples;
#X obj 291 27 inlet;
#X obj 257 449 outlet;
#X text 310 449 feeds a vline;
#X obj 425 32 inlet;
#X text 437 55 speed ctl;
#X obj 217 247 / 1000;
#X obj 201 330 * 1;
#X connect 0 0 2 0;
#X connect 0 0 19 0;
#X connect 1 0 0 0;
#X connect 3 0 15 0;
#X connect 4 0 15 0;
#X connect 5 0 10 0;
#X connect 6 0 5 0;
#X connect 6 1 0 0;
#X connect 6 2 3 0;
#X connect 7 0 8 0;
#X connect 7 0 20 0;
#X connect 9 0 4 0;
#X connect 10 0 9 0;
#X connect 10 1 7 0;
#X connect 11 0 6 0;
#X connect 14 0 5 1;
#X connect 17 0 20 1;
#X connect 19 0 7 1;
#X connect 20 0 9 1;
#X restore 36 95 pd rangecompute;
#X obj 79 62 r gh2samp;
#X obj 155 63 r gh2speed;
#X obj 30 28 inlet;
#X obj 34 167 outlet~;
#X connect 0 0 1 0;
#X connect 1 0 6 0;
#X connect 2 0 0 0;
#X connect 3 0 2 1;
#X connect 4 0 2 2;
#X connect 5 0 2 0;
#X restore 505 279 pd bit;
#X connect 1 0 8 0;
#X connect 2 0 4 0;
#X connect 3 0 9 0;
#X connect 4 0 6 0;
#X connect 4 0 7 0;
#X connect 5 0 4 0;
#X connect 6 0 10 0;
#X connect 6 1 11 0;
#X connect 6 2 12 0;
#X connect 6 3 13 0;
#X connect 6 4 14 0;
#X connect 6 5 15 0;
#X connect 6 6 16 0;
#X connect 6 7 17 0;
#X connect 6 8 18 0;
#X connect 6 9 19 0;
#X connect 10 0 0 0;
#X connect 11 0 0 0;
#X connect 12 0 0 0;
#X connect 13 0 0 0;
#X connect 14 0 0 0;
#X connect 15 0 0 0;
#X connect 16 0 0 0;
#X connect 17 0 0 0;
#X connect 18 0 0 0;
#X connect 19 0 0 0;
#X restore 81 256 pd bankplayer;
#X obj 69 340 outlet~;
#X obj 24 110 inlet;
#X obj 173 207 inlet;
#X connect 0 0 7 1;
#X connect 1 0 2 0;
#X connect 2 0 0 0;
#X connect 4 0 7 0;
#X connect 6 0 7 2;
#X connect 7 0 8 0;
#X connect 9 0 4 0;
#X connect 10 0 6 0;
#X restore 35 132 pd gh2;
#X obj 34 96 bng 15 250 50 0 empty empty empty 17 7 0 10 -262144 -1
-1;
#X floatatom 70 103 5 0 12 0 - - -, f 5;
#X obj 126 95 bng 15 250 50 0 empty empty empty 17 7 0 10 -262144 -1
-1;
#X floatatom 162 102 5 0 12 0 - - -, f 5;
#X obj 210 103 bng 15 250 50 0 empty empty empty 17 7 0 10 -262144
-1 -1;
#X floatatom 246 110 5 0 12 0 - - -, f 5;
#N canvas 1172 724 608 397 db2 0;
#X obj 118 111 soundfiler;
#X obj 116 58 loadbang;
#N canvas 0 50 450 250 (subpatch) 0;
#X array db2 206462 float 2;
#X coords 0 1 206462 -1 200 140 1;
#X restore 249 121 graph;
#X obj 38 182 bng 15 250 50 0 empty empty empty 17 7 0 10 -262144 -1
-1;
#X text 57 181 play;
#X floatatom 173 235 5 0 0 0 - - -, f 5;
#N canvas 70 138 569 569 bankplayer 0;
#X obj 221 493 outlet~;
#X obj 190 22 inlet;
#X obj 68 21 inlet;
#X obj 348 18 inlet;
#X obj 77 74 bangloop 10;
#X obj 38 50 bng 15 250 50 0 empty empty empty 17 7 0 10 -262144 -1
-1;
#X obj 64 152 route 0 1 2 3 4 5 6 7 8 9, f 65;
#X floatatom 83 96 5 0 0 0 - - -, f 5;
#N canvas 2 52 326 248 bit 0;
#X obj 35 116 vline~;
#N canvas 1115 432 523 497 rangecompute 0;
#X obj 197 194 samplerate~;
#X obj 225 170 bng 15 250 50 0 empty empty empty 17 7 0 10 -262144
-1 -1;
#X floatatom 225 219 5 0 0 0 - - -, f 5;
#X msg 330 225 0;
#X msg 175 390 \$1 \$2;
#X obj 138 204 f;
#X obj 175 82 t b b b;
#X obj 182 274 /;
#X floatatom 222 305 8 0 0 0 - - -, f 8;
#X obj 144 360 pack f f;
#X obj 138 246 t f f;
#X obj 117 38 inlet;
#X text 156 38 play;
#X text 335 30 samples;
#X obj 291 27 inlet;
#X obj 257 449 outlet;
#X text 310 449 feeds a vline;
#X obj 425 32 inlet;
#X text 437 55 speed ctl;
#X obj 217 247 / 1000;
#X obj 201 330 * 1;
#X obj 86 422 print halbard;
#X connect 0 0 2 0;
#X connect 0 0 19 0;
#X connect 1 0 0 0;
#X connect 3 0 15 0;
#X connect 4 0 15 0;
#X connect 5 0 10 0;
#X connect 6 0 5 0;
#X connect 6 1 0 0;
#X connect 6 2 3 0;
#X connect 7 0 8 0;
#X connect 7 0 20 0;
#X connect 9 0 4 0;
#X connect 9 0 21 0;
#X connect 10 0 9 0;
#X connect 10 1 7 0;
#X connect 11 0 6 0;
#X connect 14 0 5 1;
#X connect 17 0 20 1;
#X connect 19 0 7 1;
#X connect 20 0 9 1;
#X restore 36 95 pd rangecompute;
#X obj 30 28 inlet;
#X obj 34 167 outlet~;
#X obj 35 139 tabread4~ db2;
#X obj 79 62 r db2samp;
#X obj 155 63 r db2speed;
#X connect 0 0 4 0;
#X connect 1 0 0 0;
#X connect 2 0 1 0;
#X connect 4 0 3 0;
#X connect 5 0 1 1;
#X connect 6 0 1 2;
#X restore 42 284 pd bit;
#X obj 191 51 s db2samp;
#X obj 343 48 s db2speed;
#N canvas 2 52 326 248 bit 0;
#X obj 35 116 vline~;
#N canvas 1115 432 523 497 rangecompute 0;
#X obj 197 194 samplerate~;
#X obj 225 170 bng 15 250 50 0 empty empty empty 17 7 0 10 -262144
-1 -1;
#X floatatom 225 219 5 0 0 0 - - -, f 5;
#X msg 330 225 0;
#X msg 175 390 \$1 \$2;
#X obj 138 204 f;
#X obj 175 82 t b b b;
#X obj 182 274 /;
#X floatatom 222 305 8 0 0 0 - - -, f 8;
#X obj 144 360 pack f f;
#X obj 138 246 t f f;
#X obj 117 38 inlet;
#X text 156 38 play;
#X text 335 30 samples;
#X obj 291 27 inlet;
#X obj 257 449 outlet;
#X text 310 449 feeds a vline;
#X obj 425 32 inlet;
#X text 437 55 speed ctl;
#X obj 217 247 / 1000;
#X obj 201 330 * 1;
#X obj 86 422 print halbard;
#X connect 0 0 2 0;
#X connect 0 0 19 0;
#X connect 1 0 0 0;
#X connect 3 0 15 0;
#X connect 4 0 15 0;
#X connect 5 0 10 0;
#X connect 6 0 5 0;
#X connect 6 1 0 0;
#X connect 6 2 3 0;
#X connect 7 0 8 0;
#X connect 7 0 20 0;
#X connect 9 0 4 0;
#X connect 9 0 21 0;
#X connect 10 0 9 0;
#X connect 10 1 7 0;
#X connect 11 0 6 0;
#X connect 14 0 5 1;
#X connect 17 0 20 1;
#X connect 19 0 7 1;
#X connect 20 0 9 1;
#X restore 36 95 pd rangecompute;
#X obj 30 28 inlet;
#X obj 34 167 outlet~;
#X obj 35 139 tabread4~ db2;
#X obj 79 62 r db2samp;
#X obj 155 63 r db2speed;
#X connect 0 0 4 0;
#X connect 1 0 0 0;
#X connect 2 0 1 0;
#X connect 4 0 3 0;
#X connect 5 0 1 1;
#X connect 6 0 1 2;
#X restore 91 284 pd bit;
#N canvas 2 52 326 248 bit 0;
#X obj 35 116 vline~;
#N canvas 1115 432 523 497 rangecompute 0;
#X obj 197 194 samplerate~;
#X obj 225 170 bng 15 250 50 0 empty empty empty 17 7 0 10 -262144
-1 -1;
#X floatatom 225 219 5 0 0 0 - - -, f 5;
#X msg 330 225 0;
#X msg 175 390 \$1 \$2;
#X obj 138 204 f;
#X obj 175 82 t b b b;
#X obj 182 274 /;
#X floatatom 222 305 8 0 0 0 - - -, f 8;
#X obj 144 360 pack f f;
#X obj 138 246 t f f;
#X obj 117 38 inlet;
#X text 156 38 play;
#X text 335 30 samples;
#X obj 291 27 inlet;
#X obj 257 449 outlet;
#X text 310 449 feeds a vline;
#X obj 425 32 inlet;
#X text 437 55 speed ctl;
#X obj 217 247 / 1000;
#X obj 201 330 * 1;
#X obj 86 422 print halbard;
#X connect 0 0 2 0;
#X connect 0 0 19 0;
#X connect 1 0 0 0;
#X connect 3 0 15 0;
#X connect 4 0 15 0;
#X connect 5 0 10 0;
#X connect 6 0 5 0;
#X connect 6 1 0 0;
#X connect 6 2 3 0;
#X connect 7 0 8 0;
#X connect 7 0 20 0;
#X connect 9 0 4 0;
#X connect 9 0 21 0;
#X connect 10 0 9 0;
#X connect 10 1 7 0;
#X connect 11 0 6 0;
#X connect 14 0 5 1;
#X connect 17 0 20 1;
#X connect 19 0 7 1;
#X connect 20 0 9 1;
#X restore 36 95 pd rangecompute;
#X obj 30 28 inlet;
#X obj 34 167 outlet~;
#X obj 35 139 tabread4~ db2;
#X obj 79 62 r db2samp;
#X obj 155 63 r db2speed;
#X connect 0 0 4 0;
#X connect 1 0 0 0;
#X connect 2 0 1 0;
#X connect 4 0 3 0;
#X connect 5 0 1 1;
#X connect 6 0 1 2;
#X restore 139 284 pd bit;
#N canvas 2 52 326 248 bit 0;
#X obj 35 116 vline~;
#N canvas 1115 432 523 497 rangecompute 0;
#X obj 197 194 samplerate~;
#X obj 225 170 bng 15 250 50 0 empty empty empty 17 7 0 10 -262144
-1 -1;
#X floatatom 225 219 5 0 0 0 - - -, f 5;
#X msg 330 225 0;
#X msg 175 390 \$1 \$2;
#X obj 138 204 f;
#X obj 175 82 t b b b;
#X obj 182 274 /;
#X floatatom 222 305 8 0 0 0 - - -, f 8;
#X obj 144 360 pack f f;
#X obj 138 246 t f f;
#X obj 117 38 inlet;
#X text 156 38 play;
#X text 335 30 samples;
#X obj 291 27 inlet;
#X obj 257 449 outlet;
#X text 310 449 feeds a vline;
#X obj 425 32 inlet;
#X text 437 55 speed ctl;
#X obj 217 247 / 1000;
#X obj 201 330 * 1;
#X obj 86 422 print halbard;
#X connect 0 0 2 0;
#X connect 0 0 19 0;
#X connect 1 0 0 0;
#X connect 3 0 15 0;
#X connect 4 0 15 0;
#X connect 5 0 10 0;
#X connect 6 0 5 0;
#X connect 6 1 0 0;
#X connect 6 2 3 0;
#X connect 7 0 8 0;
#X connect 7 0 20 0;
#X connect 9 0 4 0;
#X connect 9 0 21 0;
#X connect 10 0 9 0;
#X connect 10 1 7 0;
#X connect 11 0 6 0;
#X connect 14 0 5 1;
#X connect 17 0 20 1;
#X connect 19 0 7 1;
#X connect 20 0 9 1;
#X restore 36 95 pd rangecompute;
#X obj 30 28 inlet;
#X obj 34 167 outlet~;
#X obj 35 139 tabread4~ db2;
#X obj 79 62 r db2samp;
#X obj 155 63 r db2speed;
#X connect 0 0 4 0;
#X connect 1 0 0 0;
#X connect 2 0 1 0;
#X connect 4 0 3 0;
#X connect 5 0 1 1;
#X connect 6 0 1 2;
#X restore 188 284 pd bit;
#N canvas 2 52 326 248 bit 0;
#X obj 35 116 vline~;
#N canvas 1115 432 523 497 rangecompute 0;
#X obj 197 194 samplerate~;
#X obj 225 170 bng 15 250 50 0 empty empty empty 17 7 0 10 -262144
-1 -1;
#X floatatom 225 219 5 0 0 0 - - -, f 5;
#X msg 330 225 0;
#X msg 175 390 \$1 \$2;
#X obj 138 204 f;
#X obj 175 82 t b b b;
#X obj 182 274 /;
#X floatatom 222 305 8 0 0 0 - - -, f 8;
#X obj 144 360 pack f f;
#X obj 138 246 t f f;
#X obj 117 38 inlet;
#X text 156 38 play;
#X text 335 30 samples;
#X obj 291 27 inlet;
#X obj 257 449 outlet;
#X text 310 449 feeds a vline;
#X obj 425 32 inlet;
#X text 437 55 speed ctl;
#X obj 217 247 / 1000;
#X obj 201 330 * 1;
#X obj 86 422 print halbard;
#X connect 0 0 2 0;
#X connect 0 0 19 0;
#X connect 1 0 0 0;
#X connect 3 0 15 0;
#X connect 4 0 15 0;
#X connect 5 0 10 0;
#X connect 6 0 5 0;
#X connect 6 1 0 0;
#X connect 6 2 3 0;
#X connect 7 0 8 0;
#X connect 7 0 20 0;
#X connect 9 0 4 0;
#X connect 9 0 21 0;
#X connect 10 0 9 0;
#X connect 10 1 7 0;
#X connect 11 0 6 0;
#X connect 14 0 5 1;
#X connect 17 0 20 1;
#X connect 19 0 7 1;
#X connect 20 0 9 1;
#X restore 36 95 pd rangecompute;
#X obj 30 28 inlet;
#X obj 34 167 outlet~;
#X obj 35 139 tabread4~ db2;
#X obj 79 62 r db2samp;
#X obj 155 63 r db2speed;
#X connect 0 0 4 0;
#X connect 1 0 0 0;
#X connect 2 0 1 0;
#X connect 4 0 3 0;
#X connect 5 0 1 1;
#X connect 6 0 1 2;
#X restore 236 284 pd bit;
#N canvas 2 52 326 248 bit 0;
#X obj 35 116 vline~;
#N canvas 1115 432 523 497 rangecompute 0;
#X obj 197 194 samplerate~;
#X obj 225 170 bng 15 250 50 0 empty empty empty 17 7 0 10 -262144
-1 -1;
#X floatatom 225 219 5 0 0 0 - - -, f 5;
#X msg 330 225 0;
#X msg 175 390 \$1 \$2;
#X obj 138 204 f;
#X obj 175 82 t b b b;
#X obj 182 274 /;
#X floatatom 222 305 8 0 0 0 - - -, f 8;
#X obj 144 360 pack f f;
#X obj 138 246 t f f;
#X obj 117 38 inlet;
#X text 156 38 play;
#X text 335 30 samples;
#X obj 291 27 inlet;
#X obj 257 449 outlet;
#X text 310 449 feeds a vline;
#X obj 425 32 inlet;
#X text 437 55 speed ctl;
#X obj 217 247 / 1000;
#X obj 201 330 * 1;
#X obj 86 422 print halbard;
#X connect 0 0 2 0;
#X connect 0 0 19 0;
#X connect 1 0 0 0;
#X connect 3 0 15 0;
#X connect 4 0 15 0;
#X connect 5 0 10 0;
#X connect 6 0 5 0;
#X connect 6 1 0 0;
#X connect 6 2 3 0;
#X connect 7 0 8 0;
#X connect 7 0 20 0;
#X connect 9 0 4 0;
#X connect 9 0 21 0;
#X connect 10 0 9 0;
#X connect 10 1 7 0;
#X connect 11 0 6 0;
#X connect 14 0 5 1;
#X connect 17 0 20 1;
#X connect 19 0 7 1;
#X connect 20 0 9 1;
#X restore 36 95 pd rangecompute;
#X obj 30 28 inlet;
#X obj 34 167 outlet~;
#X obj 35 139 tabread4~ db2;
#X obj 79 62 r db2samp;
#X obj 155 63 r db2speed;
#X connect 0 0 4 0;
#X connect 1 0 0 0;
#X connect 2 0 1 0;
#X connect 4 0 3 0;
#X connect 5 0 1 1;
#X connect 6 0 1 2;
#X restore 285 284 pd bit;
#N canvas 2 52 326 248 bit 0;
#X obj 35 116 vline~;
#N canvas 1115 432 523 497 rangecompute 0;
#X obj 197 194 samplerate~;
#X obj 225 170 bng 15 250 50 0 empty empty empty 17 7 0 10 -262144
-1 -1;
#X floatatom 225 219 5 0 0 0 - - -, f 5;
#X msg 330 225 0;
#X msg 175 390 \$1 \$2;
#X obj 138 204 f;
#X obj 175 82 t b b b;
#X obj 182 274 /;
#X floatatom 222 305 8 0 0 0 - - -, f 8;
#X obj 144 360 pack f f;
#X obj 138 246 t f f;
#X obj 117 38 inlet;
#X text 156 38 play;
#X text 335 30 samples;
#X obj 291 27 inlet;
#X obj 257 449 outlet;
#X text 310 449 feeds a vline;
#X obj 425 32 inlet;
#X text 437 55 speed ctl;
#X obj 217 247 / 1000;
#X obj 201 330 * 1;
#X obj 86 422 print halbard;
#X connect 0 0 2 0;
#X connect 0 0 19 0;
#X connect 1 0 0 0;
#X connect 3 0 15 0;
#X connect 4 0 15 0;
#X connect 5 0 10 0;
#X connect 6 0 5 0;
#X connect 6 1 0 0;
#X connect 6 2 3 0;
#X connect 7 0 8 0;
#X connect 7 0 20 0;
#X connect 9 0 4 0;
#X connect 9 0 21 0;
#X connect 10 0 9 0;
#X connect 10 1 7 0;
#X connect 11 0 6 0;
#X connect 14 0 5 1;
#X connect 17 0 20 1;
#X connect 19 0 7 1;
#X connect 20 0 9 1;
#X restore 36 95 pd rangecompute;
#X obj 30 28 inlet;
#X obj 34 167 outlet~;
#X obj 35 139 tabread4~ db2;
#X obj 79 62 r db2samp;
#X obj 155 63 r db2speed;
#X connect 0 0 4 0;
#X connect 1 0 0 0;
#X connect 2 0 1 0;
#X connect 4 0 3 0;
#X connect 5 0 1 1;
#X connect 6 0 1 2;
#X restore 333 284 pd bit;
#N canvas 2 52 326 248 bit 0;
#X obj 35 116 vline~;
#N canvas 1115 432 523 497 rangecompute 0;
#X obj 197 194 samplerate~;
#X obj 225 170 bng 15 250 50 0 empty empty empty 17 7 0 10 -262144
-1 -1;
#X floatatom 225 219 5 0 0 0 - - -, f 5;
#X msg 330 225 0;
#X msg 175 390 \$1 \$2;
#X obj 138 204 f;
#X obj 175 82 t b b b;
#X obj 182 274 /;
#X floatatom 222 305 8 0 0 0 - - -, f 8;
#X obj 144 360 pack f f;
#X obj 138 246 t f f;
#X obj 117 38 inlet;
#X text 156 38 play;
#X text 335 30 samples;
#X obj 291 27 inlet;
#X obj 257 449 outlet;
#X text 310 449 feeds a vline;
#X obj 425 32 inlet;
#X text 437 55 speed ctl;
#X obj 217 247 / 1000;
#X obj 201 330 * 1;
#X obj 86 422 print halbard;
#X connect 0 0 2 0;
#X connect 0 0 19 0;
#X connect 1 0 0 0;
#X connect 3 0 15 0;
#X connect 4 0 15 0;
#X connect 5 0 10 0;
#X connect 6 0 5 0;
#X connect 6 1 0 0;
#X connect 6 2 3 0;
#X connect 7 0 8 0;
#X connect 7 0 20 0;
#X connect 9 0 4 0;
#X connect 9 0 21 0;
#X connect 10 0 9 0;
#X connect 10 1 7 0;
#X connect 11 0 6 0;
#X connect 14 0 5 1;
#X connect 17 0 20 1;
#X connect 19 0 7 1;
#X connect 20 0 9 1;
#X restore 36 95 pd rangecompute;
#X obj 30 28 inlet;
#X obj 34 167 outlet~;
#X obj 35 139 tabread4~ db2;
#X obj 79 62 r db2samp;
#X obj 155 63 r db2speed;
#X connect 0 0 4 0;
#X connect 1 0 0 0;
#X connect 2 0 1 0;
#X connect 4 0 3 0;
#X connect 5 0 1 1;
#X connect 6 0 1 2;
#X restore 382 284 pd bit;
#N canvas 2 52 326 248 bit 0;
#X obj 35 116 vline~;
#N canvas 1115 432 523 497 rangecompute 0;
#X obj 197 194 samplerate~;
#X obj 225 170 bng 15 250 50 0 empty empty empty 17 7 0 10 -262144
-1 -1;
#X floatatom 225 219 5 0 0 0 - - -, f 5;
#X msg 330 225 0;
#X msg 175 390 \$1 \$2;
#X obj 138 204 f;
#X obj 175 82 t b b b;
#X obj 182 274 /;
#X floatatom 222 305 8 0 0 0 - - -, f 8;
#X obj 144 360 pack f f;
#X obj 138 246 t f f;
#X obj 117 38 inlet;
#X text 156 38 play;
#X text 335 30 samples;
#X obj 291 27 inlet;
#X obj 257 449 outlet;
#X text 310 449 feeds a vline;
#X obj 425 32 inlet;
#X text 437 55 speed ctl;
#X obj 217 247 / 1000;
#X obj 201 330 * 1;
#X obj 86 422 print halbard;
#X connect 0 0 2 0;
#X connect 0 0 19 0;
#X connect 1 0 0 0;
#X connect 3 0 15 0;
#X connect 4 0 15 0;
#X connect 5 0 10 0;
#X connect 6 0 5 0;
#X connect 6 1 0 0;
#X connect 6 2 3 0;
#X connect 7 0 8 0;
#X connect 7 0 20 0;
#X connect 9 0 4 0;
#X connect 9 0 21 0;
#X connect 10 0 9 0;
#X connect 10 1 7 0;
#X connect 11 0 6 0;
#X connect 14 0 5 1;
#X connect 17 0 20 1;
#X connect 19 0 7 1;
#X connect 20 0 9 1;
#X restore 36 95 pd rangecompute;
#X obj 30 28 inlet;
#X obj 34 167 outlet~;
#X obj 35 139 tabread4~ db2;
#X obj 79 62 r db2samp;
#X obj 155 63 r db2speed;
#X connect 0 0 4 0;
#X connect 1 0 0 0;
#X connect 2 0 1 0;
#X connect 4 0 3 0;
#X connect 5 0 1 1;
#X connect 6 0 1 2;
#X restore 431 284 pd bit;
#N canvas 2 52 326 248 bit 0;
#X obj 35 116 vline~;
#N canvas 1115 432 523 497 rangecompute 0;
#X obj 197 194 samplerate~;
#X obj 225 170 bng 15 250 50 0 empty empty empty 17 7 0 10 -262144
-1 -1;
#X floatatom 225 219 5 0 0 0 - - -, f 5;
#X msg 330 225 0;
#X msg 175 390 \$1 \$2;
#X obj 138 204 f;
#X obj 175 82 t b b b;
#X obj 182 274 /;
#X floatatom 222 305 8 0 0 0 - - -, f 8;
#X obj 144 360 pack f f;
#X obj 138 246 t f f;
#X obj 117 38 inlet;
#X text 156 38 play;
#X text 335 30 samples;
#X obj 291 27 inlet;
#X obj 257 449 outlet;
#X text 310 449 feeds a vline;
#X obj 425 32 inlet;
#X text 437 55 speed ctl;
#X obj 217 247 / 1000;
#X obj 201 330 * 1;
#X obj 86 422 print halbard;
#X connect 0 0 2 0;
#X connect 0 0 19 0;
#X connect 1 0 0 0;
#X connect 3 0 15 0;
#X connect 4 0 15 0;
#X connect 5 0 10 0;
#X connect 6 0 5 0;
#X connect 6 1 0 0;
#X connect 6 2 3 0;
#X connect 7 0 8 0;
#X connect 7 0 20 0;
#X connect 9 0 4 0;
#X connect 9 0 21 0;
#X connect 10 0 9 0;
#X connect 10 1 7 0;
#X connect 11 0 6 0;
#X connect 14 0 5 1;
#X connect 17 0 20 1;
#X connect 19 0 7 1;
#X connect 20 0 9 1;
#X restore 36 95 pd rangecompute;
#X obj 30 28 inlet;
#X obj 34 167 outlet~;
#X obj 35 139 tabread4~ db2;
#X obj 79 62 r db2samp;
#X obj 155 63 r db2speed;
#X connect 0 0 4 0;
#X connect 1 0 0 0;
#X connect 2 0 1 0;
#X connect 4 0 3 0;
#X connect 5 0 1 1;
#X connect 6 0 1 2;
#X restore 480 284 pd bit;
#X connect 1 0 9 0;
#X connect 2 0 4 0;
#X connect 3 0 10 0;
#X connect 4 0 6 0;
#X connect 4 0 7 0;
#X connect 5 0 4 0;
#X connect 6 0 8 0;
#X connect 6 1 11 0;
#X connect 6 2 12 0;
#X connect 6 3 13 0;
#X connect 6 4 14 0;
#X connect 6 5 15 0;
#X connect 6 6 16 0;
#X connect 6 7 17 0;
#X connect 6 8 18 0;
#X connect 6 9 19 0;
#X connect 8 0 0 0;
#X connect 11 0 0 0;
#X connect 12 0 0 0;
#X connect 13 0 0 0;
#X connect 14 0 0 0;
#X connect 15 0 0 0;
#X connect 16 0 0 0;
#X connect 17 0 0 0;
#X connect 18 0 0 0;
#X connect 19 0 0 0;
#X restore 81 256 pd bankplayer;
#X obj 69 340 outlet~;
#X obj 24 110 inlet;
#X obj 173 207 inlet;
#X msg 116 83 read -resize /home/jason/toorcamp/drumbeat02.wav db2
;
#X connect 0 0 6 1;
#X connect 1 0 10 0;
#X connect 3 0 6 0;
#X connect 5 0 6 2;
#X connect 6 0 7 0;
#X connect 8 0 3 0;
#X connect 9 0 5 0;
#X connect 10 0 0 0;
#X restore 211 139 pd db2;
#N canvas 1119 713 608 397 db1 0;
#X obj 118 111 soundfiler;
#X obj 116 58 loadbang;
#N canvas 0 50 450 250 (subpatch) 0;
#X array db1 536576 float 2;
#X coords 0 1 536576 -1 200 140 1;
#X restore 249 121 graph;
#X obj 38 182 bng 15 250 50 0 empty empty empty 17 7 0 10 -262144 -1
-1;
#X text 57 181 play;
#X floatatom 173 235 5 0 0 0 - - -, f 5;
#N canvas 67 135 569 569 bankplayer 0;
#X obj 221 493 outlet~;
#X obj 190 22 inlet;
#X obj 68 21 inlet;
#X obj 348 18 inlet;
#X obj 77 74 bangloop 10;
#X obj 38 50 bng 15 250 50 0 empty empty empty 17 7 0 10 -262144 -1
-1;
#X obj 64 152 route 0 1 2 3 4 5 6 7 8 9, f 65;
#X floatatom 83 96 5 0 0 0 - - -, f 5;
#N canvas 2 52 326 248 bit 0;
#X obj 35 116 vline~;
#N canvas 1114 431 523 497 rangecompute 0;
#X obj 197 194 samplerate~;
#X obj 225 170 bng 15 250 50 0 empty empty empty 17 7 0 10 -262144
-1 -1;
#X floatatom 225 219 5 0 0 0 - - -, f 5;
#X msg 330 225 0;
#X msg 175 390 \$1 \$2;
#X obj 138 204 f;
#X obj 175 82 t b b b;
#X obj 182 274 /;
#X floatatom 222 305 8 0 0 0 - - -, f 8;
#X obj 144 360 pack f f;
#X obj 138 246 t f f;
#X obj 117 38 inlet;
#X text 156 38 play;
#X text 335 30 samples;
#X obj 291 27 inlet;
#X obj 257 449 outlet;
#X text 310 449 feeds a vline;
#X obj 425 32 inlet;
#X text 437 55 speed ctl;
#X obj 217 247 / 1000;
#X obj 201 330 * 1;
#X obj 86 422 print halbard;
#X connect 0 0 2 0;
#X connect 0 0 19 0;
#X connect 1 0 0 0;
#X connect 3 0 15 0;
#X connect 4 0 15 0;
#X connect 5 0 10 0;
#X connect 6 0 5 0;
#X connect 6 1 0 0;
#X connect 6 2 3 0;
#X connect 7 0 8 0;
#X connect 7 0 20 0;
#X connect 9 0 4 0;
#X connect 9 0 21 0;
#X connect 10 0 9 0;
#X connect 10 1 7 0;
#X connect 11 0 6 0;
#X connect 14 0 5 1;
#X connect 17 0 20 1;
#X connect 19 0 7 1;
#X connect 20 0 9 1;
#X restore 36 95 pd rangecompute;
#X obj 30 28 inlet;
#X obj 34 167 outlet~;
#X obj 155 63 r db1speed;
#X obj 78 62 r db1samp;
#X obj 35 139 tabread4~ db1;
#X connect 0 0 6 0;
#X connect 1 0 0 0;
#X connect 2 0 1 0;
#X connect 4 0 1 2;
#X connect 5 0 1 1;
#X connect 6 0 3 0;
#X restore 42 284 pd bit;
#X obj 191 51 s db1samp;
#X obj 344 48 s db1speed;
#N canvas 2 52 326 248 bit 0;
#X obj 35 116 vline~;
#N canvas 1114 431 523 497 rangecompute 0;
#X obj 197 194 samplerate~;
#X obj 225 170 bng 15 250 50 0 empty empty empty 17 7 0 10 -262144
-1 -1;
#X floatatom 225 219 5 0 0 0 - - -, f 5;
#X msg 330 225 0;
#X msg 175 390 \$1 \$2;
#X obj 138 204 f;
#X obj 175 82 t b b b;
#X obj 182 274 /;
#X floatatom 222 305 8 0 0 0 - - -, f 8;
#X obj 144 360 pack f f;
#X obj 138 246 t f f;
#X obj 117 38 inlet;
#X text 156 38 play;
#X text 335 30 samples;
#X obj 291 27 inlet;
#X obj 257 449 outlet;
#X text 310 449 feeds a vline;
#X obj 425 32 inlet;
#X text 437 55 speed ctl;
#X obj 217 247 / 1000;
#X obj 201 330 * 1;
#X obj 86 422 print halbard;
#X connect 0 0 2 0;
#X connect 0 0 19 0;
#X connect 1 0 0 0;
#X connect 3 0 15 0;
#X connect 4 0 15 0;
#X connect 5 0 10 0;
#X connect 6 0 5 0;
#X connect 6 1 0 0;
#X connect 6 2 3 0;
#X connect 7 0 8 0;
#X connect 7 0 20 0;
#X connect 9 0 4 0;
#X connect 9 0 21 0;
#X connect 10 0 9 0;
#X connect 10 1 7 0;
#X connect 11 0 6 0;
#X connect 14 0 5 1;
#X connect 17 0 20 1;
#X connect 19 0 7 1;
#X connect 20 0 9 1;
#X restore 36 95 pd rangecompute;
#X obj 30 28 inlet;
#X obj 34 167 outlet~;
#X obj 155 63 r db1speed;
#X obj 78 62 r db1samp;
#X obj 35 139 tabread4~ db1;
#X connect 0 0 6 0;
#X connect 1 0 0 0;
#X connect 2 0 1 0;
#X connect 4 0 1 2;
#X connect 5 0 1 1;
#X connect 6 0 3 0;
#X restore 92 283 pd bit;
#N canvas 2 52 326 248 bit 0;
#X obj 35 116 vline~;
#N canvas 1114 431 523 497 rangecompute 0;
#X obj 197 194 samplerate~;
#X obj 225 170 bng 15 250 50 0 empty empty empty 17 7 0 10 -262144
-1 -1;
#X floatatom 225 219 5 0 0 0 - - -, f 5;
#X msg 330 225 0;
#X msg 175 390 \$1 \$2;
#X obj 138 204 f;
#X obj 175 82 t b b b;
#X obj 182 274 /;
#X floatatom 222 305 8 0 0 0 - - -, f 8;
#X obj 144 360 pack f f;
#X obj 138 246 t f f;
#X obj 117 38 inlet;
#X text 156 38 play;
#X text 335 30 samples;
#X obj 291 27 inlet;
#X obj 257 449 outlet;
#X text 310 449 feeds a vline;
#X obj 425 32 inlet;
#X text 437 55 speed ctl;
#X obj 217 247 / 1000;
#X obj 201 330 * 1;
#X obj 86 422 print halbard;
#X connect 0 0 2 0;
#X connect 0 0 19 0;
#X connect 1 0 0 0;
#X connect 3 0 15 0;
#X connect 4 0 15 0;
#X connect 5 0 10 0;
#X connect 6 0 5 0;
#X connect 6 1 0 0;
#X connect 6 2 3 0;
#X connect 7 0 8 0;
#X connect 7 0 20 0;
#X connect 9 0 4 0;
#X connect 9 0 21 0;
#X connect 10 0 9 0;
#X connect 10 1 7 0;
#X connect 11 0 6 0;
#X connect 14 0 5 1;
#X connect 17 0 20 1;
#X connect 19 0 7 1;
#X connect 20 0 9 1;
#X restore 36 95 pd rangecompute;
#X obj 30 28 inlet;
#X obj 34 167 outlet~;
#X obj 155 63 r db1speed;
#X obj 78 62 r db1samp;
#X obj 35 139 tabread4~ db1;
#X connect 0 0 6 0;
#X connect 1 0 0 0;
#X connect 2 0 1 0;
#X connect 4 0 1 2;
#X connect 5 0 1 1;
#X connect 6 0 3 0;
#X restore 143 283 pd bit;
#N canvas 2 52 326 248 bit 0;
#X obj 35 116 vline~;
#N canvas 1114 431 523 497 rangecompute 0;
#X obj 197 194 samplerate~;
#X obj 225 170 bng 15 250 50 0 empty empty empty 17 7 0 10 -262144
-1 -1;
#X floatatom 225 219 5 0 0 0 - - -, f 5;
#X msg 330 225 0;
#X msg 175 390 \$1 \$2;
#X obj 138 204 f;
#X obj 175 82 t b b b;
#X obj 182 274 /;
#X floatatom 222 305 8 0 0 0 - - -, f 8;
#X obj 144 360 pack f f;
#X obj 138 246 t f f;
#X obj 117 38 inlet;
#X text 156 38 play;
#X text 335 30 samples;
#X obj 291 27 inlet;
#X obj 257 449 outlet;
#X text 310 449 feeds a vline;
#X obj 425 32 inlet;
#X text 437 55 speed ctl;
#X obj 217 247 / 1000;
#X obj 201 330 * 1;
#X obj 86 422 print halbard;
#X connect 0 0 2 0;
#X connect 0 0 19 0;
#X connect 1 0 0 0;
#X connect 3 0 15 0;
#X connect 4 0 15 0;
#X connect 5 0 10 0;
#X connect 6 0 5 0;
#X connect 6 1 0 0;
#X connect 6 2 3 0;
#X connect 7 0 8 0;
#X connect 7 0 20 0;
#X connect 9 0 4 0;
#X connect 9 0 21 0;
#X connect 10 0 9 0;
#X connect 10 1 7 0;
#X connect 11 0 6 0;
#X connect 14 0 5 1;
#X connect 17 0 20 1;
#X connect 19 0 7 1;
#X connect 20 0 9 1;
#X restore 36 95 pd rangecompute;
#X obj 30 28 inlet;
#X obj 34 167 outlet~;
#X obj 155 63 r db1speed;
#X obj 78 62 r db1samp;
#X obj 35 139 tabread4~ db1;
#X connect 0 0 6 0;
#X connect 1 0 0 0;
#X connect 2 0 1 0;
#X connect 4 0 1 2;
#X connect 5 0 1 1;
#X connect 6 0 3 0;
#X restore 193 282 pd bit;
#N canvas 2 52 326 248 bit 0;
#X obj 35 116 vline~;
#N canvas 1114 431 523 497 rangecompute 0;
#X obj 197 194 samplerate~;
#X obj 225 170 bng 15 250 50 0 empty empty empty 17 7 0 10 -262144
-1 -1;
#X floatatom 225 219 5 0 0 0 - - -, f 5;
#X msg 330 225 0;
#X msg 175 390 \$1 \$2;
#X obj 138 204 f;
#X obj 175 82 t b b b;
#X obj 182 274 /;
#X floatatom 222 305 8 0 0 0 - - -, f 8;
#X obj 144 360 pack f f;
#X obj 138 246 t f f;
#X obj 117 38 inlet;
#X text 156 38 play;
#X text 335 30 samples;
#X obj 291 27 inlet;
#X obj 257 449 outlet;
#X text 310 449 feeds a vline;
#X obj 425 32 inlet;
#X text 437 55 speed ctl;
#X obj 217 247 / 1000;
#X obj 201 330 * 1;
#X obj 86 422 print halbard;
#X connect 0 0 2 0;
#X connect 0 0 19 0;
#X connect 1 0 0 0;
#X connect 3 0 15 0;
#X connect 4 0 15 0;
#X connect 5 0 10 0;
#X connect 6 0 5 0;
#X connect 6 1 0 0;
#X connect 6 2 3 0;
#X connect 7 0 8 0;
#X connect 7 0 20 0;
#X connect 9 0 4 0;
#X connect 9 0 21 0;
#X connect 10 0 9 0;
#X connect 10 1 7 0;
#X connect 11 0 6 0;
#X connect 14 0 5 1;
#X connect 17 0 20 1;
#X connect 19 0 7 1;
#X connect 20 0 9 1;
#X restore 36 95 pd rangecompute;
#X obj 30 28 inlet;
#X obj 34 167 outlet~;
#X obj 155 63 r db1speed;
#X obj 78 62 r db1samp;
#X obj 35 139 tabread4~ db1;
#X connect 0 0 6 0;
#X connect 1 0 0 0;
#X connect 2 0 1 0;
#X connect 4 0 1 2;
#X connect 5 0 1 1;
#X connect 6 0 3 0;
#X restore 242 281 pd bit;
#N canvas 2 52 326 248 bit 0;
#X obj 35 116 vline~;
#N canvas 1114 431 523 497 rangecompute 0;
#X obj 197 194 samplerate~;
#X obj 225 170 bng 15 250 50 0 empty empty empty 17 7 0 10 -262144
-1 -1;
#X floatatom 225 219 5 0 0 0 - - -, f 5;
#X msg 330 225 0;
#X msg 175 390 \$1 \$2;
#X obj 138 204 f;
#X obj 175 82 t b b b;
#X obj 182 274 /;
#X floatatom 222 305 8 0 0 0 - - -, f 8;
#X obj 144 360 pack f f;
#X obj 138 246 t f f;
#X obj 117 38 inlet;
#X text 156 38 play;
#X text 335 30 samples;
#X obj 291 27 inlet;
#X obj 257 449 outlet;
#X text 310 449 feeds a vline;
#X obj 425 32 inlet;
#X text 437 55 speed ctl;
#X obj 217 247 / 1000;
#X obj 201 330 * 1;
#X obj 86 422 print halbard;
#X connect 0 0 2 0;
#X connect 0 0 19 0;
#X connect 1 0 0 0;
#X connect 3 0 15 0;
#X connect 4 0 15 0;
#X connect 5 0 10 0;
#X connect 6 0 5 0;
#X connect 6 1 0 0;
#X connect 6 2 3 0;
#X connect 7 0 8 0;
#X connect 7 0 20 0;
#X connect 9 0 4 0;
#X connect 9 0 21 0;
#X connect 10 0 9 0;
#X connect 10 1 7 0;
#X connect 11 0 6 0;
#X connect 14 0 5 1;
#X connect 17 0 20 1;
#X connect 19 0 7 1;
#X connect 20 0 9 1;
#X restore 36 95 pd rangecompute;
#X obj 30 28 inlet;
#X obj 34 167 outlet~;
#X obj 155 63 r db1speed;
#X obj 78 62 r db1samp;
#X obj 35 139 tabread4~ db1;
#X connect 0 0 6 0;
#X connect 1 0 0 0;
#X connect 2 0 1 0;
#X connect 4 0 1 2;
#X connect 5 0 1 1;
#X connect 6 0 3 0;
#X restore 292 280 pd bit;
#N canvas 2 52 326 248 bit 0;
#X obj 35 116 vline~;
#N canvas 1114 431 523 497 rangecompute 0;
#X obj 197 194 samplerate~;
#X obj 225 170 bng 15 250 50 0 empty empty empty 17 7 0 10 -262144
-1 -1;
#X floatatom 225 219 5 0 0 0 - - -, f 5;
#X msg 330 225 0;
#X msg 175 390 \$1 \$2;
#X obj 138 204 f;
#X obj 175 82 t b b b;
#X obj 182 274 /;
#X floatatom 222 305 8 0 0 0 - - -, f 8;
#X obj 144 360 pack f f;
#X obj 138 246 t f f;
#X obj 117 38 inlet;
#X text 156 38 play;
#X text 335 30 samples;
#X obj 291 27 inlet;
#X obj 257 449 outlet;
#X text 310 449 feeds a vline;
#X obj 425 32 inlet;
#X text 437 55 speed ctl;
#X obj 217 247 / 1000;
#X obj 201 330 * 1;
#X obj 86 422 print halbard;
#X connect 0 0 2 0;
#X connect 0 0 19 0;
#X connect 1 0 0 0;
#X connect 3 0 15 0;
#X connect 4 0 15 0;
#X connect 5 0 10 0;
#X connect 6 0 5 0;
#X connect 6 1 0 0;
#X connect 6 2 3 0;
#X connect 7 0 8 0;
#X connect 7 0 20 0;
#X connect 9 0 4 0;
#X connect 9 0 21 0;
#X connect 10 0 9 0;
#X connect 10 1 7 0;
#X connect 11 0 6 0;
#X connect 14 0 5 1;
#X connect 17 0 20 1;
#X connect 19 0 7 1;
#X connect 20 0 9 1;
#X restore 36 95 pd rangecompute;
#X obj 30 28 inlet;
#X obj 34 167 outlet~;
#X obj 155 63 r db1speed;
#X obj 78 62 r db1samp;
#X obj 35 139 tabread4~ db1;
#X connect 0 0 6 0;
#X connect 1 0 0 0;
#X connect 2 0 1 0;
#X connect 4 0 1 2;
#X connect 5 0 1 1;
#X connect 6 0 3 0;
#X restore 343 280 pd bit;
#N canvas 2 52 326 248 bit 0;
#X obj 35 116 vline~;
#N canvas 1114 431 523 497 rangecompute 0;
#X obj 197 194 samplerate~;
#X obj 225 170 bng 15 250 50 0 empty empty empty 17 7 0 10 -262144
-1 -1;
#X floatatom 225 219 5 0 0 0 - - -, f 5;
#X msg 330 225 0;
#X msg 175 390 \$1 \$2;
#X obj 138 204 f;
#X obj 175 82 t b b b;
#X obj 182 274 /;
#X floatatom 222 305 8 0 0 0 - - -, f 8;
#X obj 144 360 pack f f;
#X obj 138 246 t f f;
#X obj 117 38 inlet;
#X text 156 38 play;
#X text 335 30 samples;
#X obj 291 27 inlet;
#X obj 257 449 outlet;
#X text 310 449 feeds a vline;
#X obj 425 32 inlet;
#X text 437 55 speed ctl;
#X obj 217 247 / 1000;
#X obj 201 330 * 1;
#X obj 86 422 print halbard;
#X connect 0 0 2 0;
#X connect 0 0 19 0;
#X connect 1 0 0 0;
#X connect 3 0 15 0;
#X connect 4 0 15 0;
#X connect 5 0 10 0;
#X connect 6 0 5 0;
#X connect 6 1 0 0;
#X connect 6 2 3 0;
#X connect 7 0 8 0;
#X connect 7 0 20 0;
#X connect 9 0 4 0;
#X connect 9 0 21 0;
#X connect 10 0 9 0;
#X connect 10 1 7 0;
#X connect 11 0 6 0;
#X connect 14 0 5 1;
#X connect 17 0 20 1;
#X connect 19 0 7 1;
#X connect 20 0 9 1;
#X restore 36 95 pd rangecompute;
#X obj 30 28 inlet;
#X obj 34 167 outlet~;
#X obj 155 63 r db1speed;
#X obj 78 62 r db1samp;
#X obj 35 139 tabread4~ db1;
#X connect 0 0 6 0;
#X connect 1 0 0 0;
#X connect 2 0 1 0;
#X connect 4 0 1 2;
#X connect 5 0 1 1;
#X connect 6 0 3 0;
#X restore 393 279 pd bit;
#N canvas 2 52 326 248 bit 0;
#X obj 35 116 vline~;
#N canvas 1114 431 523 497 rangecompute 0;
#X obj 197 194 samplerate~;
#X obj 225 170 bng 15 250 50 0 empty empty empty 17 7 0 10 -262144
-1 -1;
#X floatatom 225 219 5 0 0 0 - - -, f 5;
#X msg 330 225 0;
#X msg 175 390 \$1 \$2;
#X obj 138 204 f;
#X obj 175 82 t b b b;
#X obj 182 274 /;
#X floatatom 222 305 8 0 0 0 - - -, f 8;
#X obj 144 360 pack f f;
#X obj 138 246 t f f;
#X obj 117 38 inlet;
#X text 156 38 play;
#X text 335 30 samples;
#X obj 291 27 inlet;
#X obj 257 449 outlet;
#X text 310 449 feeds a vline;
#X obj 425 32 inlet;
#X text 437 55 speed ctl;
#X obj 217 247 / 1000;
#X obj 201 330 * 1;
#X obj 86 422 print halbard;
#X connect 0 0 2 0;
#X connect 0 0 19 0;
#X connect 1 0 0 0;
#X connect 3 0 15 0;
#X connect 4 0 15 0;
#X connect 5 0 10 0;
#X connect 6 0 5 0;
#X connect 6 1 0 0;
#X connect 6 2 3 0;
#X connect 7 0 8 0;
#X connect 7 0 20 0;
#X connect 9 0 4 0;
#X connect 9 0 21 0;
#X connect 10 0 9 0;
#X connect 10 1 7 0;
#X connect 11 0 6 0;
#X connect 14 0 5 1;
#X connect 17 0 20 1;
#X connect 19 0 7 1;
#X connect 20 0 9 1;
#X restore 36 95 pd rangecompute;
#X obj 30 28 inlet;
#X obj 34 167 outlet~;
#X obj 155 63 r db1speed;
#X obj 78 62 r db1samp;
#X obj 35 139 tabread4~ db1;
#X connect 0 0 6 0;
#X connect 1 0 0 0;
#X connect 2 0 1 0;
#X connect 4 0 1 2;
#X connect 5 0 1 1;
#X connect 6 0 3 0;
#X restore 441 278 pd bit;
#N canvas 2 52 326 248 bit 0;
#X obj 35 116 vline~;
#N canvas 1114 431 523 497 rangecompute 0;
#X obj 197 194 samplerate~;
#X obj 225 170 bng 15 250 50 0 empty empty empty 17 7 0 10 -262144
-1 -1;
#X floatatom 225 219 5 0 0 0 - - -, f 5;
#X msg 330 225 0;
#X msg 175 390 \$1 \$2;
#X obj 138 204 f;
#X obj 175 82 t b b b;
#X obj 182 274 /;
#X floatatom 222 305 8 0 0 0 - - -, f 8;
#X obj 144 360 pack f f;
#X obj 138 246 t f f;
#X obj 117 38 inlet;
#X text 156 38 play;
#X text 335 30 samples;
#X obj 291 27 inlet;
#X obj 257 449 outlet;
#X text 310 449 feeds a vline;
#X obj 425 32 inlet;
#X text 437 55 speed ctl;
#X obj 217 247 / 1000;
#X obj 201 330 * 1;
#X obj 86 422 print halbard;
#X connect 0 0 2 0;
#X connect 0 0 19 0;
#X connect 1 0 0 0;
#X connect 3 0 15 0;
#X connect 4 0 15 0;
#X connect 5 0 10 0;
#X connect 6 0 5 0;
#X connect 6 1 0 0;
#X connect 6 2 3 0;
#X connect 7 0 8 0;
#X connect 7 0 20 0;
#X connect 9 0 4 0;
#X connect 9 0 21 0;
#X connect 10 0 9 0;
#X connect 10 1 7 0;
#X connect 11 0 6 0;
#X connect 14 0 5 1;
#X connect 17 0 20 1;
#X connect 19 0 7 1;
#X connect 20 0 9 1;
#X restore 36 95 pd rangecompute;
#X obj 30 28 inlet;
#X obj 34 167 outlet~;
#X obj 155 63 r db1speed;
#X obj 78 62 r db1samp;
#X obj 35 139 tabread4~ db1;
#X connect 0 0 6 0;
#X connect 1 0 0 0;
#X connect 2 0 1 0;
#X connect 4 0 1 2;
#X connect 5 0 1 1;
#X connect 6 0 3 0;
#X restore 491 277 pd bit;
#X connect 1 0 9 0;
#X connect 2 0 4 0;
#X connect 3 0 10 0;
#X connect 4 0 6 0;
#X connect 4 0 7 0;
#X connect 5 0 4 0;
#X connect 6 0 8 0;
#X connect 6 1 11 0;
#X connect 6 2 12 0;
#X connect 6 3 13 0;
#X connect 6 4 14 0;
#X connect 6 5 15 0;
#X connect 6 6 16 0;
#X connect 6 7 17 0;
#X connect 6 8 18 0;
#X connect 6 9 19 0;
#X connect 8 0 0 0;
#X connect 11 0 0 0;
#X connect 12 0 0 0;
#X connect 13 0 0 0;
#X connect 14 0 0 0;
#X connect 15 0 0 0;
#X connect 16 0 0 0;
#X connect 17 0 0 0;
#X connect 18 0 0 0;
#X connect 19 0 0 0;
#X restore 81 256 pd bankplayer;
#X obj 69 340 outlet~;
#X obj 24 110 inlet;
#X obj 173 207 inlet;
#X msg 116 83 read -resize /home/jason/toorcamp/drumbeat01.wav db1
;
#X connect 0 0 6 1;
#X connect 1 0 10 0;
#X connect 3 0 6 0;
#X connect 5 0 6 2;
#X connect 6 0 7 0;
#X connect 8 0 3 0;
#X connect 9 0 5 0;
#X connect 10 0 0 0;
#X restore 127 131 pd db1;
#X obj 318 178 infinity_pedal;
#N canvas 162 422 244 357 tog 0;
#X obj 47 19 inlet;
#X obj 46 267 outlet;
#X obj 50 65 select 1;
#X obj 51 158 mod 2;
#X msg 54 90 bang;
#X obj 55 130 f;
#X obj 84 131 + 1;
#X obj 47 178 select 1;
#X msg 55 210 0;
#X msg 95 208 1;
#X connect 0 0 2 0;
#X connect 2 0 4 0;
#X connect 3 0 7 0;
#X connect 4 0 5 0;
#X connect 5 0 6 0;
#X connect 5 0 3 0;
#X connect 6 0 5 1;
#X connect 7 0 8 0;
#X connect 7 1 9 0;
#X connect 8 0 1 0;
#X connect 9 0 1 0;
#X restore 413 203 pd tog;
#X obj 419 227 tgl 15 0 empty empty empty 17 7 0 10 -262144 -1 -1 0
1;
#N canvas 162 422 244 357 tog 0;
#X obj 47 19 inlet;
#X obj 46 267 outlet;
#X obj 50 65 select 1;
#X obj 51 158 mod 2;
#X msg 54 90 bang;
#X obj 55 130 f;
#X obj 84 131 + 1;
#X obj 47 178 select 1;
#X msg 55 210 0;
#X msg 95 208 1;
#X connect 0 0 2 0;
#X connect 2 0 4 0;
#X connect 3 0 7 0;
#X connect 4 0 5 0;
#X connect 5 0 6 0;
#X connect 5 0 3 0;
#X connect 6 0 5 1;
#X connect 7 0 8 0;
#X connect 7 1 9 0;
#X connect 8 0 1 0;
#X connect 9 0 1 0;
#X restore 356 203 pd tog;
#X obj 362 227 tgl 15 0 empty empty empty 17 7 0 10 -262144 -1 -1 0
1;
#N canvas 162 422 244 357 tog 0;
#X obj 47 19 inlet;
#X obj 46 267 outlet;
#X obj 50 65 select 1;
#X obj 51 158 mod 2;
#X msg 54 90 bang;
#X obj 55 130 f;
#X obj 84 131 + 1;
#X obj 47 178 select 1;
#X msg 55 210 0;
#X msg 95 208 1;
#X connect 0 0 2 0;
#X connect 2 0 4 0;
#X connect 3 0 7 0;
#X connect 4 0 5 0;
#X connect 5 0 6 0;
#X connect 5 0 3 0;
#X connect 6 0 5 1;
#X connect 7 0 8 0;
#X connect 7 1 9 0;
#X connect 8 0 1 0;
#X connect 9 0 1 0;
#X restore 299 204 pd tog;
#X obj 305 228 tgl 15 0 empty empty empty 17 7 0 10 -262144 -1 -1 1
1;
#X obj 290 262 select 1;
#X obj 292 379 vline~;
#X obj 292 402 tabread4~ db1;
#X floatatom 293 333 5 0 0 0 - - -, f 5;
#X obj 295 309 bng 15 250 50 0 empty empty empty 17 7 0 10 -262144
-1 -1;
#X msg 292 354 7345 \, 33000 \$1;
#X obj 370 263 select 1;
#X obj 300 479 vline~;
#X obj 257 518 *~;
#X obj 345 299 t b b;
#X obj 141 35 loadbang;
#X msg 90 63 3;
#X msg 150 65 3;
#X msg 201 63 3;
#X msg 307 447 0 \, 1 15;
#X obj 242 21 ctlin 13;
#X obj 234 42 range 0 127 1 8;
#X obj 358 43 range 0 127 1 8;
#X obj 367 22 ctlin 14;
#X obj 457 264 select 1;
#X obj 482 42 range 0 127 1 8;
#X obj 491 21 ctlin 15;
#X connect 1 0 0 0;
#X connect 2 0 1 0;
#X connect 3 0 1 1;
#X connect 4 0 9 0;
#X connect 5 0 9 1;
#X connect 6 0 8 0;
#X connect 7 0 8 1;
#X connect 8 0 0 0;
#X connect 9 0 0 0;
#X connect 10 0 15 0;
#X connect 10 0 17 0;
#X connect 10 1 13 0;
#X connect 10 1 23 0;
#X connect 10 2 11 0;
#X connect 10 2 36 0;
#X connect 11 0 12 0;
#X connect 13 0 14 0;
#X connect 15 0 16 0;
#X connect 17 0 2 0;
#X connect 18 0 19 0;
#X connect 19 0 25 0;
#X connect 20 0 22 0;
#X connect 21 0 20 0;
#X connect 22 0 18 0;
#X connect 23 0 4 0;
#X connect 24 0 25 1;
#X connect 25 0 0 0;
#X connect 26 0 21 0;
#X connect 26 1 31 0;
#X connect 27 0 28 0;
#X connect 27 0 29 0;
#X connect 27 0 30 0;
#X connect 28 0 3 0;
#X connect 29 0 5 0;
#X connect 30 0 7 0;
#X connect 31 0 24 0;
#X connect 32 0 33 0;
#X connect 33 0 3 0;
#X connect 34 0 5 0;
#X connect 35 0 34 0;
#X connect 36 0 6 0;
#X connect 37 0 7 0;
#X connect 38 0 37 0;
#X restore 431 215 pd fiasco;
#N canvas 2 52 706 507 voices 0;
#N canvas 1021 80 722 719 voices1 0;
#X obj 15 692 outlet~;
#X obj 119 64 soundfiler;
#N canvas 0 50 450 250 (subpatch) 0;
#X array words1 3.15187e+06 float 2;
#X coords 0 1 3.15187e+06 -1 400 140 1 0 0;
#X restore 237 77 graph;
#X floatatom 145 106 8 0 0 0 - - -, f 8;
#X obj 394 282 gran2~;
#X msg 28 388 stop;
#X msg 16 365 0;
#X obj 15 414 tabplay~ words1;
#X msg 119 32 read -resize /home/jason/toorcamp/Cwords1.wav words1
;
#X obj 164 496 vline~;
#X obj 36 130 bng 15 250 50 0 empty empty empty 17 7 0 10 -262144 -1
-1;
#X text 54 129 play;
#X obj 162 633 tabread4~ words1;
#X obj 161 608 +~;
#X floatatom 235 503 5 0 0 0 - - -, f 5;
#X floatatom 262 562 5 0 0 0 - - -, f 5;
#X obj 293 632 tabread4~ words1;
#X obj 292 607 +~;
#X floatatom 366 502 5 0 0 0 - - -, f 5;
#X floatatom 393 561 5 0 0 0 - - -, f 5;
#N canvas 1117 434 523 497 rangecompute 0;
#X obj 197 194 samplerate~;
#X obj 225 170 bng 15 250 50 0 empty empty empty 17 7 0 10 -262144
-1 -1;
#X floatatom 225 219 5 0 0 0 - - -, f 5;
#X msg 330 225 0;
#X msg 175 390 \$1 \$2;
#X obj 138 204 f;
#X obj 175 82 t b b b;
#X obj 182 274 /;
#X floatatom 222 305 8 0 0 0 - - -, f 8;
#X obj 144 360 pack f f;
#X obj 92 410 print shel;
#X obj 138 246 t f f;
#X obj 117 38 inlet;
#X text 156 38 play;
#X text 335 30 samples;
#X obj 291 27 inlet;
#X obj 257 449 outlet;
#X text 310 449 feeds a vline;
#X obj 425 32 inlet;
#X text 437 55 speed ctl;
#X obj 217 247 / 1000;
#X obj 201 330 * 1;
#X connect 0 0 2 0;
#X connect 0 0 20 0;
#X connect 1 0 0 0;
#X connect 3 0 16 0;
#X connect 4 0 16 0;
#X connect 5 0 11 0;
#X connect 6 0 5 0;
#X connect 6 1 0 0;
#X connect 6 2 3 0;
#X connect 7 0 8 0;
#X connect 7 0 21 0;
#X connect 9 0 4 0;
#X connect 9 0 10 0;
#X connect 11 0 9 0;
#X connect 11 1 7 0;
#X connect 12 0 6 0;
#X connect 15 0 5 1;
#X connect 18 0 21 1;
#X connect 20 0 7 1;
#X connect 21 0 9 1;
#X restore 167 367 pd rangecompute;
#X floatatom 269 332 5 0 0 0 - - -, f 5;
#X obj 44 30 loadbang;
#X msg 269 307 1.2;
#X obj 269 277 loadbang;
#X obj 222 538 osc~ 4;
#X obj 353 537 osc~ 5;
#X obj 352 584 *~ 22;
#X obj 220 585 *~ 375;
#X obj 33 71 inlet;
#X obj 15 496 dline~ 177 0.65;
#X connect 1 0 3 0;
#X connect 1 0 20 1;
#X connect 5 0 7 0;
#X connect 6 0 7 0;
#X connect 7 0 30 0;
#X connect 8 0 1 0;
#X connect 9 0 13 0;
#X connect 9 0 17 0;
#X connect 10 0 6 0;
#X connect 10 0 20 0;
#X connect 12 0 0 0;
#X connect 13 0 12 0;
#X connect 14 0 25 0;
#X connect 15 0 28 1;
#X connect 16 0 0 0;
#X connect 17 0 16 0;
#X connect 18 0 26 0;
#X connect 19 0 27 1;
#X connect 20 0 9 0;
#X connect 21 0 20 2;
#X connect 22 0 8 0;
#X connect 23 0 21 0;
#X connect 24 0 23 0;
#X connect 25 0 28 0;
#X connect 26 0 27 0;
#X connect 27 0 17 1;
#X connect 28 0 13 1;
#X connect 29 0 10 0;
#X connect 30 0 0 0;
#X restore 93 184 pd voices1;
#X obj 90 364 *~;
#X obj 114 346 hsl 128 15 0 1 0 0 empty empty empty -2 -8 0 10 -262144
-1 -1 3800 1;
#X floatatom 127 368 5 0 0 0 - - -, f 5;
#X obj 112 328 tgl 15 0 empty empty empty 17 7 0 10 -262144 -1 -1 0
1;
#X obj 92 162 bng 15 250 50 0 empty empty empty 17 7 0 10 -262144 -1
-1;
#X obj 90 415 outlet~;
#N canvas 728 63 623 660 distorto 0;
#X obj 108 58 inlet~;
#X obj 102 602 outlet~;
#N canvas 0 50 450 250 (subpatch) 0;
#X array distorto 100 float 3;
#A 0 -1.01427 -0.999982 -0.999982 -0.971411 -0.957125 -0.857143 -0.857143
-0.914269 -0.899983 -0.885697 -0.857126 -0.842841 -0.685714 -0.7 -0.714286
-0.728571 -0.742857 -0.714271 -0.699985 -0.671414 -0.657128 -0.557143
-0.542857 -0.599986 -0.585701 -0.585701 -0.899999 -0.542844 -0.542844
-0.528558 -0.514273 -0.414286 -0.414286 -0.485702 -0.471416 -0.442845
-0.414274 -0.399988 -0.399988 -0.371417 -0.357132 -0.228572 -0.228572
-0.257143 -0.257143 -0.285714 -0.3 -0.257133 -0.242847 -0.171429 -0.214276
-0.19999 -0.171419 -0.0428573 -0.142848 -0.0999914 -0.0999914 -0.0714203
-0.0428492 0.128572 0.128572 0.142857 0.157143 0.214286 0.228572 0.228572
0.242857 0.242857 0.3 0.257143 0.257143 0.271429 0.271433 0.300004
0.328575 0.357147 0.357147 0.400003 0.414286 0.44286 0.471431 0.485717
0.514288 0.542859 0.557145 0.600001 0.628572 0.628572 0.657143 0.685715
0.714286 0.742857 0.771429 0.785714 0.814285 0.857141 0.885713 0.928569
0.95714 1.04285;
#X coords 0 1 99 -1 200 140 1;
#X restore 283 66 graph;
#X obj 101 510 tabread~ distorto;
#X obj 110 321 +~ 1;
#X obj 103 344 /~ 2;
#X obj 102 369 *~ 100;
#X connect 0 0 4 0;
#X connect 3 0 1 0;
#X connect 4 0 5 0;
#X connect 5 0 6 0;
#X connect 6 0 3 0;
#X restore 121 209 pd distorto;
#X obj 87 131 select 127;
#X obj 88 99 ctlin 31;
#X obj 388 178 ctlin 95;
#X obj 387 210 range 0 127 0 1;
#X connect 0 0 1 0;
#X connect 0 0 7 0;
#X connect 1 0 6 0;
#X connect 2 0 3 0;
#X connect 2 0 1 1;
#X connect 4 0 2 0;
#X connect 5 0 0 0;
#X connect 7 0 1 0;
#X connect 8 0 5 0;
#X connect 9 0 8 0;
#X connect 10 0 11 0;
#X connect 11 0 2 0;
#X restore 425 182 pd voices;
#X connect 1 0 0 2;
#X connect 2 0 0 0;
#X connect 2 0 0 1;
#X connect 3 0 1 0;
#X connect 4 0 5 0;
#X connect 5 0 2 0;
#X connect 6 0 7 0;
#X connect 6 0 5 1;
#X connect 8 0 6 0;
#X connect 9 0 10 0;
#X connect 10 0 0 2;
#X connect 11 0 2 0;
#X connect 12 0 2 0;
#X connect 13 0 2 0;
#X connect 14 0 2 0;
