#N canvas 143 151 939 516 10;
#X obj 18 56 dialtone~ 1;
#X obj 137 374 mout~;
#X obj 111 52 offhook~;
#X obj 297 261 osc~;
#X obj 272 90 f 913.8;
#X obj 307 152 f 985.2;
#X obj 380 89 f 1370.6;
#X obj 407 155 f 1428.5;
#X obj 504 132 f 1776.7;
#X obj 272 64 r \$0_low1;
#X obj 307 130 r \$0_hi1;
#X obj 404 127 r \$0_hi2;
#X obj 380 67 r \$0_low2;
#X obj 504 109 r \$0_low3;
#X obj 309 341 *~;
#X obj 359 315 vline~;
#X obj 580 360 delay 380;
#X msg 497 212 bang;
#X obj 496 233 t b b b;
#X msg 377 266 1 5;
#X msg 583 383 0 5;
#X obj 528 285 t b b;
#X obj 547 334 t b b;
#X obj 524 260 delay 380;
#X obj 547 310 delay 276;
#X msg 697 102 long hi \, short lo \, long lo;
#X obj 668 36 list;
#X obj 699 128 route long short;
#X obj 779 165 print short;
#X obj 679 175 t b s;
#X obj 711 199 select hi;
#X obj 684 273 delay;
#X connect 3 0 14 0;
#X connect 4 0 3 0;
#X connect 5 0 3 0;
#X connect 6 0 3 0;
#X connect 7 0 3 0;
#X connect 8 0 3 0;
#X connect 9 0 4 0;
#X connect 10 0 5 0;
#X connect 11 0 7 0;
#X connect 12 0 6 0;
#X connect 13 0 8 0;
#X connect 14 0 1 0;
#X connect 15 0 14 1;
#X connect 16 0 20 0;
#X connect 17 0 18 0;
#X connect 18 0 19 0;
#X connect 18 1 4 0;
#X connect 18 2 23 0;
#X connect 19 0 15 0;
#X connect 20 0 15 0;
#X connect 21 0 7 0;
#X connect 21 1 24 0;
#X connect 22 0 8 0;
#X connect 22 1 16 0;
#X connect 23 0 21 0;
#X connect 24 0 22 0;
#X connect 25 0 27 0;
#X connect 27 0 29 0;
#X connect 27 1 28 0;
#X connect 29 1 30 0;
