#N canvas 97 323 660 464 10;
#X obj 152 117 textfile;
#X msg 86 64 bang;
#X msg 154 73 rewind;
#X msg 181 52 read /tmp/times.txt cr;
#X obj 205 160 print zzz;
#X obj 162 194 delay;
#X obj 84 157 print;
#X obj 127 159 t b b f;
#X obj 27 191 noise~;
#X obj 81 308 sout~;
#X obj 33 237 *~ 5;
#X obj 27 212 bp~ 1150 3;
#X obj 154 32 t b b;
#X msg 154 11 bang;
#X obj 362 115 textfile;
#X msg 364 71 rewind;
#X obj 364 30 t b b;
#X msg 364 9 bang;
#X obj 340 250 osc~;
#X obj 369 209 mtof;
#X floatatom 384 242 5 0 0 0 - - -;
#X obj 376 171 + 60;
#X obj 133 232 adsr~ 110 0.7 2 2 2;
#X obj 103 282 *~;
#X msg 390 50 read /tmp/sounds.txt cr;
#X floatatom 199 195 5 0 0 0 - - -;
#X obj 390 146 * 1.25;
#X connect 0 0 6 0;
#X connect 0 0 7 0;
#X connect 0 1 4 0;
#X connect 1 0 0 0;
#X connect 1 0 14 0;
#X connect 2 0 0 0;
#X connect 3 0 0 0;
#X connect 5 0 1 0;
#X connect 7 0 22 0;
#X connect 7 1 5 0;
#X connect 7 2 5 1;
#X connect 7 2 25 0;
#X connect 8 0 11 0;
#X connect 11 0 10 0;
#X connect 12 0 2 0;
#X connect 12 1 3 0;
#X connect 13 0 12 0;
#X connect 14 0 26 0;
#X connect 15 0 14 0;
#X connect 16 0 15 0;
#X connect 16 1 24 0;
#X connect 17 0 16 0;
#X connect 18 0 23 0;
#X connect 19 0 18 0;
#X connect 19 0 20 0;
#X connect 21 0 19 0;
#X connect 22 0 23 1;
#X connect 23 0 9 0;
#X connect 23 0 9 1;
#X connect 24 0 14 0;
#X connect 26 0 21 0;
