#N canvas 45 28 797 637 10;
#X obj 57 481 sout~;
#X obj 141 452 loadbang;
#X obj 83 449 *~ -1;
#X msg 142 481 0.5;
#X obj 68 261 osc~;
#X obj 34 52 bng 25 250 50 0 empty empty empty 0 -6 0 8 -225271 -1
-1;
#N canvas 0 0 498 440 bars 0;
#X obj 61 261 rndseq 4 25 75;
#X floatatom 73 286 5 0 0 0 - - -;
#X obj 63 309 mtof;
#X obj 177 235 bng 15 250 50 0 empty empty empty 0 -6 0 8 -262144 -1
-1;
#X obj 63 338 outlet;
#X obj 211 36 inlet;
#X text 197 17 randomize;
#X obj 29 27 inlet;
#X text 28 8 start;
#X obj 248 348 outlet;
#X text 233 332 finished;
#X obj 214 97 random 3;
#X obj 214 130 + 1;
#X obj 61 189 loadbang;
#X floatatom 227 157 5 0 0 0 - - -;
#X obj 171 209 bangs 4 150;
#X obj 297 148 r barsbase;
#X obj 210 178 * 4;
#X obj 96 38 r barslen;
#X obj 103 73 t f f;
#X connect 0 0 2 0;
#X connect 0 0 1 0;
#X connect 2 0 4 0;
#X connect 5 0 11 0;
#X connect 5 0 0 0;
#X connect 7 0 15 0;
#X connect 11 0 12 0;
#X connect 12 0 14 0;
#X connect 12 0 17 0;
#X connect 13 0 0 0;
#X connect 15 0 3 0;
#X connect 15 0 0 4;
#X connect 15 1 9 0;
#X connect 16 0 15 2;
#X connect 17 0 15 1;
#X connect 18 0 19 0;
#X connect 19 0 0 1;
#X connect 19 1 17 1;
#X restore 263 206 pd bars;
#X obj 306 187 bng 15 250 50 0 empty empty empty 0 -6 0 8 -262144 -1
-1;
#N canvas 0 0 498 440 bars 0;
#X obj 61 261 rndseq 4 25 75;
#X floatatom 73 286 5 0 0 0 - - -;
#X obj 63 309 mtof;
#X obj 177 235 bng 15 250 50 0 empty empty empty 0 -6 0 8 -262144 -1
-1;
#X obj 63 338 outlet;
#X obj 211 36 inlet;
#X text 197 17 randomize;
#X obj 29 27 inlet;
#X text 28 8 start;
#X obj 248 348 outlet;
#X text 233 332 finished;
#X obj 214 97 random 3;
#X obj 214 130 + 1;
#X obj 61 189 loadbang;
#X floatatom 227 157 5 0 0 0 - - -;
#X obj 171 209 bangs 4 150;
#X obj 297 148 r barsbase;
#X obj 210 178 * 4;
#X obj 96 38 r barslen;
#X obj 103 73 t f f;
#X connect 0 0 2 0;
#X connect 0 0 1 0;
#X connect 2 0 4 0;
#X connect 5 0 11 0;
#X connect 5 0 0 0;
#X connect 7 0 15 0;
#X connect 11 0 12 0;
#X connect 12 0 14 0;
#X connect 12 0 17 0;
#X connect 13 0 0 0;
#X connect 15 0 3 0;
#X connect 15 0 0 4;
#X connect 15 1 9 0;
#X connect 16 0 15 2;
#X connect 17 0 15 1;
#X connect 18 0 19 0;
#X connect 19 0 0 1;
#X connect 19 1 17 1;
#X restore 188 207 pd bars;
#X obj 231 188 bng 15 250 50 0 empty empty empty 0 -6 0 8 -262144 -1
-1;
#N canvas 0 0 498 440 bars 0;
#X obj 61 261 rndseq 4 25 75;
#X floatatom 73 286 5 0 0 0 - - -;
#X obj 63 309 mtof;
#X obj 177 235 bng 15 250 50 0 empty empty empty 0 -6 0 8 -262144 -1
-1;
#X obj 63 338 outlet;
#X obj 211 36 inlet;
#X text 197 17 randomize;
#X obj 29 27 inlet;
#X text 28 8 start;
#X obj 248 348 outlet;
#X text 233 332 finished;
#X obj 214 97 random 3;
#X obj 214 130 + 1;
#X obj 61 189 loadbang;
#X floatatom 227 157 5 0 0 0 - - -;
#X obj 171 209 bangs 4 150;
#X obj 297 148 r barsbase;
#X obj 210 178 * 4;
#X obj 96 38 r barslen;
#X obj 103 73 t f f;
#X connect 0 0 2 0;
#X connect 0 0 1 0;
#X connect 2 0 4 0;
#X connect 5 0 11 0;
#X connect 5 0 0 0;
#X connect 7 0 15 0;
#X connect 11 0 12 0;
#X connect 12 0 14 0;
#X connect 12 0 17 0;
#X connect 13 0 0 0;
#X connect 15 0 3 0;
#X connect 15 0 0 4;
#X connect 15 1 9 0;
#X connect 16 0 15 2;
#X connect 17 0 15 1;
#X connect 18 0 19 0;
#X connect 19 0 0 1;
#X connect 19 1 17 1;
#X restore 110 208 pd bars;
#X obj 153 189 bng 15 250 50 0 empty empty empty 0 -6 0 8 -262144 -1
-1;
#N canvas 0 0 510 452 bars 0;
#X obj 61 261 rndseq 4 25 75;
#X floatatom 73 286 5 0 0 0 - - -;
#X obj 63 309 mtof;
#X obj 177 235 bng 15 250 50 0 empty empty empty 0 -6 0 8 -262144 -1
-1;
#X obj 63 338 outlet;
#X obj 211 36 inlet;
#X text 197 17 randomize;
#X obj 29 27 inlet;
#X text 28 8 start;
#X obj 248 348 outlet;
#X text 233 332 finished;
#X obj 214 76 random 3;
#X obj 214 109 + 1;
#X obj 61 189 loadbang;
#X floatatom 227 136 5 0 0 0 - - -;
#X obj 171 209 bangs 4 150;
#X obj 297 127 r barsbase;
#X obj 210 178 * 4;
#X obj 96 38 r barslen;
#X obj 103 73 t f f;
#X connect 0 0 2 0;
#X connect 0 0 1 0;
#X connect 2 0 4 0;
#X connect 5 0 11 0;
#X connect 5 0 0 0;
#X connect 7 0 15 0;
#X connect 11 0 12 0;
#X connect 12 0 14 0;
#X connect 12 0 17 0;
#X connect 13 0 0 0;
#X connect 15 0 3 0;
#X connect 15 0 0 4;
#X connect 15 1 9 0;
#X connect 16 0 15 2;
#X connect 17 0 15 1;
#X connect 18 0 19 0;
#X connect 19 0 0 1;
#X connect 19 1 17 1;
#X restore 28 210 pd bars;
#X obj 71 191 bng 15 250 50 0 empty empty empty 0 -6 0 8 -262144 -1
-1;
#X obj 68 237 bng 15 250 50 0 empty empty empty 0 -6 0 8 -262144 -1
-1;
#X obj 148 232 bng 15 250 50 0 empty empty empty 0 -6 0 8 -262144 -1
-1;
#X obj 230 238 bng 15 250 50 0 empty empty empty 0 -6 0 8 -262144 -1
-1;
#X obj 310 238 bng 15 250 50 0 empty empty empty 0 -6 0 8 -262144 -1
-1;
#X obj 98 344 *~ 0.7;
#X obj 64 372 /~ 2;
#X floatatom 150 30 5 0 0 0 - - -;
#X obj 150 63 s barslen;
#X obj 69 153 r btn_0;
#X obj 152 153 r btn_1;
#X obj 226 150 r btn_2;
#X obj 305 152 r btn_3;
#X obj 102 311 dline~ 250 0.92;
#X floatatom 222 30 5 0 0 0 - - -;
#X obj 222 63 s barsbase;
#X text 27 32 start;
#X text 150 79 manual controls;
#X msg 239 501 bang;
#X obj 239 526 s btn_0;
#X obj 275 419 random 120000;
#X obj 275 442 + 30000;
#X obj 247 475 delay;
#X floatatom 289 464 7 0 0 0 - - -;
#X obj 242 396 t b b;
#X obj 242 376 loadbang;
#X msg 373 504 bang;
#X obj 409 422 random 120000;
#X obj 409 445 + 30000;
#X obj 381 478 delay;
#X floatatom 423 467 7 0 0 0 - - -;
#X obj 376 399 t b b;
#X obj 376 379 loadbang;
#X obj 373 529 s btn_1;
#X msg 507 506 bang;
#X obj 543 424 random 120000;
#X obj 543 447 + 30000;
#X obj 515 480 delay;
#X floatatom 557 469 7 0 0 0 - - -;
#X obj 510 401 t b b;
#X obj 510 381 loadbang;
#X msg 639 507 bang;
#X obj 675 425 random 120000;
#X obj 675 448 + 30000;
#X obj 647 481 delay;
#X floatatom 689 470 7 0 0 0 - - -;
#X obj 642 402 t b b;
#X obj 642 382 loadbang;
#X obj 507 531 s btn_2;
#X obj 637 533 s btn_3;
#X obj 432 254 loadbang;
#X msg 508 314 8;
#X msg 550 313 500;
#X obj 508 339 s barslen;
#X obj 580 340 s barsbase;
#X obj 131 556 wavrec2~;
#X obj 433 282 t b b b;
#X obj 349 345 s btn_0;
#X obj 397 324 s btn_1;
#X obj 405 345 s btn_2;
#X obj 453 325 s btn_3;
#X obj 451 55 random 120000;
#X obj 451 78 + 30000;
#X obj 423 111 delay;
#X floatatom 465 100 7 0 0 0 - - -;
#X obj 418 32 t b b;
#X obj 418 12 loadbang;
#X obj 423 132 t b b;
#X obj 452 216 s barsbase;
#X obj 453 154 random 1000;
#X obj 452 177 + 300;
#X floatatom 452 197 5 0 0 0 - - -;
#X obj 626 57 random 120000;
#X obj 626 80 + 30000;
#X obj 598 113 delay;
#X floatatom 640 102 7 0 0 0 - - -;
#X obj 593 34 t b b;
#X obj 593 14 loadbang;
#X obj 598 134 t b b;
#X floatatom 627 199 5 0 0 0 - - -;
#X obj 627 218 s barslen;
#X obj 627 179 + 3;
#X obj 628 156 random 8;
#X obj 418 169 bng 15 250 50 0 empty empty empty 17 7 0 10 -262144
-1 -1;
#X obj 595 165 bng 15 250 50 0 empty empty empty 17 7 0 10 -262144
-1 -1;
#X obj 131 532 *~ 0.5;
#X obj 180 532 *~ 0.5;
#X connect 1 0 3 0;
#X connect 2 0 0 1;
#X connect 2 0 99 0;
#X connect 3 0 0 2;
#X connect 4 0 19 0;
#X connect 4 0 26 0;
#X connect 5 0 12 0;
#X connect 6 0 4 0;
#X connect 6 1 5 0;
#X connect 6 1 17 0;
#X connect 7 0 6 1;
#X connect 8 0 4 0;
#X connect 8 1 6 0;
#X connect 8 1 16 0;
#X connect 9 0 8 1;
#X connect 10 0 4 0;
#X connect 10 1 8 0;
#X connect 10 1 15 0;
#X connect 11 0 10 1;
#X connect 12 0 4 0;
#X connect 12 1 10 0;
#X connect 12 1 14 0;
#X connect 13 0 12 1;
#X connect 18 0 19 0;
#X connect 19 0 2 0;
#X connect 19 0 0 0;
#X connect 19 0 98 0;
#X connect 20 0 21 0;
#X connect 22 0 13 0;
#X connect 23 0 11 0;
#X connect 24 0 9 0;
#X connect 25 0 7 0;
#X connect 26 0 18 0;
#X connect 27 0 28 0;
#X connect 31 0 32 0;
#X connect 31 0 37 0;
#X connect 33 0 34 0;
#X connect 34 0 35 1;
#X connect 34 0 36 0;
#X connect 35 0 31 0;
#X connect 37 0 35 0;
#X connect 37 1 33 0;
#X connect 38 0 37 0;
#X connect 39 0 44 0;
#X connect 39 0 46 0;
#X connect 40 0 41 0;
#X connect 41 0 42 1;
#X connect 41 0 43 0;
#X connect 42 0 39 0;
#X connect 44 0 42 0;
#X connect 44 1 40 0;
#X connect 45 0 44 0;
#X connect 47 0 52 0;
#X connect 47 0 61 0;
#X connect 48 0 49 0;
#X connect 49 0 50 1;
#X connect 49 0 51 0;
#X connect 50 0 47 0;
#X connect 52 0 50 0;
#X connect 52 1 48 0;
#X connect 53 0 52 0;
#X connect 54 0 59 0;
#X connect 54 0 62 0;
#X connect 55 0 56 0;
#X connect 56 0 57 1;
#X connect 56 0 58 0;
#X connect 57 0 54 0;
#X connect 59 0 57 0;
#X connect 59 1 55 0;
#X connect 60 0 59 0;
#X connect 63 0 69 0;
#X connect 64 0 66 0;
#X connect 65 0 67 0;
#X connect 69 0 70 0;
#X connect 69 0 71 0;
#X connect 69 0 72 0;
#X connect 69 0 73 0;
#X connect 69 1 64 0;
#X connect 69 2 65 0;
#X connect 74 0 75 0;
#X connect 75 0 76 1;
#X connect 75 0 77 0;
#X connect 76 0 80 0;
#X connect 78 0 76 0;
#X connect 78 1 74 0;
#X connect 79 0 78 0;
#X connect 80 0 78 0;
#X connect 80 0 96 0;
#X connect 80 1 82 0;
#X connect 82 0 83 0;
#X connect 83 0 84 0;
#X connect 84 0 81 0;
#X connect 85 0 86 0;
#X connect 86 0 87 1;
#X connect 86 0 88 0;
#X connect 87 0 91 0;
#X connect 89 0 87 0;
#X connect 89 1 85 0;
#X connect 90 0 89 0;
#X connect 91 0 89 0;
#X connect 91 0 97 0;
#X connect 91 1 95 0;
#X connect 92 0 93 0;
#X connect 94 0 92 0;
#X connect 95 0 94 0;
#X connect 98 0 68 0;
#X connect 99 0 68 1;
