#N canvas 34 6 854 656 10;
#X obj 26 486 sout~;
#X floatatom 408 103 5 0 0 0 - - -;
#X obj 408 122 s freq;
#N canvas 0 0 450 300 (subpatch) 0;
#X array vol 16 float 3;
#A 0 0.8216 0.6497 0.1177 0.3429 0.9054 0.8633 0.0906 0.6531 0.4979
0.2983 0.8552 0.02 0.6675 0.8065 0.4827 0.6869;
#X coords 0 1 16 0 160 140 1;
#X restore 464 33 graph;
#X obj 27 431 *~ 1;
#X obj 50 456 *~ -1;
#N canvas 624 423 450 300 f1 0;
#X obj 92 165 tabread vol;
#X obj 49 186 osc~;
#X obj 48 40 r freq;
#X obj 48 165 t f b;
#X obj 48 134 *;
#X obj 81 127 - 1;
#X floatatom 97 191 5 0 0 0 - - -;
#X obj 61 216 *~;
#X obj 48 63 t f b;
#X obj 61 259 outlet~;
#X obj 111 8 inlet;
#X obj 133 40 r refresh_vol;
#X msg 134 60 bang;
#X obj 75 104 f;
#X connect 0 0 6 0;
#X connect 0 0 7 1;
#X connect 1 0 7 0;
#X connect 2 0 8 0;
#X connect 3 0 1 0;
#X connect 4 0 3 0;
#X connect 5 0 0 0;
#X connect 7 0 9 0;
#X connect 8 0 4 0;
#X connect 8 1 13 0;
#X connect 10 0 13 1;
#X connect 11 0 12 0;
#X connect 12 0 13 0;
#X connect 13 0 4 1;
#X connect 13 0 5 0;
#X restore 46 171 pd f1;
#X obj 46 140 1;
#X obj 46 116 loadbang;
#X obj 46 40 metro 50;
#X obj 46 18 loadbang;
#X obj 47 65 s refresh_vol;
#X obj 26 19 bng 15 250 50 0 empty empty empty 17 7 0 10 -262144 -1
-1;
#X obj 112 116 loadbang;
#X obj 179 116 loadbang;
#X obj 244 116 loadbang;
#X obj 311 117 loadbang;
#N canvas 624 423 450 300 f5 0;
#X obj 92 165 tabread vol;
#X obj 49 186 osc~;
#X obj 48 40 r freq;
#X obj 48 165 t f b;
#X obj 48 134 *;
#X obj 81 127 - 1;
#X floatatom 97 191 5 0 0 0 - - -;
#X obj 61 216 *~;
#X obj 48 63 t f b;
#X obj 61 259 outlet~;
#X obj 111 8 inlet;
#X obj 133 40 r refresh_vol;
#X msg 134 60 bang;
#X obj 75 104 f;
#X connect 0 0 6 0;
#X connect 0 0 7 1;
#X connect 1 0 7 0;
#X connect 2 0 8 0;
#X connect 3 0 1 0;
#X connect 4 0 3 0;
#X connect 5 0 0 0;
#X connect 7 0 9 0;
#X connect 8 0 4 0;
#X connect 8 1 13 0;
#X connect 10 0 13 1;
#X connect 11 0 12 0;
#X connect 12 0 13 0;
#X connect 13 0 4 1;
#X connect 13 0 5 0;
#X restore 312 172 pd f5;
#N canvas 624 423 450 300 f2 0;
#X obj 92 165 tabread vol;
#X obj 49 186 osc~;
#X obj 48 40 r freq;
#X obj 48 165 t f b;
#X obj 48 134 *;
#X obj 81 127 - 1;
#X floatatom 97 191 5 0 0 0 - - -;
#X obj 61 216 *~;
#X obj 48 63 t f b;
#X obj 61 259 outlet~;
#X obj 111 8 inlet;
#X obj 133 40 r refresh_vol;
#X msg 134 60 bang;
#X obj 75 104 f;
#X connect 0 0 6 0;
#X connect 0 0 7 1;
#X connect 1 0 7 0;
#X connect 2 0 8 0;
#X connect 3 0 1 0;
#X connect 4 0 3 0;
#X connect 5 0 0 0;
#X connect 7 0 9 0;
#X connect 8 0 4 0;
#X connect 8 1 13 0;
#X connect 10 0 13 1;
#X connect 11 0 12 0;
#X connect 12 0 13 0;
#X connect 13 0 4 1;
#X connect 13 0 5 0;
#X restore 113 171 pd f2;
#N canvas 647 597 450 300 f3 0;
#X obj 92 165 tabread vol;
#X obj 49 186 osc~;
#X obj 48 40 r freq;
#X obj 48 165 t f b;
#X obj 48 134 *;
#X obj 81 127 - 1;
#X floatatom 97 191 5 0 0 0 - - -;
#X obj 61 216 *~;
#X obj 48 63 t f b;
#X obj 61 259 outlet~;
#X obj 111 8 inlet;
#X obj 133 40 r refresh_vol;
#X msg 134 60 bang;
#X obj 75 104 f;
#X connect 0 0 6 0;
#X connect 0 0 7 1;
#X connect 1 0 7 0;
#X connect 2 0 8 0;
#X connect 3 0 1 0;
#X connect 4 0 3 0;
#X connect 5 0 0 0;
#X connect 7 0 9 0;
#X connect 8 0 4 0;
#X connect 8 1 13 0;
#X connect 10 0 13 1;
#X connect 11 0 12 0;
#X connect 12 0 13 0;
#X connect 13 0 4 1;
#X connect 13 0 5 0;
#X restore 179 171 pd f3;
#N canvas 640 616 450 300 f4 0;
#X obj 92 165 tabread vol;
#X obj 49 186 osc~;
#X obj 48 40 r freq;
#X obj 48 165 t f b;
#X obj 48 134 *;
#X obj 81 127 - 1;
#X floatatom 97 191 5 0 0 0 - - -;
#X obj 61 216 *~;
#X obj 48 63 t f b;
#X obj 61 259 outlet~;
#X obj 111 8 inlet;
#X obj 133 40 r refresh_vol;
#X msg 134 60 bang;
#X obj 75 104 f;
#X floatatom 129 137 5 0 0 0 - - -;
#X connect 0 0 6 0;
#X connect 0 0 7 1;
#X connect 1 0 7 0;
#X connect 2 0 8 0;
#X connect 3 0 1 0;
#X connect 4 0 3 0;
#X connect 5 0 0 0;
#X connect 5 0 14 0;
#X connect 7 0 9 0;
#X connect 8 0 4 0;
#X connect 8 1 13 0;
#X connect 10 0 13 1;
#X connect 11 0 12 0;
#X connect 12 0 13 0;
#X connect 13 0 4 1;
#X connect 13 0 5 0;
#X restore 244 171 pd f4;
#X obj 112 140 2;
#X obj 179 140 3;
#X obj 244 140 4;
#X obj 311 141 5;
#N canvas 714 280 497 394 recv~ 0;
#X obj 18 364 outlet~;
#X obj 18 25 r~ \$0_f1;
#X obj 81 25 r~ \$0_f2;
#X obj 142 25 r~ \$0_f3;
#X obj 204 25 r~ \$0_f4;
#X obj 266 25 r~ \$0_f5;
#X obj 63 80 r~ \$0_f6;
#X obj 124 80 r~ \$0_f7;
#X obj 186 80 r~ \$0_f8;
#X obj 249 80 r~ \$0_f9;
#X obj 311 80 r~ \$0_f10;
#X obj 91 139 r~ \$0_f11;
#X obj 160 143 r~ \$0_f12;
#X obj 231 141 r~ \$0_f13;
#X obj 301 141 r~ \$0_f14;
#X obj 370 141 r~ \$0_f15;
#X connect 1 0 0 0;
#X connect 2 0 0 0;
#X connect 3 0 0 0;
#X connect 4 0 0 0;
#X connect 5 0 0 0;
#X connect 6 0 0 0;
#X connect 7 0 0 0;
#X connect 8 0 0 0;
#X connect 9 0 0 0;
#X connect 10 0 0 0;
#X connect 11 0 0 0;
#X connect 12 0 0 0;
#X connect 13 0 0 0;
#X connect 14 0 0 0;
#X connect 15 0 0 0;
#X restore 26 395 pd recv~;
#X obj 40 196 s~ \$0_f1;
#X obj 304 194 s~ \$0_f5;
#X obj 240 194 s~ \$0_f4;
#X obj 172 195 s~ \$0_f3;
#X obj 102 195 s~ \$0_f2;
#N canvas 624 423 450 300 f1 0;
#X obj 92 165 tabread vol;
#X obj 49 186 osc~;
#X obj 48 40 r freq;
#X obj 48 165 t f b;
#X obj 48 134 *;
#X obj 81 127 - 1;
#X floatatom 97 191 5 0 0 0 - - -;
#X obj 61 216 *~;
#X obj 48 63 t f b;
#X obj 61 259 outlet~;
#X obj 111 8 inlet;
#X obj 133 40 r refresh_vol;
#X msg 134 60 bang;
#X obj 75 104 f;
#X connect 0 0 6 0;
#X connect 0 0 7 1;
#X connect 1 0 7 0;
#X connect 2 0 8 0;
#X connect 3 0 1 0;
#X connect 4 0 3 0;
#X connect 5 0 0 0;
#X connect 7 0 9 0;
#X connect 8 0 4 0;
#X connect 8 1 13 0;
#X connect 10 0 13 1;
#X connect 11 0 12 0;
#X connect 12 0 13 0;
#X connect 13 0 4 1;
#X connect 13 0 5 0;
#X restore 142 281 pd f1;
#X obj 142 250 1;
#X obj 142 226 loadbang;
#X obj 208 226 loadbang;
#X obj 275 226 loadbang;
#X obj 340 226 loadbang;
#X obj 407 227 loadbang;
#N canvas 624 423 450 300 f5 0;
#X obj 92 165 tabread vol;
#X obj 49 186 osc~;
#X obj 48 40 r freq;
#X obj 48 165 t f b;
#X obj 48 134 *;
#X obj 81 127 - 1;
#X floatatom 97 191 5 0 0 0 - - -;
#X obj 61 216 *~;
#X obj 48 63 t f b;
#X obj 61 259 outlet~;
#X obj 111 8 inlet;
#X obj 133 40 r refresh_vol;
#X msg 134 60 bang;
#X obj 75 104 f;
#X connect 0 0 6 0;
#X connect 0 0 7 1;
#X connect 1 0 7 0;
#X connect 2 0 8 0;
#X connect 3 0 1 0;
#X connect 4 0 3 0;
#X connect 5 0 0 0;
#X connect 7 0 9 0;
#X connect 8 0 4 0;
#X connect 8 1 13 0;
#X connect 10 0 13 1;
#X connect 11 0 12 0;
#X connect 12 0 13 0;
#X connect 13 0 4 1;
#X connect 13 0 5 0;
#X restore 408 282 pd f5;
#N canvas 624 423 450 300 f2 0;
#X obj 92 165 tabread vol;
#X obj 49 186 osc~;
#X obj 48 40 r freq;
#X obj 48 165 t f b;
#X obj 48 134 *;
#X obj 81 127 - 1;
#X floatatom 97 191 5 0 0 0 - - -;
#X obj 61 216 *~;
#X obj 48 63 t f b;
#X obj 61 259 outlet~;
#X obj 111 8 inlet;
#X obj 133 40 r refresh_vol;
#X msg 134 60 bang;
#X obj 75 104 f;
#X connect 0 0 6 0;
#X connect 0 0 7 1;
#X connect 1 0 7 0;
#X connect 2 0 8 0;
#X connect 3 0 1 0;
#X connect 4 0 3 0;
#X connect 5 0 0 0;
#X connect 7 0 9 0;
#X connect 8 0 4 0;
#X connect 8 1 13 0;
#X connect 10 0 13 1;
#X connect 11 0 12 0;
#X connect 12 0 13 0;
#X connect 13 0 4 1;
#X connect 13 0 5 0;
#X restore 209 281 pd f2;
#N canvas 624 423 450 300 f3 0;
#X obj 92 165 tabread vol;
#X obj 49 186 osc~;
#X obj 48 40 r freq;
#X obj 48 165 t f b;
#X obj 48 134 *;
#X obj 81 127 - 1;
#X floatatom 97 191 5 0 0 0 - - -;
#X obj 61 216 *~;
#X obj 48 63 t f b;
#X obj 61 259 outlet~;
#X obj 111 8 inlet;
#X obj 133 40 r refresh_vol;
#X msg 134 60 bang;
#X obj 75 104 f;
#X connect 0 0 6 0;
#X connect 0 0 7 1;
#X connect 1 0 7 0;
#X connect 2 0 8 0;
#X connect 3 0 1 0;
#X connect 4 0 3 0;
#X connect 5 0 0 0;
#X connect 7 0 9 0;
#X connect 8 0 4 0;
#X connect 8 1 13 0;
#X connect 10 0 13 1;
#X connect 11 0 12 0;
#X connect 12 0 13 0;
#X connect 13 0 4 1;
#X connect 13 0 5 0;
#X restore 275 281 pd f3;
#N canvas 624 423 450 300 f4 0;
#X obj 92 165 tabread vol;
#X obj 49 186 osc~;
#X obj 48 40 r freq;
#X obj 48 165 t f b;
#X obj 48 134 *;
#X obj 81 127 - 1;
#X floatatom 97 191 5 0 0 0 - - -;
#X obj 61 216 *~;
#X obj 48 63 t f b;
#X obj 61 259 outlet~;
#X obj 111 8 inlet;
#X obj 133 40 r refresh_vol;
#X msg 134 60 bang;
#X obj 75 104 f;
#X connect 0 0 6 0;
#X connect 0 0 7 1;
#X connect 1 0 7 0;
#X connect 2 0 8 0;
#X connect 3 0 1 0;
#X connect 4 0 3 0;
#X connect 5 0 0 0;
#X connect 7 0 9 0;
#X connect 8 0 4 0;
#X connect 8 1 13 0;
#X connect 10 0 13 1;
#X connect 11 0 12 0;
#X connect 12 0 13 0;
#X connect 13 0 4 1;
#X connect 13 0 5 0;
#X restore 340 281 pd f4;
#X obj 208 250 2;
#X obj 275 250 3;
#X obj 340 250 4;
#X obj 407 251 5;
#N canvas 624 423 450 300 f1 0;
#X obj 92 165 tabread vol;
#X obj 49 186 osc~;
#X obj 48 40 r freq;
#X obj 48 165 t f b;
#X obj 48 134 *;
#X obj 81 127 - 1;
#X floatatom 97 191 5 0 0 0 - - -;
#X obj 61 216 *~;
#X obj 48 63 t f b;
#X obj 61 259 outlet~;
#X obj 111 8 inlet;
#X obj 133 40 r refresh_vol;
#X msg 134 60 bang;
#X obj 75 104 f;
#X connect 0 0 6 0;
#X connect 0 0 7 1;
#X connect 1 0 7 0;
#X connect 2 0 8 0;
#X connect 3 0 1 0;
#X connect 4 0 3 0;
#X connect 5 0 0 0;
#X connect 7 0 9 0;
#X connect 8 0 4 0;
#X connect 8 1 13 0;
#X connect 10 0 13 1;
#X connect 11 0 12 0;
#X connect 12 0 13 0;
#X connect 13 0 4 1;
#X connect 13 0 5 0;
#X restore 211 396 pd f1;
#X obj 211 365 1;
#X obj 211 341 loadbang;
#X obj 277 341 loadbang;
#X obj 344 341 loadbang;
#X obj 409 341 loadbang;
#X obj 476 342 loadbang;
#N canvas 624 423 450 300 f5 0;
#X obj 92 165 tabread vol;
#X obj 49 186 osc~;
#X obj 48 40 r freq;
#X obj 48 165 t f b;
#X obj 48 134 *;
#X obj 81 127 - 1;
#X floatatom 97 191 5 0 0 0 - - -;
#X obj 61 216 *~;
#X obj 48 63 t f b;
#X obj 61 259 outlet~;
#X obj 111 8 inlet;
#X obj 133 40 r refresh_vol;
#X msg 134 60 bang;
#X obj 75 104 f;
#X connect 0 0 6 0;
#X connect 0 0 7 1;
#X connect 1 0 7 0;
#X connect 2 0 8 0;
#X connect 3 0 1 0;
#X connect 4 0 3 0;
#X connect 5 0 0 0;
#X connect 7 0 9 0;
#X connect 8 0 4 0;
#X connect 8 1 13 0;
#X connect 10 0 13 1;
#X connect 11 0 12 0;
#X connect 12 0 13 0;
#X connect 13 0 4 1;
#X connect 13 0 5 0;
#X restore 477 397 pd f5;
#N canvas 624 423 450 300 f2 0;
#X obj 92 165 tabread vol;
#X obj 49 186 osc~;
#X obj 48 40 r freq;
#X obj 48 165 t f b;
#X obj 48 134 *;
#X obj 81 127 - 1;
#X floatatom 97 191 5 0 0 0 - - -;
#X obj 61 216 *~;
#X obj 48 63 t f b;
#X obj 61 259 outlet~;
#X obj 111 8 inlet;
#X obj 133 40 r refresh_vol;
#X msg 134 60 bang;
#X obj 75 104 f;
#X connect 0 0 6 0;
#X connect 0 0 7 1;
#X connect 1 0 7 0;
#X connect 2 0 8 0;
#X connect 3 0 1 0;
#X connect 4 0 3 0;
#X connect 5 0 0 0;
#X connect 7 0 9 0;
#X connect 8 0 4 0;
#X connect 8 1 13 0;
#X connect 10 0 13 1;
#X connect 11 0 12 0;
#X connect 12 0 13 0;
#X connect 13 0 4 1;
#X connect 13 0 5 0;
#X restore 278 396 pd f2;
#N canvas 624 423 450 300 f3 0;
#X obj 92 165 tabread vol;
#X obj 49 186 osc~;
#X obj 48 40 r freq;
#X obj 48 165 t f b;
#X obj 48 134 *;
#X obj 81 127 - 1;
#X floatatom 97 191 5 0 0 0 - - -;
#X obj 61 216 *~;
#X obj 48 63 t f b;
#X obj 61 259 outlet~;
#X obj 111 8 inlet;
#X obj 133 40 r refresh_vol;
#X msg 134 60 bang;
#X obj 75 104 f;
#X connect 0 0 6 0;
#X connect 0 0 7 1;
#X connect 1 0 7 0;
#X connect 2 0 8 0;
#X connect 3 0 1 0;
#X connect 4 0 3 0;
#X connect 5 0 0 0;
#X connect 7 0 9 0;
#X connect 8 0 4 0;
#X connect 8 1 13 0;
#X connect 10 0 13 1;
#X connect 11 0 12 0;
#X connect 12 0 13 0;
#X connect 13 0 4 1;
#X connect 13 0 5 0;
#X restore 344 396 pd f3;
#N canvas 624 423 450 300 f4 0;
#X obj 92 165 tabread vol;
#X obj 49 186 osc~;
#X obj 48 40 r freq;
#X obj 48 165 t f b;
#X obj 48 134 *;
#X obj 81 127 - 1;
#X floatatom 97 191 5 0 0 0 - - -;
#X obj 61 216 *~;
#X obj 48 63 t f b;
#X obj 61 259 outlet~;
#X obj 111 8 inlet;
#X obj 133 40 r refresh_vol;
#X msg 134 60 bang;
#X obj 75 104 f;
#X connect 0 0 6 0;
#X connect 0 0 7 1;
#X connect 1 0 7 0;
#X connect 2 0 8 0;
#X connect 3 0 1 0;
#X connect 4 0 3 0;
#X connect 5 0 0 0;
#X connect 7 0 9 0;
#X connect 8 0 4 0;
#X connect 8 1 13 0;
#X connect 10 0 13 1;
#X connect 11 0 12 0;
#X connect 12 0 13 0;
#X connect 13 0 4 1;
#X connect 13 0 5 0;
#X restore 409 396 pd f4;
#X obj 277 365 2;
#X obj 344 365 3;
#X obj 409 365 4;
#X obj 476 366 5;
#X obj 136 305 s~ \$0_f6;
#X obj 198 305 s~ \$0_f7;
#X obj 268 305 s~ \$0_f8;
#X obj 336 304 s~ \$0_f9;
#X obj 400 304 s~ \$0_f10;
#X obj 203 421 s~ \$0_f11;
#X obj 268 421 s~ \$0_f12;
#X obj 337 421 s~ \$0_f13;
#X obj 406 419 s~ \$0_f14;
#X obj 477 420 s~ \$0_f15;
#N canvas 407 443 450 300 randomizeit 0;
#X obj 210 135 bangct;
#X msg 215 65 reset;
#X floatatom 229 156 5 0 0 0 - - -;
#X msg 169 68 15;
#X obj 171 104 until;
#X obj 170 41 t b b;
#X msg 166 12 bang;
#X obj 137 204 random 10000;
#X obj 140 226 / 10000;
#X obj 172 167 t b f;
#X obj 173 258 tabwrite vol;
#X obj 80 21 inlet;
#X connect 0 0 2 0;
#X connect 0 0 9 0;
#X connect 1 0 0 0;
#X connect 3 0 4 0;
#X connect 4 0 0 0;
#X connect 5 0 3 0;
#X connect 5 1 1 0;
#X connect 6 0 5 0;
#X connect 7 0 8 0;
#X connect 8 0 10 0;
#X connect 9 0 7 0;
#X connect 9 1 10 1;
#X connect 11 0 6 0;
#X restore 640 154 pd randomizeit;
#X msg 640 133 bang;
#X obj 311 30 bng 15 250 50 0 empty empty empty 17 7 0 10 -262144 -1
-1;
#X obj 206 36 bng 15 250 50 0 empty empty empty 17 7 0 10 -262144 -1
-1;
#X obj 236 32 metro 500;
#X msg 237 6 stop;
#X obj 213 9 bng 15 250 50 0 empty empty empty 17 7 0 10 -262144 -1
-1;
#X obj 210 63 rndseq 8 20 200;
#X floatatom 288 7 5 15 5000 0 - - -;
#X obj 350 53 - 1;
#X floatatom 370 25 5 0 0 0 - - -;
#X obj 347 77 clip 1 1000;
#X connect 1 0 2 0;
#X connect 4 0 0 0;
#X connect 4 0 5 0;
#X connect 5 0 0 1;
#X connect 6 0 26 0;
#X connect 7 0 6 0;
#X connect 8 0 7 0;
#X connect 9 0 11 0;
#X connect 10 0 9 0;
#X connect 12 0 9 0;
#X connect 13 0 21 0;
#X connect 14 0 22 0;
#X connect 15 0 23 0;
#X connect 16 0 24 0;
#X connect 17 0 27 0;
#X connect 18 0 30 0;
#X connect 19 0 29 0;
#X connect 20 0 28 0;
#X connect 21 0 18 0;
#X connect 22 0 19 0;
#X connect 23 0 20 0;
#X connect 24 0 17 0;
#X connect 25 0 4 0;
#X connect 31 0 61 0;
#X connect 32 0 31 0;
#X connect 33 0 32 0;
#X connect 34 0 42 0;
#X connect 35 0 43 0;
#X connect 36 0 44 0;
#X connect 37 0 45 0;
#X connect 38 0 65 0;
#X connect 39 0 62 0;
#X connect 40 0 63 0;
#X connect 41 0 64 0;
#X connect 42 0 39 0;
#X connect 43 0 40 0;
#X connect 44 0 41 0;
#X connect 45 0 38 0;
#X connect 46 0 66 0;
#X connect 47 0 46 0;
#X connect 48 0 47 0;
#X connect 49 0 57 0;
#X connect 50 0 58 0;
#X connect 51 0 59 0;
#X connect 52 0 60 0;
#X connect 53 0 70 0;
#X connect 54 0 67 0;
#X connect 55 0 68 0;
#X connect 56 0 69 0;
#X connect 57 0 54 0;
#X connect 58 0 55 0;
#X connect 59 0 56 0;
#X connect 60 0 53 0;
#X connect 72 0 71 0;
#X connect 73 0 78 4;
#X connect 74 0 78 0;
#X connect 75 0 78 4;
#X connect 76 0 75 0;
#X connect 77 0 75 0;
#X connect 78 0 80 0;
#X connect 79 0 75 1;
#X connect 80 0 82 0;
#X connect 81 0 80 1;
#X connect 82 0 1 0;
