#N canvas 605 221 557 602 10;
#X obj 71 445 sout~;
#X obj 138 468 1;
#X obj 137 444 loadbang;
#X obj 32 150 osc~;
#X obj 97 173 adsr~ 20 0.8 5 10 10;
#X obj 87 418 *~ -1;
#X obj 38 115 + 3000;
#X obj 35 84 random 2000;
#X msg 50 17 bang;
#X msg 98 151 bang;
#X obj 240 112 noise~;
#X obj 32 58 metro 9;
#X floatatom 354 110 5 0 0 0 - - -;
#X floatatom 345 172 5 0 0 0 - - -;
#X floatatom 294 86 5 0 0 0 - - -;
#X obj 294 113 osc~;
#X obj 303 146 *~;
#X obj 312 195 +~;
#X obj 318 223 osc~;
#X obj 352 310 *~;
#X floatatom 381 281 5 0 0 0 - - -;
#X floatatom 105 35 5 0 0 0 - - -;
#X floatatom 97 120 5 0 0 0 - - -;
#X floatatom 117 62 5 0 0 0 - - -;
#X obj 39 214 dline~ 65 0.8;
#X connect 1 0 0 2;
#X connect 2 0 1 0;
#X connect 3 0 24 0;
#X connect 5 0 0 1;
#X connect 6 0 3 0;
#X connect 7 0 6 0;
#X connect 8 0 11 0;
#X connect 9 0 4 0;
#X connect 10 0 16 0;
#X connect 11 0 7 0;
#X connect 12 0 16 1;
#X connect 13 0 17 1;
#X connect 14 0 15 0;
#X connect 15 0 16 0;
#X connect 16 0 17 0;
#X connect 17 0 18 0;
#X connect 18 0 19 0;
#X connect 19 0 5 0;
#X connect 19 0 0 0;
#X connect 20 0 19 1;
#X connect 21 0 11 1;
#X connect 22 0 6 1;
#X connect 23 0 7 1;
#X connect 24 0 5 0;
#X connect 24 0 0 0;
