#N canvas 349 56 674 679 10;
#N canvas 828 217 339 308 mix 0;
#X obj 16 23 inlet~;
#X obj 80 23 inlet~;
#X obj 177 25 inlet;
#X obj 17 237 outlet~;
#X obj 179 56 clip -1 1;
#X obj 179 83 + 1;
#X obj 179 108 / 2;
#X obj 136 84 - 1;
#X obj 136 109 / -2;
#X obj 17 201 *~;
#X obj 51 201 *~;
#X connect 0 0 9 0;
#X connect 1 0 10 0;
#X connect 2 0 4 0;
#X connect 4 0 5 0;
#X connect 4 0 7 0;
#X connect 5 0 6 0;
#X connect 6 0 10 1;
#X connect 7 0 8 0;
#X connect 8 0 9 1;
#X connect 9 0 3 0;
#X connect 10 0 3 0;
#X restore 168 481 pd mix;
#X floatatom 225 466 5 0 0 0 - - -;
#X obj 227 445 hsl 128 15 -1 1 0 0 tw_mix_out tw_mix_in empty -2 -6
0 8 -233017 -1 -1 11400 1;
#X obj 167 515 mout~;
#X obj 61 294 tgl 15 0 empty tw_galewav empty 0 -6 0 8 -262144 -1 -1
0 1;
#N canvas 387 296 462 312 atog 0;
#X obj 12 7 inlet;
#X obj 144 6 inlet~;
#X obj 211 5 inlet~;
#X obj 23 70 select 0;
#X obj 289 76 select 1;
#X obj 144 144 *~;
#X obj 211 144 *~;
#X msg 81 97 0;
#X msg 22 96 1;
#X msg 349 103 0;
#X msg 290 102 1;
#X obj 21 251 outlet~;
#X obj 40 40 loadbang;
#X connect 0 0 3 0;
#X connect 0 0 4 0;
#X connect 1 0 5 0;
#X connect 2 0 6 0;
#X connect 3 0 8 0;
#X connect 3 1 7 0;
#X connect 4 0 10 0;
#X connect 4 1 9 0;
#X connect 5 0 11 0;
#X connect 6 0 11 0;
#X connect 7 0 5 1;
#X connect 8 0 5 1;
#X connect 9 0 6 1;
#X connect 10 0 6 1;
#X connect 12 0 8 0;
#X restore 102 371 pd atog;
#X floatatom 33 76 5 0 0 0 - tw_redspeed -;
#X obj 33 153 *~;
#X floatatom 54 131 5 0 0 0 - tw_redgale -;
#X obj 84 154 *~;
#X floatatom 105 132 5 0 0 0 - tw_redlinnet -;
#X floatatom 175 78 5 0 0 0 - tw_yelspeed -;
#X obj 175 155 *~;
#X floatatom 196 133 5 0 0 0 - tw_yelgale -;
#X obj 226 156 *~;
#X floatatom 247 134 5 0 0 0 - tw_yellinnet -;
#X floatatom 322 77 5 0 0 0 - tw_grnspeed -;
#X obj 322 155 *~;
#X floatatom 343 133 5 0 0 0 - tw_grngale -;
#X obj 373 156 *~;
#X floatatom 394 134 5 0 0 0 - tw_grnlinnet -;
#X text 174 59 yel speed;
#X text 321 59 grn speed;
#X text 31 58 red speed;
#X obj 231 293 tgl 15 0 empty tw_linnetwav empty 0 -6 0 8 -262144 -1
-1 1 1;
#N canvas 387 296 458 308 atog 0;
#X obj 12 7 inlet;
#X obj 144 6 inlet~;
#X obj 211 5 inlet~;
#X obj 23 70 select 0;
#X obj 289 76 select 1;
#X obj 144 144 *~;
#X obj 211 144 *~;
#X msg 81 97 0;
#X msg 22 96 1;
#X msg 349 103 0;
#X msg 290 102 1;
#X obj 21 251 outlet~;
#X obj 34 39 loadbang;
#X connect 0 0 3 0;
#X connect 0 0 4 0;
#X connect 1 0 5 0;
#X connect 2 0 6 0;
#X connect 3 0 8 0;
#X connect 3 1 7 0;
#X connect 4 0 10 0;
#X connect 4 1 9 0;
#X connect 5 0 11 0;
#X connect 6 0 11 0;
#X connect 7 0 5 1;
#X connect 8 0 5 1;
#X connect 9 0 6 1;
#X connect 10 0 6 1;
#X connect 12 0 8 0;
#X restore 257 371 pd atog;
#X obj 348 340 -~ 1;
#X obj 348 318 *~ 2;
#X obj 184 344 -~ 1;
#X obj 184 318 *~ 2;
#N canvas 0 0 450 300 (subpatch) 0;
#X array tw_output 10000 float 0;
#X coords 0 1 9999 -1 200 140 1;
#X restore 375 418 graph;
#X obj 382 583 bng 15 250 50 0 empty empty empty 0 -6 0 8 -262144 -1
-1;
#X obj 322 103 osc~;
#X obj 175 103 osc~;
#X obj 33 101 osc~;
#X text 33 321 gale;
#X text 395 321 linnet;
#X obj 294 577 metro 250;
#X obj 293 558 bng 15 250 50 0 empty empty empty 0 -6 0 8 -262144 -1
-1;
#X obj 331 293 tri2~;
#X obj 156 290 tri2~;
#X obj 317 258 *~;
#X floatatom 342 238 5 0 0 0 - tw_linnetpitch -;
#X obj 284 258 *~;
#X obj 152 260 *~;
#X floatatom 192 242 5 0 0 0 - tw_galepitch -;
#X obj 118 260 *~;
#X obj 125 342 /~ 4;
#X obj 279 345 /~ 4;
#X obj 262 292 oscsq2~;
#X obj 83 290 oscsq2~;
#X obj 84 318 lop~ 8000;
#X obj 252 322 lop~ 8000;
#N canvas 750 480 450 417 midictl 0;
#X obj 333 343 ctlin 104;
#X obj 333 368 / 50;
#X obj 15 16 ctlin 105;
#X obj 201 18 ctlin 106;
#X obj 16 41 select 127;
#X obj 15 97 s tw_galewav;
#X msg 16 68 1;
#X msg 65 71 0;
#X obj 203 44 select 127;
#X msg 203 71 1;
#X msg 252 74 0;
#X obj 202 100 s tw_linnetwav;
#X obj 15 190 s tw_galepitch;
#X obj 127 191 s tw_linnetpitch;
#X obj 18 309 ctlin 103;
#X obj 102 16 ctlin 39;
#X obj 291 18 ctlin 40;
#X obj 18 331 / 63.5;
#X obj 18 352 - 1;
#N canvas 185 588 359 160 red 0;
#X obj 129 74 s tw_redgale;
#X obj 240 75 s tw_redlinnet;
#X obj 9 72 s tw_redspeed;
#X obj 10 28 / 500;
#X text 49 27 scale;
#X text 52 51 max;
#X obj 10 51 * 150;
#X obj 10 7 nrpn_in 33 1;
#X obj 129 29 / 500;
#X obj 129 52 * 150;
#X obj 129 8 nrpn_in 34 1;
#X obj 240 30 / 500;
#X obj 240 53 * 150;
#X obj 240 9 nrpn_in 35 1;
#X connect 3 0 6 0;
#X connect 6 0 2 0;
#X connect 7 0 3 0;
#X connect 8 0 9 0;
#X connect 9 0 0 0;
#X connect 10 0 8 0;
#X connect 11 0 12 0;
#X connect 12 0 1 0;
#X connect 13 0 11 0;
#X restore 43 255 pd red;
#N canvas 185 713 359 160 yel 0;
#X obj 122 72 s tw_yelgale;
#X obj 223 73 s tw_yellinnet;
#X obj 10 71 s tw_yelspeed;
#X obj 11 4 nrpn_in 41 1;
#X obj 11 27 / 500;
#X text 50 26 scale;
#X text 53 50 max;
#X obj 11 50 * 150;
#X obj 125 27 / 500;
#X obj 125 50 * 150;
#X obj 125 4 nrpn_in 42 1;
#X obj 222 29 / 500;
#X obj 222 52 * 150;
#X obj 222 6 nrpn_in 43 1;
#X connect 3 0 4 0;
#X connect 4 0 7 0;
#X connect 7 0 2 0;
#X connect 8 0 9 0;
#X connect 9 0 0 0;
#X connect 10 0 8 0;
#X connect 11 0 12 0;
#X connect 12 0 1 0;
#X connect 13 0 11 0;
#X restore 107 256 pd yel;
#N canvas 188 473 359 160 grn 0;
#X obj 116 81 s tw_grngale;
#X obj 222 83 s tw_grnlinnet;
#X obj 12 80 s tw_grnspeed;
#X obj 11 15 nrpn_in 49 1;
#X obj 12 37 / 500;
#X text 51 36 scale;
#X text 54 60 max;
#X obj 12 60 * 150;
#X obj 117 36 / 500;
#X obj 117 59 * 150;
#X obj 116 14 nrpn_in 50 1;
#X obj 223 35 / 500;
#X obj 223 58 * 150;
#X obj 222 13 nrpn_in 51 1;
#X connect 3 0 4 0;
#X connect 4 0 7 0;
#X connect 7 0 2 0;
#X connect 8 0 9 0;
#X connect 9 0 0 0;
#X connect 10 0 8 0;
#X connect 11 0 12 0;
#X connect 12 0 1 0;
#X connect 13 0 11 0;
#X restore 168 256 pd grn;
#X obj 332 391 s tw_mvol_in;
#X obj 18 380 s tw_mix_in;
#X obj 126 130 nrpn_in 8;
#X obj 127 151 / 500;
#X obj 127 171 * 35;
#X obj 15 128 nrpn_in 7;
#X obj 16 149 / 500;
#X obj 16 169 * 35;
#X connect 0 0 1 0;
#X connect 1 0 22 0;
#X connect 2 0 4 0;
#X connect 3 0 8 0;
#X connect 4 0 6 0;
#X connect 4 1 7 0;
#X connect 6 0 5 0;
#X connect 7 0 5 0;
#X connect 8 0 9 0;
#X connect 8 1 10 0;
#X connect 9 0 11 0;
#X connect 10 0 11 0;
#X connect 14 0 17 0;
#X connect 15 0 4 0;
#X connect 16 0 8 0;
#X connect 17 0 18 0;
#X connect 18 0 23 0;
#X connect 24 0 25 0;
#X connect 25 0 26 0;
#X connect 26 0 13 0;
#X connect 27 0 28 0;
#X connect 28 0 29 0;
#X connect 29 0 12 0;
#X restore 462 191 pd midictl in;
#N canvas 3 498 635 402 midictl 0;
#X obj 11 375 ctlout 103;
#X obj 11 300 r tw_mix_out;
#X obj 11 323 + 1;
#X obj 11 345 * 63.5;
#X obj 500 318 r tw_mvol_out;
#X obj 501 342 * 50;
#X obj 503 373 ctlout 104;
#X text 259 147 unfinished;
#X connect 1 0 2 0;
#X connect 2 0 3 0;
#X connect 4 0 5 0;
#X restore 462 215 pd midictl out;
#X floatatom 241 506 5 0 0 0 - tw_mvol_in -;
#X obj 294 603 tabwrite~ tw_output;
#X msg 311 555 stop;
#X text 14 481 replace with wet/dry?;
#X connect 0 0 3 0;
#X connect 0 0 56 0;
#X connect 2 0 1 0;
#X connect 2 0 0 2;
#X connect 4 0 5 0;
#X connect 5 0 0 0;
#X connect 6 0 34 0;
#X connect 7 0 46 0;
#X connect 7 0 44 0;
#X connect 8 0 7 1;
#X connect 9 0 43 0;
#X connect 9 0 41 0;
#X connect 10 0 9 1;
#X connect 11 0 33 0;
#X connect 12 0 46 0;
#X connect 12 0 44 0;
#X connect 13 0 12 1;
#X connect 14 0 41 0;
#X connect 14 0 43 0;
#X connect 15 0 14 1;
#X connect 16 0 32 0;
#X connect 17 0 46 0;
#X connect 17 0 44 0;
#X connect 18 0 17 1;
#X connect 19 0 41 0;
#X connect 19 0 43 0;
#X connect 20 0 19 1;
#X connect 24 0 25 0;
#X connect 25 0 0 1;
#X connect 26 0 25 2;
#X connect 27 0 26 0;
#X connect 28 0 5 2;
#X connect 29 0 28 0;
#X connect 31 0 56 0;
#X connect 32 0 17 0;
#X connect 32 0 19 0;
#X connect 33 0 12 0;
#X connect 33 0 14 0;
#X connect 34 0 7 0;
#X connect 34 0 9 0;
#X connect 37 0 56 0;
#X connect 38 0 37 0;
#X connect 39 0 27 0;
#X connect 40 0 29 0;
#X connect 41 0 39 0;
#X connect 42 0 41 1;
#X connect 42 0 43 1;
#X connect 43 0 49 0;
#X connect 44 0 40 0;
#X connect 45 0 44 1;
#X connect 45 0 46 1;
#X connect 46 0 50 0;
#X connect 47 0 5 1;
#X connect 48 0 25 1;
#X connect 49 0 52 0;
#X connect 50 0 51 0;
#X connect 51 0 47 0;
#X connect 52 0 48 0;
#X connect 55 0 3 1;
#X connect 57 0 37 0;
