#N canvas 104 31 819 710 10;
#X obj -615 526 sout~;
#X obj -599 497 *~ -1;
#X obj -215 155 phasor~ 50;
#X obj -211 204 dline~ 33 0.8;
#X obj -263 353 lop~ 250;
#X floatatom -225 378 5 0 0 0 - - -;
#X obj -109 205 dline~ 61 0.8;
#X obj -9 204 dline~ 29 0.8;
#X obj -211 255 clipper~ 0.01;
#X floatatom -136 75 5 0 0 0 - - -;
#X obj -211 287 dline~ 850 0.9;
#X floatatom -213 25 5 0 0 0 - - -;
#X obj -213 49 osc~ 0.02;
#X obj -64 339 dline~ 12000 0.75;
#X floatatom -140 103 5 0 0 0 - - -;
#X obj -263 400 *~ 0.85;
#X obj -418 136 pitcher~ 1.12;
#X obj -417 162 *~ 0.5;
#X obj -419 186 dline~ 80 0.65;
#X obj -419 311 lop~ 250;
#X obj -371 227 osc~ 50;
#X obj -371 246 +~ 300;
#X obj -359 275 env~;
#X obj -212 87 *~ 327;
#X obj -215 117 +~ 80;
#N canvas 423 133 605 416 bluevein 0;
#X msg -69 127 bang;
#X obj -63 279 osc~;
#X obj -67 197 +~ 30;
#X obj -64 257 +~;
#X obj -51 61 metro 30000;
#X obj -50 36 bng 15 250 50 0 empty empty empty 17 7 0 10 -262144 -1
-1;
#X obj -67 148 adsr~ 2000 0.6 800 2500 2500;
#X obj -67 174 *~ 100;
#X obj -52 321 outlet~;
#X obj -1 23 loadbang;
#X obj 160 194 osc~;
#X obj 159 143 *~ 150;
#X obj 161 167 +~ 30;
#X floatatom 199 203 5 0 0 0 - - -;
#X obj 160 225 *~ 75;
#X obj 160 117 adsr~ 10000 0.8 1800 5500 9500;
#X obj 101 26 cnv 15 83 30 empty empty empty 20 12 0 14 -232690 -66577
0;
#X obj 135 41 bng 15 250 50 0 empty empty empty 17 7 0 10 -262144 -1
-1;
#X text 103 26 kwrrllllllr;
#X connect 0 0 6 0;
#X connect 1 0 8 0;
#X connect 2 0 3 0;
#X connect 3 0 1 0;
#X connect 4 0 0 0;
#X connect 4 0 15 0;
#X connect 4 0 17 0;
#X connect 5 0 4 0;
#X connect 6 0 7 0;
#X connect 7 0 2 0;
#X connect 9 0 4 0;
#X connect 10 0 14 0;
#X connect 11 0 12 0;
#X connect 12 0 10 0;
#X connect 13 0 14 1;
#X connect 14 0 3 1;
#X connect 15 0 11 0;
#X coords 0 -1 1 1 85 33 1 100 25;
#X restore -586 70 pd bluevein;
#X obj -253 516 *~;
#X obj -233 468 pwm~ 5 50;
#X floatatom -177 433 5 0 0 0 - - -;
#X floatatom -231 440 5 0 0 0 - - -;
#X obj -234 491 lop~ 5;
#X obj -283 541 wetdry~ 50;
#X floatatom -211 517 5 0 100 0 - - -;
#N canvas 465 171 645 642 hominymz 0;
#X obj -199 152 phasor~ 50;
#X obj -195 201 dline~ 33 0.8;
#X obj -247 350 lop~ 250;
#X floatatom -209 375 5 0 0 0 - - -;
#X obj -93 202 dline~ 61 0.8;
#X obj 7 201 dline~ 29 0.8;
#X obj -195 252 clipper~ 0.01;
#X floatatom -120 72 5 0 0 0 - - -;
#X obj -195 284 dline~ 850 0.9;
#X floatatom -197 22 5 0 0 0 - - -;
#X obj -197 46 osc~ 0.02;
#X obj -48 336 dline~ 12000 0.75;
#X floatatom -124 100 5 0 0 0 - - -;
#X obj -247 397 *~ 0.85;
#X obj -402 133 pitcher~ 1.12;
#X obj -401 159 *~ 0.5;
#X obj -403 183 dline~ 80 0.65;
#X obj -403 308 lop~ 250;
#X obj -355 224 osc~ 50;
#X obj -355 243 +~ 300;
#X obj -343 272 env~;
#X obj -196 84 *~ 327;
#X obj -199 114 +~ 80;
#X obj -237 513 *~;
#X obj -217 465 pwm~ 5 50;
#X floatatom -161 430 5 0 0 0 - - -;
#X floatatom -215 437 5 0 0 0 - - -;
#X obj -218 488 lop~ 5;
#X obj -267 538 wetdry~ 50;
#X floatatom -195 514 5 0 100 0 - - -;
#X obj -246 591 outlet~;
#X connect 0 0 1 0;
#X connect 0 0 4 0;
#X connect 0 0 5 0;
#X connect 1 0 2 0;
#X connect 1 0 11 0;
#X connect 1 0 14 0;
#X connect 2 0 13 0;
#X connect 3 0 13 1;
#X connect 4 0 6 0;
#X connect 4 0 11 0;
#X connect 5 0 2 0;
#X connect 5 0 8 0;
#X connect 5 0 11 0;
#X connect 6 0 2 0;
#X connect 6 0 8 0;
#X connect 7 0 21 1;
#X connect 8 0 11 0;
#X connect 8 0 14 0;
#X connect 8 0 2 0;
#X connect 9 0 10 0;
#X connect 10 0 21 0;
#X connect 11 0 2 0;
#X connect 11 0 14 0;
#X connect 12 0 22 1;
#X connect 13 0 23 0;
#X connect 13 0 28 0;
#X connect 14 0 15 0;
#X connect 15 0 16 0;
#X connect 16 0 17 0;
#X connect 17 0 13 0;
#X connect 18 0 19 0;
#X connect 19 0 20 0;
#X connect 20 0 17 1;
#X connect 21 0 22 0;
#X connect 22 0 0 0;
#X connect 23 0 28 1;
#X connect 24 0 27 0;
#X connect 25 0 24 1;
#X connect 26 0 24 0;
#X connect 27 0 23 1;
#X connect 28 0 30 0;
#X connect 29 0 28 2;
#X restore -557 153 pd hominymz;
#X obj -540 562 loadbang;
#X obj -540 587 1;
#X connect 1 0 0 1;
#X connect 2 0 3 0;
#X connect 2 0 6 0;
#X connect 2 0 7 0;
#X connect 3 0 4 0;
#X connect 3 0 13 0;
#X connect 3 0 16 0;
#X connect 4 0 15 0;
#X connect 5 0 15 1;
#X connect 6 0 8 0;
#X connect 6 0 13 0;
#X connect 7 0 4 0;
#X connect 7 0 10 0;
#X connect 7 0 13 0;
#X connect 8 0 4 0;
#X connect 8 0 10 0;
#X connect 9 0 23 1;
#X connect 10 0 13 0;
#X connect 10 0 16 0;
#X connect 10 0 4 0;
#X connect 11 0 12 0;
#X connect 12 0 23 0;
#X connect 13 0 4 0;
#X connect 13 0 16 0;
#X connect 14 0 24 1;
#X connect 15 0 26 0;
#X connect 15 0 31 0;
#X connect 16 0 17 0;
#X connect 17 0 18 0;
#X connect 18 0 19 0;
#X connect 19 0 15 0;
#X connect 20 0 21 0;
#X connect 21 0 22 0;
#X connect 22 0 19 1;
#X connect 23 0 24 0;
#X connect 24 0 2 0;
#X connect 25 0 1 0;
#X connect 25 0 0 0;
#X connect 26 0 31 1;
#X connect 27 0 30 0;
#X connect 28 0 27 1;
#X connect 29 0 27 0;
#X connect 30 0 26 1;
#X connect 31 0 1 0;
#X connect 31 0 0 0;
#X connect 32 0 31 2;
#X connect 34 0 35 0;
#X connect 35 0 0 2;
