#N canvas 260 84 819 710 10;
#X obj -615 526 sout~;
#X obj -599 497 *~ -1;
#N canvas 423 133 605 416 bluevein 0;
#X msg -69 127 bang;
#X obj -63 279 osc~;
#X obj -67 197 +~ 30;
#X obj -64 257 +~;
#X obj -51 61 metro 30000;
#X obj -50 36 bng 15 250 50 0 empty empty empty 17 7 0 10 -262144 -1
-1;
#X obj -67 148 adsr~ 2000 0.6 800 2500 2500;
#X obj -67 174 *~ 100;
#X obj -52 321 outlet~;
#X obj -1 23 loadbang;
#X obj 160 194 osc~;
#X obj 159 143 *~ 150;
#X obj 161 167 +~ 30;
#X floatatom 199 203 5 0 0 0 - - -;
#X obj 160 225 *~ 75;
#X obj 160 117 adsr~ 10000 0.8 1800 5500 9500;
#X obj 101 26 cnv 15 83 30 empty empty empty 20 12 0 14 -232690 -66577
0;
#X obj 135 41 bng 15 250 50 0 empty empty empty 17 7 0 10 -262144 -1
-1;
#X text 103 26 kwrrllllllr;
#X connect 0 0 6 0;
#X connect 1 0 8 0;
#X connect 2 0 3 0;
#X connect 3 0 1 0;
#X connect 4 0 0 0;
#X connect 4 0 15 0;
#X connect 4 0 17 0;
#X connect 5 0 4 0;
#X connect 6 0 7 0;
#X connect 7 0 2 0;
#X connect 9 0 4 0;
#X connect 10 0 14 0;
#X connect 11 0 12 0;
#X connect 12 0 10 0;
#X connect 13 0 14 1;
#X connect 14 0 3 1;
#X connect 15 0 11 0;
#X coords 0 -1 1 1 85 33 1 100 25;
#X restore -590 71 pd bluevein;
#N canvas 455 120 651 689 hominymz 0;
#X obj -256 191 phasor~ 50;
#X obj -252 240 dline~ 33 0.8;
#X obj -224 398 lop~ 250;
#X floatatom -186 423 5 0 0 0 - - -;
#X obj -150 241 dline~ 61 0.8;
#X obj -81 276 dline~ 29 0.8;
#X obj -228 298 clipper~ 0.01;
#X obj -228 330 dline~ 850 0.9;
#X floatatom -293 18 5 0 0 0 - #0-hz-f1 -;
#X obj -293 42 osc~ 0.02;
#X obj -90 356 dline~ 12000 0.75;
#X floatatom -181 139 5 0 0 0 - #0-hz-f4 -;
#X obj -224 445 *~ 0.85;
#X obj -256 153 +~ 80;
#X obj -214 561 *~;
#X obj -194 513 pwm~ 5 50;
#X floatatom -138 478 5 0 0 0 - #0-hz-f6 -;
#X floatatom -192 485 5 0 0 0 - #0-hz-f5 -;
#X obj -195 536 lop~ 5;
#X obj -244 586 wetdry~ 50;
#X floatatom -172 562 5 0 100 0 - #0-hz-f7 -;
#X obj -244 615 outlet~;
#X obj 46 26 cnv 15 200 450 empty empty empty 20 12 0 14 -261948 -66577
0;
#X obj -198 47 osc~ 0.01;
#X obj -197 71 *~ 10;
#X obj -195 96 +~ 87;
#X obj -246 121 *~;
#X floatatom -191 16 5 0 0 0 - #0-hz-f2 -;
#X floatatom -148 76 5 0 0 0 - #0-hz-f3 -;
#X obj 50 30 vsl 8 442 0 3 0 0 \$0-hz-f1 empty empty 0 -9 0 10 -224487
-1 -1 39800 1;
#N canvas 0 0 300 373 parted 0;
#X obj 7 86 pitcher~ 1.12;
#X obj 6 136 dline~ 80 0.65;
#X obj 6 261 lop~ 250;
#X obj 54 177 osc~ 50;
#X obj 54 196 +~ 300;
#X obj 66 225 env~;
#X obj 7 41 inlet~;
#X obj 7 111 *~ 0.5;
#X obj 11 285 outlet~;
#X connect 0 0 7 0;
#X connect 1 0 2 0;
#X connect 2 0 8 0;
#X connect 3 0 4 0;
#X connect 4 0 5 0;
#X connect 5 0 2 1;
#X connect 6 0 0 0;
#X connect 7 0 1 0;
#X restore -326 371 pd parted;
#X obj 60 30 vsl 8 442 0 3 0 0 \$0-hz-f2 empty empty 0 -9 0 10 -260097
-1 -1 43000 1;
#X obj 70 30 vsl 8 442 0 100 0 0 \$0-hz-f3 empty empty 0 -9 0 10 -236726
-1 -1 6100 1;
#X obj 80 30 vsl 8 442 75 600 0 0 \$0-hz-f4 empty empty 0 -9 0 10 -241205
-1 -1 2300 1;
#X obj 99 30 vsl 8 442 0.001 25 0 0 \$0-hz-f5 empty empty 0 -9 0 10
-241650 -1 -1 13700 1;
#X obj 109 30 vsl 8 442 0 100 0 0 \$0-hz-f6 empty empty 0 -9 0 10 -240885
-1 -1 6600 1;
#X obj 123 30 vsl 8 442 0 100 0 0 \$0-hz-f7 empty empty 0 -9 0 10 -240878
-1 -1 41200 1;
#X connect 0 0 1 0;
#X connect 0 0 4 0;
#X connect 0 0 5 0;
#X connect 1 0 2 0;
#X connect 1 0 10 0;
#X connect 1 0 30 0;
#X connect 2 0 12 0;
#X connect 3 0 12 1;
#X connect 4 0 6 0;
#X connect 4 0 10 0;
#X connect 5 0 2 0;
#X connect 5 0 7 0;
#X connect 5 0 10 0;
#X connect 6 0 2 0;
#X connect 6 0 7 0;
#X connect 7 0 10 0;
#X connect 7 0 2 0;
#X connect 7 0 30 0;
#X connect 8 0 9 0;
#X connect 9 0 26 0;
#X connect 10 0 2 0;
#X connect 10 0 30 0;
#X connect 11 0 13 1;
#X connect 12 0 14 0;
#X connect 12 0 19 0;
#X connect 13 0 0 0;
#X connect 14 0 19 1;
#X connect 15 0 18 0;
#X connect 16 0 15 1;
#X connect 17 0 15 0;
#X connect 18 0 14 1;
#X connect 19 0 21 0;
#X connect 20 0 19 2;
#X connect 23 0 24 0;
#X connect 24 0 25 0;
#X connect 25 0 26 1;
#X connect 26 0 13 0;
#X connect 27 0 23 0;
#X connect 28 0 25 1;
#X connect 30 0 12 0;
#X coords 0 -1 1 1 202 452 1 45 25;
#X restore -419 8 pd hominymz;
#X obj -540 562 loadbang;
#X obj -540 587 1;
#X obj -419 467 minimix~ 0 1;
#X obj -591 110 minimix~ 0 1;
#X text -542 168 diving;
#X text -529 182 on/off;
#X text -538 195 cliffs;
#X text -533 213 run;
#X text -516 224 obey;
#X text -539 238 melt;
#X connect 1 0 0 1;
#X connect 2 0 7 0;
#X connect 3 0 6 0;
#X connect 4 0 5 0;
#X connect 5 0 0 2;
#X connect 6 0 1 0;
#X connect 6 0 0 0;
#X connect 7 0 0 0;
#X connect 7 0 1 0;
