#N canvas 551 66 725 578 10;
#N canvas 4 53 557 475 wii 0;
#X obj 77 78 disis_wiimote;
#X obj 80 104 unpack f f f;
#X floatatom 139 153 5 0 0 0 - - -;
#X floatatom 182 151 5 0 0 0 - - -;
#X msg 83 32 discover;
#X msg 159 45 reportAcceleration \$1;
#X obj 159 13 tgl 25 0 empty empty empty 17 7 0 10 -262144 -1 -1 0
1;
#X floatatom 60 289 5 0 0 0 - - -;
#X obj 302 15 tgl 25 0 empty empty empty 17 7 0 10 -262144 -1 -1 0
1;
#X obj 35 356 hsl 128 15 1 75 0 0 empty empty empty -2 -8 0 10 -261682
-1 -1 0 1;
#X obj 24 166 change;
#X obj 172 262 range -1 1 1 147;
#X floatatom 186 332 5 0 0 0 - - -;
#X obj 180 355 hsl 128 15 1 147 0 0 empty empty empty -2 -8 0 10 -261682
-1 -1 0 1;
#X obj 172 283 int;
#X obj 171 307 change;
#X obj 319 257 range -1 1 1 147;
#X floatatom 333 327 5 0 0 0 - - -;
#X obj 327 356 hsl 128 15 1 147 0 0 empty empty empty -2 -8 0 10 -261682
-1 -1 0 1;
#X obj 319 278 int;
#X obj 318 302 change;
#X obj 24 219 list-avg;
#X obj 24 192 list-queue 8;
#X obj 303 44 metro 25;
#X obj 48 253 int;
#X obj 23 137 range -1 1 1 75;
#X obj 431 311 select 147;
#X obj 440 334 bng 15 250 50 0 empty empty empty 17 7 0 10 -262144
-1 -1;
#X obj 407 399 print bang;
#X connect 0 1 1 0;
#X connect 1 0 25 0;
#X connect 1 1 2 0;
#X connect 1 2 3 0;
#X connect 2 0 11 0;
#X connect 3 0 16 0;
#X connect 4 0 0 0;
#X connect 5 0 0 0;
#X connect 6 0 5 0;
#X connect 8 0 23 0;
#X connect 10 0 22 0;
#X connect 11 0 14 0;
#X connect 14 0 15 0;
#X connect 15 0 12 0;
#X connect 15 0 13 0;
#X connect 16 0 19 0;
#X connect 19 0 20 0;
#X connect 20 0 17 0;
#X connect 20 0 18 0;
#X connect 20 0 26 0;
#X connect 21 0 24 0;
#X connect 22 0 21 0;
#X connect 23 0 0 0;
#X connect 24 0 7 0;
#X connect 24 0 9 0;
#X connect 25 0 10 0;
#X connect 26 0 27 0;
#X connect 26 0 28 0;
#X restore 199 126 pd wii;
#N canvas 243 302 710 529 sound 1;
#X obj 147 132 soundfiler;
#X restore 121 128 pd sound;
