#N canvas 2 203 500 459 10;
#X obj 167 270 hsl 128 15 0 1 0 0 empty empty empty -2 -6 0 8 -225271
-1 -1 0 1;
#X floatatom 163 289 5 0 0 0 - - -;
#X obj 55 220 vu 15 120 empty empty -1 -8 0 8 -66577 -1 1 0;
#N canvas 0 0 413 230 out 0;
#X obj 254 15 inlet;
#X obj 108 131 dac~;
#X obj 105 103 *~;
#X obj 135 103 *~;
#X obj 13 137 env~ 10000;
#X obj 14 157 - 97;
#X obj 163 9 inlet~;
#X obj 13 178 outlet;
#X obj 177 137 env~ 10000;
#X obj 178 157 - 97;
#X obj 177 178 outlet;
#X obj 86 10 inlet~;
#X obj 73 45 clip~ -1 1;
#X obj 162 45 clip~ -1 1;
#X connect 0 0 3 1;
#X connect 0 0 2 1;
#X connect 2 0 1 0;
#X connect 2 0 4 0;
#X connect 3 0 1 1;
#X connect 3 0 8 0;
#X connect 4 0 5 0;
#X connect 5 0 7 0;
#X connect 6 0 13 0;
#X connect 8 0 9 0;
#X connect 9 0 10 0;
#X connect 11 0 12 0;
#X connect 12 0 2 0;
#X connect 13 0 3 0;
#X restore 114 278 pd out;
#X obj 74 220 vu 15 120 empty empty -1 -8 0 8 -66577 -1 1 0;
#N canvas 518 28 486 237 streams 0;
#X obj 27 168 readanysf~;
#X msg 44 146 play;
#X msg 83 146 stop;
#X msg 27 126 open http://64.62.175.226:8330;
#X obj 257 166 readanysf~;
#X msg 274 144 play;
#X msg 313 144 stop;
#X msg 257 124 open http://68.108.10.240:8000;
#X obj 28 190 s~ stream1L;
#X obj 111 190 s~ stream1R;
#X obj 256 188 s~ stream2L;
#X obj 338 189 s~ stream2R;
#X obj 22 20 loadbang;
#X obj 81 61 delay 1500;
#X obj 156 61 delay 5000;
#X connect 0 0 8 0;
#X connect 0 1 9 0;
#X connect 1 0 0 0;
#X connect 2 0 0 0;
#X connect 3 0 0 0;
#X connect 4 0 10 0;
#X connect 4 1 11 0;
#X connect 5 0 4 0;
#X connect 6 0 4 0;
#X connect 7 0 4 0;
#X connect 12 0 13 0;
#X connect 12 0 14 0;
#X connect 13 0 3 0;
#X connect 13 0 7 0;
#X connect 14 0 1 0;
#X connect 14 0 5 0;
#X restore 90 106 pd streams;
#N canvas 600 341 497 539 stream1proc 0;
#X obj 252 212 env~ 10000;
#X obj 252 231 dbtorms;
#X obj 255 253 hsl 50 15 0 0.4 0 0 empty empty empty -2 -6 0 8 -228992
-1 -1 0 1;
#X obj 252 274 moses 0.07;
#X obj 271 340 timer;
#X floatatom 271 362 15 0 0 0 - - -;
#X msg 271 320 bang;
#X msg 307 319 bang;
#X obj 400 264 tgl 15 0 empty empty empty 0 -6 0 8 -261681 -1 -1 369
369;
#X obj 359 291 spigot;
#X obj 359 336 bng 15 250 50 0 empty empty empty 0 -6 0 8 -262144 -1
-1;
#X msg 359 313 bang;
#X obj 282 397 tgl 15 0 empty empty empty 0 -6 0 8 -262144 -1 -1 0
0.108646;
#X obj 241 424 spigot;
#X obj 241 469 bng 15 250 50 0 empty empty empty 0 -6 0 8 -262144 -1
-1;
#X msg 241 446 bang;
#X obj 183 361 moses 350;
#X obj 400 243 r retrig1;
#X obj 162 467 s stoprec1;
#X obj 262 468 s ssrec1;
#X obj 26 508 outlet~;
#X obj 99 49 bng 15 250 50 0 empty empty empty 0 -6 0 8 -262144 -1
-1;
#X obj 145 52 bng 15 250 50 0 empty empty empty 0 -6 0 8 -262144 -1
-1;
#X floatatom 74 139 10 0 0 0 - - -;
#X obj 145 105 bng 15 250 50 0 empty empty empty 0 -6 0 8 -262144 -1
-1;
#X msg 178 41 stop;
#X obj 58 227 dline~ 75 0.75;
#X obj 58 203 pitcher~;
#X obj 74 158 bng 15 250 50 0 empty empty empty 0 -6 0 8 -262144 -1
-1;
#X obj 59 91 sampler~;
#X obj 168 152 f;
#X floatatom 188 187 5 0 0 0 - - -;
#X obj 195 153 + 1;
#X msg 168 129 0;
#X obj 168 206 moses 4;
#X obj 167 231 s retrig1;
#X obj 99 15 r ssrec1;
#N canvas 734 501 311 193 rands1 0;
#X obj 57 6 r stoprec1;
#X obj 53 159 outlet;
#X obj 103 158 outlet;
#X obj 154 159 outlet;
#X obj 53 41 random 20;
#X obj 53 62 - 15;
#X floatatom 4 90 5 0 0 0 - - -;
#X obj 127 41 random 450;
#X floatatom 134 88 5 0 0 0 - - -;
#X obj 206 88 + 0.25;
#X obj 206 63 / 100;
#X floatatom 224 113 5 0 0 0 - - -;
#X obj 206 40 random 65;
#X connect 0 0 4 0;
#X connect 0 0 7 0;
#X connect 0 0 12 0;
#X connect 4 0 5 0;
#X connect 5 0 1 0;
#X connect 5 0 6 0;
#X connect 7 0 2 0;
#X connect 7 0 8 0;
#X connect 9 0 11 0;
#X connect 9 0 3 0;
#X connect 10 0 9 0;
#X connect 12 0 10 0;
#X restore 82 182 pd rands1;
#X text 418 264 waiting for new;
#X text 191 172 loopct;
#X obj 377 335 s startrec1;
#X obj 15 16 r~ stream1L;
#X obj 253 188 r~ stream1L;
#X obj 400 200 loadbang;
#X connect 0 0 1 0;
#X connect 1 0 2 0;
#X connect 1 0 3 0;
#X connect 3 0 7 0;
#X connect 3 1 6 0;
#X connect 3 1 9 0;
#X connect 4 0 5 0;
#X connect 4 0 16 0;
#X connect 6 0 4 0;
#X connect 7 0 4 1;
#X connect 8 0 9 1;
#X connect 9 0 11 0;
#X connect 11 0 10 0;
#X connect 11 0 8 0;
#X connect 11 0 12 0;
#X connect 11 0 19 0;
#X connect 11 0 40 0;
#X connect 12 0 13 1;
#X connect 13 0 15 0;
#X connect 15 0 14 0;
#X connect 15 0 12 0;
#X connect 15 0 18 0;
#X connect 15 0 19 0;
#X connect 16 1 13 0;
#X connect 17 0 8 0;
#X connect 21 0 29 1;
#X connect 22 0 29 2;
#X connect 23 0 28 0;
#X connect 24 0 22 0;
#X connect 25 0 29 2;
#X connect 26 0 20 0;
#X connect 27 0 26 0;
#X connect 29 0 27 0;
#X connect 29 1 23 0;
#X connect 29 1 22 0;
#X connect 29 1 33 0;
#X connect 29 2 24 0;
#X connect 29 2 30 0;
#X connect 30 0 31 0;
#X connect 30 0 32 0;
#X connect 30 0 34 0;
#X connect 32 0 30 1;
#X connect 33 0 30 0;
#X connect 34 1 35 0;
#X connect 36 0 21 0;
#X connect 37 0 27 1;
#X connect 37 1 26 1;
#X connect 37 2 26 2;
#X connect 41 0 29 0;
#X connect 42 0 0 0;
#X connect 43 0 8 0;
#X restore 85 141 pd stream1proc;
#N canvas 384 382 486 529 stream2proc 0;
#X obj 33 43 env~ 10000;
#X obj 33 62 dbtorms;
#X obj 36 84 hsl 50 15 0 0.4 0 0 empty empty empty -2 -6 0 8 -228992
-1 -1 0 1;
#X obj 25 325 *~;
#X obj 90 291 hsl 128 15 0 1 0 0 empty empty empty -2 -6 0 8 -250685
-1 -1 3175 1;
#X floatatom 87 332 5 0 0 0 - - -;
#X obj 26 433 outlet~;
#X obj 25 20 r~ stream2L;
#X obj 108 20 r~ stream2R;
#X obj 57 326 *~;
#X obj 58 453 outlet~;
#X obj 114 45 env~ 10000;
#X obj 114 64 dbtorms;
#X obj 117 86 hsl 50 15 0 0.4 0 0 empty empty empty -2 -6 0 8 -228992
-1 -1 0 1;
#X obj 128 309 loadbang;
#X obj 111 223 l_revdelay~ 10 0 0 0.75;
#X obj 121 179 l_revdelay~ 10 0 0 0.75;
#X obj 110 245 *~ 0.2;
#X obj 120 201 *~ 0.2;
#N canvas 279 149 660 595 granu_amb 0;
#X msg 358 381 \; amb1 resize \$1;
#X obj 358 360 * 44100;
#X obj 358 318 loadbang;
#X floatatom 253 338 5 0 0 0 - - -;
#X floatatom 298 339 5 0 0 0 - - -;
#X obj 202 318 r~ stream2R;
#X obj 22 15 table amb1;
#X obj 213 458 tabwrite~ amb1;
#X obj 104 567 outlet~;
#X msg 43 98 help;
#X floatatom 148 208 5 0 0 0 - - -;
#X text 185 210 freq;
#X floatatom 254 166 5 0 0 0 - - -;
#X text 253 151 pitch;
#X floatatom 307 122 5 0 0 0 - - -;
#X floatatom 350 165 5 0 0 0 - - -;
#X text 389 163 ptr rate;
#X text 348 122 grain size;
#X obj 306 138 clip 0 350;
#X floatatom 210 164 5 0 0 0 - - -;
#X text 206 148 amp;
#X msg 28 77 set amb1;
#X obj 203 357 l_foldover~ 85 85;
#X msg 420 317 bang;
#X obj 28 57 loadbang;
#X obj 214 381 clip~ -1 1;
#X floatatom 470 330 5 0 0 0 - - -;
#X obj 358 339 1.5;
#X text 308 234 use values 397 1 0.1 28 1;
#X text 306 250 use values 516 1 0.1 82 1;
#X obj 104 265 syncgrain~ 397 1 0.1 28 1;
#N canvas 0 0 450 300 amb1_syncctrl 0;
#X obj 344 164 bng 15 250 50 0 empty empty empty 0 -6 0 8 -262144 -1
-1;
#X obj 266 219 / 1000;
#X obj 344 262 delay;
#X obj 374 220 * 100;
#X obj 386 261 spigot;
#X obj 423 142 tgl 15 0 empty empty empty 0 -6 0 8 -262144 -1 -1 1
1;
#X obj 266 197 random 1000;
#X obj 264 257 s a1_pitch;
#X obj 24 57 line;
#X msg 24 33 100 \, 500 10000;
#X obj 24 212 s a1_freq;
#X obj 32 78 select 500;
#X obj 31 109 bng 15 250 50 0 empty empty empty 0 -6 0 8 -262144 -1
-1;
#X obj 70 100 delay 10000;
#X obj 71 144 select 99;
#X msg 70 122 99 10000;
#X obj 86 167 bng 15 250 50 0 empty empty empty 0 -6 0 8 -262144 -1
-1;
#X obj 74 186 delay 5000;
#X obj 24 10 loadbang;
#X obj 364 108 loadbang;
#X obj 364 130 delay 1;
#X obj 351 197 random 50;
#X connect 0 0 2 0;
#X connect 0 0 6 0;
#X connect 0 0 21 0;
#X connect 1 0 7 0;
#X connect 2 0 4 0;
#X connect 3 0 2 1;
#X connect 4 0 0 0;
#X connect 5 0 4 1;
#X connect 5 0 0 0;
#X connect 6 0 1 0;
#X connect 8 0 10 0;
#X connect 8 0 11 0;
#X connect 8 0 14 0;
#X connect 9 0 8 0;
#X connect 11 0 12 0;
#X connect 11 0 13 0;
#X connect 13 0 15 0;
#X connect 14 0 16 0;
#X connect 14 0 17 0;
#X connect 15 0 8 0;
#X connect 17 0 9 0;
#X connect 18 0 9 0;
#X connect 19 0 5 0;
#X connect 19 0 20 0;
#X connect 20 0 0 0;
#X connect 21 0 3 0;
#X restore 509 186 pd amb1_syncctrl;
#X obj 138 227 clip 0 1000;
#X obj 254 36 r a1_pitch;
#X obj 138 187 r a1_freq;
#X obj 223 413 r amb1_resamp;
#X obj 223 435 bng 20 250 50 0 empty empty empty 0 -6 0 8 -261689 -1
-1;
#X obj 336 79 loadbang;
#X msg 336 100 28;
#X obj 441 116 loadbang;
#X msg 441 137 1;
#X connect 1 0 0 0;
#X connect 2 0 27 0;
#X connect 3 0 22 1;
#X connect 4 0 22 2;
#X connect 5 0 22 0;
#X connect 9 0 30 0;
#X connect 12 0 30 3;
#X connect 14 0 18 0;
#X connect 15 0 30 5;
#X connect 18 0 30 4;
#X connect 19 0 30 2;
#X connect 21 0 30 0;
#X connect 22 0 25 0;
#X connect 23 0 27 0;
#X connect 24 0 21 0;
#X connect 25 0 7 0;
#X connect 26 0 1 0;
#X connect 27 0 1 0;
#X connect 30 0 8 0;
#X connect 32 0 30 1;
#X connect 33 0 12 0;
#X connect 34 0 10 0;
#X connect 34 0 32 0;
#X connect 35 0 36 0;
#X connect 36 0 7 0;
#X connect 37 0 38 0;
#X connect 38 0 14 0;
#X connect 39 0 40 0;
#X connect 40 0 15 0;
#X restore 248 272 pd granu_amb;
#X obj 248 370 *~;
#X floatatom 275 369 5 0 0 0 - - -;
#X obj 267 348 hsl 128 15 0 1 0 0 empty empty empty -2 -6 0 8 -250685
-1 -1 2540 1;
#X obj 247 398 pingpong~ 0.5;
#X floatatom 181 85 5 0 0 0 - - -;
#X obj 232 85 moses 0.5;
#X obj 321 162 random 100;
#X msg 322 202 bang;
#X obj 359 202 s amb1_resamp;
#X msg 321 141 bang;
#X obj 322 182 moses 6;
#X msg 128 330 0.25;
#X msg 264 324 0.2;
#X obj 297 296 loadbang;
#X obj 366 396 snapshot~;
#X obj 415 376 metro 50;
#X obj 415 357 bng 15 250 50 0 empty empty empty 0 -6 0 8 -262144 -1
-1;
#X obj 335 373 tri~ 0.018;
#X obj 249 461 panning~;
#X obj 333 431 tri~ 0.018;
#X obj 361 474 snapshot~;
#X obj 334 453 -~ 0.5;
#X floatatom 425 456 5 0 0 0 - - -;
#X connect 0 0 1 0;
#X connect 1 0 2 0;
#X connect 3 0 6 0;
#X connect 4 0 3 1;
#X connect 4 0 5 0;
#X connect 4 0 9 1;
#X connect 7 0 3 0;
#X connect 7 0 0 0;
#X connect 7 0 16 0;
#X connect 8 0 11 0;
#X connect 8 0 9 0;
#X connect 8 0 15 0;
#X connect 9 0 10 0;
#X connect 11 0 12 0;
#X connect 12 0 13 0;
#X connect 12 0 24 0;
#X connect 12 0 25 0;
#X connect 14 0 31 0;
#X connect 15 0 17 0;
#X connect 16 0 18 0;
#X connect 17 0 3 0;
#X connect 18 0 9 0;
#X connect 19 0 20 0;
#X connect 20 0 23 0;
#X connect 20 0 38 0;
#X connect 22 0 20 1;
#X connect 22 0 21 0;
#X connect 23 0 6 0;
#X connect 23 1 10 0;
#X connect 25 1 29 0;
#X connect 26 0 30 0;
#X connect 27 0 28 0;
#X connect 29 0 26 0;
#X connect 30 0 27 0;
#X connect 31 0 4 0;
#X connect 32 0 22 0;
#X connect 33 0 32 0;
#X connect 33 0 35 0;
#X connect 34 0 23 1;
#X connect 35 0 34 0;
#X connect 35 0 40 0;
#X connect 36 0 35 0;
#X connect 37 0 34 0;
#X connect 39 0 41 0;
#X connect 40 0 42 0;
#X connect 41 0 40 0;
#X restore 192 141 pd stream2proc;
#X obj 209 232 loadbang;
#X msg 209 251 0.9;
#N canvas 566 576 450 300 midipart 0;
#X obj 52 227 noteout;
#X obj 115 22 loadbang;
#X obj 52 201 makenote;
#X floatatom 145 131 0 0 0 0 - - -;
#X obj 52 175 f;
#X floatatom 98 65 0 0 0 0 - - -;
#X floatatom 189 131 0 0 0 0 - - -;
#X floatatom 232 131 0 0 0 0 - - -;
#X msg 176 57 64;
#X msg 204 57 250;
#X text 94 51 rate;
#X text 143 110 pitch;
#X text 188 110 vel;
#X text 224 111 length;
#X text 234 17 soft simple preset on amSynth;
#X msg 52 45 bang;
#X obj 52 89 metro 500;
#X obj 83 174 bng 15 250 50 0 empty empty empty 0 -6 0 8 -262144 -1
-1;
#X obj 217 256 + 15;
#X msg 147 57 20;
#X obj 216 235 random 30;
#X obj 350 189 * 5000;
#X obj 320 246 delay;
#X obj 304 179 bng 15 250 50 0 empty empty empty 0 -6 0 8 -262144 -1
-1;
#X floatatom 369 249 5 0 0 0 - - -;
#X obj 320 265 bng 15 250 50 0 empty empty empty 0 -6 0 8 -262144 -1
-1;
#X obj 368 212 + 5000;
#X obj 350 169 random 4;
#X connect 1 0 19 0;
#X connect 1 0 8 0;
#X connect 1 0 9 0;
#X connect 1 0 23 0;
#X connect 1 0 15 0;
#X connect 2 0 0 0;
#X connect 2 1 0 1;
#X connect 3 0 4 1;
#X connect 4 0 2 0;
#X connect 5 0 16 1;
#X connect 6 0 2 1;
#X connect 7 0 2 2;
#X connect 8 0 6 0;
#X connect 9 0 7 0;
#X connect 15 0 16 0;
#X connect 16 0 4 0;
#X connect 16 0 17 0;
#X connect 18 0 3 0;
#X connect 19 0 3 0;
#X connect 20 0 18 0;
#X connect 21 0 26 0;
#X connect 22 0 25 0;
#X connect 22 0 23 0;
#X connect 23 0 22 0;
#X connect 23 0 27 0;
#X connect 23 0 20 0;
#X connect 26 0 24 0;
#X connect 26 0 22 1;
#X connect 27 0 21 0;
#X restore 180 105 pd midipart;
#X connect 0 0 1 0;
#X connect 0 0 3 2;
#X connect 3 0 2 0;
#X connect 3 1 4 0;
#X connect 6 0 3 0;
#X connect 6 0 3 1;
#X connect 7 0 3 0;
#X connect 7 1 3 1;
#X connect 8 0 9 0;
#X connect 9 0 0 0;
