#N canvas 669 296 590 553 10;
#X obj 124 129 + 1;
#X obj 88 128 f;
#X obj 87 104 bng 15 250 50 0 empty empty empty 17 7 0 10 -262144 -1
-1;
#X floatatom 97 151 5 0 0 0 - - -;
#X obj 94 175 mod 5;
#X floatatom 107 197 5 0 0 0 - - -;
#X obj 94 217 select 0 1 2 3 4;
#X obj 97 243 bng 15 250 50 0 empty empty empty 17 7 0 10 -262144 -1
-1;
#X obj 117 242 bng 15 250 50 0 empty empty empty 17 7 0 10 -262144
-1 -1;
#X obj 140 242 bng 15 250 50 0 empty empty empty 17 7 0 10 -262144
-1 -1;
#X obj 160 241 bng 15 250 50 0 empty empty empty 17 7 0 10 -262144
-1 -1;
#X obj 181 243 bng 15 250 50 0 empty empty empty 17 7 0 10 -262144
-1 -1;
#X obj 154 515 dac~;
#X obj 154 488 *~;
#X obj 189 489 hsl 128 15 0 1 0 0 empty empty empty -2 -8 0 10 -262144
-1 -1 9700 1;
#X msg 90 44 stop;
#X msg 74 18 bang;
#X floatatom 144 52 5 33 800 0 - - -;
#X obj 151 390 mtof;
#X floatatom 164 414 5 0 0 0 - - -;
#X obj 92 367 32;
#X obj 191 367 27;
#X obj 162 366 62;
#X obj 226 368 52;
#X obj 224 450 vline~;
#X obj 153 465 *~;
#X obj 129 367 83;
#X obj 102 272 vsl 15 75 18 88 0 0 empty empty empty 0 -9 0 10 -204786
-1 -1 3300 1;
#X obj 133 272 vsl 15 75 18 88 0 0 empty empty empty 0 -9 0 10 -204786
-1 -1 4600 1;
#X obj 165 272 vsl 15 75 18 88 0 0 empty empty empty 0 -9 0 10 -204786
-1 -1 3400 1;
#X obj 195 272 vsl 15 75 18 88 0 0 empty empty empty 0 -9 0 10 -204786
-1 -1 3700 1;
#X obj 226 271 vsl 15 75 18 88 0 0 empty empty empty 0 -9 0 10 -204786
-1 -1 6000 1;
#X obj 224 116 /;
#X msg 209 96 1;
#X floatatom 210 36 5 0 0 0 - - -;
#X obj 210 54 / 60;
#X obj 225 136 * 1000;
#X text 251 36 bpm;
#X obj 210 76 trigger b f;
#X obj 152 437 osc~ 440;
#X msg 224 428 1 20 \, 0 190 25;
#X obj 86 77 metro 275;
#X connect 0 0 1 1;
#X connect 1 0 0 0;
#X connect 1 0 3 0;
#X connect 1 0 4 0;
#X connect 2 0 1 0;
#X connect 4 0 5 0;
#X connect 4 0 6 0;
#X connect 6 0 7 0;
#X connect 6 1 8 0;
#X connect 6 2 9 0;
#X connect 6 3 10 0;
#X connect 6 4 11 0;
#X connect 7 0 20 0;
#X connect 8 0 26 0;
#X connect 9 0 22 0;
#X connect 10 0 21 0;
#X connect 11 0 23 0;
#X connect 13 0 12 1;
#X connect 13 0 12 0;
#X connect 14 0 13 1;
#X connect 15 0 41 0;
#X connect 16 0 41 0;
#X connect 17 0 41 1;
#X connect 18 0 19 0;
#X connect 18 0 40 0;
#X connect 18 0 39 0;
#X connect 20 0 18 0;
#X connect 21 0 18 0;
#X connect 22 0 18 0;
#X connect 23 0 18 0;
#X connect 24 0 25 1;
#X connect 25 0 13 0;
#X connect 26 0 18 0;
#X connect 27 0 20 1;
#X connect 28 0 26 1;
#X connect 29 0 22 1;
#X connect 30 0 21 1;
#X connect 31 0 23 1;
#X connect 32 0 36 0;
#X connect 33 0 32 0;
#X connect 34 0 35 0;
#X connect 35 0 38 0;
#X connect 36 0 17 0;
#X connect 38 0 33 0;
#X connect 38 1 32 1;
#X connect 39 0 25 0;
#X connect 40 0 24 0;
#X connect 41 0 2 0;
