#N canvas 576 272 601 458 10;
#X floatatom 187 50 5 0 0 0 - - -;
#X obj 138 356 hsl 128 15 0 2 0 0 empty empty empty -2 -6 0 8 -262144
-1 -1 7725 1;
#X floatatom 136 373 5 0 0 0 - - -;
#X obj 102 371 dac~;
#X obj 102 350 *~;
#X obj 135 336 mc 16 0 1.5;
#X obj 187 67 osc~ 400;
#X obj 187 31 mc 14 30 600;
#X floatatom 278 51 5 0 0 0 - - -;
#X obj 278 68 osc~ 400;
#X obj 278 32 mc 15 30 600;
#X obj 235 123 /~ 2;
#X obj 39 158 oscsq~;
#X floatatom 93 50 5 0 0 0 - - -;
#X obj 93 86 pwm~;
#X floatatom 3 50 5 0 0 0 - - -;
#X obj 128 150 *~;
#X obj 93 31 mc 13 0 100;
#X text 97 15 duty;
#X text 0 14 freq;
#X obj 3 31 mc 12 0 25;
#X obj 330 199 adc~;
#X floatatom 375 200 5 0 0 0 - - -;
#X obj 330 234 pitcher~;
#X obj 375 179 mc 1 -10 10;
#X obj 230 170 noise~;
#X floatatom 282 171 5 0 0 0 - - -;
#X obj 232 198 *~;
#X floatatom 369 290 5 0 0 0 - - -;
#X floatatom 413 290 5 0 0 0 - - -;
#X obj 336 317 bp~ 400 5;
#X floatatom 363 339 5 0 0 0 - - -;
#X floatatom 410 338 5 0 0 0 - - -;
#X obj 337 360 l_reverb~ 95 50 50;
#X floatatom 453 339 5 0 0 0 - - -;
#X obj 333 396 *~;
#X floatatom 365 394 5 0 0 0 - - -;
#X obj 403 254 mc 2 0 1000;
#X obj 134 318 clip~ -1 1;
#X connect 0 0 6 0;
#X connect 1 0 2 0;
#X connect 1 0 4 1;
#X connect 4 0 3 0;
#X connect 4 0 3 1;
#X connect 5 0 1 0;
#X connect 6 0 11 0;
#X connect 7 0 0 0;
#X connect 8 0 9 0;
#X connect 9 0 11 0;
#X connect 10 0 8 0;
#X connect 11 0 16 1;
#X connect 13 0 14 1;
#X connect 14 0 16 0;
#X connect 15 0 14 0;
#X connect 16 0 38 0;
#X connect 17 0 13 0;
#X connect 20 0 15 0;
#X connect 21 0 23 0;
#X connect 22 0 23 1;
#X connect 23 0 30 0;
#X connect 24 0 22 0;
#X connect 25 0 27 0;
#X connect 26 0 27 1;
#X connect 27 0 23 0;
#X connect 28 0 30 1;
#X connect 29 0 30 2;
#X connect 30 0 33 0;
#X connect 31 0 33 2;
#X connect 32 0 33 3;
#X connect 33 0 35 0;
#X connect 34 0 33 4;
#X connect 35 0 38 0;
#X connect 36 0 35 1;
#X connect 37 0 28 0;
#X connect 38 0 4 0;
