#N canvas 23 13 694 557 10;
#X obj 338 528 soundfiler;
#X floatatom 224 15 5 0 0 0 - - -;
#X obj 118 280 tabread4~ sample1;
#X obj 119 239 line~;
#X msg 338 497 read -resize /tmp/xx.wav sample1;
#X obj 119 189 pack 0 100;
#X floatatom 524 13 5 0 0 0 - - -;
#X obj 419 528 table sample1;
#X floatatom 398 11 5 0 0 0 - - -;
#X floatatom 273 299 10 0 0 0 - - -;
#X obj 273 263 *;
#X obj 276 195 / 1000;
#X obj 371 239 *;
#X floatatom 394 294 10 0 0 0 - - -;
#X obj 370 264 +;
#X obj 338 470 loadbang;
#X obj 410 430 print;
#X obj 417 363 pack 0 0 0 0;
#X obj 619 281 bng 15 250 50 0 empty empty empty 0 -6 0 8 -262144 -1
-1;
#X msg 408 397 \$2 \, \$3 \$4;
#X obj 398 44 bang;
#X obj 224 45 bang;
#X text 266 8 starting point (ms);
#X text 440 9 sample rate;
#X text 563 7 fragment len (ms);
#X text 585 264 trigger/play;
#X floatatom 237 528 10 0 0 0 - - -;
#X text 56 510 number of samples read from input file;
#X text 261 312 starting sample;
#X text 377 306 ending sample;
#X obj 108 428 dac~;
#X obj 163 321 vsl 15 128 0 1 0 0 empty empty empty 0 -8 0 8 -262144
-1 -1 6500 1;
#X obj 117 354 *~;
#X connect 0 0 26 0;
#X connect 1 0 10 0;
#X connect 2 0 32 0;
#X connect 3 0 2 0;
#X connect 4 0 0 0;
#X connect 5 0 3 0;
#X connect 6 0 12 1;
#X connect 6 0 17 3;
#X connect 6 0 20 0;
#X connect 6 0 21 0;
#X connect 8 0 11 0;
#X connect 8 0 21 0;
#X connect 10 0 9 0;
#X connect 10 0 14 0;
#X connect 10 0 17 1;
#X connect 11 0 12 0;
#X connect 11 0 10 1;
#X connect 12 0 14 1;
#X connect 14 0 13 0;
#X connect 14 0 17 2;
#X connect 15 0 4 0;
#X connect 17 0 19 0;
#X connect 18 0 17 0;
#X connect 19 0 16 0;
#X connect 19 0 3 0;
#X connect 20 0 8 0;
#X connect 21 0 1 0;
#X connect 31 0 32 1;
#X connect 32 0 30 0;
#X connect 32 0 30 1;
