#N canvas 759 205 450 639 10;
#X obj 325 18 table bucket;
#X obj 37 372 tabread4~ \$1;
#X msg 68 313 set \$1;
#X obj 107 345 line~;
#X obj 29 556 dac~;
#X obj 63 441 vsl 15 128 0 1 0 0 empty empty empty 0 -8 0 8 -262144
-1 -1 3700 1;
#X obj 36 446 *~;
#X text 159 396 play;
#X obj 163 18 loadbang;
#X msg 145 413 0 \, 66150 1500;
#X obj 257 411 soundfiler;
#X floatatom 257 449 5 0 0 0 - - -;
#X text 251 463 samples read;
#X obj 163 67 makefilename sample%d;
#X symbolatom 163 124 14 0 0 0 - - -;
#X text 266 123 table name;
#X msg 188 89 \; bucket rename \$1;
#X obj 42 152 pack scalar scalar;
#X symbolatom 29 39 10 0 0 0 - - -;
#X obj 15 14 bng 15 250 50 0 empty empty empty 0 -6 0 8 -262144 -1
-1;
#X msg 226 338 read -resize \$1 \$2;
#X obj 163 44 random 1e+06;
#X obj 32 225 pack f s;
#X msg 39 263 set \$2;
#X obj 19 286 print \$2;
#X connect 1 0 6 0;
#X connect 2 0 1 0;
#X connect 3 0 1 0;
#X connect 5 0 6 1;
#X connect 6 0 4 0;
#X connect 6 0 4 1;
#X connect 8 0 21 0;
#X connect 9 0 3 0;
#X connect 10 0 11 0;
#X connect 13 0 14 0;
#X connect 13 0 16 0;
#X connect 14 0 17 1;
#X connect 14 0 22 1;
#X connect 17 0 20 0;
#X connect 18 0 17 0;
#X connect 19 0 18 0;
#X connect 19 0 22 0;
#X connect 20 0 10 0;
#X connect 21 0 13 0;
#X connect 22 0 23 0;
#X connect 22 0 24 0;
#X connect 23 0 1 0;
