#N canvas 514 318 717 570 10;
#X obj 66 531 dac~;
#X obj 70 491 *~;
#X obj 103 417 vsl 15 128 0 1 0 0 empty empty empty 0 -8 0 8 -262144
-1 -1 5400 1;
#X obj 343 423 soundfiler;
#X floatatom 343 452 5 0 0 0 - - -;
#X obj 527 358 table s01;
#X msg 342 380 read -resize /tmp/xx.wav s01;
#X obj 44 373 tabplay~ s01;
#X floatatom 60 126 5 0 0 0 - - -;
#X floatatom 360 124 5 0 0 0 - - -;
#X floatatom 234 122 5 0 0 0 - - -;
#X floatatom 138 276 10 0 0 0 - - -;
#X obj 138 240 *;
#X obj 141 172 / 1000;
#X obj 236 216 *;
#X floatatom 257 270 10 0 0 0 - - -;
#X obj 235 241 +;
#X obj 234 155 bang;
#X obj 60 156 bang;
#X text 102 119 starting point (ms);
#X text 276 120 sample rate;
#X text 399 118 fragment len (ms);
#X text 126 289 starting sample;
#X text 246 286 ending sample;
#X obj 215 324 -;
#X obj 187 383 pack 0 0 0;
#X msg 183 416 \$2 \$3;
#X obj 492 41 random 1500;
#X obj 582 41 random 1500;
#X obj 540 5 bng 15 250 50 0 empty empty empty 0 -6 0 8 -262144 -1
-1;
#X floatatom 490 78 5 0 0 0 - - -;
#X floatatom 581 79 5 0 0 0 - - -;
#X obj 374 180 bng 15 250 50 0 empty empty empty 0 -6 0 8 -262144 -1
-1;
#X obj 462 241 + 1;
#X floatatom 460 335 5 0 0 0 - - -;
#X obj 404 238 float;
#X obj 403 207 metro 500;
#X floatatom 493 279 5 0 0 0 - - -;
#X obj 461 305 mod 2;
#X obj 539 157 select 1;
#X obj 397 36 select 0;
#X floatatom 456 179 5 0 0 0 - - -;
#X connect 1 0 0 0;
#X connect 1 0 0 1;
#X connect 2 0 1 1;
#X connect 3 0 4 0;
#X connect 6 0 3 0;
#X connect 7 0 1 0;
#X connect 8 0 12 0;
#X connect 9 0 14 1;
#X connect 9 0 17 0;
#X connect 9 0 18 0;
#X connect 10 0 13 0;
#X connect 10 0 18 0;
#X connect 11 0 24 1;
#X connect 11 0 25 1;
#X connect 12 0 11 0;
#X connect 12 0 16 0;
#X connect 13 0 14 0;
#X connect 13 0 12 1;
#X connect 14 0 16 1;
#X connect 15 0 24 0;
#X connect 16 0 15 0;
#X connect 17 0 10 0;
#X connect 18 0 8 0;
#X connect 24 0 25 2;
#X connect 25 0 26 0;
#X connect 26 0 7 0;
#X connect 27 0 30 0;
#X connect 28 0 31 0;
#X connect 29 0 27 0;
#X connect 29 0 28 0;
#X connect 30 0 8 0;
#X connect 31 0 8 0;
#X connect 32 0 36 0;
#X connect 33 0 35 1;
#X connect 33 0 37 0;
#X connect 33 0 38 0;
#X connect 34 0 40 0;
#X connect 34 0 39 0;
#X connect 35 0 33 0;
#X connect 36 0 35 0;
#X connect 36 0 25 0;
#X connect 38 0 34 0;
#X connect 39 0 31 0;
#X connect 40 0 30 0;
#X connect 41 0 36 1;
