#N canvas 10 147 687 743 10;
#X obj 219 386 readanysf~;
#X msg 33 337 stop;
#X msg 33 241 open \$1;
#X obj 33 220 symbol;
#X obj 32 201 openpanel;
#X obj 32 146 bng 45 250 50 0 empty empty empty 0 -6 0 8 -258699 -1
-1;
#X msg 33 308 pause;
#X msg 33 369 play;
#X obj 269 201 hsl 300 15 0 2 0 0 empty empty empty -2 -6 0 8 -44926
-1 -1 17850 1;
#X floatatom 335 216 5 0 0 0 - - -;
#X msg 266 221 speed \$1;
#X msg 266 175 1;
#X msg 297 175 2;
#X msg 329 175 3;
#X msg 363 175 1.378;
#X obj 22 582 catch~ L;
#X obj 386 612 catch~ R;
#X obj 220 466 throw~ L;
#X obj 251 446 throw~ R;
#X obj 22 606 env~;
#X floatatom 22 624 5 0 0 0 - - -;
#X obj 440 629 env~;
#X floatatom 440 647 5 0 0 0 - - -;
#X obj 69 677 dac~;
#X obj 266 325 tgl 15 0 empty empty empty 0 -6 0 8 -241291 -1 -1 0
1;
#X msg 266 341 loop \$1;
#X text 32 104 !!!!!!!!!!;
#X text 32 120 START HERE;
#X obj 68 615 dline~ 1000 0.9;
#X obj 139 589 hsl 128 15 0 1 0 0 empty empty empty -2 -6 0 8 -262144
-1 -1 12700 1;
#X obj 137 570 hsl 128 15 0 3000 0 0 empty empty empty -2 -6 0 8 -262144
-1 -1 8700 1;
#X floatatom 92 570 5 0 0 0 - - -;
#X floatatom 93 590 5 0 0 0 - - -;
#X obj 241 620 dline~ 1000 0.9;
#X text 272 567 delay length;
#X text 274 587 feedback power;
#X obj 486 404 phasor~ 0;
#X obj 486 448 cos~;
#X obj 522 426 +~ -0.25;
#X obj 522 449 cos~;
#X obj 339 493 *~;
#X obj 404 493 *~;
#X obj 338 517 -~;
#X floatatom 486 377 0 0 0 0 - - -;
#N canvas 0 0 600 388 hilbert 0;
#X obj 166 190 biquad~ 0.83774 -0.06338 0.06338 -0.83774 1;
#X obj 166 164 biquad~ 1.94632 -0.94657 0.94657 -1.94632 1;
#X obj 99 111 biquad~ -0.02569 0.260502 -0.260502 0.02569 1;
#X obj 99 137 biquad~ 1.8685 -0.870686 0.870686 -1.8685 1;
#X obj 98 76 inlet~;
#X obj 166 213 outlet~;
#X obj 99 213 outlet~;
#X text 95 261 This is a pair of all-pass filters whose outputs somehow
manage to be about 90 degrees out of phase from each other. I don't
know what phase relation they have with the original signal. I adapted
this from a 4X patch by Emmanuel Favreau \, circa 1982;
#X connect 0 0 5 0;
#X connect 1 0 0 0;
#X connect 2 0 3 0;
#X connect 3 0 6 0;
#X connect 4 0 1 0;
#X connect 4 0 2 0;
#X restore 339 455 pd hilbert;
#X text 351 369 pair of allpass;
#X text 350 388 filters to make;
#X text 350 408 90 degree phase;
#X text 348 428 shifted versions;
#X text 517 378 <-- shift frequency;
#X text 438 493 <-- complex multiply;
#X text 439 507 (calculate real part);
#X text 477 467 cosine and sine waves;
#X msg 294 90 loadbang;
#X text 224 683 i was playing with the low-cost frequency shifter \,
which is why it's all coming from one of the delays. overall \, it
doesn't really sound very good.;
#X connect 0 0 17 0;
#X connect 0 1 18 0;
#X connect 1 0 0 0;
#X connect 2 0 0 0;
#X connect 3 0 2 0;
#X connect 4 0 3 0;
#X connect 5 0 4 0;
#X connect 6 0 0 0;
#X connect 7 0 0 0;
#X connect 8 0 9 0;
#X connect 8 0 10 0;
#X connect 10 0 0 0;
#X connect 11 0 8 0;
#X connect 12 0 8 0;
#X connect 13 0 8 0;
#X connect 14 0 8 0;
#X connect 15 0 19 0;
#X connect 15 0 28 0;
#X connect 16 0 21 0;
#X connect 16 0 33 0;
#X connect 19 0 20 0;
#X connect 21 0 22 0;
#X connect 24 0 25 0;
#X connect 25 0 0 0;
#X connect 29 0 28 2;
#X connect 29 0 32 0;
#X connect 29 0 33 2;
#X connect 30 0 28 1;
#X connect 30 0 31 0;
#X connect 30 0 33 1;
#X connect 33 0 44 0;
#X connect 36 0 38 0;
#X connect 36 0 37 0;
#X connect 37 0 40 1;
#X connect 38 0 39 0;
#X connect 39 0 41 1;
#X connect 40 0 42 0;
#X connect 41 0 42 1;
#X connect 42 0 23 1;
#X connect 42 0 23 0;
#X connect 43 0 36 0;
#X connect 44 0 40 0;
#X connect 44 1 41 0;
#X connect 53 0 11 0;
