#N canvas 33 206 693 565 10;
#X obj 186 502 dac~;
#X obj 189 468 *~;
#X obj 227 485 hsl 128 15 0 1 0 0 empty empty empty -2 -6 0 8 -262144
-1 -1 0 1;
#X floatatom 223 503 5 0 0 0 - - -;
#X obj 186 502 dac~;
#X obj 189 468 *~;
#X obj 222 466 mc 16 0 1;
#X obj 189 445 clip~ -1 1;
#X obj 165 291 l_foldover~ 66 91;
#X floatatom 222 262 5 0 0 0 - - -;
#X floatatom 270 262 5 0 0 0 - - -;
#X obj 167 146 osc~ 440;
#X floatatom 167 125 5 0 0 0 - - -;
#X obj 165 200 dline~ 2500 0.95;
#X obj 168 92 mc 1 0 300;
#X obj 268 157 mc 2 0 1;
#X floatatom 277 180 5 0 0 0 - - -;
#X obj 470 338 bp~ 100 5;
#X obj 471 311 noise~;
#X obj 450 401 *~;
#X floatatom 472 382 5 0 0 0 - - -;
#X obj 42 320 tri~ 50;
#X floatatom 42 300 5 0 0 0 - - -;
#X obj 42 340 *~ 2;
#X obj 41 360 -~ 1;
#X obj 40 273 mc 15 1 100;
#X obj 469 117 tri~ 50;
#X obj 469 137 *~ 2;
#X obj 468 157 -~ 1;
#X obj 469 85 rndseq 4 30 85;
#X obj 544 22 bng 15 250 50 0 empty empty empty 0 -6 0 8 -262144 -1
-1;
#X obj 470 45 bng 15 250 50 0 empty empty empty 0 -6 0 8 -262144 -1
-1;
#X obj 545 52 metro 750;
#X connect 1 0 0 0;
#X connect 1 0 0 1;
#X connect 2 0 3 0;
#X connect 2 0 5 1;
#X connect 5 0 4 0;
#X connect 5 0 4 1;
#X connect 6 0 2 0;
#X connect 7 0 5 0;
#X connect 8 0 7 0;
#X connect 9 0 8 1;
#X connect 10 0 8 2;
#X connect 11 0 13 0;
#X connect 12 0 11 0;
#X connect 13 0 8 0;
#X connect 14 0 12 0;
#X connect 15 0 13 2;
#X connect 15 0 16 0;
#X connect 17 0 19 0;
#X connect 18 0 17 0;
#X connect 19 0 7 0;
#X connect 20 0 19 1;
#X connect 21 0 23 0;
#X connect 22 0 21 0;
#X connect 23 0 24 0;
#X connect 24 0 7 0;
#X connect 25 0 22 0;
#X connect 26 0 27 0;
#X connect 27 0 28 0;
#X connect 28 0 7 0;
#X connect 29 0 26 0;
#X connect 30 0 32 0;
#X connect 31 0 29 0;
#X connect 32 0 29 4;
