#N canvas 168 154 723 562 10;
#X obj 101 55 noise~;
#X obj 99 203 pitcher~ 0 20 0;
#X obj 134 409 mout~;
#X obj 235 128 random 100;
#X obj 235 149 / 100;
#X floatatom 200 341 5 0 0 0 - - -;
#X floatatom 244 194 5 0 0 0 - - -;
#X obj 235 171 * 3;
#X obj 100 351 clipper~ 100;
#X msg 264 33 stop;
#X msg 236 13 bang;
#X obj 262 61 metro 50;
#X floatatom 318 39 5 0 0 0 - - -;
#X msg 194 83 bang;
#X obj 361 173 random 1000;
#X obj 410 61 t b f;
#X obj 411 83 delay;
#X obj 410 108 spigot;
#X obj 463 87 tgl 15 0 empty empty empty 0 -6 0 8 -262144 -1 -1 0 1
;
#X msg 395 14 bang;
#X floatatom 459 66 5 0 0 0 - - -;
#X floatatom 477 10 5 0 0 0 - - -;
#X obj 219 410 /~ 2;
#X obj 409 38 random 100;
#X obj 219 389 dline~ 150 0.95;
#X floatatom 269 366 5 0 0 0 - - -;
#X floatatom 319 366 5 0 1 0 - - -;
#N canvas 608 517 450 300 midictl 1;
#X obj 44 24 nrpn_in 52;
#X floatatom 56 91 5 0 0 0 - - -;
#X obj 44 47 * 2;
#X floatatom 141 100 5 0 0 0 - - -;
#X obj 133 22 nrpn_in 53;
#X obj 215 108 s v_pitch;
#X obj 223 49 / 500;
#X obj 224 70 * 3;
#X floatatom 237 90 5 0 0 0 - - -;
#X obj 222 22 nrpn_in 72;
#X obj 41 200 / 500;
#X floatatom 55 241 5 0 0 0 - - -;
#X obj 33 259 s v_clip;
#X obj 40 173 nrpn_in 73;
#X obj 132 201 / 500;
#X obj 133 222 s v_vol;
#X obj 131 174 nrpn_in 113;
#X obj 246 189 select 127;
#X msg 246 211 1;
#X msg 311 211 0;
#X obj 246 236 s v_mute;
#X obj 249 164 ctlin 2;
#X obj 39 112 s v_freq;
#X obj 43 70 + 50;
#X obj 127 117 s v_filterq;
#X obj 132 45 / 500;
#X obj 128 79 * 100;
#X obj 42 221 * 10;
#X obj 355 172 ctlin 107;
#X obj 355 194 select 127;
#X obj 355 218 s v_rand;
#X connect 0 0 2 0;
#X connect 2 0 23 0;
#X connect 4 0 25 0;
#X connect 6 0 7 0;
#X connect 7 0 8 0;
#X connect 7 0 5 0;
#X connect 9 0 6 0;
#X connect 10 0 27 0;
#X connect 13 0 10 0;
#X connect 14 0 15 0;
#X connect 16 0 14 0;
#X connect 17 0 18 0;
#X connect 17 1 19 0;
#X connect 18 0 20 0;
#X connect 19 0 20 0;
#X connect 21 0 17 0;
#X connect 23 0 1 0;
#X connect 23 0 22 0;
#X connect 25 0 26 0;
#X connect 26 0 24 0;
#X connect 26 0 3 0;
#X connect 27 0 11 0;
#X connect 27 0 12 0;
#X connect 28 0 29 0;
#X connect 29 0 30 0;
#X restore 548 210 pd midictl;
#X obj 132 150 r v_pitch;
#X obj 235 214 s v_pitch;
#X floatatom 150 176 5 0 0 0 - - -;
#X obj 194 319 r v_clip;
#X obj 231 267 s v_clip;
#X obj 223 446 r v_vol;
#X obj 116 101 r v_mute;
#X obj 100 138 *~;
#X obj 129 124 tgl 15 0 empty empty empty 0 -6 0 8 -262144 -1 -1 1
1;
#X obj 516 391 loadbang;
#X obj 516 432 s v_mute;
#X msg 517 413 1;
#X obj 99 314 bp~ 100;
#X floatatom 127 253 5 0 0 0 - - -;
#X floatatom 152 296 5 0 0 0 - - -;
#X obj 121 233 r v_freq;
#X obj 146 275 r v_filterq;
#X obj 361 195 + 50;
#X obj 361 216 s v_freq;
#X obj 360 269 s v_filterq;
#X obj 360 248 random 100;
#X obj 229 245 random 10;
#X obj 180 52 r v_rand;
#X connect 0 0 35 0;
#X connect 1 0 40 0;
#X connect 3 0 4 0;
#X connect 4 0 7 0;
#X connect 7 0 6 0;
#X connect 7 0 29 0;
#X connect 8 0 22 0;
#X connect 8 0 24 0;
#X connect 9 0 11 0;
#X connect 10 0 11 0;
#X connect 11 0 13 0;
#X connect 12 0 11 1;
#X connect 13 0 3 0;
#X connect 13 0 14 0;
#X connect 13 0 48 0;
#X connect 13 0 49 0;
#X connect 14 0 45 0;
#X connect 15 0 16 0;
#X connect 15 1 16 1;
#X connect 16 0 17 0;
#X connect 17 0 13 0;
#X connect 17 0 19 0;
#X connect 18 0 17 1;
#X connect 19 0 23 0;
#X connect 21 0 23 1;
#X connect 22 0 2 0;
#X connect 23 0 15 0;
#X connect 23 0 20 0;
#X connect 24 0 22 0;
#X connect 25 0 24 1;
#X connect 26 0 24 2;
#X connect 28 0 1 1;
#X connect 28 0 30 0;
#X connect 31 0 8 1;
#X connect 31 0 5 0;
#X connect 33 0 2 1;
#X connect 34 0 36 0;
#X connect 34 0 35 1;
#X connect 35 0 1 0;
#X connect 37 0 39 0;
#X connect 39 0 38 0;
#X connect 40 0 8 0;
#X connect 43 0 40 1;
#X connect 43 0 41 0;
#X connect 44 0 40 2;
#X connect 44 0 42 0;
#X connect 45 0 46 0;
#X connect 48 0 47 0;
#X connect 49 0 32 0;
#X connect 50 0 13 0;
