#N canvas 260 213 768 596 10;
#N canvas 425 45 725 737 delay_city 1;
#X obj 136 679 outlet~;
#X obj 240 679 outlet~;
#X obj 137 658 dline~ 50 0.6;
#X obj 185 416 *~ 1;
#X obj 90 417 *~ 1;
#X obj 133 170 osc~ 2;
#X obj 82 258 osc~ 400;
#X obj 133 192 *~;
#X obj 82 227 +~;
#X floatatom 133 153 5 0 0 0 - - -;
#X obj 68 67 osc~ 0.02;
#X obj 70 90 +~ 1;
#X obj 71 113 /~ 2;
#X obj 72 135 *~ 80;
#X obj 72 158 +~ 20;
#X obj 170 272 phasor~ 1211;
#X obj 168 251 *~ 0.876631;
#X obj 334 267 noise~;
#X obj 88 349 *~ 1;
#X floatatom 208 323 5 0 0 0 - - -;
#X obj 170 343 *~ 0.6;
#X obj 56 299 dline~ 331 0.7;
#X obj 169 300 dline~ 331 0.7;
#X obj 336 326 dline~ 600 0.85;
#X obj 336 299 bp~ 100 3;
#X obj 335 352 *~ 7;
#X obj 398 237 metro 80;
#X obj 398 216 loadbang;
#X obj 392 265 snapshot~;
#X obj 358 125 +~ 1;
#X obj 359 148 /~ 2;
#X obj 358 103 osc~ 0.03;
#X obj 360 193 +~ 50;
#X obj 360 170 *~ 150;
#X obj 241 657 dline~ 54 0.6;
#X obj 439 384 loadbang;
#X obj 441 450 adsr~ 25 0.8 10 25;
#X obj 423 481 *~;
#X obj 462 429 bng 15 250 50 0 empty empty empty 17 7 0 10 -262144
-1 -1;
#X floatatom 514 374 5 0 0 0 - - -;
#X floatatom 448 543 5 0 0 0 - - -;
#X obj 425 586 dline~ 901 0.93;
#X obj 424 563 pitcher~ 20;
#X obj 425 613 *~ 0.7;
#X floatatom 476 608 5 0 0 0 - - -;
#X obj 440 405 metro 800;
#X connect 2 0 0 0;
#X connect 3 0 2 0;
#X connect 4 0 34 0;
#X connect 4 0 37 0;
#X connect 5 0 7 0;
#X connect 6 0 21 0;
#X connect 7 0 8 1;
#X connect 8 0 6 0;
#X connect 8 0 16 0;
#X connect 9 0 5 0;
#X connect 10 0 11 0;
#X connect 11 0 12 0;
#X connect 12 0 13 0;
#X connect 13 0 14 0;
#X connect 14 0 8 0;
#X connect 15 0 22 0;
#X connect 16 0 15 0;
#X connect 17 0 24 0;
#X connect 18 0 4 0;
#X connect 18 0 3 0;
#X connect 19 0 20 1;
#X connect 20 0 4 0;
#X connect 20 0 3 0;
#X connect 21 0 18 0;
#X connect 22 0 20 0;
#X connect 23 0 25 0;
#X connect 24 0 23 0;
#X connect 25 0 2 0;
#X connect 25 0 34 0;
#X connect 25 0 37 0;
#X connect 26 0 28 0;
#X connect 27 0 26 0;
#X connect 28 0 24 1;
#X connect 29 0 30 0;
#X connect 30 0 33 0;
#X connect 31 0 29 0;
#X connect 32 0 28 0;
#X connect 33 0 32 0;
#X connect 34 0 1 0;
#X connect 35 0 45 0;
#X connect 36 0 37 1;
#X connect 37 0 42 0;
#X connect 39 0 45 1;
#X connect 40 0 42 1;
#X connect 41 0 43 0;
#X connect 42 0 41 0;
#X connect 43 0 34 0;
#X connect 43 0 2 0;
#X connect 44 0 43 1;
#X connect 45 0 36 0;
#X connect 45 0 38 0;
#X restore 197 227 pd delay_city;
#X obj 201 294 sout~;
#X connect 0 0 1 0;
#X connect 0 1 1 1;
