#N canvas 379 201 479 396 10;
#N canvas 0 0 732 603 apdist 0;
#X obj 92 329 rpole~;
#X obj 92 304 rzero_rev~;
#X obj 92 59 inlet~;
#X obj 92 354 outlet~;
#X obj 158 121 lop~ 500;
#X obj 159 262 clip~ -0.9999 0.9999;
#X obj 211 62 inlet;
#X obj 274 61 inlet;
#X obj 274 160 pack 0 10;
#X obj 274 182 line~;
#X obj 158 234 *~;
#X text 211 40 lop;
#X text 274 41 drive;
#X connect 0 0 3 0;
#X connect 1 0 0 0;
#X connect 2 0 1 0;
#X connect 2 0 4 0;
#X connect 4 0 10 0;
#X connect 5 0 0 1;
#X connect 5 0 1 1;
#X connect 6 0 4 1;
#X connect 7 0 8 0;
#X connect 8 0 9 0;
#X connect 9 0 10 1;
#X connect 10 0 5 0;
#X restore 83 175 pd apdist;
#N canvas 0 0 424 320 drywet 0;
#X obj 76 87 inlet~;
#X obj 142 87 inlet~;
#X obj 77 198 outlet~;
#X obj 201 87 inlet;
#X obj 141 136 -~;
#X obj 141 156 *~;
#X obj 201 127 line~;
#X obj 201 107 pack 0 10;
#X connect 0 0 4 1;
#X connect 0 0 2 0;
#X connect 1 0 4 0;
#X connect 3 0 7 0;
#X connect 4 0 5 0;
#X connect 5 0 2 0;
#X connect 6 0 5 1;
#X connect 7 0 6 0;
#X restore 82 240 pd drywet;
#X obj 143 104 list trim;
#X obj 83 83 inlet~;
#X obj 81 282 outlet~;
#X obj 143 81 inlet;
#X text 53 43 apdist: all pass distortion;
#X obj 143 126 route lop drive dry;
#X connect 0 0 1 0;
#X connect 1 0 4 0;
#X connect 2 0 7 0;
#X connect 3 0 0 0;
#X connect 3 0 1 1;
#X connect 5 0 2 0;
#X connect 7 0 0 1;
#X connect 7 1 0 2;
#X connect 7 2 1 2;
