#N canvas 392 294 497 502 10;
#X obj 119 155 pointer;
#X obj 119 99 route \$1;
#X obj 119 412 s \$2-result;
#X text 234 49 args: id \, \$0;
#X obj 119 70 r \$2-pointer;
#X obj 133 134 r \$2-readout;
#X obj 119 348 pack 0 0 0;
#X text 229 133 from metro;
#N canvas 0 0 450 300 change 0;
#X obj 123 156 spigot 1;
#X obj 123 99 t f f;
#X obj 174 130 !=;
#X obj 123 193 outlet;
#X obj 123 75 inlet;
#X text 46 40 [change] for floats using only internal objects.;
#X connect 0 0 2 1;
#X connect 0 0 3 0;
#X connect 1 0 0 0;
#X connect 1 1 2 0;
#X connect 2 0 0 1;
#X connect 4 0 1 0;
#X restore 195 226 pd change;
#N canvas 0 0 450 300 change 0;
#X obj 123 156 spigot 1;
#X obj 123 99 t f f;
#X obj 174 130 !=;
#X obj 123 193 outlet;
#X obj 123 75 inlet;
#X text 46 40 [change] for floats using only internal objects.;
#X connect 0 0 2 1;
#X connect 0 0 3 0;
#X connect 1 0 0 0;
#X connect 1 1 2 0;
#X connect 2 0 0 1;
#X connect 4 0 1 0;
#X restore 119 226 pd change;
#X obj 119 183 get \$2-controller x0 y0 id;
#X msg 119 381 \$3 \$1 \$2;
#X obj 195 247 t b f;
#X connect 0 0 10 0;
#X connect 1 0 0 0;
#X connect 4 0 1 0;
#X connect 5 0 0 0;
#X connect 6 0 11 0;
#X connect 8 0 12 0;
#X connect 9 0 6 0;
#X connect 10 0 9 0;
#X connect 10 1 8 0;
#X connect 10 2 6 2;
#X connect 11 0 2 0;
#X connect 12 0 6 0;
#X connect 12 1 6 1;
