#N canvas 0 0 1263 724 12;
#X obj 450 692 vd~ A;
#X floatatom 587 540 5 0 0 0 - - -;
#X obj 386 692 *~ 0.25;
#X obj 333 633 *~ 0.25;
#X obj 450 715 vd~ A;
#X obj 450 738 vd~ A;
#X obj 450 761 vd~ A;
#X obj 450 784 vd~ A;
#X obj 587 569 * 2;
#X obj 617 569 * 3;
#X obj 648 569 * 4;
#X obj 676 569 * 5;
#X obj 87 28 inlet~;
#X obj 450 807 vd~ A;
#X obj 450 830 vd~ A;
#X floatatom -226 529 5 0 0 0 - - -;
#X obj 187 693 *~ 0.25;
#X obj 89 627 *~ 0.25;
#X obj -226 566 * 2;
#X obj -195 566 * 3;
#X obj -164 566 * 4;
#X obj -136 566 * 5;
#X floatatom 115 158 5 0 100000 0 - - -;
#X text 115 137 time;
#X obj -106 566 * 6;
#X obj -76 566 * 7;
#X obj 705 569 * 6;
#X obj 735 569 * 7;
#X obj 247 693 vd~ B;
#X obj 247 716 vd~ B;
#X obj 247 739 vd~ B;
#X obj 247 762 vd~ B;
#X obj 247 785 vd~ B;
#X obj 247 808 vd~ B;
#X obj 247 831 vd~ B;
#X obj 587 615 pack \$1 100;
#X obj 587 661 pack \$1 100;
#X obj 587 707 pack \$1 100;
#X obj 587 753 pack \$1 100;
#X obj 587 638 line~ \$1 10;
#X obj 587 684 line~ \$1 10;
#X obj 587 730 line~ \$1 10;
#X obj 587 776 line~ \$1 10;
#X obj -226 604 pack \$1 100;
#X obj -226 650 pack \$1 100;
#X obj -226 696 pack \$1 100;
#X obj -226 742 pack \$1 100;
#X obj -226 627 line~ \$1 10;
#X obj -226 673 line~ \$1 10;
#X obj -226 719 line~ \$1 10;
#X obj -226 765 line~ \$1 10;
#X obj 386 715 *~ 0.25;
#X obj 386 738 *~ 0.25;
#X obj 386 761 *~ 0.25;
#X obj 386 784 *~ 0.25;
#X obj 386 807 *~ 0.25;
#X obj 386 830 *~ 0.25;
#X obj 187 716 *~ 0.25;
#X obj 187 739 *~ 0.25;
#X obj 187 762 *~ 0.25;
#X obj 187 785 *~ 0.25;
#X obj 187 808 *~ 0.25;
#X obj 187 831 *~ 0.25;
#X obj 587 799 pack \$1 100;
#X obj 587 845 pack \$1 100;
#X obj 587 891 pack \$1 100;
#X obj 587 822 line~ \$1 10;
#X obj 587 868 line~ \$1 10;
#X obj 587 914 line~ \$1 10;
#X obj -226 788 pack \$1 100;
#X obj -226 834 pack \$1 100;
#X obj -226 811 line~ \$1 10;
#X obj -226 857 line~ \$1 10;
#X obj -226 880 pack \$1 100;
#X obj -226 903 line~ \$1 10;
#X floatatom 215 158 5 0 10 0 - - -;
#X text 170 137 strength 1 -10;
#X obj 360 606 s strength;
#X obj 437 636 r strength;
#X obj 239 633 r strength;
#X obj 587 937 pack \$1 100;
#X obj 587 960 line~ \$1 10;
#X obj 450 853 vd~ A;
#X obj 450 876 vd~ A;
#X obj 386 853 *~ 0.25;
#X obj 386 876 *~ 0.25;
#X obj 764 569 * 8;
#X obj 793 569 * 9;
#X obj 823 569 * 10;
#X obj 587 983 pack \$1 100;
#X obj 587 1006 line~ \$1 10;
#X obj -47 566 * 8;
#X obj -17 566 * 9;
#X obj 12 566 * 10;
#X obj -226 926 pack \$1 100;
#X obj -226 949 line~ \$1 10;
#X obj -226 972 pack \$1 100;
#X obj -226 995 line~ \$1 10;
#X obj 247 854 vd~ B;
#X obj 247 877 vd~ B;
#X obj 187 854 *~ 0.25;
#X obj 187 877 *~ 0.25;
#X obj 188 669 *~ 0.25;
#X obj 248 669 vd~ B;
#X obj 450 669 vd~ A;
#X obj 386 669 *~ 0.25;
#X obj 215 587 / 14;
#X obj 348 74 delwrite~ A 20000;
#X obj -58 69 delwrite~ B 20000;
#X msg 260 62 set 3;
#X obj 260 31 loadbang;
#X obj 145 32 loadbang;
#X msg 145 63 set 300;
#X obj 326 30 inlet;
#X obj 413 106 inlet;
#X text 246 101 time in;
#X text 308 100 strength in;
#X msg -226 464 \$1 \$2;
#X obj -226 486 line \$1 \$2 1;
#X obj -226 441 pack \$1 1;
#X text 116 115 audio in;
#X obj 89 1055 outlet~;
#X obj 90 1024 *~ 1;
#X obj 333 1023 *~ 1;
#X floatatom 116 201 5 0 100000 0 - - -;
#X text 116 180 next time;
#X obj 216 190 bng 30 250 50 0 empty empty empty 17 7 0 10 -258113
-1 -1;
#X msg 585 468 \$1 \$2;
#X obj 585 490 line \$1 \$2 1;
#X obj 585 445 pack \$1 1;
#X obj -146 75 f;
#X obj -51 183 f;
#X obj -51 156 bng 15 250 50 0 empty empty empty 17 7 0 10 -262144
-1 -1;
#X floatatom -14 335 1 0 0 0 - - -;
#X obj 4 282 bng 15 250 50 0 empty empty empty 17 7 0 10 -262144 -1
-1;
#X obj 4 312 tgl 15 0 empty empty empty 17 7 0 10 -262144 -1 -1 1 1
;
#X obj 22 331 expr 1-$f1;
#X obj -62 276 loadbang;
#X msg -62 306 1;
#X obj -74 401 spigot;
#X obj -17 400 spigot;
#X obj 207 57 pipe 10;
#X msg 208 33 30;
#X connect 0 0 2 0;
#X connect 1 0 8 0;
#X connect 1 0 9 0;
#X connect 1 0 10 0;
#X connect 1 0 11 0;
#X connect 1 0 26 0;
#X connect 1 0 27 0;
#X connect 1 0 86 0;
#X connect 1 0 87 0;
#X connect 1 0 88 0;
#X connect 1 0 104 0;
#X connect 2 0 123 0;
#X connect 3 0 123 0;
#X connect 4 0 51 0;
#X connect 5 0 52 0;
#X connect 6 0 53 0;
#X connect 7 0 54 0;
#X connect 8 0 35 0;
#X connect 9 0 36 0;
#X connect 10 0 37 0;
#X connect 11 0 38 0;
#X connect 12 0 17 0;
#X connect 12 0 108 0;
#X connect 12 0 107 0;
#X connect 12 0 3 0;
#X connect 13 0 55 0;
#X connect 14 0 56 0;
#X connect 15 0 18 0;
#X connect 15 0 19 0;
#X connect 15 0 20 0;
#X connect 15 0 21 0;
#X connect 15 0 24 0;
#X connect 15 0 25 0;
#X connect 15 0 91 0;
#X connect 15 0 92 0;
#X connect 15 0 93 0;
#X connect 15 0 103 0;
#X connect 16 0 122 0;
#X connect 17 0 122 0;
#X connect 18 0 43 0;
#X connect 19 0 44 0;
#X connect 20 0 45 0;
#X connect 21 0 46 0;
#X connect 24 0 69 0;
#X connect 25 0 70 0;
#X connect 26 0 63 0;
#X connect 27 0 64 0;
#X connect 28 0 16 0;
#X connect 29 0 57 0;
#X connect 30 0 58 0;
#X connect 31 0 59 0;
#X connect 32 0 60 0;
#X connect 33 0 61 0;
#X connect 34 0 62 0;
#X connect 35 0 39 0;
#X connect 36 0 40 0;
#X connect 37 0 41 0;
#X connect 38 0 42 0;
#X connect 39 0 0 0;
#X connect 40 0 4 0;
#X connect 41 0 5 0;
#X connect 42 0 6 0;
#X connect 43 0 47 0;
#X connect 44 0 48 0;
#X connect 45 0 49 0;
#X connect 46 0 50 0;
#X connect 47 0 28 0;
#X connect 48 0 29 0;
#X connect 49 0 30 0;
#X connect 50 0 31 0;
#X connect 51 0 123 0;
#X connect 52 0 123 0;
#X connect 53 0 123 0;
#X connect 54 0 123 0;
#X connect 55 0 123 0;
#X connect 56 0 123 0;
#X connect 57 0 122 0;
#X connect 58 0 122 0;
#X connect 59 0 122 0;
#X connect 60 0 122 0;
#X connect 61 0 122 0;
#X connect 62 0 122 0;
#X connect 63 0 66 0;
#X connect 64 0 67 0;
#X connect 65 0 68 0;
#X connect 66 0 7 0;
#X connect 67 0 13 0;
#X connect 68 0 14 0;
#X connect 69 0 71 0;
#X connect 70 0 72 0;
#X connect 71 0 32 0;
#X connect 72 0 33 0;
#X connect 73 0 74 0;
#X connect 74 0 34 0;
#X connect 75 0 106 0;
#X connect 78 0 2 1;
#X connect 78 0 51 1;
#X connect 78 0 52 1;
#X connect 78 0 53 1;
#X connect 78 0 54 1;
#X connect 78 0 55 1;
#X connect 78 0 56 1;
#X connect 78 0 84 1;
#X connect 78 0 85 1;
#X connect 78 0 105 1;
#X connect 79 0 16 1;
#X connect 79 0 57 1;
#X connect 79 0 58 1;
#X connect 79 0 59 1;
#X connect 79 0 60 1;
#X connect 79 0 61 1;
#X connect 79 0 62 1;
#X connect 79 0 100 1;
#X connect 79 0 101 1;
#X connect 79 0 102 1;
#X connect 80 0 81 0;
#X connect 81 0 82 0;
#X connect 82 0 84 0;
#X connect 83 0 85 0;
#X connect 84 0 123 0;
#X connect 85 0 123 0;
#X connect 86 0 65 0;
#X connect 87 0 80 0;
#X connect 88 0 89 0;
#X connect 89 0 90 0;
#X connect 90 0 83 0;
#X connect 91 0 73 0;
#X connect 92 0 94 0;
#X connect 93 0 96 0;
#X connect 94 0 95 0;
#X connect 95 0 98 0;
#X connect 96 0 97 0;
#X connect 97 0 99 0;
#X connect 98 0 100 0;
#X connect 99 0 101 0;
#X connect 100 0 122 0;
#X connect 101 0 122 0;
#X connect 102 0 122 0;
#X connect 103 0 102 0;
#X connect 104 0 105 0;
#X connect 105 0 123 0;
#X connect 106 0 77 0;
#X connect 109 0 75 0;
#X connect 110 0 109 0;
#X connect 111 0 112 0;
#X connect 111 0 142 0;
#X connect 112 0 22 0;
#X connect 113 0 130 0;
#X connect 113 0 126 0;
#X connect 114 0 75 0;
#X connect 117 0 118 0;
#X connect 118 0 15 0;
#X connect 119 0 117 0;
#X connect 122 0 121 0;
#X connect 123 0 121 0;
#X connect 124 0 131 1;
#X connect 124 0 139 0;
#X connect 124 0 140 0;
#X connect 127 0 128 0;
#X connect 128 0 1 0;
#X connect 129 0 127 0;
#X connect 130 0 132 0;
#X connect 130 0 124 0;
#X connect 131 0 22 0;
#X connect 132 0 131 0;
#X connect 132 0 134 0;
#X connect 133 0 136 0;
#X connect 133 0 139 1;
#X connect 133 0 123 1;
#X connect 134 0 135 0;
#X connect 135 0 133 0;
#X connect 136 0 140 1;
#X connect 136 0 122 1;
#X connect 137 0 138 0;
#X connect 138 0 133 0;
#X connect 139 0 15 0;
#X connect 140 0 1 0;
#X connect 141 0 124 0;
#X connect 142 0 141 0;
#X coords 0 -1 1 1 300 130 1 100 100;
