#N canvas 393 501 450 300 10;
#N canvas 301 6 958 610 reverb 0;
#X obj 136 27 inlet~;
#X obj 277 215 +~;
#X obj 319 215 +~;
#X obj 67 276 outlet~;
#X obj 137 276 outlet~;
#X obj 238 334 +~;
#X obj 347 335 +~;
#X obj 280 334 -~;
#X obj 387 334 -~;
#X obj 237 390 +~;
#X obj 281 391 +~;
#X obj 325 392 -~;
#X obj 364 392 -~;
#X obj 324 474 *~ 0;
#X obj 282 473 *~ 0;
#X obj 237 472 *~ 0;
#X obj 365 475 *~ 0;
#X obj 632 365 inlet;
#X obj 632 437 / 200;
#X obj 632 389 min 100;
#X obj 632 412 max 0;
#X text 300 115 Get the outputs of the recirculating delays. Add the
inputs to two of them.;
#X text 420 313 Do a power-conserving mix of them in pairs. First combine
(1 \, 2) and (3 \, 4)...;
#X text 402 385 ...then (1 \, 3) and (2 \, 4);
#X text 446 469 The two mixing stages have a combined gain of 2 \,
so the recirculation gain is limited to 0.5.;
#X text 586 542 Put the signals back into the;
#X text 584 557 recirculating delays.;
#X text 29 296 Tap outputs from here.;
#X text 708 381 0 to 100 to control reverb;
#X text 719 396 time.;
#X text 691 364 feedback gain on a scale of;
#N canvas 732 581 410 300 early 0;
#X obj 21 22 inlet~;
#X obj 22 255 outlet~;
#N canvas 719 572 450 300 first 0;
#X obj 47 55 inlet~;
#X obj 111 56 inlet~;
#X obj 49 176 outlet~;
#X obj 122 175 outlet~;
#X obj 48 103 +~;
#X obj 121 101 -~;
#X obj 122 124 delwrite~ echo-del1-\$0 5.43216;
#X obj 121 151 delread~ echo-del1-\$0 5.43216;
#X connect 0 0 4 0;
#X connect 0 0 5 0;
#X connect 1 0 4 1;
#X connect 1 0 5 1;
#X connect 4 0 2 0;
#X connect 5 0 6 0;
#X connect 7 0 3 0;
#X restore 19 53 pd first;
#X obj 82 255 outlet~;
#N canvas 667 283 450 300 second 0;
#X obj 47 55 inlet~;
#X obj 111 56 inlet~;
#X obj 49 176 outlet~;
#X obj 122 175 outlet~;
#X obj 48 103 +~;
#X obj 121 101 -~;
#X obj 122 124 delwrite~ echo-del2-\$0 8.45346;
#X obj 121 151 delread~ echo-del2-\$0 8.45346;
#X connect 0 0 4 0;
#X connect 0 0 5 0;
#X connect 1 0 4 1;
#X connect 1 0 5 1;
#X connect 4 0 2 0;
#X connect 5 0 6 0;
#X connect 7 0 3 0;
#X restore 21 86 pd second;
#N canvas 697 265 450 300 third 0;
#X obj 47 55 inlet~;
#X obj 111 56 inlet~;
#X obj 49 176 outlet~;
#X obj 122 175 outlet~;
#X obj 48 103 +~;
#X obj 121 101 -~;
#X obj 122 124 delwrite~ echo-del3-\$0 13.4367;
#X obj 119 151 delread~ echo-del3-\$0 13.4367;
#X connect 0 0 4 0;
#X connect 0 0 5 0;
#X connect 1 0 4 1;
#X connect 1 0 5 1;
#X connect 4 0 2 0;
#X connect 5 0 6 0;
#X connect 7 0 3 0;
#X restore 23 119 pd third;
#N canvas 718 368 450 300 fourth 0;
#X obj 47 55 inlet~;
#X obj 111 56 inlet~;
#X obj 49 176 outlet~;
#X obj 122 175 outlet~;
#X obj 48 103 +~;
#X obj 121 101 -~;
#X obj 123 126 delwrite~ echo-del4-\$0 21.5463;
#X obj 123 150 delread~ echo-del4-\$0 21.5463;
#X connect 0 0 4 0;
#X connect 0 0 5 0;
#X connect 1 0 4 1;
#X connect 1 0 5 1;
#X connect 4 0 2 0;
#X connect 5 0 6 0;
#X connect 7 0 3 0;
#X restore 20 156 pd fourth;
#N canvas 715 189 450 300 fifth 0;
#X obj 47 55 inlet~;
#X obj 111 56 inlet~;
#X obj 49 176 outlet~;
#X obj 122 175 outlet~;
#X obj 48 103 +~;
#X obj 121 101 -~;
#X obj 122 124 delwrite~ echo-del5-\$0 34.3876;
#X obj 121 151 delread~ echo-del5-\$0 34.3876;
#X connect 0 0 4 0;
#X connect 0 0 5 0;
#X connect 1 0 4 1;
#X connect 1 0 5 1;
#X connect 4 0 2 0;
#X connect 5 0 6 0;
#X connect 7 0 3 0;
#X restore 23 194 pd fifth;
#N canvas 738 221 450 300 sixth 0;
#X obj 47 55 inlet~;
#X obj 111 56 inlet~;
#X obj 49 176 outlet~;
#X obj 122 175 outlet~;
#X obj 48 103 +~;
#X obj 121 101 -~;
#X obj 123 124 delwrite~ echo-del6-\$0 55.5437;
#X obj 121 151 delread~ echo-del6-\$0 55.5437;
#X connect 0 0 4 0;
#X connect 0 0 5 0;
#X connect 1 0 4 1;
#X connect 1 0 5 1;
#X connect 4 0 2 0;
#X connect 5 0 6 0;
#X connect 7 0 3 0;
#X restore 23 223 pd sixth;
#X text 131 58 These were hacked into place to prevent creating a dependency
on a separate abstraction.;
#X text 131 129 This is perhaps a good case for internal abstractions.
;
#X connect 0 0 2 0;
#X connect 2 0 4 0;
#X connect 2 1 4 1;
#X connect 4 0 5 0;
#X connect 4 1 5 1;
#X connect 5 0 6 0;
#X connect 5 1 6 1;
#X connect 6 0 7 0;
#X connect 6 1 7 1;
#X connect 7 0 8 0;
#X connect 7 1 8 1;
#X connect 8 0 1 0;
#X connect 8 1 3 0;
#X restore 136 94 pd early echo;
#X text 154 50 "early echo" generators \, which also increase echo
density. Open to see what they do.;
#X obj 298 154 delread~ loop-del1-\$0 60;
#X obj 340 179 delread~ loop-del2-\$0 71.9345;
#X obj 386 208 delread~ loop-del3-\$0 86.7545;
#X obj 408 233 delread~ loop-del4-\$0 95.945;
#X obj 364 515 delwrite~ loop-del4-\$0 95.945;
#X obj 325 538 delwrite~ loop-del3-\$0 86.7545;
#X obj 283 561 delwrite~ loop-del2-\$0 71.9345;
#X obj 238 584 delwrite~ loop-del1-\$0 60;
#X connect 0 0 31 0;
#X connect 1 0 3 0;
#X connect 1 0 5 0;
#X connect 1 0 7 0;
#X connect 2 0 4 0;
#X connect 2 0 5 1;
#X connect 2 0 7 1;
#X connect 5 0 9 0;
#X connect 5 0 11 0;
#X connect 6 0 11 1;
#X connect 6 0 9 1;
#X connect 7 0 10 0;
#X connect 7 0 12 0;
#X connect 8 0 10 1;
#X connect 8 0 12 1;
#X connect 9 0 15 0;
#X connect 10 0 14 0;
#X connect 11 0 13 0;
#X connect 12 0 16 0;
#X connect 13 0 38 0;
#X connect 14 0 39 0;
#X connect 15 0 40 0;
#X connect 16 0 37 0;
#X connect 17 0 19 0;
#X connect 18 0 16 1;
#X connect 18 0 15 1;
#X connect 18 0 14 1;
#X connect 18 0 13 1;
#X connect 19 0 20 0;
#X connect 20 0 18 0;
#X connect 31 0 1 0;
#X connect 31 1 2 0;
#X connect 33 0 1 1;
#X connect 34 0 2 1;
#X connect 35 0 6 0;
#X connect 35 0 8 0;
#X connect 36 0 6 1;
#X connect 36 0 8 1;
#X restore 36 159 pd reverb;
#X obj 36 252 outlet~;
#X obj 129 255 outlet~;
#X obj 35 25 inlet~;
#X text 51 50 This is a generalized reverb ripped off directly from
G08.reverb.pd from the original Miller pd;
#X obj 102 90 inlet;
#X obj 160 116 \$1;
#X obj 160 92 loadbang;
#X connect 0 0 1 0;
#X connect 0 1 2 0;
#X connect 3 0 0 0;
#X connect 5 0 0 1;
#X connect 6 0 0 1;
#X connect 7 0 6 0;
