#N canvas 739 430 462 562 10;
#X obj -48 342 tabread4~ sample;
#X obj 49 470 outlet~;
#X obj 48 381 *~;
#X obj 116 345 tabread4~ window;
#X obj -46 71 phasor~;
#X obj -48 311 +~;
#N canvas 44 550 457 385 calc_freq 0;
#X text 240 32 in ms;
#X obj 177 312 outlet;
#X obj 177 256 *;
#X obj 211 203 t b f;
#X obj 136 57 / 1000;
#X text 185 58 to sec.;
#X obj 136 86 t b f;
#X obj 142 138 /;
#X floatatom 154 162 5 0 0 0 - - -;
#X floatatom 206 95 5 0 0 0 - - -;
#X msg 127 110 1;
#X text 195 162 Hz;
#X obj 142 190 t b f;
#X obj 177 231 f;
#X text 208 258 scale factor;
#X floatatom 187 281 5 0 0 0 - - -;
#X text 227 281 result Hz;
#X obj 211 182 r \$0-speed;
#X obj 136 29 r \$0-grainsize;
#X connect 2 0 15 0;
#X connect 2 0 1 0;
#X connect 3 0 13 0;
#X connect 3 1 2 1;
#X connect 4 0 6 0;
#X connect 4 0 9 0;
#X connect 6 0 10 0;
#X connect 6 1 7 1;
#X connect 7 0 8 0;
#X connect 7 0 12 0;
#X connect 10 0 7 0;
#X connect 12 0 13 0;
#X connect 12 1 13 1;
#X connect 13 0 2 0;
#X connect 17 0 3 0;
#X connect 18 0 4 0;
#X restore -46 20 pd calc_freq;
#X floatatom -33 44 5 0 0 0 - - -;
#X obj -47 209 *~;
#N canvas 144 574 311 310 calc_range 0;
#X obj 114 110 samplerate~;
#X floatatom 127 134 5 0 0 0 - - -;
#X obj 114 155 / 1000;
#X text 164 155 s/ms;
#X obj 74 180 *;
#X floatatom 86 61 5 0 0 0 - - -;
#X text 177 34 in ms;
#X obj 74 85 t f b;
#X floatatom 92 205 5 0 0 0 - - -;
#X obj 74 227 outlet;
#X text 131 204 samples;
#X obj 74 29 r \$0-grainsize;
#X connect 0 0 1 0;
#X connect 0 0 2 0;
#X connect 2 0 4 1;
#X connect 4 0 8 0;
#X connect 4 0 9 0;
#X connect 7 0 4 0;
#X connect 7 1 0 0;
#X connect 11 0 5 0;
#X connect 11 0 7 0;
#X restore -11 172 pd calc_range;
#X floatatom -6 194 5 0 0 0 - - -;
#X text 32 193 samples;
#X text 7 43 Hz;
#X obj 115 222 *~ 1024;
#X text 128 324 window;
#X obj -46 119 *~;
#X obj -28 95 r loop;
#X obj -13 387 r once;
#N canvas 794 363 450 463 once 0;
#X obj 139 378 outlet~;
#X obj 65 21 inlet;
#X obj 80 314 tabread4~ sample;
#X obj 80 287 vline~;
#X msg 80 262 \$1 \$2;
#X obj 82 235 pack f f;
#X obj 124 40 r pos;
#X obj 106 73 f;
#X obj 234 227 f;
#X obj 81 95 r endpos;
#X obj 68 124 f;
#X obj 66 47 t b b;
#X obj 209 315 tabread4~ window;
#X obj 208 289 vline~;
#X msg 210 262 0 \, 1024 \$1;
#X obj 139 356 *~;
#X obj 252 194 r \$0-grainsize;
#X obj 128 205 r \$0-grainsize;
#X connect 1 0 11 0;
#X connect 2 0 15 0;
#X connect 3 0 2 0;
#X connect 4 0 3 0;
#X connect 5 0 4 0;
#X connect 6 0 7 1;
#X connect 7 0 3 0;
#X connect 8 0 14 0;
#X connect 9 0 10 1;
#X connect 10 0 5 0;
#X connect 11 0 10 0;
#X connect 11 0 8 0;
#X connect 11 1 7 0;
#X connect 12 0 15 1;
#X connect 13 0 12 0;
#X connect 14 0 13 0;
#X connect 15 0 0 0;
#X connect 16 0 8 1;
#X connect 17 0 5 1;
#X restore -13 411 pd once;
#X obj 191 21 cnv 15 83 165 empty empty empty 20 12 0 14 -212073 -66577
0;
#X text 202 23 speed;
#X obj 204 39 nbx 5 14 0.2 3 0 0 \$0-speed \$0-speed empty 0 -8 0 10
-262130 -1 -1 1 256;
#X obj 207 56 hsl 50 10 0.2 3 0 0 \$0-speed \$0-speed empty -2 -8 0
10 -212657 -1 -1 1400 1;
#N canvas 8 53 450 300 load 0;
#X obj 80 28 loadbang;
#X obj 48 93 s \$0-speed;
#X msg 54 68 1;
#X msg 140 67 50;
#X obj 134 92 s \$0-grainsize;
#X obj 263 96 s \$0-enable;
#X msg 266 66 1;
#X msg 59 135 0;
#X obj 52 160 s \$0-offset;
#X connect 0 0 2 0;
#X connect 0 0 3 0;
#X connect 0 0 6 0;
#X connect 0 0 7 0;
#X connect 2 0 1 0;
#X connect 3 0 4 0;
#X connect 6 0 5 0;
#X connect 7 0 8 0;
#X restore 306 23 pd load;
#X obj 203 83 nbx 5 14 1 500 0 0 \$0-grainsize \$0-grainsize empty
0 -8 0 10 -262130 -1 -1 50 256;
#X text 201 68 size (ms);
#X obj 201 166 tgl 15 0 \$0-enable \$0-enable empty 17 7 0 10 -262130
-1 -1 1 1;
#X text 218 166 enable;
#X obj 48 444 *~;
#X obj 68 420 r \$0-enable;
#X obj 205 100 hsl 50 10 1 500 0 0 \$0-grainsize \$0-grainsize empty
-2 -8 0 10 -212658 -1 -1 481 1;
#X obj 202 128 nbx 5 14 -10000 10000 0 0 \$0-offset \$0-offset empty
0 -8 0 10 -262130 -1 -1 0 256;
#X obj 204 145 hsl 50 10 -10000 10000 0 0 \$0-offset \$0-offset empty
-2 -8 0 10 -204786 -1 -1 2450 1;
#N canvas 7 53 450 300 pos 0;
#X obj 99 26 r pos;
#X obj 194 28 r \$0-offset;
#X obj 194 101 f;
#X obj 105 139 +;
#X obj 104 198 outlet;
#X obj 103 92 f;
#X obj 101 54 t b f b;
#X obj 191 59 t b f f;
#X connect 0 0 6 0;
#X connect 1 0 7 0;
#X connect 2 0 3 1;
#X connect 3 0 4 0;
#X connect 5 0 3 0;
#X connect 6 0 5 0;
#X connect 6 1 5 1;
#X connect 6 2 2 0;
#X connect 7 0 5 0;
#X connect 7 1 2 1;
#X connect 7 2 3 1;
#X restore 41 256 pd pos;
#X text 200 113 offset;
#X obj 61 22 inlet;
#N canvas 6 53 450 300 params 0;
#X obj 79 30 inlet;
#X floatatom 86 94 5 0 0 0 - - -;
#X floatatom 170 95 5 0 0 0 - - -;
#X floatatom 274 100 5 0 0 0 - - -;
#X obj 60 139 s \$0-speed;
#X obj 144 141 s \$0-grainsize;
#X obj 256 145 s \$0-offset;
#X obj 76 70 route speed grainsize offset;
#X connect 0 0 7 0;
#X connect 7 0 1 0;
#X connect 7 0 4 0;
#X connect 7 1 2 0;
#X connect 7 1 5 0;
#X connect 7 2 3 0;
#X connect 7 2 6 0;
#X restore 61 53 pd params;
#N canvas 908 53 368 269 scrub_comp 0;
#X obj 154 17 inlet;
#X obj 77 19 inlet~;
#X obj 85 144 outlet~;
#X obj 85 112 samphold~;
#X obj 153 53 sig~;
#X text 27 180 ensures that position;
#X text 29 196 updates happen in phase \, even when;
#X text 35 211 scrubbing;
#X connect 0 0 4 0;
#X connect 1 0 3 1;
#X connect 3 0 2 0;
#X connect 4 0 3 0;
#X restore -31 287 pd scrub_comp;
#X connect 0 0 2 0;
#X connect 2 0 28 0;
#X connect 3 0 2 1;
#X connect 4 0 15 0;
#X connect 5 0 0 0;
#X connect 6 0 7 0;
#X connect 6 0 4 0;
#X connect 8 0 5 0;
#X connect 9 0 10 0;
#X connect 9 0 8 1;
#X connect 13 0 3 0;
#X connect 15 0 13 0;
#X connect 15 0 37 0;
#X connect 15 0 8 0;
#X connect 16 0 15 1;
#X connect 17 0 18 0;
#X connect 18 0 28 0;
#X connect 28 0 1 0;
#X connect 29 0 28 1;
#X connect 33 0 37 1;
#X connect 35 0 36 0;
#X connect 37 0 5 1;
#X coords 0 -1 1 1 85 168 1 190 20;
