#N canvas 447 592 398 259 10;
#X msg 35 139 speed \$1;
#X obj 36 116 + 0.2;
#X obj 35 72 random 1600;
#X obj 36 93 / 1000;
#X msg 126 139 grainsize \$1;
#X obj 127 116 + 3;
#X msg 232 140 offset \$1;
#X obj 232 73 random 5000;
#X obj 233 94 - 2500;
#X obj 35 23 inlet;
#X obj 36 203 outlet;
#X obj 127 72 random 66;
#X connect 0 0 10 0;
#X connect 1 0 0 0;
#X connect 2 0 3 0;
#X connect 3 0 1 0;
#X connect 4 0 10 0;
#X connect 5 0 4 0;
#X connect 6 0 10 0;
#X connect 7 0 8 0;
#X connect 8 0 6 0;
#X connect 9 0 2 0;
#X connect 9 0 7 0;
#X connect 9 0 11 0;
#X connect 11 0 5 0;
