#N canvas 1035 356 1274 1428 12;
#X obj 170 636 outlet~;
#X obj 170 595 *~;
#X obj 169 282 phasor~;
#X obj 505 89 samplerate~;
#X floatatom 511 114 5 0 0 0 - - -;
#X obj 452 33 bng 15 250 50 0 empty empty empty 17 7 0 10 -262144 -1
-1;
#X obj 452 5 loadbang;
#X floatatom 165 95 5 0 0 0 - - -;
#X text 169 37 duration ms;
#X floatatom 40 109 12 0 0 0 - - -;
#X text 46 38 pos ms;
#X floatatom 189 229 5 0 0 0 - - -;
#X text 177 248 freq;
#X obj 512 137 / 1000;
#X floatatom 511 162 5 0 0 0 - - -;
#X floatatom 277 232 5 0 0 0 - - -;
#X obj 40 152 *;
#X obj 170 451 +~;
#X obj 169 201 /;
#X obj 169 384 *~;
#X msg 159 170 1;
#X obj 165 117 / 1000;
#X obj 166 143 t b f f;
#X floatatom 260 286 5 0 0 0 - - -;
#X obj 259 256 **;
#X obj 40 18 inlet;
#X obj 165 18 inlet;
#X obj 292 19 inlet;
#X obj 235 207 **;
#X msg 290 203 1;
#X msg 49 73 1;
#X obj 452 52 t b b b b;
#X msg 200 63 250;
#X obj 273 468 +~ 0.5;
#X obj 272 445 *~ -0.5;
#X text 321 418 window;
#X obj 273 531 clip~ 0 1;
#X obj 273 501 *~ 1;
#X obj 368 461 moses 1;
#X msg 370 494 1;
#X obj 27 223 vline~;
#X text -3 -5 TODO: consider making a signal;
#X obj 292 78 route speed wamp phase;
#X obj 401 168 route sample;
#X obj 414 250 print table set to;
#X obj 415 195 symbol;
#X msg 403 223 set \$1;
#X floatatom 392 106 5 0 0 0 - - -;
#X obj 170 478 tabread4~;
#X obj 272 421 osc~ 1;
#X msg 29 194 \$1 125;
#X obj 425 399 vline~;
#X obj 424 373 pack f f;
#X obj 468 296 t b f;
#X obj 486 347 /;
#X floatatom 495 371 5 0 0 0 - - -;
#X msg 467 321 1000;
#X text 480 400 ramp up to target speed;
#X connect 1 0 0 0;
#X connect 2 0 19 0;
#X connect 3 0 4 0;
#X connect 4 0 13 0;
#X connect 4 0 28 1;
#X connect 5 0 31 0;
#X connect 6 0 5 0;
#X connect 7 0 21 0;
#X connect 9 0 16 0;
#X connect 13 0 14 0;
#X connect 13 0 16 1;
#X connect 15 0 24 1;
#X connect 16 0 50 0;
#X connect 17 0 48 0;
#X connect 18 0 11 0;
#X connect 18 0 2 0;
#X connect 18 0 49 0;
#X connect 18 0 53 0;
#X connect 19 0 17 0;
#X connect 20 0 18 0;
#X connect 21 0 22 0;
#X connect 22 0 20 0;
#X connect 22 1 18 1;
#X connect 22 2 28 0;
#X connect 23 0 52 0;
#X connect 24 0 23 0;
#X connect 25 0 9 0;
#X connect 26 0 7 0;
#X connect 27 0 42 0;
#X connect 28 0 24 0;
#X connect 29 0 15 0;
#X connect 30 0 9 0;
#X connect 31 0 30 0;
#X connect 31 1 32 0;
#X connect 31 2 29 0;
#X connect 31 3 3 0;
#X connect 32 0 7 0;
#X connect 33 0 37 0;
#X connect 34 0 33 0;
#X connect 36 0 1 1;
#X connect 37 0 36 0;
#X connect 38 0 39 0;
#X connect 38 1 37 1;
#X connect 39 0 37 1;
#X connect 40 0 17 1;
#X connect 42 0 15 0;
#X connect 42 1 38 0;
#X connect 42 2 2 1;
#X connect 42 2 47 0;
#X connect 42 2 49 1;
#X connect 42 3 43 0;
#X connect 43 0 44 0;
#X connect 43 0 45 0;
#X connect 45 0 46 0;
#X connect 46 0 48 0;
#X connect 48 0 1 0;
#X connect 49 0 34 0;
#X connect 50 0 40 0;
#X connect 51 0 19 1;
#X connect 52 0 51 0;
#X connect 53 0 56 0;
#X connect 53 1 54 1;
#X connect 54 0 52 1;
#X connect 54 0 55 0;
#X connect 56 0 54 0;
