#N canvas 2403 274 1102 1264 12;
#X obj 72 573 outlet~;
#X obj 75 440 *~;
#X obj 168 186 tgl 10 0 empty empty empty 17 7 0 10 -262144 -1 -1 1
1;
#X floatatom 174 263 5 0 0 0 - - -;
#X text 186 243 speed;
#X floatatom 177 314 5 0 0 0 - - -;
#X msg 176 285 speed \$1;
#X msg 176 338 wamp \$1;
#X obj 74 541 *~ 1;
#X obj 75 106 hsl 100 10 0 1 0 0 \$0_ngs_pos_s \$0_ngs_pos_r empty
-2 -8 0 10 -109312 -261682 -1 3960 1;
#X obj 187 28 inlet;
#X obj 265 26 inlet;
#X obj 271 66 route duration;
#X obj 35 105 nbx 5 12 -1e+37 1e+37 0 0 empty empty empty 0 -8 0 6
-262144 -1 -1 0.2 256;
#X text 279 46 total sample duration;
#X obj 75 119 hsl 100 10 0 3000 0 0 \$0_ngs_len_s \$0_ngs_len_r empty
-2 -8 0 10 -88183 -261682 -1 10534 1;
#X obj 35 118 nbx 5 12 -1e+37 1e+37 0 0 empty empty empty 0 -8 0 6
-262144 -1 -1 1596 256;
#X obj 189 98 change;
#X obj 189 75 change;
#X obj 75 132 hsl 100 10 -5 5 0 0 \$0_ngs_spd_s \$0_ngs_spd_r empty
-2 -8 0 10 -109312 -261682 -1 11880 1;
#X obj 35 131 nbx 5 12 -1e+37 1e+37 0 0 empty empty empty 0 -8 0 6
-262144 -1 -1 1 256;
#X obj 189 120 change;
#X text 10 101 pos;
#X text 10 115 len;
#X text 10 128 spd;
#N canvas 1482 521 846 552 init 0;
#X obj 20 200 outlet;
#X obj 77 200 outlet;
#X obj 129 200 outlet;
#X obj 186 201 outlet;
#X obj 66 20 loadbang;
#X msg 23 118 1;
#X msg 185 133 1;
#X obj 239 197 outlet;
#X msg 238 129 1;
#X obj 68 58 t b b b b b b;
#X obj 351 198 outlet;
#X msg 350 130 50;
#X msg 80 122 750;
#X msg 136 133 0.75;
#X obj 295 195 outlet;
#X connect 4 0 9 0;
#X connect 5 0 0 0;
#X connect 6 0 3 0;
#X connect 8 0 7 0;
#X connect 9 0 5 0;
#X connect 9 1 12 0;
#X connect 9 2 13 0;
#X connect 9 3 6 0;
#X connect 9 4 8 0;
#X connect 9 5 11 0;
#X connect 11 0 10 0;
#X connect 12 0 1 0;
#X connect 13 0 2 0;
#X restore 90 24 pd init;
#X obj 75 145 hsl 100 10 0 10 0 0 \$0_ngs_win_s \$0_ngs_win_r empty
-2 -8 0 10 -88183 -261682 -1 1880 1;
#X obj 35 144 nbx 5 12 0 10 0 0 empty empty empty 0 -8 0 6 -262144
-1 -1 0.95 256;
#X text 10 141 win;
#X obj 189 142 change;
#X obj 77 187 hsl 87 10 0 2 0 0 \$0_ngs_vol_s \$0_ngs_vol_r empty -2
-8 0 10 -109312 -261682 -1 9344 1;
#X text 10 180 vol;
#X obj 190 208 change;
#X obj 267 493 outlet;
#X obj 257 437 f;
#X obj 266 464 pack f f f f f;
#X obj 284 437 f;
#X obj 311 435 f;
#X obj 338 435 f;
#X obj 366 434 f;
#X obj 280 407 t b b b b b;
#X obj 281 384 bng 15 250 50 0 empty empty empty 17 7 0 10 -262144
-1 -1;
#X obj 53 414 ngs~;
#X obj 89 474 huge-rev1~;
#X obj 74 500 wetdry~;
#X obj 131 500 wetdry~;
#X obj 146 570 outlet~;
#X obj 152 540 *~ 1;
#X msg 271 96 duration \$1;
#X obj 75 158 hsl 100 10 0 3000 0 0 \$0_ngs_srd_s \$0_ngs_srd_r empty
-2 -8 0 10 -88183 -261682 -1 600 1;
#X obj 36 158 nbx 5 12 -1e+37 1e+37 0 0 empty empty empty 0 -8 0 6
-262144 -1 -1 90.9091 256;
#X obj 76 172 hsl 100 10 0 100 0 0 \$0_ngs_wet_s \$0_ngs_wet_r empty
-2 -8 0 10 -109312 -261682 -1 17930 1;
#X obj 36 172 nbx 5 12 -1e+37 1e+37 0 0 empty empty empty 0 -8 0 6
-262144 -1 -1 90.5512 256;
#X text 10 167 wet;
#X text 309 381 TODO: fixme I am incomplete;
#X msg 151 363 distphase;
#X msg 166 390 randphase;
#X obj 22 201 bng 15 250 50 0 empty \$0_ngs_dp d.phase 17 7 0 8 -204800
-1 -1;
#X obj 36 186 nbx 5 12 -1e+37 1e+37 0 0 empty empty empty 0 -8 0 6
-262144 -1 -1 1.08661 256;
#X obj 106 201 bng 15 250 50 0 empty \$0_ngs_rp r.phase 17 7 0 7 -204800
-1 -1;
#X obj 190 164 change;
#X obj 191 186 change;
#X msg 251 286 spread \$1;
#X text 10 154 srd;
#N canvas 669 591 1579 1005 midi_support 1;
#X obj 331 16 inlet;
#X text 361 38 channel;
#X obj 24 157 r \$0_ngs_pos_s;
#X obj 24 204 nrpn_sync2 48 1;
#X obj 24 250 s \$0_ngs_pos_r;
#X obj 156 183 range 0 3000 0 500;
#X obj 156 231 range 0 500 0 3000;
#X obj 156 253 s \$0_ngs_len_r;
#X obj 156 160 r \$0_ngs_len_s;
#X obj 156 207 nrpn_sync2 42 1;
#X obj 296 216 nrpn_sync2 43 1;
#X obj 296 169 r \$0_ngs_spd_s;
#X obj 296 262 s \$0_ngs_spd_r;
#X obj 296 192 range -5 5 0 500;
#X obj 296 240 range 0 500 -5 5;
#X obj 432 219 nrpn_sync2 44 1;
#X obj 432 195 range 0 10 0 200;
#X obj 432 243 range 0 200 0 10;
#X obj 432 172 r \$0_ngs_win_s;
#X obj 432 265 s \$0_ngs_win_r;
#X obj 27 303 r \$0_ngs_srd_s;
#X obj 26 350 nrpn_sync2 45 1;
#X obj 26 326 range 0 3000 0 500;
#X obj 27 374 range 0 500 0 3000;
#X obj 26 396 s \$0_ngs_srd_r;
#X obj 197 308 r \$0_ngs_wet_s;
#X obj 196 401 s \$0_ngs_wet_r;
#X obj 196 331 range 0 100 0 127;
#X obj 197 379 range 0 127 0 100;
#X obj 196 355 nrpn_sync2 46 1;
#X obj 356 310 r \$0_ngs_vol_s;
#X obj 355 403 s \$0_ngs_vol_r;
#X obj 355 333 range 0 2 0 127;
#X obj 356 381 range 0 127 0 2;
#X obj 356 357 nrpn_sync2 47 1;
#X obj 617 198 select 1;
#X obj 584 252 spigot;
#X msg 617 222 1;
#X msg 658 222 0;
#X obj 585 281 bng 15 250 50 0 empty empty empty 17 7 0 10 -262144
-1 -1;
#X obj 578 151 ctlin 49;
#X obj 679 328 select 1;
#X obj 646 382 spigot;
#X msg 679 352 1;
#X msg 720 352 0;
#X obj 647 411 bng 15 250 50 0 empty empty empty 17 7 0 10 -262144
-1 -1;
#X obj 640 281 ctlin 50;
#X obj 547 305 s \$0_ngs_dp;
#X obj 641 436 s \$0_ngs_rp;
#X obj 24 180 range 0 1 0 5000;
#X obj 24 228 range 0 5000 0 1;
#X connect 0 0 3 1;
#X connect 0 0 9 1;
#X connect 0 0 10 1;
#X connect 0 0 15 1;
#X connect 0 0 21 1;
#X connect 0 0 29 1;
#X connect 0 0 34 1;
#X connect 0 0 35 1;
#X connect 0 0 41 1;
#X connect 2 0 49 0;
#X connect 3 0 50 0;
#X connect 5 0 9 0;
#X connect 6 0 7 0;
#X connect 8 0 5 0;
#X connect 9 0 6 0;
#X connect 10 0 14 0;
#X connect 11 0 13 0;
#X connect 13 0 10 0;
#X connect 14 0 12 0;
#X connect 15 0 17 0;
#X connect 16 0 15 0;
#X connect 17 0 19 0;
#X connect 18 0 16 0;
#X connect 20 0 22 0;
#X connect 21 0 23 0;
#X connect 22 0 21 0;
#X connect 23 0 24 0;
#X connect 25 0 27 0;
#X connect 27 0 29 0;
#X connect 28 0 26 0;
#X connect 29 0 28 0;
#X connect 30 0 32 0;
#X connect 32 0 34 0;
#X connect 33 0 31 0;
#X connect 34 0 33 0;
#X connect 35 0 37 0;
#X connect 35 1 38 0;
#X connect 36 0 39 0;
#X connect 37 0 36 1;
#X connect 38 0 36 1;
#X connect 39 0 47 0;
#X connect 40 0 36 0;
#X connect 40 1 35 0;
#X connect 41 0 43 0;
#X connect 41 1 44 0;
#X connect 42 0 45 0;
#X connect 43 0 42 1;
#X connect 44 0 42 1;
#X connect 45 0 48 0;
#X connect 46 0 42 0;
#X connect 46 1 41 0;
#X connect 49 0 3 0;
#X connect 50 0 4 0;
#X restore 413 208 pd midi_support;
#X obj 367 95 route dump channel;
#X connect 1 0 44 0;
#X connect 1 0 45 0;
#X connect 1 0 43 0;
#X connect 2 0 1 1;
#X connect 3 0 6 0;
#X connect 5 0 7 0;
#X connect 6 0 42 2;
#X connect 7 0 42 2;
#X connect 8 0 0 0;
#X connect 9 0 13 0;
#X connect 9 0 34 1;
#X connect 9 0 42 0;
#X connect 10 0 9 0;
#X connect 11 0 12 0;
#X connect 12 0 48 0;
#X connect 12 1 65 0;
#X connect 13 0 18 0;
#X connect 15 0 16 0;
#X connect 15 0 36 1;
#X connect 15 0 42 1;
#X connect 16 0 17 0;
#X connect 17 0 15 0;
#X connect 18 0 9 0;
#X connect 19 0 20 0;
#X connect 19 0 3 0;
#X connect 19 0 37 1;
#X connect 20 0 21 0;
#X connect 21 0 19 0;
#X connect 25 0 2 0;
#X connect 25 1 15 0;
#X connect 25 2 19 0;
#X connect 25 3 26 0;
#X connect 25 4 30 0;
#X connect 25 5 49 0;
#X connect 25 6 51 0;
#X connect 26 0 27 0;
#X connect 26 0 5 0;
#X connect 26 0 38 1;
#X connect 27 0 29 0;
#X connect 29 0 26 0;
#X connect 30 0 8 1;
#X connect 30 0 39 1;
#X connect 30 0 47 1;
#X connect 30 0 58 0;
#X connect 32 0 30 0;
#X connect 34 0 35 0;
#X connect 35 0 33 0;
#X connect 36 0 35 1;
#X connect 37 0 35 2;
#X connect 38 0 35 3;
#X connect 39 0 35 4;
#X connect 40 0 34 0;
#X connect 40 1 36 0;
#X connect 40 2 37 0;
#X connect 40 3 38 0;
#X connect 40 4 39 0;
#X connect 41 0 40 0;
#X connect 42 0 1 0;
#X connect 43 0 44 1;
#X connect 43 1 45 1;
#X connect 44 0 8 0;
#X connect 45 0 47 0;
#X connect 47 0 46 0;
#X connect 48 0 42 2;
#X connect 49 0 50 0;
#X connect 49 0 62 0;
#X connect 50 0 60 0;
#X connect 51 0 52 0;
#X connect 51 0 44 2;
#X connect 51 0 45 2;
#X connect 52 0 61 0;
#X connect 55 0 42 2;
#X connect 56 0 42 2;
#X connect 57 0 55 0;
#X connect 58 0 32 0;
#X connect 59 0 56 0;
#X connect 60 0 49 0;
#X connect 61 0 51 0;
#X connect 62 0 42 2;
#X connect 65 0 41 0;
#X connect 65 1 64 0;
#X connect 65 2 42 2;
#X coords 0 -1 1 1 170 140 1 10 80;
