#N canvas 773 116 973 522 10;
#X declare -lib mrpeach;
#X obj 36 46 tgl 150 0 empty lw_light1 empty 17 7 0 10 -258049 -1 -262144
0 1;
#X obj 191 46 tgl 150 0 empty lw_light2 empty 17 7 0 10 -262106 -1
-262144 0 1;
#X obj 346 46 tgl 150 0 empty lw_light3 empty 17 7 0 10 -262106 -1
-262144 0 1;
#X obj 36 201 tgl 150 0 empty lw_light4 empty 17 7 0 10 -262106 -1
-262144 0 1;
#X obj 191 201 tgl 150 0 empty lw_light5 empty 17 7 0 10 -262106 -1
-262144 0 1;
#X obj 346 201 tgl 150 0 empty lw_light6 empty 17 7 0 10 -262106 -1
-262144 0 1;
#X floatatom 588 114 5 0 1 1 Value led1_v -;
#X floatatom 571 95 5 0 1 1 Saturation led1_s -;
#X floatatom 555 76 5 0 1 1 Hue led1_h -;
#X floatatom 712 116 5 0 1 1 Value led2_v -;
#X floatatom 695 97 5 0 1 1 Saturation led2_s -;
#X floatatom 679 78 5 0 1 1 Hue led2_h -;
#N canvas 1175 545 425 564 hsv 0;
#X obj 10 28 inlet;
#X obj 97 27 inlet;
#X obj 213 32 inlet;
#X obj 148 533 outlet;
#X text 65 296 red;
#X text 153 287 green;
#X text 240 289 blue;
#X obj 206 350 t b f;
#X obj 133 381 +;
#X obj 133 406 t b f;
#X obj 133 427 +;
#X obj 205 308 clip 0 255;
#X obj 49 315 clip 0 255;
#X obj 125 304 clip 0 255;
#X floatatom 49 283 5 0 255 0 - - -;
#X floatatom 124 276 5 0 255 0 - - -;
#X floatatom 205 279 5 0 255 0 - - -;
#X obj 85 202 unpack 0 0 0;
#X obj 86 179 hsv2rgb;
#X floatatom 205 69 5 0 1 1 Value - -;
#X floatatom 102 70 5 0 1 1 Saturation - -;
#X floatatom 29 69 5 0 1 1 Hue - -;
#X obj 86 154 pack 0 0 0;
#X obj 104 122 t b f;
#X obj 141 122 t b f;
#X obj 52 250 * 255;
#X obj 123 252 * 255;
#X obj 185 255 * 255;
#X floatatom 25 224 5 0 0 0 - - -;
#X floatatom 130 227 5 0 0 0 - - -;
#X floatatom 195 224 5 0 0 0 - - -;
#X obj 206 328 << 0;
#X obj 124 326 << 8;
#X obj 49 337 << 16;
#X obj 133 448 t b f;
#X obj 134 474 -1;
#X obj 147 502 -;
#X connect 0 0 21 0;
#X connect 1 0 20 0;
#X connect 2 0 19 0;
#X connect 7 0 8 0;
#X connect 7 1 8 1;
#X connect 8 0 9 0;
#X connect 9 0 10 0;
#X connect 9 1 10 1;
#X connect 10 0 34 0;
#X connect 11 0 31 0;
#X connect 12 0 33 0;
#X connect 13 0 32 0;
#X connect 14 0 12 0;
#X connect 15 0 13 0;
#X connect 16 0 11 0;
#X connect 17 0 25 0;
#X connect 17 0 28 0;
#X connect 17 1 26 0;
#X connect 17 1 29 0;
#X connect 17 2 27 0;
#X connect 17 2 30 0;
#X connect 18 0 17 0;
#X connect 19 0 24 0;
#X connect 20 0 23 0;
#X connect 21 0 22 0;
#X connect 22 0 18 0;
#X connect 23 0 22 0;
#X connect 23 1 22 1;
#X connect 24 0 22 0;
#X connect 24 1 22 2;
#X connect 25 0 14 0;
#X connect 26 0 15 0;
#X connect 27 0 16 0;
#X connect 31 0 7 0;
#X connect 32 0 8 0;
#X connect 33 0 10 0;
#X connect 34 0 35 0;
#X connect 34 1 36 1;
#X connect 35 0 36 0;
#X connect 36 0 3 0;
#X restore 555 137 pd hsv;
#X floatatom 589 246 5 0 1 1 Value led4_v -;
#X floatatom 572 227 5 0 1 1 Saturation led4_s -;
#X floatatom 556 208 5 0 1 1 Hue led4_h -;
#X floatatom 713 248 5 0 1 1 Value led5_v -;
#X floatatom 696 229 5 0 1 1 Saturation led5_s -;
#X floatatom 680 210 5 0 1 1 Hue led5_h -;
#X floatatom 837 115 5 0 1 1 Value led3_v -;
#X floatatom 820 96 5 0 1 1 Saturation led3_s -;
#X floatatom 804 77 5 0 1 1 Hue led3_h -;
#X floatatom 838 247 5 0 1 1 Value led6_v -;
#X floatatom 820 227 5 0 1 1 Saturation led6_s -;
#X floatatom 805 209 5 0 1 1 Hue led6_h -;
#X obj 201 411 udpreceive 1888;
#X text 41 361 LIGHT WASH h/s/v mock;
#X text 40 374 send data on port 1888 or change it below;
#X obj 201 433 unpackOSC;
#X msg 555 163 \; lw_light1 color \$1;
#X msg 679 161 \; lw_light2 color \$1;
#X msg 804 160 \; lw_light3 color \$1;
#X msg 556 295 \; lw_light4 color \$1;
#X msg 679 293 \; lw_light5 color \$1;
#X msg 803 292 \; lw_light6 color \$1;
#X obj 47 416 import mrpeach;
#N canvas 1101 759 626 224 decode_led 0;
#X obj 138 12 inlet;
#X obj 19 90 s led1_h;
#X obj 77 90 s led1_s;
#X obj 134 90 s led1_v;
#X obj 129 35 routeOSC /led1 /led2 /led3 /led4 /led5 /led6;
#X obj 24 64 unpack f f f;
#X obj 200 66 unpack f f f;
#X obj 374 69 unpack f f f;
#X obj 195 92 s led2_h;
#X obj 253 92 s led2_s;
#X obj 310 92 s led2_v;
#X obj 369 95 s led3_h;
#X obj 427 95 s led3_s;
#X obj 484 95 s led3_v;
#X obj 38 128 unpack f f f;
#X obj 214 130 unpack f f f;
#X obj 388 133 unpack f f f;
#X obj 33 154 s led4_h;
#X obj 91 154 s led4_s;
#X obj 148 154 s led4_v;
#X obj 208 155 s led5_h;
#X obj 267 156 s led5_s;
#X obj 324 156 s led5_v;
#X obj 383 159 s led6_h;
#X obj 441 159 s led6_s;
#X obj 498 159 s led6_v;
#X connect 0 0 4 0;
#X connect 4 0 5 0;
#X connect 4 1 6 0;
#X connect 4 2 7 0;
#X connect 4 3 14 0;
#X connect 4 4 15 0;
#X connect 4 5 16 0;
#X connect 5 0 1 0;
#X connect 5 1 2 0;
#X connect 5 2 3 0;
#X connect 6 0 8 0;
#X connect 6 1 9 0;
#X connect 6 2 10 0;
#X connect 7 0 11 0;
#X connect 7 1 12 0;
#X connect 7 2 13 0;
#X connect 14 0 17 0;
#X connect 14 1 18 0;
#X connect 14 2 19 0;
#X connect 15 0 20 0;
#X connect 15 1 21 0;
#X connect 15 2 22 0;
#X connect 16 0 23 0;
#X connect 16 1 24 0;
#X connect 16 2 25 0;
#X restore 201 456 pd decode_led;
#N canvas 369 592 857 451 demo 0;
#X obj 335 414 udpsend;
#X msg 398 384 connect localhost 1888;
#X obj 399 358 loadbang;
#X obj 34 10 inlet;
#X floatatom 26 200 5 0 0 0 - - -;
#X obj 25 179 snapshot~;
#X obj 67 83 +~ 1;
#X obj 66 108 /~ 2;
#X obj 335 360 packOSC;
#X floatatom 159 210 5 0 0 0 - - -;
#X obj 157 188 snapshot~;
#X obj 125 127 delwrite~ lw_demo 5000;
#X obj 158 168 delread~ lw_demo 150;
#X floatatom 294 210 5 0 0 0 - - -;
#X obj 292 188 snapshot~;
#X obj 292 167 delread~ lw_demo 300;
#X floatatom 425 210 5 0 0 0 - - -;
#X obj 423 188 snapshot~;
#X obj 423 167 delread~ lw_demo 450;
#X floatatom 567 213 5 0 0 0 - - -;
#X obj 565 191 snapshot~;
#X floatatom 704 211 5 0 0 0 - - -;
#X obj 702 189 snapshot~;
#X obj 565 170 delread~ lw_demo 600;
#X obj 702 168 delread~ lw_demo 750;
#X obj 34 34 metro 25;
#X obj 26 225 t f f f;
#X obj 69 56 phasor~ 0.3;
#X msg 26 274 send /led1 \$1 \$2 \$3;
#X obj 26 250 pack f f f;
#X obj 159 232 t f f f;
#X obj 159 258 pack f f f;
#X msg 159 280 send /led2 \$1 \$2 \$3;
#X obj 289 231 t f f f;
#X obj 289 257 pack f f f;
#X msg 289 279 send /led3 \$1 \$2 \$3;
#X obj 425 232 t f f f;
#X obj 425 258 pack f f f;
#X msg 425 280 send /led4 \$1 \$2 \$3;
#X obj 567 236 t f f f;
#X obj 567 262 pack f f f;
#X msg 567 284 send /led5 \$1 \$2 \$3;
#X obj 703 235 t f f f;
#X obj 703 261 pack f f f;
#X msg 703 283 send /led6 \$1 \$2 \$3;
#X connect 1 0 0 0;
#X connect 2 0 1 0;
#X connect 3 0 25 0;
#X connect 4 0 26 0;
#X connect 5 0 4 0;
#X connect 6 0 7 0;
#X connect 7 0 5 0;
#X connect 7 0 11 0;
#X connect 8 0 0 0;
#X connect 9 0 30 0;
#X connect 10 0 9 0;
#X connect 12 0 10 0;
#X connect 13 0 33 0;
#X connect 14 0 13 0;
#X connect 15 0 14 0;
#X connect 16 0 36 0;
#X connect 17 0 16 0;
#X connect 18 0 17 0;
#X connect 19 0 39 0;
#X connect 20 0 19 0;
#X connect 21 0 42 0;
#X connect 22 0 21 0;
#X connect 23 0 20 0;
#X connect 24 0 22 0;
#X connect 25 0 5 0;
#X connect 25 0 10 0;
#X connect 25 0 14 0;
#X connect 25 0 17 0;
#X connect 25 0 20 0;
#X connect 25 0 22 0;
#X connect 26 0 29 0;
#X connect 26 1 29 1;
#X connect 26 2 29 2;
#X connect 27 0 6 0;
#X connect 28 0 8 0;
#X connect 29 0 28 0;
#X connect 30 0 31 0;
#X connect 30 1 31 1;
#X connect 30 2 31 2;
#X connect 31 0 32 0;
#X connect 32 0 8 0;
#X connect 33 0 34 0;
#X connect 33 1 34 1;
#X connect 33 2 34 2;
#X connect 34 0 35 0;
#X connect 35 0 8 0;
#X connect 36 0 37 0;
#X connect 36 1 37 1;
#X connect 36 2 37 2;
#X connect 37 0 38 0;
#X connect 38 0 8 0;
#X connect 39 0 40 0;
#X connect 39 1 40 1;
#X connect 39 2 40 2;
#X connect 40 0 41 0;
#X connect 41 0 8 0;
#X connect 42 0 43 0;
#X connect 42 1 43 1;
#X connect 42 2 43 2;
#X connect 43 0 44 0;
#X connect 44 0 8 0;
#X restore 357 439 pd demo;
#X obj 357 412 tgl 15 0 empty t_tog_off empty 17 7 0 10 -262144 -1
-1 0 1;
#X obj 609 417 hradio 15 1 0 8 empty empty empty 0 -8 0 10 -262144
-1 -1 0;
#X text 632 398 some colors;
#N canvas 1030 436 410 251 send_colors 0;
#X obj 22 17 inlet;
#X obj 22 48 route 0 1 2 3 4 5 6 7;
#N canvas 798 500 526 332 sendall 0;
#X obj 186 277 udpsend;
#X msg 235 250 connect localhost 1888;
#X obj 236 224 loadbang;
#X obj 158 226 packOSC;
#X obj 184 45 inlet;
#X msg 177 116 send /led2 \$1 \$2 \$3;
#X msg 309 116 send /led3 \$1 \$2 \$3;
#X text 188 26 values;
#X msg 74 152 send /led4 \$1 \$2 \$3;
#X msg 206 155 send /led5 \$1 \$2 \$3;
#X msg 344 154 send /led6 \$1 \$2 \$3;
#X obj 292 294 udpsend;
#X obj 88 274 print;
#X msg 47 117 /led1 \$1 \$2 \$3;
#X msg 29 26 send /led1 1 1 1;
#X msg 67 51 /led1 1 1 1;
#X msg 320 63 /remote;
#X msg 312 22 send /remote;
#X msg 341 267 connect 192.168.0.100 9001;
#X msg 390 233 disconnect;
#X connect 1 0 0 0;
#X connect 2 0 1 0;
#X connect 3 0 0 0;
#X connect 3 0 11 0;
#X connect 4 0 13 0;
#X connect 4 0 5 0;
#X connect 4 0 6 0;
#X connect 4 0 8 0;
#X connect 4 0 9 0;
#X connect 4 0 10 0;
#X connect 5 0 3 0;
#X connect 6 0 3 0;
#X connect 8 0 3 0;
#X connect 9 0 3 0;
#X connect 10 0 3 0;
#X connect 13 0 3 0;
#X connect 13 0 12 0;
#X connect 14 0 3 0;
#X connect 15 0 3 0;
#X connect 16 0 3 0;
#X connect 17 0 3 0;
#X connect 18 0 11 0;
#X connect 19 0 11 0;
#X restore 40 219 pd sendall;
#X obj 40 158 rgb2hsv;
#X msg 22 99 1 0 0;
#X msg 70 99 0 1 0;
#X msg 115 98 0 0 1;
#X msg 161 98 1 1 0;
#X msg 206 99 1 0 1;
#X msg 255 101 0 1 1;
#X msg 302 101 0 0 0;
#X msg 351 102 1 1 1;
#X obj 235 167 inlet;
#X msg 276 34 0;
#X obj 277 60 send t_tog_off;
#X connect 0 0 1 0;
#X connect 0 0 13 0;
#X connect 1 0 4 0;
#X connect 1 1 5 0;
#X connect 1 2 6 0;
#X connect 1 3 7 0;
#X connect 1 4 8 0;
#X connect 1 5 9 0;
#X connect 1 6 10 0;
#X connect 1 7 11 0;
#X connect 3 0 2 0;
#X connect 4 0 3 0;
#X connect 5 0 3 0;
#X connect 6 0 3 0;
#X connect 7 0 3 0;
#X connect 8 0 3 0;
#X connect 9 0 3 0;
#X connect 10 0 3 0;
#X connect 11 0 3 0;
#X connect 12 0 3 0;
#X connect 12 0 13 0;
#X connect 13 0 14 0;
#X restore 609 442 pd send_colors;
#X text 382 411 <- toggle me for an animated demo;
#X obj 785 392 hsl 128 15 0 1 0 0 empty empty empty -2 -8 0 10 -262144
-1 -1 0 1;
#X obj 785 410 hsl 128 15 0 1 0 0 empty empty empty -2 -8 0 10 -262144
-1 -1 0 1;
#X obj 785 429 hsl 128 15 0 1 0 0 empty empty empty -2 -8 0 10 -262144
-1 -1 0 1;
#X obj 825 454 t b f;
#X text 916 387 r;
#X text 915 407 g;
#X text 918 426 b;
#X obj 782 481 pack f f f;
#X obj 868 454 t b f;
#N canvas 1175 545 425 564 hsv 0;
#X obj 10 28 inlet;
#X obj 97 27 inlet;
#X obj 213 32 inlet;
#X obj 148 533 outlet;
#X text 65 296 red;
#X text 153 287 green;
#X text 240 289 blue;
#X obj 206 350 t b f;
#X obj 133 381 +;
#X obj 133 406 t b f;
#X obj 133 427 +;
#X obj 205 308 clip 0 255;
#X obj 49 315 clip 0 255;
#X obj 125 304 clip 0 255;
#X floatatom 49 283 5 0 255 0 - - -;
#X floatatom 124 276 5 0 255 0 - - -;
#X floatatom 205 279 5 0 255 0 - - -;
#X obj 85 202 unpack 0 0 0;
#X obj 86 179 hsv2rgb;
#X floatatom 205 69 5 0 1 1 Value - -;
#X floatatom 102 70 5 0 1 1 Saturation - -;
#X floatatom 29 69 5 0 1 1 Hue - -;
#X obj 86 154 pack 0 0 0;
#X obj 104 122 t b f;
#X obj 141 122 t b f;
#X obj 52 250 * 255;
#X obj 123 252 * 255;
#X obj 185 255 * 255;
#X floatatom 25 224 5 0 0 0 - - -;
#X floatatom 130 227 5 0 0 0 - - -;
#X floatatom 195 224 5 0 0 0 - - -;
#X obj 206 328 << 0;
#X obj 124 326 << 8;
#X obj 49 337 << 16;
#X obj 133 448 t b f;
#X obj 134 474 -1;
#X obj 147 502 -;
#X connect 0 0 21 0;
#X connect 1 0 20 0;
#X connect 2 0 19 0;
#X connect 7 0 8 0;
#X connect 7 1 8 1;
#X connect 8 0 9 0;
#X connect 9 0 10 0;
#X connect 9 1 10 1;
#X connect 10 0 34 0;
#X connect 11 0 31 0;
#X connect 12 0 33 0;
#X connect 13 0 32 0;
#X connect 14 0 12 0;
#X connect 15 0 13 0;
#X connect 16 0 11 0;
#X connect 17 0 25 0;
#X connect 17 0 28 0;
#X connect 17 1 26 0;
#X connect 17 1 29 0;
#X connect 17 2 27 0;
#X connect 17 2 30 0;
#X connect 18 0 17 0;
#X connect 19 0 24 0;
#X connect 20 0 23 0;
#X connect 21 0 22 0;
#X connect 22 0 18 0;
#X connect 23 0 22 0;
#X connect 23 1 22 1;
#X connect 24 0 22 0;
#X connect 24 1 22 2;
#X connect 25 0 14 0;
#X connect 26 0 15 0;
#X connect 27 0 16 0;
#X connect 31 0 7 0;
#X connect 32 0 8 0;
#X connect 33 0 10 0;
#X connect 34 0 35 0;
#X connect 34 1 36 1;
#X connect 35 0 36 0;
#X connect 36 0 3 0;
#X restore 679 136 pd hsv;
#N canvas 1174 544 425 564 hsv 0;
#X obj 10 28 inlet;
#X obj 97 27 inlet;
#X obj 213 32 inlet;
#X obj 148 533 outlet;
#X text 65 296 red;
#X text 153 287 green;
#X text 240 289 blue;
#X obj 206 350 t b f;
#X obj 133 381 +;
#X obj 133 406 t b f;
#X obj 133 427 +;
#X obj 205 308 clip 0 255;
#X obj 49 315 clip 0 255;
#X obj 125 304 clip 0 255;
#X floatatom 49 283 5 0 255 0 - - -;
#X floatatom 124 276 5 0 255 0 - - -;
#X floatatom 205 279 5 0 255 0 - - -;
#X obj 85 202 unpack 0 0 0;
#X obj 86 179 hsv2rgb;
#X floatatom 205 69 5 0 1 1 Value - -;
#X floatatom 102 70 5 0 1 1 Saturation - -;
#X floatatom 29 69 5 0 1 1 Hue - -;
#X obj 86 154 pack 0 0 0;
#X obj 104 122 t b f;
#X obj 141 122 t b f;
#X obj 52 250 * 255;
#X obj 123 252 * 255;
#X obj 185 255 * 255;
#X floatatom 25 224 5 0 0 0 - - -;
#X floatatom 130 227 5 0 0 0 - - -;
#X floatatom 195 224 5 0 0 0 - - -;
#X obj 206 328 << 0;
#X obj 124 326 << 8;
#X obj 49 337 << 16;
#X obj 133 448 t b f;
#X obj 134 474 -1;
#X obj 147 502 -;
#X connect 0 0 21 0;
#X connect 1 0 20 0;
#X connect 2 0 19 0;
#X connect 7 0 8 0;
#X connect 7 1 8 1;
#X connect 8 0 9 0;
#X connect 9 0 10 0;
#X connect 9 1 10 1;
#X connect 10 0 34 0;
#X connect 11 0 31 0;
#X connect 12 0 33 0;
#X connect 13 0 32 0;
#X connect 14 0 12 0;
#X connect 15 0 13 0;
#X connect 16 0 11 0;
#X connect 17 0 25 0;
#X connect 17 0 28 0;
#X connect 17 1 26 0;
#X connect 17 1 29 0;
#X connect 17 2 27 0;
#X connect 17 2 30 0;
#X connect 18 0 17 0;
#X connect 19 0 24 0;
#X connect 20 0 23 0;
#X connect 21 0 22 0;
#X connect 22 0 18 0;
#X connect 23 0 22 0;
#X connect 23 1 22 1;
#X connect 24 0 22 0;
#X connect 24 1 22 2;
#X connect 25 0 14 0;
#X connect 26 0 15 0;
#X connect 27 0 16 0;
#X connect 31 0 7 0;
#X connect 32 0 8 0;
#X connect 33 0 10 0;
#X connect 34 0 35 0;
#X connect 34 1 36 1;
#X connect 35 0 36 0;
#X connect 36 0 3 0;
#X restore 804 136 pd hsv;
#N canvas 1175 545 425 564 hsv 0;
#X obj 10 28 inlet;
#X obj 97 27 inlet;
#X obj 213 32 inlet;
#X obj 148 533 outlet;
#X text 65 296 red;
#X text 153 287 green;
#X text 240 289 blue;
#X obj 206 350 t b f;
#X obj 133 381 +;
#X obj 133 406 t b f;
#X obj 133 427 +;
#X obj 205 308 clip 0 255;
#X obj 49 315 clip 0 255;
#X obj 125 304 clip 0 255;
#X floatatom 49 283 5 0 255 0 - - -;
#X floatatom 124 276 5 0 255 0 - - -;
#X floatatom 205 279 5 0 255 0 - - -;
#X obj 85 202 unpack 0 0 0;
#X obj 86 179 hsv2rgb;
#X floatatom 205 69 5 0 1 1 Value - -;
#X floatatom 102 70 5 0 1 1 Saturation - -;
#X floatatom 29 69 5 0 1 1 Hue - -;
#X obj 86 154 pack 0 0 0;
#X obj 104 122 t b f;
#X obj 141 122 t b f;
#X obj 52 250 * 255;
#X obj 123 252 * 255;
#X obj 185 255 * 255;
#X floatatom 25 224 5 0 0 0 - - -;
#X floatatom 130 227 5 0 0 0 - - -;
#X floatatom 195 224 5 0 0 0 - - -;
#X obj 206 328 << 0;
#X obj 124 326 << 8;
#X obj 49 337 << 16;
#X obj 133 448 t b f;
#X obj 134 474 -1;
#X obj 147 502 -;
#X connect 0 0 21 0;
#X connect 1 0 20 0;
#X connect 2 0 19 0;
#X connect 7 0 8 0;
#X connect 7 1 8 1;
#X connect 8 0 9 0;
#X connect 9 0 10 0;
#X connect 9 1 10 1;
#X connect 10 0 34 0;
#X connect 11 0 31 0;
#X connect 12 0 33 0;
#X connect 13 0 32 0;
#X connect 14 0 12 0;
#X connect 15 0 13 0;
#X connect 16 0 11 0;
#X connect 17 0 25 0;
#X connect 17 0 28 0;
#X connect 17 1 26 0;
#X connect 17 1 29 0;
#X connect 17 2 27 0;
#X connect 17 2 30 0;
#X connect 18 0 17 0;
#X connect 19 0 24 0;
#X connect 20 0 23 0;
#X connect 21 0 22 0;
#X connect 22 0 18 0;
#X connect 23 0 22 0;
#X connect 23 1 22 1;
#X connect 24 0 22 0;
#X connect 24 1 22 2;
#X connect 25 0 14 0;
#X connect 26 0 15 0;
#X connect 27 0 16 0;
#X connect 31 0 7 0;
#X connect 32 0 8 0;
#X connect 33 0 10 0;
#X connect 34 0 35 0;
#X connect 34 1 36 1;
#X connect 35 0 36 0;
#X connect 36 0 3 0;
#X restore 556 271 pd hsv;
#N canvas 1175 545 425 564 hsv 0;
#X obj 10 28 inlet;
#X obj 97 27 inlet;
#X obj 213 32 inlet;
#X obj 148 533 outlet;
#X text 65 296 red;
#X text 153 287 green;
#X text 240 289 blue;
#X obj 206 350 t b f;
#X obj 133 381 +;
#X obj 133 406 t b f;
#X obj 133 427 +;
#X obj 205 308 clip 0 255;
#X obj 49 315 clip 0 255;
#X obj 125 304 clip 0 255;
#X floatatom 49 283 5 0 255 0 - - -;
#X floatatom 124 276 5 0 255 0 - - -;
#X floatatom 205 279 5 0 255 0 - - -;
#X obj 85 202 unpack 0 0 0;
#X obj 86 179 hsv2rgb;
#X floatatom 205 69 5 0 1 1 Value - -;
#X floatatom 102 70 5 0 1 1 Saturation - -;
#X floatatom 29 69 5 0 1 1 Hue - -;
#X obj 86 154 pack 0 0 0;
#X obj 104 122 t b f;
#X obj 141 122 t b f;
#X obj 52 250 * 255;
#X obj 123 252 * 255;
#X obj 185 255 * 255;
#X floatatom 25 224 5 0 0 0 - - -;
#X floatatom 130 227 5 0 0 0 - - -;
#X floatatom 195 224 5 0 0 0 - - -;
#X obj 206 328 << 0;
#X obj 124 326 << 8;
#X obj 49 337 << 16;
#X obj 133 448 t b f;
#X obj 134 474 -1;
#X obj 147 502 -;
#X connect 0 0 21 0;
#X connect 1 0 20 0;
#X connect 2 0 19 0;
#X connect 7 0 8 0;
#X connect 7 1 8 1;
#X connect 8 0 9 0;
#X connect 9 0 10 0;
#X connect 9 1 10 1;
#X connect 10 0 34 0;
#X connect 11 0 31 0;
#X connect 12 0 33 0;
#X connect 13 0 32 0;
#X connect 14 0 12 0;
#X connect 15 0 13 0;
#X connect 16 0 11 0;
#X connect 17 0 25 0;
#X connect 17 0 28 0;
#X connect 17 1 26 0;
#X connect 17 1 29 0;
#X connect 17 2 27 0;
#X connect 17 2 30 0;
#X connect 18 0 17 0;
#X connect 19 0 24 0;
#X connect 20 0 23 0;
#X connect 21 0 22 0;
#X connect 22 0 18 0;
#X connect 23 0 22 0;
#X connect 23 1 22 1;
#X connect 24 0 22 0;
#X connect 24 1 22 2;
#X connect 25 0 14 0;
#X connect 26 0 15 0;
#X connect 27 0 16 0;
#X connect 31 0 7 0;
#X connect 32 0 8 0;
#X connect 33 0 10 0;
#X connect 34 0 35 0;
#X connect 34 1 36 1;
#X connect 35 0 36 0;
#X connect 36 0 3 0;
#X restore 680 270 pd hsv;
#N canvas 1174 544 425 564 hsv 0;
#X obj 10 28 inlet;
#X obj 97 27 inlet;
#X obj 213 32 inlet;
#X obj 148 533 outlet;
#X text 65 296 red;
#X text 153 287 green;
#X text 240 289 blue;
#X obj 206 350 t b f;
#X obj 133 381 +;
#X obj 133 406 t b f;
#X obj 133 427 +;
#X obj 205 308 clip 0 255;
#X obj 49 315 clip 0 255;
#X obj 125 304 clip 0 255;
#X floatatom 49 283 5 0 255 0 - - -;
#X floatatom 124 276 5 0 255 0 - - -;
#X floatatom 205 279 5 0 255 0 - - -;
#X obj 85 202 unpack 0 0 0;
#X obj 86 179 hsv2rgb;
#X floatatom 205 69 5 0 1 1 Value - -;
#X floatatom 102 70 5 0 1 1 Saturation - -;
#X floatatom 29 69 5 0 1 1 Hue - -;
#X obj 86 154 pack 0 0 0;
#X obj 104 122 t b f;
#X obj 141 122 t b f;
#X obj 52 250 * 255;
#X obj 123 252 * 255;
#X obj 185 255 * 255;
#X floatatom 25 224 5 0 0 0 - - -;
#X floatatom 130 227 5 0 0 0 - - -;
#X floatatom 195 224 5 0 0 0 - - -;
#X obj 206 328 << 0;
#X obj 124 326 << 8;
#X obj 49 337 << 16;
#X obj 133 448 t b f;
#X obj 134 474 -1;
#X obj 147 502 -;
#X connect 0 0 21 0;
#X connect 1 0 20 0;
#X connect 2 0 19 0;
#X connect 7 0 8 0;
#X connect 7 1 8 1;
#X connect 8 0 9 0;
#X connect 9 0 10 0;
#X connect 9 1 10 1;
#X connect 10 0 34 0;
#X connect 11 0 31 0;
#X connect 12 0 33 0;
#X connect 13 0 32 0;
#X connect 14 0 12 0;
#X connect 15 0 13 0;
#X connect 16 0 11 0;
#X connect 17 0 25 0;
#X connect 17 0 28 0;
#X connect 17 1 26 0;
#X connect 17 1 29 0;
#X connect 17 2 27 0;
#X connect 17 2 30 0;
#X connect 18 0 17 0;
#X connect 19 0 24 0;
#X connect 20 0 23 0;
#X connect 21 0 22 0;
#X connect 22 0 18 0;
#X connect 23 0 22 0;
#X connect 23 1 22 1;
#X connect 24 0 22 0;
#X connect 24 1 22 2;
#X connect 25 0 14 0;
#X connect 26 0 15 0;
#X connect 27 0 16 0;
#X connect 31 0 7 0;
#X connect 32 0 8 0;
#X connect 33 0 10 0;
#X connect 34 0 35 0;
#X connect 34 1 36 1;
#X connect 35 0 36 0;
#X connect 36 0 3 0;
#X restore 805 270 pd hsv;
#X connect 6 0 12 2;
#X connect 7 0 12 1;
#X connect 8 0 12 0;
#X connect 9 0 52 2;
#X connect 10 0 52 1;
#X connect 11 0 52 0;
#X connect 12 0 29 0;
#X connect 13 0 54 2;
#X connect 14 0 54 1;
#X connect 15 0 54 0;
#X connect 16 0 55 2;
#X connect 17 0 55 1;
#X connect 18 0 55 0;
#X connect 19 0 53 2;
#X connect 20 0 53 1;
#X connect 21 0 53 0;
#X connect 22 0 56 2;
#X connect 23 0 56 1;
#X connect 24 0 56 0;
#X connect 25 0 28 0;
#X connect 28 0 36 0;
#X connect 38 0 37 0;
#X connect 39 0 41 0;
#X connect 43 0 50 0;
#X connect 44 0 46 0;
#X connect 45 0 51 0;
#X connect 46 0 50 0;
#X connect 46 1 50 1;
#X connect 50 0 41 1;
#X connect 51 0 50 0;
#X connect 51 1 50 2;
#X connect 52 0 30 0;
#X connect 53 0 31 0;
#X connect 54 0 32 0;
#X connect 55 0 33 0;
#X connect 56 0 34 0;
