#N canvas 673 436 438 422 10;
#X declare -lib mrpeach;
#X obj 144 339 packOSC;
#X obj 145 379 udpsend;
#X msg 209 334 connect localhost 9001;
#X msg 41 175 send /remote;
#X obj 40 152 loadbang;
#N canvas 1132 582 542 455 bassmode 0;
#X obj 177 406 outlet;
#X msg 231 352 send /bfreq \$1;
#X floatatom 263 270 5 0 0 0 - - -;
#X obj 263 246 r bfreq;
#X obj 90 269 snapshot~;
#X obj 183 244 metro 25;
#X obj 189 225 tgl 15 0 empty empty empty 17 7 0 10 -262144 -1 -1 0
1;
#X floatatom 98 309 5 0 0 0 - - -;
#X obj 30 254 *~;
#X msg 131 349 send /bvca \$1;
#X obj 25 52 osc~ 1;
#X obj 34 73 /~ 2;
#X obj 25 98 +~ 0.5;
#X text 73 121 max;
#X obj 28 122 *~ 0.5;
#X floatatom 28 23 5 0 0 0 - - -;
#X obj 49 215 vline~;
#X msg 80 164 0 \, 1 3000 \, 0 3000 3000;
#X obj 154 101 bng 15 250 50 0 empty empty empty 17 7 0 10 -262144
-1 -1;
#X msg 125 209 0;
#X msg 160 129 1;
#X obj 121 237 bng 15 250 50 0 empty empty empty 17 7 0 10 -262144
-1 -1;
#X obj 150 322 s bvca;
#X obj 107 187 delay 6020;
#X obj 145 54 r basswarb;
#X obj 80 14 r bassflip;
#X connect 1 0 0 0;
#X connect 2 0 1 0;
#X connect 3 0 2 0;
#X connect 4 0 7 0;
#X connect 4 0 9 0;
#X connect 4 0 22 0;
#X connect 5 0 4 0;
#X connect 6 0 5 0;
#X connect 8 0 4 0;
#X connect 9 0 0 0;
#X connect 10 0 11 0;
#X connect 11 0 12 0;
#X connect 12 0 14 0;
#X connect 14 0 8 0;
#X connect 15 0 10 0;
#X connect 16 0 8 1;
#X connect 17 0 16 0;
#X connect 18 0 17 0;
#X connect 18 0 20 0;
#X connect 18 0 23 0;
#X connect 19 0 6 0;
#X connect 20 0 6 0;
#X connect 23 0 19 0;
#X connect 23 0 21 0;
#X connect 24 0 18 0;
#X connect 25 0 15 0;
#X restore 251 234 pd bassmode;
#N canvas 867 258 851 561 form1 0;
#X msg 166 456 send /vowel_ee;
#X msg 365 456 send /vowel_ih;
#X msg 272 494 send /vowel_eh;
#X msg 472 494 send /vowel_ae;
#X msg 373 495 send /vowel_a;
#X msg 266 456 send /vowel_oo;
#X msg 471 454 send /vowel_uh;
#X msg 575 454 send /vowel_o;
#X msg 576 496 send /vowel_ah;
#X obj 163 524 outlet;
#X obj 212 385 route 0 1 2 3 4 5 6 7 8;
#X floatatom 159 256 5 0 0 0 - - -;
#X obj 153 284 % 9;
#X obj 754 102 /~ 2;
#X obj 753 79 +~ 1;
#X floatatom 751 34 5 0 0 0 - - -;
#X obj 755 134 *~ 9;
#X floatatom 773 267 5 0 0 0 - - -;
#X obj 754 228 snapshot~;
#X obj 775 161 bng 15 250 50 0 empty empty empty 17 7 0 10 -262144
-1 -1;
#X obj 752 55 osc~ 0.5;
#X obj 776 191 metro 15;
#X msg 802 159 stop;
#X obj 155 205 f;
#X obj 185 203 + 1;
#X obj 133 182 bng 15 250 50 0 empty empty empty 17 7 0 10 -262144
-1 -1;
#X floatatom 179 228 5 0 0 0 - - -;
#X obj 157 178 metro 25;
#X obj 154 145 bng 15 250 50 0 empty empty empty 17 7 0 10 -262144
-1 -1;
#X msg 177 146 stop;
#X floatatom 218 146 5 0 0 0 - - -;
#X obj 150 88 line;
#X obj 45 390 loadbang;
#X msg 44 414 send /formanttime 0;
#X msg 84 56 5000 5000;
#X obj 393 198 f;
#X obj 351 167 bng 15 250 50 0 empty empty empty 17 7 0 10 -262144
-1 -1;
#X floatatom 421 219 5 0 0 0 - - -;
#X obj 393 172 metro 25;
#X obj 389 143 bng 15 250 50 0 empty empty empty 17 7 0 10 -262144
-1 -1;
#X msg 412 144 stop;
#X floatatom 459 143 5 0 0 0 - - -;
#X obj 458 117 line;
#X msg 419 79 5000 5000;
#X floatatom 397 241 5 0 0 0 - - -;
#X obj 375 264 % 9;
#X obj 423 196 + 1;
#X obj 388 341 -;
#X obj 376 287 t b f;
#X floatatom 394 366 5 0 0 0 - - -;
#X msg 369 316 8;
#X floatatom 182 311 5 0 0 0 - - -;
#X msg 488 81 8 \, 150 25000;
#X msg 152 56 8 \, 150 25000;
#X obj 283 60 hradio 15 1 0 3 empty empty empty 0 -8 0 10 -262144 -1
-1 0;
#X obj 284 84 select 0 1 2;
#X obj 283 115 bng 15 250 50 0 empty empty empty 17 7 0 10 -262144
-1 -1;
#X obj 326 114 bng 15 250 50 0 empty empty empty 17 7 0 10 -262144
-1 -1;
#X obj 306 114 bng 15 250 50 0 empty empty empty 17 7 0 10 -262144
-1 -1;
#X msg 388 78 8;
#X msg 54 56 8;
#X floatatom 389 106 5 0 0 0 - - -;
#X floatatom 55 82 5 0 0 0 - - -;
#X obj 586 345 line;
#X msg 585 390 send /t1 \$1;
#X obj 443 365 select 8;
#X obj 443 390 bng 15 250 50 0 empty empty empty 17 7 0 10 -262144
-1 -1;
#X obj 467 390 s f1_r;
#X obj 79 324 select 8;
#X obj 79 349 bng 15 250 50 0 empty empty empty 17 7 0 10 -262144 -1
-1;
#X obj 103 349 s f1_l;
#X msg 602 316 stop;
#X obj 462 170 s f1_rp;
#X obj 233 173 s f1_lp;
#X obj 283 19 loadbang;
#X obj 607 415 s t1;
#X obj 201 107 r f1_lm;
#X obj 506 125 r f1_rm;
#X obj 351 25 r f1_mode;
#X obj 283 40 0;
#X obj 530 238 r sw_up;
#X obj 585 197 r sw_down;
#X obj 650 258 r sw_stop;
#X floatatom 604 367 5 0 0 0 - - -;
#X msg 585 289 60 \, 10 180000;
#X msg 532 264 40 \, 80 120000;
#X obj 671 370 select 80;
#X msg 693 342 80;
#X obj 684 417 s rampdone;
#X obj 701 396 bng 15 250 50 0 empty empty empty 17 7 0 10 -262144
-1 -1;
#X msg 723 342 10;
#X connect 0 0 9 0;
#X connect 1 0 9 0;
#X connect 2 0 9 0;
#X connect 3 0 9 0;
#X connect 4 0 9 0;
#X connect 5 0 9 0;
#X connect 6 0 9 0;
#X connect 7 0 9 0;
#X connect 8 0 9 0;
#X connect 10 0 0 0;
#X connect 10 1 5 0;
#X connect 10 2 1 0;
#X connect 10 3 6 0;
#X connect 10 4 7 0;
#X connect 10 5 2 0;
#X connect 10 6 4 0;
#X connect 10 7 3 0;
#X connect 10 8 8 0;
#X connect 11 0 12 0;
#X connect 12 0 10 0;
#X connect 12 0 51 0;
#X connect 12 0 68 0;
#X connect 13 0 16 0;
#X connect 14 0 13 0;
#X connect 15 0 20 0;
#X connect 16 0 18 0;
#X connect 18 0 17 0;
#X connect 19 0 21 0;
#X connect 20 0 14 0;
#X connect 21 0 18 0;
#X connect 22 0 21 0;
#X connect 23 0 24 0;
#X connect 23 0 12 0;
#X connect 23 0 26 0;
#X connect 24 0 23 1;
#X connect 25 0 23 0;
#X connect 27 0 23 0;
#X connect 28 0 27 0;
#X connect 29 0 27 0;
#X connect 30 0 27 1;
#X connect 30 0 73 0;
#X connect 31 0 30 0;
#X connect 32 0 33 0;
#X connect 33 0 9 0;
#X connect 34 0 31 0;
#X connect 35 0 37 0;
#X connect 35 0 46 0;
#X connect 35 0 45 0;
#X connect 36 0 35 0;
#X connect 38 0 35 0;
#X connect 39 0 38 0;
#X connect 40 0 38 0;
#X connect 41 0 38 1;
#X connect 41 0 72 0;
#X connect 42 0 41 0;
#X connect 43 0 42 0;
#X connect 44 0 45 0;
#X connect 45 0 48 0;
#X connect 46 0 35 1;
#X connect 47 0 49 0;
#X connect 47 0 10 0;
#X connect 47 0 65 0;
#X connect 48 0 50 0;
#X connect 48 1 47 1;
#X connect 50 0 47 0;
#X connect 52 0 42 0;
#X connect 53 0 31 0;
#X connect 54 0 55 0;
#X connect 55 0 58 0;
#X connect 55 1 56 0;
#X connect 55 2 57 0;
#X connect 56 0 28 0;
#X connect 56 0 40 0;
#X connect 57 0 29 0;
#X connect 57 0 39 0;
#X connect 58 0 29 0;
#X connect 58 0 40 0;
#X connect 59 0 42 0;
#X connect 60 0 31 0;
#X connect 61 0 42 0;
#X connect 62 0 31 0;
#X connect 63 0 64 0;
#X connect 63 0 75 0;
#X connect 63 0 83 0;
#X connect 63 0 86 0;
#X connect 64 0 9 0;
#X connect 65 0 66 0;
#X connect 65 0 67 0;
#X connect 68 0 69 0;
#X connect 68 0 70 0;
#X connect 71 0 63 0;
#X connect 74 0 79 0;
#X connect 76 0 30 0;
#X connect 77 0 41 0;
#X connect 78 0 54 0;
#X connect 79 0 54 0;
#X connect 80 0 85 0;
#X connect 81 0 84 0;
#X connect 82 0 71 0;
#X connect 84 0 63 0;
#X connect 84 0 90 0;
#X connect 85 0 63 0;
#X connect 85 0 87 0;
#X connect 86 0 89 0;
#X connect 86 0 88 0;
#X connect 87 0 86 1;
#X connect 90 0 86 1;
#X restore 136 153 pd form1;
#X obj 34 12 import mrpeach;
#N canvas 872 311 566 547 illuminate 0;
#X obj 128 415 outlet;
#X obj 224 409 packOSC;
#X obj 334 449 udpsend;
#X msg 333 424 connect localhost 1888;
#N canvas 709 411 729 447 lightning_storm 0;
#X obj 242 61 bng 15 250 50 0 empty empty empty 17 7 0 10 -262144 -1
-1;
#X obj 262 127 random 100;
#X obj 163 162 random 6;
#X obj 163 186 + 1;
#X obj 233 99 t b b;
#X msg 245 368 send /led\$1 \$2 \$3 \$4;
#X obj 246 345 pack f f f f;
#X obj 245 221 1;
#X obj 272 220 1;
#X obj 297 221 1;
#X obj 245 413 outlet;
#X obj 247 272 rgb2hsv;
#X obj 247 249 pack f f f;
#X obj 243 187 t b b b;
#X obj 248 296 unpack f f f;
#X obj 526 277 rgb2hsv;
#X obj 526 254 pack f f f;
#X obj 522 192 t b b b;
#X obj 527 301 unpack f f f;
#X obj 559 224 0;
#X obj 584 225 0;
#X obj 120 26 bng 15 250 50 0 empty empty empty 17 7 0 10 -262144 -1
-1;
#X msg 146 21 stop;
#X obj 121 44 metro 10;
#X obj 262 150 moses 33;
#X obj 388 272 rgb2hsv;
#X obj 388 249 pack f f f;
#X obj 384 187 t b b b;
#X obj 389 296 unpack f f f;
#X obj 421 219 0;
#X obj 446 220 0;
#X obj 386 221 0;
#X obj 382 151 moses 66;
#X floatatom 402 87 5 0 0 0 - - -;
#X floatatom 493 85 5 0 0 0 - - -;
#X obj 524 226 0.75;
#X floatatom 192 20 5 0 0 0 - - -;
#X obj 34 35 inlet;
#X obj 264 26 inlet;
#X connect 0 0 4 0;
#X connect 1 0 24 0;
#X connect 2 0 3 0;
#X connect 3 0 6 0;
#X connect 4 0 2 0;
#X connect 4 1 1 0;
#X connect 5 0 10 0;
#X connect 6 0 5 0;
#X connect 7 0 12 0;
#X connect 8 0 12 1;
#X connect 9 0 12 2;
#X connect 11 0 14 0;
#X connect 12 0 11 0;
#X connect 13 0 7 0;
#X connect 13 1 8 0;
#X connect 13 2 9 0;
#X connect 14 0 6 1;
#X connect 14 1 6 2;
#X connect 14 2 6 3;
#X connect 15 0 18 0;
#X connect 16 0 15 0;
#X connect 17 0 35 0;
#X connect 17 1 19 0;
#X connect 17 2 20 0;
#X connect 18 0 6 1;
#X connect 18 1 6 2;
#X connect 18 2 6 3;
#X connect 19 0 16 1;
#X connect 20 0 16 2;
#X connect 21 0 23 0;
#X connect 22 0 23 0;
#X connect 23 0 4 0;
#X connect 24 0 13 0;
#X connect 24 1 32 0;
#X connect 25 0 28 0;
#X connect 26 0 25 0;
#X connect 27 0 31 0;
#X connect 27 1 29 0;
#X connect 27 2 30 0;
#X connect 28 0 6 1;
#X connect 28 1 6 2;
#X connect 28 2 6 3;
#X connect 29 0 26 1;
#X connect 30 0 26 2;
#X connect 31 0 26 0;
#X connect 32 0 27 0;
#X connect 32 1 17 0;
#X connect 33 0 24 1;
#X connect 34 0 32 1;
#X connect 35 0 16 0;
#X connect 36 0 23 1;
#X connect 37 0 23 0;
#X connect 38 0 36 0;
#X restore 189 310 pd lightning_storm;
#X obj 196 69 hradio 15 1 0 5 empty empty empty 0 -8 0 10 -262144 -1
-1 4;
#X msg 143 158 bang;
#X msg 168 182 stop;
#X msg 239 156 bang;
#X msg 225 177 stop;
#N canvas 712 518 384 566 fadedown 0;
#X obj 79 11 inlet;
#X obj 82 498 outlet;
#N canvas 844 711 472 270 sendall 0;
#X obj 163 45 inlet;
#X msg 26 117 send /led1 \$1 \$2 \$3;
#X msg 156 116 send /led2 \$1 \$2 \$3;
#X msg 288 116 send /led3 \$1 \$2 \$3;
#X text 167 26 values;
#X msg 53 152 send /led4 \$1 \$2 \$3;
#X msg 185 155 send /led5 \$1 \$2 \$3;
#X msg 323 154 send /led6 \$1 \$2 \$3;
#X obj 137 226 outlet;
#X text 54 10 send the same value to all 6 lights;
#X connect 0 0 1 0;
#X connect 0 0 2 0;
#X connect 0 0 3 0;
#X connect 0 0 5 0;
#X connect 0 0 6 0;
#X connect 0 0 7 0;
#X connect 1 0 8 0;
#X connect 2 0 8 0;
#X connect 3 0 8 0;
#X connect 5 0 8 0;
#X connect 6 0 8 0;
#X connect 7 0 8 0;
#X restore 83 437 pd sendall;
#X obj 82 411 rgb2hsv;
#X obj 63 327 snapshot~;
#X obj 94 301 metro 25;
#X obj 103 274 tgl 15 0 empty empty empty 17 7 0 10 -262144 -1 -1 0
1;
#X obj 82 385 pack f 0 0;
#X obj 63 246 *~ 0.7;
#X obj 64 210 -~;
#X obj 63 110 sig~ 1;
#X msg 150 145 0;
#X obj 88 179 phasor~ 0.3;
#X obj 201 163 bng 15 250 50 0 empty empty empty 17 7 0 10 -262144
-1 -1;
#X obj 243 144 r f1_r;
#X obj 245 165 bng 15 250 50 0 empty empty empty 17 7 0 10 -262144
-1 -1;
#X obj 199 142 r f1_l;
#X floatatom 95 138 5 0 0 0 - - -;
#X floatatom 136 76 5 0 0 0 - - -;
#N canvas 806 697 337 281 t2f 0;
#X obj 44 72 / 1000;
#X obj 44 143 /;
#X obj 44 119 1;
#X obj 44 95 t b f;
#X floatatom 60 169 5 0 0 0 - - -;
#X obj 44 49 * 9;
#X obj 43 26 inlet;
#X obj 43 190 outlet;
#X connect 0 0 3 0;
#X connect 1 0 4 0;
#X connect 1 0 7 0;
#X connect 2 0 1 0;
#X connect 3 0 2 0;
#X connect 3 1 1 1;
#X connect 5 0 0 0;
#X connect 6 0 5 0;
#X restore 127 102 pd t2f;
#X obj 174 52 r f1_rp;
#X floatatom 195 77 5 0 0 0 - - -;
#N canvas 806 697 337 281 t2f 0;
#X obj 44 72 / 1000;
#X obj 44 143 /;
#X obj 44 119 1;
#X obj 44 95 t b f;
#X floatatom 60 169 5 0 0 0 - - -;
#X obj 44 49 * 9;
#X obj 43 26 inlet;
#X obj 43 190 outlet;
#X connect 0 0 3 0;
#X connect 1 0 4 0;
#X connect 1 0 7 0;
#X connect 2 0 1 0;
#X connect 3 0 2 0;
#X connect 3 1 1 1;
#X connect 5 0 0 0;
#X connect 6 0 5 0;
#X restore 186 103 pd t2f;
#X obj 114 51 r f1_lp;
#X connect 0 0 5 0;
#X connect 2 0 1 0;
#X connect 3 0 2 0;
#X connect 4 0 7 0;
#X connect 5 0 4 0;
#X connect 6 0 5 0;
#X connect 7 0 3 0;
#X connect 8 0 4 0;
#X connect 9 0 8 0;
#X connect 10 0 9 0;
#X connect 11 0 12 1;
#X connect 12 0 9 1;
#X connect 14 0 15 0;
#X connect 14 0 11 0;
#X connect 16 0 13 0;
#X connect 16 0 11 0;
#X connect 17 0 12 0;
#X connect 19 0 17 0;
#X connect 20 0 21 0;
#X connect 20 0 22 0;
#X connect 22 0 17 0;
#X connect 23 0 18 0;
#X connect 23 0 19 0;
#X restore 99 305 pd fadedown;
#X obj 198 27 loadbang;
#X obj 197 49 1;
#X obj 176 262 bng 15 250 50 0 empty empty empty 17 7 0 10 -262144
-1 -1;
#X msg 217 283 stop;
#X obj 276 26 r lmode;
#X obj 294 287 r stormrate;
#N canvas 858 508 373 412 strobe 0;
#X obj 122 346 outlet;
#X obj 122 288 rgb2hsv;
#N canvas 843 710 472 270 sendall 0;
#X obj 163 45 inlet;
#X msg 26 117 send /led1 \$1 \$2 \$3;
#X msg 156 116 send /led2 \$1 \$2 \$3;
#X msg 288 116 send /led3 \$1 \$2 \$3;
#X text 167 26 values;
#X msg 53 152 send /led4 \$1 \$2 \$3;
#X msg 185 155 send /led5 \$1 \$2 \$3;
#X msg 323 154 send /led6 \$1 \$2 \$3;
#X obj 137 226 outlet;
#X text 54 10 send the same value to all 6 lights;
#X connect 0 0 1 0;
#X connect 0 0 2 0;
#X connect 0 0 3 0;
#X connect 0 0 5 0;
#X connect 0 0 6 0;
#X connect 0 0 7 0;
#X connect 1 0 8 0;
#X connect 2 0 8 0;
#X connect 3 0 8 0;
#X connect 5 0 8 0;
#X connect 6 0 8 0;
#X connect 7 0 8 0;
#X restore 122 312 pd sendall;
#X msg 39 201 0.75 0 0;
#X msg 51 226 0.5 0 0;
#X msg 68 250 0.35 0 0;
#X msg 200 214 1 1 1;
#X msg 207 236 0.75 0.75 0.75;
#X msg 217 259 0.5 0.5 0.5;
#X obj 105 47 bng 15 250 50 0 empty empty empty 17 7 0 10 -262144 -1
-1;
#X msg 129 45 stop;
#X obj 102 127 % 6;
#X obj 101 100 f;
#X obj 128 100 + 1;
#X obj 101 157 route 0 1 2 3 4 5;
#X obj 101 76 metro 150;
#X obj 110 12 inlet;
#X obj 234 22 inlet;
#X connect 1 0 2 0;
#X connect 2 0 0 0;
#X connect 3 0 1 0;
#X connect 4 0 1 0;
#X connect 5 0 1 0;
#X connect 6 0 1 0;
#X connect 7 0 1 0;
#X connect 8 0 1 0;
#X connect 9 0 15 0;
#X connect 10 0 15 0;
#X connect 11 0 14 0;
#X connect 12 0 11 0;
#X connect 12 0 13 0;
#X connect 13 0 12 1;
#X connect 14 0 3 0;
#X connect 14 1 4 0;
#X connect 14 2 5 0;
#X connect 14 3 6 0;
#X connect 14 4 7 0;
#X connect 14 5 8 0;
#X connect 15 0 12 0;
#X connect 16 0 15 0;
#X connect 17 0 15 1;
#X restore 373 308 pd strobe;
#X msg 288 160 bang;
#X msg 274 181 stop;
#N canvas 943 569 553 542 firepunch 0;
#X obj 127 81 metro 100;
#X obj 127 32 inlet;
#X obj 150 56 tgl 15 0 empty empty empty 17 7 0 10 -262144 -1 -1 0
1;
#X obj 84 506 outlet;
#X obj 127 217 snapshot~;
#X obj 256 217 snapshot~;
#X obj 381 217 snapshot~;
#X msg 98 311 send /led1 \$1 \$2 \$3;
#X obj 125 289 rgb2hsv;
#X msg 125 267 \$1 0 0;
#X obj 126 242 * 0.75;
#X obj 132 194 phasor~ 2;
#X obj 255 289 rgb2hsv;
#X msg 255 267 \$1 0 0;
#X obj 256 242 * 0.75;
#X msg 228 311 send /led2 \$1 \$2 \$3;
#X obj 260 195 phasor~ 2.05;
#X obj 382 194 phasor~ 2.1;
#X obj 386 290 rgb2hsv;
#X msg 386 268 \$1 0 0;
#X obj 387 243 * 0.75;
#X msg 359 312 send /led3 \$1 \$2 \$3;
#X floatatom 305 38 5 0 0 0 - - -;
#X obj 260 88 * 1.025;
#X obj 318 88 * 1.05;
#X obj 369 88 * 1.075;
#X obj 232 87 * 1;
#X obj 427 88 * 1.1;
#X obj 469 89 * 1.1;
#X obj 161 367 snapshot~;
#X obj 290 367 snapshot~;
#X obj 415 367 snapshot~;
#X obj 159 439 rgb2hsv;
#X msg 159 417 \$1 0 0;
#X obj 160 392 * 0.75;
#X obj 289 439 rgb2hsv;
#X msg 289 417 \$1 0 0;
#X obj 290 392 * 0.75;
#X obj 420 440 rgb2hsv;
#X msg 420 418 \$1 0 0;
#X obj 421 393 * 0.75;
#X msg 132 460 send /led4 \$1 \$2 \$3;
#X msg 262 461 send /led5 \$1 \$2 \$3;
#X msg 395 462 send /led6 \$1 \$2 \$3;
#X obj 166 344 phasor~ 2.15;
#X obj 294 345 phasor~ 2.2;
#X obj 416 344 phasor~ 2.25;
#X obj 194 30 inlet;
#X floatatom 202 60 5 0 0 0 - - -;
#X connect 0 0 4 0;
#X connect 0 0 5 0;
#X connect 0 0 6 0;
#X connect 0 0 29 0;
#X connect 0 0 30 0;
#X connect 0 0 31 0;
#X connect 1 0 0 0;
#X connect 2 0 0 0;
#X connect 4 0 10 0;
#X connect 5 0 14 0;
#X connect 6 0 20 0;
#X connect 7 0 3 0;
#X connect 8 0 7 0;
#X connect 9 0 8 0;
#X connect 10 0 9 0;
#X connect 11 0 4 0;
#X connect 12 0 15 0;
#X connect 13 0 12 0;
#X connect 14 0 13 0;
#X connect 15 0 3 0;
#X connect 16 0 5 0;
#X connect 17 0 6 0;
#X connect 18 0 21 0;
#X connect 19 0 18 0;
#X connect 20 0 19 0;
#X connect 21 0 3 0;
#X connect 22 0 23 0;
#X connect 22 0 24 0;
#X connect 22 0 25 0;
#X connect 22 0 26 0;
#X connect 22 0 27 0;
#X connect 22 0 28 0;
#X connect 23 0 45 0;
#X connect 24 0 17 0;
#X connect 25 0 44 0;
#X connect 26 0 11 0;
#X connect 27 0 16 0;
#X connect 28 0 46 0;
#X connect 29 0 34 0;
#X connect 30 0 37 0;
#X connect 31 0 40 0;
#X connect 32 0 41 0;
#X connect 33 0 32 0;
#X connect 34 0 33 0;
#X connect 35 0 42 0;
#X connect 36 0 35 0;
#X connect 37 0 36 0;
#X connect 38 0 43 0;
#X connect 39 0 38 0;
#X connect 40 0 39 0;
#X connect 41 0 3 0;
#X connect 42 0 3 0;
#X connect 43 0 3 0;
#X connect 44 0 29 0;
#X connect 45 0 30 0;
#X connect 46 0 31 0;
#X connect 47 0 0 1;
#X connect 47 0 48 0;
#X restore 448 308 pd firepunch;
#X msg 345 164 bang;
#X msg 331 185 stop;
#X obj 196 89 select 0 1 2 3 4;
#X obj 459 277 r stormrate;
#X obj 369 261 r stormrate;
#X connect 1 0 2 0;
#X connect 3 0 2 0;
#X connect 4 0 1 0;
#X connect 4 0 0 0;
#X connect 5 0 23 0;
#X connect 6 0 10 0;
#X connect 7 0 10 0;
#X connect 8 0 4 0;
#X connect 9 0 4 0;
#X connect 10 0 0 0;
#X connect 10 0 1 0;
#X connect 11 0 12 0;
#X connect 12 0 5 0;
#X connect 13 0 4 0;
#X connect 14 0 4 0;
#X connect 15 0 5 0;
#X connect 16 0 4 1;
#X connect 17 0 1 0;
#X connect 17 0 0 0;
#X connect 18 0 17 0;
#X connect 19 0 17 0;
#X connect 20 0 1 0;
#X connect 20 0 0 0;
#X connect 21 0 20 0;
#X connect 22 0 20 0;
#X connect 23 0 7 0;
#X connect 23 0 9 0;
#X connect 23 0 19 0;
#X connect 23 0 22 0;
#X connect 23 1 6 0;
#X connect 23 1 9 0;
#X connect 23 1 19 0;
#X connect 23 1 22 0;
#X connect 23 2 8 0;
#X connect 23 2 7 0;
#X connect 23 2 19 0;
#X connect 23 2 22 0;
#X connect 23 3 18 0;
#X connect 23 3 9 0;
#X connect 23 3 7 0;
#X connect 23 3 22 0;
#X connect 23 4 21 0;
#X connect 23 4 7 0;
#X connect 23 4 9 0;
#X connect 23 4 19 0;
#X connect 24 0 20 1;
#X connect 25 0 17 1;
#X restore 230 181 pd illuminate;
#N canvas 184 491 416 552 onephase 0;
#X obj 36 42 inlet;
#X obj -14 501 outlet;
#N canvas 1196 673 336 309 volramp 0;
#X obj 93 14 inlet;
#X obj 27 275 outlet;
#X obj 27 187 line;
#X floatatom 28 250 5 0 0 0 - - -;
#X floatatom 93 37 5 0 0 0 - - -;
#X msg 26 96 0 \, 0.85 \$1;
#X obj 99 120 delay;
#X msg 125 170 0 \$1;
#X obj 124 148 f;
#X obj 93 60 t f b f f;
#X obj 27 219 * 127;
#X connect 0 0 4 0;
#X connect 2 0 10 0;
#X connect 3 0 1 0;
#X connect 4 0 9 0;
#X connect 5 0 2 0;
#X connect 6 0 8 0;
#X connect 7 0 2 0;
#X connect 8 0 7 0;
#X connect 9 0 5 0;
#X connect 9 1 6 0;
#X connect 9 2 6 1;
#X connect 9 3 8 1;
#X connect 10 0 3 0;
#X restore -11 330 pd volramp;
#X floatatom -12 305 5 0 0 0 - - -;
#X msg -11 358 send /tlpf \$1;
#N canvas 89 753 550 370 randtones 0;
#X obj 236 295 outlet;
#X obj 37 162 random 64;
#X obj 38 189 + 64;
#X obj 210 20 inlet;
#X msg 38 249 send /t1 \$1;
#X msg 114 249 send /t2 \$1;
#X msg 192 249 send /t3 \$1;
#X msg 269 249 send /t4 \$1;
#X msg 344 249 send /t5 \$1;
#X msg 416 250 send /t6 \$1;
#X obj 209 64 t b b b b b b;
#X obj 116 167 random 25;
#X obj 117 194 + 25;
#X obj 191 166 random 25;
#X obj 192 193 + 25;
#X obj 271 168 random 25;
#X obj 272 195 + 25;
#X obj 346 167 random 25;
#X obj 347 194 + 25;
#X obj 419 167 random 25;
#X obj 420 194 + 25;
#X obj 63 218 s t1;
#X obj 132 219 s t2;
#X obj 211 216 s t3;
#X obj 280 217 s t4;
#X obj 366 217 s t5;
#X obj 435 218 s t6;
#X connect 1 0 2 0;
#X connect 2 0 4 0;
#X connect 2 0 21 0;
#X connect 3 0 10 0;
#X connect 4 0 0 0;
#X connect 5 0 0 0;
#X connect 6 0 0 0;
#X connect 7 0 0 0;
#X connect 8 0 0 0;
#X connect 9 0 0 0;
#X connect 10 0 1 0;
#X connect 10 1 11 0;
#X connect 10 2 13 0;
#X connect 10 3 15 0;
#X connect 10 4 17 0;
#X connect 10 5 19 0;
#X connect 11 0 12 0;
#X connect 12 0 5 0;
#X connect 12 0 22 0;
#X connect 13 0 14 0;
#X connect 14 0 6 0;
#X connect 14 0 23 0;
#X connect 15 0 16 0;
#X connect 16 0 7 0;
#X connect 16 0 24 0;
#X connect 17 0 18 0;
#X connect 18 0 8 0;
#X connect 18 0 25 0;
#X connect 19 0 20 0;
#X connect 20 0 9 0;
#X connect 20 0 26 0;
#X restore 93 361 pd randtones;
#X obj 75 167 t f b;
#X floatatom 73 130 5 0 0 0 - - -;
#X obj 37 206 t b f;
#X obj -12 274 f;
#X obj 176 43 inlet;
#X text 190 67 3rd verse same as the first;
#X obj 165 78 bng 15 250 50 0 empty empty empty 17 7 0 10 -262144 -1
-1;
#X obj -30 237 delay 15;
#X obj 128 319 r new_rand;
#X obj 7 388 s tlpf;
#X floatatom 3 418 5 0 0 0 - - -;
#X connect 0 0 7 0;
#X connect 2 0 4 0;
#X connect 2 0 15 0;
#X connect 2 0 16 0;
#X connect 3 0 2 0;
#X connect 4 0 1 0;
#X connect 5 0 1 0;
#X connect 6 0 8 0;
#X connect 6 1 5 0;
#X connect 7 0 6 0;
#X connect 8 0 13 0;
#X connect 8 1 9 1;
#X connect 9 0 3 0;
#X connect 10 0 12 0;
#X connect 12 0 9 0;
#X connect 13 0 9 0;
#X connect 14 0 5 0;
#X restore 228 140 pd onephase;
#X floatatom 229 111 5 0 0 0 - - -;
#X obj 229 89 bng 15 250 50 0 empty empty empty 17 7 0 10 -262144 -1
-1;
#X obj 291 92 bng 15 250 50 0 empty empty empty 17 7 0 10 -262144 -1
-1;
#N canvas 175 628 441 459 midis 0;
#X obj 124 424 outlet;
#N canvas 1080 527 521 493 master_vol 0;
#X obj 178 82 ctlin 100;
#X obj 178 106 range 0 20 0 1;
#X msg 78 254 send /tvca \$1;
#X obj 92 406 outlet;
#X obj 97 204 f;
#X obj 117 177 r tvca;
#X obj 77 229 *;
#X obj 72 175 t f b;
#X obj 208 204 f;
#X obj 188 229 *;
#X obj 183 175 t f b;
#X obj 319 205 f;
#X obj 299 230 *;
#X obj 294 176 t f b;
#X obj 227 176 r bvca;
#X obj 339 178 r nvca;
#X msg 189 254 send /bvca \$1;
#X msg 300 255 send /nvca \$1;
#X floatatom 233 204 5 0 0 0 - - -;
#X floatatom 345 205 5 0 0 0 - - -;
#X floatatom 123 206 5 0 0 0 - - -;
#X connect 0 0 1 0;
#X connect 1 0 7 0;
#X connect 1 0 10 0;
#X connect 1 0 13 0;
#X connect 2 0 3 0;
#X connect 4 0 6 1;
#X connect 5 0 4 1;
#X connect 5 0 20 0;
#X connect 6 0 2 0;
#X connect 7 0 6 0;
#X connect 7 1 4 0;
#X connect 8 0 9 1;
#X connect 9 0 16 0;
#X connect 10 0 9 0;
#X connect 10 1 8 0;
#X connect 11 0 12 1;
#X connect 12 0 17 0;
#X connect 13 0 12 0;
#X connect 13 1 11 0;
#X connect 14 0 8 1;
#X connect 14 0 18 0;
#X connect 15 0 11 1;
#X connect 15 0 19 0;
#X connect 16 0 3 0;
#X connect 17 0 3 0;
#X restore 296 350 pd master_vol;
#N canvas 875 613 450 300 vcas 0;
#X msg 166 95 send /nvca \$1;
#X obj 67 70 range 0 20 0 1;
#X obj 144 193 outlet;
#X msg 67 93 send /bvca \$1;
#X msg 268 94 send /tvca \$1;
#X obj 293 120 s tvca;
#X obj 176 127 s nvca;
#X obj 96 119 s bvca;
#X obj 218 197 print hammerhead;
#X obj 67 47 ctlin 97 2;
#X obj 166 49 ctlin 98 2;
#X obj 268 48 ctlin 99 2;
#X obj 166 72 range 0 127 0 1;
#X obj 32 204 r bvca;
#X obj 31 231 range 0 1 0 20;
#X obj 31 257 ctlout 97 2;
#X obj 268 71 range 0 127 0 1;
#X connect 0 0 2 0;
#X connect 1 0 3 0;
#X connect 1 0 7 0;
#X connect 3 0 2 0;
#X connect 4 0 2 0;
#X connect 9 0 1 0;
#X connect 10 0 12 0;
#X connect 11 0 16 0;
#X connect 12 0 0 0;
#X connect 12 0 6 0;
#X connect 12 0 8 0;
#X connect 13 0 14 0;
#X connect 14 0 15 0;
#X connect 16 0 4 0;
#X connect 16 0 5 0;
#X restore 147 157 pd vcas;
#N canvas 959 487 450 300 inits 0;
#X obj 73 24 loadbang;
#X obj 28 93 s tvca;
#X msg 26 67 1;
#X msg 219 67 0;
#X obj 117 92 s bvca;
#X msg 115 66 0;
#X obj 232 93 s nvca;
#X obj 50 22 bng 15 250 50 0 empty empty empty 17 7 0 10 -262144 -1
-1;
#X obj 15 118 range 0 1 0 20;
#X obj 111 120 range 0 1 0 20;
#X obj 216 117 range 0 1 0 20;
#X obj 15 139 ctlout 99 2;
#X obj 111 141 ctlout 97 2;
#X obj 216 138 ctlout 98 2;
#X connect 0 0 2 0;
#X connect 0 0 3 0;
#X connect 0 0 5 0;
#X connect 2 0 1 0;
#X connect 2 0 8 0;
#X connect 3 0 6 0;
#X connect 3 0 10 0;
#X connect 5 0 4 0;
#X connect 5 0 9 0;
#X connect 7 0 0 0;
#X connect 8 0 11 0;
#X connect 9 0 12 0;
#X connect 10 0 13 0;
#X restore 31 23 pd inits;
#N canvas 957 692 692 437 tones 0;
#X obj 262 206 nrpn_in 84;
#X floatatom 270 257 5 0 0 0 - - -;
#X msg 265 285 send /t6 \$1;
#X obj 117 366 outlet;
#X floatatom 146 252 5 0 0 0 - - -;
#X obj 138 201 nrpn_in 83;
#X msg 141 280 send /t5 \$1;
#X floatatom 27 251 5 0 0 0 - - -;
#X obj 19 200 nrpn_in 82;
#X msg 22 279 send /t4 \$1;
#X floatatom 281 106 5 0 0 0 - - -;
#X msg 276 134 send /t3 \$1;
#X obj 273 55 nrpn_in 81;
#X floatatom 164 111 5 0 0 0 - - -;
#X obj 156 60 nrpn_in 80;
#X msg 159 138 send /t2 \$1;
#X floatatom 46 111 5 0 0 0 - - -;
#X obj 38 60 nrpn_in 79;
#X msg 41 138 send /t1 \$1;
#X obj 20 226 range 0 500 0 50;
#X obj 139 227 range 0 500 0 50;
#X obj 263 232 range 0 500 0 50;
#X obj 274 81 range 0 500 0 50;
#X obj 157 86 range 0 500 0 50;
#X obj 410 55 r t1;
#X obj 409 101 nrpn_out 79;
#X obj 410 77 range 0 127 0 500;
#X obj 526 76 range 0 50 0 500;
#X obj 528 54 r t2;
#X obj 526 99 nrpn_out 80;
#X obj 527 145 range 0 50 0 500;
#X obj 411 124 r t3;
#X obj 529 123 r t4;
#X obj 410 170 nrpn_out 81;
#X obj 527 168 nrpn_out 82;
#X obj 530 225 range 0 50 0 500;
#X obj 414 204 r t5;
#X obj 532 203 r t6;
#X obj 413 250 nrpn_out 83;
#X obj 530 248 nrpn_out 84;
#X obj 411 146 range 0 50 0 500;
#X obj 414 226 range 0 50 0 500;
#X obj 39 86 range 0 500 0 127;
#X obj 68 165 s sw_stop;
#X connect 0 0 21 0;
#X connect 2 0 3 0;
#X connect 5 0 20 0;
#X connect 6 0 3 0;
#X connect 8 0 19 0;
#X connect 9 0 3 0;
#X connect 11 0 3 0;
#X connect 12 0 22 0;
#X connect 14 0 23 0;
#X connect 15 0 3 0;
#X connect 17 0 42 0;
#X connect 18 0 3 0;
#X connect 19 0 7 0;
#X connect 19 0 9 0;
#X connect 20 0 4 0;
#X connect 20 0 6 0;
#X connect 21 0 1 0;
#X connect 21 0 2 0;
#X connect 22 0 10 0;
#X connect 22 0 11 0;
#X connect 23 0 13 0;
#X connect 23 0 15 0;
#X connect 24 0 26 0;
#X connect 26 0 25 0;
#X connect 27 0 29 0;
#X connect 28 0 27 0;
#X connect 30 0 34 0;
#X connect 31 0 40 0;
#X connect 32 0 30 0;
#X connect 35 0 39 0;
#X connect 36 0 41 0;
#X connect 37 0 35 0;
#X connect 40 0 33 0;
#X connect 41 0 38 0;
#X connect 42 0 16 0;
#X connect 42 0 18 0;
#X connect 42 0 43 0;
#X restore 56 154 pd tones;
#N canvas 986 612 512 458 lights 0;
#X obj 44 48 ctlin 76;
#X obj 42 225 ctlout 76;
#X obj -55 225 ctlout 75;
#X obj -89 46 ctlin 75;
#X obj -89 80 select 127;
#X obj -18 153 s lmode;
#X obj 39 79 select 127;
#X msg 46 114 2;
#X msg -54 198 0;
#X obj -93 305 ctlin 8;
#X obj -92 354 s stormrate;
#X obj -92 330 range 0 127 10 150;
#X msg -82 115 1;
#X msg -18 114 0;
#X obj 129 79 select 127;
#X obj 134 48 ctlin 68;
#X msg 128 111 3;
#X msg 40 197 0;
#X msg 120 198 0;
#X obj 122 226 ctlout 68;
#X obj 208 81 select 127;
#X msg 207 113 4;
#X obj 213 50 ctlin 67;
#X msg 202 198 0;
#X obj 204 226 ctlout 67;
#X connect 0 0 6 0;
#X connect 3 0 4 0;
#X connect 4 0 12 0;
#X connect 4 1 13 0;
#X connect 6 0 7 0;
#X connect 6 1 13 0;
#X connect 7 0 5 0;
#X connect 7 0 8 0;
#X connect 7 0 18 0;
#X connect 7 0 23 0;
#X connect 8 0 2 0;
#X connect 9 0 11 0;
#X connect 11 0 10 0;
#X connect 12 0 5 0;
#X connect 12 0 17 0;
#X connect 12 0 18 0;
#X connect 12 0 23 0;
#X connect 13 0 5 0;
#X connect 14 0 16 0;
#X connect 14 1 13 0;
#X connect 15 0 14 0;
#X connect 16 0 5 0;
#X connect 16 0 17 0;
#X connect 16 0 8 0;
#X connect 16 0 23 0;
#X connect 17 0 1 0;
#X connect 18 0 19 0;
#X connect 20 0 21 0;
#X connect 20 1 13 0;
#X connect 21 0 18 0;
#X connect 21 0 17 0;
#X connect 21 0 8 0;
#X connect 21 0 5 0;
#X connect 22 0 20 0;
#X connect 23 0 24 0;
#X restore 303 190 pd lights;
#N canvas 330 431 450 300 filter 0;
#X obj 180 31 nrpn_in 94;
#X obj 114 243 outlet;
#X obj 179 106 range 0 300 0 127;
#X msg 178 129 send /thpf \$1;
#X obj 72 105 range 0 300 0 127;
#X obj 72 32 nrpn_in 93;
#X msg 71 128 send /tlpf \$1;
#X obj 249 180 r tlpf;
#X obj 249 211 range 0 127 0 300;
#X obj 249 243 nrpn_out 93;
#X connect 0 0 2 0;
#X connect 2 0 3 0;
#X connect 3 0 1 0;
#X connect 4 0 6 0;
#X connect 5 0 4 0;
#X connect 6 0 1 0;
#X connect 7 0 8 0;
#X connect 8 0 9 0;
#X restore 122 125 pd filter;
#N canvas 206 322 681 436 form1ctl 0;
#X obj 42 45 ctlin 1;
#X obj 41 97 s f1_lm;
#X obj 170 94 s f1_rm;
#X obj 44 183 ctlin 17;
#X obj 44 207 select 127;
#X msg 63 230 1;
#X obj 123 291 s f1_mode;
#X obj 203 205 select 127;
#X obj 203 181 ctlin 18;
#X obj 42 309 ctlout 17;
#X msg 43 286 0;
#X msg 211 284 0;
#X obj 210 307 ctlout 18;
#X msg 219 230 2;
#X msg 139 260 0;
#X obj 174 41 ctlin 2;
#X obj 171 67 range 0 127 10 500;
#X obj 42 70 range 0 127 10 500;
#X obj 356 43 ctlin 25;
#X obj 356 69 select 127;
#X obj 411 97 s sw_stop;
#X obj 340 100 s sw_up;
#X obj 505 66 select 127;
#X obj 560 94 s sw_stop;
#X obj 505 40 ctlin 26;
#X obj 489 97 s sw_down;
#X obj 348 220 ctlout 25;
#X obj 495 215 ctlout 26;
#X msg 371 192 0;
#X msg 493 188 0;
#X obj 431 123 r sw_stop;
#X obj 488 149 r rampdone;
#X connect 0 0 17 0;
#X connect 3 0 4 0;
#X connect 4 0 5 0;
#X connect 4 0 11 0;
#X connect 4 1 14 0;
#X connect 5 0 6 0;
#X connect 7 0 13 0;
#X connect 7 0 10 0;
#X connect 7 1 14 0;
#X connect 8 0 7 0;
#X connect 10 0 9 0;
#X connect 11 0 12 0;
#X connect 13 0 6 0;
#X connect 14 0 6 0;
#X connect 15 0 16 0;
#X connect 16 0 2 0;
#X connect 17 0 1 0;
#X connect 18 0 19 0;
#X connect 19 0 21 0;
#X connect 19 0 29 0;
#X connect 19 1 20 0;
#X connect 22 0 25 0;
#X connect 22 0 28 0;
#X connect 22 1 23 0;
#X connect 24 0 22 0;
#X connect 28 0 26 0;
#X connect 29 0 27 0;
#X connect 30 0 28 0;
#X connect 30 0 29 0;
#X connect 31 0 28 0;
#X connect 31 0 29 0;
#X restore 303 158 pd form1ctl;
#X obj 188 330 s formanttime;
#X floatatom 159 364 5 0 0 0 - - -;
#X floatatom 196 361 5 0 0 0 - - -;
#X obj 187 278 nrpn_in 3;
#N canvas 662 843 572 235 pans 0;
#X obj 399 53 nrpn_out 92;
#X obj 399 27 r pan6;
#X obj 322 28 r pan5;
#X obj 322 54 nrpn_out 91;
#X obj 245 29 r pan4;
#X obj 169 30 r pan3;
#X obj 93 31 r pan2;
#X obj 15 32 r pan1;
#X obj 245 55 nrpn_out 90;
#X obj 169 56 nrpn_out 89;
#X obj 93 57 nrpn_out 88;
#X obj 16 58 nrpn_out 87;
#X obj 7 111 ctlin 86;
#X obj 10 181 s pan_freq;
#X floatatom 21 160 5 0 0 0 - - -;
#X obj 10 134 range 0 127 0.1 5;
#X connect 1 0 0 0;
#X connect 2 0 3 0;
#X connect 4 0 8 0;
#X connect 5 0 9 0;
#X connect 6 0 10 0;
#X connect 7 0 11 0;
#X connect 12 0 15 0;
#X connect 15 0 13 0;
#X connect 15 0 14 0;
#X restore 306 225 pd pans;
#X obj 187 304 range 0 500 0 16;
#N canvas 560 486 450 300 bass 0;
#X obj 53 193 s bfreq;
#X obj 256 88 select 127;
#X obj 260 117 bng 15 250 50 0 empty empty empty 17 7 0 10 -262144
-1 -1;
#X obj 254 150 s basswarb;
#X obj 161 50 ctlin 5;
#X floatatom 172 79 5 0 0 0 - - -;
#X obj 159 144 s bassflip;
#X obj 140 112 range 0 127 1 20;
#X obj 53 33 ctlin 6;
#X obj 315 56 ctlin 14;
#X obj 256 56 ctlin 13;
#X connect 1 0 2 0;
#X connect 1 0 3 0;
#X connect 4 0 5 0;
#X connect 4 0 7 0;
#X connect 7 0 6 0;
#X connect 8 0 0 0;
#X connect 9 0 1 0;
#X connect 10 0 1 0;
#X restore 174 196 pd bass;
#X connect 1 0 0 0;
#X connect 2 0 0 0;
#X connect 4 0 0 0;
#X connect 6 0 0 0;
#X connect 11 0 9 0;
#X connect 11 0 13 0;
#X connect 13 0 8 0;
#X connect 13 0 10 0;
#X restore 251 207 pd midis;
#X obj 199 56 loadbang;
#X obj 198 109 222;
#X msg 30 197 send /npan 180;
#N canvas 809 856 398 301 initvca 0;
#X obj 111 236 outlet;
#X obj 82 36 loadbang;
#X msg 70 106 send /vca1 1;
#X msg 91 129 send /vca2 1;
#X msg 115 151 send /vca3 1;
#X msg 176 108 send /vca4 1;
#X msg 197 131 send /vca5 1;
#X msg 221 153 send /vca6 1;
#X obj 83 68 delay 500;
#X obj 140 36 inlet;
#X connect 1 0 8 0;
#X connect 2 0 0 0;
#X connect 3 0 0 0;
#X connect 4 0 0 0;
#X connect 5 0 0 0;
#X connect 6 0 0 0;
#X connect 7 0 0 0;
#X connect 8 0 2 0;
#X connect 8 0 3 0;
#X connect 8 0 4 0;
#X connect 8 0 5 0;
#X connect 8 0 6 0;
#X connect 8 0 7 0;
#X connect 9 0 8 0;
#X restore 23 254 pd initvca;
#N canvas 862 855 450 300 initpan 0;
#X obj 94 265 outlet;
#X obj 96 19 loadbang;
#X msg 49 103 send /pan1 180;
#X msg 68 123 send /pan2 180;
#X msg 85 144 send /pan3 180;
#X msg 168 102 send /pan4 180;
#X msg 187 122 send /pan5 180;
#X msg 204 143 send /pan6 180;
#X obj 104 48 delay 500;
#X obj 155 19 inlet;
#X connect 1 0 8 0;
#X connect 2 0 0 0;
#X connect 3 0 0 0;
#X connect 4 0 0 0;
#X connect 5 0 0 0;
#X connect 6 0 0 0;
#X connect 7 0 0 0;
#X connect 8 0 2 0;
#X connect 8 0 3 0;
#X connect 8 0 4 0;
#X connect 8 0 5 0;
#X connect 8 0 6 0;
#X connect 8 0 7 0;
#X connect 9 0 8 0;
#X restore 21 278 pd initpan;
#X obj 361 54 vsl 15 128 0 127 0 0 empty empty empty 0 -9 0 10 -262144
-1 -1 0 1;
#X msg 282 269 send /formanttime \$1;
#X msg 208 357 connect 192.168.0.100 9001;
#X obj 14 234 bng 15 250 50 0 empty empty empty 17 7 0 10 -262144 -1
-1;
#X obj 332 24 r formanttime;
#N canvas 985 603 635 529 panners 0;
#X obj 291 455 outlet;
#X msg 37 317 send /pan1 \$1;
#X obj 37 124 phasor~ 0.2;
#X obj 37 263 snapshot~;
#X obj 54 238 metro 50;
#X obj 55 211 tgl 15 0 empty empty empty 17 7 0 10 -262144 -1 -1 1
1;
#X obj 76 209 loadbang;
#X obj 38 153 *~ 360;
#X floatatom 46 288 5 0 0 0 - - -;
#X obj 131 125 phasor~ 0.2;
#X obj 131 264 snapshot~;
#X obj 148 239 metro 50;
#X obj 149 212 tgl 15 0 empty empty empty 17 7 0 10 -262144 -1 -1 1
1;
#X obj 170 210 loadbang;
#X obj 132 154 *~ 360;
#X floatatom 146 288 5 0 0 0 - - -;
#X obj 220 124 phasor~ 0.2;
#X obj 220 263 snapshot~;
#X obj 237 238 metro 50;
#X obj 238 211 tgl 15 0 empty empty empty 17 7 0 10 -262144 -1 -1 1
1;
#X obj 259 209 loadbang;
#X obj 221 153 *~ 360;
#X floatatom 235 287 5 0 0 0 - - -;
#X msg 131 318 send /pan2 \$1;
#X msg 220 317 send /pan3 \$1;
#X msg 85 93 0;
#X msg 287 8 bang;
#X obj 312 125 phasor~ 0.2;
#X obj 312 264 snapshot~;
#X obj 329 239 metro 50;
#X obj 330 212 tgl 15 0 empty empty empty 17 7 0 10 -262144 -1 -1 1
1;
#X obj 351 210 loadbang;
#X obj 313 154 *~ 360;
#X floatatom 327 288 5 0 0 0 - - -;
#X obj 406 126 phasor~ 0.2;
#X obj 406 265 snapshot~;
#X obj 423 240 metro 50;
#X obj 424 213 tgl 15 0 empty empty empty 17 7 0 10 -262144 -1 -1 1
1;
#X obj 445 211 loadbang;
#X obj 407 155 *~ 360;
#X floatatom 421 289 5 0 0 0 - - -;
#X obj 495 125 phasor~ 0.2;
#X obj 495 264 snapshot~;
#X obj 512 239 metro 50;
#X obj 513 212 tgl 15 0 empty empty empty 17 7 0 10 -262144 -1 -1 1
1;
#X obj 534 210 loadbang;
#X obj 496 154 *~ 360;
#X floatatom 510 288 5 0 0 0 - - -;
#X msg 312 318 send /pan4 \$1;
#X msg 406 319 send /pan5 \$1;
#X msg 495 318 send /pan6 \$1;
#X obj 84 287 s pan1;
#X obj 548 286 s pan6;
#X obj 458 288 s pan5;
#X obj 362 287 s pan4;
#X obj 270 286 s pan3;
#X obj 181 287 s pan2;
#X obj 175 9 loadbang;
#X obj 37 66 r pan_freq;
#X obj 131 63 r pan_freq;
#X obj 220 61 r pan_freq;
#X obj 312 60 r pan_freq;
#X obj 406 62 r pan_freq;
#X obj 494 57 r pan_freq;
#X msg 171 89 0.1666;
#X msg 261 89 0.3333;
#X msg 358 88 0.5;
#X msg 440 87 0.66666;
#X msg 545 86 0.833333;
#X connect 1 0 0 0;
#X connect 2 0 7 0;
#X connect 3 0 8 0;
#X connect 3 0 1 0;
#X connect 3 0 51 0;
#X connect 4 0 3 0;
#X connect 5 0 4 0;
#X connect 6 0 5 0;
#X connect 7 0 3 0;
#X connect 9 0 14 0;
#X connect 10 0 15 0;
#X connect 10 0 23 0;
#X connect 10 0 56 0;
#X connect 11 0 10 0;
#X connect 12 0 11 0;
#X connect 13 0 12 0;
#X connect 14 0 10 0;
#X connect 16 0 21 0;
#X connect 17 0 22 0;
#X connect 17 0 24 0;
#X connect 17 0 55 0;
#X connect 18 0 17 0;
#X connect 19 0 18 0;
#X connect 20 0 19 0;
#X connect 21 0 17 0;
#X connect 23 0 0 0;
#X connect 24 0 0 0;
#X connect 25 0 2 1;
#X connect 26 0 25 0;
#X connect 26 0 64 0;
#X connect 26 0 65 0;
#X connect 26 0 66 0;
#X connect 26 0 67 0;
#X connect 26 0 68 0;
#X connect 27 0 32 0;
#X connect 28 0 33 0;
#X connect 28 0 48 0;
#X connect 28 0 54 0;
#X connect 29 0 28 0;
#X connect 30 0 29 0;
#X connect 31 0 30 0;
#X connect 32 0 28 0;
#X connect 34 0 39 0;
#X connect 35 0 40 0;
#X connect 35 0 49 0;
#X connect 35 0 53 0;
#X connect 36 0 35 0;
#X connect 37 0 36 0;
#X connect 38 0 37 0;
#X connect 39 0 35 0;
#X connect 41 0 46 0;
#X connect 42 0 47 0;
#X connect 42 0 50 0;
#X connect 42 0 52 0;
#X connect 43 0 42 0;
#X connect 44 0 43 0;
#X connect 45 0 44 0;
#X connect 46 0 42 0;
#X connect 48 0 0 0;
#X connect 49 0 0 0;
#X connect 50 0 0 0;
#X connect 57 0 26 0;
#X connect 58 0 2 0;
#X connect 59 0 9 0;
#X connect 60 0 16 0;
#X connect 61 0 27 0;
#X connect 62 0 34 0;
#X connect 63 0 41 0;
#X connect 64 0 9 1;
#X connect 65 0 16 1;
#X connect 66 0 27 1;
#X connect 67 0 34 1;
#X connect 68 0 41 1;
#X restore 150 179 pd panners;
#X msg 84 115 send /quad;
#X connect 0 0 1 0;
#X connect 2 0 1 0;
#X connect 3 0 0 0;
#X connect 4 0 3 0;
#X connect 4 0 16 0;
#X connect 5 0 0 0;
#X connect 6 0 0 0;
#X connect 8 0 0 0;
#X connect 9 0 0 0;
#X connect 10 0 9 0;
#X connect 11 0 10 0;
#X connect 12 0 9 1;
#X connect 13 0 0 0;
#X connect 14 0 15 0;
#X connect 15 0 10 0;
#X connect 16 0 0 0;
#X connect 17 0 0 0;
#X connect 18 0 0 0;
#X connect 19 0 20 0;
#X connect 20 0 0 0;
#X connect 21 0 1 0;
#X connect 22 0 17 0;
#X connect 22 0 18 0;
#X connect 23 0 19 0;
#X connect 24 0 0 0;
#X connect 25 0 0 0;
